<svg width="91" height="96" viewBox="0 0 91 96" fill="none" xmlns="http://www.w3.org/2000/svg">
<rect y="5.64746" width="90.3529" height="90.3529" rx="17.4545" fill="url(#paint0_linear_1101_8566)"/>
<rect width="90.3529" height="90.3529" rx="17.4545" fill="#3066C1"/>
<g clip-path="url(#clip0_1101_8566)">
<rect width="39.4267" height="39.4267" transform="translate(26.2844 26.2852)" fill="#3066C1"/>
<path d="M32.0248 50.8051L32.5913 51.9852H32.5913L32.0248 50.8051ZM32.0248 43.6554L32.5913 42.4752H32.5913L32.0248 43.6554ZM63.2858 51.2134L63.8522 50.0332H63.8522L63.2858 51.2134ZM63.2858 43.2471L62.7193 42.0669H62.7193L63.2858 43.2471ZM62.4351 43.6554L63.0016 44.8356H63.0016L62.4351 43.6554ZM62.4351 50.8051L61.8686 51.9852L62.4351 50.8051ZM31.1741 43.2471L30.6076 44.4273L30.6076 44.4273L31.1741 43.2471ZM31.1741 51.2134L30.6076 50.0332H30.6076L31.1741 51.2134ZM41.0679 51.5409C40.5567 52.0522 40.5567 52.881 41.0679 53.3923C41.5791 53.9035 42.408 53.9035 42.9192 53.3923L41.0679 51.5409ZM52.793 43.5185C53.3043 43.0073 53.3043 42.1784 52.793 41.6672C52.2818 41.1559 51.4529 41.1559 50.9417 41.6672L52.793 43.5185ZM37.533 34.5757H56.9269V31.9575H37.533V34.5757ZM56.9269 59.8848H37.533V62.503H56.9269V59.8848ZM62.7193 42.0669L61.8686 42.4752L63.0016 44.8356L63.8522 44.4273L62.7193 42.0669ZM61.8686 51.9852L62.7193 52.3936L63.8522 50.0332L63.0016 49.6249L61.8686 51.9852ZM31.7406 52.3936L32.5913 51.9852L31.4583 49.6249L30.6076 50.0332L31.7406 52.3936ZM32.5913 42.4752L31.7406 42.0669L30.6076 44.4273L31.4583 44.8356L32.5913 42.4752ZM32.5913 51.9852C36.5806 50.0704 36.5806 44.3901 32.5913 42.4752L31.4583 44.8356C33.4674 45.7999 33.4674 48.6605 31.4583 49.6249L32.5913 51.9852ZM62.7193 52.3936C63.1203 52.5861 63.3754 52.9915 63.3754 53.4363H65.9936C65.9936 51.9845 65.161 50.6614 63.8522 50.0332L62.7193 52.3936ZM63.3754 41.0242C63.3754 41.469 63.1203 41.8744 62.7193 42.0669L63.8522 44.4273C65.161 43.799 65.9936 42.4759 65.9936 41.0242H63.3754ZM61.8686 42.4752C57.8792 44.3901 57.8792 50.0704 61.8686 51.9852L63.0016 49.6249C60.9925 48.6605 60.9925 45.7999 63.0016 44.8356L61.8686 42.4752ZM37.533 59.8848C33.9716 59.8848 31.0845 56.9977 31.0845 53.4363H28.4663C28.4663 58.4437 32.5256 62.503 37.533 62.503V59.8848ZM31.7406 42.0669C31.3396 41.8744 31.0845 41.469 31.0845 41.0242H28.4663C28.4663 42.4759 29.2988 43.799 30.6076 44.4273L31.7406 42.0669ZM56.9269 62.503C61.9343 62.503 65.9936 58.4437 65.9936 53.4363H63.3754C63.3754 56.9977 60.4883 59.8848 56.9269 59.8848V62.503ZM31.0845 53.4363C31.0845 52.9915 31.3396 52.5861 31.7406 52.3936L30.6076 50.0332C29.2988 50.6614 28.4663 51.9845 28.4663 53.4363H31.0845ZM56.9269 34.5757C60.4883 34.5757 63.3754 37.4628 63.3754 41.0242H65.9936C65.9936 36.0168 61.9343 31.9575 56.9269 31.9575V34.5757ZM37.533 31.9575C32.5256 31.9575 28.4663 36.0168 28.4663 41.0242H31.0845C31.0845 37.4628 33.9716 34.5757 37.533 34.5757V31.9575ZM42.9192 53.3923L52.793 43.5185L50.9417 41.6672L41.0679 51.5409L42.9192 53.3923Z" fill="white"/>
<path d="M40.248 41.9935C40.248 42.9575 41.0295 43.739 41.9935 43.739C42.9575 43.739 43.739 42.9575 43.739 41.9935C43.739 41.0295 42.9575 40.248 41.9935 40.248C41.0295 40.248 40.248 41.0295 40.248 41.9935Z" fill="white"/>
<path d="M50.7208 52.4662C50.7208 53.4302 51.5022 54.2117 52.4662 54.2117C53.4302 54.2117 54.2117 53.4302 54.2117 52.4662C54.2117 51.5022 53.4302 50.7208 52.4662 50.7208C51.5022 50.7208 50.7208 51.5022 50.7208 52.4662Z" fill="white"/>
</g>
<defs>
<linearGradient id="paint0_linear_1101_8566" x1="94.8038" y1="-4.14075" x2="-4.20527" y2="4.10952" gradientUnits="userSpaceOnUse">
<stop stop-color="#154BA5"/>
<stop offset="1" stop-color="#01348A"/>
</linearGradient>
<clipPath id="clip0_1101_8566">
<rect width="39.4267" height="39.4267" fill="white" transform="translate(26.2844 26.2852)"/>
</clipPath>
</defs>
</svg>
