<svg width="35" height="35" viewBox="0 0 35 35" fill="none" xmlns="http://www.w3.org/2000/svg">
<path d="M31.3978 15.852L29.1811 13.6353C28.802 13.2561 28.4957 12.5124 28.4957 11.9874V8.83737C28.4957 7.55404 27.4457 6.50404 26.1624 6.50404H23.027C22.502 6.50404 21.7582 6.19779 21.379 5.81862L19.1624 3.60195C18.2582 2.69779 16.7707 2.69779 15.8665 3.60195L13.6207 5.81862C13.2561 6.19779 12.5124 6.50404 11.9728 6.50404H8.83737C7.55404 6.50404 6.50404 7.55404 6.50404 8.83737V11.9728C6.50404 12.4978 6.19779 13.2415 5.81862 13.6207L3.60195 15.8374C2.69779 16.7415 2.69779 18.229 3.60195 19.1332L5.81862 21.3499C6.19779 21.729 6.50404 22.4728 6.50404 22.9978V26.1332C6.50404 27.4165 7.55404 28.4665 8.83737 28.4665H11.9728C12.4978 28.4665 13.2415 28.7728 13.6207 29.152L15.8374 31.3686C16.7415 32.2728 18.229 32.2728 19.1332 31.3686L21.3499 29.152C21.729 28.7728 22.4728 28.4665 22.9978 28.4665H26.1332C27.4165 28.4665 28.4665 27.4165 28.4665 26.1332V22.9978C28.4665 22.4728 28.7728 21.729 29.152 21.3499L31.3686 19.1332C32.3165 18.2436 32.3165 16.7561 31.3978 15.852ZM11.6665 13.1249C11.6665 12.3228 12.3228 11.6665 13.1249 11.6665C13.927 11.6665 14.5832 12.3228 14.5832 13.1249C14.5832 13.927 13.9415 14.5832 13.1249 14.5832C12.3228 14.5832 11.6665 13.927 11.6665 13.1249ZM13.8978 22.6478C13.679 22.8665 13.402 22.9686 13.1249 22.9686C12.8478 22.9686 12.5707 22.8665 12.352 22.6478C11.929 22.2249 11.929 21.5249 12.352 21.102L21.102 12.352C21.5249 11.929 22.2249 11.929 22.6478 12.352C23.0707 12.7749 23.0707 13.4749 22.6478 13.8978L13.8978 22.6478ZM21.8749 23.3332C21.0582 23.3332 20.402 22.677 20.402 21.8749C20.402 21.0728 21.0582 20.4165 21.8603 20.4165C22.6624 20.4165 23.3186 21.0728 23.3186 21.8749C23.3186 22.677 22.677 23.3332 21.8749 23.3332Z" fill="#ED2139"/>
</svg>
