<svg width="72" height="72" viewBox="0 0 72 72" fill="none" xmlns="http://www.w3.org/2000/svg">
<circle cx="36" cy="36" r="36" fill="white"/>
<g clip-path="url(#clip0_1101_14424)">
<path d="M25.7197 30.9213L27.6127 29.0273L31.3057 32.7193C31.4943 32.9014 31.7469 33.0022 32.0091 33C32.2713 32.9977 32.5221 32.8925 32.7075 32.7071C32.8929 32.5217 32.9981 32.2709 33.0003 32.0087C33.0026 31.7465 32.9018 31.4939 32.7197 31.3053L29.0277 27.6123L30.9217 25.7193C31.0616 25.5793 31.1568 25.401 31.1953 25.2068C31.2338 25.0127 31.2139 24.8115 31.138 24.6287C31.062 24.4459 30.9336 24.2898 30.7689 24.1801C30.6042 24.0703 30.4106 24.0119 30.2127 24.0123L25.4487 24.0123C25.0678 24.0123 24.7026 24.1636 24.4332 24.4329C24.1639 24.7022 24.0127 25.0674 24.0127 25.4483L24.0127 30.2123C24.0123 30.4102 24.0707 30.6038 24.1804 30.7685C24.2901 30.9332 24.4463 31.0617 24.6291 31.1376C24.8119 31.2135 25.0131 31.2335 25.2072 31.195C25.4013 31.1565 25.5797 31.0612 25.7197 30.9213Z" fill="#3066C1"/>
<path d="M42.9717 44.3873L41.0777 46.2813C40.9381 46.4213 40.8432 46.5996 40.8049 46.7936C40.7665 46.9875 40.7866 47.1885 40.8625 47.3711C40.9384 47.5536 41.0667 47.7096 41.2312 47.8193C41.3957 47.929 41.589 47.9875 41.7867 47.9873L46.5507 47.9873C46.9315 47.9873 47.2968 47.836 47.5661 47.5667C47.8354 47.2974 47.9867 46.9322 47.9867 46.5513L47.9867 41.7873C47.9869 41.5895 47.9283 41.396 47.8185 41.2315C47.7087 41.0669 47.5526 40.9386 47.3698 40.8628C47.1871 40.787 46.986 40.7671 46.7919 40.8057C46.5979 40.8442 46.4196 40.9394 46.2797 41.0793L44.3867 42.9723L40.6947 39.2803C40.5061 39.0981 40.2535 38.9974 39.9913 38.9996C39.7291 39.0019 39.4783 39.1071 39.2929 39.2925C39.1075 39.4779 39.0023 39.7287 39 39.9909C38.9977 40.2531 39.0985 40.5057 39.2807 40.6943L42.9717 44.3873Z" fill="#3066C1"/>
<path d="M46.5642 24.0003L41.8002 24.0003C41.6024 24.0001 41.409 24.0587 41.2444 24.1685C41.0798 24.2783 40.9516 24.4344 40.8758 24.6172C40.8 24.7999 40.7801 25.001 40.8186 25.1951C40.8571 25.3891 40.9524 25.5674 41.0922 25.7073L42.9852 27.6003L39.2932 31.2923C39.1056 31.4798 39.0001 31.7342 39 31.9994C38.9999 32.2647 39.1052 32.5192 39.2927 32.7068C39.4802 32.8944 39.7346 32.9999 39.9999 33C40.2652 33.0001 40.5196 32.8948 40.7072 32.7073L44.4002 29.0153L46.2932 30.9093C46.4332 31.0492 46.6116 31.1445 46.8057 31.183C46.9998 31.2215 47.201 31.2015 47.3838 31.1256C47.5666 31.0497 47.7227 30.9212 47.8325 30.7565C47.9422 30.5918 48.0006 30.3982 48.0002 30.2003L48.0002 25.4363C48.0002 25.0554 47.849 24.6902 47.5796 24.4209C47.3103 24.1516 46.9451 24.0003 46.5642 24.0003Z" fill="#3066C1"/>
<path d="M25.4233 48.0127L30.1873 48.0127C30.3852 48.0129 30.5786 47.9543 30.7432 47.8445C30.9077 47.7347 31.036 47.5786 31.1118 47.3958C31.1876 47.2131 31.2075 47.012 31.169 46.8179C31.1304 46.6239 31.0352 46.4456 30.8953 46.3057L29.0023 44.4127L32.6943 40.7197C32.7899 40.6274 32.866 40.5171 32.9184 40.3951C32.9709 40.2731 32.9984 40.1419 32.9996 40.0091C33.0008 39.8763 32.9754 39.7446 32.9252 39.6217C32.8749 39.4988 32.8006 39.3872 32.7067 39.2933C32.6128 39.1994 32.5012 39.1252 32.3783 39.0749C32.2554 39.0246 32.1237 38.9993 31.9909 39.0004C31.8582 39.0016 31.7269 39.0292 31.6049 39.0816C31.4829 39.134 31.3726 39.2102 31.2803 39.3057L27.5873 42.9977L25.6933 41.1037C25.5533 40.9641 25.3751 40.8692 25.1811 40.8309C24.9871 40.7925 24.7862 40.8126 24.6036 40.8885C24.421 40.9644 24.265 41.0927 24.1553 41.2572C24.0456 41.4217 23.9872 41.615 23.9873 41.8127L23.9873 46.5767C23.9873 46.9575 24.1386 47.3228 24.4079 47.5921C24.6772 47.8614 25.0425 48.0127 25.4233 48.0127Z" fill="#3066C1"/>
</g>
<defs>
<clipPath id="clip0_1101_14424">
<rect width="24" height="24" fill="white" transform="translate(24 24)"/>
</clipPath>
</defs>
</svg>
