<svg width="27" height="20" viewBox="0 0 27 20" fill="none" xmlns="http://www.w3.org/2000/svg">
<path d="M9.04652 19.0667C18.8554 19.0667 24.222 11.7304 24.222 5.37034C24.222 5.16409 24.2169 4.95327 24.2068 4.74703C25.2507 4.06564 26.1516 3.22165 26.8672 2.2547C25.8949 2.64512 24.8626 2.90009 23.8056 3.01092C24.9186 2.4088 25.7519 1.4629 26.1512 0.348564C25.1041 0.908605 23.9591 1.30367 22.7651 1.51681C21.9606 0.745326 20.8969 0.23451 19.7385 0.0633415C18.5801 -0.107827 17.3915 0.0701851 16.3564 0.569856C15.3213 1.06953 14.4975 1.86303 14.0122 2.82767C13.5269 3.79232 13.4072 4.87438 13.6717 5.90657C11.5516 5.81055 9.47745 5.31348 7.58383 4.44758C5.69022 3.58169 4.01936 2.3663 2.67957 0.880211C1.99862 1.93982 1.79025 3.19367 2.0968 4.38695C2.40336 5.58024 3.20184 6.6234 4.32996 7.30443C3.48303 7.28016 2.65466 7.07436 1.91328 6.70404V6.76362C1.91252 7.87559 2.33846 8.95349 3.11869 9.81408C3.89892 10.6747 4.98529 11.2648 6.19312 11.4843C5.40858 11.678 4.58517 11.7062 3.7866 11.5668C4.12743 12.5231 4.79056 13.3595 5.68344 13.9593C6.57632 14.5591 7.6544 14.8923 8.76723 14.9125C6.87798 16.2519 4.54421 16.9783 2.1418 16.9749C1.71575 16.9743 1.29012 16.9508 0.867188 16.9043C3.30778 18.3175 6.14685 19.068 9.04652 19.0667Z" fill="#0E0E0E"/>
</svg>
