<svg width="100" height="104" viewBox="0 0 100 104" fill="none" xmlns="http://www.w3.org/2000/svg">
<g filter="url(#filter0_d_1001_618)">
<rect x="4.82349" y="5.64746" width="90.3529" height="90.3529" rx="17.4545" fill="url(#paint0_linear_1001_618)"/>
<rect x="4.82349" width="90.3529" height="90.3529" rx="17.4545" fill="#3066C1"/>
<g clip-path="url(#clip0_1001_618)">
<path d="M36.8483 50.8051L37.4148 51.9852H37.4148L36.8483 50.8051ZM36.8483 43.6554L37.4148 42.4752H37.4148L36.8483 43.6554ZM68.1092 51.2134L68.6757 50.0332H68.6757L68.1092 51.2134ZM68.1092 43.2471L67.5428 42.0669H67.5428L68.1092 43.2471ZM67.2586 43.6554L67.825 44.8356H67.8251L67.2586 43.6554ZM67.2586 50.8051L66.6921 51.9852L67.2586 50.8051ZM35.9976 43.2471L35.4311 44.4273L35.4311 44.4273L35.9976 43.2471ZM35.9976 51.2134L35.4311 50.0332H35.4311L35.9976 51.2134ZM45.8914 51.5409C45.3802 52.0522 45.3802 52.881 45.8914 53.3923C46.4026 53.9035 47.2315 53.9035 47.7427 53.3923L45.8914 51.5409ZM57.6165 43.5185C58.1277 43.0073 58.1277 42.1784 57.6165 41.6672C57.1053 41.1559 56.2764 41.1559 55.7652 41.6672L57.6165 43.5185ZM42.3565 34.5757H61.7504V31.9575H42.3565V34.5757ZM61.7504 59.8848H42.3565V62.503H61.7504V59.8848ZM67.5428 42.0669L66.6921 42.4752L67.8251 44.8356L68.6757 44.4273L67.5428 42.0669ZM66.6921 51.9852L67.5428 52.3936L68.6757 50.0332L67.825 49.6249L66.6921 51.9852ZM36.5641 52.3936L37.4148 51.9852L36.2818 49.6249L35.4311 50.0332L36.5641 52.3936ZM37.4148 42.4752L36.5641 42.0669L35.4311 44.4273L36.2818 44.8356L37.4148 42.4752ZM37.4148 51.9852C41.4041 50.0704 41.4041 44.3901 37.4148 42.4752L36.2818 44.8356C38.2909 45.7999 38.2909 48.6605 36.2818 49.6249L37.4148 51.9852ZM67.5428 52.3936C67.9438 52.5861 68.1989 52.9915 68.1989 53.4363H70.8171C70.8171 51.9845 69.9845 50.6614 68.6757 50.0332L67.5428 52.3936ZM68.1989 41.0242C68.1989 41.469 67.9438 41.8744 67.5428 42.0669L68.6757 44.4273C69.9845 43.799 70.8171 42.4759 70.8171 41.0242H68.1989ZM66.6921 42.4752C62.7027 44.3901 62.7027 50.0704 66.6921 51.9852L67.825 49.6249C65.816 48.6605 65.816 45.7999 67.825 44.8356L66.6921 42.4752ZM42.3565 59.8848C38.7951 59.8848 35.908 56.9977 35.908 53.4363H33.2898C33.2898 58.4437 37.3491 62.503 42.3565 62.503V59.8848ZM36.5641 42.0669C36.1631 41.8744 35.908 41.469 35.908 41.0242H33.2898C33.2898 42.4759 34.1223 43.799 35.4311 44.4273L36.5641 42.0669ZM61.7504 62.503C66.7578 62.503 70.8171 58.4437 70.8171 53.4363H68.1989C68.1989 56.9977 65.3118 59.8848 61.7504 59.8848V62.503ZM35.908 53.4363C35.908 52.9915 36.1631 52.5861 36.5641 52.3936L35.4311 50.0332C34.1223 50.6614 33.2898 51.9845 33.2898 53.4363H35.908ZM61.7504 34.5757C65.3118 34.5757 68.1989 37.4628 68.1989 41.0242H70.8171C70.8171 36.0168 66.7578 31.9575 61.7504 31.9575V34.5757ZM42.3565 31.9575C37.3491 31.9575 33.2898 36.0168 33.2898 41.0242H35.908C35.908 37.4628 38.7951 34.5757 42.3565 34.5757V31.9575ZM47.7427 53.3923L57.6165 43.5185L55.7652 41.6672L45.8914 51.5409L47.7427 53.3923Z" fill="white"/>
<path d="M45.0715 41.9945C45.0715 42.9585 45.853 43.7399 46.817 43.7399C47.781 43.7399 48.5624 42.9585 48.5624 41.9945C48.5624 41.0305 47.781 40.249 46.817 40.249C45.853 40.249 45.0715 41.0305 45.0715 41.9945Z" fill="white"/>
<path d="M55.5443 52.4672C55.5443 53.4312 56.3257 54.2127 57.2897 54.2127C58.2537 54.2127 59.0352 53.4312 59.0352 52.4672C59.0352 51.5032 58.2537 50.7218 57.2897 50.7218C56.3257 50.7218 55.5443 51.5032 55.5443 52.4672Z" fill="white"/>
</g>
</g>
<defs>
<filter id="filter0_d_1001_618" x="0.823486" y="0" width="98.353" height="104" filterUnits="userSpaceOnUse" color-interpolation-filters="sRGB">
<feFlood flood-opacity="0" result="BackgroundImageFix"/>
<feColorMatrix in="SourceAlpha" type="matrix" values="0 0 0 0 0 0 0 0 0 0 0 0 0 0 0 0 0 0 127 0" result="hardAlpha"/>
<feOffset dy="4"/>
<feGaussianBlur stdDeviation="2"/>
<feComposite in2="hardAlpha" operator="out"/>
<feColorMatrix type="matrix" values="0 0 0 0 0 0 0 0 0 0 0 0 0 0 0 0 0 0 0.25 0"/>
<feBlend mode="normal" in2="BackgroundImageFix" result="effect1_dropShadow_1001_618"/>
<feBlend mode="normal" in="SourceGraphic" in2="effect1_dropShadow_1001_618" result="shape"/>
</filter>
<linearGradient id="paint0_linear_1001_618" x1="99.6273" y1="-4.14075" x2="0.618218" y2="4.10952" gradientUnits="userSpaceOnUse">
<stop stop-color="#154BA5"/>
<stop offset="1" stop-color="#01348A"/>
</linearGradient>
<clipPath id="clip0_1001_618">
<rect width="39.4267" height="39.4267" fill="white" transform="translate(31.1079 26.2852)"/>
</clipPath>
</defs>
</svg>
