<svg width="92" height="96" viewBox="0 0 92 96" fill="none" xmlns="http://www.w3.org/2000/svg">
<rect x="0.82373" y="5.64746" width="90.3529" height="90.3529" rx="17.4545" fill="#B91B2E"/>
<rect x="0.82373" width="90.3529" height="90.3529" rx="17.4545" fill="#ED2139"/>
<g clip-path="url(#clip0_1001_8865)">
<rect width="39.4267" height="39.4267" transform="translate(27.1084 26.2852)" fill="#ED2139"/>
<path d="M32.8485 50.8051L33.415 51.9852H33.415L32.8485 50.8051ZM32.8485 43.6554L33.415 42.4752H33.415L32.8485 43.6554ZM64.1095 51.2134L64.676 50.0332H64.676L64.1095 51.2134ZM64.1095 43.2471L63.543 42.0669H63.543L64.1095 43.2471ZM63.2588 43.6554L63.8253 44.8356H63.8253L63.2588 43.6554ZM63.2588 50.8051L62.6923 51.9852L63.2588 50.8051ZM31.9978 43.2471L31.4314 44.4273L31.4314 44.4273L31.9978 43.2471ZM31.9978 51.2134L31.4314 50.0332H31.4314L31.9978 51.2134ZM41.8916 51.5409C41.3804 52.0522 41.3804 52.881 41.8916 53.3923C42.4029 53.9035 43.2317 53.9035 43.743 53.3923L41.8916 51.5409ZM53.6168 43.5185C54.128 43.0073 54.128 42.1784 53.6168 41.6672C53.1055 41.1559 52.2766 41.1559 51.7654 41.6672L53.6168 43.5185ZM38.3567 34.5757H57.7506V31.9575H38.3567V34.5757ZM57.7506 59.8848H38.3567V62.503H57.7506V59.8848ZM63.543 42.0669L62.6923 42.4752L63.8253 44.8356L64.676 44.4273L63.543 42.0669ZM62.6923 51.9852L63.543 52.3936L64.676 50.0332L63.8253 49.6249L62.6923 51.9852ZM32.5643 52.3936L33.415 51.9852L32.282 49.6249L31.4314 50.0332L32.5643 52.3936ZM33.415 42.4752L32.5643 42.0669L31.4314 44.4273L32.282 44.8356L33.415 42.4752ZM33.415 51.9852C37.4044 50.0704 37.4044 44.3901 33.415 42.4752L32.282 44.8356C34.2911 45.7999 34.2911 48.6605 32.282 49.6249L33.415 51.9852ZM63.543 52.3936C63.944 52.5861 64.1991 52.9915 64.1991 53.4363H66.8173C66.8173 51.9845 65.9848 50.6614 64.676 50.0332L63.543 52.3936ZM64.1991 41.0242C64.1991 41.469 63.944 41.8744 63.543 42.0669L64.676 44.4273C65.9848 43.799 66.8173 42.4759 66.8173 41.0242H64.1991ZM62.6923 42.4752C58.703 44.3901 58.703 50.0704 62.6923 51.9852L63.8253 49.6249C61.8162 48.6605 61.8162 45.7999 63.8253 44.8356L62.6923 42.4752ZM38.3567 59.8848C34.7953 59.8848 31.9082 56.9977 31.9082 53.4363H29.29C29.29 58.4437 33.3493 62.503 38.3567 62.503V59.8848ZM32.5643 42.0669C32.1633 41.8744 31.9082 41.469 31.9082 41.0242H29.29C29.29 42.4759 30.1226 43.799 31.4314 44.4273L32.5643 42.0669ZM57.7506 62.503C62.758 62.503 66.8173 58.4437 66.8173 53.4363H64.1991C64.1991 56.9977 61.312 59.8848 57.7506 59.8848V62.503ZM31.9082 53.4363C31.9082 52.9915 32.1633 52.5861 32.5643 52.3936L31.4314 50.0332C30.1226 50.6614 29.29 51.9845 29.29 53.4363H31.9082ZM57.7506 34.5757C61.312 34.5757 64.1991 37.4628 64.1991 41.0242H66.8173C66.8173 36.0168 62.758 31.9575 57.7506 31.9575V34.5757ZM38.3567 31.9575C33.3493 31.9575 29.29 36.0168 29.29 41.0242H31.9082C31.9082 37.4628 34.7953 34.5757 38.3567 34.5757V31.9575ZM43.743 53.3923L53.6168 43.5185L51.7654 41.6672L41.8916 51.5409L43.743 53.3923Z" fill="white"/>
<path d="M41.0718 41.9945C41.0718 42.9585 41.8532 43.7399 42.8172 43.7399C43.7812 43.7399 44.5627 42.9585 44.5627 41.9945C44.5627 41.0305 43.7812 40.249 42.8172 40.249C41.8532 40.249 41.0718 41.0305 41.0718 41.9945Z" fill="white"/>
<path d="M51.5445 52.4672C51.5445 53.4312 52.326 54.2127 53.29 54.2127C54.2539 54.2127 55.0354 53.4312 55.0354 52.4672C55.0354 51.5032 54.2539 50.7218 53.29 50.7218C52.326 50.7218 51.5445 51.5032 51.5445 52.4672Z" fill="white"/>
</g>
<defs>
<clipPath id="clip0_1001_8865">
<rect width="39.4267" height="39.4267" fill="white" transform="translate(27.1084 26.2852)"/>
</clipPath>
</defs>
</svg>
