<svg width="75" height="75" viewBox="0 0 75 75" fill="none" xmlns="http://www.w3.org/2000/svg">
<rect width="75" height="75" rx="13.6364" transform="matrix(-1 0 0 1 75 0)" fill="#3066C1"/>
<path d="M42.1712 50.0507L41.581 49.5879L42.1712 50.0507ZM33.8288 50.0507L33.2386 50.5135L33.8288 50.0507ZM38 53.5082V52.7582V53.5082ZM49.25 34.913C49.25 36.8563 48.2467 39.3908 46.732 42.0687C45.234 44.7172 43.3021 47.3933 41.581 49.5879L42.7614 50.5135C44.505 48.2901 46.4875 45.5478 48.0376 42.8072C49.5712 40.0959 50.75 37.2706 50.75 34.913H49.25ZM34.419 49.5879C32.6979 47.3933 30.766 44.7172 29.268 42.0687C27.7533 39.3908 26.75 36.8563 26.75 34.913H25.25C25.25 37.2706 26.4288 40.0959 27.9624 42.8072C29.5125 45.5478 31.495 48.2901 33.2386 50.5135L34.419 49.5879ZM26.75 34.913C26.75 28.1428 31.8376 22.75 38 22.75V21.25C30.9075 21.25 25.25 27.4199 25.25 34.913H26.75ZM38 22.75C44.1624 22.75 49.25 28.1428 49.25 34.913H50.75C50.75 27.4199 45.0925 21.25 38 21.25V22.75ZM41.581 49.5879C40.6608 50.7614 40.0273 51.5651 39.4509 52.0887C38.9066 52.5831 38.4875 52.7582 38 52.7582V54.2582C38.9724 54.2582 39.735 53.8571 40.4595 53.199C41.1518 52.5701 41.874 51.6451 42.7614 50.5135L41.581 49.5879ZM33.2386 50.5135C34.126 51.6451 34.8482 52.5701 35.5405 53.199C36.265 53.8571 37.0276 54.2582 38 54.2582V52.7582C37.5125 52.7582 37.0934 52.5831 36.5491 52.0887C35.9727 51.5651 35.3392 50.7614 34.419 49.5879L33.2386 50.5135ZM32.75 35.5C32.75 38.3995 35.1005 40.75 38 40.75V39.25C35.9289 39.25 34.25 37.5711 34.25 35.5H32.75ZM38 40.75C40.8995 40.75 43.25 38.3995 43.25 35.5H41.75C41.75 37.5711 40.0711 39.25 38 39.25V40.75ZM43.25 35.5C43.25 32.6005 40.8995 30.25 38 30.25V31.75C40.0711 31.75 41.75 33.4289 41.75 35.5H43.25ZM38 30.25C35.1005 30.25 32.75 32.6005 32.75 35.5H34.25C34.25 33.4289 35.9289 31.75 38 31.75V30.25Z" fill="white"/>
</svg>
