<svg width="28" height="28" viewBox="0 0 28 28" fill="none" xmlns="http://www.w3.org/2000/svg">
<path d="M14.0001 9.51393C11.5299 9.51393 9.51405 11.5298 9.51405 14C9.51405 16.4702 11.5299 18.486 14.0001 18.486C16.4703 18.486 18.4862 16.4702 18.4862 14C18.4862 11.5298 16.4703 9.51393 14.0001 9.51393ZM27.4549 14C27.4549 12.1423 27.4717 10.3014 27.3674 8.44711C27.2631 6.29326 26.7717 4.38172 25.1967 2.80672C23.6184 1.22835 21.7102 0.740374 19.5564 0.636047C17.6987 0.53172 15.8578 0.548547 14.0035 0.548547C12.1458 0.548547 10.3049 0.53172 8.45058 0.636047C6.29674 0.740374 4.3852 1.23172 2.8102 2.80672C1.23183 4.38509 0.743853 6.29326 0.639526 8.44711C0.535199 10.3048 0.552026 12.1457 0.552026 14C0.552026 15.8543 0.535199 17.6985 0.639526 19.5529C0.743853 21.7067 1.2352 23.6183 2.8102 25.1933C4.38857 26.7716 6.29674 27.2596 8.45058 27.3639C10.3083 27.4683 12.1491 27.4514 14.0035 27.4514C15.8612 27.4514 17.702 27.4683 19.5564 27.3639C21.7102 27.2596 23.6217 26.7683 25.1967 25.1933C26.7751 23.6149 27.2631 21.7067 27.3674 19.5529C27.4751 17.6985 27.4549 15.8577 27.4549 14ZM14.0001 20.9024C10.1804 20.9024 7.0977 17.8197 7.0977 14C7.0977 10.1803 10.1804 7.09759 14.0001 7.09759C17.8198 7.09759 20.9025 10.1803 20.9025 14C20.9025 17.8197 17.8198 20.9024 14.0001 20.9024ZM21.1852 8.42691C20.2934 8.42691 19.5732 7.70672 19.5732 6.81489C19.5732 5.92307 20.2934 5.20287 21.1852 5.20287C22.077 5.20287 22.7972 5.92307 22.7972 6.81489C22.7975 7.02666 22.756 7.2364 22.6751 7.4321C22.5941 7.6278 22.4754 7.80561 22.3257 7.95536C22.1759 8.1051 21.9981 8.22383 21.8024 8.30475C21.6067 8.38566 21.397 8.42718 21.1852 8.42691Z" fill="url(#paint0_linear_645_15522)"/>
<defs>
<linearGradient id="paint0_linear_645_15522" x1="28.7818" y1="-2.36714" x2="-0.701216" y2="0.089675" gradientUnits="userSpaceOnUse">
<stop stop-color="#154BA5"/>
<stop offset="1" stop-color="#01348A"/>
</linearGradient>
</defs>
</svg>
