<svg width="4" height="8" viewBox="0 0 4 8" fill="none" xmlns="http://www.w3.org/2000/svg">
<path d="M3.40855 2.62397L0.922839 0.139884C0.819701 0.0466302 0.684653 -0.00339056 0.545653 0.000178675C0.406654 0.00374791 0.27435 0.0606337 0.176135 0.159058C0.0779198 0.257482 0.0213154 0.389906 0.0180414 0.528913C0.0147674 0.667919 0.0650742 0.802861 0.158547 0.9058L2.64263 3.38988C2.74418 3.49146 2.80122 3.62921 2.80122 3.77284C2.80122 3.91647 2.74418 4.05422 2.64263 4.1558L0.158547 6.63988C0.0569799 6.74152 -5.07587e-05 6.87935 3.38986e-08 7.02303C5.08265e-05 7.16672 0.0571793 7.3045 0.158818 7.40607C0.260457 7.50764 0.39828 7.56467 0.541968 7.56462C0.685656 7.56457 0.823438 7.50744 0.925005 7.4058L3.40855 4.92172C3.71319 4.61698 3.88432 4.20373 3.88432 3.77284C3.88432 3.34195 3.71319 2.9287 3.40855 2.62397Z" fill="#333333"/>
</svg>
