<svg width="6" height="10" viewBox="0 0 6 10" fill="none" xmlns="http://www.w3.org/2000/svg">
<path d="M4.97821 3.38722L1.82069 0.231768C1.68968 0.11331 1.51813 0.0497702 1.34156 0.0543041C1.165 0.058838 0.996937 0.131098 0.872177 0.256124C0.747417 0.381149 0.675514 0.549363 0.671355 0.725939C0.667196 0.902515 0.731099 1.07393 0.849835 1.20469L4.00529 4.36015C4.13428 4.48918 4.20675 4.66416 4.20675 4.84661C4.20675 5.02906 4.13428 5.20404 4.00529 5.33307L0.849835 8.48852C0.720817 8.61763 0.648373 8.79271 0.648438 8.97523C0.648502 9.15775 0.721071 9.33277 0.850179 9.46179C0.979288 9.59081 1.15436 9.66325 1.33688 9.66319C1.51941 9.66312 1.69443 9.59056 1.82344 9.46145L4.97821 6.30599C5.36519 5.9189 5.58258 5.39396 5.58258 4.84661C5.58258 4.29926 5.36519 3.77432 4.97821 3.38722Z" fill="#333333"/>
</svg>
