<svg width="9" height="6" viewBox="0 0 9 6" fill="none" xmlns="http://www.w3.org/2000/svg">
<path d="M5.44673 4.47927L5.44677 4.47923L7.93085 1.99353L7.93094 1.99361L7.93429 1.98991C8.04476 1.86773 8.10402 1.70775 8.09979 1.54309C8.09556 1.37843 8.02817 1.2217 7.91158 1.10535C7.79498 0.989002 7.63811 0.921948 7.47344 0.918069C7.30877 0.914191 7.14892 0.973785 7.02697 1.08451L7.0269 1.08443L7.02349 1.08784L4.53942 3.57191C4.53941 3.57191 4.53941 3.57192 4.5394 3.57192C4.45658 3.65471 4.34427 3.70122 4.22716 3.70122C4.11005 3.70122 3.99773 3.65471 3.91491 3.57192C3.91491 3.57192 3.9149 3.57191 3.9149 3.57191L1.43083 1.08784L1.4308 1.08781C1.3104 0.967497 1.14714 0.89994 0.976931 0.9C0.806721 0.90006 0.643507 0.967733 0.523192 1.08813C0.402878 1.20853 0.335321 1.37179 0.335381 1.542C0.335441 1.71221 0.403114 1.87543 0.523513 1.99574L3.00758 4.47926L3.00758 4.47927C3.33107 4.80266 3.76975 4.98432 4.22716 4.98432C4.68457 4.98432 5.12325 4.80266 5.44673 4.47927Z" fill="#333333" stroke="#333333" stroke-width="0.2"/>
</svg>
