<svg width="8" height="4" viewBox="0 0 8 4" fill="none" xmlns="http://www.w3.org/2000/svg">
<path d="M4.94049 3.40855L7.42457 0.922839C7.51782 0.819701 7.56784 0.684653 7.56427 0.545653C7.56071 0.406654 7.50382 0.27435 7.4054 0.176135C7.30697 0.0779198 7.17455 0.0213154 7.03554 0.0180413C6.89653 0.0147673 6.76159 0.0650742 6.65865 0.158547L4.17457 2.64263C4.07299 2.74418 3.93524 2.80122 3.79161 2.80122C3.64798 2.80122 3.51023 2.74418 3.40865 2.64263L0.92457 0.158547C0.822931 0.0569796 0.685108 -5.10594e-05 0.54142 -2.73088e-07C0.397731 5.05133e-05 0.259948 0.057179 0.158381 0.158818C0.0568142 0.260456 -0.000216501 0.39828 -0.000165486 0.541968C-0.000114948 0.685656 0.057013 0.823438 0.158652 0.925005L2.64274 3.40855C2.94747 3.71319 3.36072 3.88432 3.79161 3.88432C4.2225 3.88432 4.63575 3.71319 4.94049 3.40855Z" fill="#333333"/>
</svg>
