<svg width="35" height="35" viewBox="0 0 35 35" fill="none" xmlns="http://www.w3.org/2000/svg">
<path d="M17.5 35C27.165 35 35 27.165 35 17.5C35 7.83502 27.165 0 17.5 0C7.83502 0 0 7.83502 0 17.5C0 27.165 7.83502 35 17.5 35Z" fill="url(#paint0_linear)"/>
<path d="M22.5129 28.4375H12.4871C9.22031 28.4375 6.5625 25.78 6.5625 22.5129V12.4871C6.5625 9.22004 9.22031 6.5625 12.4871 6.5625H22.5129C25.78 6.5625 28.4375 9.22004 28.4375 12.4871V22.5132C28.4375 25.78 25.78 28.4375 22.5129 28.4375ZM12.4871 8.38551C10.2255 8.38551 8.38551 10.2255 8.38551 12.4871V22.5132C8.38551 24.7748 10.2255 26.6148 12.4871 26.6148H22.5129C24.7745 26.6148 26.6145 24.7748 26.6145 22.5132V12.4871C26.6145 10.2255 24.7745 8.38551 22.5129 8.38551H12.4871Z" fill="white"/>
<path d="M17.5 22.9688C14.4845 22.9688 12.0312 20.5152 12.0312 17.5C12.0312 14.4843 14.4845 12.0312 17.5 12.0312C20.5155 12.0312 22.9688 14.4843 22.9688 17.5C22.9688 20.5152 20.5155 22.9688 17.5 22.9688ZM17.5 13.8543C15.4897 13.8543 13.8543 15.4897 13.8543 17.5C13.8543 19.5106 15.4897 21.1457 17.5 21.1457C19.5103 21.1457 21.1457 19.5106 21.1457 17.5C21.1457 15.4897 19.5106 13.8543 17.5 13.8543Z" fill="white"/>
<path d="M23.3105 12.9426C24.0026 12.9426 24.5637 12.3815 24.5637 11.6894C24.5637 10.9973 24.0026 10.4363 23.3105 10.4363C22.6184 10.4363 22.0574 10.9973 22.0574 11.6894C22.0574 12.3815 22.6184 12.9426 23.3105 12.9426Z" fill="white"/>
<defs>
<linearGradient id="paint0_linear" x1="7.46173" y1="31.8365" x2="27.5386" y2="3.16378" gradientUnits="userSpaceOnUse">
<stop stop-color="#FFB900"/>
<stop offset="1" stop-color="#9100EB"/>
</linearGradient>
</defs>
</svg>
