<svg width="68" height="68" viewBox="0 0 68 68" fill="none" xmlns="http://www.w3.org/2000/svg">
<circle cx="34" cy="34" r="33" stroke="#333333" stroke-opacity="0.5" stroke-width="2"/>
<path d="M40.25 35.75C40.25 36.0484 40.1288 36.3345 39.9132 36.5455C39.6975 36.7565 39.405 36.875 39.1 36.875H29.9C29.595 36.875 29.3025 36.7565 29.0868 36.5455C28.8712 36.3345 28.75 36.0484 28.75 35.75C28.75 35.4516 28.8712 35.1655 29.0868 34.9545C29.3025 34.7435 29.595 34.625 29.9 34.625H39.1C39.405 34.625 39.6975 34.7435 39.9132 34.9545C40.1288 35.1655 40.25 35.4516 40.25 35.75ZM35.65 39.125H29.9C29.595 39.125 29.3025 39.2435 29.0868 39.4545C28.8712 39.6655 28.75 39.9516 28.75 40.25C28.75 40.5484 28.8712 40.8345 29.0868 41.0455C29.3025 41.2565 29.595 41.375 29.9 41.375H35.65C35.955 41.375 36.2475 41.2565 36.4632 41.0455C36.6788 40.8345 36.8 40.5484 36.8 40.25C36.8 39.9516 36.6788 39.6655 36.4632 39.4545C36.2475 39.2435 35.955 39.125 35.65 39.125ZM46 31.7956V41.375C45.9981 42.8663 45.3918 44.296 44.3138 45.3505C43.2359 46.405 41.7744 46.9982 40.25 47H28.75C27.2256 46.9982 25.7641 46.405 24.6862 45.3505C23.6082 44.296 23.0018 42.8663 23 41.375V25.625C23.0018 24.1337 23.6082 22.704 24.6862 21.6495C25.7641 20.595 27.2256 20.0018 28.75 20H33.9422C34.9998 19.9974 36.0474 20.1998 37.0245 20.5957C38.0016 20.9915 38.8888 21.5729 39.6347 22.3063L43.6413 26.228C44.3914 26.9573 44.9861 27.8249 45.391 28.7806C45.7958 29.7363 46.0028 30.7611 46 31.7956ZM38.0086 23.897C37.6467 23.5541 37.2404 23.2591 36.8 23.0195V27.875C36.8 28.1734 36.9211 28.4595 37.1368 28.6705C37.3525 28.8815 37.645 29 37.95 29H42.9134C42.6684 28.5694 42.3664 28.1722 42.0152 27.8188L38.0086 23.897ZM43.7 31.7956C43.7 31.61 43.6632 31.4323 43.6459 31.25H37.95C37.035 31.25 36.1575 30.8944 35.5105 30.2615C34.8635 29.6286 34.5 28.7701 34.5 27.875V22.3029C34.3137 22.286 34.1308 22.25 33.9422 22.25H28.75C27.835 22.25 26.9575 22.6056 26.3105 23.2385C25.6635 23.8715 25.3 24.7299 25.3 25.625V41.375C25.3 42.2701 25.6635 43.1286 26.3105 43.7615C26.9575 44.3944 27.835 44.75 28.75 44.75H40.25C41.165 44.75 42.0425 44.3944 42.6895 43.7615C43.3365 43.1286 43.7 42.2701 43.7 41.375V31.7956Z" fill="#333333" fill-opacity="0.5"/>
</svg>
