<svg width="48" height="47" viewBox="0 0 48 47" fill="none" xmlns="http://www.w3.org/2000/svg">
<circle cx="24.2837" cy="23.5" r="22.75" stroke="#333333" stroke-width="1.5"/>
<path d="M27.9782 22.3872L24.8207 19.2318C24.6897 19.1133 24.5181 19.0498 24.3416 19.0543C24.165 19.0588 23.9969 19.1311 23.8722 19.2561C23.7474 19.3811 23.6755 19.5494 23.6714 19.7259C23.6672 19.9025 23.7311 20.0739 23.8498 20.2047L27.0053 23.3601C27.1343 23.4892 27.2067 23.6642 27.2067 23.8466C27.2067 24.0291 27.1343 24.204 27.0053 24.3331L23.8498 27.4885C23.7208 27.6176 23.6484 27.7927 23.6484 27.9752C23.6485 28.1578 23.7211 28.3328 23.8502 28.4618C23.9793 28.5908 24.1544 28.6633 24.3369 28.6632C24.5194 28.6631 24.6944 28.5906 24.8234 28.4614L27.9782 25.306C28.3652 24.9189 28.5826 24.394 28.5826 23.8466C28.5826 23.2993 28.3652 22.7743 27.9782 22.3872Z" fill="#333333"/>
</svg>
