<svg width="68" height="68" viewBox="0 0 68 68" fill="none" xmlns="http://www.w3.org/2000/svg">
<circle cx="34" cy="34" r="33" stroke="#333333" stroke-opacity="0.5" stroke-width="2"/>
<path fill-rule="evenodd" clip-rule="evenodd" d="M39.9998 22.999C39.7236 22.999 39.4998 23.2229 39.4998 23.4991V29.4639L39.5 29.4991V44.4995L39.5 44.514C39.5073 44.775 39.7146 44.9859 39.9741 44.999H43.0003C43.0125 44.999 43.0246 44.9992 43.0366 44.9997H46C46.2761 44.9997 46.5 44.7758 46.5 44.4996V23.4991C46.5 23.2229 46.2761 22.999 46 22.999H39.9998ZM39.9424 46.999C39.9615 46.9995 39.9806 46.9997 39.9998 46.9997H46C47.3807 46.9997 48.5 45.8804 48.5 44.4996V23.4991C48.5 22.1183 47.3807 20.999 46 20.999H39.9998C38.6191 20.999 37.4998 22.1183 37.4998 23.4991V27.049C37.3383 27.0162 37.1711 26.999 37 26.999H30.9998C29.6191 26.999 28.4998 28.1183 28.4998 29.4991V33.05C28.3383 33.0172 28.1711 33 28 33H21.9998C20.6191 33 19.4998 34.1193 19.4998 35.5V44.5003C19.4998 45.881 20.6191 47.0003 21.9998 47.0003H28C28.0272 47.0003 28.0543 46.9999 28.0814 46.999H30.9501C30.9666 46.9993 30.9832 46.9995 30.9998 46.9995H37C37.0166 46.9995 37.0331 46.9993 37.0497 46.999H39.9424ZM28.0363 44.999H21.9998C21.9898 44.999 21.9799 44.9992 21.9701 44.9995C21.7077 44.9841 21.4998 44.7665 21.4998 44.5003V35.5C21.4998 35.2239 21.7236 35 21.9998 35H28C28.2709 35 28.4915 35.2154 28.4998 35.4843V44.4995L28.4998 44.5145C28.4926 44.7719 28.2908 44.9807 28.0363 44.999ZM37.0222 44.999H30.9776C30.7165 44.9876 30.5074 44.776 30.5 44.5139L30.5 44.5003V35.5L30.4998 35.4649V29.4991C30.4998 29.2229 30.7236 28.999 30.9998 28.999H37C37.2709 28.999 37.4915 29.2145 37.4998 29.4833V44.4996L37.4998 44.5138C37.4924 44.776 37.2833 44.9876 37.0222 44.999Z" fill="#333333" fill-opacity="0.5"/>
</svg>
