<svg width="35" height="35" viewBox="0 0 35 35" fill="none" xmlns="http://www.w3.org/2000/svg">
<path fill-rule="evenodd" clip-rule="evenodd" d="M35 17.4422C35 27.0753 27.165 34.8844 17.5 34.8844C7.83502 34.8844 0 27.0753 0 17.4422C0 7.80914 7.83502 0 17.5 0C27.165 0 35 7.80914 35 17.4422ZM18.1271 12.9194C16.425 13.6274 13.0231 15.0927 7.92149 17.3154C7.09307 17.6449 6.65911 17.9671 6.6196 18.2823C6.55284 18.8148 7.21977 19.0246 8.12797 19.3101C8.2515 19.349 8.3795 19.3892 8.51072 19.4319C9.40424 19.7223 10.6062 20.0621 11.231 20.0756C11.7978 20.0879 12.4304 19.8542 13.1288 19.3746C17.8954 16.157 20.356 14.5307 20.5104 14.4957C20.6194 14.4709 20.7704 14.4398 20.8728 14.5308C20.9751 14.6217 20.965 14.794 20.9542 14.8402C20.8881 15.1218 18.2701 17.5557 16.9153 18.8153C16.493 19.2079 16.1934 19.4864 16.1322 19.55C15.995 19.6925 15.8552 19.8273 15.7208 19.9569C14.8907 20.7571 14.2682 21.3572 15.7553 22.3371C16.4699 22.8081 17.0417 23.1975 17.6122 23.586C18.2352 24.0103 18.8566 24.4335 19.6607 24.9605C19.8655 25.0948 20.0611 25.2343 20.2517 25.3701C20.9768 25.887 21.6282 26.3514 22.4329 26.2773C22.9005 26.2343 23.3836 25.7946 23.6289 24.4832C24.2086 21.3839 25.3482 14.6687 25.6116 11.9016C25.6346 11.6591 25.6056 11.3489 25.5823 11.2127C25.559 11.0765 25.5103 10.8824 25.3332 10.7387C25.1236 10.5686 24.7999 10.5327 24.6551 10.5353C23.9969 10.5469 22.987 10.898 18.1271 12.9194Z" fill="#0088CC"/>
</svg>
