<svg width="35" height="35" viewBox="0 0 35 35" fill="none" xmlns="http://www.w3.org/2000/svg">
<path fill-rule="evenodd" clip-rule="evenodd" d="M17.5 34.8844C27.165 34.8844 35 27.0753 35 17.4422C35 7.80914 27.165 0 17.5 0C7.83502 0 0 7.80914 0 17.4422C0 27.0753 7.83502 34.8844 17.5 34.8844ZM26.9541 11.5075C27.5857 12.1081 27.7908 13.4759 27.7908 13.4759C27.7908 13.4759 28 15.084 28 16.6883V18.1918C28 19.7999 27.7908 21.4041 27.7908 21.4041C27.7908 21.4041 27.5857 22.772 26.9541 23.3726C26.2334 24.0849 25.4361 24.1585 24.9854 24.2001C24.9359 24.2047 24.8906 24.2089 24.85 24.2135C21.9133 24.4111 17.5 24.4188 17.5 24.4188C17.5 24.4188 12.0408 24.3723 10.3592 24.2212C10.2774 24.2063 10.1778 24.1948 10.0648 24.1818C9.53191 24.1204 8.70169 24.0248 8.0418 23.3726C7.41426 22.772 7.20918 21.4041 7.20918 21.4041C7.20918 21.4041 7 19.796 7 18.1918V16.6883C7 15.084 7.21328 13.4759 7.21328 13.4759C7.21328 13.4759 7.41426 12.1081 8.0459 11.5075C8.76659 10.7952 9.56388 10.7215 10.0146 10.6799C10.0641 10.6754 10.1094 10.6712 10.15 10.6666C13.0867 10.4651 17.4959 10.4651 17.4959 10.4651H17.5041C17.5041 10.4651 21.9133 10.4651 24.85 10.6666C24.8906 10.6712 24.9359 10.6754 24.9854 10.6799C25.4361 10.7215 26.2334 10.7952 26.9541 11.5075ZM15.3303 14.4408V20.0169L21.0027 17.2385L15.3303 14.4408Z" fill="#C4302B"/>
</svg>
