<svg width="40" height="40" viewBox="0 0 40 40" fill="none" xmlns="http://www.w3.org/2000/svg">
<path fill-rule="evenodd" clip-rule="evenodd" d="M20 40C31.0457 40 40 31.0457 40 20C40 8.9543 31.0457 0 20 0C8.9543 0 0 8.9543 0 20C0 31.0457 8.9543 40 20 40ZM30.8047 13.1952C31.5266 13.8839 31.7609 15.4524 31.7609 15.4524C31.7609 15.4524 32 17.2963 32 19.1358V20.8598C32 22.7037 31.7609 24.5432 31.7609 24.5432C31.7609 24.5432 31.5266 26.1116 30.8047 26.8003C29.981 27.6171 29.0698 27.7015 28.5547 27.7492C28.4981 27.7544 28.4464 27.7592 28.4 27.7645C25.0438 27.9911 20 28 20 28C20 28 13.7609 27.9467 11.8391 27.7734C11.7456 27.7563 11.6317 27.7431 11.5026 27.7282C10.8936 27.6578 9.94479 27.5482 9.19063 26.8003C8.47344 26.1116 8.23906 24.5432 8.23906 24.5432C8.23906 24.5432 8 22.6992 8 20.8598V19.1358C8 17.2963 8.24375 15.4524 8.24375 15.4524C8.24375 15.4524 8.47344 13.8839 9.19531 13.1952C10.019 12.3785 10.9301 12.2941 11.4453 12.2464C11.5019 12.2411 11.5536 12.2363 11.6 12.231C14.9563 12 19.9953 12 19.9953 12H20.0047C20.0047 12 25.0438 12 28.4 12.231C28.4464 12.2363 28.4981 12.2411 28.5547 12.2464C29.0699 12.2941 29.981 12.3785 30.8047 13.1952ZM17.5203 16.5587V22.9525L24.0031 19.7667L17.5203 16.5587Z" fill="#BFB9AD"/>
</svg>
