<svg width="64" height="64" viewBox="0 0 64 64" fill="none" xmlns="http://www.w3.org/2000/svg">
<path fill-rule="evenodd" clip-rule="evenodd" d="M44.4036 25.0806C44.5835 24.4582 44.4036 24 43.5424 24H40.6987C39.9751 24 39.6414 24.3955 39.4605 24.8321C39.4605 24.8321 38.0143 28.4752 35.9657 30.8416C35.3027 31.5279 35.0016 31.7456 34.6398 31.7456C34.4588 31.7456 34.1869 31.5279 34.1869 30.9043V25.0806C34.1869 24.3328 33.9876 24 33.3853 24H28.9134C28.4616 24 28.1897 24.3465 28.1897 24.676C28.1897 25.3838 29.2145 25.548 29.3196 27.5405V31.8698C29.3196 32.8193 29.1539 32.9915 28.792 32.9915C27.8279 32.9915 25.4825 29.3313 24.0905 25.1433C23.8207 24.3283 23.5477 24 22.8208 24H19.975C19.1625 24 19 24.3955 19 24.8321C19 25.6095 19.9641 29.4715 23.4903 34.5793C25.8411 38.0674 29.1506 39.9585 32.1655 39.9585C33.9735 39.9585 34.1967 39.539 34.1967 38.8152V36.1786C34.1967 35.3385 34.3678 35.1709 34.9409 35.1709C35.3634 35.1709 36.086 35.3898 37.7738 37.0711C39.7021 39.0648 40.0195 39.9585 41.105 39.9585H43.9486C44.7611 39.9585 45.1685 39.539 44.9345 38.7092C44.6766 37.8839 43.7558 36.6859 42.5349 35.2644C41.8719 34.4551 40.8775 33.5831 40.5752 33.1465C40.1538 32.5868 40.2741 32.3372 40.5752 31.839C40.5752 31.839 44.0418 26.7939 44.4025 25.0806H44.4036Z" fill="#A7A7AE" stroke="#F8F8F8" stroke-width="0.7"/>
<circle cx="32" cy="32" r="31.6032" stroke="#2B2F36" stroke-width="0.793651"/>
</svg>
