<svg width="38" height="38" viewBox="0 0 38 38" fill="none" xmlns="http://www.w3.org/2000/svg">
<path d="M26.3893 12.6668V9.55295C26.3893 8.58263 26.1982 7.62181 25.8269 6.72535C25.4556 5.82888 24.9113 5.01434 24.2252 4.32822C23.539 3.6421 22.7245 3.09783 21.828 2.72651C20.9316 2.35518 19.9708 2.16406 19.0004 2.16406C18.0301 2.16406 17.0693 2.35518 16.1728 2.72651C15.2764 3.09783 14.4618 3.6421 13.7757 4.32822C13.0896 5.01434 12.5453 5.82888 12.174 6.72535C11.8027 7.62181 11.6115 8.58263 11.6115 9.55295V16.9418C11.6115 17.2218 11.7228 17.4903 11.9207 17.6882C12.1187 17.8862 12.3872 17.9974 12.6671 17.9974C12.9471 17.9974 13.2155 17.8862 13.4135 17.6882C13.6114 17.4903 13.7227 17.2218 13.7227 16.9418V14.778H22.1671V12.6668H13.7227V9.55295C13.7227 8.1532 14.2787 6.81077 15.2685 5.821C16.2583 4.83122 17.6007 4.27517 19.0004 4.27517C20.4002 4.27517 21.7426 4.83122 22.7324 5.821C23.7222 6.81077 24.2782 8.1532 24.2782 9.55295V16.8891C24.2782 17.169 24.3894 17.4375 24.5874 17.6355C24.7853 17.8334 25.0538 17.9446 25.3338 17.9446C25.6137 17.9446 25.8822 17.8334 26.0802 17.6355C26.2781 17.4375 26.3893 17.169 26.3893 16.8891V14.778H31.6671V33.778H6.33377V14.778H9.50043V12.6668H4.22266V33.873C4.22266 34.4077 4.43507 34.9205 4.81316 35.2986C5.19126 35.6767 5.70406 35.8891 6.23877 35.8891H31.7621C32.2968 35.8891 32.8096 35.6767 33.1877 35.2986C33.5658 34.9205 33.7782 34.4077 33.7782 33.873V12.6668H26.3893Z" fill="#143383"/>
</svg>
