<svg width="34" height="34" viewBox="0 0 34 34" fill="none" xmlns="http://www.w3.org/2000/svg">
<path d="M18.3714 7.85714C18.3714 7.09972 17.7574 6.48571 17 6.48571C16.2426 6.48571 15.6286 7.09972 15.6286 7.85714V17C15.6286 17.4729 15.8722 17.9124 16.2731 18.163L21.7589 21.5915C22.4012 21.993 23.2473 21.7977 23.6487 21.1554C24.0501 20.5131 23.8549 19.667 23.2126 19.2656L18.3714 16.2399V7.85714Z" fill="#1A1B20"/>
<path fill-rule="evenodd" clip-rule="evenodd" d="M17 1C8.16344 1 1 8.16344 1 17C1 25.8366 8.16344 33 17 33C25.8366 33 33 25.8366 33 17C33 8.16344 25.8366 1 17 1ZM3.74286 17C3.74286 9.67828 9.67828 3.74286 17 3.74286C24.3217 3.74286 30.2571 9.67828 30.2571 17C30.2571 24.3217 24.3217 30.2571 17 30.2571C9.67828 30.2571 3.74286 24.3217 3.74286 17Z" fill="#1A1B20"/>
<path d="M18.3714 7.85714C18.3714 7.09972 17.7574 6.48571 17 6.48571C16.2426 6.48571 15.6286 7.09972 15.6286 7.85714V17C15.6286 17.4729 15.8722 17.9124 16.2731 18.163L21.7589 21.5915C22.4012 21.993 23.2473 21.7977 23.6487 21.1554C24.0501 20.5131 23.8549 19.667 23.2126 19.2656L18.3714 16.2399V7.85714Z" stroke="white" stroke-width="0.7" stroke-linecap="round" stroke-linejoin="round"/>
<path fill-rule="evenodd" clip-rule="evenodd" d="M17 1C8.16344 1 1 8.16344 1 17C1 25.8366 8.16344 33 17 33C25.8366 33 33 25.8366 33 17C33 8.16344 25.8366 1 17 1ZM3.74286 17C3.74286 9.67828 9.67828 3.74286 17 3.74286C24.3217 3.74286 30.2571 9.67828 30.2571 17C30.2571 24.3217 24.3217 30.2571 17 30.2571C9.67828 30.2571 3.74286 24.3217 3.74286 17Z" stroke="white" stroke-width="0.7" stroke-linecap="round" stroke-linejoin="round"/>
</svg>
