<svg width="27" height="27" viewBox="0 0 27 27" fill="none" xmlns="http://www.w3.org/2000/svg">
<path d="M13.6799 12.2287C13.5674 12.2175 13.4324 12.2175 13.3086 12.2287C10.6311 12.1387 8.50488 9.945 8.50488 7.245C8.50488 4.48875 10.7324 2.25 13.4999 2.25C16.2561 2.25 18.4949 4.48875 18.4949 7.245C18.4836 9.945 16.3574 12.1387 13.6799 12.2287Z" stroke="#143383" stroke-width="2" stroke-linecap="round" stroke-linejoin="round"/>
<path d="M8.05457 17.38C5.33207 19.2025 5.33207 22.1725 8.05457 23.9837C11.1483 26.0537 16.2221 26.0537 19.3158 23.9837C22.0383 22.1612 22.0383 19.1912 19.3158 17.38C16.2333 15.3213 11.1596 15.3213 8.05457 17.38Z" stroke="#143383" stroke-width="2" stroke-linecap="round" stroke-linejoin="round"/>
</svg>
