<svg width="67" height="67" viewBox="0 0 67 67" fill="none" xmlns="http://www.w3.org/2000/svg">
<circle cx="33.1581" cy="33.6838" r="31.6581" stroke="white" stroke-width="3"/>
<path d="M48.0794 23.4359C48.0794 20.9533 45.8889 18.7628 43.4063 18.7628H24.5681C22.0855 18.7628 19.895 20.9533 19.895 23.4359V42.2741C19.895 44.7567 22.0855 46.9472 24.5681 46.9472H34.0602V36.2868H30.5554V31.6137H34.0602V29.7153C34.0602 26.5026 36.3968 23.7279 39.3174 23.7279H43.1143V28.401H39.3174C38.8793 28.401 38.4412 28.8391 38.4412 29.7153V31.6137H43.1143V36.2868H38.4412V46.9472H43.4063C45.8889 46.9472 48.0794 44.7567 48.0794 42.2741V23.4359Z" fill="white"/>
</svg>
