<svg width="50" height="50" viewBox="0 0 50 50" fill="none" xmlns="http://www.w3.org/2000/svg">
<path d="M47.9171 37.312C47.9588 38.8745 47.5421 40.3537 46.7921 41.6245C46.3754 42.3745 45.8129 43.0621 45.1879 43.6246C43.7504 44.9579 41.8546 45.7704 39.7504 45.8329C36.7087 45.8954 34.0213 44.3329 32.5421 41.9371C31.7504 40.7079 31.2713 39.2288 31.2504 37.6663C31.1879 35.0413 32.3546 32.6662 34.2296 31.1037C35.6463 29.9371 37.4379 29.2079 39.3963 29.1662C44.0004 29.0621 47.8129 32.7079 47.9171 37.312Z" stroke="white" stroke-width="2.4" stroke-miterlimit="10" stroke-linecap="round" stroke-linejoin="round"/>
<path d="M36.3345 37.562L38.4387 39.5619L42.7928 35.3535" stroke="white" stroke-width="2.4" stroke-linecap="round" stroke-linejoin="round"/>
<path d="M6.60449 15.5L25.0003 26.1458L43.2711 15.5624" stroke="white" stroke-width="2.4" stroke-linecap="round" stroke-linejoin="round"/>
<path d="M25.0005 45.0209V26.125" stroke="white" stroke-width="2.4" stroke-linecap="round" stroke-linejoin="round"/>
<path d="M45.0201 19.1055V30.8972C45.0201 31.0014 45.0202 31.0846 44.9993 31.1888C43.541 29.9179 41.666 29.168 39.5827 29.168C37.6243 29.168 35.8118 29.8555 34.3743 31.0014C32.4577 32.5222 31.2493 34.8763 31.2493 37.5013C31.2493 39.0638 31.6868 40.543 32.4576 41.793C32.6451 42.1263 32.8743 42.4389 33.1243 42.7305L29.3118 44.8347C26.9368 46.168 23.0618 46.168 20.6868 44.8347L9.56181 38.668C7.04098 37.2722 4.97852 33.7722 4.97852 30.8972V19.1055C4.97852 16.2305 7.04098 12.7305 9.56181 11.3347L20.6868 5.16797C23.0618 3.83464 26.9368 3.83464 29.3118 5.16797L40.4368 11.3347C42.9577 12.7305 45.0201 16.2305 45.0201 19.1055Z" stroke="white" stroke-width="2.4" stroke-linecap="round" stroke-linejoin="round"/>
</svg>
