<svg width="50" height="50" viewBox="0 0 50 50" fill="none" xmlns="http://www.w3.org/2000/svg">
<path d="M24.9998 45.8327C36.5058 45.8327 45.8332 36.5053 45.8332 24.9994C45.8332 13.4934 36.5058 4.16602 24.9998 4.16602C13.4939 4.16602 4.1665 13.4934 4.1665 24.9994C4.1665 36.5053 13.4939 45.8327 24.9998 45.8327Z" stroke="white" stroke-width="2.4" stroke-linecap="round" stroke-linejoin="round"/>
<path d="M25.6875 36.3561C25.3125 36.4811 24.6667 36.4811 24.2917 36.3561C21.0417 35.2519 13.75 30.6061 13.75 22.7311C13.75 19.2519 16.5417 16.4395 20 16.4395C22.0417 16.4395 23.8542 17.4186 25 18.9603C26.125 17.4394 27.9583 16.4395 30 16.4395C33.4583 16.4395 36.25 19.2519 36.25 22.7311C36.25 30.6061 28.9583 35.2519 25.6875 36.3561Z" stroke="white" stroke-width="2.4" stroke-linecap="round" stroke-linejoin="round"/>
</svg>
