<svg width="40" height="40" viewBox="0 0 40 40" fill="none" xmlns="http://www.w3.org/2000/svg">
<path d="M31.617 36.6673H8.28369C3.28369 36.6673 3.28369 34.4173 3.28369 31.6673V30.0007C3.28369 29.084 4.03369 28.334 4.95036 28.334H34.9504C35.867 28.334 36.617 29.084 36.617 30.0007V31.6673C36.617 34.4173 36.617 36.6673 31.617 36.6673Z" stroke="white" stroke-width="2.4" stroke-linecap="round" stroke-linejoin="round"/>
<path d="M34.5335 21.6673V28.334H5.4502V21.6673C5.4502 15.2673 9.96686 9.91732 15.9835 8.63398C16.8835 8.43398 17.8169 8.33398 18.7835 8.33398H21.2002C22.1669 8.33398 23.1169 8.43398 24.0169 8.63398C30.0335 9.93398 34.5335 15.2673 34.5335 21.6673Z" stroke="white" stroke-width="2.4" stroke-linecap="round" stroke-linejoin="round"/>
<path d="M24.1668 7.50065C24.1668 7.90065 24.1168 8.26732 24.0168 8.63398C23.1168 8.43398 22.1668 8.33398 21.2002 8.33398H18.7835C17.8168 8.33398 16.8835 8.43398 15.9835 8.63398C15.8835 8.26732 15.8335 7.90065 15.8335 7.50065C15.8335 5.20065 17.7002 3.33398 20.0002 3.33398C22.3002 3.33398 24.1668 5.20065 24.1668 7.50065Z" stroke="white" stroke-width="2.4" stroke-linecap="round" stroke-linejoin="round"/>
<path d="M25 18.334H15" stroke="white" stroke-width="2.4" stroke-linecap="round" stroke-linejoin="round"/>
</svg>
