<svg width="39" height="38" viewBox="0 0 39 38" fill="none" xmlns="http://www.w3.org/2000/svg">
<g clip-path="url(#clip0_155_20651)">
<path d="M21.4949 29.9407C22.448 28.9875 22.448 27.4422 21.4949 26.489C20.5417 25.5359 18.9964 25.5359 18.0432 26.489C17.0901 27.4422 17.0901 28.9875 18.0432 29.9407C18.9964 30.8938 20.5417 30.8938 21.4949 29.9407Z" fill="#262626" stroke="#FAFBFC"/>
<path d="M8.78302 20.2557C8.27599 19.7487 8.28991 18.945 8.81251 18.5089C15.1416 13.2268 24.3964 13.2268 30.7255 18.5089C31.2481 18.945 31.2621 19.7487 30.755 20.2557C30.2588 20.752 29.4346 20.7615 28.8547 20.2969C23.5572 16.053 15.9809 16.053 10.6833 20.2969C10.1034 20.7615 9.27928 20.752 8.78302 20.2557ZM13.2639 24.7366C12.7528 24.2255 12.7768 23.4286 13.3074 23.0304C17.1264 20.1641 22.4116 20.1641 26.2307 23.0304C26.7612 23.4286 26.7852 24.2255 26.2742 24.7366C25.7807 25.23 24.9492 25.2424 24.3079 24.8169C21.5672 22.9987 17.9709 22.9987 15.2301 24.8169C14.5888 25.2424 13.7573 25.23 13.2639 24.7366Z" fill="#262626" stroke="#FAFBFC" stroke-width="0.6"/>
</g>
<defs>
<clipPath id="clip0_155_20651">
<rect width="26.8701" height="26.8701" fill="white" transform="translate(0.769531 19) rotate(-45)"/>
</clipPath>
</defs>
</svg>
