<svg width="65" height="65" viewBox="0 0 65 65" fill="none" xmlns="http://www.w3.org/2000/svg">
<g clip-path="url(#clip0_155_20667)">
<path d="M34.9565 45.8046C36.3135 47.1616 36.3135 49.3618 34.9565 50.7188C33.5995 52.0758 31.3993 52.0758 30.0423 50.7188C28.6852 49.3618 28.6852 47.1616 30.0423 45.8046C31.3993 44.4476 33.5995 44.4476 34.9565 45.8046Z" fill="white" stroke="#3066C1" stroke-width="1.4"/>
<path d="M13.6984 34.6583C12.8262 33.7861 12.8493 32.4023 13.7497 31.6508C24.5808 22.6117 40.4183 22.6117 51.2494 31.6508C52.1498 32.4023 52.1729 33.7861 51.3007 34.6583C50.4465 35.5125 49.0291 35.528 48.0326 34.7297C38.9759 27.4743 26.0232 27.4743 16.9664 34.7297C15.97 35.528 14.5526 35.5125 13.6984 34.6583ZM21.363 42.3229C20.4841 41.444 20.5239 40.0713 21.4388 39.3846C27.9761 34.4782 37.023 34.4782 43.5603 39.3846C44.4752 40.0713 44.515 41.444 43.6361 42.3229C42.7865 43.1724 41.357 43.1923 40.2562 42.462C35.5725 39.3548 29.4266 39.3548 24.7429 42.462C23.6421 43.1923 22.2125 43.1724 21.363 42.3229Z" fill="white" stroke="#3066C1"/>
</g>
<defs>
<clipPath id="clip0_155_20667">
<rect width="45.9619" height="45.9619" fill="white" transform="translate(0 32.5) rotate(-45)"/>
</clipPath>
</defs>
</svg>
