<svg width="55" height="55" viewBox="0 0 55 55" fill="none" xmlns="http://www.w3.org/2000/svg">
<rect width="55" height="55" rx="10" fill="#3066C1"/>
<g clip-path="url(#clip0_156_21065)">
<path d="M29.1744 33.2174C30.1071 34.1501 30.1071 35.6624 29.1744 36.5951C28.2416 37.5279 26.7294 37.5279 25.7966 36.5951C24.8639 35.6624 24.8639 34.1501 25.7966 33.2174C26.7294 32.2846 28.2416 32.2846 29.1744 33.2174Z" fill="white" stroke="#3066C1"/>
<path d="M14.2916 23.1469C13.4967 23.8103 13.501 25.0056 14.2332 25.7378C14.9653 26.47 16.147 26.4599 16.9551 25.8126C23.0947 20.8941 31.8764 20.8941 38.016 25.8126C38.8241 26.4599 40.0057 26.47 40.7379 25.7378C41.4701 25.0056 41.4744 23.8103 40.6795 23.1469C33.0575 16.7859 21.9135 16.7859 14.2916 23.1469ZM19.6254 28.4865C18.7973 29.108 18.8038 30.3085 19.536 31.0406C20.2682 31.7728 21.4474 31.753 22.3103 31.1806C25.4349 29.1077 29.5362 29.1077 32.6608 31.1806C33.5237 31.753 34.7029 31.7728 35.4351 31.0406C36.1673 30.3085 36.1738 29.108 35.3457 28.4865C30.6998 24.9996 24.2713 24.9996 19.6254 28.4865Z" fill="white" stroke="#3066C1" stroke-width="1.3"/>
</g>
<defs>
<clipPath id="clip0_156_21065">
<rect width="31.7992" height="31.7992" fill="white" transform="translate(5 24) rotate(-45)"/>
</clipPath>
</defs>
</svg>
