<svg width="41" height="41" viewBox="0 0 41 41" fill="none" xmlns="http://www.w3.org/2000/svg">
<circle cx="20.5" cy="20.5" r="20" stroke="#98999C"/>
<path d="M20 17.5V12" stroke="#262626" stroke-width="1.5" stroke-linecap="round" stroke-linejoin="round"/>
<path d="M20 30V24.5" stroke="#262626" stroke-width="1.5" stroke-linecap="round" stroke-linejoin="round"/>
<path d="M18 12H22" stroke="#262626" stroke-width="1.5" stroke-linecap="round" stroke-linejoin="round"/>
<path d="M18 30H22" stroke="#262626" stroke-width="1.5" stroke-linecap="round" stroke-linejoin="round"/>
<path d="M16.97 19.25L12.21 16.5" stroke="#262626" stroke-width="1.5" stroke-linecap="round" stroke-linejoin="round"/>
<path d="M27.7903 25.5L23.0303 22.75" stroke="#262626" stroke-width="1.5" stroke-linecap="round" stroke-linejoin="round"/>
<path d="M11.21 18.2295L13.21 14.7695" stroke="#262626" stroke-width="1.5" stroke-linecap="round" stroke-linejoin="round"/>
<path d="M26.79 27.2295L28.79 23.7695" stroke="#262626" stroke-width="1.5" stroke-linecap="round" stroke-linejoin="round"/>
<path d="M23.5 21C23.5 21.64 23.33 22.23 23.03 22.75C22.42 23.8 21.29 24.5 20 24.5C18.71 24.5 17.58 23.8 16.97 22.75C16.67 22.23 16.5 21.64 16.5 21C16.5 20.36 16.67 19.77 16.97 19.25C17.58 18.2 18.71 17.5 20 17.5C21.29 17.5 22.42 18.2 23.03 19.25C23.33 19.77 23.5 20.36 23.5 21Z" stroke="#262626" stroke-width="1.5" stroke-linecap="round" stroke-linejoin="round"/>
<path d="M27.7903 16.5L23.0303 19.25" stroke="#262626" stroke-width="1.5" stroke-linecap="round" stroke-linejoin="round"/>
<path d="M16.97 22.75L12.21 25.5" stroke="#262626" stroke-width="1.5" stroke-linecap="round" stroke-linejoin="round"/>
<path d="M28.79 18.2295L26.79 14.7695" stroke="#262626" stroke-width="1.5" stroke-linecap="round" stroke-linejoin="round"/>
<path d="M13.21 27.2295L11.21 23.7695" stroke="#262626" stroke-width="1.5" stroke-linecap="round" stroke-linejoin="round"/>
</svg>
