<svg width="146" height="50" viewBox="0 0 146 50" fill="none" xmlns="http://www.w3.org/2000/svg">
<path fill-rule="evenodd" clip-rule="evenodd" d="M50.1293 20.7733C43.9521 22.0084 39.4622 26.1399 38.1197 31.8241L37.8599 32.924L36.3719 32.9658L34.8838 33.0076L34.8824 28.7862C34.881 24.6623 34.873 24.5476 34.5358 23.8232C33.8891 22.4337 32.3937 21.5252 30.4203 21.3229L29.46 21.2245V35.2503V49.276L30.1563 49.2742C31.6634 49.2704 33.3319 48.5546 34.0603 47.599C34.8305 46.589 34.8838 46.2111 34.8838 41.773V37.68L36.3811 37.7218L37.8785 37.7636L38.0058 38.3502C40.2782 48.8325 52.6375 53.4429 61.1942 47.0002C70.8075 39.7619 67.9759 24.6423 56.3594 21.1849C55.058 20.7976 51.2619 20.5467 50.1293 20.7733ZM54.9541 25.7427C61.82 27.9126 63.8269 37.3159 58.5561 42.6195C52.6699 48.5424 43.1898 44.0108 43.1818 35.2705C43.1758 28.6423 49.0601 23.88 54.9541 25.7427Z" fill="#FC5945"/>
<path d="M0.914728 45.1876C0.0250668 43.4255 0 43.0547 0 31.6158C0 23.452 0.0384069 21.2898 0.183239 21.2907C1.58216 21.2991 3.32996 21.9313 4.15322 22.7266C5.26775 23.8032 5.19563 23.1435 5.27728 33.0219C5.35879 42.8932 5.31158 42.4438 6.37803 43.4801C7.4502 44.5218 8.06237 44.646 12.4969 44.7215L16.4182 44.7883V45.2096C16.4182 46.4724 15.2862 48.129 13.9662 48.7982C12.8801 49.3488 8.56708 49.5083 6.40984 49.0776C3.95312 48.5873 1.89586 47.1309 0.914728 45.1876Z" fill="#FFBD63"/>
<path d="M17.7551 24.3889C18.1656 22.901 19.5091 21.833 21.4023 21.4902C21.9264 21.3953 22.5035 21.3114 22.685 21.3036L23.0148 21.2895V35.295V49.3005L22.3918 49.2988C20.5283 49.2936 18.722 48.2833 17.9372 46.8074C17.5928 46.1599 17.4257 25.5833 17.7551 24.3889Z" fill="#FFBD63"/>
<path d="M72.2694 49.3005V35.2812V21.262L73.039 21.3589C75.1423 21.6238 76.4417 22.3403 77.1679 23.636L77.62 24.4426V35.2217C77.62 47.0978 77.6525 46.6581 76.6962 47.7171C75.8643 48.6384 74.2852 49.295 72.8924 49.2988L72.2694 49.3005Z" fill="#FFBD63"/>
<path d="M90.9097 22.669C91.6176 22.0187 92.4568 21.6375 93.6025 21.4459C94.0035 21.3788 94.4799 21.3162 94.6612 21.3068L94.9911 21.2895V35.295V49.3005H94.3468C92.6265 49.3005 90.8189 48.3037 90.1232 46.9714L89.7138 46.1873V41.8778V37.5682H84.2694H78.825L78.909 36.7547C79.0119 35.7568 79.5104 34.8671 80.4111 34.074C81.5571 33.0647 81.9707 32.9799 86.0856 32.9103L89.7138 32.849L89.717 28.6457C89.7207 23.8558 89.7438 23.7397 90.9097 22.669Z" fill="#FFBD63"/>
<path d="M101.588 49.3005V35.295C101.588 24.1879 101.626 21.2898 101.771 21.2907C104.011 21.3042 106.216 22.6025 106.691 24.188C106.818 24.6129 106.865 27.4668 106.865 34.7621V44.7542L109.174 44.7513C114.608 44.7446 116.388 43.5908 116.044 40.2998C115.786 37.8231 114.054 36.8349 109.973 36.8349H108L108.096 36.2348C108.302 34.9477 109.392 33.6302 110.791 32.9786C111.815 32.5013 114.842 32.5136 116.314 33.0012C122.94 35.195 123.529 45.4359 117.197 48.3622C115.317 49.2314 114.62 49.3005 107.732 49.3005H101.588Z" fill="#FFBD63"/>
<path d="M116.53 11.4647C116.134 9.25213 117.173 5.7798 119.619 1.13657C119.948 0.511384 120.248 0 120.286 0C120.73 0 124.298 2.62453 125.562 3.88121C128.775 7.07461 129.535 11.844 127.593 16.6243L127.243 17.4857L128.454 16.3225C131.298 13.591 135.119 12.1098 138.057 12.5994C140.31 12.9745 146 15.7137 146 16.4229C146 16.8057 142.992 20.4347 141.433 21.9327C138.31 24.9334 136.828 25.3139 132.051 24.3401C130.193 23.9611 130.231 23.95 130.758 24.716C132.846 27.7524 132.199 30.2753 128.886 32.0135C128.077 32.4375 126.424 33.1434 126.239 33.1437C126.059 33.1442 124.391 29.297 124.14 28.3025C123.597 26.1533 123.916 23.4399 124.946 21.4469C125.356 20.6544 125.215 20.7293 124.195 21.8471C122.453 23.7564 120.564 24.7526 118.044 25.0904C116.733 25.2661 113.847 25.2254 113.652 25.0285C113.393 24.7673 113.516 20.9474 113.812 20.0931C114.561 17.9263 116.708 16.9117 119.43 17.4385C120.223 17.5919 120.262 17.6965 118.817 15.7866C117.279 13.7544 116.765 12.7836 116.53 11.4647Z" fill="#FC5945"/>
</svg>
