<svg width="21" height="21" viewBox="0 0 21 21" fill="none" xmlns="http://www.w3.org/2000/svg">
<path d="M6.17279 0.560343C5.15383 0.608205 4.4772 0.768696 3.89378 0.993977L3.88961 0.995589L3.8896 0.99557C3.2851 1.22279 2.73765 1.57871 2.28534 2.03844L2.27869 2.04519L2.27863 2.04513C1.81735 2.49653 1.46036 3.04271 1.23245 3.6456L1.23089 3.64973L1.23087 3.64972C1.00421 4.23368 0.842231 4.91093 0.795827 5.93441C0.747754 6.99469 0.73584 7.32783 0.73584 10.0571C0.73584 12.7858 0.746846 13.1187 0.795805 14.1812L6.17279 0.560343ZM6.17279 0.560343H6.17356L6.18502 0.559817C7.24864 0.510979 7.58235 0.5 10.3192 0.5C13.0556 0.5 13.3897 0.511883 14.4528 0.559835C15.4793 0.606136 16.1587 0.767771 16.7446 0.993977L16.7446 0.993992L16.7483 0.995411C17.3527 1.22322 17.9009 1.57926 18.3541 2.0395L18.354 2.03956L18.3608 2.04618C18.8218 2.49699 19.1775 3.04222 19.4048 3.64518L19.4048 3.64519L19.4068 3.6503C19.634 4.23366 19.7952 4.91075 19.8425 5.93305C19.8915 6.99559 19.9025 7.32846 19.9025 10.0571C19.9025 12.7864 19.8906 13.1196 19.8425 14.1807C19.7961 15.2024 19.6341 15.8794 19.4068 16.463L19.4067 16.463L19.4048 16.4682C19.1775 17.0712 18.8211 17.6177 18.3603 18.0695L18.3602 18.0694L18.3541 18.0757C17.9011 18.5357 17.3532 18.8908 16.7489 19.1177L16.7489 19.1177L16.744 19.1196C16.1588 19.3464 15.4796 19.5072 14.4543 19.5544C14.4542 19.5544 14.4542 19.5544 14.4542 19.5544L14.4772 20.0539M6.17279 0.560343L3.89527 19.1196L3.89528 19.1196L3.89017 19.1176C3.28516 18.8907 2.73709 18.5351 2.2841 18.0755L2.28415 18.0754L2.2778 18.0692C1.81677 17.6178 1.46009 17.0717 1.23254 16.4689L1.23256 16.4689L1.23087 16.4645C1.00431 15.8808 0.84312 15.2035 0.79581 14.1813L0.29634 14.2043C0.34584 15.274 0.51634 16.0055 0.764756 16.6455C1.01804 17.3164 1.41502 17.9242 1.92801 18.4265C2.43201 18.9378 3.04168 19.3334 3.71459 19.5858C4.35625 19.8345 5.08959 20.0055 6.16209 20.0539M14.4772 20.0539C13.401 20.1033 13.0582 20.1143 10.3192 20.1143C7.58017 20.1143 7.23734 20.1024 6.16209 20.0539M14.4772 20.0539C15.5497 20.0045 16.283 19.8345 16.9247 19.5858M14.4772 20.0539L16.9247 19.5858M6.16209 20.0539L6.18465 19.5544C6.18464 19.5544 6.18462 19.5544 6.1846 19.5544L6.16209 20.0539ZM16.9247 19.5858C17.5966 19.3335 18.2062 18.9385 18.7103 18.4265L16.9247 19.5858ZM6.22184 1.37114C5.18337 1.41844 4.59649 1.59359 4.19091 1.75102L4.19063 1.75113C3.65898 1.95786 3.26406 2.21138 2.86158 2.61226C2.47578 2.98733 2.17848 3.44347 1.99136 3.94761C1.83382 4.35228 1.65915 4.93754 1.61186 5.97025C1.56275 7.04249 1.55267 7.3698 1.55267 10.0571C1.55267 12.7445 1.56275 13.0718 1.61186 14.144C1.65915 15.1767 1.83383 15.762 1.99138 16.1667C2.17788 16.6689 2.47435 17.1249 2.85913 17.4996C3.23483 17.8834 3.69186 18.179 4.19498 18.3648C4.60041 18.5218 5.18684 18.696 6.22184 18.7431C7.29676 18.7921 7.62394 18.8021 10.3192 18.8021C13.0144 18.8021 13.3416 18.7921 14.4165 18.7431C15.455 18.6958 16.0418 18.5207 16.4474 18.3632L16.4477 18.3631C16.9793 18.1564 17.3742 17.9029 17.7767 17.5021C18.1627 17.1269 18.46 16.67 18.6469 16.1668C18.8045 15.7621 18.9792 15.1768 19.0265 14.144C19.0756 13.0718 19.0857 12.7445 19.0857 10.0571C19.0857 7.3698 19.0756 7.04249 19.0265 5.97025C18.979 4.93406 18.8033 4.34832 18.6454 3.9435L18.6453 3.94322C18.4379 3.4126 18.1835 3.01856 17.7816 2.61712C17.4056 2.23232 16.9484 1.93596 16.4434 1.74944C16.0379 1.59242 15.4515 1.41829 14.4165 1.37114C13.3416 1.32216 13.0135 1.31211 10.3192 1.31211C7.62486 1.31211 7.29677 1.32216 6.22184 1.37114ZM6.22184 1.37114L6.24459 1.87063L6.22184 1.37114ZM16.3089 5.29344L16.6515 5.65759L16.3089 5.29344C16.1716 5.42256 15.9891 5.49347 15.7999 5.49072C15.6108 5.48797 15.4304 5.41179 15.297 5.27875C15.1636 5.14575 15.0877 4.96643 15.085 4.77891C15.0823 4.59139 15.1529 4.40996 15.2823 4.27316C15.3488 4.20281 15.4289 4.14642 15.5178 4.10738C15.6067 4.06835 15.7027 4.04749 15.7999 4.04608C15.8972 4.04466 15.9937 4.06272 16.0837 4.09916C16.1737 4.1356 16.2555 4.18965 16.324 4.25804C16.3926 4.32644 16.4467 4.40779 16.483 4.49724C16.5194 4.58669 16.5374 4.68246 16.536 4.77891C16.5346 4.87535 16.5138 4.97057 16.4748 5.05893C16.4358 5.1473 16.3794 5.22706 16.3089 5.29344ZM8.83986 13.6194C9.66577 13.9622 10.5853 14.0084 11.4416 13.7502C12.2979 13.4919 13.0381 12.945 13.5355 12.2026C14.033 11.4602 14.2566 10.5683 14.1681 9.67945C14.0796 8.79072 13.6845 7.96043 13.0507 7.33025C12.6466 6.92751 12.1581 6.61922 11.6204 6.42746C11.0826 6.23568 10.509 6.16522 9.94067 6.22113C9.37237 6.27703 8.8235 6.45793 8.33357 6.75085C7.84364 7.04378 7.42481 7.44147 7.10731 7.91538C6.7898 8.3893 6.58154 8.92762 6.49759 9.4916C6.41365 10.0556 6.45612 10.6311 6.62194 11.1767C6.78775 11.7223 7.07276 12.2244 7.45636 12.6467C7.83988 13.069 8.31239 13.4012 8.83986 13.6194ZM7.00743 6.75583C7.44221 6.32218 7.95845 5.97812 8.52669 5.74335C9.09494 5.50859 9.70403 5.38774 10.3192 5.38774C10.9343 5.38774 11.5434 5.50859 12.1116 5.74335C12.6799 5.97812 13.1961 6.32218 13.6309 6.75583C14.0657 7.18948 14.4105 7.70423 14.6457 8.27066C14.881 8.83708 15.002 9.44412 15.002 10.0571C15.002 10.6701 14.881 11.2772 14.6457 11.8436C14.4105 12.41 14.0657 12.9248 13.6309 13.3584C12.7528 14.2343 11.5616 14.7265 10.3192 14.7265C9.07678 14.7265 7.88554 14.2343 7.00743 13.3584C6.12937 12.4826 5.63631 11.2951 5.63631 10.0571C5.63631 8.81915 6.12937 7.63161 7.00743 6.75583Z" fill="#A7A7AE" stroke="#A7A7AE"/>
</svg>
