<svg width="17" height="21" viewBox="0 0 17 21" fill="none" xmlns="http://www.w3.org/2000/svg">
<path d="M6.45936 12.8428L7.06749 13.2013C7.36651 13.3777 7.60966 13.5412 7.82728 13.6876C8.41001 14.0797 8.80968 14.3486 9.60907 14.4091C11.7111 14.567 13.3493 13.5608 14.4096 11.9684C15.4792 10.3624 15.9464 8.1711 15.6468 6.05638C15.1408 2.50008 11.448 0.548463 7.26049 1.00376L6.45936 12.8428ZM6.45936 12.8428L6.32295 13.5354C6.05271 14.9077 5.76006 16.2108 5.30303 17.3357C4.97706 18.138 4.57455 18.8315 4.05207 19.3859M6.45936 12.8428L4.05207 19.3859M4.05207 19.3859C3.93448 17.7675 4.13387 16.3028 4.44966 14.8922C4.6283 14.0942 4.84298 13.3183 5.05944 12.536C5.07119 12.4935 5.08296 12.451 5.09472 12.4084C5.32181 11.5872 5.54871 10.7575 5.72542 9.91249L5.76606 9.71817L5.66234 9.5489C5.18048 8.76255 5.18688 7.49513 5.63075 6.51564C5.84816 6.03589 6.14837 5.67766 6.48571 5.48576C6.80538 5.3039 7.19703 5.2476 7.68425 5.43469L7.68451 5.43479C7.96844 5.54364 8.1114 5.68934 8.19194 5.8442C8.27918 6.01195 8.32048 6.24394 8.30106 6.56159C8.26395 7.16871 8.02385 7.90216 7.75626 8.71959C7.73427 8.78678 7.71209 8.85453 7.68982 8.92283C7.41491 9.76601 7.11617 10.7198 7.17647 11.5214C7.20815 11.9425 7.34003 12.3587 7.6513 12.6999C7.96052 13.0388 8.40004 13.2524 8.95032 13.3598L8.95058 13.3598C10.1302 13.5895 11.1404 13.199 11.9172 12.4729C12.6799 11.76 13.2188 10.7276 13.5343 9.62759C13.851 8.52347 13.9545 7.31129 13.8119 6.20398C13.6702 5.10367 13.2778 4.05447 12.5498 3.33795C10.5657 1.38442 7.70961 1.39317 5.51583 2.51601C3.31976 3.64003 1.64903 5.95143 2.11532 8.74531M4.05207 19.3859L2.11532 8.74531M2.11532 8.74531C2.1153 8.74518 2.11528 8.74505 2.11526 8.74492L2.60852 8.66317L2.11535 8.74549C2.11534 8.74543 2.11533 8.74537 2.11532 8.74531ZM2.87164 11.3922C2.06411 11.1432 1.55301 10.7014 1.23069 10.1296C0.848607 9.4518 0.700304 8.53486 0.742919 7.40742L0.742933 7.40705C0.873286 3.88919 4.02131 1.35654 7.26042 1.00377L2.87164 11.3922ZM2.87164 11.3922C2.82892 11.4919 2.77346 11.6022 2.70215 11.7245L3.13402 11.9764M2.87164 11.3922L0.243276 7.38853C0.154836 9.72835 0.839731 11.4837 3.13402 11.9764M2.87164 11.3922C2.98785 11.4281 3.11019 11.4599 3.239 11.4876L3.13402 11.9764M2.87164 11.3922L2.60853 8.66317C2.67896 9.08815 2.88098 9.41117 3.0751 9.72157C3.44496 10.313 3.78618 10.8586 3.13402 11.9764" fill="#A7A7AE" stroke="#A7A7AE"/>
</svg>
