<svg width="26" height="25" viewBox="0 0 26 25" fill="none" xmlns="http://www.w3.org/2000/svg">
<path d="M5.9039 23.2789L5.50583 24.1962L5.9039 23.2789ZM2.65672 19.8771L1.72677 20.2448L2.65672 19.8771ZM23.3433 19.8771L24.2732 20.2448V20.2448L23.3433 19.8771ZM20.0961 23.2789L20.4942 24.1962L20.0961 23.2789ZM2.2 11.1574L3.19608 11.2459L3.24502 10.695L2.80449 10.3608L2.2 11.1574ZM22 5.75735V4.75735H22L22 5.75735ZM13.9213 4.42426L14.6284 5.13137L13.9213 4.42426ZM16.4669 1.87868L17.174 2.58579L16.4669 1.87868ZM20.7095 1.87868L20.0024 2.58579L20.7095 1.87868ZM21.0202 5.75734L21.0203 6.75734L21.5306 6.75731L21.83 6.34402L21.0202 5.75734ZM12.2669 4.42428L11.5598 5.13139L12.2669 4.42428ZM9.72134 1.8787L9.01423 2.5858V2.5858L9.72134 1.8787ZM5.4787 1.8787L6.1858 2.5858V2.5858L5.4787 1.8787ZM13 22.5574H14H13ZM2.16103 11.1278L1.54751 11.9175L2.16103 11.1278ZM23.7225 11.2139L23.1477 10.3956L23.7225 11.2139ZM11.2 22.7574C9.78785 22.7574 8.78119 22.7568 7.98836 22.7001C7.20547 22.6441 6.7067 22.5372 6.30197 22.3615L5.50583 24.1962C6.20373 24.4991 6.95518 24.6313 7.84577 24.695C8.72642 24.7579 9.8165 24.7574 11.2 24.7574V22.7574ZM1.20004 14.3288C1.20004 15.7801 1.19954 16.9164 1.25922 17.833C1.31944 18.7578 1.44397 19.5295 1.72677 20.2448L3.58667 19.5094C3.41275 19.0695 3.30894 18.5315 3.255 17.7031C3.20052 16.8665 3.20004 15.8063 3.20004 14.3288H1.20004ZM6.30197 22.3615C5.08386 21.8329 4.10183 20.8123 3.58667 19.5094L1.72677 20.2448C2.42955 22.0222 3.7836 23.4489 5.50583 24.1962L6.30197 22.3615ZM22.8 14.3288C22.8 15.8062 22.7995 16.8665 22.745 17.7031C22.6911 18.5315 22.5873 19.0695 22.4133 19.5094L24.2732 20.2448C24.556 19.5295 24.6806 18.7578 24.7408 17.833C24.8005 16.9164 24.8 15.7801 24.8 14.3288H22.8ZM14.8 24.7574C16.1835 24.7574 17.2736 24.7579 18.1542 24.695C19.0448 24.6313 19.7963 24.4991 20.4942 24.1962L19.698 22.3615C19.2933 22.5372 18.7945 22.6441 18.0116 22.7001C17.2188 22.7568 16.2122 22.7574 14.8 22.7574V24.7574ZM22.4133 19.5094C21.8982 20.8123 20.9161 21.8329 19.698 22.3615L20.4942 24.1962C22.2164 23.4489 23.5705 22.0222 24.2732 20.2448L22.4133 19.5094ZM3.20004 14.3288C3.20004 12.5484 3.11818 12.1226 3.19608 11.2459L1.20392 11.0689C1.11685 12.0489 1.20004 12.7982 1.20004 14.3288H3.20004ZM22 6.75735C23.1046 6.75735 24 7.65278 24 8.75735H26C26 6.54821 24.2091 4.75735 22 4.75735V6.75735ZM4 4.75735C1.79086 4.75735 0 6.54821 0 8.75735H2C2 7.65278 2.89543 6.75735 4 6.75735V4.75735ZM14.6284 5.13137L17.174 2.58579L15.7598 1.17157L13.2142 3.71716L14.6284 5.13137ZM17.174 2.58579C17.9551 1.80474 19.2214 1.80474 20.0024 2.58579L21.4167 1.17157C19.8546 -0.390524 17.3219 -0.390524 15.7598 1.17157L17.174 2.58579ZM13.2142 3.71716C12.8387 4.09263 12.2448 4.72174 12.0349 5.49557L13.9651 6.01918C14.0201 5.81641 14.2371 5.52272 14.6284 5.13137L13.2142 3.71716ZM20.0024 2.58579C20.7063 3.28963 20.7763 4.38943 20.2104 5.17065L21.83 6.34402C22.9634 4.77956 22.8264 2.58128 21.4167 1.17157L20.0024 2.58579ZM12.974 3.71717L10.4284 1.17159L9.01423 2.5858L11.5598 5.13139L12.974 3.71717ZM10.4284 1.17159C8.86635 -0.390508 6.33369 -0.390508 4.77159 1.17159L6.1858 2.5858C6.96685 1.80475 8.23318 1.80475 9.01423 2.5858L10.4284 1.17159ZM11.5598 5.13139C11.7853 5.35688 11.9333 5.64488 12.0349 6.01918L13.9651 5.49557C13.8017 4.89326 13.5153 4.25849 12.974 3.71717L11.5598 5.13139ZM4.77159 1.17159C3.36188 2.5813 3.22484 4.77957 4.35824 6.34404L5.97787 5.17067C5.4119 4.38945 5.48196 3.28965 6.1858 2.5858L4.77159 1.17159ZM12 5.75737L12 22.5574H14L14 5.75737H12ZM5.16805 6.75735L13 6.75737L13 4.75737L5.16806 4.75735L5.16805 6.75735ZM4 10.7574C3.53696 10.7574 3.1132 10.6012 2.77454 10.3381L1.54751 11.9175C2.22466 12.4436 3.0771 12.7574 4 12.7574V10.7574ZM2.77454 10.3381C2.30142 9.97054 2 9.39939 2 8.75735H0C0 10.0431 0.607719 11.1873 1.54751 11.9175L2.77454 10.3381ZM2.80449 10.3608L2.76552 10.3312L1.55654 11.9244L1.59551 11.954L2.80449 10.3608ZM14.8 22.7574H13V24.7574H14.8V22.7574ZM13 22.7574H11.2V24.7574H13V22.7574ZM12 22.5574L12 23.7574L14 23.7574L14 22.5574L12 22.5574ZM22 10.7574H13V12.7574H22V10.7574ZM13 10.7574H4V12.7574H13V10.7574ZM24 8.75735C24 9.43377 23.6651 10.0321 23.1477 10.3956L24.2973 12.0322C25.325 11.3103 26 10.1127 26 8.75735H24ZM23.1477 10.3956C22.823 10.6236 22.4286 10.7574 22 10.7574V12.7574C22.8533 12.7574 23.647 12.489 24.2973 12.0322L23.1477 10.3956ZM24.8 14.3288C24.8 12.7158 24.8007 12.0746 24.7188 11.1277L22.7262 11.3001C22.7993 12.1457 22.8 12.6986 22.8 14.3288H24.8ZM13 6.75737L20.7095 6.75736L20.7095 4.75736L13 4.75737L13 6.75737ZM20.7096 6.75736L21.0203 6.75734L21.0201 4.75734L20.7095 4.75736L20.7096 6.75736ZM20.7095 6.75736L22 6.75735L22 4.75735L20.7095 4.75736L20.7095 6.75736ZM5.16805 4.75735H4V6.75735H5.16805V4.75735ZM4 6.75735L8.5 6.75736L8.5 4.75736L4 4.75735L4 6.75735ZM8.5 6.75736L13 6.75737L13 4.75737L8.5 4.75736L8.5 6.75736ZM5.16805 6.75735L8.5 6.75736L8.5 4.75736L5.16806 4.75735L5.16805 6.75735ZM13 6.75737L21.0202 6.75734L21.0202 4.75734L13 4.75737L13 6.75737Z" fill="#262626"/>
</svg>
