<svg width="39" height="39" viewBox="0 0 39 39" fill="none" xmlns="http://www.w3.org/2000/svg">
<path d="M35.23 27.5599L30.1437 15.6812C28.4213 11.6512 25.2525 11.4887 23.1238 15.3237L20.0525 20.8649C18.4925 23.6762 15.5838 23.9199 13.5688 21.4012L13.2113 20.9462C11.115 18.3137 8.1575 18.6387 6.64625 21.6449L3.85125 27.2512C1.885 31.1512 4.72875 35.7499 9.08375 35.7499H29.8188C34.0438 35.7499 36.8875 31.4437 35.23 27.5599Z" stroke="#262626" stroke-width="2" stroke-linecap="round" stroke-linejoin="round"/>
<path d="M11.3262 13C14.0186 13 16.2012 10.8174 16.2012 8.125C16.2012 5.43261 14.0186 3.25 11.3262 3.25C8.63378 3.25 6.45117 5.43261 6.45117 8.125C6.45117 10.8174 8.63378 13 11.3262 13Z" stroke="#262626" stroke-width="2" stroke-linecap="round" stroke-linejoin="round"/>
</svg>
