<svg width="28" height="44" viewBox="0 0 28 44" fill="none" xmlns="http://www.w3.org/2000/svg">
<path fill-rule="evenodd" clip-rule="evenodd" d="M13.5667 2C19.9548 2 25.1333 7.17857 25.1333 13.5667V30.4333C25.1333 36.8214 19.9548 42 13.5667 42C7.17857 42 2 36.8214 2 30.4333V13.5667C2 7.17858 7.17857 2 13.5667 2ZM0 13.5667C0 6.07401 6.074 0 13.5667 0C21.0593 0 27.1333 6.07401 27.1333 13.5667V30.4333C27.1333 37.926 21.0593 44 13.5667 44C6.074 44 0 37.926 0 30.4333V13.5667ZM12.1995 22V33H14.1995V22H12.1995Z" fill="#3066C1"/>
</svg>
