<svg width="68" height="68" viewBox="0 0 68 68" fill="none" xmlns="http://www.w3.org/2000/svg">
<circle cx="34" cy="34" r="34" transform="rotate(90 34 34)" fill="#133752"/>
<path d="M31.968 34.329H29.2778V31.472H31.968H32.2458V31.1942V28.5932C32.2458 27.1685 32.6649 26.097 33.3719 25.3824C34.0788 24.6678 35.1052 24.2778 36.3833 24.2778C37.0079 24.2778 37.6503 24.3342 38.1391 24.3912C38.3784 24.4191 38.5796 24.447 38.7222 24.4681V26.8581H37.526C36.7387 26.8581 36.1771 27.1078 35.8179 27.5275C35.4656 27.9393 35.3432 28.474 35.3432 28.9806V31.1942V31.472H35.621H38.5399L38.106 34.329H35.621H35.3432V34.6068V42.6168C34.3155 42.7574 33.2736 42.7574 32.2458 42.6168V34.6068V34.329H31.968Z" fill="#6D9ABC" stroke="#133752" stroke-width="0.555556"/>
</svg>
