<svg width="68" height="68" viewBox="0 0 68 68" fill="none" xmlns="http://www.w3.org/2000/svg">
<circle cx="34" cy="34" r="34" transform="rotate(90 34 34)" fill="#133752"/>
<path d="M29.3936 23.0652L29.4074 23.7651L29.4202 23.7649L29.4329 23.7641L29.3936 23.0652ZM38.3534 23.0652L38.3141 23.7641L38.3268 23.7649L38.3396 23.7651L38.3534 23.0652ZM40.9993 23.5727L40.7532 24.228L40.7542 24.2284L40.9993 23.5727ZM42.9203 24.8268L42.4186 25.3149L42.4253 25.3218L42.4321 25.3284L42.9203 24.8268ZM44.1744 26.7477L43.5187 26.9928L43.519 26.9938L44.1744 26.7477ZM44.6818 29.3936L43.9819 29.4074L43.9822 29.4202L43.9829 29.4329L44.6818 29.3936ZM44.6818 38.3534L43.9829 38.3141L43.9822 38.3268L43.9819 38.3396L44.6818 38.3534ZM44.1744 40.9993L44.8267 41.2534L44.8297 41.2454L44.1744 40.9993ZM40.9993 44.1744L41.2454 44.8297L41.2534 44.8266L40.9993 44.1744ZM38.3534 44.6818L38.3396 43.9819L38.3268 43.9822L38.3141 43.9829L38.3534 44.6818ZM29.3936 44.6818L29.4242 43.9825L29.4158 43.9821L29.4074 43.9819L29.3936 44.6818ZM26.7477 44.1744L26.9938 43.519L26.9928 43.5187L26.7477 44.1744ZM24.8268 42.9203L25.3284 42.4321L25.3218 42.4253L25.3149 42.4186L24.8268 42.9203ZM23.5727 40.9993L24.2284 40.7542L24.228 40.7532L23.5727 40.9993ZM23.0652 38.3534L23.7651 38.3396L23.7649 38.3268L23.7641 38.3141L23.0652 38.3534ZM23.0652 29.3936L23.7641 29.4329L23.7649 29.4202L23.7651 29.4074L23.0652 29.3936ZM23.5727 26.7477L24.228 26.9938L24.2284 26.9928L23.5727 26.7477ZM24.8268 24.8268L25.3149 25.3284L25.3218 25.3218L25.3284 25.3149L24.8268 24.8268ZM26.7477 23.5727L26.9928 24.2284L26.9938 24.228L26.7477 23.5727ZM31.2154 29.8959L31.6043 30.478L31.6043 30.478L31.2154 29.8959ZM37.8515 36.532L37.2694 36.1431L37.8515 36.532ZM35.7043 38.2941L35.9722 38.9409V38.9408L35.7043 38.2941ZM32.9401 38.5664L32.8035 39.2529L32.9401 38.5664ZM30.4904 37.257L29.9954 37.752L29.9954 37.752L30.4904 37.257ZM29.181 34.8074L28.4945 34.9439L29.181 34.8074ZM33.8735 22.3C30.9273 22.3 30.5373 22.2998 29.3543 22.3663L29.4329 23.7641C30.5696 23.7002 30.919 23.7 33.8735 23.7V22.3ZM38.3927 22.3663C37.2097 22.2998 36.8197 22.3 33.8735 22.3V23.7C36.828 23.7 37.1774 23.7002 38.3141 23.7641L38.3927 22.3663ZM41.2454 22.9174C40.3242 22.5714 39.351 22.3848 38.3672 22.3654L38.3396 23.7651C39.1646 23.7814 39.9808 23.9379 40.7532 24.228L41.2454 22.9174ZM43.4219 24.3386C42.81 23.7097 42.0663 23.2242 41.2444 22.917L40.7542 24.2284C41.3824 24.4632 41.9509 24.8343 42.4186 25.3149L43.4219 24.3386ZM44.8301 26.5026C44.5228 25.6807 44.0373 24.9371 43.4085 24.3251L42.4321 25.3284C42.9128 25.7962 43.2838 26.3646 43.5187 26.9928L44.8301 26.5026ZM45.3817 29.3798C45.3622 28.3961 45.1756 27.4228 44.8297 26.5017L43.519 26.9938C43.8091 27.7663 43.9656 28.5825 43.9819 29.4074L45.3817 29.3798ZM45.447 33.8735C45.447 30.9273 45.4472 30.5373 45.3807 29.3543L43.9829 29.4329C44.0468 30.5696 44.047 30.919 44.047 33.8735H45.447ZM45.3807 38.3927C45.4472 37.2097 45.447 36.8197 45.447 33.8735H44.047C44.047 36.828 44.0468 37.1774 43.9829 38.3141L45.3807 38.3927ZM44.8297 41.2454C45.1756 40.3242 45.3622 39.351 45.3817 38.3672L43.9819 38.3396C43.9656 39.1646 43.8091 39.9807 43.519 40.7532L44.8297 41.2454ZM43.4152 43.4152C44.0302 42.8001 44.5109 42.0639 44.8266 41.2534L43.5221 40.7452C43.2767 41.3751 42.9032 41.9472 42.4252 42.4252L43.4152 43.4152ZM41.2534 44.8266C42.0639 44.5109 42.8001 44.0302 43.4152 43.4152L42.4252 42.4252C41.9472 42.9032 41.3751 43.2767 40.7452 43.5221L41.2534 44.8266ZM38.3672 45.3817C39.351 45.3622 40.3242 45.1756 41.2454 44.8297L40.7532 43.519C39.9807 43.8091 39.1646 43.9656 38.3396 43.9819L38.3672 45.3817ZM33.8735 45.447C36.8197 45.447 37.2097 45.4472 38.3927 45.3807L38.3141 43.9829C37.1774 44.0468 36.828 44.047 33.8735 44.047V45.447ZM29.363 45.3811C30.5375 45.4325 30.9187 45.447 33.8735 45.447V44.047C30.9277 44.047 30.5694 44.0326 29.4242 43.9825L29.363 45.3811ZM26.5017 44.8297C27.4228 45.1756 28.3961 45.3622 29.3798 45.3817L29.4074 43.9819C28.5825 43.9656 27.7663 43.8091 26.9938 43.519L26.5017 44.8297ZM24.3251 43.4085C24.9371 44.0373 25.6807 44.5228 26.5026 44.8301L26.9928 43.5187C26.3646 43.2838 25.7962 42.9128 25.3284 42.4321L24.3251 43.4085ZM22.917 41.2444C23.2242 42.0663 23.7097 42.81 24.3386 43.4219L25.3149 42.4186C24.8343 41.9509 24.4632 41.3824 24.2284 40.7542L22.917 41.2444ZM22.3654 38.3672C22.3848 39.351 22.5714 40.3242 22.9174 41.2454L24.228 40.7532C23.9379 39.9808 23.7814 39.1646 23.7651 38.3396L22.3654 38.3672ZM22.3 33.8735C22.3 36.8197 22.2998 37.2097 22.3663 38.3927L23.7641 38.3141C23.7002 37.1774 23.7 36.828 23.7 33.8735H22.3ZM22.3663 29.3543C22.2998 30.5373 22.3 30.9273 22.3 33.8735H23.7C23.7 30.919 23.7002 30.5696 23.7641 29.4329L22.3663 29.3543ZM22.9174 26.5017C22.5714 27.4228 22.3848 28.3961 22.3654 29.3798L23.7651 29.4074C23.7814 28.5825 23.9379 27.7663 24.228 26.9938L22.9174 26.5017ZM24.3386 24.3251C23.7097 24.9371 23.2242 25.6807 22.917 26.5026L24.2284 26.9928C24.4632 26.3646 24.8343 25.7962 25.3149 25.3284L24.3386 24.3251ZM26.5026 22.917C25.6807 23.2242 24.9371 23.7097 24.3251 24.3386L25.3284 25.3149C25.7962 24.8343 26.3646 24.4632 26.9928 24.2284L26.5026 22.917ZM29.3798 22.3654C28.3961 22.3848 27.4228 22.5714 26.5017 22.9174L26.9938 24.228C27.7663 23.9379 28.5825 23.7814 29.4074 23.7651L29.3798 22.3654ZM33.8734 28.3896C32.7887 28.3896 31.7284 28.7113 30.8265 29.3139L31.6043 30.478C32.276 30.0292 33.0656 29.7896 33.8734 29.7896V28.3896ZM37.7515 29.996C36.7229 28.9674 35.328 28.3896 33.8734 28.3896V29.7896C34.9567 29.7896 35.9955 30.2199 36.7615 30.9859L37.7515 29.996ZM39.3578 33.874C39.3578 32.4194 38.78 31.0245 37.7515 29.996L36.7615 30.9859C37.5275 31.7519 37.9578 32.7907 37.9578 33.874H39.3578ZM38.4335 36.9209C39.0361 36.019 39.3578 34.9587 39.3578 33.874H37.9578C37.9578 34.6818 37.7182 35.4714 37.2694 36.1431L38.4335 36.9209ZM35.9722 38.9408C36.9743 38.5258 37.8309 37.8228 38.4335 36.9209L37.2694 36.1431C36.8206 36.8148 36.1828 37.3383 35.4364 37.6474L35.9722 38.9408ZM32.8035 39.2529C33.8673 39.4646 34.9701 39.3559 35.9722 38.9409L35.4364 37.6474C34.6901 37.9566 33.8689 38.0374 33.0766 37.8798L32.8035 39.2529ZM29.9954 37.752C30.7624 38.519 31.7396 39.0413 32.8035 39.2529L33.0766 37.8798C32.2843 37.7222 31.5566 37.3332 30.9854 36.762L29.9954 37.752ZM28.4945 34.9439C28.7061 36.0078 29.2284 36.985 29.9954 37.752L30.9854 36.762C30.4142 36.1908 30.0252 35.4631 29.8676 34.6708L28.4945 34.9439ZM28.8066 31.7752C28.3915 32.7773 28.2829 33.8801 28.4945 34.9439L29.8676 34.6708C29.71 33.8785 29.7909 33.0573 30.1 32.311L28.8066 31.7752ZM30.8265 29.3139C29.9246 29.9165 29.2217 30.7731 28.8066 31.7752L30.1 32.311C30.4091 31.5646 30.9326 30.9268 31.6043 30.478L30.8265 29.3139Z" fill="#6D9ABC"/>
<path d="M41.4851 28.0094C41.4837 28.2668 41.4061 28.5181 41.2622 28.7315C41.1183 28.945 40.9144 29.1111 40.6763 29.209C40.4382 29.3068 40.1764 29.3321 39.924 29.2815C39.6715 29.2309 39.4397 29.1068 39.2577 28.9247C39.0756 28.7427 38.9515 28.5109 38.9009 28.2584C38.8503 28.006 38.8756 27.7442 38.9734 27.5061C39.0713 27.268 39.2374 27.0641 39.4509 26.9202C39.6643 26.7763 39.9156 26.6987 40.173 26.6973C40.3456 26.6963 40.5167 26.7296 40.6763 26.7952C40.8359 26.8608 40.9809 26.9574 41.103 27.0794C41.225 27.2015 41.3216 27.3465 41.3872 27.5061C41.4528 27.6657 41.4861 27.8368 41.4851 28.0094Z" fill="#6D9ABC"/>
</svg>
