<svg width="68" height="68" viewBox="0 0 68 68" fill="none" xmlns="http://www.w3.org/2000/svg">
<circle cx="34" cy="34" r="34" transform="rotate(90 34 34)" fill="#133752"/>
<path d="M26.4179 39.2941L26.5177 38.9902L26.3532 38.7158C25.5219 37.3291 25.0443 35.7089 25.0443 33.9761C25.0443 28.8569 29.22 24.7 34.3797 24.7C39.5394 24.7 43.7151 28.8569 43.7151 33.9761C43.7151 39.0952 39.5394 43.2521 34.3797 43.2521C32.7132 43.2521 31.1509 42.8188 29.7982 42.0602L29.5326 41.9112L29.2426 42.004L25.0927 43.3308L26.4179 39.2941Z" stroke="#6D9ABC" stroke-width="1.4"/>
<path fill-rule="evenodd" clip-rule="evenodd" d="M32.8888 32.2067C32.8589 31.9897 32.6836 31.6452 32.591 31.4369C32.4984 31.2285 32.0353 30.1866 31.8899 30.0592C31.7115 29.8299 31.079 30.0537 30.8614 30.1768C30.3962 30.44 30.2534 30.7876 30.175 31.2409C30.0123 32.1814 30.6205 33.8768 31.0126 34.3809C31.4713 34.9705 31.8782 35.5216 32.3913 36.034C32.755 36.3525 33.0558 36.6797 33.4095 36.9259C34.3719 37.551 35.4346 38.4041 36.6519 38.1754C37.4381 38.0276 38.217 37.7602 38.4161 37.0484C38.5119 36.8141 38.5678 36.2905 38.5281 36.0012C38.4737 35.6056 37.7842 35.3632 37.498 35.2356C37.0082 35.0171 36.3901 34.8342 36.2343 35.1372C36.0415 35.512 36.0885 36.1019 35.6729 36.1725C35.3521 36.2271 34.9774 35.9923 34.6715 35.868C33.974 35.4479 33.2567 34.8832 32.7177 34.2202L32.3243 33.6847C32.2415 33.0822 32.8454 32.7687 32.8888 32.2067Z" fill="#6D9ABC"/>
</svg>
