<svg width="68" height="68" viewBox="0 0 68 68" fill="none" xmlns="http://www.w3.org/2000/svg">
<circle cx="34" cy="34" r="34" transform="rotate(90 34 34)" fill="#133752"/>
<path d="M44.9819 28.8217L44.982 28.822C45.2133 29.6851 45.3379 31.0713 45.4012 32.2922C45.4323 32.8921 45.4478 33.4347 45.4556 33.8274C45.4595 34.0235 45.4614 34.1819 45.4624 34.2908C45.4629 34.3452 45.4631 34.3873 45.4633 34.4155L45.4634 34.4473L45.4634 34.455V34.4568V34.4571V34.4572V34.4572V34.4575V34.4593L45.4634 34.4671L45.4633 34.4988C45.4631 34.5271 45.4629 34.5691 45.4624 34.6236C45.4614 34.7325 45.4595 34.8908 45.4556 35.087C45.4478 35.4797 45.4323 36.0223 45.4012 36.6222C45.3379 37.843 45.2133 39.2293 44.982 40.0923L44.9819 40.0927C44.8772 40.4842 44.6706 40.8421 44.3824 41.1303C44.0945 41.4183 43.7351 41.6265 43.3399 41.7337C42.9398 41.8404 42.1768 41.932 41.199 42.0033C40.2397 42.0732 39.1299 42.1202 38.0726 42.1516C37.0164 42.183 36.0181 42.1987 35.2836 42.2065C34.9164 42.2104 34.6155 42.2124 34.4066 42.2134C34.3021 42.2139 34.2206 42.2141 34.1654 42.2142L34.1027 42.2143L34.0868 42.2144L34.0829 42.2144H34.0819H34.0817L34.0817 42.9144L34.0816 42.2144H34.0814H34.0805L34.0766 42.2144L34.0607 42.2143L33.998 42.2142C33.9427 42.2141 33.8613 42.2139 33.7568 42.2134C33.5479 42.2124 33.2469 42.2104 32.8798 42.2065C32.1452 42.1987 31.147 42.183 30.0908 42.1516C29.0335 42.1202 27.9237 42.0732 26.9644 42.0033C25.9866 41.932 25.2236 41.8404 24.8234 41.7337C24.4283 41.6265 24.0689 41.4183 23.7809 41.1303C23.4927 40.8421 23.2862 40.4842 23.1815 40.0927L23.1814 40.0923C22.9501 39.2293 22.8255 37.843 22.7622 36.6222C22.7311 36.0223 22.7155 35.4797 22.7078 35.087C22.7039 34.8908 22.7019 34.7325 22.701 34.6236C22.7005 34.5691 22.7002 34.5271 22.7001 34.4988L22.7 34.4671L22.7 34.4593L22.7 34.4575L22.7 34.4572V34.4572V34.4572V34.4571L22.7 34.4568L22.7 34.455L22.7 34.4473L22.7001 34.4155C22.7002 34.3873 22.7005 34.3452 22.701 34.2908C22.7019 34.1819 22.7039 34.0235 22.7078 33.8274C22.7155 33.4347 22.7311 32.8921 22.7622 32.2922C22.8255 31.0713 22.9501 29.6851 23.1814 28.822L23.1815 28.8217C23.2862 28.4301 23.4927 28.0722 23.7809 27.784C24.0689 27.4961 24.4282 27.2879 24.8233 27.1807C25.2235 27.074 25.9865 26.9824 26.9644 26.9111C27.9237 26.8411 29.0335 26.7942 30.0908 26.7628C31.147 26.7314 32.1452 26.7157 32.8798 26.7078C33.2469 26.7039 33.5479 26.702 33.7568 26.701C33.8613 26.7005 33.9427 26.7002 33.998 26.7001L34.0607 26.7L34.0766 26.7L34.0805 26.7L34.0814 26.7H34.0816L34.0817 26L34.0817 26.7H34.0819L34.0829 26.7L34.0868 26.7L34.1027 26.7L34.1654 26.7001C34.2206 26.7002 34.3021 26.7005 34.4066 26.701C34.6155 26.702 34.9164 26.7039 35.2836 26.7078C36.0181 26.7157 37.0164 26.7314 38.0726 26.7628C39.1299 26.7942 40.2397 26.8411 41.199 26.9111C42.1768 26.9824 42.9398 27.074 43.34 27.1807C43.7351 27.2879 44.0945 27.4961 44.3824 27.784C44.6706 28.0722 44.8772 28.4301 44.9819 28.8217Z" stroke="#6D9ABC" stroke-width="1.4"/>
<path d="M31.6655 38.0815V30.8325L37.7064 34.457L31.6655 38.0815Z" fill="#6D9ABC"/>
</svg>
