<svg width="33" height="33" viewBox="0 0 33 33" fill="none" xmlns="http://www.w3.org/2000/svg">
<path d="M4.71283 30.858L5.10483 30.2186L4.71283 30.858ZM2.15538 28.2994L2.79494 27.9076L2.15538 28.2994ZM30.8585 28.2994L30.2189 27.9076L30.8585 28.2994ZM28.301 30.858L27.909 30.2186L28.301 30.858ZM28.301 6.79204L27.909 7.43144L28.301 6.79204ZM30.8585 9.35064L30.2189 9.74238L30.8585 9.35064ZM4.71283 6.79204L5.10483 7.43144L4.71283 6.79204ZM2.15538 9.35064L2.79494 9.74238L2.15538 9.35064ZM26.5414 1.847L27.0828 1.32794V1.32794L26.5414 1.847ZM3.87111 2.38072L4.32409 2.97848L3.87111 2.38072ZM2.33765 3.98013L2.95306 4.40882L2.33765 3.98013ZM27.3521 5.852H28.1021L28.1021 5.8483L27.3521 5.852ZM26.3662 18.5887C26.7804 18.5887 27.1162 18.2529 27.1162 17.8387C27.1162 17.4244 26.7804 17.0887 26.3662 17.0887V18.5887ZM22.1408 17.0887C21.7266 17.0887 21.3908 17.4244 21.3908 17.8387C21.3908 18.2529 21.7266 18.5887 22.1408 18.5887V17.0887ZM14.183 6.4H18.8309V4.9H14.183V6.4ZM18.8309 31.25H14.183V32.75H18.8309V31.25ZM14.183 31.25C11.6327 31.25 9.77262 31.2492 8.31564 31.1106C6.86983 30.9731 5.89857 30.7052 5.10483 30.2186L4.32083 31.4974C5.3899 32.1528 6.61793 32.4559 8.1736 32.6039C9.71809 32.7508 11.6617 32.75 14.183 32.75V31.25ZM0.26385 18.825C0.26385 21.3474 0.263059 23.2918 0.409905 24.837C0.557811 26.3932 0.860758 27.6217 1.51582 28.6911L2.79494 27.9076C2.30847 27.1134 2.04065 26.1416 1.90318 24.695C1.76464 23.2373 1.76385 21.3764 1.76385 18.825H0.26385ZM5.10483 30.2186C4.16342 29.6414 3.37187 28.8495 2.79494 27.9076L1.51582 28.6911C2.21638 29.8348 3.17757 30.7965 4.32083 31.4974L5.10483 30.2186ZM18.8309 32.75C21.3521 32.75 23.2958 32.7508 24.8403 32.6039C26.3959 32.4559 27.6239 32.1528 28.693 31.4974L27.909 30.2186C27.1153 30.7052 26.144 30.9731 24.6982 31.1106C23.2412 31.2492 21.3812 31.25 18.8309 31.25V32.75ZM30.2189 27.9076C29.642 28.8495 28.8504 29.6414 27.909 30.2186L28.693 31.4974C29.8363 30.7965 30.7975 29.8348 31.498 28.6911L30.2189 27.9076ZM27.909 7.43144C28.8504 8.0086 29.642 8.80048 30.2189 9.74238L31.498 8.95889C30.7975 7.81518 29.8363 6.85354 28.693 6.15264L27.909 7.43144ZM14.183 4.9C11.6617 4.9 9.71809 4.89921 8.1736 5.04612C6.61793 5.19411 5.3899 5.49721 4.32083 6.15264L5.10483 7.43144C5.89857 6.94482 6.86983 6.67691 8.31564 6.53938C9.77262 6.40079 11.6327 6.4 14.183 6.4V4.9ZM1.76385 18.825C1.76385 16.2736 1.76464 14.4127 1.90318 12.955C2.04065 11.5084 2.30847 10.5366 2.79494 9.74238L1.51582 8.95889C0.860758 10.0283 0.557811 11.2568 0.409905 12.813C0.263059 14.3582 0.26385 16.3026 0.26385 18.825H1.76385ZM4.32083 6.15264C3.17757 6.85354 2.21638 7.81518 1.51582 8.95889L2.79494 9.74238C3.37187 8.80049 4.16342 8.0086 5.10483 7.43144L4.32083 6.15264ZM13.4905 1.75H21.8083V0.25H13.4905V1.75ZM21.8083 1.75C23.1374 1.75 24.0556 1.75173 24.7465 1.84861C25.4124 1.94199 25.7551 2.1106 26.0001 2.36605L27.0828 1.32794C26.5157 0.7364 25.7989 0.481509 24.9548 0.363142C24.1356 0.24827 23.0933 0.25 21.8083 0.25V1.75ZM13.4905 0.25C10.9088 0.25 8.90973 0.248881 7.33053 0.427334C5.73536 0.607592 4.47947 0.978707 3.41814 1.78297L4.32409 2.97848C5.08481 2.40202 6.0395 2.08277 7.49897 1.91785C8.97441 1.75112 10.874 1.75 13.4905 1.75V0.25ZM1.76385 14.0132C1.76385 11.2863 1.7648 9.29889 1.92531 7.75365C2.08455 6.22067 2.39405 5.21131 2.95306 4.40882L1.72224 3.55145C0.957444 4.64937 0.605048 5.94565 0.433339 7.59867C0.262903 9.23943 0.26385 11.3184 0.26385 14.0132H1.76385ZM3.41814 1.78297C2.76619 2.277 2.19412 2.87403 1.72224 3.55145L2.95306 4.40882C3.33624 3.85874 3.79914 3.37628 4.32409 2.97848L3.41814 1.78297ZM28.1021 5.8483C28.0969 4.79599 28.0739 3.9204 27.9494 3.20597C27.8216 2.47248 27.5767 1.84302 27.0828 1.32794L26.0001 2.36605C26.22 2.59545 26.3752 2.90986 26.4716 3.46345C26.5714 4.03609 26.5968 4.79076 26.6021 5.85571L28.1021 5.8483ZM0.26385 14.0132C0.26385 15.54 0.232647 16.9051 0.264098 18.0702L1.76355 18.0298C1.73276 16.8891 1.76385 15.5927 1.76385 14.0132H0.26385ZM31.2253 21.3159H22.1408V22.8159H31.2253V21.3159ZM17.1654 17.8387C17.1654 20.5872 19.3926 22.8159 22.1408 22.8159V21.3159C20.2217 21.3159 18.6654 19.7594 18.6654 17.8387H17.1654ZM18.6654 17.8387C18.6654 15.9179 20.2217 14.3614 22.1408 14.3614V12.8614C19.3926 12.8614 17.1654 15.0901 17.1654 17.8387H18.6654ZM26.3662 17.0887H22.1408V18.5887H26.3662V17.0887ZM18.8309 6.4C20.9714 6.4 22.6286 6.40032 23.9744 6.4834C25.3193 6.56643 26.2964 6.72981 27.0857 7.02971L27.6185 5.62751C26.6217 5.2488 25.47 5.07288 24.0668 4.98625C22.6644 4.89968 20.9541 4.9 18.8309 4.9V6.4ZM27.0857 7.02971C27.3827 7.14256 27.6542 7.27522 27.909 7.43144L28.693 6.15264C28.3544 5.94502 27.9983 5.77181 27.6185 5.62751L27.0857 7.02971ZM26.6021 5.852V6.32861H28.1021V5.852H26.6021ZM22.1408 14.3614H31.9139V12.8614H22.1408V14.3614ZM32.75 18.825C32.75 16.6898 32.7503 14.9719 32.6624 13.5646L31.1653 13.6581C31.2497 15.0081 31.25 16.6723 31.25 18.825H32.75ZM32.6624 13.5646C32.5423 11.6413 32.2537 10.1926 31.498 8.95889L30.2189 9.74238C30.7816 10.661 31.0501 11.8135 31.1653 13.6581L32.6624 13.5646ZM31.25 18.825C31.25 20.0447 31.25 21.1096 31.2343 22.0535L32.7341 22.0784C32.75 21.1196 32.75 20.0411 32.75 18.825H31.25ZM31.2343 22.0535C31.1841 25.0808 30.9663 26.6875 30.2189 27.9076L31.498 28.6911C32.4857 27.0786 32.6844 25.075 32.7341 22.0784L31.2343 22.0535ZM31.2253 22.8159H31.9842V21.3159H31.2253V22.8159Z" fill="#143383"/>
</svg>
