<svg width="38" height="38" viewBox="0 0 38 38" fill="none" xmlns="http://www.w3.org/2000/svg">
<path d="M19.254 17.2107C19.0957 17.1948 18.9057 17.1948 18.7315 17.2107C14.9632 17.084 11.9707 13.9965 11.9707 10.1965C11.9707 6.31734 15.1057 3.1665 19.0007 3.1665C22.8799 3.1665 26.0307 6.31734 26.0307 10.1965C26.0149 13.9965 23.0224 17.084 19.254 17.2107Z" stroke="#143383" stroke-width="2" stroke-linecap="round" stroke-linejoin="round"/>
<path d="M11.3366 24.4607C7.50497 27.0257 7.50497 31.2057 11.3366 33.7549C15.6908 36.6682 22.8316 36.6682 27.1858 33.7549C31.0175 31.1899 31.0175 27.0099 27.1858 24.4607C22.8475 21.5632 15.7066 21.5632 11.3366 24.4607Z" stroke="#143383" stroke-width="2" stroke-linecap="round" stroke-linejoin="round"/>
</svg>
