<svg width="44" height="44" viewBox="0 0 44 44" fill="none" xmlns="http://www.w3.org/2000/svg">
<rect width="44" height="44" rx="10" fill="#3066C1"/>
<path d="M16.0866 31.5657L15.788 32.2537L16.0866 31.5657ZM13.3806 28.7309L12.6831 29.0067L13.3806 28.7309ZM30.6194 28.7309L31.3169 29.0067L30.6194 28.7309ZM27.9134 31.5657L28.212 32.2537L27.9134 31.5657ZM13 21.4645L13.7471 21.5309L13.7838 21.1177L13.4534 20.867L13 21.4645ZM29.5 16.9645V16.2145H29.5L29.5 16.9645ZM22.7678 15.8536L23.2981 16.3839L22.7678 15.8536ZM24.8891 13.7322L25.4194 14.2626L24.8891 13.7322ZM28.4246 13.7322L27.8943 14.2626L28.4246 13.7322ZM28.6835 16.9644L28.6835 17.7144L29.0663 17.7144L29.2909 17.4045L28.6835 16.9644ZM21.3891 15.8536L20.8588 16.3839L21.3891 15.8536ZM19.2678 13.7322L18.7375 14.2626L19.2678 13.7322ZM15.7322 13.7322L16.2626 14.2626L15.7322 13.7322ZM22 30.9645H22.75H22ZM12.9675 21.4398L12.5074 22.0321L12.9675 21.4398ZM30.9354 21.5116L30.5043 20.8979L30.9354 21.5116ZM20.5 31.2145C19.3244 31.2145 18.482 31.214 17.8177 31.1665C17.1608 31.1196 16.7346 31.0294 16.3851 30.8777L15.788 32.2537C16.3574 32.5008 16.9731 32.61 17.7107 32.6627C18.441 32.7149 19.3459 32.7145 20.5 32.7145V31.2145ZM12.25 24.1073C12.25 25.3179 12.2497 26.2616 12.2992 27.0221C12.3491 27.7887 12.452 28.4221 12.6831 29.0067L14.0781 28.4551C13.9286 28.0771 13.8412 27.619 13.796 26.9246C13.7504 26.2242 13.75 25.3375 13.75 24.1073H12.25ZM16.3851 30.8777C15.349 30.4281 14.5152 29.5607 14.0781 28.4551L12.6831 29.0067C13.261 30.4681 14.3738 31.6401 15.788 32.2537L16.3851 30.8777ZM30.25 24.1073C30.25 25.3374 30.2496 26.2242 30.204 26.9246C30.1588 27.619 30.0714 28.0771 29.9219 28.4551L31.3169 29.0067C31.548 28.4221 31.6509 27.7887 31.7008 27.0221C31.7504 26.2616 31.75 25.3178 31.75 24.1073H30.25ZM23.5 32.7145C24.6541 32.7145 25.559 32.7149 26.2893 32.6627C27.0269 32.61 27.6426 32.5008 28.212 32.2537L27.6149 30.8777C27.2654 31.0294 26.8392 31.1196 26.1823 31.1665C25.518 31.214 24.6756 31.2145 23.5 31.2145V32.7145ZM29.9219 28.4551C29.4848 29.5607 28.651 30.4281 27.6149 30.8777L28.212 32.2537C29.6262 31.6401 30.739 30.4681 31.3169 29.0067L29.9219 28.4551ZM13.75 24.1073C13.75 22.6341 13.6818 22.2657 13.7471 21.5309L12.2529 21.3981C12.1808 22.2105 12.25 22.8214 12.25 24.1073H13.75ZM29.5 17.7145C30.4665 17.7145 31.25 18.498 31.25 19.4645H32.75C32.75 17.6695 31.2949 16.2145 29.5 16.2145V17.7145ZM14.5 16.2145C12.7051 16.2145 11.25 17.6695 11.25 19.4645H12.75C12.75 18.498 13.5335 17.7145 14.5 17.7145V16.2145ZM23.2981 16.3839L25.4194 14.2626L24.3588 13.2019L22.2374 15.3232L23.2981 16.3839ZM25.4194 14.2626C26.1028 13.5791 27.2109 13.5791 27.8943 14.2626L28.955 13.2019C27.6857 11.9327 25.628 11.9327 24.3588 13.2019L25.4194 14.2626ZM22.2374 15.3232C21.9239 15.6368 21.4446 16.1471 21.2762 16.7681L22.7238 17.1608C22.7761 16.9681 22.9726 16.7093 23.2981 16.3839L22.2374 15.3232ZM27.8943 14.2626C28.5102 14.8785 28.5714 15.8408 28.0761 16.5244L29.2909 17.4045C30.2117 16.1334 30.1003 14.3472 28.955 13.2019L27.8943 14.2626ZM21.9194 15.3232L19.7981 13.2019L18.7375 14.2626L20.8588 16.3839L21.9194 15.3232ZM19.7981 13.2019C18.5289 11.9327 16.4711 11.9327 15.2019 13.2019L16.2626 14.2626C16.946 13.5792 18.054 13.5792 18.7375 14.2626L19.7981 13.2019ZM20.8588 16.3839C21.0598 16.585 21.189 16.8394 21.2762 17.1608L22.7238 16.7681C22.5903 16.2757 22.3574 15.7612 21.9194 15.3232L20.8588 16.3839ZM15.2019 13.2019C14.0566 14.3473 13.9452 16.1334 14.866 17.4045L16.0807 16.5244C15.5855 15.8408 15.6466 14.8785 16.2626 14.2626L15.2019 13.2019ZM21.25 16.9645L21.25 30.9645H22.75L22.75 16.9645H21.25ZM15.4734 17.7145L22 17.7145L22 16.2145L15.4734 16.2145L15.4734 17.7145ZM14.5 21.2145C14.095 21.2145 13.724 21.0778 13.4277 20.8476L12.5074 22.0321C13.0576 22.4595 13.7501 22.7145 14.5 22.7145V21.2145ZM13.4277 20.8476C13.0139 20.5262 12.75 20.0263 12.75 19.4645H11.25C11.25 20.5091 11.7437 21.4388 12.5074 22.0321L13.4277 20.8476ZM13.4534 20.867L13.4209 20.8424L12.5142 22.0373L12.5466 22.0619L13.4534 20.867ZM23.5 31.2145H22V32.7145H23.5V31.2145ZM22 31.2145H20.5V32.7145H22V31.2145ZM21.25 30.9645L21.25 31.9645H22.75L22.75 30.9645H21.25ZM29.5 21.2145H22V22.7145H29.5V21.2145ZM22 21.2145H14.5V22.7145H22V21.2145ZM31.25 19.4645C31.25 20.0564 30.9568 20.58 30.5043 20.8979L31.3665 22.1253C32.2017 21.5386 32.75 20.5656 32.75 19.4645H31.25ZM30.5043 20.8979C30.2202 21.0974 29.8749 21.2145 29.5 21.2145V22.7145C30.1934 22.7145 30.8381 22.4965 31.3665 22.1253L30.5043 20.8979ZM31.75 24.1073C31.75 22.7624 31.7505 22.2318 31.6826 21.4469L30.1882 21.5762C30.2495 22.2851 30.25 22.7495 30.25 24.1073H31.75ZM22 17.7145L28.4246 17.7145L28.4246 16.2145L22 16.2145L22 17.7145ZM28.4247 17.7145L28.6835 17.7144L28.6834 16.2144L28.4246 16.2145L28.4247 17.7145ZM28.4246 17.7145L29.5 17.7145L29.5 16.2145L28.4246 16.2145L28.4246 17.7145ZM15.4734 16.2145H14.5V17.7145H15.4734V16.2145ZM14.5 17.7145L18.25 17.7145L18.25 16.2145L14.5 16.2145L14.5 17.7145ZM18.25 17.7145L22 17.7145L22 16.2145L18.25 16.2145L18.25 17.7145ZM15.4734 17.7145L18.25 17.7145L18.25 16.2145L15.4734 16.2145L15.4734 17.7145ZM22 17.7145L28.6835 17.7144L28.6835 16.2144L22 16.2145L22 17.7145Z" fill="white"/>
</svg>
