<svg fill="none" height="30" viewBox="0 0 200 30" width="200" xmlns="http://www.w3.org/2000/svg">
	<path d="m182.299 15.0451-10.242-14.103694h7.072l6.706 9.266694 6.748-9.266694h7.072l-10.283 14.103694 10.404 14.3067h-7.072l-6.869-9.4296-6.869 9.4296h-7.071z" fill="#00d400" />
	<g fill="#000">
		<path d="m0 .941406h6.58436l7.80374 20.199994 7.8443-20.199994h6.5437l-11.3397 28.410394h-6.056z" />
		<path d="m33.832.941406h19.7125v5.161484h-13.5345v6.58441h9.9577v4.9585h-9.9577v6.5445h13.5345v5.1615h-19.7125z" />
		<path d="m72.1213 29.9617c-3.0347 0-5.7173-.5963-8.0476-1.7882-2.3303-1.2192-4.1321-2.94-5.4057-5.1622-1.2734-2.2215-1.9102-4.8363-1.9102-7.8445 0-3.0074.6368-5.62217 1.9102-7.84366 1.2736-2.24962 3.0754-3.96963 5.4057-5.16222 2.3303-1.219264 5.0129-1.828889 8.0476-1.828889 3.9288 0 7.2073.894079 9.8362 2.682229v5.85332c-1.1926-1.00296-2.5607-1.72073-4.1052-2.15406-1.5177-.46074-3.2518-.69111-5.2026-.69111-2.9535 0-5.2973.82592-7.0314 2.47926-1.7072 1.62593-2.5606 3.84743-2.5606 6.66513 0 2.8452.867 5.0941 2.6012 6.7475 1.7341 1.6259 4.0644 2.4385 6.9908 2.4385 2.0049 0 3.7797-.2304 5.3241-.6911 1.5445-.4875 2.9808-1.26 4.3089-2.3163v5.8526c-2.4933 1.8422-5.88 2.7637-10.1614 2.7637z" />
		<path d="m93.9669 6.10289h-8.2911v-5.161484h22.7612v5.161484h-8.292v23.24891h-6.1781z" />
		<path d="m124.944 29.9617c-2.846 0-5.434-.623-7.764-1.8697-2.303-1.2466-4.119-2.9807-5.446-5.2022-1.328-2.2489-1.992-4.8237-1.992-7.723 0-2.8992.664-5.47328 1.992-7.72217 1.327-2.24889 3.143-3.9963 5.446-5.24297 2.33-1.246664 4.918-1.869629 7.764-1.869629 2.844 0 5.405.622965 7.681 1.869629 2.303 1.24667 4.119 2.99408 5.446 5.24297 1.328 2.24889 1.992 4.82297 1.992 7.72217 0 2.8993-.664 5.4741-1.992 7.723-1.327 2.2215-3.143 3.9556-5.446 5.2022-2.276 1.2467-4.837 1.8697-7.681 1.8697zm0-5.6904c1.625 0 3.102-.3659 4.429-1.097 1.355-.7586 2.425-1.8156 3.211-3.1704.786-1.3822 1.179-2.9941 1.179-4.8371 0-1.8148-.393-3.4-1.179-4.7548-.758-1.38219-1.815-2.43849-3.17-3.17034-1.327-.75852-2.818-1.13852-4.47-1.13852-1.68 0-3.198.38-4.553 1.13852-1.327.73185-2.384 1.78815-3.17 3.17034-.785 1.3548-1.179 2.94-1.179 4.7548 0 1.843.394 3.4549 1.179 4.8371.786 1.3548 1.856 2.4118 3.211 3.1704 1.355.7311 2.858 1.097 4.512 1.097z" />
		<path d="m145.086.941406h12.315c3.225 0 5.731.812594 7.52 2.438524 1.815 1.59852 2.723 3.91555 2.723 6.95037 0 2.1133-.488 3.9156-1.463 5.4059-.976 1.463-2.358 2.5334-4.146 3.2104l5.406 10.4052h-6.341l-4.999-9.6326h-4.837v9.6326h-6.178zm11.218 13.615594c1.572 0 2.804-.3386 3.698-1.0156.922-.6778 1.382-1.7481 1.382-3.2111 0-1.54445-.447-2.62815-1.341-3.25185-.894-.65037-2.14-.97556-3.739-.97556h-5.04v8.45411z" />
	</g>
</svg>
