<svg fill="none" height="80" viewBox="0 0 80 80" width="80" xmlns="http://www.w3.org/2000/svg" xmlns:xlink="http://www.w3.org/1999/xlink">
	<path d="m .423611 3.55113c-1.081926-2.16378 1.794149-4.530613 3.767259-3.130798 9.23333 6.550648 24.12303 15.616668 35.80893 15.616668 11.686 0 26.5756-9.06602 35.8089-15.616668 1.9734-1.399815 4.8496.967018 3.7674 3.130798l-37.5889 75.17697c-.8185 1.6385-3.1563 1.6385-3.9748 0z" fill="url(#a)" />
	<path d="m56.523 11.7617-14.4622 36.1551c-.7444 1.8626-3.3815 1.8626-4.1259 0l-14.4622-36.1551c5.6251 2.5223 11.3851 4.2762 16.5251 4.2762s10.9-1.7539 16.5252-4.2762z" fill="#c3f53c" />
	<linearGradient id="a" gradientUnits="userSpaceOnUse" x1="39.9998" x2="39.9998" y1="-6.18524" y2="82.7037">
		<stop offset="0" stop-color="#c3f53c" />
		<stop offset="1" stop-color="#00d400" />
	</linearGradient>
</svg>
