<svg width="58" height="15" viewBox="0 0 58 15" fill="none" xmlns="http://www.w3.org/2000/svg">
	<mask id="mask0" mask-type="alpha" maskUnits="userSpaceOnUse" x="0" y="0" width="58" height="15">
		<path d="M2.94781 7.38187V7.42187C3.40114 6.80854 3.87448 6.31521 4.36782 5.94187C4.87448 5.55521 5.44781 5.36187 6.08781 5.36187C6.72781 5.36187 7.22781 5.58187 7.58781 6.02187C7.96114 6.44854 8.14782 7.07521 8.14782 7.90187C8.14782 8.04854 8.14115 8.20187 8.12782 8.36187C8.11448 8.50854 8.09448 8.65521 8.06782 8.80187C7.86782 9.93521 7.38114 11.0153 6.60781 12.0419C5.83447 13.0686 4.99447 13.8486 4.08781 14.3819C3.76781 14.5686 3.44781 14.7086 3.12781 14.8019C2.80781 14.9086 2.50114 14.9619 2.20781 14.9619C2.08781 14.9619 1.94114 14.9419 1.76781 14.9019C1.59448 14.8753 1.40781 14.8219 1.20781 14.7419C0.914479 14.6219 0.641146 14.4153 0.387813 14.1219C0.134479 13.8153 0.0078125 13.3819 0.0078125 12.8219C0.0078125 12.4753 0.0211459 12.0953 0.0478126 11.6819C0.0744792 11.2686 0.167813 10.7953 0.327813 10.2619L2.40781 3.12187C2.43447 3.05521 2.44781 2.99521 2.44781 2.94188C2.46114 2.88854 2.46781 2.83521 2.46781 2.78187C2.46781 2.60854 2.42114 2.48854 2.32781 2.42187C2.23447 2.35521 2.13447 2.30854 2.02781 2.28187C1.97447 2.26854 1.91448 2.26187 1.84782 2.26187C1.79448 2.26187 1.74781 2.26187 1.70781 2.26187H0.627813L0.827813 1.52187C1.21447 1.45521 1.55448 1.38854 1.84782 1.32187C2.14115 1.25521 2.40114 1.18187 2.62781 1.10187C3.14781 0.941876 3.52781 0.795209 3.76781 0.661876C4.02114 0.515208 4.24114 0.435208 4.42781 0.421875C4.44114 0.421875 4.44781 0.421875 4.44781 0.421875C4.46114 0.421875 4.46781 0.421875 4.46781 0.421875C4.53447 0.421875 4.58781 0.421875 4.62781 0.421875C4.66781 0.421875 4.70114 0.421875 4.72781 0.421875C4.79447 0.421875 4.84781 0.428542 4.88781 0.441875C4.92781 0.455209 4.95447 0.488542 4.96781 0.541876C4.98114 0.568542 4.98781 0.595209 4.98781 0.621875C4.98781 0.635209 4.98781 0.655209 4.98781 0.681875C4.98781 0.708542 4.98114 0.735208 4.96781 0.761875C4.96781 0.775209 4.96781 0.795209 4.96781 0.821876C4.96781 0.835209 4.96114 0.848542 4.94781 0.861875C4.94781 0.875209 4.94114 0.895209 4.92781 0.921876C4.92781 0.935209 4.92781 0.948542 4.92781 0.961875L2.94781 7.38187ZM2.22781 10.2819C2.09447 10.6153 1.96782 10.9619 1.84782 11.3219C1.74115 11.6819 1.68781 12.0486 1.68781 12.4219C1.68781 12.9019 1.74782 13.2419 1.86782 13.4419C1.98782 13.6419 2.12114 13.7686 2.26781 13.8219C2.33447 13.8486 2.39447 13.8686 2.44781 13.8819C2.50114 13.8819 2.55447 13.8819 2.60781 13.8819C2.62114 13.8819 2.62781 13.8819 2.62781 13.8819C2.64114 13.8819 2.65447 13.8819 2.66781 13.8819C3.17447 13.8553 3.66781 13.5086 4.14781 12.8419C4.62781 12.1619 5.02115 11.4219 5.32782 10.6219C5.52782 10.1153 5.68782 9.62854 5.80782 9.16187C5.92782 8.68187 5.98781 8.28854 5.98781 7.98187C5.98781 7.76854 5.93448 7.60854 5.82782 7.50187C5.73448 7.38187 5.62114 7.29521 5.48781 7.24187C5.40781 7.21521 5.33447 7.19521 5.26781 7.18187C5.20114 7.16854 5.14114 7.16187 5.08781 7.16187C4.87447 7.16187 4.64781 7.22187 4.40781 7.34187C4.18114 7.46187 3.94781 7.64187 3.70781 7.88187C3.44114 8.14854 3.18114 8.48187 2.92781 8.88187C2.67447 9.26854 2.44114 9.73521 2.22781 10.2819ZM12.4796 10.7019H12.5996C13.8262 8.19521 14.7796 6.68187 15.4596 6.16187C16.1396 5.62854 16.5929 5.36187 16.8196 5.36187C16.8729 5.36187 16.9329 5.36854 16.9996 5.38187C17.0662 5.38187 17.1329 5.39521 17.1996 5.42187C17.3862 5.48854 17.5529 5.61521 17.6996 5.80187C17.8596 5.98854 17.9396 6.27521 17.9396 6.66187C17.9396 7.02187 17.8596 7.30187 17.6996 7.50187C17.5529 7.68854 17.3862 7.82187 17.1996 7.90187C17.1329 7.92854 17.0662 7.94854 16.9996 7.96187C16.9329 7.97521 16.8729 7.98187 16.8196 7.98187C16.6862 7.98187 16.5729 7.96187 16.4796 7.92187C16.3996 7.88187 16.3329 7.83521 16.2796 7.78187C16.2662 7.76854 16.2529 7.75521 16.2396 7.74187C16.2262 7.72854 16.2129 7.71521 16.1996 7.70187C16.1862 7.68854 16.1729 7.67521 16.1596 7.66187C16.1462 7.64854 16.1329 7.63521 16.1196 7.62187C16.0796 7.58187 16.0262 7.54854 15.9596 7.52187C15.9062 7.49521 15.8462 7.48187 15.7796 7.48187C15.5396 7.48187 15.2396 7.69521 14.8796 8.12187C14.5329 8.53521 14.1729 9.05521 13.7996 9.68187C13.6396 9.92187 13.4796 10.1753 13.3196 10.4419C13.1729 10.7086 13.0329 10.9819 12.8996 11.2619C12.5262 11.9686 12.1929 12.6419 11.8996 13.2819C11.6196 13.9219 11.4396 14.3953 11.3596 14.7019H9.39954L11.4996 8.02187C11.5529 7.84854 11.5796 7.72854 11.5796 7.66187C11.5929 7.58187 11.5996 7.52854 11.5996 7.50187C11.5996 7.48854 11.5996 7.47521 11.5996 7.46187C11.5996 7.43521 11.5929 7.41521 11.5796 7.40187C11.5796 7.34854 11.5662 7.30854 11.5396 7.28187C11.5262 7.24187 11.4996 7.22187 11.4596 7.22187C11.3396 7.22187 11.1929 7.26187 11.0196 7.34187C10.8596 7.42187 10.6929 7.52187 10.5196 7.64187C10.4396 7.68187 10.3662 7.72854 10.2996 7.78187C10.2329 7.83521 10.1662 7.88187 10.0996 7.92187C9.97954 8.01521 9.8662 8.10187 9.75954 8.18187C9.6662 8.26187 9.5862 8.33521 9.51954 8.40187L9.09953 7.88187C9.21953 7.76187 9.37954 7.59521 9.57954 7.38187C9.79287 7.16854 10.0396 6.94187 10.3196 6.70187C10.5062 6.54187 10.6996 6.38854 10.8996 6.24187C11.1129 6.08187 11.3262 5.93521 11.5396 5.80187C11.7662 5.66854 11.9862 5.56187 12.1996 5.48187C12.4262 5.40187 12.6396 5.36187 12.8396 5.36187C13.2262 5.36187 13.4862 5.45521 13.6196 5.64187C13.7662 5.81521 13.8329 6.01521 13.8196 6.24187C13.8196 6.26854 13.8196 6.29521 13.8196 6.32187C13.8196 6.33521 13.8196 6.35521 13.8196 6.38187C13.8062 6.48854 13.7862 6.60187 13.7596 6.72187C13.7329 6.82854 13.7062 6.92854 13.6796 7.02187C13.6662 7.06187 13.6529 7.10187 13.6396 7.14187C13.6396 7.16854 13.6329 7.19521 13.6196 7.22187L12.4796 10.7019ZM18.4849 11.1419C18.4849 11.1153 18.4849 11.0886 18.4849 11.0619C18.4849 11.0353 18.4849 11.0019 18.4849 10.9619C18.5382 9.56187 19.0782 8.28187 20.1049 7.12187C21.1449 5.94854 22.4315 5.36187 23.9649 5.36187C25.0715 5.36187 25.9515 5.66187 26.6049 6.26187C27.2582 6.86187 27.5849 7.57521 27.5849 8.40187C27.5849 8.58854 27.5782 8.78187 27.5649 8.98187C27.5515 9.16854 27.5249 9.35521 27.4849 9.54187C27.2582 10.9019 26.6649 12.1486 25.7049 13.2819C24.7582 14.4019 23.5582 14.9619 22.1049 14.9619C21.1315 14.9619 20.2849 14.6353 19.5649 13.9819C18.8449 13.3286 18.4849 12.3819 18.4849 11.1419ZM20.9649 10.6819C20.8449 11.1486 20.7782 11.5286 20.7649 11.8219C20.7515 12.1153 20.7449 12.3553 20.7449 12.5419C20.7449 12.5686 20.7449 12.5953 20.7449 12.6219C20.7449 12.6353 20.7449 12.6553 20.7449 12.6819C20.7449 13.0553 20.8315 13.3419 21.0049 13.5419C21.1782 13.7419 21.3649 13.8886 21.5649 13.9819C21.6715 14.0219 21.7715 14.0486 21.8649 14.0619C21.9582 14.0753 22.0449 14.0819 22.1249 14.0819C22.8582 14.0819 23.5382 13.5619 24.1649 12.5219C24.7915 11.4819 25.1915 10.3419 25.3649 9.10187C25.3915 8.91521 25.4115 8.72854 25.4249 8.54187C25.4382 8.35521 25.4449 8.16854 25.4449 7.98187C25.4449 7.50187 25.3515 7.14187 25.1649 6.90187C24.9915 6.64854 24.7982 6.47521 24.5849 6.38187C24.4915 6.34187 24.3982 6.31521 24.3049 6.30187C24.2115 6.27521 24.1249 6.26187 24.0449 6.26187C23.3515 6.26187 22.7849 6.59521 22.3449 7.26187C21.9182 7.91521 21.5715 8.63521 21.3049 9.42188C21.2382 9.63521 21.1782 9.84854 21.1249 10.0619C21.0715 10.2753 21.0182 10.4819 20.9649 10.6819ZM30.5299 2.28187L30.7299 1.56187C31.1299 1.49521 31.4632 1.42854 31.7299 1.36187C31.9965 1.28187 32.2165 1.20854 32.3899 1.14187C32.5765 1.06187 32.7299 0.988542 32.8499 0.921876C32.9699 0.841875 33.0832 0.768542 33.1899 0.701875C33.3365 0.621875 33.4899 0.555209 33.6499 0.501875C33.8232 0.448542 34.0632 0.421875 34.3699 0.421875C34.5432 0.421875 34.6699 0.441875 34.7499 0.481875C34.8432 0.521876 34.8899 0.601876 34.8899 0.721875C34.8899 0.761875 34.8832 0.801875 34.8699 0.841876C34.8699 0.881875 34.8565 0.935208 34.8299 1.00187L32.7699 7.48187C32.7699 7.48187 32.7699 7.48854 32.7699 7.50187C32.7299 7.59521 32.6765 7.72187 32.6099 7.88187C32.5432 8.04187 32.4432 8.36187 32.3099 8.84187H32.4299C33.6565 7.24187 34.6965 6.26187 35.5499 5.90187C36.4032 5.54187 37.0832 5.36187 37.5899 5.36187C37.8965 5.36187 38.1365 5.44854 38.3099 5.62187C38.4832 5.78187 38.6099 5.95521 38.6899 6.14187C38.7299 6.23521 38.7565 6.32187 38.7699 6.40187C38.7832 6.48187 38.7899 6.55521 38.7899 6.62187C38.7899 6.78187 38.7632 6.94854 38.7099 7.12187C38.6565 7.28187 38.5765 7.44187 38.4699 7.60187C38.0965 8.20187 37.4699 8.76187 36.5899 9.28187C35.7232 9.80187 34.7765 10.1219 33.7499 10.2419C33.8432 10.3086 33.9365 10.3753 34.0299 10.4419C34.1232 10.4953 34.2099 10.5553 34.2899 10.6219C34.6499 10.9019 34.9299 11.1953 35.1299 11.5019C35.3432 11.7953 35.5432 12.1219 35.7299 12.4819C35.7699 12.5619 35.8099 12.6419 35.8499 12.7219C35.8899 12.8019 35.9299 12.8886 35.9699 12.9819C36.0632 13.1819 36.1365 13.3419 36.1899 13.4619C36.2565 13.5819 36.3165 13.6819 36.3699 13.7619C36.3965 13.8019 36.4232 13.8419 36.4499 13.8819C36.4899 13.9219 36.5299 13.9619 36.5699 14.0019C36.5699 14.0019 36.5699 14.0086 36.5699 14.0219C36.5832 14.0219 36.5899 14.0219 36.5899 14.0219L36.8499 14.0019C36.7965 13.9219 36.7565 13.8353 36.7299 13.7419C36.7032 13.6353 36.6899 13.5286 36.6899 13.4219C36.6765 13.3686 36.6699 13.3153 36.6699 13.2619C36.6699 13.2086 36.6699 13.1553 36.6699 13.1019C36.6699 13.0086 36.7099 12.9353 36.7899 12.8819C36.8832 12.8153 36.9765 12.7619 37.0699 12.7219C37.1099 12.7219 37.1432 12.7219 37.1699 12.7219C37.2099 12.7086 37.2432 12.7019 37.2699 12.7019C37.2832 12.7019 37.2899 12.7019 37.2899 12.7019C37.3032 12.7019 37.3165 12.7019 37.3299 12.7019C37.4632 12.7286 37.5899 12.8153 37.7099 12.9619C37.8299 13.1086 37.8899 13.3019 37.8899 13.5419C37.8899 13.6219 37.8765 13.7153 37.8499 13.8219C37.8365 13.9153 37.8032 14.0086 37.7499 14.1019C37.6565 14.3286 37.4965 14.5286 37.2699 14.7019C37.0432 14.8753 36.7299 14.9619 36.3299 14.9619C35.7032 14.9619 35.2099 14.7819 34.8499 14.4219C34.4899 14.0619 34.1565 13.5686 33.8499 12.9419C33.7965 12.8086 33.7365 12.6819 33.6699 12.5619C33.6165 12.4286 33.5565 12.2886 33.4899 12.1419C33.4365 12.0086 33.3832 11.8886 33.3299 11.7819C33.2765 11.6753 33.2299 11.5686 33.1899 11.4619C33.0832 11.2486 32.9699 11.0553 32.8499 10.8819C32.7299 10.7086 32.5632 10.5419 32.3499 10.3819C32.3232 10.3553 32.2899 10.3353 32.2499 10.3219C32.2232 10.2953 32.1965 10.2686 32.1699 10.2419L30.9099 14.7019H29.0099L32.3099 3.12187C32.3099 3.10854 32.3099 3.09521 32.3099 3.08187C32.3232 3.05521 32.3299 3.02854 32.3299 3.00187C32.3432 2.96187 32.3499 2.92187 32.3499 2.88187C32.3632 2.82854 32.3699 2.78187 32.3699 2.74187C32.3699 2.62187 32.3365 2.51521 32.2699 2.42187C32.2032 2.32854 32.0765 2.28187 31.8899 2.28187H30.5299ZM32.6899 9.88187C33.7165 9.81521 34.6365 9.56187 35.4499 9.12187C36.2632 8.66854 36.6699 8.15521 36.6699 7.58187C36.6699 7.55521 36.6632 7.52187 36.6499 7.48187C36.6365 7.44187 36.6232 7.40187 36.6099 7.36187C36.5565 7.28187 36.4765 7.20854 36.3699 7.14187C36.2765 7.07521 36.1432 7.04187 35.9699 7.04187C35.7432 7.04187 35.4965 7.11521 35.2299 7.26187C34.9765 7.39521 34.7165 7.57521 34.4499 7.80187C34.1299 8.06854 33.8165 8.38854 33.5099 8.76187C33.2032 9.12187 32.9299 9.49521 32.6899 9.88187ZM46.7344 11.3619L47.1744 11.9219C47.0544 12.0553 46.8544 12.2619 46.5744 12.5419C46.2944 12.8086 45.9677 13.0886 45.5944 13.3819C45.1277 13.7419 44.6077 14.0753 44.0344 14.3819C43.4744 14.6886 42.8944 14.8753 42.2944 14.9419C42.2411 14.9553 42.1811 14.9619 42.1144 14.9619C42.0611 14.9619 42.0011 14.9619 41.9344 14.9619C41.3077 14.9619 40.8411 14.8286 40.5344 14.5619C40.2277 14.2953 40.0211 13.9953 39.9144 13.6619C39.8211 13.4086 39.7677 13.1686 39.7544 12.9419C39.7411 12.7153 39.7344 12.5553 39.7344 12.4619C39.7344 12.4486 39.7344 12.4419 39.7344 12.4419C39.7344 12.4286 39.7344 12.4153 39.7344 12.4019C39.7344 12.0153 39.8011 11.5819 39.9344 11.1019C40.0811 10.6219 40.2811 10.1353 40.5344 9.64187C41.0944 8.57521 41.8677 7.59521 42.8544 6.70187C43.8544 5.80854 44.9344 5.36187 46.0944 5.36187C46.5477 5.36187 46.8944 5.46187 47.1344 5.66187C47.3744 5.84854 47.5411 6.05521 47.6344 6.28187C47.6744 6.36187 47.7011 6.44187 47.7144 6.52187C47.7277 6.60187 47.7344 6.67521 47.7344 6.74187C47.7344 7.60854 47.2877 8.36854 46.3944 9.02187C45.5011 9.66187 44.5144 10.2353 43.4344 10.7419C43.2211 10.8353 43.0011 10.9353 42.7744 11.0419C42.5611 11.1353 42.3477 11.2286 42.1344 11.3219C42.1211 11.4019 42.1077 11.4953 42.0944 11.6019C42.0944 11.6953 42.0944 11.7953 42.0944 11.9019C42.0944 11.9419 42.0944 11.9819 42.0944 12.0219C42.0944 12.0619 42.0944 12.1019 42.0944 12.1419C42.1211 12.4353 42.2144 12.7086 42.3744 12.9619C42.5477 13.2019 42.8477 13.3219 43.2744 13.3219C43.6211 13.3219 44.0544 13.1886 44.5744 12.9219C45.1077 12.6553 45.8277 12.1353 46.7344 11.3619ZM42.2744 10.4419C42.4211 10.3619 42.6477 10.2219 42.9544 10.0219C43.2611 9.82187 43.5877 9.58854 43.9344 9.32187C44.0677 9.21521 44.2077 9.10187 44.3544 8.98187C44.5011 8.86187 44.6344 8.74187 44.7544 8.62187C45.0344 8.38187 45.2677 8.14187 45.4544 7.90187C45.6411 7.64854 45.7344 7.43521 45.7344 7.26187C45.7344 7.03521 45.6677 6.84854 45.5344 6.70187C45.4144 6.55521 45.2677 6.48187 45.0944 6.48187C44.9344 6.48187 44.7677 6.54187 44.5944 6.66187C44.4211 6.76854 44.2477 6.91521 44.0744 7.10187C43.8211 7.36854 43.5677 7.69521 43.3144 8.08187C43.0744 8.45521 42.8677 8.84854 42.6944 9.26187C42.6011 9.46187 42.5144 9.66187 42.4344 9.86187C42.3677 10.0619 42.3144 10.2553 42.2744 10.4419ZM52.2061 10.7019H52.3261C53.5528 8.19521 54.5061 6.68187 55.1861 6.16187C55.8661 5.62854 56.3195 5.36187 56.5461 5.36187C56.5995 5.36187 56.6595 5.36854 56.7261 5.38187C56.7928 5.38187 56.8595 5.39521 56.9261 5.42187C57.1128 5.48854 57.2795 5.61521 57.4261 5.80187C57.5861 5.98854 57.6661 6.27521 57.6661 6.66187C57.6661 7.02187 57.5861 7.30187 57.4261 7.50187C57.2795 7.68854 57.1128 7.82187 56.9261 7.90187C56.8595 7.92854 56.7928 7.94854 56.7261 7.96187C56.6595 7.97521 56.5995 7.98187 56.5461 7.98187C56.4128 7.98187 56.2995 7.96187 56.2061 7.92187C56.1261 7.88187 56.0595 7.83521 56.0061 7.78187C55.9928 7.76854 55.9795 7.75521 55.9661 7.74187C55.9528 7.72854 55.9395 7.71521 55.9261 7.70187C55.9128 7.68854 55.8995 7.67521 55.8861 7.66187C55.8728 7.64854 55.8595 7.63521 55.8461 7.62187C55.8061 7.58187 55.7528 7.54854 55.6861 7.52187C55.6328 7.49521 55.5728 7.48187 55.5061 7.48187C55.2661 7.48187 54.9661 7.69521 54.6061 8.12187C54.2595 8.53521 53.8995 9.05521 53.5261 9.68187C53.3661 9.92187 53.2061 10.1753 53.0461 10.4419C52.8995 10.7086 52.7595 10.9819 52.6261 11.2619C52.2528 11.9686 51.9195 12.6419 51.6261 13.2819C51.3461 13.9219 51.1661 14.3953 51.0861 14.7019H49.1261L51.2261 8.02187C51.2795 7.84854 51.3061 7.72854 51.3061 7.66187C51.3195 7.58187 51.3261 7.52854 51.3261 7.50187C51.3261 7.48854 51.3261 7.47521 51.3261 7.46187C51.3261 7.43521 51.3195 7.41521 51.3061 7.40187C51.3061 7.34854 51.2928 7.30854 51.2661 7.28187C51.2528 7.24187 51.2261 7.22187 51.1861 7.22187C51.0661 7.22187 50.9195 7.26187 50.7461 7.34187C50.5861 7.42187 50.4195 7.52187 50.2461 7.64187C50.1661 7.68187 50.0928 7.72854 50.0261 7.78187C49.9595 7.83521 49.8928 7.88187 49.8261 7.92187C49.7061 8.01521 49.5928 8.10187 49.4861 8.18187C49.3928 8.26187 49.3128 8.33521 49.2461 8.40187L48.8261 7.88187C48.9461 7.76187 49.1061 7.59521 49.3061 7.38187C49.5195 7.16854 49.7661 6.94187 50.0461 6.70187C50.2328 6.54187 50.4261 6.38854 50.6261 6.24187C50.8395 6.08187 51.0528 5.93521 51.2661 5.80187C51.4928 5.66854 51.7128 5.56187 51.9261 5.48187C52.1528 5.40187 52.3661 5.36187 52.5661 5.36187C52.9528 5.36187 53.2128 5.45521 53.3461 5.64187C53.4928 5.81521 53.5595 6.01521 53.5461 6.24187C53.5461 6.26854 53.5461 6.29521 53.5461 6.32187C53.5461 6.33521 53.5461 6.35521 53.5461 6.38187C53.5328 6.48854 53.5128 6.60187 53.4861 6.72187C53.4595 6.82854 53.4328 6.92854 53.4061 7.02187C53.3928 7.06187 53.3795 7.10187 53.3661 7.14187C53.3661 7.16854 53.3595 7.19521 53.3461 7.22187L52.2061 10.7019Z" fill="white" />
	</mask>
	<g mask="url(#mask0)">
		<path d="M-0.5 2L5 0.5C2.66667 5.66667 -1.3 15.8 1.5 15C5 14 9.5 7 6.5 6.5C4.1 6.1 2.16667 7.33333 1.5 8L13 6L10 14.5C12 11 16.2 4.5 17 6.5C17.8 8.5 19.3333 9.33333 20 9.5C20 10.9684 19.3329 11.644 20 13C20.7715 14.5684 21.5 18 25.5 12C27.9807 8.27896 25 3 20 8C21.6667 6.66667 25.7 4.3 26.5 7.5C27.3 10.7 30 5.33333 31.5 2L34.5 1L29.5 14C31.6667 10.5 36.3 4.1 37.5 6.5C38.7 8.9 35 10.1667 33 10.5C33.8333 12.3333 35.9 15.6 37.5 14C39.1 12.4 44.5 9.33333 47 8C46.7631 6.33333 45.5314 4 42.5 8C39.4686 12 40.9036 14 42 14.5C44.5 13 49.8 9.3 51 6.5C52.2 3.7 52.8333 5.33333 53 6.5L50 14C52 10.8333 56.1 4.9 56.5 6.5C56.9 8.1 57.3333 9.83333 57.5 10.5" stroke="white" stroke-width="3" />
	</g>
</svg>
