<svg width="31" height="12" viewBox="0 0 31 12" fill="none" xmlns="http://www.w3.org/2000/svg">
<path d="M1 5.20635C0.561679 5.20635 0.206349 5.56168 0.206349 6C0.206349 6.43832 0.561679 6.79365 1 6.79365L1 5.20635ZM30.1326 6.5612C30.4426 6.25126 30.4426 5.74875 30.1326 5.43881L25.0819 0.388044C24.7719 0.0781037 24.2694 0.0781037 23.9595 0.388044C23.6495 0.697983 23.6495 1.2005 23.9595 1.51044L28.449 6L23.9595 10.4896C23.6495 10.7995 23.6495 11.302 23.9595 11.612C24.2694 11.9219 24.7719 11.9219 25.0819 11.612L30.1326 6.5612ZM1 6.79365L29.5714 6.79365L29.5714 5.20635L1 5.20635L1 6.79365Z" fill="#292D32"/>
</svg>
