<svg width="28" height="28" viewBox="0 0 28 28" fill="none" xmlns="http://www.w3.org/2000/svg">
<path d="M14.0003 9.51399C11.5302 9.51399 9.51429 11.5299 9.51429 14.0001C9.51429 16.4702 11.5302 18.4861 14.0003 18.4861C16.4705 18.4861 18.4864 16.4702 18.4864 14.0001C18.4864 11.5299 16.4705 9.51399 14.0003 9.51399ZM27.4552 14.0001C27.4552 12.1424 27.472 10.3015 27.3677 8.44717C27.2633 6.29332 26.772 4.38178 25.197 2.80678C23.6186 1.22842 21.7104 0.740435 19.5566 0.636108C17.6989 0.531781 15.858 0.548608 14.0037 0.548608C12.146 0.548608 10.3052 0.531781 8.45083 0.636108C6.29698 0.740435 4.38544 1.23178 2.81044 2.80678C1.23208 4.38515 0.744097 6.29332 0.639771 8.44717C0.535444 10.3049 0.552271 12.1457 0.552271 14.0001C0.552271 15.8544 0.535444 17.6986 0.639771 19.5529C0.744097 21.7068 1.23544 23.6183 2.81044 25.1933C4.38881 26.7717 6.29698 27.2597 8.45083 27.364C10.3085 27.4683 12.1494 27.4515 14.0037 27.4515C15.8614 27.4515 17.7023 27.4683 19.5566 27.364C21.7104 27.2597 23.622 26.7683 25.197 25.1933C26.7754 23.615 27.2633 21.7068 27.3677 19.5529C27.4753 17.6986 27.4552 15.8577 27.4552 14.0001ZM14.0003 20.9025C10.1806 20.9025 7.09794 17.8198 7.09794 14.0001C7.09794 10.1803 10.1806 7.09765 14.0003 7.09765C17.8201 7.09765 20.9028 10.1803 20.9028 14.0001C20.9028 17.8198 17.8201 20.9025 14.0003 20.9025ZM21.1854 8.42697C20.2936 8.42697 19.5734 7.70678 19.5734 6.81495C19.5734 5.92313 20.2936 5.20294 21.1854 5.20294C22.0773 5.20294 22.7975 5.92313 22.7975 6.81495C22.7977 7.02672 22.7562 7.23646 22.6753 7.43216C22.5944 7.62786 22.4756 7.80567 22.3259 7.95542C22.1762 8.10516 21.9984 8.22389 21.8027 8.30481C21.607 8.38573 21.3972 8.42724 21.1854 8.42697Z" fill="#262626"/>
</svg>
