<svg width="16" height="19" viewBox="0 0 16 19" fill="none" xmlns="http://www.w3.org/2000/svg">
<path d="M14.3977 7.69886C14.3977 12.9091 7.69886 17.375 7.69886 17.375C7.69886 17.375 1 12.9091 1 7.69886C1 5.92221 1.70577 4.21833 2.96205 2.96205C4.21833 1.70577 5.92221 1 7.69886 1C9.47551 1 11.1794 1.70577 12.4357 2.96205C13.692 4.21833 14.3977 5.92221 14.3977 7.69886Z" stroke="#35353E" stroke-width="1.5" stroke-linecap="round" stroke-linejoin="round"/>
<path d="M7.69877 9.93185C8.932 9.93185 9.93173 8.93212 9.93173 7.6989C9.93173 6.46567 8.932 5.46594 7.69877 5.46594C6.46555 5.46594 5.46582 6.46567 5.46582 7.6989C5.46582 8.93212 6.46555 9.93185 7.69877 9.93185Z" stroke="#35353E" stroke-width="1.5" stroke-linecap="round" stroke-linejoin="round"/>
</svg>
