<svg width="31" height="12" viewBox="0 0 31 12" fill="none" xmlns="http://www.w3.org/2000/svg">
<path d="M29.5713 5.20635C30.0096 5.20635 30.3649 5.56168 30.3649 6C30.3649 6.43832 30.0096 6.79365 29.5713 6.79365L29.5713 5.20635ZM0.438667 6.5612C0.128727 6.25126 0.128727 5.74875 0.438667 5.43881L5.48943 0.388044C5.79937 0.0781037 6.30188 0.0781037 6.61182 0.388044C6.92176 0.697983 6.92176 1.2005 6.61182 1.51044L2.12226 6L6.61182 10.4896C6.92176 10.7995 6.92176 11.302 6.61182 11.612C6.30188 11.9219 5.79937 11.9219 5.48943 11.612L0.438667 6.5612ZM29.5713 6.79365L0.999863 6.79365L0.999863 5.20635L29.5713 5.20635L29.5713 6.79365Z" fill="#292D32"/>
</svg>
