<svg width="427" height="394" viewBox="0 0 427 394" fill="none" xmlns="http://www.w3.org/2000/svg">
<path d="M425.5 197C425.5 304.86 330.7 392.5 213.5 392.5C96.2998 392.5 1.5 304.86 1.5 197C1.5 89.1396 96.2998 1.5 213.5 1.5C330.7 1.5 425.5 89.1396 425.5 197Z" stroke="#86CBA6" stroke-width="3"/>
<path d="M212.865 394C240.818 394 268.498 388.904 294.324 379.004C320.15 369.104 343.616 354.593 363.383 336.3C383.149 318.007 398.828 296.29 409.526 272.389C420.223 248.487 425.729 222.87 425.729 197C425.729 171.13 420.223 145.513 409.526 121.611C398.828 97.7102 383.149 75.9931 363.383 57.7C343.616 39.4068 320.15 24.8959 294.324 14.9957C268.498 5.09555 240.818 -1.13083e-06 212.865 0L212.865 38.2223C235.395 38.2223 257.704 42.3292 278.519 50.3085C299.334 58.2878 318.248 69.9833 334.179 84.7272C350.11 99.4711 362.747 116.975 371.369 136.238C379.991 155.502 384.429 176.149 384.429 197C384.429 217.851 379.991 238.498 371.369 257.762C362.747 277.025 350.11 294.529 334.179 309.273C318.248 324.017 299.334 335.712 278.519 343.691C257.704 351.671 235.395 355.778 212.865 355.778L212.865 394Z" fill="#86CBA6"/>
<path d="M65.277 211.913C65.957 212.206 66.497 212.653 66.897 213.253C67.3103 213.839 67.517 214.513 67.517 215.273C67.517 216.353 67.137 217.273 66.377 218.033C65.617 218.793 64.697 219.173 63.617 219.173H57.517V205.173H63.157C64.197 205.173 65.0837 205.546 65.817 206.293C66.5503 207.026 66.917 207.906 66.917 208.933C66.917 210.239 66.3703 211.233 65.277 211.913ZM63.157 206.493H58.917V211.373H63.157C63.8103 211.373 64.3637 211.139 64.817 210.673C65.2837 210.193 65.517 209.613 65.517 208.933C65.517 208.266 65.2837 207.693 64.817 207.213C64.3637 206.733 63.8103 206.493 63.157 206.493ZM63.617 217.853C64.3103 217.853 64.897 217.606 65.377 217.113C65.8703 216.606 66.117 215.993 66.117 215.273C66.117 214.566 65.8703 213.959 65.377 213.453C64.897 212.946 64.3103 212.693 63.617 212.693H58.917V217.853H63.617ZM74.3393 208.933C75.8193 208.933 77.0127 209.459 77.9193 210.513C78.8393 211.553 79.2993 212.786 79.2993 214.213C79.2993 214.359 79.286 214.566 79.2593 214.833H70.4793C70.6127 215.846 71.0393 216.653 71.7593 217.253C72.4927 217.839 73.3927 218.133 74.4593 218.133C75.2193 218.133 75.8727 217.979 76.4193 217.673C76.9793 217.353 77.3993 216.939 77.6793 216.433L78.8393 217.113C78.3993 217.819 77.7993 218.379 77.0393 218.793C76.2793 219.206 75.4127 219.413 74.4393 219.413C72.866 219.413 71.586 218.919 70.5993 217.933C69.6127 216.946 69.1193 215.693 69.1193 214.173C69.1193 212.679 69.606 211.433 70.5793 210.433C71.5527 209.433 72.806 208.933 74.3393 208.933ZM74.3393 210.213C73.2993 210.213 72.426 210.526 71.7193 211.153C71.026 211.766 70.6127 212.566 70.4793 213.553H77.9393C77.806 212.499 77.3993 211.679 76.7193 211.093C76.0393 210.506 75.246 210.213 74.3393 210.213ZM89.4084 217.893H90.8084V221.853H89.4884V219.173H81.3284V221.853H80.0084V217.893H81.2284C81.9084 216.999 82.2484 215.739 82.2484 214.113V209.173H89.4084V217.893ZM82.8284 217.893H88.0884V210.453H83.5684V214.113C83.5684 215.646 83.3217 216.906 82.8284 217.893ZM99.6146 209.173H101.015L96.7346 220.093C96.348 221.079 95.7946 221.853 95.0746 222.413C94.368 222.986 93.5746 223.239 92.6946 223.173V221.933C93.8946 222.066 94.808 221.373 95.4346 219.853L95.6946 219.233L91.2146 209.173H92.6146L96.3746 217.553L99.6146 209.173ZM116.01 217.893H117.41V221.853H116.09V219.173H102.61V209.173H103.93V217.893H108.65V209.173H109.97V217.893H114.69V209.173H116.01V217.893ZM126.687 209.173H127.807V219.173H126.487V211.473L120.527 219.173H119.407V209.173H120.727V216.873L126.687 209.173ZM132.198 207.573V206.413H137.398V207.573H132.198ZM137.878 209.173H138.998V219.173H137.678V211.473L131.718 219.173H130.598V209.173H131.918V216.873L137.878 209.173ZM151.45 219.413C149.943 219.413 148.69 218.913 147.69 217.913C146.69 216.899 146.19 215.653 146.19 214.173C146.19 212.693 146.69 211.453 147.69 210.453C148.69 209.439 149.943 208.933 151.45 208.933C152.436 208.933 153.323 209.173 154.11 209.653C154.896 210.119 155.47 210.753 155.83 211.553L154.75 212.173C154.483 211.573 154.05 211.099 153.45 210.753C152.863 210.393 152.196 210.213 151.45 210.213C150.343 210.213 149.41 210.599 148.65 211.373C147.89 212.133 147.51 213.066 147.51 214.173C147.51 215.279 147.89 216.219 148.65 216.993C149.41 217.753 150.343 218.133 151.45 218.133C152.196 218.133 152.863 217.959 153.45 217.613C154.036 217.253 154.496 216.773 154.83 216.173L155.93 216.813C155.516 217.613 154.91 218.246 154.11 218.713C153.31 219.179 152.423 219.413 151.45 219.413ZM166.225 209.173V219.173H164.905V210.453H159.145V219.173H157.825V209.173H166.225ZM173.636 208.933C175.116 208.933 176.31 209.459 177.216 210.513C178.136 211.553 178.596 212.786 178.596 214.213C178.596 214.359 178.583 214.566 178.556 214.833H169.776C169.91 215.846 170.336 216.653 171.056 217.253C171.79 217.839 172.69 218.133 173.756 218.133C174.516 218.133 175.17 217.979 175.716 217.673C176.276 217.353 176.696 216.939 176.976 216.433L178.136 217.113C177.696 217.819 177.096 218.379 176.336 218.793C175.576 219.206 174.71 219.413 173.736 219.413C172.163 219.413 170.883 218.919 169.896 217.933C168.91 216.946 168.416 215.693 168.416 214.173C168.416 212.679 168.903 211.433 169.876 210.433C170.85 209.433 172.103 208.933 173.636 208.933ZM173.636 210.213C172.596 210.213 171.723 210.526 171.016 211.153C170.323 211.766 169.91 212.566 169.776 213.553H177.236C177.103 212.499 176.696 211.679 176.016 211.093C175.336 210.506 174.543 210.213 173.636 210.213ZM188.896 217.893H190.496V221.853H189.176V219.173H180.696V209.173H182.016V217.893H187.576V209.173H188.896V217.893ZM199.773 209.173H200.893V219.173H199.573V211.473L193.613 219.173H192.493V209.173H193.813V216.873L199.773 209.173ZM212.284 209.173H213.604V219.173H212.284V217.213C211.364 218.679 210.018 219.413 208.244 219.413C206.818 219.413 205.598 218.906 204.584 217.893C203.584 216.879 203.084 215.639 203.084 214.173C203.084 212.706 203.584 211.466 204.584 210.453C205.598 209.439 206.818 208.933 208.244 208.933C210.018 208.933 211.364 209.666 212.284 211.133V209.173ZM205.544 216.993C206.304 217.753 207.238 218.133 208.344 218.133C209.451 218.133 210.384 217.753 211.144 216.993C211.904 216.219 212.284 215.279 212.284 214.173C212.284 213.066 211.904 212.133 211.144 211.373C210.384 210.599 209.451 210.213 208.344 210.213C207.238 210.213 206.304 210.599 205.544 211.373C204.784 212.133 204.404 213.066 204.404 214.173C204.404 215.279 204.784 216.219 205.544 216.993ZM224.599 209.173V219.173H223.279V210.453H218.759V214.913C218.759 216.579 218.439 217.726 217.799 218.353C217.172 218.979 216.306 219.253 215.199 219.173V217.933C215.959 218.013 216.519 217.833 216.879 217.393C217.252 216.953 217.439 216.126 217.439 214.913V209.173H224.599ZM234.675 209.173H235.795V219.173H234.475V211.473L228.515 219.173H227.395V209.173H228.715V216.873L234.675 209.173ZM243.247 219.413C241.74 219.413 240.487 218.913 239.487 217.913C238.487 216.899 237.987 215.653 237.987 214.173C237.987 212.693 238.487 211.453 239.487 210.453C240.487 209.439 241.74 208.933 243.247 208.933C244.233 208.933 245.12 209.173 245.907 209.653C246.693 210.119 247.267 210.753 247.627 211.553L246.547 212.173C246.28 211.573 245.847 211.099 245.247 210.753C244.66 210.393 243.993 210.213 243.247 210.213C242.14 210.213 241.207 210.599 240.447 211.373C239.687 212.133 239.307 213.066 239.307 214.173C239.307 215.279 239.687 216.219 240.447 216.993C241.207 217.753 242.14 218.133 243.247 218.133C243.993 218.133 244.66 217.959 245.247 217.613C245.833 217.253 246.293 216.773 246.627 216.173L247.727 216.813C247.313 217.613 246.707 218.246 245.907 218.713C245.107 219.179 244.22 219.413 243.247 219.413ZM256.626 209.173V210.453H253.086V219.173H251.766V210.453H248.226V209.173H256.626ZM271.635 209.173V219.173H270.315V210.453H264.555V219.173H263.235V209.173H271.635ZM282.806 217.913C281.793 218.913 280.553 219.413 279.086 219.413C277.62 219.413 276.373 218.913 275.346 217.913C274.333 216.899 273.826 215.653 273.826 214.173C273.826 212.693 274.333 211.453 275.346 210.453C276.373 209.439 277.62 208.933 279.086 208.933C280.553 208.933 281.793 209.439 282.806 210.453C283.833 211.453 284.346 212.693 284.346 214.173C284.346 215.653 283.833 216.899 282.806 217.913ZM276.286 216.993C277.046 217.753 277.98 218.133 279.086 218.133C280.193 218.133 281.126 217.753 281.886 216.993C282.646 216.219 283.026 215.279 283.026 214.173C283.026 213.066 282.646 212.133 281.886 211.373C281.126 210.599 280.193 210.213 279.086 210.213C277.98 210.213 277.046 210.599 276.286 211.373C275.526 212.133 275.146 213.066 275.146 214.173C275.146 215.279 275.526 216.219 276.286 216.993ZM67.117 237.173V247.173H65.797V239.193L62.297 244.873H62.137L58.637 239.193V247.173H57.317V237.173H58.837L62.217 242.653L65.597 237.173H67.117ZM78.2946 245.913C77.2813 246.913 76.0413 247.413 74.5746 247.413C73.108 247.413 71.8613 246.913 70.8346 245.913C69.8213 244.899 69.3146 243.653 69.3146 242.173C69.3146 240.693 69.8213 239.453 70.8346 238.453C71.8613 237.439 73.108 236.933 74.5746 236.933C76.0413 236.933 77.2813 237.439 78.2946 238.453C79.3213 239.453 79.8346 240.693 79.8346 242.173C79.8346 243.653 79.3213 244.899 78.2946 245.913ZM71.7746 244.993C72.5346 245.753 73.468 246.133 74.5746 246.133C75.6813 246.133 76.6146 245.753 77.3746 244.993C78.1346 244.219 78.5146 243.279 78.5146 242.173C78.5146 241.066 78.1346 240.133 77.3746 239.373C76.6146 238.599 75.6813 238.213 74.5746 238.213C73.468 238.213 72.5346 238.599 71.7746 239.373C71.0146 240.133 70.6346 241.066 70.6346 242.173C70.6346 243.279 71.0146 244.219 71.7746 244.993ZM90.0529 245.893H91.4529V249.853H90.1329V247.173H81.9729V249.853H80.6529V245.893H81.8729C82.5529 244.999 82.8929 243.739 82.8929 242.113V237.173H90.0529V245.893ZM83.4729 245.893H88.7329V238.453H84.2129V242.113C84.2129 243.646 83.9663 244.906 83.4729 245.893ZM97.6792 236.933C99.1592 236.933 100.353 237.459 101.259 238.513C102.179 239.553 102.639 240.786 102.639 242.213C102.639 242.359 102.626 242.566 102.599 242.833H93.8192C93.9525 243.846 94.3792 244.653 95.0992 245.253C95.8325 245.839 96.7325 246.133 97.7992 246.133C98.5592 246.133 99.2125 245.979 99.7592 245.673C100.319 245.353 100.739 244.939 101.019 244.433L102.179 245.113C101.739 245.819 101.139 246.379 100.379 246.793C99.6192 247.206 98.7525 247.413 97.7792 247.413C96.2058 247.413 94.9258 246.919 93.9392 245.933C92.9525 244.946 92.4592 243.693 92.4592 242.173C92.4592 240.679 92.9458 239.433 93.9192 238.433C94.8925 237.433 96.1458 236.933 97.6792 236.933ZM97.6792 238.213C96.6392 238.213 95.7658 238.526 95.0592 239.153C94.3658 239.766 93.9525 240.566 93.8192 241.553H101.279C101.146 240.499 100.739 239.679 100.059 239.093C99.3792 238.506 98.5858 238.213 97.6792 238.213ZM117.019 237.173H118.139V247.173H116.819V239.473L110.859 247.173H109.739V237.173H111.059V244.873L117.019 237.173ZM134.31 245.913C133.297 246.913 132.057 247.413 130.59 247.413C129.124 247.413 127.877 246.913 126.85 245.913C125.837 244.899 125.33 243.653 125.33 242.173C125.33 240.693 125.837 239.453 126.85 238.453C127.877 237.439 129.124 236.933 130.59 236.933C132.057 236.933 133.297 237.439 134.31 238.453C135.337 239.453 135.85 240.693 135.85 242.173C135.85 243.653 135.337 244.899 134.31 245.913ZM127.79 244.993C128.55 245.753 129.484 246.133 130.59 246.133C131.697 246.133 132.63 245.753 133.39 244.993C134.15 244.219 134.53 243.279 134.53 242.173C134.53 241.066 134.15 240.133 133.39 239.373C132.63 238.599 131.697 238.213 130.59 238.213C129.484 238.213 128.55 238.599 127.79 239.373C127.03 240.133 126.65 241.066 126.65 242.173C126.65 243.279 127.03 244.219 127.79 244.993ZM144.869 237.173V238.453H141.329V247.173H140.009V238.453H136.469V237.173H144.869ZM152.837 242.033C153.93 242.433 154.477 243.213 154.477 244.373C154.477 245.186 154.204 245.859 153.657 246.393C153.124 246.913 152.35 247.173 151.337 247.173H146.477V237.173H150.937C151.91 237.173 152.664 237.426 153.197 237.933C153.73 238.426 153.997 239.066 153.997 239.853C153.997 240.853 153.61 241.579 152.837 242.033ZM150.937 238.453H147.797V241.493H150.937C152.097 241.493 152.677 240.973 152.677 239.933C152.677 239.466 152.524 239.106 152.217 238.853C151.924 238.586 151.497 238.453 150.937 238.453ZM151.337 245.893C151.924 245.893 152.37 245.753 152.677 245.473C152.997 245.193 153.157 244.799 153.157 244.293C153.157 243.826 152.997 243.459 152.677 243.193C152.37 242.913 151.924 242.773 151.337 242.773H147.797V245.893H151.337ZM161.097 236.933C162.577 236.933 163.77 237.459 164.677 238.513C165.597 239.553 166.057 240.786 166.057 242.213C166.057 242.359 166.044 242.566 166.017 242.833H157.237C157.37 243.846 157.797 244.653 158.517 245.253C159.25 245.839 160.15 246.133 161.217 246.133C161.977 246.133 162.63 245.979 163.177 245.673C163.737 245.353 164.157 244.939 164.437 244.433L165.597 245.113C165.157 245.819 164.557 246.379 163.797 246.793C163.037 247.206 162.17 247.413 161.197 247.413C159.624 247.413 158.344 246.919 157.357 245.933C156.37 244.946 155.877 243.693 155.877 242.173C155.877 240.679 156.364 239.433 157.337 238.433C158.31 237.433 159.564 236.933 161.097 236.933ZM161.097 238.213C160.057 238.213 159.184 238.526 158.477 239.153C157.784 239.766 157.37 240.566 157.237 241.553H164.697C164.564 240.499 164.157 239.679 163.477 239.093C162.797 238.506 162.004 238.213 161.097 238.213ZM174.637 237.173H175.957V247.173H174.637V243.373C173.864 243.773 172.91 243.973 171.777 243.973C170.47 243.973 169.47 243.673 168.777 243.073C168.097 242.459 167.757 241.559 167.757 240.373V237.173H169.077V240.373C169.077 241.213 169.297 241.819 169.737 242.193C170.177 242.553 170.844 242.733 171.737 242.733C172.777 242.733 173.744 242.539 174.637 242.153V237.173ZM187.362 237.173H188.682V247.173H187.362V245.213C186.442 246.679 185.096 247.413 183.322 247.413C181.896 247.413 180.676 246.906 179.662 245.893C178.662 244.879 178.162 243.639 178.162 242.173C178.162 240.706 178.662 239.466 179.662 238.453C180.676 237.439 181.896 236.933 183.322 236.933C185.096 236.933 186.442 237.666 187.362 239.133V237.173ZM180.622 244.993C181.382 245.753 182.316 246.133 183.422 246.133C184.529 246.133 185.462 245.753 186.222 244.993C186.982 244.219 187.362 243.279 187.362 242.173C187.362 241.066 186.982 240.133 186.222 239.373C185.462 238.599 184.529 238.213 183.422 238.213C182.316 238.213 181.382 238.599 180.622 239.373C179.862 240.133 179.482 241.066 179.482 242.173C179.482 243.279 179.862 244.219 180.622 244.993ZM200.017 236.933C201.484 236.933 202.724 237.439 203.737 238.453C204.764 239.453 205.277 240.693 205.277 242.173C205.277 243.653 204.764 244.899 203.737 245.913C202.724 246.913 201.484 247.413 200.017 247.413C198.67 247.413 197.51 246.979 196.537 246.113C195.577 245.233 195.024 244.133 194.877 242.813H192.797V247.173H191.477V237.173H192.797V241.533H194.877C195.024 240.213 195.577 239.119 196.537 238.253C197.51 237.373 198.67 236.933 200.017 236.933ZM197.217 244.993C197.977 245.753 198.91 246.133 200.017 246.133C201.124 246.133 202.057 245.753 202.817 244.993C203.577 244.219 203.957 243.279 203.957 242.173C203.957 241.066 203.577 240.133 202.817 239.373C202.057 238.599 201.124 238.213 200.017 238.213C198.91 238.213 197.977 238.599 197.217 239.373C196.457 240.133 196.077 241.066 196.077 242.173C196.077 243.279 196.457 244.219 197.217 244.993ZM220.873 245.893H222.273V249.853H220.953V247.173H207.473V237.173H208.793V245.893H213.513V237.173H214.833V245.893H219.553V237.173H220.873V245.893ZM231.55 237.173H232.67V247.173H231.35V239.473L225.39 247.173H224.27V237.173H225.59V244.873L231.55 237.173ZM237.062 235.573V234.413H242.262V235.573H237.062ZM242.742 237.173H243.862V247.173H242.542V239.473L236.582 247.173H235.462V237.173H236.782V244.873L242.742 237.173ZM256.813 242.033C257.973 242.473 258.553 243.273 258.553 244.433C258.553 245.259 258.226 245.966 257.573 246.553C256.933 247.126 256.013 247.413 254.813 247.413C252.8 247.413 251.48 246.613 250.853 245.013L251.973 244.353C252.386 245.539 253.333 246.133 254.813 246.133C255.586 246.133 256.18 245.966 256.593 245.633C257.02 245.299 257.233 244.873 257.233 244.353C257.233 243.886 257.06 243.506 256.713 243.213C256.366 242.919 255.9 242.773 255.313 242.773H253.853V241.493H254.913C255.486 241.493 255.933 241.353 256.253 241.073C256.586 240.779 256.753 240.379 256.753 239.873C256.753 239.393 256.56 238.999 256.173 238.693C255.786 238.373 255.266 238.213 254.613 238.213C253.36 238.213 252.526 238.713 252.113 239.713L251.013 239.073C251.68 237.646 252.88 236.933 254.613 236.933C255.666 236.933 256.506 237.213 257.133 237.773C257.76 238.319 258.073 238.993 258.073 239.793C258.073 240.819 257.653 241.566 256.813 242.033ZM269.159 237.173H270.479V247.173H269.159V245.213C268.239 246.679 266.893 247.413 265.119 247.413C263.693 247.413 262.473 246.906 261.459 245.893C260.459 244.879 259.959 243.639 259.959 242.173C259.959 240.706 260.459 239.466 261.459 238.453C262.473 237.439 263.693 236.933 265.119 236.933C266.893 236.933 268.239 237.666 269.159 239.133V237.173ZM262.419 244.993C263.179 245.753 264.113 246.133 265.219 246.133C266.326 246.133 267.259 245.753 268.019 244.993C268.779 244.219 269.159 243.279 269.159 242.173C269.159 241.066 268.779 240.133 268.019 239.373C267.259 238.599 266.326 238.213 265.219 238.213C264.113 238.213 263.179 238.599 262.419 239.373C261.659 240.133 261.279 241.066 261.279 242.173C261.279 243.279 261.659 244.219 262.419 244.993ZM62.677 264.933C64.1037 264.933 65.317 265.439 66.317 266.453C67.3303 267.466 67.837 268.706 67.837 270.173C67.837 271.639 67.3303 272.879 66.317 273.893C65.317 274.906 64.1037 275.413 62.677 275.413C60.9037 275.413 59.557 274.679 58.637 273.213V279.173H57.317V265.173H58.637V267.133C59.557 265.666 60.9037 264.933 62.677 264.933ZM59.777 272.993C60.537 273.753 61.4703 274.133 62.577 274.133C63.6837 274.133 64.617 273.753 65.377 272.993C66.137 272.219 66.517 271.279 66.517 270.173C66.517 269.066 66.137 268.133 65.377 267.373C64.617 266.599 63.6837 266.213 62.577 266.213C61.4703 266.213 60.537 266.599 59.777 267.373C59.017 268.133 58.637 269.066 58.637 270.173C58.637 271.279 59.017 272.219 59.777 272.993ZM78.6318 265.173H79.9518V275.173H78.6318V273.213C77.7118 274.679 76.3652 275.413 74.5918 275.413C73.1652 275.413 71.9452 274.906 70.9318 273.893C69.9318 272.879 69.4318 271.639 69.4318 270.173C69.4318 268.706 69.9318 267.466 70.9318 266.453C71.9452 265.439 73.1652 264.933 74.5918 264.933C76.3652 264.933 77.7118 265.666 78.6318 267.133V265.173ZM71.8918 272.993C72.6518 273.753 73.5852 274.133 74.6918 274.133C75.7985 274.133 76.7318 273.753 77.4918 272.993C78.2518 272.219 78.6318 271.279 78.6318 270.173C78.6318 269.066 78.2518 268.133 77.4918 267.373C76.7318 266.599 75.7985 266.213 74.6918 266.213C73.5852 266.213 72.6518 266.599 71.8918 267.373C71.1318 268.133 70.7518 269.066 70.7518 270.173C70.7518 271.279 71.1318 272.219 71.8918 272.993ZM87.9067 270.033C89.0667 270.473 89.6467 271.273 89.6467 272.433C89.6467 273.259 89.32 273.966 88.6667 274.553C88.0267 275.126 87.1067 275.413 85.9067 275.413C83.8933 275.413 82.5733 274.613 81.9467 273.013L83.0667 272.353C83.48 273.539 84.4267 274.133 85.9067 274.133C86.68 274.133 87.2733 273.966 87.6867 273.633C88.1133 273.299 88.3267 272.873 88.3267 272.353C88.3267 271.886 88.1533 271.506 87.8067 271.213C87.46 270.919 86.9933 270.773 86.4067 270.773H84.9467V269.493H86.0067C86.58 269.493 87.0267 269.353 87.3467 269.073C87.68 268.779 87.8467 268.379 87.8467 267.873C87.8467 267.393 87.6533 266.999 87.2667 266.693C86.88 266.373 86.36 266.213 85.7067 266.213C84.4533 266.213 83.62 266.713 83.2067 267.713L82.1067 267.073C82.7733 265.646 83.9733 264.933 85.7067 264.933C86.76 264.933 87.6 265.213 88.2267 265.773C88.8533 266.319 89.1667 266.993 89.1667 267.793C89.1667 268.819 88.7467 269.566 87.9067 270.033ZM99.6576 265.173V275.173H98.3376V266.453H93.8176V270.913C93.8176 272.579 93.4976 273.726 92.8576 274.353C92.231 274.979 91.3643 275.253 90.2576 275.173V273.933C91.0176 274.013 91.5776 273.833 91.9376 273.393C92.311 272.953 92.4976 272.126 92.4976 270.913V265.173H99.6576ZM109.734 265.173H110.854V275.173H109.534V267.473L103.574 275.173H102.454V265.173H103.774V272.873L109.734 265.173ZM120.125 265.173H121.445V275.173H120.125V271.373C119.352 271.773 118.398 271.973 117.265 271.973C115.958 271.973 114.958 271.673 114.265 271.073C113.585 270.459 113.245 269.559 113.245 268.373V265.173H114.565V268.373C114.565 269.213 114.785 269.819 115.225 270.193C115.665 270.553 116.332 270.733 117.225 270.733C118.265 270.733 119.232 270.539 120.125 270.153V265.173ZM131.331 265.173H132.651V275.173H131.331V270.813H125.571V275.173H124.251V265.173H125.571V269.533H131.331V265.173ZM139.502 268.973C140.435 268.973 141.222 269.266 141.862 269.853C142.515 270.426 142.842 271.166 142.842 272.073C142.842 272.979 142.515 273.726 141.862 274.313C141.222 274.886 140.435 275.173 139.502 275.173H135.442V265.173H136.762V268.973H139.502ZM144.242 265.173H145.562V275.173H144.242V265.173ZM139.502 273.893C140.062 273.893 140.535 273.726 140.922 273.393C141.322 273.059 141.522 272.619 141.522 272.073C141.522 271.526 141.322 271.086 140.922 270.753C140.535 270.419 140.062 270.253 139.502 270.253H136.762V273.893H139.502ZM152.992 264.933C154.472 264.933 155.665 265.459 156.572 266.513C157.492 267.553 157.952 268.786 157.952 270.213C157.952 270.359 157.938 270.566 157.912 270.833H149.132C149.265 271.846 149.692 272.653 150.412 273.253C151.145 273.839 152.045 274.133 153.112 274.133C153.872 274.133 154.525 273.979 155.072 273.673C155.632 273.353 156.052 272.939 156.332 272.433L157.492 273.113C157.052 273.819 156.452 274.379 155.692 274.793C154.932 275.206 154.065 275.413 153.092 275.413C151.518 275.413 150.238 274.919 149.252 273.933C148.265 272.946 147.772 271.693 147.772 270.173C147.772 268.679 148.258 267.433 149.232 266.433C150.205 265.433 151.458 264.933 152.992 264.933ZM152.992 266.213C151.952 266.213 151.078 266.526 150.372 267.153C149.678 267.766 149.265 268.566 149.132 269.553H156.592C156.458 268.499 156.052 267.679 155.372 267.093C154.692 266.506 153.898 266.213 152.992 266.213ZM169.491 275.413C168.051 275.413 166.851 274.939 165.891 273.993C164.931 273.033 164.451 271.793 164.451 270.273C164.451 268.566 164.705 267.259 165.211 266.353C165.718 265.433 166.745 264.599 168.291 263.853C168.585 263.706 168.971 263.533 169.451 263.333C169.945 263.133 170.311 262.973 170.551 262.853C170.805 262.733 171.078 262.579 171.371 262.393C171.665 262.193 171.885 261.973 172.031 261.733C172.178 261.493 172.271 261.206 172.311 260.873L173.351 261.473C173.298 261.793 173.191 262.093 173.031 262.373C172.871 262.653 172.705 262.879 172.531 263.053C172.371 263.226 172.111 263.419 171.751 263.633C171.405 263.833 171.131 263.979 170.931 264.073C170.745 264.153 170.411 264.293 169.931 264.493C169.465 264.693 169.151 264.826 168.991 264.893C168.058 265.293 167.371 265.713 166.931 266.153C166.491 266.579 166.178 267.139 165.991 267.833C166.445 267.233 167.018 266.793 167.711 266.513C168.418 266.219 169.105 266.073 169.771 266.073C171.105 266.073 172.205 266.513 173.071 267.393C173.951 268.259 174.391 269.373 174.391 270.733C174.391 272.079 173.925 273.199 172.991 274.093C172.071 274.973 170.905 275.413 169.491 275.413ZM169.491 274.093C170.531 274.093 171.385 273.779 172.051 273.153C172.731 272.513 173.071 271.706 173.071 270.733C173.071 269.746 172.751 268.939 172.111 268.313C171.485 267.673 170.645 267.353 169.591 267.353C168.645 267.353 167.785 267.653 167.011 268.253C166.238 268.839 165.851 269.626 165.851 270.613C165.851 271.626 166.198 272.459 166.891 273.113C167.598 273.766 168.465 274.093 169.491 274.093ZM181.759 264.933C183.186 264.933 184.399 265.439 185.399 266.453C186.412 267.466 186.919 268.706 186.919 270.173C186.919 271.639 186.412 272.879 185.399 273.893C184.399 274.906 183.186 275.413 181.759 275.413C179.986 275.413 178.639 274.679 177.719 273.213V279.173H176.399V265.173H177.719V267.133C178.639 265.666 179.986 264.933 181.759 264.933ZM178.859 272.993C179.619 273.753 180.552 274.133 181.659 274.133C182.766 274.133 183.699 273.753 184.459 272.993C185.219 272.219 185.599 271.279 185.599 270.173C185.599 269.066 185.219 268.133 184.459 267.373C183.699 266.599 182.766 266.213 181.659 266.213C180.552 266.213 179.619 266.599 178.859 267.373C178.099 268.133 177.719 269.066 177.719 270.173C177.719 271.279 178.099 272.219 178.859 272.993ZM193.734 264.933C195.214 264.933 196.407 265.459 197.314 266.513C198.234 267.553 198.694 268.786 198.694 270.213C198.694 270.359 198.681 270.566 198.654 270.833H189.874C190.007 271.846 190.434 272.653 191.154 273.253C191.887 273.839 192.787 274.133 193.854 274.133C194.614 274.133 195.267 273.979 195.814 273.673C196.374 273.353 196.794 272.939 197.074 272.433L198.234 273.113C197.794 273.819 197.194 274.379 196.434 274.793C195.674 275.206 194.807 275.413 193.834 275.413C192.261 275.413 190.981 274.919 189.994 273.933C189.007 272.946 188.514 271.693 188.514 270.173C188.514 268.679 189.001 267.433 189.974 266.433C190.947 265.433 192.201 264.933 193.734 264.933ZM193.734 266.213C192.694 266.213 191.821 266.526 191.114 267.153C190.421 267.766 190.007 268.566 189.874 269.553H197.334C197.201 268.499 196.794 267.679 196.114 267.093C195.434 266.506 194.641 266.213 193.734 266.213ZM207.874 265.173H209.194V275.173H207.874V270.813H202.114V275.173H200.794V265.173H202.114V269.533H207.874V265.173ZM220.385 273.893H221.785V277.853H220.465V275.173H212.305V277.853H210.985V273.893H212.205C212.885 272.999 213.225 271.739 213.225 270.113V265.173H220.385V273.893ZM213.805 273.893H219.065V266.453H214.545V270.113C214.545 271.646 214.298 272.906 213.805 273.893ZM227.842 268.973C228.775 268.973 229.562 269.266 230.202 269.853C230.855 270.426 231.182 271.166 231.182 272.073C231.182 272.979 230.855 273.726 230.202 274.313C229.562 274.886 228.775 275.173 227.842 275.173H223.782V265.173H225.102V268.973H227.842ZM232.582 265.173H233.902V275.173H232.582V265.173ZM227.842 273.893C228.402 273.893 228.875 273.726 229.262 273.393C229.662 273.059 229.862 272.619 229.862 272.073C229.862 271.526 229.662 271.086 229.262 270.753C228.875 270.419 228.402 270.253 227.842 270.253H225.102V273.893H227.842ZM250.092 273.913C249.078 274.913 247.838 275.413 246.372 275.413C244.905 275.413 243.658 274.913 242.632 273.913C241.618 272.899 241.112 271.653 241.112 270.173C241.112 268.693 241.618 267.453 242.632 266.453C243.658 265.439 244.905 264.933 246.372 264.933C247.838 264.933 249.078 265.439 250.092 266.453C251.118 267.453 251.632 268.693 251.632 270.173C251.632 271.653 251.118 272.899 250.092 273.913ZM243.572 272.993C244.332 273.753 245.265 274.133 246.372 274.133C247.478 274.133 248.412 273.753 249.172 272.993C249.932 272.219 250.312 271.279 250.312 270.173C250.312 269.066 249.932 268.133 249.172 267.373C248.412 266.599 247.478 266.213 246.372 266.213C245.265 266.213 244.332 266.599 243.572 267.373C242.812 268.133 242.432 269.066 242.432 270.173C242.432 271.279 242.812 272.219 243.572 272.993ZM261.85 273.893H263.25V277.853H261.93V275.173H253.77V277.853H252.45V273.893H253.67C254.35 272.999 254.69 271.739 254.69 270.113V265.173H261.85V273.893ZM255.27 273.893H260.53V266.453H256.01V270.113C256.01 271.646 255.763 272.906 255.27 273.893ZM269.476 264.933C270.956 264.933 272.149 265.459 273.056 266.513C273.976 267.553 274.436 268.786 274.436 270.213C274.436 270.359 274.423 270.566 274.396 270.833H265.616C265.749 271.846 266.176 272.653 266.896 273.253C267.629 273.839 268.529 274.133 269.596 274.133C270.356 274.133 271.009 273.979 271.556 273.673C272.116 273.353 272.536 272.939 272.816 272.433L273.976 273.113C273.536 273.819 272.936 274.379 272.176 274.793C271.416 275.206 270.549 275.413 269.576 275.413C268.003 275.413 266.723 274.919 265.736 273.933C264.749 272.946 264.256 271.693 264.256 270.173C264.256 268.679 264.743 267.433 265.716 266.433C266.689 265.433 267.943 264.933 269.476 264.933ZM269.476 266.213C268.436 266.213 267.563 266.526 266.856 267.153C266.163 267.766 265.749 268.566 265.616 269.553H273.076C272.943 268.499 272.536 267.679 271.856 267.093C271.176 266.506 270.383 266.213 269.476 266.213ZM287.61 275.173H286.01L281.93 270.353V275.173H280.61V270.353L276.53 275.173H274.93L279.41 269.973L275.13 265.173H276.73L280.61 269.613V265.173H281.93V269.613L285.81 265.173H287.41L283.13 269.973L287.61 275.173ZM297.807 273.893H299.207V277.853H297.887V275.173H289.727V277.853H288.407V273.893H289.627C290.307 272.999 290.647 271.739 290.647 270.113V265.173H297.807V273.893ZM291.227 273.893H296.487V266.453H291.967V270.113C291.967 271.646 291.72 272.906 291.227 273.893ZM305.264 268.973C306.197 268.973 306.984 269.266 307.624 269.853C308.277 270.426 308.604 271.166 308.604 272.073C308.604 272.979 308.277 273.726 307.624 274.313C306.984 274.886 306.197 275.173 305.264 275.173H301.204V265.173H302.524V268.973H305.264ZM310.004 265.173H311.324V275.173H310.004V265.173ZM305.264 273.893C305.824 273.893 306.297 273.726 306.684 273.393C307.084 273.059 307.284 272.619 307.284 272.073C307.284 271.526 307.084 271.086 306.684 270.753C306.297 270.419 305.824 270.253 305.264 270.253H302.524V273.893H305.264ZM70.897 296.513V297.233C70.897 298.966 70.277 300.433 69.037 301.633C67.797 302.819 66.137 303.413 64.057 303.413C61.937 303.413 60.1837 302.713 58.797 301.313C57.4103 299.913 56.717 298.199 56.717 296.173C56.717 294.146 57.4103 292.433 58.797 291.033C60.1837 289.633 61.937 288.933 64.057 288.933C65.3503 288.933 66.537 289.246 67.617 289.873C68.697 290.499 69.5303 291.333 70.117 292.373L68.877 293.093C68.437 292.239 67.7837 291.559 66.917 291.053C66.0503 290.546 65.097 290.293 64.057 290.293C62.3103 290.293 60.8837 290.859 59.777 291.993C58.6703 293.126 58.117 294.519 58.117 296.173C58.117 297.826 58.6703 299.219 59.777 300.353C60.8837 301.486 62.3103 302.053 64.057 302.053C65.6303 302.053 66.8903 301.659 67.837 300.873C68.7837 300.073 69.3237 299.059 69.457 297.833H63.897V296.513H70.897ZM77.7182 292.933C79.1982 292.933 80.3916 293.459 81.2982 294.513C82.2182 295.553 82.6782 296.786 82.6782 298.213C82.6782 298.359 82.6649 298.566 82.6382 298.833H73.8582C73.9916 299.846 74.4182 300.653 75.1382 301.253C75.8716 301.839 76.7716 302.133 77.8382 302.133C78.5982 302.133 79.2516 301.979 79.7982 301.673C80.3582 301.353 80.7782 300.939 81.0582 300.433L82.2182 301.113C81.7782 301.819 81.1782 302.379 80.4182 302.793C79.6582 303.206 78.7916 303.413 77.8182 303.413C76.2449 303.413 74.9649 302.919 73.9782 301.933C72.9916 300.946 72.4982 299.693 72.4982 298.173C72.4982 296.679 72.9849 295.433 73.9582 294.433C74.9316 293.433 76.1849 292.933 77.7182 292.933ZM77.7182 294.213C76.6782 294.213 75.8049 294.526 75.0982 295.153C74.4049 295.766 73.9916 296.566 73.8582 297.553H81.3182C81.1849 296.499 80.7782 295.679 80.0982 295.093C79.4182 294.506 78.6249 294.213 77.7182 294.213ZM95.4379 292.933C96.5579 292.933 97.4579 293.293 98.1379 294.013C98.8313 294.733 99.1779 295.706 99.1779 296.933V303.173H97.8579V296.933C97.8579 296.066 97.6313 295.399 97.1779 294.933C96.7379 294.453 96.1513 294.213 95.4179 294.213C94.5913 294.213 93.9179 294.493 93.3979 295.053C92.8913 295.599 92.6379 296.459 92.6379 297.633V303.173H91.3179V296.933C91.3179 296.053 91.1046 295.379 90.6779 294.913C90.2646 294.446 89.6979 294.213 88.9779 294.213C88.1779 294.213 87.4979 294.493 86.9379 295.053C86.3779 295.613 86.0979 296.473 86.0979 297.633V303.173H84.7779V293.173H86.0979V294.633C86.8179 293.499 87.8379 292.933 89.1579 292.933C90.5979 292.933 91.6113 293.539 92.1979 294.753C92.9179 293.539 93.9979 292.933 95.4379 292.933ZM112.391 292.933C113.511 292.933 114.411 293.293 115.091 294.013C115.784 294.733 116.131 295.706 116.131 296.933V303.173H114.811V296.933C114.811 296.066 114.584 295.399 114.131 294.933C113.691 294.453 113.104 294.213 112.371 294.213C111.544 294.213 110.871 294.493 110.351 295.053C109.844 295.599 109.591 296.459 109.591 297.633V303.173H108.271V296.933C108.271 296.053 108.058 295.379 107.631 294.913C107.218 294.446 106.651 294.213 105.931 294.213C105.131 294.213 104.451 294.493 103.891 295.053C103.331 295.613 103.051 296.473 103.051 297.633V303.173H101.731V293.173H103.051V294.633C103.771 293.499 104.791 292.933 106.111 292.933C107.551 292.933 108.564 293.539 109.151 294.753C109.871 293.539 110.951 292.933 112.391 292.933ZM127.284 293.173H128.604V303.173H127.284V301.213C126.364 302.679 125.018 303.413 123.244 303.413C121.818 303.413 120.598 302.906 119.584 301.893C118.584 300.879 118.084 299.639 118.084 298.173C118.084 296.706 118.584 295.466 119.584 294.453C120.598 293.439 121.818 292.933 123.244 292.933C125.018 292.933 126.364 293.666 127.284 295.133V293.173ZM120.544 300.993C121.304 301.753 122.238 302.133 123.344 302.133C124.451 302.133 125.384 301.753 126.144 300.993C126.904 300.219 127.284 299.279 127.284 298.173C127.284 297.066 126.904 296.133 126.144 295.373C125.384 294.599 124.451 294.213 123.344 294.213C122.238 294.213 121.304 294.599 120.544 295.373C119.784 296.133 119.404 297.066 119.404 298.173C119.404 299.279 119.784 300.219 120.544 300.993Z" fill="#1A1B20"/>
<path d="M67.7163 117.806H63.5913L57.3804 109.122V117.806H53.7476V100.673H57.3804V108.97L63.521 100.673H67.3882L61.1421 108.9L67.7163 117.806ZM81.4976 111.232C81.4976 112.325 81.3491 113.294 81.0522 114.138C80.7632 114.982 80.3374 115.696 79.7749 116.282C79.2202 116.861 78.5483 117.298 77.7593 117.595C76.978 117.892 76.0952 118.04 75.1108 118.04C74.189 118.04 73.3413 117.892 72.5679 117.595C71.8022 117.298 71.1343 116.861 70.564 116.282C70.0015 115.696 69.564 114.982 69.2515 114.138C68.9468 113.294 68.7944 112.325 68.7944 111.232C68.7944 109.778 69.0522 108.548 69.5679 107.54C70.0835 106.532 70.8179 105.767 71.771 105.243C72.7241 104.72 73.8608 104.458 75.1812 104.458C76.4077 104.458 77.4937 104.72 78.439 105.243C79.3921 105.767 80.1382 106.532 80.6772 107.54C81.2241 108.548 81.4976 109.778 81.4976 111.232ZM72.439 111.232C72.439 112.091 72.5327 112.814 72.7202 113.4C72.9077 113.986 73.2007 114.427 73.5991 114.724C73.9976 115.021 74.5171 115.169 75.1577 115.169C75.7905 115.169 76.3022 115.021 76.6929 114.724C77.0913 114.427 77.3804 113.986 77.5601 113.4C77.7476 112.814 77.8413 112.091 77.8413 111.232C77.8413 110.364 77.7476 109.646 77.5601 109.075C77.3804 108.497 77.0913 108.064 76.6929 107.775C76.2944 107.486 75.7749 107.341 75.1343 107.341C74.189 107.341 73.5015 107.665 73.0718 108.314C72.6499 108.962 72.439 109.935 72.439 111.232ZM100.962 104.704V117.806H97.6226V111.372C97.6226 110.739 97.6343 110.118 97.6577 109.509C97.6812 108.9 97.7163 108.337 97.7632 107.821H97.6929L94.0718 117.806H91.3882L87.7085 107.798H87.6147C87.6772 108.321 87.7202 108.884 87.7437 109.486C87.7671 110.087 87.7788 110.747 87.7788 111.466V117.806H84.4507V104.704H89.5132L92.771 113.587L96.0874 104.704H100.962ZM116.63 104.704V117.806H113.044V107.388H108.298V117.806H104.724V104.704H116.63ZM125.748 104.435C127.505 104.435 128.853 104.818 129.791 105.583C130.728 106.349 131.197 107.513 131.197 109.075V117.806H128.701L128.009 116.025H127.916C127.541 116.493 127.158 116.876 126.767 117.173C126.376 117.47 125.927 117.689 125.419 117.829C124.912 117.97 124.294 118.04 123.568 118.04C122.794 118.04 122.099 117.892 121.482 117.595C120.873 117.298 120.392 116.845 120.041 116.236C119.689 115.618 119.513 114.837 119.513 113.892C119.513 112.501 120.001 111.478 120.978 110.821C121.955 110.157 123.419 109.79 125.373 109.72L127.646 109.65V109.075C127.646 108.388 127.466 107.884 127.107 107.564C126.748 107.243 126.248 107.083 125.607 107.083C124.974 107.083 124.353 107.173 123.744 107.353C123.134 107.532 122.525 107.759 121.916 108.032L120.732 105.618C121.427 105.251 122.205 104.962 123.064 104.751C123.931 104.54 124.826 104.435 125.748 104.435ZM127.646 111.736L126.263 111.782C125.107 111.814 124.302 112.021 123.849 112.403C123.404 112.786 123.181 113.29 123.181 113.915C123.181 114.462 123.341 114.853 123.662 115.087C123.982 115.314 124.4 115.427 124.916 115.427C125.681 115.427 126.326 115.2 126.849 114.747C127.38 114.294 127.646 113.65 127.646 112.814V111.736ZM138.462 104.704V109.743H143.455V104.704H147.029V117.806H143.455V112.403H138.462V117.806H134.888V104.704H138.462ZM154.236 104.704V109.884C154.236 110.15 154.224 110.486 154.201 110.892C154.185 111.29 154.162 111.696 154.13 112.111C154.099 112.525 154.068 112.896 154.037 113.224C154.005 113.552 153.982 113.775 153.966 113.892L160.013 104.704H164.314V117.806H160.857V112.579C160.857 112.15 160.873 111.677 160.904 111.161C160.935 110.638 160.97 110.146 161.009 109.685C161.048 109.224 161.076 108.876 161.091 108.642L155.068 117.806H150.779V104.704H154.236ZM170.068 117.806H166.201L169.728 112.626C169.283 112.439 168.865 112.181 168.474 111.853C168.083 111.517 167.767 111.095 167.525 110.587C167.283 110.079 167.162 109.47 167.162 108.759C167.162 107.454 167.654 106.454 168.638 105.759C169.63 105.056 170.908 104.704 172.47 104.704H178.564V117.806H174.99V112.931H173.021L170.068 117.806ZM170.666 108.782C170.666 109.329 170.88 109.759 171.31 110.071C171.748 110.376 172.31 110.528 172.998 110.528H174.99V107.224H172.541C171.9 107.224 171.427 107.38 171.123 107.693C170.818 107.997 170.666 108.361 170.666 108.782ZM65.3726 138.704V151.806H61.7866V141.388H57.0405V151.806H53.4663V138.704H65.3726ZM81.0288 145.232C81.0288 146.325 80.8804 147.294 80.5835 148.138C80.2944 148.982 79.8687 149.696 79.3062 150.282C78.7515 150.861 78.0796 151.298 77.2905 151.595C76.5093 151.892 75.6265 152.04 74.6421 152.04C73.7202 152.04 72.8726 151.892 72.0991 151.595C71.3335 151.298 70.6655 150.861 70.0952 150.282C69.5327 149.696 69.0952 148.982 68.7827 148.138C68.478 147.294 68.3257 146.325 68.3257 145.232C68.3257 143.778 68.5835 142.548 69.0991 141.54C69.6147 140.532 70.3491 139.767 71.3022 139.243C72.2554 138.72 73.3921 138.458 74.7124 138.458C75.939 138.458 77.0249 138.72 77.9702 139.243C78.9233 139.767 79.6694 140.532 80.2085 141.54C80.7554 142.548 81.0288 143.778 81.0288 145.232ZM71.9702 145.232C71.9702 146.091 72.064 146.814 72.2515 147.4C72.439 147.986 72.7319 148.427 73.1304 148.724C73.5288 149.021 74.0483 149.169 74.689 149.169C75.3218 149.169 75.8335 149.021 76.2241 148.724C76.6226 148.427 76.9116 147.986 77.0913 147.4C77.2788 146.814 77.3726 146.091 77.3726 145.232C77.3726 144.364 77.2788 143.646 77.0913 143.075C76.9116 142.497 76.6226 142.064 76.2241 141.775C75.8257 141.486 75.3062 141.341 74.6655 141.341C73.7202 141.341 73.0327 141.665 72.603 142.314C72.1812 142.962 71.9702 143.935 71.9702 145.232ZM102.123 138.704V151.806H98.5366V141.388H93.7905V151.806H90.2163V138.704H102.123ZM113.162 138.458C114.638 138.458 115.83 139.032 116.736 140.181C117.65 141.329 118.107 143.013 118.107 145.232C118.107 146.716 117.892 147.966 117.462 148.982C117.033 149.989 116.439 150.751 115.681 151.267C114.923 151.782 114.052 152.04 113.068 152.04C112.435 152.04 111.892 151.962 111.439 151.806C110.986 151.642 110.599 151.435 110.279 151.185C109.958 150.927 109.681 150.653 109.447 150.364H109.259C109.322 150.677 109.369 150.997 109.4 151.325C109.431 151.653 109.447 151.974 109.447 152.286V157.571H105.873V138.704H108.779L109.283 140.403H109.447C109.681 140.052 109.966 139.728 110.302 139.431C110.638 139.134 111.041 138.9 111.509 138.728C111.986 138.548 112.537 138.458 113.162 138.458ZM112.013 141.318C111.388 141.318 110.892 141.446 110.525 141.704C110.158 141.962 109.888 142.349 109.716 142.864C109.552 143.38 109.462 144.032 109.447 144.821V145.208C109.447 146.052 109.525 146.767 109.681 147.353C109.845 147.939 110.115 148.384 110.49 148.689C110.873 148.993 111.396 149.146 112.06 149.146C112.607 149.146 113.056 148.993 113.408 148.689C113.759 148.384 114.021 147.939 114.193 147.353C114.373 146.759 114.462 146.036 114.462 145.185C114.462 143.903 114.263 142.939 113.865 142.29C113.466 141.642 112.849 141.318 112.013 141.318ZM132.966 145.232C132.966 146.325 132.818 147.294 132.521 148.138C132.232 148.982 131.806 149.696 131.244 150.282C130.689 150.861 130.017 151.298 129.228 151.595C128.447 151.892 127.564 152.04 126.58 152.04C125.658 152.04 124.81 151.892 124.037 151.595C123.271 151.298 122.603 150.861 122.033 150.282C121.47 149.696 121.033 148.982 120.72 148.138C120.416 147.294 120.263 146.325 120.263 145.232C120.263 143.778 120.521 142.548 121.037 141.54C121.552 140.532 122.287 139.767 123.24 139.243C124.193 138.72 125.33 138.458 126.65 138.458C127.876 138.458 128.962 138.72 129.908 139.243C130.861 139.767 131.607 140.532 132.146 141.54C132.693 142.548 132.966 143.778 132.966 145.232ZM123.908 145.232C123.908 146.091 124.001 146.814 124.189 147.4C124.376 147.986 124.669 148.427 125.068 148.724C125.466 149.021 125.986 149.169 126.626 149.169C127.259 149.169 127.771 149.021 128.162 148.724C128.56 148.427 128.849 147.986 129.029 147.4C129.216 146.814 129.31 146.091 129.31 145.232C129.31 144.364 129.216 143.646 129.029 143.075C128.849 142.497 128.56 142.064 128.162 141.775C127.763 141.486 127.244 141.341 126.603 141.341C125.658 141.341 124.97 141.665 124.541 142.314C124.119 142.962 123.908 143.935 123.908 145.232ZM139.376 138.704V143.884C139.376 144.15 139.365 144.486 139.341 144.892C139.326 145.29 139.302 145.696 139.271 146.111C139.24 146.525 139.208 146.896 139.177 147.224C139.146 147.552 139.123 147.775 139.107 147.892L145.154 138.704H149.455V151.806H145.998V146.579C145.998 146.15 146.013 145.677 146.044 145.161C146.076 144.638 146.111 144.146 146.15 143.685C146.189 143.224 146.216 142.876 146.232 142.642L140.208 151.806H135.919V138.704H139.376ZM157.986 138.458C158.931 138.458 159.814 138.583 160.634 138.833C161.455 139.075 162.119 139.454 162.626 139.97C163.134 140.478 163.388 141.134 163.388 141.939C163.388 142.728 163.15 143.357 162.673 143.825C162.197 144.286 161.564 144.618 160.775 144.821V144.939C161.33 145.071 161.83 145.251 162.275 145.478C162.728 145.704 163.087 146.017 163.353 146.415C163.619 146.814 163.751 147.337 163.751 147.986C163.751 148.712 163.521 149.384 163.06 150.001C162.599 150.611 161.892 151.103 160.939 151.478C159.994 151.853 158.779 152.04 157.294 152.04C156.591 152.04 155.927 152.009 155.302 151.946C154.685 151.884 154.119 151.794 153.603 151.677C153.087 151.552 152.638 151.403 152.255 151.232V148.278C152.794 148.528 153.458 148.759 154.248 148.97C155.044 149.181 155.892 149.286 156.791 149.286C157.439 149.286 158.025 149.239 158.548 149.146C159.08 149.052 159.498 148.896 159.802 148.677C160.115 148.45 160.271 148.15 160.271 147.775C160.271 147.423 160.134 147.134 159.861 146.907C159.595 146.673 159.185 146.501 158.63 146.392C158.083 146.275 157.388 146.216 156.544 146.216H155.162V143.743H156.474C157.662 143.743 158.58 143.646 159.228 143.45C159.876 143.255 160.201 142.896 160.201 142.372C160.201 141.95 159.994 141.634 159.58 141.423C159.166 141.212 158.482 141.107 157.529 141.107C156.912 141.107 156.232 141.181 155.49 141.329C154.748 141.47 154.052 141.673 153.404 141.939L152.349 139.443C153.107 139.153 153.927 138.919 154.81 138.739C155.701 138.552 156.759 138.458 157.986 138.458ZM178.166 142.138C178.166 142.841 177.943 143.443 177.498 143.943C177.06 144.435 176.412 144.751 175.552 144.892V144.986C176.458 145.095 177.189 145.411 177.744 145.935C178.298 146.45 178.576 147.103 178.576 147.892C178.576 148.642 178.38 149.314 177.99 149.907C177.599 150.493 176.978 150.958 176.126 151.302C175.275 151.638 174.162 151.806 172.787 151.806H166.552V138.704H172.787C173.81 138.704 174.728 138.814 175.541 139.032C176.353 139.243 176.994 139.599 177.462 140.099C177.931 140.599 178.166 141.278 178.166 142.138ZM174.873 147.704C174.873 147.189 174.669 146.818 174.263 146.591C173.865 146.357 173.271 146.239 172.482 146.239H170.126V149.333H172.552C173.224 149.333 173.779 149.208 174.216 148.958C174.654 148.708 174.873 148.29 174.873 147.704ZM174.544 142.419C174.544 142.013 174.384 141.712 174.064 141.517C173.744 141.321 173.271 141.224 172.646 141.224H170.126V143.814H172.236C172.994 143.814 173.568 143.704 173.958 143.486C174.349 143.267 174.544 142.911 174.544 142.419ZM193.552 145.232C193.552 146.325 193.404 147.294 193.107 148.138C192.818 148.982 192.392 149.696 191.83 150.282C191.275 150.861 190.603 151.298 189.814 151.595C189.033 151.892 188.15 152.04 187.166 152.04C186.244 152.04 185.396 151.892 184.623 151.595C183.857 151.298 183.189 150.861 182.619 150.282C182.056 149.696 181.619 148.982 181.306 148.138C181.001 147.294 180.849 146.325 180.849 145.232C180.849 143.778 181.107 142.548 181.623 141.54C182.138 140.532 182.873 139.767 183.826 139.243C184.779 138.72 185.916 138.458 187.236 138.458C188.462 138.458 189.548 138.72 190.494 139.243C191.447 139.767 192.193 140.532 192.732 141.54C193.279 142.548 193.552 143.778 193.552 145.232ZM184.494 145.232C184.494 146.091 184.587 146.814 184.775 147.4C184.962 147.986 185.255 148.427 185.654 148.724C186.052 149.021 186.572 149.169 187.212 149.169C187.845 149.169 188.357 149.021 188.748 148.724C189.146 148.427 189.435 147.986 189.615 147.4C189.802 146.814 189.896 146.091 189.896 145.232C189.896 144.364 189.802 143.646 189.615 143.075C189.435 142.497 189.146 142.064 188.748 141.775C188.349 141.486 187.83 141.341 187.189 141.341C186.244 141.341 185.556 141.665 185.126 142.314C184.705 142.962 184.494 143.935 184.494 145.232ZM208.283 138.704V149.193H210.205V156.505H206.994V151.806H198.181V156.505H194.97V149.193H196.072C196.65 148.31 197.134 147.302 197.525 146.169C197.923 145.036 198.244 143.837 198.486 142.571C198.736 141.298 198.916 140.009 199.025 138.704H208.283ZM204.708 141.388H202.025C201.9 142.357 201.74 143.294 201.544 144.2C201.357 145.099 201.123 145.966 200.841 146.802C200.56 147.63 200.216 148.427 199.81 149.193H204.708V141.388ZM217.763 152.04C216.466 152.04 215.361 151.806 214.447 151.337C213.533 150.861 212.837 150.126 212.361 149.134C211.884 148.142 211.646 146.872 211.646 145.325C211.646 143.724 211.916 142.419 212.455 141.411C213.001 140.396 213.755 139.65 214.716 139.173C215.685 138.696 216.806 138.458 218.08 138.458C218.986 138.458 219.767 138.548 220.423 138.728C221.087 138.9 221.666 139.107 222.158 139.349L221.103 142.114C220.541 141.888 220.017 141.704 219.533 141.564C219.048 141.415 218.564 141.341 218.08 141.341C217.455 141.341 216.935 141.489 216.521 141.786C216.107 142.075 215.798 142.513 215.595 143.099C215.392 143.685 215.291 144.419 215.291 145.302C215.291 146.169 215.4 146.888 215.619 147.458C215.837 148.028 216.154 148.454 216.568 148.736C216.982 149.009 217.486 149.146 218.08 149.146C218.822 149.146 219.482 149.048 220.06 148.853C220.638 148.65 221.201 148.368 221.748 148.009V151.068C221.201 151.411 220.626 151.657 220.025 151.806C219.431 151.962 218.677 152.04 217.763 152.04ZM235.634 141.388H231.345V151.806H227.771V141.388H223.47V138.704H235.634V141.388ZM249.697 142.138C249.697 142.841 249.474 143.443 249.029 143.943C248.591 144.435 247.943 144.751 247.083 144.892V144.986C247.99 145.095 248.72 145.411 249.275 145.935C249.83 146.45 250.107 147.103 250.107 147.892C250.107 148.642 249.912 149.314 249.521 149.907C249.13 150.493 248.509 150.958 247.658 151.302C246.806 151.638 245.693 151.806 244.318 151.806H238.083V138.704H244.318C245.341 138.704 246.259 138.814 247.072 139.032C247.884 139.243 248.525 139.599 248.994 140.099C249.462 140.599 249.697 141.278 249.697 142.138ZM246.404 147.704C246.404 147.189 246.201 146.818 245.794 146.591C245.396 146.357 244.802 146.239 244.013 146.239H241.658V149.333H244.083C244.755 149.333 245.31 149.208 245.748 148.958C246.185 148.708 246.404 148.29 246.404 147.704ZM246.076 142.419C246.076 142.013 245.916 141.712 245.595 141.517C245.275 141.321 244.802 141.224 244.177 141.224H241.658V143.814H243.767C244.525 143.814 245.099 143.704 245.49 143.486C245.88 143.267 246.076 142.911 246.076 142.419ZM251.302 138.704H255.216L257.689 146.075C257.767 146.31 257.833 146.548 257.888 146.79C257.943 147.032 257.99 147.282 258.029 147.54C258.068 147.798 258.099 148.068 258.123 148.349H258.193C258.24 147.927 258.302 147.532 258.38 147.165C258.466 146.798 258.572 146.435 258.697 146.075L261.123 138.704H264.955L259.412 153.482C259.076 154.388 258.638 155.142 258.099 155.743C257.56 156.353 256.939 156.81 256.236 157.114C255.541 157.419 254.775 157.571 253.939 157.571C253.533 157.571 253.181 157.548 252.884 157.501C252.587 157.462 252.333 157.419 252.123 157.372V154.536C252.287 154.575 252.494 154.611 252.744 154.642C252.994 154.673 253.255 154.689 253.529 154.689C254.029 154.689 254.458 154.583 254.818 154.372C255.177 154.161 255.478 153.876 255.72 153.517C255.962 153.165 256.154 152.778 256.294 152.357L256.505 151.712L251.302 138.704ZM60.2515 176.185H67.0483V185.068C66.1499 185.364 65.2163 185.603 64.2476 185.782C63.2788 185.954 62.1812 186.04 60.9546 186.04C59.2515 186.04 57.8062 185.704 56.6187 185.032C55.4312 184.361 54.5288 183.368 53.9116 182.056C53.2944 180.743 52.9858 179.13 52.9858 177.216C52.9858 175.419 53.3296 173.864 54.0171 172.552C54.7124 171.239 55.7241 170.224 57.0522 169.505C58.3882 168.786 60.0171 168.427 61.939 168.427C62.8452 168.427 63.7397 168.525 64.6226 168.72C65.5054 168.915 66.3062 169.169 67.0249 169.482L65.8179 172.388C65.2944 172.122 64.6968 171.9 64.0249 171.72C63.353 171.54 62.6499 171.45 61.9155 171.45C60.8608 171.45 59.9429 171.693 59.1616 172.177C58.3882 172.661 57.7866 173.341 57.3569 174.216C56.9351 175.083 56.7241 176.107 56.7241 177.286C56.7241 178.403 56.8765 179.396 57.1812 180.263C57.4858 181.122 57.9663 181.798 58.6226 182.29C59.2788 182.775 60.1343 183.017 61.189 183.017C61.7046 183.017 62.1382 182.993 62.4897 182.946C62.8491 182.892 63.1851 182.837 63.4976 182.782V179.208H60.2515V176.185ZM81.0054 185.806H71.1382V168.673H81.0054V171.65H74.771V175.411H80.5718V178.388H74.771V182.806H81.0054V185.806ZM91.8452 185.806L87.7202 172.364H87.6147C87.6304 172.685 87.6538 173.169 87.6851 173.818C87.7241 174.458 87.7593 175.142 87.7905 175.868C87.8218 176.595 87.8374 177.251 87.8374 177.837V185.806H84.5913V168.673H89.5366L93.5913 181.775H93.6616L97.9624 168.673H102.908V185.806H99.521V177.696C99.521 177.157 99.5288 176.536 99.5444 175.833C99.5679 175.13 99.5952 174.462 99.6265 173.829C99.6577 173.189 99.6812 172.708 99.6968 172.388H99.5913L95.1733 185.806H91.8452ZM114.486 185.806L110.361 172.364H110.255C110.271 172.685 110.294 173.169 110.326 173.818C110.365 174.458 110.4 175.142 110.431 175.868C110.462 176.595 110.478 177.251 110.478 177.837V185.806H107.232V168.673H112.177L116.232 181.775H116.302L120.603 168.673H125.548V185.806H122.162V177.696C122.162 177.157 122.169 176.536 122.185 175.833C122.208 175.13 122.236 174.462 122.267 173.829C122.298 173.189 122.322 172.708 122.337 172.388H122.232L117.814 185.806H114.486ZM140.361 185.806L139.119 181.728H132.873L131.63 185.806H127.716L133.763 168.603H138.205L144.275 185.806H140.361ZM138.251 178.681L137.009 174.696C136.931 174.431 136.826 174.091 136.693 173.677C136.568 173.255 136.439 172.829 136.306 172.4C136.181 171.962 136.08 171.583 136.001 171.263C135.923 171.583 135.814 171.982 135.673 172.458C135.541 172.927 135.412 173.372 135.287 173.794C135.162 174.216 135.072 174.517 135.017 174.696L133.787 178.681H138.251ZM158.009 175.728L161.583 168.673H165.498L159.814 179.138V185.806H156.205V179.255L150.521 168.673H154.458L158.009 175.728ZM179.279 179.232C179.279 180.325 179.13 181.294 178.833 182.138C178.544 182.982 178.119 183.696 177.556 184.282C177.001 184.861 176.33 185.298 175.541 185.595C174.759 185.892 173.876 186.04 172.892 186.04C171.97 186.04 171.123 185.892 170.349 185.595C169.583 185.298 168.916 184.861 168.345 184.282C167.783 183.696 167.345 182.982 167.033 182.138C166.728 181.294 166.576 180.325 166.576 179.232C166.576 177.778 166.833 176.548 167.349 175.54C167.865 174.532 168.599 173.767 169.552 173.243C170.505 172.72 171.642 172.458 172.962 172.458C174.189 172.458 175.275 172.72 176.22 173.243C177.173 173.767 177.919 174.532 178.458 175.54C179.005 176.548 179.279 177.778 179.279 179.232ZM170.22 179.232C170.22 180.091 170.314 180.814 170.501 181.4C170.689 181.986 170.982 182.427 171.38 182.724C171.779 183.021 172.298 183.169 172.939 183.169C173.572 183.169 174.083 183.021 174.474 182.724C174.873 182.427 175.162 181.986 175.341 181.4C175.529 180.814 175.623 180.091 175.623 179.232C175.623 178.364 175.529 177.646 175.341 177.075C175.162 176.497 174.873 176.064 174.474 175.775C174.076 175.486 173.556 175.341 172.916 175.341C171.97 175.341 171.283 175.665 170.853 176.314C170.431 176.962 170.22 177.935 170.22 179.232ZM194.255 172.704V185.806H191.513L191.033 184.13H190.845C190.564 184.575 190.212 184.939 189.791 185.22C189.369 185.501 188.904 185.708 188.396 185.841C187.888 185.974 187.361 186.04 186.814 186.04C185.876 186.04 185.06 185.876 184.365 185.548C183.669 185.212 183.126 184.693 182.736 183.989C182.353 183.286 182.162 182.372 182.162 181.247V172.704H185.736V180.357C185.736 181.294 185.904 182.001 186.24 182.478C186.576 182.954 187.111 183.193 187.845 183.193C188.572 183.193 189.142 183.028 189.556 182.7C189.97 182.364 190.259 181.876 190.423 181.236C190.595 180.587 190.681 179.798 190.681 178.868V172.704H194.255ZM205.447 172.458C206.845 172.458 207.97 172.841 208.822 173.607C209.673 174.364 210.099 175.583 210.099 177.263V185.806H206.525V178.153C206.525 177.216 206.353 176.509 206.009 176.032C205.673 175.556 205.142 175.318 204.416 175.318C203.322 175.318 202.576 175.689 202.177 176.431C201.779 177.173 201.58 178.243 201.58 179.642V185.806H198.005V172.704H200.736L201.216 174.38H201.416C201.697 173.927 202.044 173.56 202.458 173.278C202.88 172.997 203.345 172.79 203.853 172.657C204.369 172.525 204.9 172.458 205.447 172.458ZM217.611 191.571C215.783 191.571 214.384 191.251 213.416 190.611C212.455 189.978 211.974 189.087 211.974 187.939C211.974 187.15 212.22 186.489 212.712 185.958C213.205 185.427 213.927 185.048 214.88 184.821C214.513 184.665 214.193 184.411 213.919 184.06C213.646 183.7 213.509 183.321 213.509 182.923C213.509 182.423 213.654 182.009 213.943 181.681C214.232 181.345 214.65 181.017 215.197 180.696C214.509 180.4 213.962 179.923 213.556 179.267C213.158 178.611 212.958 177.837 212.958 176.946C212.958 175.993 213.166 175.185 213.58 174.521C214.001 173.849 214.611 173.337 215.408 172.986C216.212 172.634 217.189 172.458 218.337 172.458C218.58 172.458 218.861 172.474 219.181 172.505C219.501 172.536 219.794 172.571 220.06 172.611C220.333 172.65 220.517 172.681 220.611 172.704H225.181V174.521L223.13 175.048C223.318 175.337 223.458 175.646 223.552 175.974C223.646 176.302 223.693 176.65 223.693 177.017C223.693 178.423 223.201 179.521 222.216 180.31C221.24 181.091 219.88 181.482 218.138 181.482C217.724 181.458 217.333 181.427 216.966 181.388C216.787 181.528 216.65 181.677 216.556 181.833C216.462 181.989 216.416 182.153 216.416 182.325C216.416 182.497 216.486 182.642 216.626 182.759C216.775 182.868 216.994 182.954 217.283 183.017C217.58 183.071 217.947 183.099 218.384 183.099H220.611C222.048 183.099 223.142 183.407 223.892 184.025C224.65 184.642 225.029 185.548 225.029 186.743C225.029 188.275 224.388 189.462 223.107 190.306C221.833 191.15 220.001 191.571 217.611 191.571ZM217.763 189.239C218.615 189.239 219.345 189.157 219.955 188.993C220.572 188.837 221.044 188.611 221.373 188.314C221.701 188.025 221.865 187.677 221.865 187.271C221.865 186.943 221.767 186.681 221.572 186.486C221.384 186.298 221.095 186.165 220.705 186.087C220.322 186.009 219.83 185.97 219.228 185.97H217.376C216.939 185.97 216.544 186.04 216.193 186.181C215.849 186.321 215.576 186.517 215.373 186.767C215.169 187.025 215.068 187.321 215.068 187.657C215.068 188.15 215.302 188.536 215.771 188.818C216.248 189.099 216.912 189.239 217.763 189.239ZM218.337 179.302C219.009 179.302 219.501 179.095 219.814 178.681C220.126 178.267 220.283 177.704 220.283 176.993C220.283 176.204 220.119 175.614 219.791 175.224C219.47 174.825 218.986 174.626 218.337 174.626C217.681 174.626 217.189 174.825 216.861 175.224C216.533 175.614 216.369 176.204 216.369 176.993C216.369 177.704 216.529 178.267 216.849 178.681C217.177 179.095 217.673 179.302 218.337 179.302Z" fill="#1A1B20"/>
</svg>
