<svg width="490" height="477" viewBox="0 0 490 477" fill="none" xmlns="http://www.w3.org/2000/svg">
<path d="M482.514 268.291C482.514 381.989 376.625 474.5 245.555 474.5C114.486 474.5 8.59717 381.989 8.59717 268.291C8.59717 154.593 114.486 62.0818 245.555 62.0818C376.625 62.0818 482.514 154.593 482.514 268.291Z" stroke="#5C82D1" stroke-width="3"/>
<path d="M121.464 294.949C120.204 296.209 118.662 296.839 116.838 296.839C115.014 296.839 113.472 296.209 112.212 294.949C110.952 293.677 110.322 292.135 110.322 290.323C110.322 288.511 110.952 286.975 112.212 285.715C113.472 284.443 115.014 283.807 116.838 283.807C118.662 283.807 120.204 284.443 121.464 285.715C122.724 286.975 123.354 288.511 123.354 290.323C123.354 292.135 122.724 293.677 121.464 294.949ZM113.094 294.085C114.102 295.105 115.35 295.615 116.838 295.615C118.326 295.615 119.574 295.105 120.582 294.085C121.59 293.053 122.094 291.799 122.094 290.323C122.094 288.847 121.59 287.599 120.582 286.579C119.574 285.547 118.326 285.031 116.838 285.031C115.35 285.031 114.102 285.547 113.094 286.579C112.086 287.599 111.582 288.847 111.582 290.323C111.582 291.799 112.086 293.053 113.094 294.085ZM131.809 287.623V288.775H128.623V296.623H127.435V288.775H124.249V287.623H131.809ZM138.981 291.997C139.965 292.357 140.457 293.059 140.457 294.103C140.457 294.835 140.211 295.441 139.719 295.921C139.239 296.389 138.543 296.623 137.631 296.623H133.257V287.623H137.271C138.147 287.623 138.825 287.851 139.305 288.307C139.785 288.751 140.025 289.327 140.025 290.035C140.025 290.935 139.677 291.589 138.981 291.997ZM137.271 288.775H134.445V291.511H137.271C138.315 291.511 138.837 291.043 138.837 290.107C138.837 289.687 138.699 289.363 138.423 289.135C138.159 288.895 137.775 288.775 137.271 288.775ZM137.631 295.471C138.159 295.471 138.561 295.345 138.837 295.093C139.125 294.841 139.269 294.487 139.269 294.031C139.269 293.611 139.125 293.281 138.837 293.041C138.561 292.789 138.159 292.663 137.631 292.663H134.445V295.471H137.631ZM146.415 287.407C147.747 287.407 148.821 287.881 149.637 288.829C150.465 289.765 150.879 290.875 150.879 292.159C150.879 292.291 150.867 292.477 150.843 292.717H142.941C143.061 293.629 143.445 294.355 144.093 294.895C144.753 295.423 145.563 295.687 146.523 295.687C147.207 295.687 147.795 295.549 148.287 295.273C148.791 294.985 149.169 294.613 149.421 294.157L150.465 294.769C150.069 295.405 149.529 295.909 148.845 296.281C148.161 296.653 147.381 296.839 146.505 296.839C145.089 296.839 143.937 296.395 143.049 295.507C142.161 294.619 141.717 293.491 141.717 292.123C141.717 290.779 142.155 289.657 143.031 288.757C143.907 287.857 145.035 287.407 146.415 287.407ZM146.415 288.559C145.479 288.559 144.693 288.841 144.057 289.405C143.433 289.957 143.061 290.677 142.941 291.565H149.655C149.535 290.617 149.169 289.879 148.557 289.351C147.945 288.823 147.231 288.559 146.415 288.559ZM158.601 287.623H159.789V296.623H158.601V293.203C157.905 293.563 157.047 293.743 156.027 293.743C154.851 293.743 153.951 293.473 153.327 292.933C152.715 292.381 152.409 291.571 152.409 290.503V287.623H153.597V290.503C153.597 291.259 153.795 291.805 154.191 292.141C154.587 292.465 155.187 292.627 155.991 292.627C156.927 292.627 157.797 292.453 158.601 292.105V287.623ZM170.053 287.623H171.241V296.623H170.053V294.859C169.225 296.179 168.013 296.839 166.417 296.839C165.133 296.839 164.035 296.383 163.123 295.471C162.223 294.559 161.773 293.443 161.773 292.123C161.773 290.803 162.223 289.687 163.123 288.775C164.035 287.863 165.133 287.407 166.417 287.407C168.013 287.407 169.225 288.067 170.053 289.387V287.623ZM163.987 294.661C164.671 295.345 165.511 295.687 166.507 295.687C167.503 295.687 168.343 295.345 169.027 294.661C169.711 293.965 170.053 293.119 170.053 292.123C170.053 291.127 169.711 290.287 169.027 289.603C168.343 288.907 167.503 288.559 166.507 288.559C165.511 288.559 164.671 288.907 163.987 289.603C163.303 290.287 162.961 291.127 162.961 292.123C162.961 293.119 163.303 293.965 163.987 294.661ZM177.915 287.407C179.247 287.407 180.321 287.881 181.137 288.829C181.965 289.765 182.379 290.875 182.379 292.159C182.379 292.291 182.367 292.477 182.343 292.717H174.441C174.561 293.629 174.945 294.355 175.593 294.895C176.253 295.423 177.063 295.687 178.023 295.687C178.707 295.687 179.295 295.549 179.787 295.273C180.291 294.985 180.669 294.613 180.921 294.157L181.965 294.769C181.569 295.405 181.029 295.909 180.345 296.281C179.661 296.653 178.881 296.839 178.005 296.839C176.589 296.839 175.437 296.395 174.549 295.507C173.661 294.619 173.217 293.491 173.217 292.123C173.217 290.779 173.655 289.657 174.531 288.757C175.407 287.857 176.535 287.407 177.915 287.407ZM177.915 288.559C176.979 288.559 176.193 288.841 175.557 289.405C174.933 289.957 174.561 290.677 174.441 291.565H181.155C181.035 290.617 180.669 289.879 180.057 289.351C179.445 288.823 178.731 288.559 177.915 288.559ZM190.397 287.623V288.775H187.211V296.623H186.023V288.775H182.837V287.623H190.397ZM200.989 291.997C202.033 292.393 202.555 293.113 202.555 294.157C202.555 294.901 202.261 295.537 201.673 296.065C201.097 296.581 200.269 296.839 199.189 296.839C197.377 296.839 196.189 296.119 195.625 294.679L196.633 294.085C197.005 295.153 197.857 295.687 199.189 295.687C199.885 295.687 200.419 295.537 200.791 295.237C201.175 294.937 201.367 294.553 201.367 294.085C201.367 293.665 201.211 293.323 200.899 293.059C200.587 292.795 200.167 292.663 199.639 292.663H198.325V291.511H199.279C199.795 291.511 200.197 291.385 200.485 291.133C200.785 290.869 200.935 290.509 200.935 290.053C200.935 289.621 200.761 289.267 200.413 288.991C200.065 288.703 199.597 288.559 199.009 288.559C197.881 288.559 197.131 289.009 196.759 289.909L195.769 289.333C196.369 288.049 197.449 287.407 199.009 287.407C199.957 287.407 200.713 287.659 201.277 288.163C201.841 288.655 202.123 289.261 202.123 289.981C202.123 290.905 201.745 291.577 200.989 291.997ZM212.1 287.623H213.288V296.623H212.1V294.859C211.272 296.179 210.06 296.839 208.464 296.839C207.18 296.839 206.082 296.383 205.17 295.471C204.27 294.559 203.82 293.443 203.82 292.123C203.82 290.803 204.27 289.687 205.17 288.775C206.082 287.863 207.18 287.407 208.464 287.407C210.06 287.407 211.272 288.067 212.1 289.387V287.623ZM206.034 294.661C206.718 295.345 207.558 295.687 208.554 295.687C209.55 295.687 210.39 295.345 211.074 294.661C211.758 293.965 212.1 293.119 212.1 292.123C212.1 291.127 211.758 290.287 211.074 289.603C210.39 288.907 209.55 288.559 208.554 288.559C207.558 288.559 206.718 288.907 206.034 289.603C205.35 290.287 205.008 291.127 205.008 292.123C205.008 293.119 205.35 293.965 206.034 294.661ZM224.3 296.839C223.004 296.839 221.924 296.413 221.06 295.561C220.196 294.697 219.764 293.581 219.764 292.213C219.764 290.677 219.992 289.501 220.448 288.685C220.904 287.857 221.828 287.107 223.22 286.435C223.484 286.303 223.832 286.147 224.264 285.967C224.708 285.787 225.038 285.643 225.254 285.535C225.482 285.427 225.728 285.289 225.992 285.121C226.256 284.941 226.454 284.743 226.586 284.527C226.718 284.311 226.802 284.053 226.838 283.753L227.774 284.293C227.726 284.581 227.63 284.851 227.486 285.103C227.342 285.355 227.192 285.559 227.036 285.715C226.892 285.871 226.658 286.045 226.334 286.237C226.022 286.417 225.776 286.549 225.596 286.633C225.428 286.705 225.128 286.831 224.696 287.011C224.276 287.191 223.994 287.311 223.85 287.371C223.01 287.731 222.392 288.109 221.996 288.505C221.6 288.889 221.318 289.393 221.15 290.017C221.558 289.477 222.074 289.081 222.698 288.829C223.334 288.565 223.952 288.433 224.552 288.433C225.752 288.433 226.742 288.829 227.522 289.621C228.314 290.401 228.71 291.403 228.71 292.627C228.71 293.839 228.29 294.847 227.45 295.651C226.622 296.443 225.572 296.839 224.3 296.839ZM224.3 295.651C225.236 295.651 226.004 295.369 226.604 294.805C227.216 294.229 227.522 293.503 227.522 292.627C227.522 291.739 227.234 291.013 226.658 290.449C226.094 289.873 225.338 289.585 224.39 289.585C223.538 289.585 222.764 289.855 222.068 290.395C221.372 290.923 221.024 291.631 221.024 292.519C221.024 293.431 221.336 294.181 221.96 294.769C222.596 295.357 223.376 295.651 224.3 295.651ZM238.257 287.623H239.445V296.623H238.257V294.859C237.429 296.179 236.217 296.839 234.621 296.839C233.337 296.839 232.239 296.383 231.327 295.471C230.427 294.559 229.977 293.443 229.977 292.123C229.977 290.803 230.427 289.687 231.327 288.775C232.239 287.863 233.337 287.407 234.621 287.407C236.217 287.407 237.429 288.067 238.257 289.387V287.623ZM232.191 294.661C232.875 295.345 233.715 295.687 234.711 295.687C235.707 295.687 236.547 295.345 237.231 294.661C237.915 293.965 238.257 293.119 238.257 292.123C238.257 291.127 237.915 290.287 237.231 289.603C236.547 288.907 235.707 288.559 234.711 288.559C233.715 288.559 232.875 288.907 232.191 289.603C231.507 290.287 231.165 291.127 231.165 292.123C231.165 293.119 231.507 293.965 232.191 294.661ZM246.604 291.997C247.648 292.393 248.17 293.113 248.17 294.157C248.17 294.901 247.876 295.537 247.288 296.065C246.712 296.581 245.884 296.839 244.804 296.839C242.992 296.839 241.804 296.119 241.24 294.679L242.248 294.085C242.62 295.153 243.472 295.687 244.804 295.687C245.5 295.687 246.034 295.537 246.406 295.237C246.79 294.937 246.982 294.553 246.982 294.085C246.982 293.665 246.826 293.323 246.514 293.059C246.202 292.795 245.782 292.663 245.254 292.663H243.94V291.511H244.894C245.41 291.511 245.812 291.385 246.1 291.133C246.4 290.869 246.55 290.509 246.55 290.053C246.55 289.621 246.376 289.267 246.028 288.991C245.68 288.703 245.212 288.559 244.624 288.559C243.496 288.559 242.746 289.009 242.374 289.909L241.384 289.333C241.984 288.049 243.064 287.407 244.624 287.407C245.572 287.407 246.328 287.659 246.892 288.163C247.456 288.655 247.738 289.261 247.738 289.981C247.738 290.905 247.36 291.577 246.604 291.997ZM257.518 295.489C256.606 296.389 255.49 296.839 254.17 296.839C252.85 296.839 251.728 296.389 250.804 295.489C249.892 294.577 249.436 293.455 249.436 292.123C249.436 290.791 249.892 289.675 250.804 288.775C251.728 287.863 252.85 287.407 254.17 287.407C255.49 287.407 256.606 287.863 257.518 288.775C258.442 289.675 258.904 290.791 258.904 292.123C258.904 293.455 258.442 294.577 257.518 295.489ZM251.65 294.661C252.334 295.345 253.174 295.687 254.17 295.687C255.166 295.687 256.006 295.345 256.69 294.661C257.374 293.965 257.716 293.119 257.716 292.123C257.716 291.127 257.374 290.287 256.69 289.603C256.006 288.907 255.166 288.559 254.17 288.559C253.174 288.559 252.334 288.907 251.65 289.603C250.966 290.287 250.624 291.127 250.624 292.123C250.624 293.119 250.966 293.965 251.65 294.661ZM266.616 291.997C267.6 292.357 268.092 293.059 268.092 294.103C268.092 294.835 267.846 295.441 267.354 295.921C266.874 296.389 266.178 296.623 265.266 296.623H260.892V287.623H264.906C265.782 287.623 266.46 287.851 266.94 288.307C267.42 288.751 267.66 289.327 267.66 290.035C267.66 290.935 267.312 291.589 266.616 291.997ZM264.906 288.775H262.08V291.511H264.906C265.95 291.511 266.472 291.043 266.472 290.107C266.472 289.687 266.334 289.363 266.058 289.135C265.794 288.895 265.41 288.775 264.906 288.775ZM265.266 295.471C265.794 295.471 266.196 295.345 266.472 295.093C266.76 294.841 266.904 294.487 266.904 294.031C266.904 293.611 266.76 293.281 266.472 293.041C266.196 292.789 265.794 292.663 265.266 292.663H262.08V295.471H265.266ZM277.434 295.489C276.522 296.389 275.406 296.839 274.086 296.839C272.766 296.839 271.644 296.389 270.72 295.489C269.808 294.577 269.352 293.455 269.352 292.123C269.352 290.791 269.808 289.675 270.72 288.775C271.644 287.863 272.766 287.407 274.086 287.407C275.406 287.407 276.522 287.863 277.434 288.775C278.358 289.675 278.82 290.791 278.82 292.123C278.82 293.455 278.358 294.577 277.434 295.489ZM271.566 294.661C272.25 295.345 273.09 295.687 274.086 295.687C275.082 295.687 275.922 295.345 276.606 294.661C277.29 293.965 277.632 293.119 277.632 292.123C277.632 291.127 277.29 290.287 276.606 289.603C275.922 288.907 275.082 288.559 274.086 288.559C273.09 288.559 272.25 288.907 271.566 289.603C270.882 290.287 270.54 291.127 270.54 292.123C270.54 293.119 270.882 293.965 271.566 294.661ZM284.966 287.407C286.298 287.407 287.372 287.881 288.188 288.829C289.016 289.765 289.43 290.875 289.43 292.159C289.43 292.291 289.418 292.477 289.394 292.717H281.492C281.612 293.629 281.996 294.355 282.644 294.895C283.304 295.423 284.114 295.687 285.074 295.687C285.758 295.687 286.346 295.549 286.838 295.273C287.342 294.985 287.72 294.613 287.972 294.157L289.016 294.769C288.62 295.405 288.08 295.909 287.396 296.281C286.712 296.653 285.932 296.839 285.056 296.839C283.64 296.839 282.488 296.395 281.6 295.507C280.712 294.619 280.268 293.491 280.268 292.123C280.268 290.779 280.706 289.657 281.582 288.757C282.458 287.857 283.586 287.407 284.966 287.407ZM284.966 288.559C284.03 288.559 283.244 288.841 282.608 289.405C281.984 289.957 281.612 290.677 281.492 291.565H288.206C288.086 290.617 287.72 289.879 287.108 289.351C286.496 288.823 285.782 288.559 284.966 288.559ZM303.361 295.489C302.449 296.389 301.333 296.839 300.013 296.839C298.693 296.839 297.571 296.389 296.647 295.489C295.735 294.577 295.279 293.455 295.279 292.123C295.279 290.791 295.735 289.675 296.647 288.775C297.571 287.863 298.693 287.407 300.013 287.407C301.333 287.407 302.449 287.863 303.361 288.775C304.285 289.675 304.747 290.791 304.747 292.123C304.747 293.455 304.285 294.577 303.361 295.489ZM297.493 294.661C298.177 295.345 299.017 295.687 300.013 295.687C301.009 295.687 301.849 295.345 302.533 294.661C303.217 293.965 303.559 293.119 303.559 292.123C303.559 291.127 303.217 290.287 302.533 289.603C301.849 288.907 301.009 288.559 300.013 288.559C299.017 288.559 298.177 288.907 297.493 289.603C296.809 290.287 296.467 291.127 296.467 292.123C296.467 293.119 296.809 293.965 297.493 294.661ZM310.731 296.839C309.435 296.839 308.355 296.413 307.491 295.561C306.627 294.697 306.195 293.581 306.195 292.213C306.195 290.677 306.423 289.501 306.879 288.685C307.335 287.857 308.259 287.107 309.651 286.435C309.915 286.303 310.263 286.147 310.695 285.967C311.139 285.787 311.469 285.643 311.685 285.535C311.913 285.427 312.159 285.289 312.423 285.121C312.687 284.941 312.885 284.743 313.017 284.527C313.149 284.311 313.233 284.053 313.269 283.753L314.205 284.293C314.157 284.581 314.061 284.851 313.917 285.103C313.773 285.355 313.623 285.559 313.467 285.715C313.323 285.871 313.089 286.045 312.765 286.237C312.453 286.417 312.207 286.549 312.027 286.633C311.859 286.705 311.559 286.831 311.127 287.011C310.707 287.191 310.425 287.311 310.281 287.371C309.441 287.731 308.823 288.109 308.427 288.505C308.031 288.889 307.749 289.393 307.581 290.017C307.989 289.477 308.505 289.081 309.129 288.829C309.765 288.565 310.383 288.433 310.983 288.433C312.183 288.433 313.173 288.829 313.953 289.621C314.745 290.401 315.141 291.403 315.141 292.627C315.141 293.839 314.721 294.847 313.881 295.651C313.053 296.443 312.003 296.839 310.731 296.839ZM310.731 295.651C311.667 295.651 312.435 295.369 313.035 294.805C313.647 294.229 313.953 293.503 313.953 292.627C313.953 291.739 313.665 291.013 313.089 290.449C312.525 289.873 311.769 289.585 310.821 289.585C309.969 289.585 309.195 289.855 308.499 290.395C307.803 290.923 307.455 291.631 307.455 292.519C307.455 293.431 307.767 294.181 308.391 294.769C309.027 295.357 309.807 295.651 310.731 295.651ZM323.077 287.623H324.337L320.485 297.451C320.137 298.339 319.639 299.035 318.991 299.539C318.355 300.055 317.641 300.283 316.849 300.223V299.107C317.929 299.227 318.751 298.603 319.315 297.235L319.549 296.677L315.517 287.623H316.777L320.161 295.165L323.077 287.623ZM331.604 287.623H332.792V296.623H331.604V293.203C330.908 293.563 330.05 293.743 329.03 293.743C327.854 293.743 326.954 293.473 326.33 292.933C325.718 292.381 325.412 291.571 325.412 290.503V287.623H326.6V290.503C326.6 291.259 326.798 291.805 327.194 292.141C327.59 292.465 328.19 292.627 328.994 292.627C329.93 292.627 330.8 292.453 331.604 292.105V287.623ZM339.475 287.407C340.807 287.407 341.881 287.881 342.697 288.829C343.525 289.765 343.939 290.875 343.939 292.159C343.939 292.291 343.927 292.477 343.903 292.717H336.001C336.121 293.629 336.505 294.355 337.153 294.895C337.813 295.423 338.623 295.687 339.583 295.687C340.267 295.687 340.855 295.549 341.347 295.273C341.851 294.985 342.229 294.613 342.481 294.157L343.525 294.769C343.129 295.405 342.589 295.909 341.905 296.281C341.221 296.653 340.441 296.839 339.565 296.839C338.149 296.839 336.997 296.395 336.109 295.507C335.221 294.619 334.777 293.491 334.777 292.123C334.777 290.779 335.215 289.657 336.091 288.757C336.967 287.857 338.095 287.407 339.475 287.407ZM339.475 288.559C338.539 288.559 337.753 288.841 337.117 289.405C336.493 289.957 336.121 290.677 336.001 291.565H342.715C342.595 290.617 342.229 289.879 341.617 289.351C341.005 288.823 340.291 288.559 339.475 288.559ZM352.201 287.623H353.389V296.623H352.201V292.699H347.017V296.623H345.829V287.623H347.017V291.547H352.201V287.623ZM362.453 287.623H363.461V296.623H362.273V289.693L356.909 296.623H355.901V287.623H357.089V294.553L362.453 287.623ZM370.132 287.407C371.464 287.407 372.538 287.881 373.354 288.829C374.182 289.765 374.596 290.875 374.596 292.159C374.596 292.291 374.584 292.477 374.56 292.717H366.658C366.778 293.629 367.162 294.355 367.81 294.895C368.47 295.423 369.28 295.687 370.24 295.687C370.924 295.687 371.512 295.549 372.004 295.273C372.508 294.985 372.886 294.613 373.138 294.157L374.182 294.769C373.786 295.405 373.246 295.909 372.562 296.281C371.878 296.653 371.098 296.839 370.222 296.839C368.806 296.839 367.654 296.395 366.766 295.507C365.878 294.619 365.434 293.491 365.434 292.123C365.434 290.779 365.872 289.657 366.748 288.757C367.624 287.857 368.752 287.407 370.132 287.407ZM370.132 288.559C369.196 288.559 368.41 288.841 367.774 289.405C367.15 289.957 366.778 290.677 366.658 291.565H373.372C373.252 290.617 372.886 289.879 372.274 289.351C371.662 288.823 370.948 288.559 370.132 288.559ZM115.056 324.839C113.7 324.839 112.572 324.389 111.672 323.489C110.772 322.577 110.322 321.455 110.322 320.123C110.322 318.791 110.772 317.675 111.672 316.775C112.572 315.863 113.7 315.407 115.056 315.407C115.944 315.407 116.742 315.623 117.45 316.055C118.158 316.475 118.674 317.045 118.998 317.765L118.026 318.323C117.786 317.783 117.396 317.357 116.856 317.045C116.328 316.721 115.728 316.559 115.056 316.559C114.06 316.559 113.22 316.907 112.536 317.603C111.852 318.287 111.51 319.127 111.51 320.123C111.51 321.119 111.852 321.965 112.536 322.661C113.22 323.345 114.06 323.687 115.056 323.687C115.728 323.687 116.328 323.531 116.856 323.219C117.384 322.895 117.798 322.463 118.098 321.923L119.088 322.499C118.716 323.219 118.17 323.789 117.45 324.209C116.73 324.629 115.932 324.839 115.056 324.839ZM132.854 315.623V324.623H131.666V316.775H126.482V324.623H125.294V315.623H132.854ZM140.19 315.407C141.474 315.407 142.566 315.863 143.466 316.775C144.378 317.687 144.834 318.803 144.834 320.123C144.834 321.443 144.378 322.559 143.466 323.471C142.566 324.383 141.474 324.839 140.19 324.839C138.594 324.839 137.382 324.179 136.554 322.859V328.223H135.366V315.623H136.554V317.387C137.382 316.067 138.594 315.407 140.19 315.407ZM137.58 322.661C138.264 323.345 139.104 323.687 140.1 323.687C141.096 323.687 141.936 323.345 142.62 322.661C143.304 321.965 143.646 321.119 143.646 320.123C143.646 319.127 143.304 318.287 142.62 317.603C141.936 316.907 141.096 316.559 140.1 316.559C139.104 316.559 138.264 316.907 137.58 317.603C136.896 318.287 136.554 319.127 136.554 320.123C136.554 321.119 136.896 321.965 137.58 322.661ZM154.352 323.489C153.44 324.389 152.324 324.839 151.004 324.839C149.684 324.839 148.562 324.389 147.638 323.489C146.726 322.577 146.27 321.455 146.27 320.123C146.27 318.791 146.726 317.675 147.638 316.775C148.562 315.863 149.684 315.407 151.004 315.407C152.324 315.407 153.44 315.863 154.352 316.775C155.276 317.675 155.738 318.791 155.738 320.123C155.738 321.455 155.276 322.577 154.352 323.489ZM148.484 322.661C149.168 323.345 150.008 323.687 151.004 323.687C152 323.687 152.84 323.345 153.524 322.661C154.208 321.965 154.55 321.119 154.55 320.123C154.55 319.127 154.208 318.287 153.524 317.603C152.84 316.907 152 316.559 151.004 316.559C150.008 316.559 149.168 316.907 148.484 317.603C147.8 318.287 147.458 319.127 147.458 320.123C147.458 321.119 147.8 321.965 148.484 322.661ZM164.934 323.471H166.194V327.035H165.006V324.623H157.662V327.035H156.474V323.471H157.572C158.184 322.667 158.49 321.533 158.49 320.069V315.623H164.934V323.471ZM159.012 323.471H163.746V316.775H159.678V320.069C159.678 321.449 159.456 322.583 159.012 323.471ZM174.12 315.623H175.38L171.528 325.451C171.18 326.339 170.682 327.035 170.034 327.539C169.398 328.055 168.684 328.283 167.892 328.223V327.107C168.972 327.227 169.794 326.603 170.358 325.235L170.592 324.677L166.56 315.623H167.82L171.204 323.165L174.12 315.623ZM184.087 324.623H182.503L178.003 320.285V324.623H176.815V315.623H178.003V319.601L182.287 315.623H183.907L179.263 319.943L184.087 324.623ZM192.19 315.623V316.775H189.004V324.623H187.816V316.775H184.63V315.623H192.19ZM201.026 315.623H202.214V324.623H201.026V322.859C200.198 324.179 198.986 324.839 197.39 324.839C196.106 324.839 195.008 324.383 194.096 323.471C193.196 322.559 192.746 321.443 192.746 320.123C192.746 318.803 193.196 317.687 194.096 316.775C195.008 315.863 196.106 315.407 197.39 315.407C198.986 315.407 200.198 316.067 201.026 317.387V315.623ZM194.96 322.661C195.644 323.345 196.484 323.687 197.48 323.687C198.476 323.687 199.316 323.345 200 322.661C200.684 321.965 201.026 321.119 201.026 320.123C201.026 319.127 200.684 318.287 200 317.603C199.316 316.907 198.476 316.559 197.48 316.559C196.484 316.559 195.644 316.907 194.96 317.603C194.276 318.287 193.934 319.127 193.934 320.123C193.934 321.119 194.276 321.965 194.96 322.661ZM213.549 315.623V324.623H212.361V317.441L209.211 322.553H209.067L205.917 317.441V324.623H204.729V315.623H206.097L209.139 320.555L212.181 315.623H213.549ZM222.619 315.623H223.627V324.623H222.439V317.693L217.075 324.623H216.067V315.623H217.255V322.553L222.619 315.623ZM242.862 318.629V319.277C242.862 320.837 242.304 322.157 241.188 323.237C240.072 324.305 238.578 324.839 236.706 324.839C234.798 324.839 233.22 324.209 231.972 322.949C230.724 321.689 230.1 320.147 230.1 318.323C230.1 316.499 230.724 314.957 231.972 313.697C233.22 312.437 234.798 311.807 236.706 311.807C237.87 311.807 238.938 312.089 239.91 312.653C240.882 313.217 241.632 313.967 242.16 314.903L241.044 315.551C240.648 314.783 240.06 314.171 239.28 313.715C238.5 313.259 237.642 313.031 236.706 313.031C235.134 313.031 233.85 313.541 232.854 314.561C231.858 315.581 231.36 316.835 231.36 318.323C231.36 319.811 231.858 321.065 232.854 322.085C233.85 323.105 235.134 323.615 236.706 323.615C238.122 323.615 239.256 323.261 240.108 322.553C240.96 321.833 241.446 320.921 241.566 319.817H236.562V318.629H242.862ZM249.001 315.407C250.333 315.407 251.407 315.881 252.223 316.829C253.051 317.765 253.465 318.875 253.465 320.159C253.465 320.291 253.453 320.477 253.429 320.717H245.527C245.647 321.629 246.031 322.355 246.679 322.895C247.339 323.423 248.149 323.687 249.109 323.687C249.793 323.687 250.381 323.549 250.873 323.273C251.377 322.985 251.755 322.613 252.007 322.157L253.051 322.769C252.655 323.405 252.115 323.909 251.431 324.281C250.747 324.653 249.967 324.839 249.091 324.839C247.675 324.839 246.523 324.395 245.635 323.507C244.747 322.619 244.303 321.491 244.303 320.123C244.303 318.779 244.741 317.657 245.617 316.757C246.493 315.857 247.621 315.407 249.001 315.407ZM249.001 316.559C248.065 316.559 247.279 316.841 246.643 317.405C246.019 317.957 245.647 318.677 245.527 319.565H252.241C252.121 318.617 251.755 317.879 251.143 317.351C250.531 316.823 249.817 316.559 249.001 316.559ZM264.948 315.407C265.956 315.407 266.766 315.731 267.378 316.379C268.002 317.027 268.314 317.903 268.314 319.007V324.623H267.126V319.007C267.126 318.227 266.922 317.627 266.514 317.207C266.118 316.775 265.59 316.559 264.93 316.559C264.186 316.559 263.58 316.811 263.112 317.315C262.656 317.807 262.428 318.581 262.428 319.637V324.623H261.24V319.007C261.24 318.215 261.048 317.609 260.664 317.189C260.292 316.769 259.782 316.559 259.134 316.559C258.414 316.559 257.802 316.811 257.298 317.315C256.794 317.819 256.542 318.593 256.542 319.637V324.623H255.354V315.623H256.542V316.937C257.19 315.917 258.108 315.407 259.296 315.407C260.592 315.407 261.504 315.953 262.032 317.045C262.68 315.953 263.652 315.407 264.948 315.407ZM280.206 315.407C281.214 315.407 282.024 315.731 282.636 316.379C283.26 317.027 283.572 317.903 283.572 319.007V324.623H282.384V319.007C282.384 318.227 282.18 317.627 281.772 317.207C281.376 316.775 280.848 316.559 280.188 316.559C279.444 316.559 278.838 316.811 278.37 317.315C277.914 317.807 277.686 318.581 277.686 319.637V324.623H276.498V319.007C276.498 318.215 276.306 317.609 275.922 317.189C275.55 316.769 275.04 316.559 274.392 316.559C273.672 316.559 273.06 316.811 272.556 317.315C272.052 317.819 271.8 318.593 271.8 319.637V324.623H270.612V315.623H271.8V316.937C272.448 315.917 273.366 315.407 274.554 315.407C275.85 315.407 276.762 315.953 277.29 317.045C277.938 315.953 278.91 315.407 280.206 315.407ZM293.61 315.623H294.798V324.623H293.61V322.859C292.782 324.179 291.57 324.839 289.974 324.839C288.69 324.839 287.592 324.383 286.68 323.471C285.78 322.559 285.33 321.443 285.33 320.123C285.33 318.803 285.78 317.687 286.68 316.775C287.592 315.863 288.69 315.407 289.974 315.407C291.57 315.407 292.782 316.067 293.61 317.387V315.623ZM287.544 322.661C288.228 323.345 289.068 323.687 290.064 323.687C291.06 323.687 291.9 323.345 292.584 322.661C293.268 321.965 293.61 321.119 293.61 320.123C293.61 319.127 293.268 318.287 292.584 317.603C291.9 316.907 291.06 316.559 290.064 316.559C289.068 316.559 288.228 316.907 287.544 317.603C286.86 318.287 286.518 319.127 286.518 320.123C286.518 321.119 286.86 321.965 287.544 322.661Z" fill="#1A1B20"/>
<path d="M246.749 61C215.527 61 184.611 66.3726 155.766 76.8109C126.921 87.2493 100.712 102.549 78.635 121.837C56.558 141.124 39.0456 164.022 27.0976 189.222C15.1496 214.423 9.00009 241.432 9.00009 268.709C9.00009 295.986 15.1496 322.996 27.0976 348.196C39.0456 373.396 56.558 396.294 78.635 415.582C100.712 434.869 126.921 450.169 155.766 460.607C184.611 471.046 215.527 476.418 246.749 476.418L246.749 436.118C221.585 436.118 196.667 431.788 173.419 423.375C150.17 414.962 129.046 402.631 111.253 387.085C93.4591 371.54 79.3445 353.085 69.7147 332.774C60.0849 312.463 55.1285 290.694 55.1285 268.709C55.1285 246.725 60.0849 224.955 69.7147 204.644C79.3445 184.333 93.4591 165.878 111.253 150.333C129.046 134.788 150.17 122.456 173.419 114.043C196.667 105.63 221.585 101.3 246.749 101.3L246.749 61Z" fill="#5C82D1"/>
<path d="M121.029 196.281H117.591L112.416 189.044V196.281H109.388V182.003H112.416V188.917L117.533 182.003H120.755L115.55 188.859L121.029 196.281ZM132.513 190.802C132.513 191.714 132.389 192.521 132.142 193.224C131.901 193.927 131.546 194.523 131.078 195.011C130.615 195.493 130.056 195.858 129.398 196.105C128.747 196.352 128.011 196.476 127.191 196.476C126.423 196.476 125.716 196.352 125.072 196.105C124.434 195.858 123.877 195.493 123.402 195.011C122.933 194.523 122.569 193.927 122.308 193.224C122.054 192.521 121.927 191.714 121.927 190.802C121.927 189.591 122.142 188.566 122.572 187.726C123.001 186.886 123.613 186.248 124.408 185.812C125.202 185.376 126.149 185.158 127.25 185.158C128.272 185.158 129.177 185.376 129.964 185.812C130.759 186.248 131.38 186.886 131.83 187.726C132.285 188.566 132.513 189.591 132.513 190.802ZM124.964 190.802C124.964 191.518 125.042 192.121 125.199 192.609C125.355 193.097 125.599 193.465 125.931 193.712C126.263 193.96 126.696 194.083 127.23 194.083C127.757 194.083 128.184 193.96 128.509 193.712C128.841 193.465 129.082 193.097 129.232 192.609C129.388 192.121 129.466 191.518 129.466 190.802C129.466 190.08 129.388 189.481 129.232 189.005C129.082 188.524 128.841 188.162 128.509 187.921C128.177 187.68 127.744 187.56 127.21 187.56C126.423 187.56 125.85 187.83 125.492 188.371C125.14 188.911 124.964 189.721 124.964 190.802ZM141.048 185.158C142.279 185.158 143.272 185.636 144.027 186.593C144.789 187.55 145.169 188.953 145.169 190.802C145.169 192.039 144.99 193.081 144.632 193.927C144.274 194.767 143.779 195.402 143.148 195.831C142.516 196.261 141.791 196.476 140.97 196.476C140.443 196.476 139.99 196.411 139.613 196.281C139.235 196.144 138.913 195.971 138.646 195.763C138.379 195.548 138.148 195.32 137.953 195.08H137.796C137.848 195.34 137.888 195.607 137.914 195.88C137.94 196.154 137.953 196.421 137.953 196.681V201.085H134.974V185.363H137.396L137.816 186.779H137.953C138.148 186.486 138.386 186.216 138.666 185.968C138.945 185.721 139.281 185.525 139.671 185.382C140.069 185.233 140.528 185.158 141.048 185.158ZM140.091 187.54C139.57 187.54 139.157 187.648 138.851 187.863C138.545 188.078 138.32 188.4 138.177 188.83C138.041 189.259 137.966 189.803 137.953 190.46V190.783C137.953 191.486 138.018 192.081 138.148 192.57C138.285 193.058 138.509 193.429 138.822 193.683C139.141 193.937 139.577 194.064 140.13 194.064C140.586 194.064 140.96 193.937 141.253 193.683C141.546 193.429 141.764 193.058 141.908 192.57C142.057 192.075 142.132 191.473 142.132 190.763C142.132 189.695 141.966 188.891 141.634 188.351C141.302 187.811 140.788 187.54 140.091 187.54ZM152.132 185.158C153.141 185.158 154.011 185.353 154.74 185.744C155.469 186.128 156.032 186.688 156.429 187.423C156.826 188.159 157.025 189.057 157.025 190.119V191.564H149.984C150.016 192.404 150.267 193.065 150.736 193.546C151.211 194.022 151.869 194.259 152.708 194.259C153.405 194.259 154.043 194.188 154.623 194.044C155.202 193.901 155.798 193.686 156.41 193.4V195.705C155.869 195.971 155.303 196.167 154.71 196.29C154.125 196.414 153.412 196.476 152.572 196.476C151.478 196.476 150.508 196.274 149.662 195.871C148.822 195.467 148.161 194.852 147.679 194.025C147.204 193.198 146.966 192.156 146.966 190.9C146.966 189.624 147.181 188.563 147.611 187.716C148.047 186.863 148.653 186.225 149.427 185.802C150.202 185.372 151.104 185.158 152.132 185.158ZM152.152 187.277C151.572 187.277 151.091 187.462 150.707 187.833C150.329 188.205 150.111 188.787 150.052 189.581H154.232C154.225 189.139 154.144 188.745 153.988 188.4C153.838 188.055 153.61 187.781 153.304 187.58C153.005 187.378 152.621 187.277 152.152 187.277ZM162.328 185.363V189.679C162.328 189.9 162.318 190.18 162.298 190.519C162.285 190.851 162.266 191.19 162.24 191.535C162.214 191.88 162.188 192.189 162.162 192.462C162.136 192.736 162.116 192.921 162.103 193.019L167.142 185.363H170.726V196.281H167.845V191.925C167.845 191.567 167.858 191.173 167.884 190.744C167.91 190.307 167.94 189.897 167.972 189.513C168.005 189.129 168.028 188.839 168.041 188.644L163.021 196.281H159.447V185.363H162.328ZM169.906 180.665C169.834 181.356 169.639 181.964 169.32 182.492C169.001 183.019 168.503 183.429 167.826 183.722C167.149 184.015 166.237 184.162 165.091 184.162C163.913 184.162 162.995 184.022 162.337 183.742C161.68 183.455 161.211 183.052 160.931 182.531C160.651 182.003 160.482 181.382 160.423 180.665H163.089C163.148 181.401 163.333 181.889 163.646 182.13C163.958 182.365 164.46 182.482 165.15 182.482C165.723 182.482 166.192 182.352 166.556 182.091C166.921 181.831 167.139 181.356 167.21 180.665H169.906ZM178.294 196.476C177.214 196.476 176.292 196.281 175.531 195.89C174.769 195.493 174.19 194.881 173.792 194.054C173.395 193.227 173.197 192.169 173.197 190.88C173.197 189.546 173.421 188.458 173.871 187.619C174.326 186.772 174.955 186.15 175.755 185.753C176.563 185.356 177.497 185.158 178.558 185.158C179.313 185.158 179.964 185.233 180.511 185.382C181.065 185.525 181.546 185.698 181.957 185.9L181.078 188.205C180.609 188.016 180.173 187.863 179.769 187.746C179.365 187.622 178.962 187.56 178.558 187.56C178.037 187.56 177.604 187.684 177.259 187.931C176.914 188.172 176.657 188.537 176.488 189.025C176.319 189.513 176.234 190.125 176.234 190.861C176.234 191.583 176.325 192.182 176.507 192.658C176.69 193.133 176.953 193.488 177.298 193.722C177.643 193.95 178.063 194.064 178.558 194.064C179.177 194.064 179.727 193.983 180.208 193.82C180.69 193.65 181.159 193.416 181.615 193.117V195.665C181.159 195.952 180.681 196.157 180.179 196.281C179.684 196.411 179.056 196.476 178.294 196.476ZM191.312 185.363H194.593L190.267 190.597L194.974 196.281H191.595L187.132 190.744V196.281H184.154V185.363H187.132V190.665L191.312 185.363ZM201.009 185.138C202.474 185.138 203.597 185.457 204.378 186.095C205.16 186.733 205.55 187.703 205.55 189.005V196.281H203.47L202.894 194.796H202.816C202.503 195.187 202.184 195.506 201.859 195.753C201.533 196.001 201.159 196.183 200.736 196.3C200.313 196.417 199.798 196.476 199.193 196.476C198.548 196.476 197.969 196.352 197.455 196.105C196.947 195.858 196.546 195.48 196.253 194.972C195.96 194.458 195.814 193.807 195.814 193.019C195.814 191.86 196.221 191.007 197.035 190.46C197.848 189.907 199.069 189.601 200.697 189.542L202.591 189.484V189.005C202.591 188.432 202.442 188.012 202.142 187.746C201.843 187.479 201.426 187.345 200.892 187.345C200.365 187.345 199.847 187.42 199.339 187.57C198.832 187.72 198.324 187.908 197.816 188.136L196.83 186.124C197.409 185.818 198.057 185.578 198.773 185.402C199.496 185.226 200.241 185.138 201.009 185.138ZM202.591 191.222L201.439 191.261C200.475 191.287 199.805 191.46 199.427 191.779C199.056 192.098 198.871 192.518 198.871 193.039C198.871 193.494 199.004 193.82 199.271 194.015C199.538 194.204 199.886 194.298 200.316 194.298C200.954 194.298 201.491 194.109 201.927 193.732C202.37 193.354 202.591 192.817 202.591 192.121V191.222ZM210.287 196.281H207.064L210.003 191.964C209.632 191.808 209.284 191.593 208.958 191.32C208.633 191.04 208.369 190.688 208.167 190.265C207.966 189.842 207.865 189.334 207.865 188.742C207.865 187.654 208.275 186.821 209.095 186.242C209.922 185.656 210.986 185.363 212.289 185.363H217.367V196.281H214.388V192.218H212.748L210.287 196.281ZM210.785 188.761C210.785 189.217 210.964 189.575 211.322 189.835C211.686 190.089 212.155 190.216 212.728 190.216H214.388V187.462H212.347C211.813 187.462 211.419 187.593 211.166 187.853C210.912 188.107 210.785 188.41 210.785 188.761ZM234.652 196.281L233.617 192.882H228.412L227.376 196.281H224.115L229.154 181.945H232.855L237.914 196.281H234.652ZM232.894 190.343L231.859 187.023C231.794 186.802 231.706 186.518 231.595 186.173C231.491 185.822 231.384 185.467 231.273 185.109C231.169 184.744 231.084 184.428 231.019 184.162C230.954 184.428 230.863 184.761 230.746 185.158C230.635 185.548 230.528 185.919 230.423 186.271C230.319 186.622 230.244 186.873 230.199 187.023L229.173 190.343H232.894ZM243.919 196.476C242.839 196.476 241.917 196.281 241.156 195.89C240.394 195.493 239.815 194.881 239.417 194.054C239.02 193.227 238.822 192.169 238.822 190.88C238.822 189.546 239.046 188.458 239.496 187.619C239.951 186.772 240.58 186.15 241.38 185.753C242.188 185.356 243.122 185.158 244.183 185.158C244.938 185.158 245.589 185.233 246.136 185.382C246.69 185.525 247.171 185.698 247.582 185.9L246.703 188.205C246.234 188.016 245.798 187.863 245.394 187.746C244.99 187.622 244.587 187.56 244.183 187.56C243.662 187.56 243.229 187.684 242.884 187.931C242.539 188.172 242.282 188.537 242.113 189.025C241.944 189.513 241.859 190.125 241.859 190.861C241.859 191.583 241.95 192.182 242.132 192.658C242.315 193.133 242.578 193.488 242.923 193.722C243.268 193.95 243.688 194.064 244.183 194.064C244.802 194.064 245.352 193.983 245.833 193.82C246.315 193.65 246.784 193.416 247.24 193.117V195.665C246.784 195.952 246.306 196.157 245.804 196.281C245.309 196.411 244.681 196.476 243.919 196.476ZM254.212 196.476C253.132 196.476 252.21 196.281 251.449 195.89C250.687 195.493 250.108 194.881 249.71 194.054C249.313 193.227 249.115 192.169 249.115 190.88C249.115 189.546 249.339 188.458 249.789 187.619C250.244 186.772 250.873 186.15 251.673 185.753C252.481 185.356 253.415 185.158 254.476 185.158C255.231 185.158 255.882 185.233 256.429 185.382C256.983 185.525 257.464 185.698 257.875 185.9L256.996 188.205C256.527 188.016 256.091 187.863 255.687 187.746C255.283 187.622 254.88 187.56 254.476 187.56C253.955 187.56 253.522 187.684 253.177 187.931C252.832 188.172 252.575 188.537 252.406 189.025C252.236 189.513 252.152 190.125 252.152 190.861C252.152 191.583 252.243 192.182 252.425 192.658C252.608 193.133 252.871 193.488 253.216 193.722C253.561 193.95 253.981 194.064 254.476 194.064C255.095 194.064 255.645 193.983 256.126 193.82C256.608 193.65 257.077 193.416 257.533 193.117V195.665C257.077 195.952 256.598 196.157 256.097 196.281C255.602 196.411 254.974 196.476 254.212 196.476ZM269.994 190.802C269.994 191.714 269.87 192.521 269.623 193.224C269.382 193.927 269.027 194.523 268.558 195.011C268.096 195.493 267.536 195.858 266.878 196.105C266.227 196.352 265.492 196.476 264.671 196.476C263.903 196.476 263.197 196.352 262.552 196.105C261.914 195.858 261.358 195.493 260.882 195.011C260.414 194.523 260.049 193.927 259.789 193.224C259.535 192.521 259.408 191.714 259.408 190.802C259.408 189.591 259.623 188.566 260.052 187.726C260.482 186.886 261.094 186.248 261.888 185.812C262.682 185.376 263.63 185.158 264.73 185.158C265.752 185.158 266.657 185.376 267.445 185.812C268.239 186.248 268.861 186.886 269.31 187.726C269.766 188.566 269.994 189.591 269.994 190.802ZM262.445 190.802C262.445 191.518 262.523 192.121 262.679 192.609C262.835 193.097 263.08 193.465 263.412 193.712C263.744 193.96 264.177 194.083 264.71 194.083C265.238 194.083 265.664 193.96 265.99 193.712C266.322 193.465 266.563 193.097 266.712 192.609C266.869 192.121 266.947 191.518 266.947 190.802C266.947 190.08 266.869 189.481 266.712 189.005C266.563 188.524 266.322 188.162 265.99 187.921C265.658 187.68 265.225 187.56 264.691 187.56C263.903 187.56 263.33 187.83 262.972 188.371C262.621 188.911 262.445 189.721 262.445 190.802ZM284.369 200.197H281.693V196.281H272.455V185.363H275.433V194.044H279.789V185.363H282.777V194.103H284.369V200.197ZM289.105 185.363V189.679C289.105 189.9 289.095 190.18 289.076 190.519C289.063 190.851 289.043 191.19 289.017 191.535C288.991 191.88 288.965 192.189 288.939 192.462C288.913 192.736 288.893 192.921 288.88 193.019L293.919 185.363H297.503V196.281H294.623V191.925C294.623 191.567 294.636 191.173 294.662 190.744C294.688 190.307 294.717 189.897 294.75 189.513C294.782 189.129 294.805 188.839 294.818 188.644L289.798 196.281H286.224V185.363H289.105ZM305.111 185.138C306.576 185.138 307.699 185.457 308.48 186.095C309.261 186.733 309.652 187.703 309.652 189.005V196.281H307.572L306.996 194.796H306.917C306.605 195.187 306.286 195.506 305.96 195.753C305.635 196.001 305.261 196.183 304.837 196.3C304.414 196.417 303.9 196.476 303.294 196.476C302.65 196.476 302.07 196.352 301.556 196.105C301.048 195.858 300.648 195.48 300.355 194.972C300.062 194.458 299.916 193.807 299.916 193.019C299.916 191.86 300.322 191.007 301.136 190.46C301.95 189.907 303.171 189.601 304.798 189.542L306.693 189.484V189.005C306.693 188.432 306.543 188.012 306.244 187.746C305.944 187.479 305.528 187.345 304.994 187.345C304.466 187.345 303.949 187.42 303.441 187.57C302.933 187.72 302.425 187.908 301.917 188.136L300.931 186.124C301.511 185.818 302.158 185.578 302.875 185.402C303.597 185.226 304.343 185.138 305.111 185.138ZM306.693 191.222L305.541 191.261C304.577 191.287 303.906 191.46 303.529 191.779C303.158 192.098 302.972 192.518 302.972 193.039C302.972 193.494 303.106 193.82 303.373 194.015C303.639 194.204 303.988 194.298 304.417 194.298C305.056 194.298 305.593 194.109 306.029 193.732C306.472 193.354 306.693 192.817 306.693 192.121V191.222ZM324.642 200.197H321.966V196.281H312.728V185.363H315.707V194.044H320.062V185.363H323.05V194.103H324.642V200.197ZM329.378 185.363V189.679C329.378 189.9 329.369 190.18 329.349 190.519C329.336 190.851 329.317 191.19 329.291 191.535C329.264 191.88 329.238 192.189 329.212 192.462C329.186 192.736 329.167 192.921 329.154 193.019L334.193 185.363H337.777V196.281H334.896V191.925C334.896 191.567 334.909 191.173 334.935 190.744C334.961 190.307 334.99 189.897 335.023 189.513C335.056 189.129 335.078 188.839 335.091 188.644L330.072 196.281H326.498V185.363H329.378ZM342.572 196.281H339.349L342.289 191.964C341.917 191.808 341.569 191.593 341.244 191.32C340.918 191.04 340.654 190.688 340.453 190.265C340.251 189.842 340.15 189.334 340.15 188.742C340.15 187.654 340.56 186.821 341.38 186.242C342.207 185.656 343.272 185.363 344.574 185.363H349.652V196.281H346.673V192.218H345.033L342.572 196.281ZM343.07 188.761C343.07 189.217 343.249 189.575 343.607 189.835C343.972 190.089 344.44 190.216 345.013 190.216H346.673V187.462H344.632C344.098 187.462 343.705 187.593 343.451 187.853C343.197 188.107 343.07 188.41 343.07 188.761ZM122.347 219.122C122.347 220.223 122.21 221.225 121.937 222.13C121.664 223.029 121.247 223.803 120.687 224.455C120.134 225.106 119.431 225.607 118.578 225.958C117.725 226.303 116.716 226.476 115.55 226.476C114.385 226.476 113.376 226.303 112.523 225.958C111.67 225.607 110.964 225.106 110.404 224.455C109.85 223.803 109.437 223.025 109.164 222.121C108.89 221.216 108.753 220.21 108.753 219.103C108.753 217.625 108.994 216.339 109.476 215.246C109.964 214.145 110.713 213.292 111.722 212.687C112.731 212.081 114.014 211.779 115.57 211.779C117.119 211.779 118.392 212.081 119.388 212.687C120.391 213.292 121.133 214.145 121.615 215.246C122.103 216.346 122.347 217.638 122.347 219.122ZM111.927 219.122C111.927 220.119 112.051 220.978 112.298 221.701C112.552 222.417 112.946 222.97 113.48 223.361C114.014 223.745 114.704 223.937 115.55 223.937C116.41 223.937 117.106 223.745 117.64 223.361C118.174 222.97 118.561 222.417 118.802 221.701C119.05 220.978 119.173 220.119 119.173 219.122C119.173 217.625 118.893 216.447 118.333 215.587C117.774 214.728 116.852 214.298 115.57 214.298C114.717 214.298 114.02 214.494 113.48 214.884C112.946 215.268 112.552 215.822 112.298 216.544C112.051 217.261 111.927 218.12 111.927 219.122ZM124.408 219.738C124.408 218.13 124.606 216.762 125.003 215.636C125.401 214.51 126.032 213.611 126.898 212.941C127.764 212.264 128.9 211.805 130.306 211.564C131.009 211.44 131.722 211.339 132.445 211.261C133.174 211.177 133.929 211.082 134.71 210.978L135.052 213.585C134.714 213.624 134.346 213.667 133.949 213.712C133.552 213.758 133.151 213.807 132.748 213.859C132.344 213.904 131.953 213.953 131.576 214.005C131.198 214.051 130.856 214.096 130.55 214.142C129.886 214.246 129.333 214.409 128.89 214.63C128.447 214.852 128.109 215.203 127.875 215.685C127.64 216.167 127.497 216.86 127.445 217.765H127.591C127.748 217.518 127.969 217.267 128.255 217.013C128.542 216.753 128.897 216.538 129.32 216.369C129.743 216.193 130.231 216.105 130.785 216.105C131.657 216.105 132.412 216.284 133.05 216.642C133.688 217 134.18 217.534 134.525 218.244C134.876 218.947 135.052 219.826 135.052 220.88C135.052 222.117 134.824 223.152 134.369 223.986C133.919 224.813 133.294 225.434 132.494 225.851C131.693 226.268 130.765 226.476 129.71 226.476C128.903 226.476 128.174 226.33 127.523 226.037C126.872 225.744 126.312 225.311 125.843 224.738C125.381 224.165 125.026 223.462 124.779 222.628C124.531 221.789 124.408 220.825 124.408 219.738ZM129.886 224.064C130.309 224.064 130.677 223.973 130.99 223.79C131.309 223.602 131.556 223.296 131.732 222.872C131.914 222.443 132.005 221.867 132.005 221.144C132.005 220.272 131.859 219.581 131.566 219.074C131.279 218.559 130.788 218.302 130.091 218.302C129.668 218.302 129.271 218.406 128.9 218.615C128.535 218.817 128.226 219.051 127.972 219.318C127.718 219.578 127.542 219.8 127.445 219.982C127.445 220.496 127.484 220.997 127.562 221.486C127.647 221.968 127.78 222.404 127.962 222.794C128.145 223.185 128.392 223.494 128.705 223.722C129.024 223.95 129.417 224.064 129.886 224.064ZM143.587 215.158C144.818 215.158 145.811 215.636 146.566 216.593C147.328 217.55 147.708 218.953 147.708 220.802C147.708 222.039 147.529 223.081 147.171 223.927C146.813 224.767 146.319 225.402 145.687 225.831C145.056 226.261 144.33 226.476 143.509 226.476C142.982 226.476 142.529 226.411 142.152 226.281C141.774 226.144 141.452 225.971 141.185 225.763C140.918 225.548 140.687 225.32 140.492 225.08H140.335C140.388 225.34 140.427 225.607 140.453 225.88C140.479 226.154 140.492 226.421 140.492 226.681V231.085H137.513V215.363H139.935L140.355 216.779H140.492C140.687 216.486 140.925 216.216 141.205 215.968C141.485 215.721 141.82 215.525 142.21 215.382C142.608 215.233 143.067 215.158 143.587 215.158ZM142.63 217.54C142.11 217.54 141.696 217.648 141.39 217.863C141.084 218.078 140.86 218.4 140.716 218.83C140.58 219.259 140.505 219.803 140.492 220.46V220.783C140.492 221.486 140.557 222.081 140.687 222.57C140.824 223.058 141.048 223.429 141.361 223.683C141.68 223.937 142.116 224.064 142.669 224.064C143.125 224.064 143.5 223.937 143.792 223.683C144.085 223.429 144.304 223.058 144.447 222.57C144.597 222.075 144.671 221.473 144.671 220.763C144.671 219.695 144.505 218.891 144.173 218.351C143.841 217.811 143.327 217.54 142.63 217.54ZM154.642 215.138C156.107 215.138 157.23 215.457 158.011 216.095C158.792 216.733 159.183 217.703 159.183 219.005V226.281H157.103L156.527 224.796H156.449C156.136 225.187 155.817 225.506 155.492 225.753C155.166 226.001 154.792 226.183 154.369 226.3C153.945 226.417 153.431 226.476 152.826 226.476C152.181 226.476 151.602 226.352 151.087 226.105C150.58 225.858 150.179 225.48 149.886 224.972C149.593 224.458 149.447 223.807 149.447 223.019C149.447 221.86 149.854 221.007 150.667 220.46C151.481 219.907 152.702 219.601 154.33 219.542L156.224 219.484V219.005C156.224 218.432 156.074 218.012 155.775 217.746C155.475 217.479 155.059 217.345 154.525 217.345C153.998 217.345 153.48 217.42 152.972 217.57C152.464 217.72 151.957 217.908 151.449 218.136L150.462 216.124C151.042 215.818 151.69 215.578 152.406 215.402C153.128 215.226 153.874 215.138 154.642 215.138ZM156.224 221.222L155.072 221.261C154.108 221.287 153.438 221.46 153.06 221.779C152.689 222.098 152.503 222.518 152.503 223.039C152.503 223.494 152.637 223.82 152.904 224.015C153.171 224.204 153.519 224.298 153.949 224.298C154.587 224.298 155.124 224.109 155.56 223.732C156.003 223.354 156.224 222.817 156.224 222.121V221.222ZM166.234 215.158C167.022 215.158 167.757 215.262 168.441 215.47C169.125 215.672 169.678 215.988 170.101 216.417C170.524 216.841 170.736 217.387 170.736 218.058C170.736 218.716 170.537 219.24 170.14 219.63C169.743 220.014 169.216 220.291 168.558 220.46V220.558C169.02 220.669 169.437 220.818 169.808 221.007C170.186 221.196 170.485 221.456 170.707 221.789C170.928 222.121 171.039 222.557 171.039 223.097C171.039 223.703 170.847 224.262 170.462 224.777C170.078 225.285 169.489 225.695 168.695 226.007C167.907 226.32 166.895 226.476 165.658 226.476C165.072 226.476 164.518 226.45 163.998 226.398C163.483 226.346 163.011 226.271 162.582 226.173C162.152 226.069 161.778 225.945 161.458 225.802V223.341C161.908 223.55 162.461 223.742 163.119 223.917C163.783 224.093 164.489 224.181 165.238 224.181C165.778 224.181 166.266 224.142 166.703 224.064C167.145 223.986 167.494 223.856 167.748 223.673C168.008 223.484 168.138 223.234 168.138 222.921C168.138 222.628 168.024 222.387 167.796 222.199C167.575 222.003 167.233 221.86 166.771 221.769C166.315 221.671 165.736 221.622 165.033 221.622H163.88V219.562H164.974C165.964 219.562 166.729 219.481 167.269 219.318C167.809 219.155 168.08 218.856 168.08 218.419C168.08 218.068 167.907 217.804 167.562 217.628C167.217 217.453 166.647 217.365 165.853 217.365C165.339 217.365 164.772 217.427 164.154 217.55C163.535 217.667 162.956 217.837 162.416 218.058L161.537 215.978C162.168 215.737 162.852 215.542 163.587 215.392C164.33 215.236 165.212 215.158 166.234 215.158ZM183.294 220.802C183.294 221.714 183.171 222.521 182.923 223.224C182.682 223.927 182.328 224.523 181.859 225.011C181.397 225.493 180.837 225.858 180.179 226.105C179.528 226.352 178.792 226.476 177.972 226.476C177.204 226.476 176.498 226.352 175.853 226.105C175.215 225.858 174.658 225.493 174.183 225.011C173.714 224.523 173.35 223.927 173.089 223.224C172.835 222.521 172.708 221.714 172.708 220.802C172.708 219.591 172.923 218.566 173.353 217.726C173.783 216.886 174.395 216.248 175.189 215.812C175.983 215.376 176.931 215.158 178.031 215.158C179.053 215.158 179.958 215.376 180.746 215.812C181.54 216.248 182.162 216.886 182.611 217.726C183.067 218.566 183.294 219.591 183.294 220.802ZM175.746 220.802C175.746 221.518 175.824 222.121 175.98 222.609C176.136 223.097 176.38 223.465 176.712 223.712C177.044 223.96 177.477 224.083 178.011 224.083C178.539 224.083 178.965 223.96 179.291 223.712C179.623 223.465 179.863 223.097 180.013 222.609C180.169 222.121 180.248 221.518 180.248 220.802C180.248 220.08 180.169 219.481 180.013 219.005C179.863 218.524 179.623 218.162 179.291 217.921C178.958 217.68 178.526 217.56 177.992 217.56C177.204 217.56 176.631 217.83 176.273 218.371C175.921 218.911 175.746 219.721 175.746 220.802ZM195.433 218.224C195.433 218.81 195.248 219.311 194.876 219.728C194.512 220.138 193.972 220.402 193.255 220.519V220.597C194.011 220.688 194.619 220.952 195.082 221.388C195.544 221.818 195.775 222.361 195.775 223.019C195.775 223.644 195.612 224.204 195.287 224.699C194.961 225.187 194.444 225.574 193.734 225.861C193.024 226.141 192.097 226.281 190.951 226.281H185.755V215.363H190.951C191.804 215.363 192.569 215.454 193.246 215.636C193.923 215.812 194.457 216.108 194.847 216.525C195.238 216.942 195.433 217.508 195.433 218.224ZM192.689 222.863C192.689 222.433 192.52 222.124 192.181 221.935C191.849 221.74 191.354 221.642 190.697 221.642H188.734V224.22H190.755C191.315 224.22 191.778 224.116 192.142 223.908C192.507 223.699 192.689 223.351 192.689 222.863ZM192.416 218.458C192.416 218.12 192.282 217.869 192.015 217.706C191.748 217.544 191.354 217.462 190.833 217.462H188.734V219.621H190.492C191.123 219.621 191.602 219.529 191.927 219.347C192.253 219.165 192.416 218.869 192.416 218.458ZM202.806 215.138C204.271 215.138 205.394 215.457 206.175 216.095C206.957 216.733 207.347 217.703 207.347 219.005V226.281H205.267L204.691 224.796H204.613C204.3 225.187 203.981 225.506 203.656 225.753C203.33 226.001 202.956 226.183 202.533 226.3C202.11 226.417 201.595 226.476 200.99 226.476C200.345 226.476 199.766 226.352 199.251 226.105C198.744 225.858 198.343 225.48 198.05 224.972C197.757 224.458 197.611 223.807 197.611 223.019C197.611 221.86 198.018 221.007 198.832 220.46C199.645 219.907 200.866 219.601 202.494 219.542L204.388 219.484V219.005C204.388 218.432 204.238 218.012 203.939 217.746C203.639 217.479 203.223 217.345 202.689 217.345C202.162 217.345 201.644 217.42 201.136 217.57C200.628 217.72 200.121 217.908 199.613 218.136L198.626 216.124C199.206 215.818 199.854 215.578 200.57 215.402C201.292 215.226 202.038 215.138 202.806 215.138ZM204.388 221.222L203.236 221.261C202.272 221.287 201.602 221.46 201.224 221.779C200.853 222.098 200.667 222.518 200.667 223.039C200.667 223.494 200.801 223.82 201.068 224.015C201.335 224.204 201.683 224.298 202.113 224.298C202.751 224.298 203.288 224.109 203.724 223.732C204.167 223.354 204.388 222.817 204.388 222.121V221.222ZM213.402 215.363V219.562H217.562V215.363H220.541V226.281H217.562V221.779H213.402V226.281H210.423V215.363H213.402ZM226.546 215.363V219.679C226.546 219.9 226.537 220.18 226.517 220.519C226.504 220.851 226.485 221.19 226.458 221.535C226.432 221.88 226.406 222.189 226.38 222.462C226.354 222.736 226.335 222.921 226.322 223.019L231.361 215.363H234.945V226.281H232.064V221.925C232.064 221.567 232.077 221.173 232.103 220.744C232.129 220.307 232.158 219.897 232.191 219.513C232.223 219.129 232.246 218.839 232.259 218.644L227.24 226.281H223.666V215.363H226.546ZM239.74 226.281H236.517L239.457 221.964C239.085 221.808 238.737 221.593 238.412 221.32C238.086 221.04 237.822 220.688 237.621 220.265C237.419 219.842 237.318 219.334 237.318 218.742C237.318 217.654 237.728 216.821 238.548 216.242C239.375 215.656 240.44 215.363 241.742 215.363H246.82V226.281H243.841V222.218H242.201L239.74 226.281ZM240.238 218.761C240.238 219.217 240.417 219.575 240.775 219.835C241.139 220.089 241.608 220.216 242.181 220.216H243.841V217.462H241.8C241.266 217.462 240.873 217.593 240.619 217.853C240.365 218.107 240.238 218.41 240.238 218.761ZM268.792 223.878V230.441H265.873V226.281H255.365V212.003H258.392V223.761H263.646V212.003H266.664V223.878H268.792ZM275.257 215.158C276.266 215.158 277.136 215.353 277.865 215.744C278.594 216.128 279.157 216.688 279.554 217.423C279.951 218.159 280.15 219.057 280.15 220.119V221.564H273.109C273.141 222.404 273.392 223.065 273.861 223.546C274.336 224.022 274.994 224.259 275.833 224.259C276.53 224.259 277.168 224.188 277.748 224.044C278.327 223.901 278.923 223.686 279.535 223.4V225.705C278.994 225.971 278.428 226.167 277.835 226.29C277.25 226.414 276.537 226.476 275.697 226.476C274.603 226.476 273.633 226.274 272.787 225.871C271.947 225.467 271.286 224.852 270.804 224.025C270.329 223.198 270.091 222.156 270.091 220.9C270.091 219.624 270.306 218.563 270.736 217.716C271.172 216.863 271.778 216.225 272.552 215.802C273.327 215.372 274.229 215.158 275.257 215.158ZM275.277 217.277C274.697 217.277 274.216 217.462 273.832 217.833C273.454 218.205 273.236 218.787 273.177 219.581H277.357C277.35 219.139 277.269 218.745 277.113 218.4C276.963 218.055 276.735 217.781 276.429 217.58C276.13 217.378 275.746 217.277 275.277 217.277ZM292.347 226.281H289.369V217.599H286.625C286.488 219.201 286.325 220.565 286.136 221.691C285.947 222.817 285.707 223.735 285.414 224.445C285.121 225.148 284.756 225.662 284.32 225.988C283.884 226.313 283.347 226.476 282.708 226.476C282.357 226.476 282.041 226.45 281.761 226.398C281.488 226.346 281.237 226.268 281.009 226.164V223.781C281.153 223.839 281.306 223.888 281.468 223.927C281.631 223.96 281.797 223.976 281.966 223.976C282.155 223.976 282.334 223.901 282.503 223.751C282.673 223.602 282.832 223.345 282.982 222.98C283.132 222.609 283.272 222.098 283.402 221.447C283.539 220.796 283.662 219.972 283.773 218.976C283.884 217.98 283.988 216.775 284.085 215.363H292.347V226.281ZM298.363 215.363V219.679C298.363 219.9 298.353 220.18 298.333 220.519C298.32 220.851 298.301 221.19 298.275 221.535C298.249 221.88 298.223 222.189 298.197 222.462C298.171 222.736 298.151 222.921 298.138 223.019L303.177 215.363H306.761V226.281H303.88V221.925C303.88 221.567 303.893 221.173 303.919 220.744C303.945 220.307 303.975 219.897 304.007 219.513C304.04 219.129 304.063 218.839 304.076 218.644L299.056 226.281H295.482V215.363H298.363ZM318.929 217.599H315.355V226.281H312.376V217.599H308.792V215.363H318.929V217.599ZM325.472 215.158C326.481 215.158 327.35 215.353 328.08 215.744C328.809 216.128 329.372 216.688 329.769 217.423C330.166 218.159 330.365 219.057 330.365 220.119V221.564H323.324C323.356 222.404 323.607 223.065 324.076 223.546C324.551 224.022 325.208 224.259 326.048 224.259C326.745 224.259 327.383 224.188 327.962 224.044C328.542 223.901 329.138 223.686 329.75 223.4V225.705C329.209 225.971 328.643 226.167 328.05 226.29C327.464 226.414 326.751 226.476 325.912 226.476C324.818 226.476 323.848 226.274 323.001 225.871C322.162 225.467 321.501 224.852 321.019 224.025C320.544 223.198 320.306 222.156 320.306 220.9C320.306 219.624 320.521 218.563 320.951 217.716C321.387 216.863 321.992 216.225 322.767 215.802C323.542 215.372 324.444 215.158 325.472 215.158ZM325.492 217.277C324.912 217.277 324.431 217.462 324.046 217.833C323.669 218.205 323.451 218.787 323.392 219.581H327.572C327.565 219.139 327.484 218.745 327.328 218.4C327.178 218.055 326.95 217.781 326.644 217.58C326.345 217.378 325.96 217.277 325.492 217.277ZM342.562 226.281H339.583V217.599H336.839C336.703 219.201 336.54 220.565 336.351 221.691C336.162 222.817 335.921 223.735 335.628 224.445C335.335 225.148 334.971 225.662 334.535 225.988C334.098 226.313 333.561 226.476 332.923 226.476C332.572 226.476 332.256 226.45 331.976 226.398C331.703 226.346 331.452 226.268 331.224 226.164V223.781C331.367 223.839 331.52 223.888 331.683 223.927C331.846 223.96 332.012 223.976 332.181 223.976C332.37 223.976 332.549 223.901 332.718 223.751C332.888 223.602 333.047 223.345 333.197 222.98C333.347 222.609 333.486 222.098 333.617 221.447C333.753 220.796 333.877 219.972 333.988 218.976C334.098 217.98 334.203 216.775 334.3 215.363H342.562V226.281ZM350.199 215.158C351.208 215.158 352.077 215.353 352.806 215.744C353.535 216.128 354.098 216.688 354.496 217.423C354.893 218.159 355.091 219.057 355.091 220.119V221.564H348.05C348.083 222.404 348.333 223.065 348.802 223.546C349.278 224.022 349.935 224.259 350.775 224.259C351.472 224.259 352.11 224.188 352.689 224.044C353.268 223.901 353.864 223.686 354.476 223.4V225.705C353.936 225.971 353.369 226.167 352.777 226.29C352.191 226.414 351.478 226.476 350.638 226.476C349.544 226.476 348.574 226.274 347.728 225.871C346.888 225.467 346.227 224.852 345.746 224.025C345.27 223.198 345.033 222.156 345.033 220.9C345.033 219.624 345.248 218.563 345.677 217.716C346.113 216.863 346.719 216.225 347.494 215.802C348.268 215.372 349.17 215.158 350.199 215.158ZM350.218 217.277C349.639 217.277 349.157 217.462 348.773 217.833C348.395 218.205 348.177 218.787 348.119 219.581H352.298C352.292 219.139 352.21 218.745 352.054 218.4C351.904 218.055 351.677 217.781 351.371 217.58C351.071 217.378 350.687 217.277 350.218 217.277ZM360.394 215.363V219.679C360.394 219.9 360.384 220.18 360.365 220.519C360.352 220.851 360.332 221.19 360.306 221.535C360.28 221.88 360.254 222.189 360.228 222.462C360.202 222.736 360.182 222.921 360.169 223.019L365.208 215.363H368.792V226.281H365.912V221.925C365.912 221.567 365.925 221.173 365.951 220.744C365.977 220.307 366.006 219.897 366.039 219.513C366.071 219.129 366.094 218.839 366.107 218.644L361.087 226.281H357.513V215.363H360.394ZM367.972 210.665C367.901 211.356 367.705 211.964 367.386 212.492C367.067 213.019 366.569 213.429 365.892 213.722C365.215 214.015 364.304 214.162 363.158 214.162C361.979 214.162 361.061 214.022 360.404 213.742C359.746 213.455 359.278 213.052 358.998 212.531C358.718 212.003 358.548 211.382 358.49 210.665H361.156C361.214 211.401 361.4 211.889 361.712 212.13C362.025 212.365 362.526 212.482 363.216 212.482C363.789 212.482 364.258 212.352 364.623 212.091C364.987 211.831 365.205 211.356 365.277 210.665H367.972ZM112.669 248.859L107.875 242.003H110.99L115.609 248.917V242.003H118.431V248.917L123.05 242.003H126.175L121.371 248.859L126.449 256.281H123.207L118.431 249.044V256.281H115.609V249.044L110.833 256.281H107.591L112.669 248.859ZM130.902 245.363V249.679C130.902 249.9 130.892 250.18 130.873 250.519C130.86 250.851 130.84 251.19 130.814 251.535C130.788 251.88 130.762 252.189 130.736 252.462C130.71 252.736 130.69 252.921 130.677 253.019L135.716 245.363H139.3V256.281H136.419V251.925C136.419 251.567 136.432 251.173 136.458 250.744C136.485 250.307 136.514 249.897 136.546 249.513C136.579 249.129 136.602 248.839 136.615 248.644L131.595 256.281H128.021V245.363H130.902ZM146.41 245.158C147.197 245.158 147.933 245.262 148.617 245.47C149.3 245.672 149.854 245.988 150.277 246.417C150.7 246.841 150.912 247.387 150.912 248.058C150.912 248.716 150.713 249.24 150.316 249.63C149.919 250.014 149.391 250.291 148.734 250.46V250.558C149.196 250.669 149.613 250.818 149.984 251.007C150.361 251.196 150.661 251.456 150.882 251.789C151.104 252.121 151.214 252.557 151.214 253.097C151.214 253.703 151.022 254.262 150.638 254.777C150.254 255.285 149.665 255.695 148.871 256.007C148.083 256.32 147.07 256.476 145.833 256.476C145.248 256.476 144.694 256.45 144.173 256.398C143.659 256.346 143.187 256.271 142.757 256.173C142.328 256.069 141.953 255.945 141.634 255.802V253.341C142.083 253.55 142.637 253.742 143.294 253.917C143.958 254.093 144.665 254.181 145.414 254.181C145.954 254.181 146.442 254.142 146.878 254.064C147.321 253.986 147.669 253.856 147.923 253.673C148.184 253.484 148.314 253.234 148.314 252.921C148.314 252.628 148.2 252.387 147.972 252.199C147.751 252.003 147.409 251.86 146.947 251.769C146.491 251.671 145.912 251.622 145.208 251.622H144.056V249.562H145.15C146.139 249.562 146.904 249.481 147.445 249.318C147.985 249.155 148.255 248.856 148.255 248.419C148.255 248.068 148.083 247.804 147.738 247.628C147.393 247.453 146.823 247.365 146.029 247.365C145.514 247.365 144.948 247.427 144.33 247.55C143.711 247.667 143.132 247.837 142.591 248.058L141.712 245.978C142.344 245.737 143.028 245.542 143.763 245.392C144.505 245.236 145.388 245.158 146.41 245.158ZM156.527 245.363V249.562H160.687V245.363H163.666V256.281H160.687V251.779H156.527V256.281H153.548V245.363H156.527ZM169.671 245.363V249.679C169.671 249.9 169.662 250.18 169.642 250.519C169.629 250.851 169.61 251.19 169.583 251.535C169.557 251.88 169.531 252.189 169.505 252.462C169.479 252.736 169.46 252.921 169.447 253.019L174.486 245.363H178.07V256.281H175.189V251.925C175.189 251.567 175.202 251.173 175.228 250.744C175.254 250.307 175.283 249.897 175.316 249.513C175.348 249.129 175.371 248.839 175.384 248.644L170.365 256.281H166.791V245.363H169.671Z" fill="#1A1B20"/>
</svg>
