<svg width="345" height="385" viewBox="0 0 345 385" fill="none" xmlns="http://www.w3.org/2000/svg">
<circle cx="173" cy="217" r="166.5" stroke="#B2D16C" stroke-width="3"/>
<path d="M52.96 221.4V234H51.7V223.308L47.29 230.688H47.11L42.7 223.308V234H41.44V221.4H43.006L47.2 228.42L51.394 221.4H52.96ZM59.3105 228.42C60.1505 228.42 60.8585 228.684 61.4345 229.212C62.0225 229.728 62.3165 230.394 62.3165 231.21C62.3165 232.026 62.0225 232.698 61.4345 233.226C60.8585 233.742 60.1505 234 59.3105 234H55.6565V225H56.8445V228.42H59.3105ZM63.5765 225H64.7645V234H63.5765V225ZM59.3105 232.848C59.8145 232.848 60.2405 232.698 60.5885 232.398C60.9485 232.098 61.1285 231.702 61.1285 231.21C61.1285 230.718 60.9485 230.322 60.5885 230.022C60.2405 229.722 59.8145 229.572 59.3105 229.572H56.8445V232.848H59.3105ZM78.2732 225H79.5332L75.6812 234.828C75.3332 235.716 74.8352 236.412 74.1872 236.916C73.5512 237.432 72.8372 237.66 72.0452 237.6V236.484C73.1252 236.604 73.9472 235.98 74.5112 234.612L74.7452 234.054L70.7132 225H71.9732L75.3572 232.542L78.2732 225ZM88.529 225V234H87.341V226.152H82.157V234H80.969V225H88.529ZM95.8653 224.784C97.1493 224.784 98.2413 225.24 99.1413 226.152C100.053 227.064 100.509 228.18 100.509 229.5C100.509 230.82 100.053 231.936 99.1413 232.848C98.2413 233.76 97.1493 234.216 95.8653 234.216C94.2693 234.216 93.0573 233.556 92.2293 232.236V237.6H91.0413V225H92.2293V226.764C93.0573 225.444 94.2693 224.784 95.8653 224.784ZM93.2553 232.038C93.9393 232.722 94.7793 233.064 95.7753 233.064C96.7713 233.064 97.6113 232.722 98.2953 232.038C98.9793 231.342 99.3213 230.496 99.3213 229.5C99.3213 228.504 98.9793 227.664 98.2953 226.98C97.6113 226.284 96.7713 225.936 95.7753 225.936C94.7793 225.936 93.9393 226.284 93.2553 226.98C92.5713 227.664 92.2293 228.504 92.2293 229.5C92.2293 230.496 92.5713 231.342 93.2553 232.038ZM110.225 225H111.413V234H110.225V232.236C109.397 233.556 108.185 234.216 106.589 234.216C105.305 234.216 104.207 233.76 103.295 232.848C102.395 231.936 101.945 230.82 101.945 229.5C101.945 228.18 102.395 227.064 103.295 226.152C104.207 225.24 105.305 224.784 106.589 224.784C108.185 224.784 109.397 225.444 110.225 226.764V225ZM104.159 232.038C104.843 232.722 105.683 233.064 106.679 233.064C107.675 233.064 108.515 232.722 109.199 232.038C109.883 231.342 110.225 230.496 110.225 229.5C110.225 228.504 109.883 227.664 109.199 226.98C108.515 226.284 107.675 225.936 106.679 225.936C105.683 225.936 104.843 226.284 104.159 226.98C103.475 227.664 103.133 228.504 103.133 229.5C103.133 230.496 103.475 231.342 104.159 232.038ZM119.652 229.374C120.636 229.734 121.128 230.436 121.128 231.48C121.128 232.212 120.882 232.818 120.39 233.298C119.91 233.766 119.214 234 118.302 234H113.928V225H117.942C118.818 225 119.496 225.228 119.976 225.684C120.456 226.128 120.696 226.704 120.696 227.412C120.696 228.312 120.348 228.966 119.652 229.374ZM117.942 226.152H115.116V228.888H117.942C118.986 228.888 119.508 228.42 119.508 227.484C119.508 227.064 119.37 226.74 119.094 226.512C118.83 226.272 118.446 226.152 117.942 226.152ZM118.302 232.848C118.83 232.848 119.232 232.722 119.508 232.47C119.796 232.218 119.94 231.864 119.94 231.408C119.94 230.988 119.796 230.658 119.508 230.418C119.232 230.166 118.83 230.04 118.302 230.04H115.116V232.848H118.302ZM129.956 225V234H128.768V226.152H124.7V230.166C124.7 231.666 124.412 232.698 123.836 233.262C123.272 233.826 122.492 234.072 121.496 234V232.884C122.18 232.956 122.684 232.794 123.008 232.398C123.344 232.002 123.512 231.258 123.512 230.166V225H129.956ZM138.953 225V234H137.765V230.544H136.217L133.445 234H131.933L134.777 230.508C134.057 230.4 133.463 230.1 132.995 229.608C132.527 229.116 132.293 228.51 132.293 227.79C132.293 226.974 132.581 226.308 133.157 225.792C133.745 225.264 134.459 225 135.299 225H138.953ZM135.299 229.428H137.765V226.152H135.299C134.795 226.152 134.363 226.302 134.003 226.602C133.655 226.902 133.481 227.298 133.481 227.79C133.481 228.282 133.655 228.678 134.003 228.978C134.363 229.278 134.795 229.428 135.299 229.428ZM145.631 224.784C146.963 224.784 148.037 225.258 148.853 226.206C149.681 227.142 150.095 228.252 150.095 229.536C150.095 229.668 150.083 229.854 150.059 230.094H142.157C142.277 231.006 142.661 231.732 143.309 232.272C143.969 232.8 144.779 233.064 145.739 233.064C146.423 233.064 147.011 232.926 147.503 232.65C148.007 232.362 148.385 231.99 148.637 231.534L149.681 232.146C149.285 232.782 148.745 233.286 148.061 233.658C147.377 234.03 146.597 234.216 145.721 234.216C144.305 234.216 143.153 233.772 142.265 232.884C141.377 231.996 140.933 230.868 140.933 229.5C140.933 228.156 141.371 227.034 142.247 226.134C143.123 225.234 144.251 224.784 145.631 224.784ZM145.631 225.936C144.695 225.936 143.909 226.218 143.273 226.782C142.649 227.334 142.277 228.054 142.157 228.942H148.871C148.751 227.994 148.385 227.256 147.773 226.728C147.161 226.2 146.447 225.936 145.631 225.936ZM160.805 225V234H159.617V226.818L156.467 231.93H156.323L153.173 226.818V234H151.985V225H153.353L156.395 229.932L159.437 225H160.805ZM173.583 225V226.152H169.011V234H167.823V225H173.583ZM181.865 225V234H180.677V226.152H176.609V230.166C176.609 231.666 176.321 232.698 175.745 233.262C175.181 233.826 174.401 234.072 173.405 234V232.884C174.089 232.956 174.593 232.794 174.917 232.398C175.253 232.002 175.421 231.258 175.421 230.166V225H181.865ZM191.923 232.866C191.011 233.766 189.895 234.216 188.575 234.216C187.255 234.216 186.133 233.766 185.209 232.866C184.297 231.954 183.841 230.832 183.841 229.5C183.841 228.168 184.297 227.052 185.209 226.152C186.133 225.24 187.255 224.784 188.575 224.784C189.895 224.784 191.011 225.24 191.923 226.152C192.847 227.052 193.309 228.168 193.309 229.5C193.309 230.832 192.847 231.954 191.923 232.866ZM186.055 232.038C186.739 232.722 187.579 233.064 188.575 233.064C189.571 233.064 190.411 232.722 191.095 232.038C191.779 231.342 192.121 230.496 192.121 229.5C192.121 228.504 191.779 227.664 191.095 226.98C190.411 226.284 189.571 225.936 188.575 225.936C187.579 225.936 186.739 226.284 186.055 226.98C185.371 227.664 185.029 228.504 185.029 229.5C185.029 230.496 185.371 231.342 186.055 232.038ZM199.293 234.216C197.997 234.216 196.917 233.79 196.053 232.938C195.189 232.074 194.757 230.958 194.757 229.59C194.757 228.054 194.985 226.878 195.441 226.062C195.897 225.234 196.821 224.484 198.213 223.812C198.477 223.68 198.825 223.524 199.257 223.344C199.701 223.164 200.031 223.02 200.247 222.912C200.475 222.804 200.721 222.666 200.985 222.498C201.249 222.318 201.447 222.12 201.579 221.904C201.711 221.688 201.795 221.43 201.831 221.13L202.767 221.67C202.719 221.958 202.623 222.228 202.479 222.48C202.335 222.732 202.185 222.936 202.029 223.092C201.885 223.248 201.651 223.422 201.327 223.614C201.015 223.794 200.769 223.926 200.589 224.01C200.421 224.082 200.121 224.208 199.689 224.388C199.269 224.568 198.987 224.688 198.843 224.748C198.003 225.108 197.385 225.486 196.989 225.882C196.593 226.266 196.311 226.77 196.143 227.394C196.551 226.854 197.067 226.458 197.691 226.206C198.327 225.942 198.945 225.81 199.545 225.81C200.745 225.81 201.735 226.206 202.515 226.998C203.307 227.778 203.703 228.78 203.703 230.004C203.703 231.216 203.283 232.224 202.443 233.028C201.615 233.82 200.565 234.216 199.293 234.216ZM199.293 233.028C200.229 233.028 200.997 232.746 201.597 232.182C202.209 231.606 202.515 230.88 202.515 230.004C202.515 229.116 202.227 228.39 201.651 227.826C201.087 227.25 200.331 226.962 199.383 226.962C198.531 226.962 197.757 227.232 197.061 227.772C196.365 228.3 196.017 229.008 196.017 229.896C196.017 230.808 196.329 231.558 196.953 232.146C197.589 232.734 198.369 233.028 199.293 233.028ZM213.25 225H214.438V234H213.25V232.236C212.422 233.556 211.21 234.216 209.614 234.216C208.33 234.216 207.232 233.76 206.32 232.848C205.42 231.936 204.97 230.82 204.97 229.5C204.97 228.18 205.42 227.064 206.32 226.152C207.232 225.24 208.33 224.784 209.614 224.784C211.21 224.784 212.422 225.444 213.25 226.764V225ZM207.184 232.038C207.868 232.722 208.708 233.064 209.704 233.064C210.7 233.064 211.54 232.722 212.224 232.038C212.908 231.342 213.25 230.496 213.25 229.5C213.25 228.504 212.908 227.664 212.224 226.98C211.54 226.284 210.7 225.936 209.704 225.936C208.708 225.936 207.868 226.284 207.184 226.98C206.5 227.664 206.158 228.504 206.158 229.5C206.158 230.496 206.5 231.342 207.184 232.038ZM224.333 225V234H223.145V226.152H219.077V230.166C219.077 231.666 218.789 232.698 218.213 233.262C217.649 233.826 216.869 234.072 215.873 234V232.884C216.557 232.956 217.061 232.794 217.385 232.398C217.721 232.002 217.889 231.258 217.889 230.166V225H224.333ZM230.504 228.42C231.344 228.42 232.052 228.684 232.628 229.212C233.216 229.728 233.51 230.394 233.51 231.21C233.51 232.026 233.216 232.698 232.628 233.226C232.052 233.742 231.344 234 230.504 234H226.85V225H228.038V228.42H230.504ZM230.504 232.848C231.008 232.848 231.434 232.698 231.782 232.398C232.142 232.098 232.322 231.702 232.322 231.21C232.322 230.718 232.142 230.322 231.782 230.022C231.434 229.722 231.008 229.572 230.504 229.572H228.038V232.848H230.504ZM241.677 225H242.865V234H241.677V230.076H236.493V234H235.305V225H236.493V228.924H241.677V225ZM252.919 232.866C252.007 233.766 250.891 234.216 249.571 234.216C248.251 234.216 247.129 233.766 246.205 232.866C245.293 231.954 244.837 230.832 244.837 229.5C244.837 228.168 245.293 227.052 246.205 226.152C247.129 225.24 248.251 224.784 249.571 224.784C250.891 224.784 252.007 225.24 252.919 226.152C253.843 227.052 254.305 228.168 254.305 229.5C254.305 230.832 253.843 231.954 252.919 232.866ZM247.051 232.038C247.735 232.722 248.575 233.064 249.571 233.064C250.567 233.064 251.407 232.722 252.091 232.038C252.775 231.342 253.117 230.496 253.117 229.5C253.117 228.504 252.775 227.664 252.091 226.98C251.407 226.284 250.567 225.936 249.571 225.936C248.575 225.936 247.735 226.284 247.051 226.98C246.367 227.664 246.025 228.504 246.025 229.5C246.025 230.496 246.367 231.342 247.051 232.038ZM257.733 223.56V222.516H262.413V223.56H257.733ZM262.845 225H263.853V234H262.665V227.07L257.301 234H256.293V225H257.481V231.93L262.845 225ZM45.454 262.216C44.098 262.216 42.97 261.766 42.07 260.866C41.17 259.954 40.72 258.832 40.72 257.5C40.72 256.168 41.17 255.052 42.07 254.152C42.97 253.24 44.098 252.784 45.454 252.784C46.342 252.784 47.14 253 47.848 253.432C48.556 253.852 49.072 254.422 49.396 255.142L48.424 255.7C48.184 255.16 47.794 254.734 47.254 254.422C46.726 254.098 46.126 253.936 45.454 253.936C44.458 253.936 43.618 254.284 42.934 254.98C42.25 255.664 41.908 256.504 41.908 257.5C41.908 258.496 42.25 259.342 42.934 260.038C43.618 260.722 44.458 261.064 45.454 261.064C46.126 261.064 46.726 260.908 47.254 260.596C47.782 260.272 48.196 259.84 48.496 259.3L49.486 259.876C49.114 260.596 48.568 261.166 47.848 261.586C47.128 262.006 46.33 262.216 45.454 262.216ZM55.2618 252.784C56.5938 252.784 57.6678 253.258 58.4838 254.206C59.3118 255.142 59.7258 256.252 59.7258 257.536C59.7258 257.668 59.7138 257.854 59.6898 258.094H51.7878C51.9078 259.006 52.2918 259.732 52.9398 260.272C53.5998 260.8 54.4098 261.064 55.3698 261.064C56.0538 261.064 56.6418 260.926 57.1338 260.65C57.6378 260.362 58.0158 259.99 58.2678 259.534L59.3118 260.146C58.9158 260.782 58.3758 261.286 57.6918 261.658C57.0078 262.03 56.2278 262.216 55.3518 262.216C53.9358 262.216 52.7838 261.772 51.8958 260.884C51.0078 259.996 50.5638 258.868 50.5638 257.5C50.5638 256.156 51.0018 255.034 51.8778 254.134C52.7538 253.234 53.8818 252.784 55.2618 252.784ZM55.2618 253.936C54.3258 253.936 53.5398 254.218 52.9038 254.782C52.2798 255.334 51.9078 256.054 51.7878 256.942H58.5018C58.3818 255.994 58.0158 255.256 57.4038 254.728C56.7918 254.2 56.0778 253.936 55.2618 253.936ZM67.7439 253V254.152H64.5579V262H63.3699V254.152H60.1839V253H67.7439ZM72.8456 256.42C73.6856 256.42 74.3936 256.684 74.9696 257.212C75.5576 257.728 75.8516 258.394 75.8516 259.21C75.8516 260.026 75.5576 260.698 74.9696 261.226C74.3936 261.742 73.6856 262 72.8456 262H69.1916V253H70.3796V256.42H72.8456ZM72.8456 260.848C73.3496 260.848 73.7756 260.698 74.1236 260.398C74.4836 260.098 74.6636 259.702 74.6636 259.21C74.6636 258.718 74.4836 258.322 74.1236 258.022C73.7756 257.722 73.3496 257.572 72.8456 257.572H70.3796V260.848H72.8456ZM85.3327 252.784C86.6527 252.784 87.7687 253.24 88.6807 254.152C89.6047 255.052 90.0667 256.168 90.0667 257.5C90.0667 258.832 89.6047 259.954 88.6807 260.866C87.7687 261.766 86.6527 262.216 85.3327 262.216C84.1207 262.216 83.0767 261.826 82.2007 261.046C81.3367 260.254 80.8387 259.264 80.7067 258.076H78.8347V262H77.6467V253H78.8347V256.924H80.7067C80.8387 255.736 81.3367 254.752 82.2007 253.972C83.0767 253.18 84.1207 252.784 85.3327 252.784ZM82.8127 260.038C83.4967 260.722 84.3367 261.064 85.3327 261.064C86.3287 261.064 87.1687 260.722 87.8527 260.038C88.5367 259.342 88.8787 258.496 88.8787 257.5C88.8787 256.504 88.5367 255.664 87.8527 254.98C87.1687 254.284 86.3287 253.936 85.3327 253.936C84.3367 253.936 83.4967 254.284 82.8127 254.98C82.1287 255.664 81.7867 256.504 81.7867 257.5C81.7867 258.496 82.1287 259.342 82.8127 260.038ZM108.765 256.006V256.654C108.765 258.214 108.207 259.534 107.091 260.614C105.975 261.682 104.481 262.216 102.609 262.216C100.701 262.216 99.1232 261.586 97.8752 260.326C96.6272 259.066 96.0032 257.524 96.0032 255.7C96.0032 253.876 96.6272 252.334 97.8752 251.074C99.1232 249.814 100.701 249.184 102.609 249.184C103.773 249.184 104.841 249.466 105.813 250.03C106.785 250.594 107.535 251.344 108.063 252.28L106.947 252.928C106.551 252.16 105.963 251.548 105.183 251.092C104.403 250.636 103.545 250.408 102.609 250.408C101.037 250.408 99.7532 250.918 98.7572 251.938C97.7612 252.958 97.2632 254.212 97.2632 255.7C97.2632 257.188 97.7612 258.442 98.7572 259.462C99.7532 260.482 101.037 260.992 102.609 260.992C104.025 260.992 105.159 260.638 106.011 259.93C106.863 259.21 107.349 258.298 107.469 257.194H102.465V256.006H108.765ZM114.904 252.784C116.236 252.784 117.31 253.258 118.126 254.206C118.954 255.142 119.368 256.252 119.368 257.536C119.368 257.668 119.356 257.854 119.332 258.094H111.43C111.55 259.006 111.934 259.732 112.582 260.272C113.242 260.8 114.052 261.064 115.012 261.064C115.696 261.064 116.284 260.926 116.776 260.65C117.28 260.362 117.658 259.99 117.91 259.534L118.954 260.146C118.558 260.782 118.018 261.286 117.334 261.658C116.65 262.03 115.87 262.216 114.994 262.216C113.578 262.216 112.426 261.772 111.538 260.884C110.65 259.996 110.206 258.868 110.206 257.5C110.206 256.156 110.644 255.034 111.52 254.134C112.396 253.234 113.524 252.784 114.904 252.784ZM114.904 253.936C113.968 253.936 113.182 254.218 112.546 254.782C111.922 255.334 111.55 256.054 111.43 256.942H118.144C118.024 255.994 117.658 255.256 117.046 254.728C116.434 254.2 115.72 253.936 114.904 253.936ZM130.852 252.784C131.86 252.784 132.67 253.108 133.282 253.756C133.906 254.404 134.218 255.28 134.218 256.384V262H133.03V256.384C133.03 255.604 132.826 255.004 132.418 254.584C132.022 254.152 131.494 253.936 130.834 253.936C130.09 253.936 129.484 254.188 129.016 254.692C128.56 255.184 128.332 255.958 128.332 257.014V262H127.144V256.384C127.144 255.592 126.952 254.986 126.568 254.566C126.196 254.146 125.686 253.936 125.038 253.936C124.318 253.936 123.706 254.188 123.202 254.692C122.698 255.196 122.446 255.97 122.446 257.014V262H121.258V253H122.446V254.314C123.094 253.294 124.012 252.784 125.2 252.784C126.496 252.784 127.408 253.33 127.936 254.422C128.584 253.33 129.556 252.784 130.852 252.784ZM146.11 252.784C147.118 252.784 147.928 253.108 148.54 253.756C149.164 254.404 149.476 255.28 149.476 256.384V262H148.288V256.384C148.288 255.604 148.084 255.004 147.676 254.584C147.28 254.152 146.752 253.936 146.092 253.936C145.348 253.936 144.742 254.188 144.274 254.692C143.818 255.184 143.59 255.958 143.59 257.014V262H142.402V256.384C142.402 255.592 142.21 254.986 141.826 254.566C141.454 254.146 140.944 253.936 140.296 253.936C139.576 253.936 138.964 254.188 138.46 254.692C137.956 255.196 137.704 255.97 137.704 257.014V262H136.516V253H137.704V254.314C138.352 253.294 139.27 252.784 140.458 252.784C141.754 252.784 142.666 253.33 143.194 254.422C143.842 253.33 144.814 252.784 146.11 252.784ZM159.514 253H160.702V262H159.514V260.236C158.686 261.556 157.474 262.216 155.878 262.216C154.594 262.216 153.496 261.76 152.584 260.848C151.684 259.936 151.234 258.82 151.234 257.5C151.234 256.18 151.684 255.064 152.584 254.152C153.496 253.24 154.594 252.784 155.878 252.784C157.474 252.784 158.686 253.444 159.514 254.764V253ZM153.448 260.038C154.132 260.722 154.972 261.064 155.968 261.064C156.964 261.064 157.804 260.722 158.488 260.038C159.172 259.342 159.514 258.496 159.514 257.5C159.514 256.504 159.172 255.664 158.488 254.98C157.804 254.284 156.964 253.936 155.968 253.936C154.972 253.936 154.132 254.284 153.448 254.98C152.764 255.664 152.422 256.504 152.422 257.5C152.422 258.496 152.764 259.342 153.448 260.038ZM173.441 257.374C174.425 257.734 174.917 258.436 174.917 259.48C174.917 260.212 174.671 260.818 174.179 261.298C173.699 261.766 173.003 262 172.091 262H167.717V253H171.731C172.607 253 173.285 253.228 173.765 253.684C174.245 254.128 174.485 254.704 174.485 255.412C174.485 256.312 174.137 256.966 173.441 257.374ZM171.731 254.152H168.905V256.888H171.731C172.775 256.888 173.297 256.42 173.297 255.484C173.297 255.064 173.159 254.74 172.883 254.512C172.619 254.272 172.235 254.152 171.731 254.152ZM172.091 260.848C172.619 260.848 173.021 260.722 173.297 260.47C173.585 260.218 173.729 259.864 173.729 259.408C173.729 258.988 173.585 258.658 173.297 258.418C173.021 258.166 172.619 258.04 172.091 258.04H168.905V260.848H172.091ZM183.557 249.4H184.637V262H183.377V250.786L180.551 251.632L180.227 250.552L183.557 249.4ZM190.844 253.9C192.08 253.9 193.094 254.29 193.886 255.07C194.678 255.838 195.074 256.834 195.074 258.058C195.074 259.282 194.678 260.284 193.886 261.064C193.094 261.832 192.08 262.216 190.844 262.216C189.608 262.216 188.594 261.832 187.802 261.064C187.01 260.284 186.614 259.282 186.614 258.058C186.614 257.11 186.872 256.27 187.388 255.538L191.51 249.4H192.932L189.836 254.008C190.16 253.936 190.496 253.9 190.844 253.9ZM188.684 260.182C189.236 260.722 189.956 260.992 190.844 260.992C191.732 260.992 192.446 260.722 192.986 260.182C193.538 259.642 193.814 258.934 193.814 258.058C193.814 257.182 193.538 256.474 192.986 255.934C192.446 255.394 191.732 255.124 190.844 255.124C189.956 255.124 189.236 255.394 188.684 255.934C188.144 256.474 187.874 257.182 187.874 258.058C187.874 258.934 188.144 259.642 188.684 260.182ZM205.573 262.216C204.217 262.216 203.089 261.766 202.189 260.866C201.289 259.954 200.839 258.832 200.839 257.5C200.839 256.168 201.289 255.052 202.189 254.152C203.089 253.24 204.217 252.784 205.573 252.784C206.461 252.784 207.259 253 207.967 253.432C208.675 253.852 209.191 254.422 209.515 255.142L208.543 255.7C208.303 255.16 207.913 254.734 207.373 254.422C206.845 254.098 206.245 253.936 205.573 253.936C204.577 253.936 203.737 254.284 203.053 254.98C202.369 255.664 202.027 256.504 202.027 257.5C202.027 258.496 202.369 259.342 203.053 260.038C203.737 260.722 204.577 261.064 205.573 261.064C206.245 261.064 206.845 260.908 207.373 260.596C207.901 260.272 208.315 259.84 208.615 259.3L209.605 259.876C209.233 260.596 208.687 261.166 207.967 261.586C207.247 262.006 206.449 262.216 205.573 262.216ZM217.615 253V254.152H214.429V262H213.241V254.152H210.055V253H217.615ZM223.887 252.784C225.171 252.784 226.263 253.24 227.163 254.152C228.075 255.064 228.531 256.18 228.531 257.5C228.531 258.82 228.075 259.936 227.163 260.848C226.263 261.76 225.171 262.216 223.887 262.216C222.291 262.216 221.079 261.556 220.251 260.236V265.6H219.063V253H220.251V254.764C221.079 253.444 222.291 252.784 223.887 252.784ZM221.277 260.038C221.961 260.722 222.801 261.064 223.797 261.064C224.793 261.064 225.633 260.722 226.317 260.038C227.001 259.342 227.343 258.496 227.343 257.5C227.343 256.504 227.001 255.664 226.317 254.98C225.633 254.284 224.793 253.936 223.797 253.936C222.801 253.936 221.961 254.284 221.277 254.98C220.593 255.664 220.251 256.504 220.251 257.5C220.251 258.496 220.593 259.342 221.277 260.038ZM238.246 253H239.434V262H238.246V260.236C237.418 261.556 236.206 262.216 234.61 262.216C233.326 262.216 232.228 261.76 231.316 260.848C230.416 259.936 229.966 258.82 229.966 257.5C229.966 256.18 230.416 255.064 231.316 254.152C232.228 253.24 233.326 252.784 234.61 252.784C236.206 252.784 237.418 253.444 238.246 254.764V253ZM232.18 260.038C232.864 260.722 233.704 261.064 234.7 261.064C235.696 261.064 236.536 260.722 237.22 260.038C237.904 259.342 238.246 258.496 238.246 257.5C238.246 256.504 237.904 255.664 237.22 254.98C236.536 254.284 235.696 253.936 234.7 253.936C233.704 253.936 232.864 254.284 232.18 254.98C231.496 255.664 231.154 256.504 231.154 257.5C231.154 258.496 231.496 259.342 232.18 260.038ZM248.321 253H249.509V262H248.321V258.076H243.137V262H241.949V253H243.137V256.924H248.321V253ZM264.082 253V262H262.894V254.152H257.71V262H256.522V253H264.082ZM274.136 260.866C273.224 261.766 272.108 262.216 270.788 262.216C269.468 262.216 268.346 261.766 267.422 260.866C266.51 259.954 266.054 258.832 266.054 257.5C266.054 256.168 266.51 255.052 267.422 254.152C268.346 253.24 269.468 252.784 270.788 252.784C272.108 252.784 273.224 253.24 274.136 254.152C275.06 255.052 275.522 256.168 275.522 257.5C275.522 258.832 275.06 259.954 274.136 260.866ZM268.268 260.038C268.952 260.722 269.792 261.064 270.788 261.064C271.784 261.064 272.624 260.722 273.308 260.038C273.992 259.342 274.334 258.496 274.334 257.5C274.334 256.504 273.992 255.664 273.308 254.98C272.624 254.284 271.784 253.936 270.788 253.936C269.792 253.936 268.952 254.284 268.268 254.98C267.584 255.664 267.242 256.504 267.242 257.5C267.242 258.496 267.584 259.342 268.268 260.038ZM46.984 285.374C47.968 285.734 48.46 286.436 48.46 287.48C48.46 288.212 48.214 288.818 47.722 289.298C47.242 289.766 46.546 290 45.634 290H41.26V281H45.274C46.15 281 46.828 281.228 47.308 281.684C47.788 282.128 48.028 282.704 48.028 283.412C48.028 284.312 47.68 284.966 46.984 285.374ZM45.274 282.152H42.448V284.888H45.274C46.318 284.888 46.84 284.42 46.84 283.484C46.84 283.064 46.702 282.74 46.426 282.512C46.162 282.272 45.778 282.152 45.274 282.152ZM45.634 288.848C46.162 288.848 46.564 288.722 46.84 288.47C47.128 288.218 47.272 287.864 47.272 287.408C47.272 286.988 47.128 286.658 46.84 286.418C46.564 286.166 46.162 286.04 45.634 286.04H42.448V288.848H45.634ZM54.454 290.216C53.098 290.216 51.97 289.766 51.07 288.866C50.17 287.954 49.72 286.832 49.72 285.5C49.72 284.168 50.17 283.052 51.07 282.152C51.97 281.24 53.098 280.784 54.454 280.784C55.342 280.784 56.14 281 56.848 281.432C57.556 281.852 58.072 282.422 58.396 283.142L57.424 283.7C57.184 283.16 56.794 282.734 56.254 282.422C55.726 282.098 55.126 281.936 54.454 281.936C53.458 281.936 52.618 282.284 51.934 282.98C51.25 283.664 50.908 284.504 50.908 285.5C50.908 286.496 51.25 287.342 51.934 288.038C52.618 288.722 53.458 289.064 54.454 289.064C55.126 289.064 55.726 288.908 56.254 288.596C56.782 288.272 57.196 287.84 57.496 287.3L58.486 287.876C58.114 288.596 57.568 289.166 56.848 289.586C56.128 290.006 55.33 290.216 54.454 290.216ZM64.2618 280.784C65.5938 280.784 66.6678 281.258 67.4838 282.206C68.3118 283.142 68.7258 284.252 68.7258 285.536C68.7258 285.668 68.7138 285.854 68.6898 286.094H60.7878C60.9078 287.006 61.2918 287.732 61.9398 288.272C62.5998 288.8 63.4098 289.064 64.3698 289.064C65.0538 289.064 65.6418 288.926 66.1338 288.65C66.6378 288.362 67.0158 287.99 67.2678 287.534L68.3118 288.146C67.9158 288.782 67.3758 289.286 66.6918 289.658C66.0078 290.03 65.2278 290.216 64.3518 290.216C62.9358 290.216 61.7838 289.772 60.8958 288.884C60.0078 287.996 59.5638 286.868 59.5638 285.5C59.5638 284.156 60.0018 283.034 60.8778 282.134C61.7538 281.234 62.8818 280.784 64.2618 280.784ZM64.2618 281.936C63.3258 281.936 62.5398 282.218 61.9038 282.782C61.2798 283.334 60.9078 284.054 60.7878 284.942H67.5018C67.3818 283.994 67.0158 283.256 66.4038 282.728C65.7918 282.2 65.0778 281.936 64.2618 281.936ZM79.4355 281V290H78.2475V282.818L75.0975 287.93H74.9535L71.8035 282.818V290H70.6155V281H71.9835L75.0255 285.932L78.0675 281H79.4355ZM88.4334 281H89.6934L85.8414 290.828C85.4934 291.716 84.9954 292.412 84.3474 292.916C83.7114 293.432 82.9974 293.66 82.2054 293.6V292.484C83.2854 292.604 84.1074 291.98 84.6714 290.612L84.9054 290.054L80.8734 281H82.1334L85.5174 288.542L88.4334 281ZM104.449 281V290H103.261V282.818L100.111 287.93H99.9671L96.8171 282.818V290H95.6291V281H96.9971L100.039 285.932L103.081 281H104.449ZM113.519 281H114.527V290H113.339V283.07L107.975 290H106.967V281H108.155V287.93L113.519 281ZM121.863 280.784C123.147 280.784 124.239 281.24 125.139 282.152C126.051 283.064 126.507 284.18 126.507 285.5C126.507 286.82 126.051 287.936 125.139 288.848C124.239 289.76 123.147 290.216 121.863 290.216C120.267 290.216 119.055 289.556 118.227 288.236V293.6H117.039V281H118.227V282.764C119.055 281.444 120.267 280.784 121.863 280.784ZM119.253 288.038C119.937 288.722 120.777 289.064 121.773 289.064C122.769 289.064 123.609 288.722 124.293 288.038C124.977 287.342 125.319 286.496 125.319 285.5C125.319 284.504 124.977 283.664 124.293 282.98C123.609 282.284 122.769 281.936 121.773 281.936C120.777 281.936 119.937 282.284 119.253 282.98C118.569 283.664 118.227 284.504 118.227 285.5C118.227 286.496 118.569 287.342 119.253 288.038ZM134.611 281H135.871L132.019 290.828C131.671 291.716 131.173 292.412 130.525 292.916C129.889 293.432 129.175 293.66 128.383 293.6V292.484C129.463 292.604 130.285 291.98 130.849 290.612L131.083 290.054L127.051 281H128.311L131.695 288.542L134.611 281Z" fill="#1A1B20"/>
<path d="M66.9785 174.723V186.48H68.8828V193.16H65.9629V189H57.0176V193.16H54.0977V186.48H55.2012C55.5723 185.738 55.9303 184.954 56.2754 184.127C56.6204 183.3 56.9427 182.411 57.2422 181.461C57.5417 180.51 57.8118 179.479 58.0527 178.365C58.2936 177.252 58.4954 176.038 58.6582 174.723H66.9785ZM63.9609 177.242H61.0605C60.9629 177.932 60.8294 178.668 60.6602 179.449C60.4909 180.23 60.2891 181.028 60.0547 181.842C59.8268 182.649 59.5697 183.447 59.2832 184.234C59.0033 185.022 58.7038 185.771 58.3848 186.48H63.9609V177.242ZM86.373 178.082L82.3496 183.316L86.7539 189H83.5703L79.4102 183.463V189H76.6367V183.463L72.4766 189H69.293L73.6973 183.316L69.6738 178.082H72.75L76.6367 183.385V178.082H79.4102V183.385L83.2969 178.082H86.373ZM92.8184 177.877C93.8275 177.877 94.6966 178.072 95.4258 178.463C96.1549 178.847 96.7181 179.407 97.1152 180.143C97.5124 180.878 97.7109 181.777 97.7109 182.838V184.283H90.6699C90.7025 185.123 90.9531 185.784 91.4219 186.266C91.8971 186.741 92.5547 186.979 93.3945 186.979C94.0911 186.979 94.7292 186.907 95.3086 186.764C95.888 186.62 96.4837 186.406 97.0957 186.119V188.424C96.5553 188.691 95.9889 188.886 95.3965 189.01C94.8105 189.133 94.0977 189.195 93.2578 189.195C92.1641 189.195 91.194 188.993 90.3477 188.59C89.5078 188.186 88.847 187.571 88.3652 186.744C87.89 185.917 87.6523 184.876 87.6523 183.619C87.6523 182.343 87.8672 181.282 88.2969 180.436C88.7331 179.583 89.3385 178.945 90.1133 178.521C90.888 178.092 91.7897 177.877 92.8184 177.877ZM92.8379 179.996C92.2585 179.996 91.7767 180.182 91.3926 180.553C91.015 180.924 90.7969 181.507 90.7383 182.301H94.918C94.9115 181.858 94.8301 181.464 94.6738 181.119C94.5241 180.774 94.2962 180.501 93.9902 180.299C93.6908 180.097 93.3066 179.996 92.8379 179.996ZM113.893 178.082V189H111.109V183.639C111.109 183.111 111.119 182.594 111.139 182.086C111.158 181.578 111.188 181.109 111.227 180.68H111.168L108.15 189H105.914L102.848 180.66H102.77C102.822 181.096 102.857 181.565 102.877 182.066C102.896 182.568 102.906 183.118 102.906 183.717V189H100.133V178.082H104.352L107.066 185.484L109.83 178.082H113.893ZM130.787 178.082V189H128.004V183.639C128.004 183.111 128.014 182.594 128.033 182.086C128.053 181.578 128.082 181.109 128.121 180.68H128.062L125.045 189H122.809L119.742 180.66H119.664C119.716 181.096 119.752 181.565 119.771 182.066C119.791 182.568 119.801 183.118 119.801 183.717V189H117.027V178.082H121.246L123.961 185.484L126.725 178.082H130.787ZM138.395 177.857C139.859 177.857 140.982 178.176 141.764 178.814C142.545 179.452 142.936 180.423 142.936 181.725V189H140.855L140.279 187.516H140.201C139.889 187.906 139.57 188.225 139.244 188.473C138.919 188.72 138.544 188.902 138.121 189.02C137.698 189.137 137.184 189.195 136.578 189.195C135.934 189.195 135.354 189.072 134.84 188.824C134.332 188.577 133.932 188.199 133.639 187.691C133.346 187.177 133.199 186.526 133.199 185.738C133.199 184.579 133.606 183.727 134.42 183.18C135.234 182.626 136.454 182.32 138.082 182.262L139.977 182.203V181.725C139.977 181.152 139.827 180.732 139.527 180.465C139.228 180.198 138.811 180.064 138.277 180.064C137.75 180.064 137.232 180.139 136.725 180.289C136.217 180.439 135.709 180.628 135.201 180.855L134.215 178.844C134.794 178.538 135.442 178.297 136.158 178.121C136.881 177.945 137.626 177.857 138.395 177.857ZM139.977 183.941L138.824 183.98C137.861 184.007 137.19 184.179 136.812 184.498C136.441 184.817 136.256 185.237 136.256 185.758C136.256 186.214 136.389 186.539 136.656 186.734C136.923 186.923 137.271 187.018 137.701 187.018C138.339 187.018 138.876 186.829 139.312 186.451C139.755 186.074 139.977 185.536 139.977 184.84V183.941ZM160.465 174.723V177.223H154.469V189H151.441V174.723H160.465ZM172.213 189H169.234V180.318H166.49C166.354 181.92 166.191 183.284 166.002 184.41C165.813 185.536 165.572 186.454 165.279 187.164C164.986 187.867 164.622 188.382 164.186 188.707C163.749 189.033 163.212 189.195 162.574 189.195C162.223 189.195 161.907 189.169 161.627 189.117C161.354 189.065 161.103 188.987 160.875 188.883V186.5C161.018 186.559 161.171 186.607 161.334 186.646C161.497 186.679 161.663 186.695 161.832 186.695C162.021 186.695 162.2 186.62 162.369 186.471C162.538 186.321 162.698 186.064 162.848 185.699C162.997 185.328 163.137 184.817 163.268 184.166C163.404 183.515 163.528 182.691 163.639 181.695C163.749 180.699 163.854 179.495 163.951 178.082H172.213V189ZM185.27 183.521C185.27 184.433 185.146 185.24 184.898 185.943C184.658 186.646 184.303 187.242 183.834 187.73C183.372 188.212 182.812 188.577 182.154 188.824C181.503 189.072 180.768 189.195 179.947 189.195C179.179 189.195 178.473 189.072 177.828 188.824C177.19 188.577 176.633 188.212 176.158 187.73C175.689 187.242 175.325 186.646 175.064 185.943C174.811 185.24 174.684 184.433 174.684 183.521C174.684 182.311 174.898 181.285 175.328 180.445C175.758 179.605 176.37 178.967 177.164 178.531C177.958 178.095 178.906 177.877 180.006 177.877C181.028 177.877 181.933 178.095 182.721 178.531C183.515 178.967 184.137 179.605 184.586 180.445C185.042 181.285 185.27 182.311 185.27 183.521ZM177.721 183.521C177.721 184.238 177.799 184.84 177.955 185.328C178.111 185.816 178.355 186.184 178.688 186.432C179.02 186.679 179.452 186.803 179.986 186.803C180.514 186.803 180.94 186.679 181.266 186.432C181.598 186.184 181.839 185.816 181.988 185.328C182.145 184.84 182.223 184.238 182.223 183.521C182.223 182.799 182.145 182.2 181.988 181.725C181.839 181.243 181.598 180.882 181.266 180.641C180.934 180.4 180.501 180.279 179.967 180.279C179.179 180.279 178.606 180.549 178.248 181.09C177.896 181.63 177.721 182.441 177.721 183.521ZM187.066 182.457C187.066 180.849 187.265 179.482 187.662 178.355C188.059 177.229 188.691 176.331 189.557 175.66C190.423 174.983 191.559 174.524 192.965 174.283C193.668 174.16 194.381 174.059 195.104 173.98C195.833 173.896 196.588 173.801 197.369 173.697L197.711 176.305C197.372 176.344 197.005 176.386 196.607 176.432C196.21 176.477 195.81 176.526 195.406 176.578C195.003 176.624 194.612 176.673 194.234 176.725C193.857 176.77 193.515 176.816 193.209 176.861C192.545 176.965 191.992 177.128 191.549 177.35C191.106 177.571 190.768 177.923 190.533 178.404C190.299 178.886 190.156 179.579 190.104 180.484H190.25C190.406 180.237 190.628 179.986 190.914 179.732C191.201 179.472 191.555 179.257 191.979 179.088C192.402 178.912 192.89 178.824 193.443 178.824C194.316 178.824 195.071 179.003 195.709 179.361C196.347 179.719 196.839 180.253 197.184 180.963C197.535 181.666 197.711 182.545 197.711 183.6C197.711 184.837 197.483 185.872 197.027 186.705C196.578 187.532 195.953 188.154 195.152 188.57C194.352 188.987 193.424 189.195 192.369 189.195C191.562 189.195 190.833 189.049 190.182 188.756C189.531 188.463 188.971 188.03 188.502 187.457C188.04 186.884 187.685 186.181 187.438 185.348C187.19 184.508 187.066 183.544 187.066 182.457ZM192.545 186.783C192.968 186.783 193.336 186.692 193.648 186.51C193.967 186.321 194.215 186.015 194.391 185.592C194.573 185.162 194.664 184.586 194.664 183.863C194.664 182.991 194.518 182.301 194.225 181.793C193.938 181.279 193.447 181.021 192.75 181.021C192.327 181.021 191.93 181.126 191.559 181.334C191.194 181.536 190.885 181.77 190.631 182.037C190.377 182.298 190.201 182.519 190.104 182.701C190.104 183.215 190.143 183.717 190.221 184.205C190.305 184.687 190.439 185.123 190.621 185.514C190.803 185.904 191.051 186.214 191.363 186.441C191.682 186.669 192.076 186.783 192.545 186.783ZM204.645 177.857C206.109 177.857 207.232 178.176 208.014 178.814C208.795 179.452 209.186 180.423 209.186 181.725V189H207.105L206.529 187.516H206.451C206.139 187.906 205.82 188.225 205.494 188.473C205.169 188.72 204.794 188.902 204.371 189.02C203.948 189.137 203.434 189.195 202.828 189.195C202.184 189.195 201.604 189.072 201.09 188.824C200.582 188.577 200.182 188.199 199.889 187.691C199.596 187.177 199.449 186.526 199.449 185.738C199.449 184.579 199.856 183.727 200.67 183.18C201.484 182.626 202.704 182.32 204.332 182.262L206.227 182.203V181.725C206.227 181.152 206.077 180.732 205.777 180.465C205.478 180.198 205.061 180.064 204.527 180.064C204 180.064 203.482 180.139 202.975 180.289C202.467 180.439 201.959 180.628 201.451 180.855L200.465 178.844C201.044 178.538 201.692 178.297 202.408 178.121C203.131 177.945 203.876 177.857 204.645 177.857ZM206.227 183.941L205.074 183.98C204.111 184.007 203.44 184.179 203.062 184.498C202.691 184.817 202.506 185.237 202.506 185.758C202.506 186.214 202.639 186.539 202.906 186.734C203.173 186.923 203.521 187.018 203.951 187.018C204.589 187.018 205.126 186.829 205.562 186.451C206.005 186.074 206.227 185.536 206.227 184.84V183.941ZM222.037 189H219.059V180.318H216.314C216.178 181.92 216.015 183.284 215.826 184.41C215.637 185.536 215.396 186.454 215.104 187.164C214.811 187.867 214.446 188.382 214.01 188.707C213.574 189.033 213.036 189.195 212.398 189.195C212.047 189.195 211.731 189.169 211.451 189.117C211.178 189.065 210.927 188.987 210.699 188.883V186.5C210.842 186.559 210.995 186.607 211.158 186.646C211.321 186.679 211.487 186.695 211.656 186.695C211.845 186.695 212.024 186.62 212.193 186.471C212.363 186.321 212.522 186.064 212.672 185.699C212.822 185.328 212.962 184.817 213.092 184.166C213.229 183.515 213.352 182.691 213.463 181.695C213.574 180.699 213.678 179.495 213.775 178.082H222.037V189Z" fill="#1A1B20"/>
<path d="M340 217C340 194.938 335.667 173.092 327.25 152.709C318.832 132.326 306.494 113.806 290.94 98.2061C275.387 82.6058 256.922 70.231 236.599 61.7882C216.277 53.3454 194.496 49 172.5 49C150.504 49 128.723 53.3455 108.401 61.7882C88.0785 70.231 69.6134 82.6058 54.0596 98.2061C38.5058 113.806 26.1678 132.326 17.7502 152.709C9.33251 173.092 5 194.938 5 217H37.4986C37.4986 199.218 40.9906 181.611 47.775 165.183C54.5595 148.755 64.5036 133.828 77.0396 121.255C89.5757 108.681 104.458 98.7074 120.837 91.9027C137.216 85.098 154.771 81.5956 172.5 81.5956C190.229 81.5956 207.784 85.098 224.163 91.9027C240.542 98.7074 255.424 108.681 267.96 121.255C280.496 133.828 290.441 148.755 297.225 165.183C304.009 181.611 307.501 199.218 307.501 217H340Z" fill="#B2D16C"/>
</svg>
