<svg width="32" height="32" viewBox="0 0 32 32" fill="none" xmlns="http://www.w3.org/2000/svg">
<path d="M29.3332 22.9332C29.3332 24.1332 28.9999 25.2665 28.3999 26.2265C27.2932 28.0798 25.2665 29.3332 22.9332 29.3332C20.5999 29.3332 18.5599 28.0798 17.4665 26.2265C16.8799 25.2665 16.5332 24.1332 16.5332 22.9332C16.5332 19.3999 19.3999 16.5332 22.9332 16.5332C26.4665 16.5332 29.3332 19.3999 29.3332 22.9332Z" stroke="#2B2F36" stroke-width="1.5" stroke-miterlimit="10" stroke-linecap="round" stroke-linejoin="round"/>
<path d="M20.4395 22.9327L22.0128 24.506L25.4261 21.3594" stroke="#2B2F36" stroke-width="1.5" stroke-linecap="round" stroke-linejoin="round"/>
<path d="M29.3327 11.5862C29.3327 14.2128 28.6527 16.5328 27.586 18.5461C26.4127 17.3061 24.7594 16.5329 22.9327 16.5329C19.3994 16.5329 16.5327 19.3995 16.5327 22.9329C16.5327 24.5729 17.1594 26.0662 18.1727 27.1995C17.6794 27.4262 17.226 27.6128 16.826 27.7462C16.3727 27.9062 15.626 27.9062 15.1727 27.7462C11.306 26.4262 2.66602 20.9195 2.66602 11.5862C2.66602 7.46618 5.98602 4.13281 10.0794 4.13281C12.4927 4.13281 14.6527 5.3062 15.9993 7.1062C17.346 5.3062 19.506 4.13281 21.9193 4.13281C26.0127 4.13281 29.3327 7.46618 29.3327 11.5862Z" stroke="#2B2F36" stroke-width="1.5" stroke-linecap="round" stroke-linejoin="round"/>
</svg>
