<svg width="54" height="54" viewBox="0 0 54 54" fill="none" xmlns="http://www.w3.org/2000/svg">
<circle cx="27" cy="27" r="27" fill="#F2F5FF"/>
<circle cx="27" cy="27" r="27" fill="url(#paint0_linear)"/>
<path d="M19.3577 31.7762L19.4575 31.4723L19.293 31.1979C18.4924 29.8624 18.0325 28.3022 18.0325 26.6334C18.0325 21.7035 22.0538 17.7 27.0232 17.7C31.9925 17.7 36.0138 21.7035 36.0138 26.6334C36.0138 31.5632 31.9925 35.5667 27.0232 35.5667C25.4181 35.5667 23.9135 35.1494 22.6108 34.4188L22.3452 34.2699L22.0552 34.3626L18.0927 35.6295L19.3577 31.7762Z" stroke="#B3BDCC" stroke-width="1.4"/>
<path fill-rule="evenodd" clip-rule="evenodd" d="M25.5833 24.9248C25.5545 24.7152 25.3853 24.3826 25.2958 24.1814C25.2064 23.9802 24.7592 22.9741 24.6188 22.851C24.4465 22.6296 23.8358 22.8458 23.6256 22.9647C23.1764 23.2188 23.0385 23.5545 22.9628 23.9922C22.8057 24.9004 23.393 26.5376 23.7716 27.0243C24.2145 27.5937 24.6075 28.1259 25.103 28.6206C25.4541 28.9282 25.7446 29.2441 26.0862 29.4819C27.0155 30.0855 28.0417 30.9094 29.2172 30.6885C29.9764 30.5458 30.7285 30.2876 30.9208 29.6002C31.0133 29.374 31.0673 28.8684 31.0289 28.589C30.9764 28.2069 30.3106 27.9729 30.0342 27.8496C29.5612 27.6387 28.9644 27.4621 28.8139 27.7547C28.6278 28.1166 28.6731 28.6862 28.2718 28.7544C27.962 28.8071 27.6003 28.5804 27.3048 28.4603C26.6313 28.0547 25.9386 27.5094 25.4182 26.8692L25.0382 26.352C24.9583 25.7703 25.5414 25.4676 25.5833 24.9248Z" fill="#B3BDCC"/>
<defs>
<linearGradient id="paint0_linear" x1="27" y1="0" x2="27" y2="54" gradientUnits="userSpaceOnUse">
<stop stop-color="#F2F5FF"/>
<stop offset="1" stop-color="#ECF4FF"/>
</linearGradient>
</defs>
</svg>
