<svg width="74" height="74" viewBox="0 0 74 74" fill="none" xmlns="http://www.w3.org/2000/svg">
<circle cx="37" cy="37" r="37" fill="url(#paint0_linear)"/>
<circle cx="37" cy="37" r="29" fill="url(#paint1_linear)"/>
<path fill-rule="evenodd" clip-rule="evenodd" d="M35.8784 24.0507C28.1934 24.7712 22.8328 31.812 24.2185 39.3651C25.4162 45.8935 31.4884 50.5359 38.0634 49.9502C46.2087 49.2246 51.6846 41.3899 49.5279 33.5472C49.0565 31.8328 48.7019 31.2617 48.1091 31.2617C47.3976 31.2617 47.0419 31.881 47.343 32.5959C48.6514 35.7029 48.5696 38.9913 47.1099 41.9648C44.3692 47.548 37.6202 49.8551 32.0418 47.1155C26.7699 44.5265 24.3726 38.3921 26.4908 32.9114C28.5329 27.6277 34.3188 24.6645 39.8239 26.0832C40.8608 26.3504 42.0538 26.861 42.9206 27.4084L43.272 27.6303L42.459 27.6557C41.6067 27.6824 41.536 27.7 41.3073 27.9434C40.8892 28.3884 41.1084 29.1623 41.6991 29.3262C41.9638 29.3997 45.5862 29.4026 45.8493 29.3295C46.2368 29.222 46.4988 28.8896 46.4988 28.5057C46.4988 28.2156 45.614 24.4852 45.5038 24.311C45.3354 24.0445 45.2346 24.0013 44.7787 24.0001C44.3658 23.999 44.3498 24.0035 44.1867 24.1666C43.8899 24.4632 43.8705 24.645 44.0535 25.4192C44.1407 25.7883 44.2121 26.11 44.2121 26.1341C44.2121 26.1582 44.0235 26.0607 43.7929 25.9175C41.5383 24.5171 38.5132 23.8036 35.8784 24.0507ZM31.9123 32.6968C31.2074 32.9436 31.0782 33.7844 31.677 34.2282C31.8129 34.3289 31.8991 34.3357 33.3285 34.3598L34.8367 34.3852V35.2486V36.112L33.3884 36.1374C31.2417 36.175 31.3875 36.0012 31.3654 38.5498C31.3471 40.6601 31.3545 40.747 31.5744 40.9974C31.8547 41.3164 31.8647 41.3178 33.9483 41.3178C36.0262 41.3178 35.9827 41.3239 36.2739 40.9924C36.643 40.5723 36.486 39.9304 35.9546 39.6865C35.774 39.6036 35.6027 39.5931 34.4174 39.5921L33.0835 39.591V38.7305V37.87L34.5229 37.8544L35.9623 37.8388L36.1664 37.7036C36.5401 37.4564 36.539 37.4639 36.539 35.2357C36.539 32.5106 36.6766 32.6839 34.5115 32.6835C33.7122 32.6834 32.8409 32.6721 32.5754 32.6585C32.26 32.6423 32.0301 32.6556 31.9123 32.6968ZM41.5759 32.6882C41.3622 32.7333 41.1719 32.8715 41.0234 33.0896C40.9115 33.254 40.9091 33.2876 40.9091 34.7018V36.1461L40.3335 36.1291C39.275 36.0977 39.171 35.9445 39.132 34.3598C39.1062 33.3098 39.1005 33.2613 38.9831 33.0968C38.6558 32.6382 37.9284 32.6382 37.6011 33.0968C37.4373 33.3263 37.3861 35.4219 37.5319 35.9234C37.8915 37.1596 38.7755 37.7902 40.2335 37.8506L40.9046 37.8784L40.9196 39.2847L40.9345 40.6911L41.0809 40.8828C41.4676 41.3892 42.2552 41.3116 42.5321 40.74C42.684 40.4266 42.6757 33.3854 42.5232 33.1068C42.354 32.7975 41.9348 32.6123 41.5759 32.6882Z" fill="#AAB7CF"/>
<defs>
<linearGradient id="paint0_linear" x1="37" y1="-6.41089" x2="37" y2="74" gradientUnits="userSpaceOnUse">
<stop stop-color="#ECEEFF"/>
<stop offset="1" stop-color="#B6D2E8"/>
</linearGradient>
<linearGradient id="paint1_linear" x1="37" y1="8" x2="37" y2="66" gradientUnits="userSpaceOnUse">
<stop stop-color="#FCFEFF"/>
<stop offset="1" stop-color="#F3F8FF"/>
</linearGradient>
</defs>
</svg>
