<svg width="74" height="74" viewBox="0 0 74 74" fill="none" xmlns="http://www.w3.org/2000/svg">
<circle cx="37" cy="37" r="37" fill="url(#paint0_linear)"/>
<circle cx="37" cy="37" r="29" fill="url(#paint1_linear)"/>
<path d="M37 38.5491C38.8667 38.5491 40.38 37.0358 40.38 35.1691C40.38 33.3023 38.8667 31.7891 37 31.7891C35.1333 31.7891 33.62 33.3023 33.62 35.1691C33.62 37.0358 35.1333 38.5491 37 38.5491Z" stroke="#AAB7CF" stroke-width="2"/>
<path d="M27.9217 33.1978C30.0558 23.8162 43.955 23.827 46.0783 33.2087C47.3242 38.712 43.9008 43.3703 40.9 46.252C38.7225 48.3537 35.2775 48.3537 33.0892 46.252C30.0992 43.3703 26.6758 38.7012 27.9217 33.1978Z" stroke="#AAB7CF" stroke-width="2"/>
<defs>
<linearGradient id="paint0_linear" x1="37" y1="-6.41089" x2="37" y2="74" gradientUnits="userSpaceOnUse">
<stop stop-color="#ECEEFF"/>
<stop offset="1" stop-color="#B6D2E8"/>
</linearGradient>
<linearGradient id="paint1_linear" x1="37" y1="8" x2="37" y2="66" gradientUnits="userSpaceOnUse">
<stop stop-color="#FCFEFF"/>
<stop offset="1" stop-color="#F3F8FF"/>
</linearGradient>
</defs>
</svg>
