<svg width="86" height="86" viewBox="0 0 86 86" fill="none" xmlns="http://www.w3.org/2000/svg">
<circle cx="43" cy="43" r="43" fill="url(#paint0_linear)"/>
<circle cx="43" cy="43" r="43" fill="url(#paint1_linear)"/>
<circle cx="43" cy="43" r="34" fill="url(#paint2_linear)"/>
<path d="M35.2079 40.1665C34.892 40.1665 34.5888 40.2147 34.2871 40.2586C34.3848 39.9299 34.4854 39.5956 34.6469 39.2952C34.8084 38.8589 35.0606 38.4807 35.3113 38.0996C35.521 37.6873 35.8908 37.4082 36.1628 37.0555C36.4475 36.7127 36.8357 36.4846 37.1431 36.1998C37.4448 35.9023 37.8401 35.7536 38.1546 35.5439C38.4833 35.3555 38.7694 35.1472 39.0754 35.0481L39.839 34.7336L40.5105 34.4545L39.8234 31.709L38.9777 31.913C38.7071 31.981 38.377 32.0603 38.0016 32.1552C37.6177 32.2261 37.2083 32.4202 36.7521 32.5972C36.3016 32.7984 35.7803 32.9344 35.2958 33.2574C34.8084 33.5662 34.246 33.8241 33.7502 34.2377C33.2699 34.6642 32.6905 35.0339 32.2627 35.5765C31.7952 36.0837 31.3333 36.6163 30.9749 37.2227C30.5598 37.8007 30.2779 38.4353 29.9804 39.0629C29.7113 39.6905 29.4945 40.3322 29.3174 40.9556C28.9817 42.2051 28.8315 43.3922 28.7734 44.408C28.7253 45.4252 28.7536 46.2709 28.8131 46.8829C28.8343 47.1719 28.874 47.4524 28.9023 47.6465L28.9378 47.8845L28.9746 47.876C29.2266 49.053 29.8066 50.1346 30.6476 50.9957C31.4886 51.8569 32.5563 52.4623 33.727 52.742C34.8977 53.0217 36.1237 52.9642 37.2632 52.5763C38.4026 52.1883 39.4089 51.4856 40.1657 50.5496C40.9225 49.6136 41.3988 48.4825 41.5396 47.2871C41.6804 46.0917 41.4798 44.8808 40.9612 43.7946C40.4426 42.7084 39.627 41.7912 38.6089 41.1492C37.5907 40.5071 36.4116 40.1664 35.2079 40.1665V40.1665ZM50.7913 40.1665C50.4753 40.1665 50.1722 40.2147 49.8704 40.2586C49.9682 39.9299 50.0688 39.5956 50.2303 39.2952C50.3918 38.8589 50.6439 38.4807 50.8947 38.0996C51.1043 37.6873 51.4741 37.4082 51.7461 37.0555C52.0308 36.7127 52.419 36.4846 52.7264 36.1998C53.0282 35.9023 53.4234 35.7536 53.7379 35.5439C54.0666 35.3555 54.3528 35.1472 54.6588 35.0481L55.4223 34.7336L56.0938 34.4545L55.4068 31.709L54.561 31.913C54.2904 31.981 53.9603 32.0603 53.5849 32.1552C53.201 32.2261 52.7916 32.4202 52.3354 32.5972C51.8863 32.7998 51.3636 32.9344 50.8791 33.2588C50.3918 33.5677 49.8293 33.8255 49.3335 34.2392C48.8533 34.6656 48.2738 35.0353 47.846 35.5765C47.3785 36.0837 46.9167 36.6163 46.5583 37.2227C46.1432 37.8007 45.8613 38.4353 45.5638 39.0629C45.2946 39.6905 45.0778 40.3322 44.9008 40.9556C44.565 42.2051 44.4148 43.3922 44.3568 44.408C44.3086 45.4252 44.3369 46.2709 44.3964 46.8829C44.4177 47.1719 44.4573 47.4524 44.4857 47.6465L44.5211 47.8845L44.5579 47.876C44.8099 49.053 45.3899 50.1346 46.231 50.9957C47.072 51.8569 48.1396 52.4623 49.3103 52.742C50.4811 53.0217 51.7071 52.9642 52.8465 52.5763C53.9859 52.1883 54.9923 51.4856 55.749 50.5496C56.5058 49.6136 56.9822 48.4825 57.1229 47.2871C57.2637 46.0917 57.0632 44.8808 56.5445 43.7946C56.0259 42.7084 55.2103 41.7912 54.1922 41.1492C53.174 40.5071 51.9949 40.1664 50.7913 40.1665V40.1665Z" stroke="#AAB7CF" stroke-width="2"/>
<defs>
<linearGradient id="paint0_linear" x1="43" y1="0" x2="43" y2="86" gradientUnits="userSpaceOnUse">
<stop stop-color="#ECF5FF"/>
<stop offset="1" stop-color="#B6D2E8"/>
</linearGradient>
<linearGradient id="paint1_linear" x1="43" y1="-7.45049" x2="43" y2="86" gradientUnits="userSpaceOnUse">
<stop stop-color="#ECEEFF"/>
<stop offset="1" stop-color="#B6D2E8"/>
</linearGradient>
<linearGradient id="paint2_linear" x1="43" y1="9" x2="43" y2="77" gradientUnits="userSpaceOnUse">
<stop stop-color="#FCFEFF"/>
<stop offset="1" stop-color="#F3F8FF"/>
</linearGradient>
</defs>
</svg>
