<svg width="74" height="74" viewBox="0 0 74 74" fill="none" xmlns="http://www.w3.org/2000/svg">
<circle cx="37" cy="37" r="37" fill="url(#paint0_linear)"/>
<circle cx="37" cy="37" r="29" fill="url(#paint1_linear)"/>
<path d="M46.97 43.33C46.97 43.69 46.89 44.06 46.72 44.42C46.55 44.78 46.33 45.12 46.04 45.44C45.55 45.98 45.01 46.37 44.4 46.62C43.8 46.87 43.15 47 42.45 47C41.43 47 40.34 46.76 39.19 46.27C38.04 45.78 36.89 45.12 35.75 44.29C34.6 43.45 33.51 42.52 32.47 41.49C31.44 40.45 30.51 39.36 29.68 38.22C28.86 37.08 28.2 35.94 27.72 34.81C27.24 33.67 27 32.58 27 31.54C27 30.86 27.12 30.21 27.36 29.61C27.6 29 27.98 28.44 28.51 27.94C29.15 27.31 29.85 27 30.59 27C30.87 27 31.15 27.06 31.4 27.18C31.66 27.3 31.89 27.48 32.07 27.74L34.39 31.01C34.57 31.26 34.7 31.49 34.79 31.71C34.88 31.92 34.93 32.13 34.93 32.32C34.93 32.56 34.86 32.8 34.72 33.03C34.59 33.26 34.4 33.5 34.16 33.74L33.4 34.53C33.29 34.64 33.24 34.77 33.24 34.93C33.24 35.01 33.25 35.08 33.27 35.16C33.3 35.24 33.33 35.3 33.35 35.36C33.53 35.69 33.84 36.12 34.28 36.64C34.73 37.16 35.21 37.69 35.73 38.22C36.27 38.75 36.79 39.24 37.32 39.69C37.84 40.13 38.27 40.43 38.61 40.61C38.66 40.63 38.72 40.66 38.79 40.69C38.87 40.72 38.95 40.73 39.04 40.73C39.21 40.73 39.34 40.67 39.45 40.56L40.21 39.81C40.46 39.56 40.7 39.37 40.93 39.25C41.16 39.11 41.39 39.04 41.64 39.04C41.83 39.04 42.03 39.08 42.25 39.17C42.47 39.26 42.7 39.39 42.95 39.56L46.26 41.91C46.52 42.09 46.7 42.3 46.81 42.55C46.91 42.8 46.97 43.05 46.97 43.33Z" stroke="#AAB7CF" stroke-width="2" stroke-miterlimit="10"/>
<defs>
<linearGradient id="paint0_linear" x1="37" y1="-6.41089" x2="37" y2="74" gradientUnits="userSpaceOnUse">
<stop stop-color="#ECEEFF"/>
<stop offset="1" stop-color="#B6D2E8"/>
</linearGradient>
<linearGradient id="paint1_linear" x1="37" y1="8" x2="37" y2="66" gradientUnits="userSpaceOnUse">
<stop stop-color="#FCFEFF"/>
<stop offset="1" stop-color="#F3F8FF"/>
</linearGradient>
</defs>
</svg>
