<svg width="30" height="30" viewBox="0 0 30 30" fill="none" xmlns="http://www.w3.org/2000/svg">
<path d="M27.5 11.2504V18.7504C27.5 21.8754 26.875 24.0629 25.475 25.4754L17.5 17.5004L27.1625 7.83789C27.3875 8.82539 27.5 9.95039 27.5 11.2504Z" stroke="#80A6D1" stroke-width="1.875" stroke-linecap="round" stroke-linejoin="round"/>
<path d="M27.1625 7.83751L7.83749 27.1625C4.07499 26.3 2.5 23.7 2.5 18.75V11.25C2.5 5 5 2.5 11.25 2.5H18.75C23.7 2.5 26.3 4.07501 27.1625 7.83751Z" stroke="#80A6D1" stroke-width="1.875" stroke-linecap="round" stroke-linejoin="round"/>
<path d="M25.4754 25.475C24.0629 26.875 21.8754 27.5 18.7504 27.5H11.2504C9.9504 27.5 8.82539 27.3875 7.83789 27.1625L17.5004 17.5L25.4754 25.475Z" stroke="#80A6D1" stroke-width="1.875" stroke-linecap="round" stroke-linejoin="round"/>
<path d="M7.7996 9.97539C8.6496 6.31289 14.1496 6.31289 14.9996 9.97539C15.4871 12.1254 14.1371 13.9504 12.9496 15.0754C12.0871 15.9004 10.7246 15.9004 9.84961 15.0754C8.66211 13.9504 7.2996 12.1254 7.7996 9.97539Z" stroke="#80A6D1" stroke-width="1.875"/>
<path d="M11.3681 10.875H11.3794" stroke="#80A6D1" stroke-width="2.5" stroke-linecap="round" stroke-linejoin="round"/>
</svg>
