<svg width="28" height="28" viewBox="0 0 28 28" fill="none" xmlns="http://www.w3.org/2000/svg">
<path d="M19.8337 24.5V22.1667C19.8337 20.929 19.342 19.742 18.4668 18.8668C17.5917 17.9917 16.4047 17.5 15.167 17.5H5.83366C4.59598 17.5 3.409 17.9917 2.53383 18.8668C1.65866 19.742 1.16699 20.929 1.16699 22.1667V24.5" stroke="#80A6D1" stroke-width="2" stroke-linecap="round" stroke-linejoin="round"/>
<path d="M10.4997 12.8333C13.077 12.8333 15.1663 10.744 15.1663 8.16667C15.1663 5.58934 13.077 3.5 10.4997 3.5C7.92235 3.5 5.83301 5.58934 5.83301 8.16667C5.83301 10.744 7.92235 12.8333 10.4997 12.8333Z" stroke="#80A6D1" stroke-width="2" stroke-linecap="round" stroke-linejoin="round"/>
<path d="M26.833 24.4997V22.1664C26.8322 21.1324 26.4881 20.1279 25.8546 19.3107C25.2211 18.4935 24.3342 17.9099 23.333 17.6514" stroke="#80A6D1" stroke-width="2" stroke-linecap="round" stroke-linejoin="round"/>
<path d="M18.667 3.65137C19.6708 3.90839 20.5605 4.49219 21.1959 5.31073C21.8313 6.12927 22.1761 7.136 22.1761 8.1722C22.1761 9.2084 21.8313 10.2151 21.1959 11.0337C20.5605 11.8522 19.6708 12.436 18.667 12.693" stroke="#80A6D1" stroke-width="2" stroke-linecap="round" stroke-linejoin="round"/>
</svg>
