<svg width="27" height="27" viewBox="0 0 27 27" fill="none" xmlns="http://www.w3.org/2000/svg">
<path d="M13.5 21.6875C8.01637 21.6875 3.32719 18.2984 1.39411 13.5C3.32719 8.70163 8.01637 5.3125 13.5 5.3125C18.9836 5.3125 23.6728 8.70163 25.6059 13.5C23.6728 18.2984 18.9836 21.6875 13.5 21.6875ZM7.625 13.5C7.625 16.7431 10.2569 19.375 13.5 19.375C16.7431 19.375 19.375 16.7431 19.375 13.5C19.375 10.2569 16.7431 7.625 13.5 7.625C10.2569 7.625 7.625 10.2569 7.625 13.5ZM10.375 13.5C10.375 11.7706 11.7706 10.375 13.5 10.375C15.2294 10.375 16.625 11.7706 16.625 13.5C16.625 15.2294 15.2294 16.625 13.5 16.625C11.7706 16.625 10.375 15.2294 10.375 13.5Z" stroke="black" stroke-width="0.5"/>
<line x1="5.18892" y1="3.83627" x2="21.5622" y2="22.7285" stroke="black" stroke-width="0.5"/>
</svg>
