<svg width="64" height="64" viewBox="0 0 64 64" fill="none" xmlns="http://www.w3.org/2000/svg">
<circle cx="32" cy="32" r="31.6032" stroke="#2B2F36" stroke-opacity="0.25" stroke-width="0.793651"/>
<path fill-rule="evenodd" clip-rule="evenodd" d="M27.9262 22.0603C29.0015 22.011 29.3443 22 32.0833 22C34.8223 22 35.1652 22.0119 36.2395 22.0603C37.3138 22.1088 38.0472 22.2798 38.6888 22.5275C39.3607 22.7808 39.9703 23.1767 40.4745 23.6887C40.9878 24.1906 41.3838 24.7977 41.6368 25.4688C41.8862 26.1088 42.0567 26.8402 42.1062 27.9099C42.1557 28.9842 42.1667 29.3262 42.1667 32.0571C42.1667 34.789 42.1547 35.131 42.1062 36.2034C42.0576 37.2731 41.8862 38.0045 41.6368 38.6445C41.3838 39.3157 40.9872 39.9238 40.4745 40.4265C39.9703 40.9385 39.3607 41.3335 38.6888 41.5858C38.0472 41.8345 37.3138 42.0045 36.2413 42.0539C35.1652 42.1033 34.8223 42.1143 32.0833 42.1143C29.3443 42.1143 29.0015 42.1024 27.9262 42.0539C26.8537 42.0055 26.1204 41.8345 25.4787 41.5858C24.8058 41.3334 24.1962 40.9378 23.6922 40.4265C23.1792 39.9242 22.7822 39.3164 22.5289 38.6455C22.2805 38.0055 22.11 37.274 22.0605 36.2043C22.011 35.13 22 34.7881 22 32.0571C22 29.3252 22.0119 28.9833 22.0605 27.9118C22.1091 26.8402 22.2805 26.1088 22.5289 25.4688C22.7826 24.7978 23.1799 24.19 23.6931 23.6878C24.1964 23.1762 24.8054 22.7803 25.4778 22.5275C26.1195 22.2798 26.8528 22.1097 27.9253 22.0603H27.9262ZM36.1579 23.8706C35.0946 23.8222 34.7756 23.8121 32.0833 23.8121C29.3911 23.8121 29.0721 23.8222 28.0087 23.8706C27.0252 23.9154 26.4917 24.0791 26.136 24.2171C25.6657 24.4 25.3293 24.6167 24.9764 24.9687C24.6419 25.2933 24.3844 25.6885 24.2229 26.1253C24.0845 26.48 23.9204 27.0121 23.8755 27.9931C23.8269 29.0537 23.8168 29.3719 23.8168 32.0571C23.8168 34.7424 23.8269 35.0606 23.8755 36.1211C23.9204 37.1022 24.0845 37.6343 24.2229 37.989C24.3842 38.4251 24.6418 38.821 24.9764 39.1456C25.3018 39.4793 25.6987 39.7362 26.136 39.8971C26.4917 40.0352 27.0252 40.1988 28.0087 40.2436C29.0721 40.2921 29.3902 40.3021 32.0833 40.3021C34.7765 40.3021 35.0946 40.2921 36.1579 40.2436C37.1415 40.1988 37.675 40.0352 38.0307 39.8971C38.5009 39.7143 38.8373 39.4976 39.1902 39.1456C39.5248 38.821 39.7824 38.4251 39.9437 37.989C40.0822 37.6343 40.2462 37.1022 40.2912 36.1211C40.3397 35.0606 40.3498 34.7424 40.3498 32.0571C40.3498 29.3719 40.3397 29.0537 40.2912 27.9931C40.2462 27.0121 40.0822 26.48 39.9437 26.1253C39.7604 25.6562 39.5432 25.3207 39.1902 24.9687C38.8648 24.635 38.4686 24.3782 38.0307 24.2171C37.675 24.0791 37.1415 23.9154 36.1579 23.8706ZM30.7954 35.1575C31.5147 35.4561 32.3156 35.4964 33.0613 35.2715C33.8071 35.0466 34.4514 34.5704 34.8843 33.9243C35.3172 33.2782 35.5117 32.5023 35.4347 31.729C35.3577 30.9557 35.0139 30.2331 34.4621 29.6846C34.1103 29.3339 33.6849 29.0654 33.2166 28.8984C32.7483 28.7314 32.2487 28.67 31.7538 28.7187C31.2588 28.7674 30.7809 28.925 30.3543 29.18C29.9277 29.435 29.5632 29.7812 29.2869 30.1937C29.0105 30.6061 28.8293 31.0745 28.7563 31.5652C28.6833 32.0559 28.7202 32.5566 28.8645 33.0313C29.0088 33.506 29.2568 33.9429 29.5907 34.3106C29.9245 34.6782 30.336 34.9675 30.7954 35.1575ZM28.4185 28.4018C28.8998 27.9218 29.4711 27.541 30.0999 27.2812C30.7287 27.0215 31.4027 26.8877 32.0833 26.8877C32.764 26.8877 33.4379 27.0215 34.0667 27.2812C34.6955 27.541 35.2669 27.9218 35.7482 28.4018C36.2294 28.8818 36.6112 29.4517 36.8717 30.0789C37.1321 30.7061 37.2662 31.3783 37.2662 32.0571C37.2662 32.736 37.1321 33.4082 36.8717 34.0354C36.6112 34.6625 36.2294 35.2324 35.7482 35.7124C34.7762 36.6819 33.4579 37.2265 32.0833 37.2265C30.7087 37.2265 29.3905 36.6819 28.4185 35.7124C27.4465 34.743 26.9005 33.4281 26.9005 32.0571C26.9005 30.6861 27.4465 29.3713 28.4185 28.4018ZM38.4157 27.6576C38.5349 27.5454 38.6304 27.4104 38.6964 27.2608C38.7625 27.1111 38.7977 26.9497 38.8001 26.7862C38.8025 26.6227 38.772 26.4604 38.7104 26.3088C38.6487 26.1573 38.5572 26.0197 38.4413 25.904C38.3254 25.7884 38.1873 25.6971 38.0354 25.6357C37.8835 25.5742 37.7207 25.5437 37.5568 25.5461C37.3929 25.5485 37.2311 25.5837 37.081 25.6495C36.931 25.7154 36.7957 25.8106 36.6832 25.9296C36.4644 26.1609 36.3446 26.4682 36.3492 26.7862C36.3539 27.1042 36.4826 27.4079 36.7081 27.6328C36.9335 27.8576 37.238 27.986 37.5568 27.9907C37.8756 27.9953 38.1837 27.8758 38.4157 27.6576Z" fill="#2B2F36" fill-opacity="0.27"/>
</svg>
