<svg width="64" height="64" viewBox="0 0 64 64" fill="none" xmlns="http://www.w3.org/2000/svg">
<circle cx="32" cy="32" r="31.6032" stroke="#2B2F36" stroke-opacity="0.25" stroke-width="0.793651"/>
<path d="M24.5114 25.2496C27.7212 25.0832 30.2171 25 32.0003 25C33.7835 25 36.2806 25.0832 39.4915 25.2502C40.3317 25.2938 41.1282 25.6535 41.733 26.2623C42.3378 26.8712 42.7098 27.6879 42.78 28.5607C42.9271 30.3896 43 32.0003 43 33.3934C43 34.8033 42.9247 36.4363 42.7748 38.293C42.7049 39.1558 42.34 39.9639 41.7464 40.5704C41.1529 41.1769 40.37 41.5416 39.5401 41.5981C36.7947 41.785 34.2814 41.8784 32.0003 41.8784C29.7192 41.8784 27.2065 41.785 24.4634 41.5981C23.6337 41.5416 22.8511 41.1772 22.2576 40.5711C21.664 39.965 21.299 39.1573 21.2287 38.2948C21.0758 36.4243 21 34.7901 21 33.3934C21 32.013 21.0741 30.4017 21.2229 28.5589C21.2933 27.6863 21.6655 26.8699 22.2703 26.2613C22.875 25.6527 23.6714 25.2932 24.5114 25.2496V25.2496Z" stroke="#2B2F36" stroke-opacity="0.25" stroke-width="1.8" stroke-linejoin="round"/>
<path d="M30.3076 31.3209V35.5582C30.3076 35.6328 30.3289 35.706 30.3694 35.7701C30.4098 35.8342 30.4678 35.8866 30.5373 35.922C30.6067 35.9573 30.685 35.9742 30.7637 35.9708C30.8425 35.9674 30.9188 35.9438 30.9846 35.9026L34.3423 33.8023C34.4023 33.7648 34.4516 33.7139 34.4858 33.6541C34.52 33.5943 34.5381 33.5274 34.5384 33.4593C34.5387 33.3913 34.5212 33.3243 34.4875 33.2642C34.4539 33.2041 34.405 33.1528 34.3453 33.1148L30.9871 30.9779C30.9215 30.9362 30.8451 30.9121 30.7661 30.9083C30.6871 30.9044 30.6086 30.921 30.5388 30.9562C30.469 30.9914 30.4106 31.0438 30.3699 31.108C30.3292 31.1721 30.3076 31.2456 30.3076 31.3204V31.3209Z" stroke="#2B2F36" stroke-opacity="0.25" stroke-width="1.8" stroke-linejoin="round"/>
</svg>
