<svg width="31" height="12" viewBox="0 0 31 12" fill="none" xmlns="http://www.w3.org/2000/svg">
<path d="M29.5684 6.79365C30.0067 6.79365 30.362 6.43832 30.362 6C30.362 5.56168 30.0067 5.20635 29.5684 5.20635L29.5684 6.79365ZM0.435738 5.4388C0.125797 5.74874 0.125797 6.25125 0.435738 6.56119L5.4865 11.612C5.79644 11.9219 6.29895 11.9219 6.60889 11.612C6.91883 11.302 6.91883 10.7995 6.60889 10.4896L2.11933 6L6.60889 1.51043C6.91883 1.20049 6.91883 0.697977 6.60889 0.388037C6.29895 0.0780976 5.79644 0.0780975 5.4865 0.388037L0.435738 5.4388ZM29.5684 5.20635L0.996933 5.20634L0.996933 6.79365L29.5684 6.79365L29.5684 5.20635Z" fill="white"/>
</svg>
