<svg width="31" height="12" viewBox="0 0 31 12" fill="none" xmlns="http://www.w3.org/2000/svg">
<path d="M29.571 6.79365C30.0094 6.79365 30.3647 6.43832 30.3647 6C30.3647 5.56168 30.0094 5.20635 29.571 5.20635L29.571 6.79365ZM0.438423 5.4388C0.128483 5.74874 0.128483 6.25125 0.438423 6.56119L5.48918 11.612C5.79912 11.9219 6.30164 11.9219 6.61158 11.612C6.92152 11.302 6.92152 10.7995 6.61158 10.4896L2.12201 6L6.61158 1.51043C6.92152 1.20049 6.92152 0.697977 6.61158 0.388037C6.30164 0.0780976 5.79913 0.0780975 5.48919 0.388037L0.438423 5.4388ZM29.571 5.20635L0.999619 5.20634L0.999618 6.79365L29.571 6.79365L29.571 5.20635Z" fill="white"/>
</svg>
