<svg width="27" height="27" viewBox="0 0 27 27" fill="none" xmlns="http://www.w3.org/2000/svg">
<path d="M18.8435 4.005V2.25C18.8435 1.78875 18.461 1.40625 17.9998 1.40625C17.5385 1.40625 17.156 1.78875 17.156 2.25V3.9375H9.84352V2.25C9.84352 1.78875 9.46102 1.40625 8.99977 1.40625C8.53852 1.40625 8.15602 1.78875 8.15602 2.25V4.005C5.11852 4.28625 3.64477 6.0975 3.41977 8.78625C3.39727 9.1125 3.66727 9.3825 3.98227 9.3825H23.0173C23.3435 9.3825 23.6135 9.10125 23.5798 8.78625C23.3548 6.0975 21.881 4.28625 18.8435 4.005Z" fill="#EF2C43"/>
<path d="M22.5 11.07H4.5C3.88125 11.07 3.375 11.5763 3.375 12.195V19.125C3.375 22.5 5.0625 24.75 9 24.75H18C21.9375 24.75 23.625 22.5 23.625 19.125V12.195C23.625 11.5763 23.1187 11.07 22.5 11.07ZM10.3612 20.4863C10.305 20.5313 10.2488 20.5875 10.1925 20.6213C10.125 20.6663 10.0575 20.7 9.99 20.7225C9.9225 20.7563 9.855 20.7788 9.7875 20.79C9.70875 20.8013 9.64125 20.8125 9.5625 20.8125C9.41625 20.8125 9.27 20.7788 9.135 20.7225C8.98875 20.6663 8.87625 20.5875 8.76375 20.4863C8.56125 20.2725 8.4375 19.98 8.4375 19.6875C8.4375 19.395 8.56125 19.1025 8.76375 18.8888C8.87625 18.7875 8.98875 18.7088 9.135 18.6525C9.3375 18.5625 9.5625 18.54 9.7875 18.585C9.855 18.5963 9.9225 18.6188 9.99 18.6525C10.0575 18.675 10.125 18.7088 10.1925 18.7538C10.2488 18.7988 10.305 18.8438 10.3612 18.8888C10.5638 19.1025 10.6875 19.395 10.6875 19.6875C10.6875 19.98 10.5638 20.2725 10.3612 20.4863ZM10.3612 16.5488C10.1475 16.7513 9.855 16.875 9.5625 16.875C9.27 16.875 8.9775 16.7513 8.76375 16.5488C8.56125 16.335 8.4375 16.0425 8.4375 15.75C8.4375 15.4575 8.56125 15.165 8.76375 14.9513C9.07875 14.6363 9.57375 14.535 9.99 14.715C10.1363 14.7713 10.26 14.85 10.3612 14.9513C10.5638 15.165 10.6875 15.4575 10.6875 15.75C10.6875 16.0425 10.5638 16.335 10.3612 16.5488ZM14.2987 20.4863C14.085 20.6888 13.7925 20.8125 13.5 20.8125C13.2075 20.8125 12.915 20.6888 12.7013 20.4863C12.4987 20.2725 12.375 19.98 12.375 19.6875C12.375 19.395 12.4987 19.1025 12.7013 18.8888C13.1175 18.4725 13.8825 18.4725 14.2987 18.8888C14.5013 19.1025 14.625 19.395 14.625 19.6875C14.625 19.98 14.5013 20.2725 14.2987 20.4863ZM14.2987 16.5488C14.2425 16.5938 14.1863 16.6388 14.13 16.6838C14.0625 16.7288 13.995 16.7625 13.9275 16.785C13.86 16.8188 13.7925 16.8413 13.725 16.8525C13.6462 16.8638 13.5787 16.875 13.5 16.875C13.2075 16.875 12.915 16.7513 12.7013 16.5488C12.4987 16.335 12.375 16.0425 12.375 15.75C12.375 15.4575 12.4987 15.165 12.7013 14.9513C12.8025 14.85 12.9262 14.7713 13.0725 14.715C13.4887 14.535 13.9838 14.6363 14.2987 14.9513C14.5013 15.165 14.625 15.4575 14.625 15.75C14.625 16.0425 14.5013 16.335 14.2987 16.5488ZM18.2362 20.4863C18.0225 20.6888 17.73 20.8125 17.4375 20.8125C17.145 20.8125 16.8525 20.6888 16.6388 20.4863C16.4362 20.2725 16.3125 19.98 16.3125 19.6875C16.3125 19.395 16.4362 19.1025 16.6388 18.8888C17.055 18.4725 17.82 18.4725 18.2362 18.8888C18.4387 19.1025 18.5625 19.395 18.5625 19.6875C18.5625 19.98 18.4387 20.2725 18.2362 20.4863ZM18.2362 16.5488C18.18 16.5938 18.1237 16.6388 18.0675 16.6838C18 16.7288 17.9325 16.7625 17.865 16.785C17.7975 16.8188 17.73 16.8413 17.6625 16.8525C17.5837 16.8638 17.505 16.875 17.4375 16.875C17.145 16.875 16.8525 16.7513 16.6388 16.5488C16.4362 16.335 16.3125 16.0425 16.3125 15.75C16.3125 15.4575 16.4362 15.165 16.6388 14.9513C16.7513 14.85 16.8637 14.7713 17.01 14.715C17.2125 14.625 17.4375 14.6025 17.6625 14.6475C17.73 14.6588 17.7975 14.6813 17.865 14.715C17.9325 14.7375 18 14.7713 18.0675 14.8163C18.1237 14.8613 18.18 14.9063 18.2362 14.9513C18.4387 15.165 18.5625 15.4575 18.5625 15.75C18.5625 16.0425 18.4387 16.335 18.2362 16.5488Z" fill="#EF2C43"/>
</svg>
