<svg width="608" height="267" viewBox="0 0 608 267" fill="none" xmlns="http://www.w3.org/2000/svg">
<path fill-rule="evenodd" clip-rule="evenodd" d="M0 22C0 9.84973 9.84974 0 22 0H586C598.15 0 608 9.84974 608 22V99.0035C607.834 99.0012 607.667 99 607.5 99C588.446 99 573 114.446 573 133.5C573 152.554 588.446 168 607.5 168C607.587 168 607.674 168 607.762 167.999C607.841 167.998 607.921 167.998 608 167.996V245C608 257.15 598.15 267 586 267H22C9.84972 267 0 257.15 0 245V167.825C1.15091 167.941 2.31852 168 3.5 168C22.5538 168 38 152.554 38 133.5C38 114.446 22.5538 99 3.5 99C2.31852 99 1.15091 99.0594 0 99.1753V22Z" fill="white"/>
<path d="M27 134H575" stroke="#E4E4E4" stroke-dasharray="8 8"/>
</svg>
