<svg width="20" height="24" viewBox="0 0 20 24" fill="none" xmlns="http://www.w3.org/2000/svg">
<path d="M17 23.6664H3.00002C2.38118 23.6664 1.78769 23.4206 1.3501 22.983C0.912519 22.5454 0.666687 21.9519 0.666687 21.3331V2.66639C0.666687 2.04755 0.912519 1.45406 1.3501 1.01648C1.78769 0.57889 2.38118 0.333058 3.00002 0.333058H11.1667C11.1771 0.331689 11.1877 0.331689 11.1982 0.333058H11.2052C11.2162 0.336501 11.2275 0.338846 11.239 0.340058C11.3417 0.347058 11.4432 0.366891 11.5412 0.399558H11.5902C11.6117 0.41463 11.632 0.431406 11.6509 0.449724C11.7779 0.506241 11.8938 0.585293 11.9927 0.683058L18.9927 7.68306C19.0905 7.78198 19.1695 7.89779 19.226 8.02489C19.2362 8.05012 19.2451 8.07581 19.2529 8.10189L19.2645 8.13456C19.2972 8.23139 19.3159 8.33289 19.3217 8.43556C19.3227 8.44718 19.3255 8.45859 19.3299 8.46939V8.47639C19.3317 8.48405 19.3329 8.49186 19.3334 8.49973V21.3331C19.3334 21.9519 19.0875 22.5454 18.6499 22.983C18.2123 23.4206 17.6189 23.6664 17 23.6664ZM12.828 14.3331V20.1664H13.9247V17.7864H15.628V16.8087H13.9247V15.3142H15.8334V14.3331H12.828ZM8.51135 14.3331V20.1664H9.91835C10.5087 20.1956 11.0804 19.9552 11.4724 19.5131C11.8747 18.9996 12.0763 18.3572 12.0394 17.7059V16.7609C12.0665 16.1164 11.8593 15.484 11.456 14.9806C11.0769 14.5489 10.5227 14.3109 9.94752 14.3331H8.51135ZM4.16669 14.3331V20.1664H5.26335V18.1142H5.99369C6.48135 18.1411 6.95735 17.9602 7.30502 17.6172C7.63635 17.2462 7.80785 16.7609 7.78335 16.2639C7.805 15.7555 7.63326 15.2578 7.30269 14.8709C7.14119 14.6918 6.94205 14.5507 6.71956 14.4577C6.49707 14.3647 6.25675 14.3222 6.01585 14.3331H4.16669ZM11.1667 2.66639V8.49973H17L11.1667 2.66639ZM9.93702 19.1887H9.60802V15.3142H10.007C10.1465 15.306 10.2857 15.3329 10.4121 15.3924C10.5385 15.4519 10.6479 15.5422 10.7304 15.6549C10.9019 16.0084 10.9754 16.4016 10.9427 16.7936V17.8074C10.9684 18.1807 10.8879 18.5541 10.7094 18.8819C10.6152 18.9918 10.4956 19.0772 10.3611 19.1307C10.2265 19.1841 10.081 19.2041 9.93702 19.1887ZM6.01585 17.1331H5.26219V15.3142H6.02635C6.1202 15.3152 6.21225 15.3401 6.29388 15.3864C6.3755 15.4327 6.44402 15.499 6.49302 15.5791C6.61902 15.7879 6.67969 16.0282 6.66802 16.2721C6.68265 16.499 6.6224 16.7244 6.49652 16.9137C6.43931 16.9855 6.36596 17.0428 6.28244 17.0809C6.19892 17.119 6.10758 17.1369 6.01585 17.1331Z" fill="url(#paint0_linear_644_10976)"/>
<defs>
<linearGradient id="paint0_linear_644_10976" x1="20.2529" y1="-2.19585" x2="-0.253023" y2="-0.828933" gradientUnits="userSpaceOnUse">
<stop stop-color="#154BA5"/>
<stop offset="1" stop-color="#01348A"/>
</linearGradient>
</defs>
</svg>
