<svg width="67" height="67" viewBox="0 0 67 67" fill="none" xmlns="http://www.w3.org/2000/svg">
<g opacity="0.4">
<circle cx="33.1581" cy="33.3676" r="31.6581" stroke="white" stroke-width="3"/>
<path d="M33.7249 30.784V37.3465H42.65C41.3374 40.8903 37.9249 43.2528 33.9874 43.2528C28.8686 43.2528 24.7998 39.184 24.7998 34.0652C24.7998 28.9465 28.8686 24.8777 33.9874 24.8777C35.9562 24.8777 37.7937 25.534 39.3687 26.584L39.8937 26.9777L43.8312 21.8589L43.3062 21.4652C40.5499 19.4964 37.3999 18.4464 33.9874 18.4464C25.3248 18.4464 18.2373 25.534 18.2373 34.1965C18.2373 42.8591 25.3248 49.9466 33.9874 49.9466C42.6499 49.9466 49.7375 42.8591 49.7375 34.1965V30.9152H33.7249V30.784Z" fill="white"/>
</g>
</svg>
