<svg width="67" height="67" viewBox="0 0 67 67" fill="none" xmlns="http://www.w3.org/2000/svg">
<g opacity="0.4">
<circle cx="33.1581" cy="33.5256" r="31.6581" stroke="white" stroke-width="3"/>
<path d="M49.4155 42.0062C49.4155 41.8686 49.2778 41.8686 49.2778 41.7309C48.7273 40.6298 47.4885 39.2533 45.8367 37.7393C45.0109 37.051 44.5979 36.5005 44.3226 36.2252C43.9097 35.6746 43.9097 35.2617 44.0474 34.7111C44.185 34.2982 44.7356 33.6099 45.6991 32.3711C46.2496 31.6829 46.5249 31.27 46.9379 30.8571C49.0025 28.1042 49.966 26.3148 49.6907 25.4889L49.5531 25.3513C49.4155 25.2137 49.2778 25.076 49.0025 25.076C48.7272 24.9384 48.3143 24.9384 47.9014 25.076H42.6709C42.5333 25.076 42.5333 25.076 42.258 25.076C42.1203 25.076 41.9827 25.076 41.9827 25.076H41.8451H41.7074L41.5697 25.2136C41.4321 25.3513 41.4321 25.3513 41.4321 25.4889C40.8815 27.003 40.1933 28.2418 39.5051 29.6182C39.0922 30.3065 38.6792 30.9947 38.2663 31.5453C37.8534 32.0959 37.5781 32.5088 37.3028 32.7841C37.0275 33.0594 36.7522 33.197 36.6146 33.4723C36.4769 33.6099 36.2016 33.7476 36.2016 33.6099C36.064 33.6099 35.9263 33.6099 35.9263 33.4723C35.7887 33.3346 35.6511 33.197 35.5134 33.0594C35.3758 32.9217 35.3758 32.6464 35.2381 32.3711C35.2381 32.0958 35.2381 31.8206 35.2381 31.6829C35.2381 31.5453 35.2381 31.1323 35.2381 30.8571C35.2381 30.4441 35.2381 30.1688 35.2381 30.0312C35.2381 29.6183 35.2381 29.0677 35.2381 28.5171C35.2381 27.9665 35.2381 27.5536 35.2381 27.2783C35.2381 27.003 35.2381 26.5901 35.2381 26.3148C35.2381 25.9019 35.2381 25.6266 35.2381 25.4889C35.2381 25.3513 35.1005 25.076 35.1005 24.9384C34.9629 24.8007 34.8252 24.6631 34.6875 24.5254C34.5499 24.3878 34.2746 24.3878 34.137 24.2501C33.4488 24.1125 32.6229 23.9749 31.6594 23.9749C29.4571 23.9749 27.943 24.1125 27.3924 24.3878C27.1171 24.5254 26.8419 24.6631 26.7042 24.9384C26.4289 25.2136 26.4289 25.3513 26.5666 25.3513C27.2548 25.4889 27.8054 25.7642 28.0806 26.1771L28.2183 26.4525C28.3559 26.5901 28.3559 26.8654 28.4936 27.2783C28.6312 27.6912 28.6312 28.1042 28.6312 28.6547C28.6312 29.4806 28.6312 30.3065 28.6312 30.8571C28.6312 31.5453 28.4936 31.9582 28.4936 32.3711C28.4936 32.7841 28.3559 33.0594 28.2183 33.197C28.0807 33.4723 28.0806 33.6099 27.943 33.6099C27.943 33.6099 27.943 33.7476 27.8053 33.7476C27.6677 33.7476 27.5301 33.8852 27.2548 33.8852C27.1171 33.8852 26.8419 33.7476 26.7042 33.6099C26.4289 33.4723 26.1536 33.197 26.016 32.9217C25.7407 32.6464 25.4654 32.2335 25.1901 31.6829C24.9148 31.1323 24.5019 30.5818 24.2266 29.7559L23.9513 29.2053C23.8137 28.93 23.5384 28.3795 23.2631 27.6912C22.9878 27.003 22.7125 26.4525 22.4372 25.7642C22.2996 25.4889 22.162 25.3513 22.0243 25.2136H21.8867C21.8867 25.2136 21.749 25.076 21.6114 25.076C21.4737 25.076 21.3361 24.9384 21.1984 24.9384H16.2432C15.6927 24.9384 15.4174 25.076 15.2797 25.2136L15.1421 25.3513C15.1421 25.3513 15.1421 25.4889 15.1421 25.6266C15.1421 25.7642 15.1421 25.9019 15.2797 26.1771C15.968 27.8289 16.7938 29.4806 17.6197 31.1323C18.4456 32.6464 19.2714 34.0229 19.822 34.9864C20.5102 35.9499 21.0608 36.9134 21.749 37.7393C22.4372 38.5651 22.8502 39.1157 22.9878 39.391C23.2631 39.6663 23.4007 39.8039 23.5384 39.9416L23.9513 40.3545C24.2266 40.6298 24.6395 41.0427 25.1901 41.4556C25.7407 41.8686 26.4289 42.2815 27.1171 42.6944C27.8053 43.1074 28.6312 43.3827 29.4571 43.658C30.4206 43.9333 31.2465 44.0709 32.0723 43.9332H34.137C34.5499 43.9332 34.8252 43.7956 35.1005 43.5203L35.2381 43.3827C35.2381 43.245 35.3758 43.245 35.3758 43.1074C35.3758 42.9697 35.3758 42.8321 35.3758 42.5568C35.3758 42.0062 35.3758 41.5933 35.5134 41.1804C35.6511 40.7674 35.6511 40.4921 35.7887 40.2169C35.9264 39.9416 36.064 39.8039 36.2016 39.6663C36.3393 39.5286 36.4769 39.391 36.4769 39.391H36.6146C36.8898 39.2533 37.3028 39.391 37.5781 39.6663C37.991 39.9416 38.4039 40.3545 38.6792 40.7674C38.9545 41.1804 39.3675 41.5933 39.918 42.1439C40.4686 42.6944 40.8815 43.1074 41.1568 43.245L41.5697 43.5203C41.845 43.658 42.1203 43.7956 42.5333 43.9332C42.9462 44.0709 43.2215 44.0709 43.4968 44.0709L48.1767 43.9332C48.5896 43.9332 49.0025 43.7956 49.2778 43.658C49.5531 43.5203 49.6907 43.3827 49.6907 43.1074C49.6907 42.9697 49.6907 42.6945 49.6907 42.5568C49.4155 42.2815 49.4155 42.1439 49.4155 42.0062Z" fill="white"/>
</g>
</svg>
