<svg width="67" height="66" viewBox="0 0 67 66" fill="none" xmlns="http://www.w3.org/2000/svg">
<path d="M65 33C65 50.3863 50.7957 64.5 33.25 64.5C15.7043 64.5 1.5 50.3863 1.5 33C1.5 15.6137 15.7043 1.5 33.25 1.5C50.7957 1.5 65 15.6137 65 33Z" stroke="white" stroke-width="3"/>
<path d="M37.284 34.7424H34.9499C31.2824 34.7424 27.7258 32.2083 27.7258 25.8718C27.7258 19.2722 31.0604 16.5793 34.4497 16.5793H37.284V34.7424ZM40.9515 13.2H34.6169C28.3918 13.2 23.114 17.6888 23.114 26.4005C23.114 31.6276 25.67 35.4821 30.2271 37.3819L21.7242 51.9549C21.446 52.4302 21.7242 52.8 22.1682 52.8H26.114C26.447 52.8 26.6706 52.6946 26.7816 52.4302L34.5059 38.1216H37.284V52.4302C37.284 52.5891 37.4512 52.8 37.6732 52.8H41.1188C41.4518 52.8 41.5628 52.6411 41.5628 52.3782V13.7274C41.5628 13.359 41.3408 13.2 40.9515 13.2Z" fill="white"/>
</svg>
