<svg width="32" height="20" viewBox="0 0 32 20" fill="none" xmlns="http://www.w3.org/2000/svg">
<path fill-rule="evenodd" clip-rule="evenodd" d="M30.3119 2.21886C30.5194 1.51686 30.3119 1 29.3182 1H26.037C25.202 1 24.817 1.44614 24.6083 1.93857C24.6083 1.93857 22.9395 6.04771 20.5758 8.71686C19.8109 9.49086 19.4634 9.73643 19.0459 9.73643C18.8371 9.73643 18.5234 9.49086 18.5234 8.78757V2.21886C18.5234 1.37543 18.2934 1 17.5984 1H12.4385C11.9173 1 11.6035 1.39086 11.6035 1.76243C11.6035 2.56086 12.786 2.746 12.9073 4.99343V9.87657C12.9073 10.9476 12.716 11.1417 12.2985 11.1417C11.186 11.1417 8.47984 7.01329 6.87363 2.28957C6.56238 1.37029 6.24739 1 5.40866 1H2.12498C1.1875 1 1 1.44614 1 1.93857C1 2.81543 2.11248 7.17143 6.18114 12.9327C8.89358 16.867 12.7123 19 16.1909 19C18.2771 19 18.5346 18.5269 18.5346 17.7104V14.7366C18.5346 13.789 18.7321 13.6 19.3934 13.6C19.8809 13.6 20.7146 13.8469 22.662 15.7433C24.887 17.992 25.2532 19 26.5057 19H29.7869C30.7244 19 31.1944 18.5269 30.9244 17.5909C30.6269 16.66 29.5644 15.3087 28.1557 13.7054C27.3907 12.7926 26.2432 11.809 25.8945 11.3166C25.4082 10.6853 25.547 10.4037 25.8945 9.84186C25.8945 9.84186 29.8944 4.15129 30.3106 2.21886H30.3119Z" fill="#A7A7AE" stroke="#F8F8F8" stroke-width="0.7"/>
</svg>
