<svg width="10" height="20" viewBox="0 0 10 20" fill="none" xmlns="http://www.w3.org/2000/svg">
<path d="M2.014 6.963H2.364V6.613V3.865C2.364 3.85543 2.36397 3.84498 2.36394 3.83368C2.36312 3.54477 2.36075 2.70143 2.80882 1.91802C3.25488 1.13811 4.18877 0.35 6.251 0.35H8.965V3.148H7.061C6.72237 3.148 6.41679 3.31847 6.20585 3.51702C6.00184 3.70906 5.815 3.99611 5.815 4.303V6.601V6.951H6.165H8.93094C8.87022 7.68513 8.79029 8.37374 8.72165 8.90326C8.68304 9.20117 8.64807 9.4482 8.62224 9.624H6.148H5.798V9.974V19.609H2.364V9.973V9.623H2.014H0.35V6.963H2.014Z" fill="#A7A7AE" stroke="#A7A7AE" stroke-width="0.7"/>
</svg>
