<svg width="28" height="17" viewBox="0 0 28 17" fill="none" xmlns="http://www.w3.org/2000/svg">
<path fill-rule="evenodd" clip-rule="evenodd" d="M26.639 1.66265C26.8188 1.04027 26.639 0.582031 25.7778 0.582031H22.9341C22.2104 0.582031 21.8768 0.977574 21.6958 1.41415C21.6958 1.41415 20.2496 5.05725 18.2011 7.42367C17.5381 8.10988 17.2369 8.3276 16.8751 8.3276C16.6942 8.3276 16.4223 8.10988 16.4223 7.48636V1.66265C16.4223 0.91488 16.223 0.582031 15.6206 0.582031H11.1487C10.697 0.582031 10.4251 0.928559 10.4251 1.25799C10.4251 1.96586 11.4499 2.13001 11.555 4.12254V8.45185C11.555 9.40138 11.3892 9.5735 11.0274 9.5735C10.0632 9.5735 7.71788 5.91331 6.32583 1.72534C6.05608 0.91032 5.78309 0.582031 5.05619 0.582031H2.21033C1.39785 0.582031 1.23535 0.977574 1.23535 1.41415C1.23535 2.19156 2.1995 6.05352 5.72567 11.1614C8.07646 14.6494 11.386 16.5405 14.4008 16.5405C16.2089 16.5405 16.432 16.121 16.432 15.3972V12.7606C16.432 11.9205 16.6032 11.753 17.1763 11.753C17.5988 11.753 18.3213 11.9718 20.0091 13.6532C21.9374 15.6469 22.2548 16.5405 23.3403 16.5405H26.184C26.9965 16.5405 27.4038 16.121 27.1698 15.2912C26.912 14.4659 25.9912 13.2679 24.7703 11.8464C24.1073 11.0371 23.1128 10.1651 22.8106 9.72853C22.3892 9.16884 22.5094 8.91921 22.8106 8.42107C22.8106 8.42107 26.2772 3.37591 26.6379 1.66265H26.639Z" fill="#A7A7AE" stroke="#A7A7AE" stroke-width="0.7"/>
</svg>
