<svg width="24" height="19" viewBox="0 0 24 19" fill="none" xmlns="http://www.w3.org/2000/svg">
<path d="M4.51141 1.24956C7.72118 1.08319 10.2171 1 12.0003 1C13.7835 1 16.2806 1.08319 19.4915 1.25016C20.3317 1.29382 21.1282 1.65348 21.733 2.26234C22.3378 2.87119 22.7098 3.68788 22.78 4.56074C22.9271 6.38964 23 8.00032 23 9.3934C23 10.8033 22.9247 12.4363 22.7748 14.293C22.7049 15.1558 22.34 15.9639 21.7464 16.5704C21.1529 17.1769 20.37 17.5416 19.5401 17.5981C16.7947 17.785 14.2814 17.8784 12.0003 17.8784C9.71918 17.8784 7.20648 17.785 4.46335 17.5981C3.63374 17.5416 2.8511 17.1772 2.25756 16.5711C1.66403 15.965 1.29897 15.1573 1.22869 14.2948C1.07584 12.4243 1 10.7901 1 9.3934C1 8.01298 1.07411 6.4017 1.2229 4.55894C1.29335 3.68629 1.6655 2.86989 2.27027 2.26128C2.87504 1.65267 3.67136 1.29319 4.51141 1.24956V1.24956Z" stroke="#A7A7AE" stroke-width="1.8" stroke-linejoin="round"/>
<path d="M10.3076 7.32138V11.5587C10.3076 11.6333 10.3289 11.7065 10.3694 11.7706C10.4098 11.8346 10.4678 11.8871 10.5373 11.9225C10.6067 11.9578 10.685 11.9747 10.7637 11.9712C10.8425 11.9678 10.9188 11.9443 10.9846 11.9031L14.3423 9.80276C14.4023 9.76532 14.4516 9.71442 14.4858 9.65459C14.52 9.59476 14.5381 9.52785 14.5384 9.45982C14.5387 9.39179 14.5212 9.32475 14.4875 9.26465C14.4539 9.20455 14.405 9.15326 14.3453 9.11534L10.9871 6.97839C10.9215 6.93664 10.8451 6.91257 10.7661 6.90874C10.6871 6.90492 10.6086 6.92148 10.5388 6.95666C10.469 6.99184 10.4106 7.04432 10.3699 7.10847C10.3292 7.17263 10.3076 7.24605 10.3076 7.32089V7.32138Z" stroke="#A7A7AE" stroke-width="1.8" stroke-linejoin="round"/>
</svg>
