<svg width="34" height="35" viewBox="0 0 34 35" fill="none" xmlns="http://www.w3.org/2000/svg">
<path fill-rule="evenodd" clip-rule="evenodd" d="M7.5 34.375C5.51088 34.375 3.60322 33.5848 2.1967 32.1783C0.790176 30.7718 0 28.8641 0 26.875C0 24.1131 2.49937 15.3625 7.5 0.625H11.25L7.5 19.375C9.48912 19.375 11.3968 20.1652 12.8033 21.5717C14.2098 22.9782 15 24.8859 15 26.875C15 28.8641 14.2098 30.7718 12.8033 32.1783C11.3968 33.5848 9.48912 34.375 7.5 34.375ZM26.25 34.375C24.2609 34.375 22.3532 33.5848 20.9467 32.1783C19.5402 30.7718 18.75 28.8641 18.75 26.875C18.75 24.1131 21.2494 15.3625 26.25 0.625H30L26.25 19.375C28.2391 19.375 30.1468 20.1652 31.5533 21.5717C32.9598 22.9782 33.75 24.8859 33.75 26.875C33.75 28.8641 32.9598 30.7718 31.5533 32.1783C30.1468 33.5848 28.2391 34.375 26.25 34.375Z" fill="#AFB1C0"/>
</svg>
