<svg width="32" height="29" viewBox="0 0 32 29" fill="none" xmlns="http://www.w3.org/2000/svg">
<path d="M22.75 0.5C20.14 0.5 17.635 1.715 16 3.635C14.365 1.715 11.86 0.5 9.25 0.5C4.63 0.5 1 4.13 1 8.75C1 14.42 6.1 19.04 13.825 26.06L16 28.025L18.175 26.045C25.9 19.04 31 14.42 31 8.75C31 4.13 27.37 0.5 22.75 0.5ZM16.15 23.825L16 23.975L15.85 23.825C8.71 17.36 4 13.085 4 8.75C4 5.75 6.25 3.5 9.25 3.5C11.56 3.5 13.81 4.985 14.605 7.04H17.41C18.19 4.985 20.44 3.5 22.75 3.5C25.75 3.5 28 5.75 28 8.75C28 13.085 23.29 17.36 16.15 23.825Z" fill="white" stroke="white"/>
</svg>
