<svg width="34" height="34" viewBox="0 0 34 34" fill="none" xmlns="http://www.w3.org/2000/svg">
<path fill-rule="evenodd" clip-rule="evenodd" d="M5.12169 13.4263C8.3871 20.5367 14.1978 26.1897 21.4213 29.2528L21.4441 29.2625L22.8396 29.8845C24.6166 30.6762 26.7053 30.1139 27.8446 28.5371L30.1728 25.3147C30.3151 25.1179 30.2784 24.8442 30.0894 24.6918L26.0248 21.4127C25.8228 21.2497 25.5257 21.2876 25.3711 21.4962L23.7891 23.6309C23.405 24.1493 22.7112 24.3294 22.1233 24.0634C16.722 21.619 12.3816 17.2786 9.93719 11.8772C9.67115 11.2894 9.85129 10.5956 10.3697 10.2114L12.5043 8.62948C12.7129 8.47491 12.7509 8.17779 12.5879 7.97573L9.30833 3.91059C9.15591 3.72166 8.88232 3.68496 8.6855 3.82705L5.44571 6.16589C3.85844 7.31175 3.29945 9.418 4.10965 11.2001L5.1206 13.4239L5.12169 13.4263ZM20.3399 31.771C12.4911 28.4393 6.17819 22.2951 2.63008 14.5674L2.62795 14.5627L1.61488 12.3343C0.264547 9.36408 1.19618 5.85368 3.84163 3.9439L7.08142 1.60506C8.4592 0.610436 10.3743 0.86732 11.4413 2.18987L14.7208 6.25501C15.8618 7.66941 15.5961 9.74925 14.136 10.8313L12.9128 11.7377C14.979 15.7469 18.2537 19.0215 22.2628 21.0877L23.1693 19.8645C24.2513 18.4045 26.3312 18.1387 27.7456 19.2798L31.8101 22.5588C33.1331 23.6261 33.3897 25.542 32.3942 26.9197L30.0659 30.1421C28.167 32.7701 24.6859 33.7073 21.7243 32.3878L20.3399 31.771Z" fill="#1A1B20" stroke="white" stroke-width="0.7" stroke-linejoin="round"/>
</svg>
