<svg width="731" height="717" viewBox="0 0 731 717" fill="none" xmlns="http://www.w3.org/2000/svg">
<circle cx="342.5" cy="398.5" r="293.185" stroke="#161D3F" stroke-width="2.63097"/>
<circle cx="342" cy="398" r="244.685" stroke="#161D3F" stroke-width="2.63097"/>
<circle cx="86" cy="581" r="64" fill="white" stroke="#161D3F" stroke-width="4"/>
<path d="M47.6875 688.312C47.6875 690.035 47.0723 691.424 45.8418 692.479C44.6113 693.533 43.0527 694.195 41.166 694.465V694.57C43.5098 694.805 45.3145 695.455 46.5801 696.521C47.8457 697.588 48.4785 698.977 48.4785 700.688C48.4785 702.188 48.0684 703.518 47.248 704.678C46.4277 705.826 45.2148 706.729 43.6094 707.385C42.0039 708.029 40.0176 708.352 37.6504 708.352C35.7051 708.352 33.9766 708.234 32.4648 708C30.9648 707.754 29.6641 707.408 28.5625 706.963V702.393C29.3125 702.744 30.1504 703.049 31.0762 703.307C32.0137 703.553 32.9629 703.746 33.9238 703.887C34.8848 704.016 35.7754 704.08 36.5957 704.08C38.8691 704.08 40.5156 703.752 41.5352 703.096C42.5664 702.439 43.082 701.508 43.082 700.301C43.082 699.07 42.3379 698.174 40.8496 697.611C39.3613 697.049 37.3574 696.768 34.8379 696.768H32.4297V692.514H34.5918C36.6309 692.514 38.2129 692.385 39.3379 692.127C40.4746 691.857 41.2656 691.477 41.7109 690.984C42.168 690.48 42.3965 689.877 42.3965 689.174C42.3965 688.295 42.0039 687.598 41.2188 687.082C40.4336 686.555 39.2676 686.291 37.7207 686.291C36.3848 686.291 35.1367 686.484 33.9766 686.871C32.8164 687.246 31.7324 687.75 30.7246 688.383L28.3516 684.744C29.2305 684.17 30.168 683.672 31.1641 683.25C32.1719 682.828 33.2734 682.506 34.4688 682.283C35.6641 682.049 37 681.932 38.4766 681.932C40.4102 681.932 42.0625 682.207 43.4336 682.758C44.8047 683.309 45.8535 684.064 46.5801 685.025C47.3184 685.975 47.6875 687.07 47.6875 688.312ZM60.959 687.979C62.7754 687.979 64.3398 688.33 65.6523 689.033C66.9648 689.725 67.9785 690.732 68.6934 692.057C69.4082 693.381 69.7656 694.998 69.7656 696.908V699.51H57.0918C57.1504 701.021 57.6016 702.211 58.4453 703.078C59.3008 703.934 60.4844 704.361 61.9961 704.361C63.25 704.361 64.3984 704.232 65.4414 703.975C66.4844 703.717 67.5566 703.33 68.6582 702.814V706.963C67.6855 707.443 66.666 707.795 65.5996 708.018C64.5449 708.24 63.2617 708.352 61.75 708.352C59.7812 708.352 58.0352 707.988 56.5117 707.262C55 706.535 53.8105 705.428 52.9434 703.939C52.0879 702.451 51.6602 700.576 51.6602 698.314C51.6602 696.018 52.0469 694.107 52.8203 692.584C53.6055 691.049 54.6953 689.9 56.0898 689.139C57.4844 688.365 59.1074 687.979 60.959 687.979ZM60.9941 691.793C59.9512 691.793 59.084 692.127 58.3926 692.795C57.7129 693.463 57.3203 694.512 57.2148 695.941H64.7383C64.7266 695.145 64.5801 694.436 64.2988 693.814C64.0293 693.193 63.6191 692.701 63.0684 692.338C62.5293 691.975 61.8379 691.793 60.9941 691.793ZM98.8926 688.348V708H93.8828V698.35C93.8828 697.4 93.9004 696.469 93.9355 695.555C93.9707 694.641 94.0234 693.797 94.0938 693.023H93.9883L88.5566 708H84.5312L79.0117 692.988H78.8711C78.9648 693.773 79.0293 694.617 79.0645 695.52C79.0996 696.422 79.1172 697.412 79.1172 698.49V708H74.125V688.348H81.7188L86.6055 701.672L91.5801 688.348H98.8926ZM122.131 708H116.77V692.373H111.83C111.584 695.256 111.291 697.711 110.951 699.738C110.611 701.766 110.178 703.418 109.65 704.695C109.123 705.961 108.467 706.887 107.682 707.473C106.896 708.059 105.93 708.352 104.781 708.352C104.148 708.352 103.58 708.305 103.076 708.211C102.584 708.117 102.133 707.977 101.723 707.789V703.5C101.98 703.605 102.256 703.693 102.549 703.764C102.842 703.822 103.141 703.852 103.445 703.852C103.785 703.852 104.107 703.717 104.412 703.447C104.717 703.178 105.004 702.715 105.273 702.059C105.543 701.391 105.795 700.471 106.029 699.299C106.275 698.127 106.498 696.645 106.697 694.852C106.896 693.059 107.084 690.891 107.26 688.348H122.131V708ZM130.762 708H124.961L130.252 700.23C129.584 699.949 128.957 699.562 128.371 699.07C127.785 698.566 127.311 697.934 126.947 697.172C126.584 696.41 126.402 695.496 126.402 694.43C126.402 692.473 127.141 690.973 128.617 689.93C130.105 688.875 132.021 688.348 134.365 688.348H143.506V708H138.145V700.688H135.191L130.762 708ZM131.658 694.465C131.658 695.285 131.98 695.93 132.625 696.398C133.281 696.855 134.125 697.084 135.156 697.084H138.145V692.127H134.471C133.51 692.127 132.801 692.361 132.344 692.83C131.887 693.287 131.658 693.832 131.658 694.465Z" fill="#1A1B20"/>
<path d="M335 199C339.438 199 343.476 196.793 346.947 193.204C350.413 189.621 353.442 184.54 355.943 178.426C360.949 166.188 364 149.419 364 131C364 112.581 360.949 95.8118 355.943 83.5737C353.442 77.4595 350.413 72.3794 346.947 68.7962C343.476 65.2071 339.438 63 335 63C330.562 63 326.524 65.2071 323.053 68.7962C319.587 72.3794 316.558 77.4595 314.057 83.5737C309.051 95.8118 306 112.581 306 131C306 149.419 309.051 166.188 314.057 178.426C316.558 184.54 319.587 189.621 323.053 193.204C326.524 196.793 330.562 199 335 199Z" fill="white"/>
<path d="M335 199C339.438 199 343.476 196.793 346.947 193.204C350.413 189.621 353.442 184.54 355.943 178.426C360.949 166.188 364 149.419 364 131C364 112.581 360.949 95.8118 355.943 83.5737C353.442 77.4595 350.413 72.3794 346.947 68.7962C343.476 65.2071 339.438 63 335 63C330.562 63 326.524 65.2071 323.053 68.7962C319.587 72.3794 316.558 77.4595 314.057 83.5737C309.051 95.8118 306 112.581 306 131C306 149.419 309.051 166.188 314.057 178.426C316.558 184.54 319.587 189.621 323.053 193.204C326.524 196.793 330.562 199 335 199Z" fill="white"/>
<path d="M335 199C339.438 199 343.476 196.793 346.947 193.204C350.413 189.621 353.442 184.54 355.943 178.426C360.949 166.188 364 149.419 364 131C364 112.581 360.949 95.8118 355.943 83.5737C353.442 77.4595 350.413 72.3794 346.947 68.7962C343.476 65.2071 339.438 63 335 63C330.562 63 326.524 65.2071 323.053 68.7962C319.587 72.3794 316.558 77.4595 314.057 83.5737C309.051 95.8118 306 112.581 306 131C306 149.419 309.051 166.188 314.057 178.426C316.558 184.54 319.587 189.621 323.053 193.204C326.524 196.793 330.562 199 335 199Z" stroke="#161D3F" stroke-width="4"/>
<path d="M403 131C403 126.562 400.793 122.524 397.204 119.053C393.621 115.587 388.54 112.558 382.426 110.057C370.188 105.051 353.419 102 335 102C316.581 102 299.812 105.051 287.574 110.057C281.46 112.558 276.379 115.587 272.796 119.053C269.207 122.524 267 126.562 267 131C267 135.438 269.207 139.476 272.796 142.947C276.379 146.413 281.46 149.442 287.574 151.943C299.812 156.949 316.581 160 335 160C353.419 160 370.188 156.949 382.426 151.943C388.54 149.442 393.621 146.413 397.204 142.947C400.793 139.476 403 135.438 403 131Z" fill="white" stroke="#161D3F" stroke-width="4"/>
<path d="M335 199C339.438 199 343.476 196.793 346.947 193.204C350.413 189.621 353.442 184.54 355.943 178.426C360.949 166.188 364 149.419 364 131C364 112.581 360.949 95.8118 355.943 83.5737C353.442 77.4595 350.413 72.3794 346.947 68.7962C343.476 65.2071 339.438 63 335 63C330.562 63 326.524 65.2071 323.053 68.7962C319.587 72.3794 316.558 77.4595 314.057 83.5737C309.051 95.8118 306 112.581 306 131C306 149.419 309.051 166.188 314.057 178.426C316.558 184.54 319.587 189.621 323.053 193.204C326.524 196.793 330.562 199 335 199Z" stroke="#161D3F" stroke-width="4"/>
<path d="M253.129 14.582C254.699 14.582 256.094 14.8809 257.312 15.4785C258.543 16.0762 259.51 16.9551 260.213 18.1152C260.916 19.2754 261.268 20.7051 261.268 22.4043C261.268 24.2559 260.881 25.8555 260.107 27.2031C259.346 28.5391 258.203 29.5645 256.68 30.2793C255.168 30.9941 253.281 31.3516 251.02 31.3516C249.672 31.3516 248.4 31.2344 247.205 31C246.021 30.7773 244.984 30.4316 244.094 29.9629V25.2695C244.984 25.7383 246.051 26.1367 247.293 26.4648C248.547 26.7812 249.725 26.9395 250.826 26.9395C251.904 26.9395 252.812 26.7988 253.551 26.5176C254.289 26.2246 254.846 25.7793 255.221 25.1816C255.607 24.5723 255.801 23.7988 255.801 22.8613C255.801 21.6074 255.379 20.6465 254.535 19.9785C253.691 19.3105 252.396 18.9766 250.65 18.9766C249.982 18.9766 249.285 19.041 248.559 19.1699C247.844 19.2988 247.246 19.4277 246.766 19.5566L244.604 18.3965L245.57 5.30078H259.51V9.90625H250.334L249.859 14.9512C250.258 14.8691 250.691 14.7871 251.16 14.7051C251.629 14.623 252.285 14.582 253.129 14.582ZM292.961 21.1387C292.961 22.7793 292.738 24.2324 292.293 25.498C291.859 26.7637 291.221 27.8359 290.377 28.7148C289.545 29.582 288.537 30.2383 287.354 30.6836C286.182 31.1289 284.857 31.3516 283.381 31.3516C281.998 31.3516 280.727 31.1289 279.566 30.6836C278.418 30.2383 277.416 29.582 276.561 28.7148C275.717 27.8359 275.061 26.7637 274.592 25.498C274.135 24.2324 273.906 22.7793 273.906 21.1387C273.906 18.959 274.293 17.1133 275.066 15.6016C275.84 14.0898 276.941 12.9414 278.371 12.1562C279.801 11.3711 281.506 10.9785 283.486 10.9785C285.326 10.9785 286.955 11.3711 288.373 12.1562C289.803 12.9414 290.922 14.0898 291.73 15.6016C292.551 17.1133 292.961 18.959 292.961 21.1387ZM279.373 21.1387C279.373 22.4277 279.514 23.5117 279.795 24.3906C280.076 25.2695 280.516 25.9316 281.113 26.377C281.711 26.8223 282.49 27.0449 283.451 27.0449C284.4 27.0449 285.168 26.8223 285.754 26.377C286.352 25.9316 286.785 25.2695 287.055 24.3906C287.336 23.5117 287.477 22.4277 287.477 21.1387C287.477 19.8379 287.336 18.7598 287.055 17.9043C286.785 17.0371 286.352 16.3867 285.754 15.9531C285.156 15.5195 284.377 15.3027 283.416 15.3027C281.998 15.3027 280.967 15.7891 280.322 16.7617C279.689 17.7344 279.373 19.1934 279.373 21.1387ZM310.275 11.3477H316.182L308.395 20.7695L316.867 31H310.785L302.752 21.0332V31H297.391V11.3477H302.752V20.8926L310.275 11.3477ZM327.783 10.9785C329.6 10.9785 331.164 11.3301 332.477 12.0332C333.789 12.7246 334.803 13.7324 335.518 15.0566C336.232 16.3809 336.59 17.998 336.59 19.9082V22.5098H323.916C323.975 24.0215 324.426 25.2109 325.27 26.0781C326.125 26.9336 327.309 27.3613 328.82 27.3613C330.074 27.3613 331.223 27.2324 332.266 26.9746C333.309 26.7168 334.381 26.3301 335.482 25.8145V29.9629C334.51 30.4434 333.49 30.7949 332.424 31.0176C331.369 31.2402 330.086 31.3516 328.574 31.3516C326.605 31.3516 324.859 30.9883 323.336 30.2617C321.824 29.5352 320.635 28.4277 319.768 26.9395C318.912 25.4512 318.484 23.5762 318.484 21.3145C318.484 19.0176 318.871 17.1074 319.645 15.584C320.43 14.0488 321.52 12.9004 322.914 12.1387C324.309 11.3652 325.932 10.9785 327.783 10.9785ZM327.818 14.793C326.775 14.793 325.908 15.127 325.217 15.7949C324.537 16.4629 324.145 17.5117 324.039 18.9414H331.562C331.551 18.1445 331.404 17.4355 331.123 16.8145C330.854 16.1934 330.443 15.7012 329.893 15.3379C329.354 14.9746 328.662 14.793 327.818 14.793ZM349 10.9434C351.637 10.9434 353.658 11.5176 355.064 12.666C356.471 13.8145 357.174 15.5605 357.174 17.9043V31H353.43L352.393 28.3281H352.252C351.689 29.0312 351.115 29.6055 350.529 30.0508C349.943 30.4961 349.27 30.8242 348.508 31.0352C347.746 31.2461 346.82 31.3516 345.73 31.3516C344.57 31.3516 343.527 31.1289 342.602 30.6836C341.688 30.2383 340.967 29.5586 340.439 28.6445C339.912 27.7188 339.648 26.5469 339.648 25.1289C339.648 23.043 340.381 21.5078 341.846 20.5234C343.311 19.5273 345.508 18.9766 348.438 18.8711L351.848 18.7656V17.9043C351.848 16.873 351.578 16.1172 351.039 15.6367C350.5 15.1562 349.75 14.916 348.789 14.916C347.84 14.916 346.908 15.0508 345.994 15.3203C345.08 15.5898 344.166 15.9297 343.252 16.3398L341.477 12.7188C342.52 12.168 343.686 11.7344 344.975 11.418C346.275 11.1016 347.617 10.9434 349 10.9434ZM351.848 21.8945L349.773 21.9648C348.039 22.0117 346.832 22.3223 346.152 22.8965C345.484 23.4707 345.15 24.2266 345.15 25.1641C345.15 25.9844 345.391 26.5703 345.871 26.9219C346.352 27.2617 346.979 27.4316 347.752 27.4316C348.9 27.4316 349.867 27.0918 350.652 26.4121C351.449 25.7324 351.848 24.7656 351.848 23.5117V21.8945ZM368.072 11.3477V18.9062H375.561V11.3477H380.922V31H375.561V22.8965H368.072V31H362.711V11.3477H368.072ZM404.406 21.1387C404.406 22.7793 404.184 24.2324 403.738 25.498C403.305 26.7637 402.666 27.8359 401.822 28.7148C400.99 29.582 399.982 30.2383 398.799 30.6836C397.627 31.1289 396.303 31.3516 394.826 31.3516C393.443 31.3516 392.172 31.1289 391.012 30.6836C389.863 30.2383 388.861 29.582 388.006 28.7148C387.162 27.8359 386.506 26.7637 386.037 25.498C385.58 24.2324 385.352 22.7793 385.352 21.1387C385.352 18.959 385.738 17.1133 386.512 15.6016C387.285 14.0898 388.387 12.9414 389.816 12.1562C391.246 11.3711 392.951 10.9785 394.932 10.9785C396.771 10.9785 398.4 11.3711 399.818 12.1562C401.248 12.9414 402.367 14.0898 403.176 15.6016C403.996 17.1133 404.406 18.959 404.406 21.1387ZM390.818 21.1387C390.818 22.4277 390.959 23.5117 391.24 24.3906C391.521 25.2695 391.961 25.9316 392.559 26.377C393.156 26.8223 393.936 27.0449 394.896 27.0449C395.846 27.0449 396.613 26.8223 397.199 26.377C397.797 25.9316 398.23 25.2695 398.5 24.3906C398.781 23.5117 398.922 22.4277 398.922 21.1387C398.922 19.8379 398.781 18.7598 398.5 17.9043C398.23 17.0371 397.797 16.3867 397.199 15.9531C396.602 15.5195 395.822 15.3027 394.861 15.3027C393.443 15.3027 392.412 15.7891 391.768 16.7617C391.135 17.7344 390.818 19.1934 390.818 21.1387ZM426.256 16.498C426.256 17.5527 425.922 18.4551 425.254 19.2051C424.598 19.9434 423.625 20.418 422.336 20.6289V20.7695C423.695 20.9336 424.791 21.4082 425.623 22.1934C426.455 22.9668 426.871 23.9453 426.871 25.1289C426.871 26.2539 426.578 27.2617 425.992 28.1523C425.406 29.0312 424.475 29.7285 423.197 30.2441C421.92 30.748 420.25 31 418.188 31H408.836V11.3477H418.188C419.723 11.3477 421.1 11.5117 422.318 11.8398C423.537 12.1562 424.498 12.6895 425.201 13.4395C425.904 14.1895 426.256 15.209 426.256 16.498ZM421.316 24.8477C421.316 24.0742 421.012 23.5176 420.402 23.1777C419.805 22.8262 418.914 22.6504 417.73 22.6504H414.197V27.291H417.836C418.844 27.291 419.676 27.1035 420.332 26.7285C420.988 26.3535 421.316 25.7266 421.316 24.8477ZM420.824 16.9199C420.824 16.3105 420.584 15.8594 420.104 15.5664C419.623 15.2734 418.914 15.127 417.977 15.127H414.197V19.0117H417.361C418.498 19.0117 419.359 18.8477 419.945 18.5195C420.531 18.1914 420.824 17.6582 420.824 16.9199Z" fill="#1A1B20"/>
<path fill-rule="evenodd" clip-rule="evenodd" d="M321.559 326.342C321.559 336.472 313.347 344.684 303.217 344.684C293.087 344.684 284.875 336.472 284.875 326.342C284.875 316.212 293.087 308 303.217 308C313.347 308 321.559 316.212 321.559 326.342ZM311.9 346.934C309.23 348.061 306.296 348.684 303.217 348.684C290.878 348.684 280.875 338.681 280.875 326.342C280.875 314.003 290.878 304 303.217 304C315.556 304 325.559 314.003 325.559 326.342C325.559 334.525 321.16 341.68 314.598 345.572L319.406 352.785L316.91 354.449L311.9 346.934ZM271.365 382.978C279.849 388.512 282.241 399.877 276.707 408.361C271.173 416.846 259.809 419.238 251.324 413.704C242.839 408.17 240.448 396.805 245.982 388.321C251.516 379.836 262.88 377.444 271.365 382.978ZM283.335 402.318C282.821 405.17 281.74 407.967 280.058 410.546C273.317 420.882 259.474 423.795 249.139 417.054C238.804 410.313 235.89 396.47 242.631 386.135C249.372 375.8 263.215 372.887 273.55 379.628C280.404 384.098 283.994 391.692 283.669 399.315L292.286 399.228C292.276 398.82 292.271 398.41 292.271 398C292.271 370.188 314.817 347.643 342.629 347.643C350.191 347.643 357.364 349.31 363.8 352.296L366.494 346.804C364.178 345.063 362.165 342.84 360.617 340.178C354.414 329.511 358.033 315.836 368.7 309.633C379.367 303.431 393.042 307.049 399.245 317.716C405.447 328.383 401.829 342.058 391.162 348.261C384.088 352.374 375.691 352.168 369.027 348.452L366.482 353.64C381.466 361.714 391.892 377.158 392.905 395.119L401.369 394.737C401.784 391.869 402.766 389.035 404.357 386.398C410.732 375.833 424.465 372.437 435.029 378.812C445.594 385.187 448.99 398.92 442.615 409.484C436.24 420.049 422.508 423.445 411.943 417.07C404.937 412.842 401.084 405.379 401.142 397.75L392.986 398.118C392.94 417.755 381.655 434.752 365.223 443.016L369.918 449.451C372.537 448.212 375.442 447.466 378.519 447.335C390.847 446.814 401.264 456.384 401.786 468.712C402.307 481.04 392.737 491.457 380.409 491.979C368.081 492.501 357.664 482.93 357.142 470.602C356.796 462.427 360.888 455.091 367.28 450.925L362.451 444.305C356.367 446.913 349.666 448.357 342.629 448.357C333.066 448.357 324.126 445.691 316.511 441.063L314.406 447.15C316.918 448.593 319.189 450.552 321.052 453.004C328.519 462.828 326.607 476.844 316.784 484.31C306.96 491.776 292.943 489.865 285.477 480.042C278.011 470.218 279.922 456.201 289.746 448.735C296.261 443.783 304.62 442.956 311.69 445.826L313.92 439.377C301.586 430.803 293.268 416.856 292.355 400.926L292.368 402.227L283.335 402.318ZM317.868 455.424C311.738 447.359 300.231 445.79 292.166 451.92C284.101 458.049 282.532 469.556 288.662 477.621C294.791 485.686 306.298 487.255 314.363 481.126C322.428 474.996 323.997 463.489 317.868 455.424ZM361.138 470.433C360.71 460.312 368.567 451.76 378.688 451.332C388.809 450.903 397.361 458.761 397.789 468.882C398.218 479.002 390.36 487.554 380.239 487.983C370.119 488.411 361.567 480.554 361.138 470.433ZM407.782 388.465C402.548 397.138 405.337 408.412 414.01 413.645C422.683 418.879 433.957 416.091 439.19 407.418C444.424 398.745 441.636 387.471 432.963 382.237C424.29 377.003 413.016 379.792 407.782 388.465ZM389.151 344.803C380.394 349.895 369.167 346.924 364.075 338.167C358.983 329.41 361.954 318.183 370.711 313.091C379.468 307.999 390.695 310.97 395.787 319.727C400.879 328.484 397.908 339.711 389.151 344.803ZM388.986 398C388.986 409.006 385.15 419.116 378.743 427.066C379.39 425.247 379.652 423.282 379.631 421.299C379.591 417.491 378.52 413.275 376.745 408.97C375.213 405.253 373.097 401.325 370.472 397.336C373.145 393.38 375.31 389.478 376.887 385.78C378.714 381.497 379.837 377.295 379.924 373.487C379.949 372.373 379.885 371.263 379.713 370.179C385.535 377.928 388.986 387.561 388.986 398ZM368.377 359.445C361.012 354.517 352.156 351.643 342.629 351.643C333.378 351.643 324.761 354.352 317.527 359.02C317.722 359.019 317.919 359.021 318.115 359.025C321.923 359.112 326.125 360.235 330.407 362.062C334.106 363.64 338.008 365.804 341.964 368.477C345.952 365.852 349.881 363.736 353.598 362.204C357.903 360.43 362.119 359.358 365.927 359.318C366.75 359.309 367.57 359.349 368.377 359.445ZM338.423 370.93C326.427 363.154 315.464 360.639 310.528 365.515C305.591 370.392 307.972 381.384 315.601 393.475C318.646 389.396 322.203 385.307 326.189 381.369C330.175 377.432 334.307 373.925 338.423 370.93ZM317.964 397.015C321.049 392.744 324.758 388.405 329 384.215C333.242 380.025 337.626 376.369 341.934 373.336C346.205 376.421 350.544 380.131 354.734 384.372C358.924 388.614 362.581 392.998 365.613 397.307C362.528 401.577 358.819 405.916 354.577 410.107C350.335 414.297 345.951 417.953 341.643 420.985C337.372 417.9 333.033 414.191 328.843 409.949C324.653 405.707 320.996 401.323 317.964 397.015ZM315.558 400.526C318.553 404.642 322.06 408.774 325.997 412.76C329.934 416.746 334.024 420.303 338.103 423.348C326.012 430.977 315.02 433.358 310.143 428.421C305.267 423.485 307.782 412.522 315.558 400.526ZM313.105 396.985C310.432 400.941 308.268 404.843 306.69 408.542C304.863 412.825 303.74 417.027 303.653 420.834C303.635 421.646 303.664 422.455 303.747 423.253C299.019 415.988 296.271 407.314 296.271 398C296.271 388.554 299.096 379.768 303.948 372.441C303.944 372.635 303.944 372.828 303.946 373.022C303.986 376.831 305.057 381.046 306.832 385.351C308.364 389.069 310.48 392.997 313.105 396.985ZM341.613 425.844C337.625 428.469 333.697 430.585 329.979 432.118C325.674 433.892 321.459 434.963 317.65 435.004C316.547 435.015 315.45 434.939 314.38 434.758C322.2 440.778 331.997 444.357 342.629 444.357C353.423 444.357 363.357 440.667 371.236 434.48C369.41 435.103 367.443 435.341 365.462 435.296C361.654 435.209 357.452 434.086 353.17 432.259C349.471 430.682 345.569 428.518 341.613 425.844ZM345.154 423.391C349.27 420.396 353.402 416.89 357.388 412.952C361.374 409.015 364.931 404.926 367.976 400.847C375.605 412.937 377.985 423.93 373.049 428.806C368.113 433.682 357.15 431.168 345.154 423.391ZM368.019 393.796C365.024 389.68 361.517 385.547 357.58 381.561C353.643 377.575 349.553 374.018 345.474 370.973C357.565 363.344 368.558 360.964 373.434 365.9C378.31 370.836 375.796 381.799 368.019 393.796Z" fill="black"/>
<mask id="path-10-outside-1_139_9865" maskUnits="userSpaceOnUse" x="160" y="221" width="365" height="365" fill="black">
<rect fill="white" x="160" y="221" width="365" height="365"/>
<path fill-rule="evenodd" clip-rule="evenodd" d="M342.627 583.253C441.832 583.253 522.253 502.832 522.253 403.627C522.253 304.422 441.832 224 342.627 224C243.422 224 163 304.422 163 403.627C163 502.832 243.422 583.253 342.627 583.253ZM342 555C425.395 555 493 487.395 493 404C493 320.605 425.395 253 342 253C258.605 253 191 320.605 191 404C191 487.395 258.605 555 342 555Z"/>
</mask>
<path fill-rule="evenodd" clip-rule="evenodd" d="M342.627 583.253C441.832 583.253 522.253 502.832 522.253 403.627C522.253 304.422 441.832 224 342.627 224C243.422 224 163 304.422 163 403.627C163 502.832 243.422 583.253 342.627 583.253ZM342 555C425.395 555 493 487.395 493 404C493 320.605 425.395 253 342 253C258.605 253 191 320.605 191 404C191 487.395 258.605 555 342 555Z" fill="url(#paint0_linear_139_9865)"/>
<path d="M520.149 403.627C520.149 501.669 440.669 581.149 342.627 581.149V585.358C442.994 585.358 524.358 503.994 524.358 403.627H520.149ZM342.627 226.105C440.669 226.105 520.149 305.584 520.149 403.627H524.358C524.358 303.259 442.994 221.895 342.627 221.895V226.105ZM165.105 403.627C165.105 305.584 244.584 226.105 342.627 226.105V221.895C242.259 221.895 160.895 303.259 160.895 403.627H165.105ZM342.627 581.149C244.584 581.149 165.105 501.669 165.105 403.627H160.895C160.895 503.994 242.259 585.358 342.627 585.358V581.149ZM490.895 404C490.895 486.233 424.233 552.895 342 552.895V557.105C426.557 557.105 495.105 488.557 495.105 404H490.895ZM342 255.105C424.233 255.105 490.895 321.767 490.895 404H495.105C495.105 319.443 426.557 250.895 342 250.895V255.105ZM193.105 404C193.105 321.767 259.767 255.105 342 255.105V250.895C257.443 250.895 188.895 319.443 188.895 404H193.105ZM342 552.895C259.767 552.895 193.105 486.233 193.105 404H188.895C188.895 488.557 257.443 557.105 342 557.105V552.895Z" fill="#28336F" mask="url(#path-10-outside-1_139_9865)"/>
<path d="M484.129 696.512C484.129 695.035 484.234 693.576 484.445 692.135C484.668 690.682 485.049 689.316 485.588 688.039C486.127 686.75 486.883 685.613 487.855 684.629C488.828 683.633 490.064 682.854 491.564 682.291C493.064 681.717 494.881 681.43 497.014 681.43C497.518 681.43 498.104 681.453 498.771 681.5C499.451 681.535 500.014 681.6 500.459 681.693V686.035C499.99 685.93 499.486 685.848 498.947 685.789C498.42 685.719 497.893 685.684 497.365 685.684C495.232 685.684 493.58 686.023 492.408 686.703C491.248 687.383 490.428 688.326 489.947 689.533C489.479 690.729 489.203 692.123 489.121 693.717H489.35C489.678 693.143 490.088 692.633 490.58 692.188C491.084 691.742 491.693 691.391 492.408 691.133C493.123 690.863 493.961 690.729 494.922 690.729C496.422 690.729 497.723 691.051 498.824 691.695C499.926 692.328 500.775 693.248 501.373 694.455C501.971 695.662 502.27 697.133 502.27 698.867C502.27 700.719 501.912 702.312 501.197 703.648C500.482 704.984 499.469 706.01 498.156 706.725C496.855 707.428 495.309 707.779 493.516 707.779C492.203 707.779 490.979 707.557 489.842 707.111C488.705 706.654 487.709 705.963 486.854 705.037C485.998 704.111 485.33 702.945 484.85 701.539C484.369 700.121 484.129 698.445 484.129 696.512ZM493.41 703.438C494.477 703.438 495.344 703.074 496.012 702.348C496.68 701.621 497.014 700.484 497.014 698.938C497.014 697.684 496.721 696.699 496.135 695.984C495.561 695.258 494.688 694.895 493.516 694.895C492.719 694.895 492.016 695.076 491.406 695.439C490.809 695.791 490.346 696.242 490.018 696.793C489.689 697.332 489.525 697.889 489.525 698.463C489.525 699.061 489.607 699.652 489.771 700.238C489.936 700.824 490.182 701.357 490.51 701.838C490.838 702.318 491.242 702.705 491.723 702.998C492.215 703.291 492.777 703.438 493.41 703.438ZM540.396 687.775V707.428H535.387V697.777C535.387 696.828 535.404 695.896 535.439 694.982C535.475 694.068 535.527 693.225 535.598 692.451H535.492L530.061 707.428H526.035L520.516 692.416H520.375C520.469 693.201 520.533 694.045 520.568 694.947C520.604 695.85 520.621 696.84 520.621 697.918V707.428H515.629V687.775H523.223L528.109 701.1L533.084 687.775H540.396ZM554.09 687.371C556.727 687.371 558.748 687.945 560.154 689.094C561.561 690.242 562.264 691.988 562.264 694.332V707.428H558.52L557.482 704.756H557.342C556.779 705.459 556.205 706.033 555.619 706.479C555.033 706.924 554.359 707.252 553.598 707.463C552.836 707.674 551.91 707.779 550.82 707.779C549.66 707.779 548.617 707.557 547.691 707.111C546.777 706.666 546.057 705.986 545.529 705.072C545.002 704.146 544.738 702.975 544.738 701.557C544.738 699.471 545.471 697.936 546.936 696.951C548.4 695.955 550.598 695.404 553.527 695.299L556.938 695.193V694.332C556.938 693.301 556.668 692.545 556.129 692.064C555.59 691.584 554.84 691.344 553.879 691.344C552.93 691.344 551.998 691.479 551.084 691.748C550.17 692.018 549.256 692.357 548.342 692.768L546.566 689.146C547.609 688.596 548.775 688.162 550.064 687.846C551.365 687.529 552.707 687.371 554.09 687.371ZM556.938 698.322L554.863 698.393C553.129 698.439 551.922 698.75 551.242 699.324C550.574 699.898 550.24 700.654 550.24 701.592C550.24 702.412 550.48 702.998 550.961 703.35C551.441 703.689 552.068 703.859 552.842 703.859C553.99 703.859 554.957 703.52 555.742 702.84C556.539 702.16 556.938 701.193 556.938 699.939V698.322ZM584.061 691.801H577.627V707.428H572.266V691.801H565.814V687.775H584.061V691.801ZM595.838 687.406C597.654 687.406 599.219 687.758 600.531 688.461C601.844 689.152 602.857 690.16 603.572 691.484C604.287 692.809 604.645 694.426 604.645 696.336V698.938H591.971C592.029 700.449 592.48 701.639 593.324 702.506C594.18 703.361 595.363 703.789 596.875 703.789C598.129 703.789 599.277 703.66 600.32 703.402C601.363 703.145 602.436 702.758 603.537 702.242V706.391C602.564 706.871 601.545 707.223 600.479 707.445C599.424 707.668 598.141 707.779 596.629 707.779C594.66 707.779 592.914 707.416 591.391 706.689C589.879 705.963 588.689 704.855 587.822 703.367C586.967 701.879 586.539 700.004 586.539 697.742C586.539 695.445 586.926 693.535 587.699 692.012C588.484 690.477 589.574 689.328 590.969 688.566C592.363 687.793 593.986 687.406 595.838 687.406ZM595.873 691.221C594.83 691.221 593.963 691.555 593.271 692.223C592.592 692.891 592.199 693.939 592.094 695.369H599.617C599.605 694.572 599.459 693.863 599.178 693.242C598.908 692.621 598.498 692.129 597.947 691.766C597.408 691.402 596.717 691.221 595.873 691.221ZM619.938 687.406C622.152 687.406 623.939 688.268 625.299 689.99C626.67 691.713 627.355 694.238 627.355 697.566C627.355 699.793 627.033 701.668 626.389 703.191C625.744 704.703 624.854 705.846 623.717 706.619C622.58 707.393 621.273 707.779 619.797 707.779C618.848 707.779 618.033 707.662 617.354 707.428C616.674 707.182 616.094 706.871 615.613 706.496C615.133 706.109 614.717 705.699 614.365 705.266H614.084C614.178 705.734 614.248 706.215 614.295 706.707C614.342 707.199 614.365 707.68 614.365 708.148V716.076H609.004V687.775H613.363L614.119 690.324H614.365C614.717 689.797 615.145 689.311 615.648 688.865C616.152 688.42 616.756 688.068 617.459 687.811C618.174 687.541 619 687.406 619.938 687.406ZM618.215 691.695C617.277 691.695 616.533 691.889 615.982 692.275C615.432 692.662 615.027 693.242 614.77 694.016C614.523 694.789 614.389 695.768 614.365 696.951V697.531C614.365 698.797 614.482 699.869 614.717 700.748C614.963 701.627 615.367 702.295 615.93 702.752C616.504 703.209 617.289 703.438 618.285 703.438C619.105 703.438 619.779 703.209 620.307 702.752C620.834 702.295 621.227 701.627 621.484 700.748C621.754 699.857 621.889 698.773 621.889 697.496C621.889 695.574 621.59 694.127 620.992 693.154C620.395 692.182 619.469 691.695 618.215 691.695ZM636.971 687.775V695.545C636.971 695.943 636.953 696.447 636.918 697.057C636.895 697.654 636.859 698.264 636.812 698.885C636.766 699.506 636.719 700.062 636.672 700.555C636.625 701.047 636.59 701.381 636.566 701.557L645.637 687.775H652.088V707.428H646.902V699.588C646.902 698.943 646.926 698.234 646.973 697.461C647.02 696.676 647.072 695.938 647.131 695.246C647.189 694.555 647.23 694.033 647.254 693.682L638.219 707.428H631.785V687.775H636.971ZM670.615 687.775H676.521L668.734 697.197L677.207 707.428H671.125L663.092 697.461V707.428H657.73V687.775H663.092V697.32L670.615 687.775ZM697.879 697.566C697.879 699.207 697.656 700.66 697.211 701.926C696.777 703.191 696.139 704.264 695.295 705.143C694.463 706.01 693.455 706.666 692.271 707.111C691.1 707.557 689.775 707.779 688.299 707.779C686.916 707.779 685.645 707.557 684.484 707.111C683.336 706.666 682.334 706.01 681.479 705.143C680.635 704.264 679.979 703.191 679.51 701.926C679.053 700.66 678.824 699.207 678.824 697.566C678.824 695.387 679.211 693.541 679.984 692.029C680.758 690.518 681.859 689.369 683.289 688.584C684.719 687.799 686.424 687.406 688.404 687.406C690.244 687.406 691.873 687.799 693.291 688.584C694.721 689.369 695.84 690.518 696.648 692.029C697.469 693.541 697.879 695.387 697.879 697.566ZM684.291 697.566C684.291 698.855 684.432 699.939 684.713 700.818C684.994 701.697 685.434 702.359 686.031 702.805C686.629 703.25 687.408 703.473 688.369 703.473C689.318 703.473 690.086 703.25 690.672 702.805C691.27 702.359 691.703 701.697 691.973 700.818C692.254 699.939 692.395 698.855 692.395 697.566C692.395 696.266 692.254 695.188 691.973 694.332C691.703 693.465 691.27 692.814 690.672 692.381C690.074 691.947 689.295 691.73 688.334 691.73C686.916 691.73 685.885 692.217 685.24 693.189C684.607 694.162 684.291 695.621 684.291 697.566ZM719.729 692.926C719.729 693.98 719.395 694.883 718.727 695.633C718.07 696.371 717.098 696.846 715.809 697.057V697.197C717.168 697.361 718.264 697.836 719.096 698.621C719.928 699.395 720.344 700.373 720.344 701.557C720.344 702.682 720.051 703.689 719.465 704.58C718.879 705.459 717.947 706.156 716.67 706.672C715.393 707.176 713.723 707.428 711.66 707.428H702.309V687.775H711.66C713.195 687.775 714.572 687.939 715.791 688.268C717.01 688.584 717.971 689.117 718.674 689.867C719.377 690.617 719.729 691.637 719.729 692.926ZM714.789 701.275C714.789 700.502 714.484 699.945 713.875 699.605C713.277 699.254 712.387 699.078 711.203 699.078H707.67V703.719H711.309C712.316 703.719 713.148 703.531 713.805 703.156C714.461 702.781 714.789 702.154 714.789 701.275ZM714.297 693.348C714.297 692.738 714.057 692.287 713.576 691.994C713.096 691.701 712.387 691.555 711.449 691.555H707.67V695.439H710.834C711.971 695.439 712.832 695.275 713.418 694.947C714.004 694.619 714.297 694.086 714.297 693.348Z" fill="#1A1B20"/>
<ellipse cx="613" cy="596.5" rx="65" ry="49.5" fill="white"/>
<path fill-rule="evenodd" clip-rule="evenodd" d="M570.55 543C576.902 543 582.05 537.851 582.05 531.5C582.05 525.149 576.902 520 570.55 520C564.199 520 559.05 525.149 559.05 531.5C559.05 537.851 564.199 543 570.55 543ZM570.55 547C572.687 547 574.723 546.568 576.574 545.786L580.05 551L582.547 549.336L579.222 544.349C583.342 541.563 586.05 536.848 586.05 531.5C586.05 522.94 579.111 516 570.55 516C561.99 516 555.05 522.94 555.05 531.5C555.05 540.06 561.99 547 570.55 547ZM551.133 587.733C554.603 582.413 553.103 575.288 547.783 571.818C542.464 568.348 535.338 569.848 531.869 575.168C528.399 580.487 529.899 587.613 535.218 591.082C540.538 594.552 547.663 593.052 551.133 587.733ZM554.483 589.918C555.651 588.128 556.4 586.187 556.757 584.209L563.025 584.146L562.995 581.146L557 581.207C556.918 576.234 554.448 571.389 549.969 568.468C542.799 563.791 533.195 565.812 528.518 572.982C523.842 580.152 525.863 589.756 533.033 594.433C540.203 599.109 549.807 597.088 554.483 589.918ZM563.626 619.598C568.682 615.754 575.897 616.738 579.74 621.795C583.583 626.851 582.599 634.066 577.543 637.909C572.486 641.752 565.272 640.768 561.428 635.712C557.585 630.655 558.569 623.441 563.626 619.598ZM578.314 615.314C580.057 616.315 581.632 617.674 582.925 619.374C588.104 626.19 586.779 635.914 579.963 641.094C573.148 646.274 563.424 644.948 558.244 638.132C553.064 631.317 554.39 621.593 561.205 616.413C565.463 613.177 570.857 612.48 575.568 614.075L577.527 608.41L580.362 609.391L578.314 615.314ZM622.961 619.438C616.616 619.706 611.689 625.068 611.958 631.414C612.227 637.759 617.589 642.686 623.934 642.417C630.28 642.148 635.206 636.786 634.938 630.441C634.669 624.095 629.307 619.169 622.961 619.438ZM622.792 615.441C620.657 615.532 618.642 616.05 616.824 616.909L613.13 611.846L610.707 613.615L614.24 618.457C610.242 621.415 607.736 626.24 607.962 631.583C608.324 640.136 615.551 646.775 624.103 646.413C632.656 646.051 639.296 638.824 638.934 630.272C638.572 621.719 631.345 615.079 622.792 615.441ZM648.048 591.019C642.611 587.738 640.862 580.669 644.144 575.231C647.425 569.793 654.494 568.045 659.932 571.327C665.37 574.608 667.118 581.677 663.836 587.114C660.555 592.552 653.486 594.3 648.048 591.019ZM638.646 578.95C638.934 576.96 639.615 574.994 640.719 573.165C645.142 565.835 654.669 563.479 661.998 567.902C669.328 572.325 671.684 581.852 667.261 589.181C662.838 596.51 653.311 598.867 645.982 594.444C641.403 591.681 638.765 586.926 638.508 581.959L632.521 582.229L632.386 579.232L638.646 578.95ZM613.83 539.089C617.022 544.58 624.062 546.442 629.552 543.249C635.042 540.057 636.905 533.018 633.712 527.527C630.52 522.037 623.481 520.174 617.99 523.367C612.5 526.559 610.637 533.599 613.83 539.089ZM610.372 541.1C611.446 542.947 612.842 544.489 614.449 545.697L611.689 551.323L614.382 552.644L617.022 547.263C621.501 549.425 626.939 549.396 631.563 546.707C638.963 542.404 641.474 532.917 637.17 525.516C632.867 518.116 623.38 515.606 615.979 519.909C608.579 524.212 606.069 533.7 610.372 541.1Z" fill="#161D3F"/>
<defs>
<linearGradient id="paint0_linear_139_9865" x1="342.627" y1="224" x2="342.627" y2="583.253" gradientUnits="userSpaceOnUse">
<stop stop-color="#BEC8D3"/>
<stop offset="1" stop-color="#435A7E"/>
</linearGradient>
</defs>
</svg>
