<svg width="126" height="126" viewBox="0 0 126 126" fill="none" xmlns="http://www.w3.org/2000/svg">
<path d="M65.071 6H65.991V13H65.071V9.85L61.671 9.85V13H60.741V6L61.671 6V8.97L65.071 8.97V6Z" fill="#BDBDBD"/>
<path d="M78.6636 14.4715C77.8046 14.9729 76.8856 15.0925 75.9068 14.8302C74.928 14.568 74.192 14.0049 73.6987 13.1412C73.2055 12.2774 73.0891 11.3594 73.3497 10.387C73.612 9.40818 74.1718 8.67129 75.0291 8.17632C75.8881 7.67491 76.807 7.55533 77.7859 7.8176C78.7647 8.07987 79.5007 8.64289 79.9939 9.50665C80.4953 10.3657 80.6149 11.2846 80.3526 12.2634C80.0921 13.2358 79.5291 13.9718 78.6636 14.4715ZM74.48 12.6983C74.8477 13.3352 75.4018 13.7528 76.1423 13.9512C76.8829 14.1497 77.5684 14.0642 78.1988 13.6947C78.8374 13.3206 79.2559 12.7633 79.4543 12.0227C79.6545 11.2757 79.5707 10.5838 79.203 9.94695C78.8435 9.30537 78.2935 8.88536 77.5529 8.68694C76.8124 8.48851 76.1228 8.57636 75.4842 8.9505C74.8538 9.31992 74.4385 9.87812 74.2383 10.6251C74.0399 11.3656 74.1205 12.0567 74.48 12.6983Z" fill="#BDBDBD"/>
<path d="M91.2648 17.3923C91.4652 17.6851 91.5746 18.0023 91.593 18.3439C91.6171 18.6888 91.5358 19.023 91.3491 19.3463C91.0691 19.8313 90.6638 20.14 90.1331 20.2724C89.6025 20.4048 89.0918 20.3293 88.6011 20.046L85.9857 18.536L89.4857 12.4738L91.9105 13.8738C92.384 14.1472 92.6936 14.5376 92.8393 15.0452C92.9851 15.5527 92.923 16.0403 92.653 16.5079C92.343 17.0449 91.8802 17.3397 91.2648 17.3923ZM91.4755 14.6273L89.8561 13.6923L88.7861 15.5456L90.4055 16.4806C90.6596 16.6272 90.9249 16.6611 91.2014 16.5821C91.4779 16.5031 91.6912 16.3337 91.8412 16.0739C91.9879 15.8199 92.0234 15.5517 91.9477 15.2694C91.8812 14.9847 91.7238 14.7706 91.4755 14.6273ZM89.0361 19.2926C89.3074 19.4492 89.5905 19.4856 89.8852 19.4018C90.18 19.3179 90.4074 19.1374 90.5674 18.8603C90.724 18.5889 90.7621 18.303 90.6816 18.0025C90.6068 17.7053 90.4366 17.48 90.1711 17.3267L88.3611 16.2817L87.2261 18.2476L89.0361 19.2926Z" fill="#BDBDBD"/>
<path d="M99.8237 29.1147L103.515 25.4236L97.2781 26.5692L96.7478 26.0388L101.698 21.0891L102.355 21.7467L98.657 25.4449L104.901 24.2923L105.431 24.8226L100.481 29.7724L99.8237 29.1147Z" fill="#BDBDBD"/>
<path d="M113.398 36.2948L113.858 37.0916L107.796 40.5916L107.336 39.7948L110.064 38.2198L108.364 35.2753L105.636 36.8503L105.171 36.0449L111.233 32.5449L111.698 33.3503L109.126 34.8353L110.826 37.7798L113.398 36.2948Z" fill="#BDBDBD"/>
<path d="M112.136 53.195L111.841 52.0938L114.304 48.3071L111.059 49.1767L110.818 48.2784L117.58 46.4667L117.82 47.365L114.768 48.1828L118.576 50.1855L118.871 51.2866L114.787 49.1819L112.136 53.195Z" fill="#BDBDBD"/>
<path d="M113 65.1479L114.57 64.5779V61.4279L113 60.8579V59.8679L120 62.4779V63.5279L113 66.1379V65.1479ZM115.44 61.7479V64.2579L118.89 62.9979L115.44 61.7479Z" fill="#BDBDBD"/>
<path d="M111.327 93.2948L110.867 94.0916L104.805 90.5916L105.265 89.7948L107.993 91.3698L109.693 88.4253L106.965 86.8503L107.43 86.0449L113.492 89.5449L113.027 90.3503L110.455 88.8653L108.755 91.8098L111.327 93.2948Z" fill="#BDBDBD"/>
<path d="M97.1955 100.831C97.1908 99.8359 97.5467 98.9803 98.2633 98.2638C98.9798 97.5473 99.8354 97.1914 100.83 97.1961C101.825 97.2008 102.678 97.5591 103.39 98.2709C104.106 98.9874 104.465 99.8407 104.465 100.831C104.469 101.825 104.113 102.681 103.397 103.397C102.68 104.114 101.825 104.47 100.83 104.465C99.8354 104.47 98.9798 104.114 98.2633 103.397C97.5514 102.686 97.1955 101.83 97.1955 100.831ZM100.823 98.0941C100.088 98.0941 99.4488 98.3652 98.9067 98.9073C98.3646 99.4494 98.0959 100.086 98.1006 100.816C98.1053 101.557 98.3788 102.198 98.9209 102.74C99.4677 103.287 100.109 103.56 100.844 103.56C101.58 103.569 102.218 103.303 102.76 102.761C103.303 102.219 103.571 101.578 103.567 100.838C103.562 100.107 103.286 99.4683 102.739 98.9214C102.197 98.3793 101.558 98.1035 100.823 98.0941Z" fill="#BDBDBD"/>
<path d="M88.3652 110.282C88.0114 110.309 87.682 110.246 87.377 110.091C87.0662 109.939 86.8175 109.702 86.6308 109.378C86.3508 108.893 86.2861 108.388 86.4368 107.862C86.5874 107.336 86.9081 106.932 87.3989 106.649L90.0143 105.139L93.5143 111.201L91.0894 112.601C90.616 112.874 90.1231 112.947 89.6106 112.819C89.0982 112.692 88.707 112.394 88.437 111.927C88.127 111.39 88.1031 110.841 88.3652 110.282ZM90.6544 111.847L92.2739 110.912L91.2039 109.059L89.5844 109.994C89.3304 110.141 89.1684 110.353 89.0985 110.632C89.0287 110.911 89.0687 111.181 89.2187 111.441C89.3654 111.695 89.5799 111.859 89.8622 111.935C90.1421 112.02 90.4062 111.991 90.6544 111.847ZM87.8339 107.402C87.5625 107.559 87.3895 107.786 87.3147 108.083C87.24 108.38 87.2826 108.667 87.4426 108.944C87.5992 109.216 87.8278 109.392 88.1284 109.472C88.4231 109.556 88.7033 109.521 88.9689 109.368L90.7789 108.323L89.6439 106.357L87.8339 107.402Z" fill="#BDBDBD"/>
<path d="M73.9343 111.833L75.2853 116.875L77.4116 110.901L78.136 110.707L79.9478 117.469L79.0495 117.709L77.6958 112.658L75.5722 118.641L74.8477 118.835L73.036 112.074L73.9343 111.833Z" fill="#BDBDBD"/>
<path d="M60.929 120H60.009V113H60.929V116.15H64.329V113H65.259V120H64.329V117.03H60.929V120Z" fill="#BDBDBD"/>
<path d="M46.9211 110.455L48.0222 110.75L50.0697 114.778L50.9393 111.532L51.8376 111.773L50.0259 118.534L49.1276 118.294L49.9454 115.241L46.3071 117.538L45.2059 117.243L49.0706 114.758L46.9211 110.455Z" fill="#BDBDBD"/>
<path d="M36.1388 105.228L35.8474 106.873L38.5754 108.448L39.854 107.373L40.7114 107.868L34.951 112.625L34.0417 112.1L35.2814 104.733L36.1388 105.228ZM37.8632 109.041L35.6895 107.786L35.0557 111.404L37.8632 109.041Z" fill="#BDBDBD"/>
<path d="M12.6021 89.7052L12.1421 88.9084L18.2042 85.4084L18.6642 86.2052L15.9363 87.7802L17.6363 90.7247L20.3642 89.1497L20.8292 89.9551L14.7671 93.4551L14.3021 92.6497L16.8742 91.1647L15.1742 88.2202L12.6021 89.7052Z" fill="#BDBDBD"/>
<path d="M13.1409 73.6979C14.0046 74.1911 14.5676 74.9272 14.8299 75.906C15.0922 76.8848 14.9726 77.8037 14.4712 78.6627C13.9698 79.5218 13.2329 80.0816 12.2605 80.3421C11.2817 80.6044 10.3637 80.488 9.50633 79.9931C8.64257 79.4998 8.07956 78.7638 7.81729 77.785C7.55502 76.8062 7.67459 75.8873 8.176 75.0282C8.66925 74.1644 9.40528 73.6014 10.3841 73.3392C11.3565 73.0786 12.2754 73.1982 13.1409 73.6979ZM13.697 78.2076C14.0647 77.5707 14.1493 76.882 13.9509 76.1415C13.7525 75.4009 13.3357 74.85 12.7006 74.4888C12.0573 74.1228 11.3653 74.039 10.6248 74.2375C9.8778 74.4376 9.32047 74.8561 8.95277 75.493C8.57691 76.1252 8.48819 76.8115 8.68662 77.5521C8.88505 78.2926 9.30592 78.8459 9.94922 79.2118C10.5844 79.5731 11.2754 79.6536 12.0224 79.4535C12.763 79.255 13.3212 78.8398 13.697 78.2076Z" fill="#BDBDBD"/>
<path d="M9.37 61.3255C9.52333 61.0055 9.74333 60.7522 10.03 60.5655C10.3167 60.3722 10.6467 60.2755 11.02 60.2755C11.58 60.2755 12.05 60.4722 12.43 60.8655C12.81 61.2588 13 61.7388 13 62.3055V65.3255H6V62.5255C6 61.9788 6.18333 61.5155 6.55 61.1355C6.91667 60.7555 7.37 60.5655 7.91 60.5655C8.53 60.5655 9.01667 60.8188 9.37 61.3255ZM6.87 62.5255V64.3955H9.01V62.5255C9.01 62.2322 8.90667 61.9855 8.7 61.7855C8.49333 61.5855 8.24 61.4855 7.94 61.4855C7.64667 61.4855 7.39667 61.5888 7.19 61.7955C6.97667 61.9955 6.87 62.2388 6.87 62.5255ZM12.13 62.3055C12.13 61.9922 12.02 61.7288 11.8 61.5155C11.58 61.3022 11.31 61.1955 10.99 61.1955C10.6767 61.1955 10.41 61.3055 10.19 61.5255C9.97 61.7388 9.86 61.9988 9.86 62.3055V64.3955H12.13V62.3055Z" fill="#BDBDBD"/>
<path d="M15.242 48.0522L10.1999 46.7012L14.3103 51.5296L14.1161 52.254L7.35465 50.4423L7.59535 49.544L12.6472 50.8976L8.52711 46.0667L8.72123 45.3422L15.4827 47.1539L15.242 48.0522Z" fill="#BDBDBD"/>
<path d="M14.6731 32.7052L15.1331 31.9084L21.1952 35.4084L20.7352 36.2052L18.0072 34.6302L16.3072 37.5747L19.0352 39.1497L18.5702 39.9551L12.5081 36.4551L12.9731 35.6497L15.5451 37.1347L17.2451 34.1902L14.6731 32.7052Z" fill="#BDBDBD"/>
<path d="M29.9395 25.3477L29.1334 26.1538L24.622 25.9133L26.9979 28.2892L26.3403 28.9468L21.3905 23.9971L22.0482 23.3395L24.2826 25.5739L24.1129 21.2747L24.919 20.4686L25.1382 25.0577L29.9395 25.3477Z" fill="#BDBDBD"/>
<path d="M39.8612 18.6258L38.5826 17.5511L35.8546 19.1261L36.146 20.7708L35.2886 21.2658L34.049 13.8986L34.9583 13.3736L40.7186 18.1308L39.8612 18.6258ZM35.6968 18.2127L37.8705 16.9577L35.0543 14.5999L35.6968 18.2127Z" fill="#BDBDBD"/>
<circle cx="63" cy="62" r="31" fill="#143383"/>
<path d="M64.1533 56.3398L65.3266 58.6864C65.4866 59.0131 65.9133 59.3264 66.2733 59.3864L68.3999 59.7398C69.7599 59.9664 70.0799 60.9531 69.0999 61.9264L67.4466 63.5798C67.1666 63.8598 67.0133 64.3998 67.0999 64.7864L67.5733 66.8331C67.9466 68.4531 67.0866 69.0798 65.6533 68.2331L63.6599 67.0531C63.2999 66.8398 62.7066 66.8398 62.3399 67.0531L60.3466 68.2331C58.9199 69.0798 58.0533 68.4464 58.4266 66.8331L58.8999 64.7864C58.9866 64.3998 58.8333 63.8598 58.5533 63.5798L56.8999 61.9264C55.9266 60.9531 56.2399 59.9664 57.5999 59.7398L59.7266 59.3864C60.0799 59.3264 60.5066 59.0131 60.6666 58.6864L61.8399 56.3398C62.4799 55.0664 63.5199 55.0664 64.1533 56.3398Z" fill="white"/>
</svg>
