<svg width="24" height="23" viewBox="0 0 24 23" fill="none" xmlns="http://www.w3.org/2000/svg">
<path d="M12.2054 2.0713C15.2786 2.0713 15.6426 2.08478 16.8512 2.1387C17.9745 2.18812 18.581 2.37683 18.9854 2.53409C19.5201 2.74077 19.9065 2.99238 20.3064 3.39226C20.7107 3.79664 20.9579 4.17855 21.1645 4.71323C21.3218 5.1176 21.5105 5.72866 21.5599 6.84743C21.6139 8.06056 21.6273 8.4245 21.6273 11.4933C21.6273 14.5665 21.6139 14.9305 21.5599 16.1391C21.5105 17.2624 21.3218 17.8689 21.1645 18.2733C20.9579 18.808 20.7063 19.1944 20.3064 19.5943C19.902 19.9986 19.5201 20.2458 18.9854 20.4524C18.581 20.6097 17.97 20.7984 16.8512 20.8478C15.6381 20.9017 15.2741 20.9152 12.2054 20.9152C9.13212 20.9152 8.76818 20.9017 7.55954 20.8478C6.43628 20.7984 5.82971 20.6097 5.42534 20.4524C4.89066 20.2458 4.50426 19.9941 4.10438 19.5943C3.7 19.1899 3.45288 18.808 3.2462 18.2733C3.08894 17.8689 2.90023 17.2579 2.85081 16.1391C2.79689 14.926 2.78341 14.562 2.78341 11.4933C2.78341 8.42 2.79689 8.05607 2.85081 6.84743C2.90023 5.72416 3.08894 5.1176 3.2462 4.71323C3.45288 4.17855 3.70449 3.79215 4.10438 3.39226C4.50875 2.98789 4.89066 2.74077 5.42534 2.53409C5.82971 2.37683 6.44077 2.18812 7.55954 2.1387C8.76818 2.08478 9.13212 2.0713 12.2054 2.0713ZM12.2054 0C9.08269 0 8.6918 0.0134792 7.46519 0.067396C6.24307 0.121313 5.40287 0.319008 4.67499 0.602071C3.91567 0.898613 3.27316 1.28951 2.63514 1.93202C1.99263 2.57003 1.60174 3.21254 1.3052 3.96738C1.02213 4.69975 0.824438 5.53546 0.770521 6.75757C0.716604 7.98867 0.703125 8.37957 0.703125 11.5022C0.703125 14.6249 0.716604 15.0158 0.770521 16.2424C0.824438 17.4645 1.02213 18.3047 1.3052 19.0326C1.60174 19.792 1.99263 20.4345 2.63514 21.0725C3.27316 21.7105 3.91567 22.1059 4.6705 22.3979C5.40287 22.681 6.23858 22.8787 7.4607 22.9326C8.6873 22.9865 9.0782 23 12.2009 23C15.3236 23 15.7145 22.9865 16.9411 22.9326C18.1632 22.8787 19.0034 22.681 19.7313 22.3979C20.4861 22.1059 21.1286 21.7105 21.7666 21.0725C22.4046 20.4345 22.8 19.792 23.0921 19.0371C23.3751 18.3047 23.5728 17.469 23.6267 16.2469C23.6807 15.0203 23.6941 14.6294 23.6941 11.5067C23.6941 8.38406 23.6807 7.99316 23.6267 6.76656C23.5728 5.54444 23.3751 4.70424 23.0921 3.97636C22.809 3.21254 22.4181 2.57003 21.7756 1.93202C21.1376 1.294 20.4951 0.898613 19.7402 0.606564C19.0079 0.323501 18.1722 0.125806 16.9501 0.0718891C15.719 0.0134792 15.3281 0 12.2054 0Z" fill="white"/>
<path d="M12.2053 5.59375C8.94329 5.59375 6.29688 8.24017 6.29688 11.5021C6.29688 14.7641 8.94329 17.4105 12.2053 17.4105C15.4672 17.4105 18.1136 14.7641 18.1136 11.5021C18.1136 8.24017 15.4672 5.59375 12.2053 5.59375ZM12.2053 15.3347C10.089 15.3347 8.37267 13.6184 8.37267 11.5021C8.37267 9.3859 10.089 7.66955 12.2053 7.66955C14.3215 7.66955 16.0378 9.3859 16.0378 11.5021C16.0378 13.6184 14.3215 15.3347 12.2053 15.3347Z" fill="white"/>
<path d="M19.7275 5.35984C19.7275 6.12366 19.1074 6.73921 18.3481 6.73921C17.5843 6.73921 16.9688 6.11917 16.9688 5.35984C16.9688 4.59602 17.5888 3.98047 18.3481 3.98047C19.1074 3.98047 19.7275 4.60051 19.7275 5.35984Z" fill="white"/>
</svg>
