<svg width="42" height="42" viewBox="0 0 42 42" fill="none" xmlns="http://www.w3.org/2000/svg">
<path d="M3.5 29.8551H21" stroke="#262626" stroke-width="2" stroke-miterlimit="10" stroke-linecap="round" stroke-linejoin="round"/>
<path d="M7.38495 23.625H17.1151C20.2301 23.625 21 24.395 21 27.475V34.6675C21 37.7475 20.2301 38.5175 17.1151 38.5175H7.38495C4.26995 38.5175 3.5 37.7475 3.5 34.6675V27.475C3.5 24.395 4.26995 23.625 7.38495 23.625Z" stroke="#262626" stroke-width="2" stroke-linecap="round" stroke-linejoin="round"/>
<path d="M38.5 26.25C38.5 33.0225 33.0225 38.5 26.25 38.5L28.0875 35.4375" stroke="#262626" stroke-width="2" stroke-linecap="round" stroke-linejoin="round"/>
<path d="M3.5 15.75C3.5 8.9775 8.9775 3.5 15.75 3.5L13.9125 6.5625" stroke="#262626" stroke-width="2" stroke-linecap="round" stroke-linejoin="round"/>
<path d="M32.375 19.25C36.7242 19.25 40.25 15.7242 40.25 11.375C40.25 7.02576 36.7242 3.5 32.375 3.5C28.0258 3.5 24.5 7.02576 24.5 11.375C24.5 15.7242 28.0258 19.25 32.375 19.25Z" stroke="#262626" stroke-width="2" stroke-linecap="round" stroke-linejoin="round"/>
</svg>
