<svg width="56" height="56" viewBox="0 0 56 56" fill="none" xmlns="http://www.w3.org/2000/svg">
<rect x="0.969727" y="0.753662" width="55" height="55" rx="10" fill="#3066C1"/>
<path d="M23.0563 38.3194L22.7578 39.0074L23.0563 38.3194ZM20.3503 35.4846L19.6529 35.7603L20.3503 35.4846ZM37.5891 35.4846L38.2866 35.7603L37.5891 35.4846ZM34.8831 38.3194L35.1817 39.0074L34.8831 38.3194ZM19.9697 28.2181L20.7168 28.2845L20.7535 27.8714L20.4231 27.6207L19.9697 28.2181ZM36.4697 23.7181V22.9681H36.4697L36.4697 23.7181ZM29.7375 22.6072L30.2678 23.1375L29.7375 22.6072ZM31.8588 20.4859L32.3891 21.0162L31.8588 20.4859ZM35.3943 20.4859L34.864 21.0162L35.3943 20.4859ZM35.6532 23.7181L35.6533 24.4681L36.036 24.4681L36.2606 24.1581L35.6532 23.7181ZM28.3588 22.6072L27.8285 23.1376L28.3588 22.6072ZM26.2375 20.4859L25.7072 21.0162L26.2375 20.4859ZM22.702 20.4859L23.2323 21.0162L22.702 20.4859ZM28.9697 37.7181H29.7197H28.9697ZM19.9373 28.1935L19.4771 28.7858L19.9373 28.1935ZM37.9051 28.2652L37.474 27.6515L37.9051 28.2652ZM27.4697 37.9681C26.2941 37.9681 25.4518 37.9677 24.7874 37.9202C24.1305 37.8732 23.7044 37.783 23.3549 37.6314L22.7578 39.0074C23.3271 39.2545 23.9428 39.3636 24.6805 39.4164C25.4107 39.4686 26.3156 39.4681 27.4697 39.4681V37.9681ZM19.2198 30.861C19.2198 32.0715 19.2194 33.0153 19.2689 33.7758C19.3188 34.5424 19.4217 35.1757 19.6529 35.7603L21.0478 35.2088C20.8983 34.8308 20.8109 34.3727 20.7657 33.6783C20.7201 32.9779 20.7198 32.0911 20.7198 30.861H19.2198ZM23.3549 37.6314C22.3188 37.1818 21.4849 36.3143 21.0478 35.2088L19.6529 35.7603C20.2307 37.2217 21.3436 38.3937 22.7578 39.0074L23.3549 37.6314ZM37.2197 30.861C37.2197 32.0911 37.2194 32.9778 37.1737 33.6783C37.1285 34.3727 37.0411 34.8308 36.8917 35.2088L38.2866 35.7603C38.5177 35.1758 38.6206 34.5424 38.6706 33.7758C38.7201 33.0153 38.7197 32.0715 38.7197 30.861H37.2197ZM30.4697 39.4681C31.6238 39.4681 32.5288 39.4686 33.259 39.4164C33.9966 39.3636 34.6123 39.2545 35.1817 39.0074L34.5846 37.6314C34.2351 37.783 33.8089 37.8732 33.152 37.9202C32.4877 37.9677 31.6453 37.9681 30.4697 37.9681V39.4681ZM36.8917 35.2088C36.4545 36.3143 35.6207 37.1818 34.5846 37.6314L35.1817 39.0074C36.5959 38.3937 37.7088 37.2217 38.2866 35.7603L36.8917 35.2088ZM20.7198 30.861C20.7198 29.3877 20.6515 29.0194 20.7168 28.2845L19.2227 28.1518C19.1505 28.9641 19.2198 29.5751 19.2198 30.861H20.7198ZM36.4697 24.4681C37.4362 24.4681 38.2197 25.2516 38.2197 26.2181H39.7197C39.7197 24.4232 38.2647 22.9681 36.4697 22.9681V24.4681ZM21.4697 22.9681C19.6748 22.9681 18.2197 24.4232 18.2197 26.2181H19.7197C19.7197 25.2516 20.5032 24.4681 21.4697 24.4681V22.9681ZM30.2678 23.1375L32.3891 21.0162L31.3285 19.9556L29.2072 22.0769L30.2678 23.1375ZM32.3891 21.0162C33.0726 20.3328 34.1806 20.3328 34.864 21.0162L35.9247 19.9556C34.6555 18.6864 32.5977 18.6864 31.3285 19.9556L32.3891 21.0162ZM29.2072 22.0769C28.8936 22.3904 28.4144 22.9007 28.2459 23.5218L29.6936 23.9145C29.7459 23.7217 29.9424 23.463 30.2678 23.1375L29.2072 22.0769ZM34.864 21.0162C35.48 21.6322 35.5411 22.5944 35.0459 23.2781L36.2606 24.1581C37.1814 22.887 37.07 21.1009 35.9247 19.9556L34.864 21.0162ZM28.8892 22.0769L26.7678 19.9556L25.7072 21.0162L27.8285 23.1376L28.8892 22.0769ZM26.7678 19.9556C25.4986 18.6864 23.4408 18.6864 22.1716 19.9556L23.2323 21.0162C23.9157 20.3328 25.0238 20.3328 25.7072 21.0162L26.7678 19.9556ZM27.8285 23.1376C28.0296 23.3386 28.1587 23.5931 28.2459 23.9145L29.6936 23.5218C29.56 23.0294 29.3271 22.5148 28.8892 22.0769L27.8285 23.1376ZM22.1716 19.9556C21.0263 21.1009 20.9149 22.8871 21.8357 24.1581L23.0505 23.2781C22.5552 22.5945 22.6164 21.6322 23.2323 21.0162L22.1716 19.9556ZM28.2197 23.7181L28.2197 37.7181H29.7197L29.7197 23.7181H28.2197ZM22.4431 24.4681L28.9697 24.4681L28.9697 22.9681L22.4431 22.9681L22.4431 24.4681ZM21.4697 27.9681C21.0647 27.9681 20.6937 27.8314 20.3974 27.6012L19.4771 28.7858C20.0273 29.2132 20.7198 29.4681 21.4697 29.4681V27.9681ZM20.3974 27.6012C19.9837 27.2798 19.7197 26.78 19.7197 26.2181H18.2197C18.2197 27.2627 18.7134 28.1924 19.4771 28.7858L20.3974 27.6012ZM20.4231 27.6207L20.3906 27.596L19.4839 28.791L19.5164 28.8156L20.4231 27.6207ZM30.4697 37.9681H28.9697V39.4681H30.4697V37.9681ZM28.9697 37.9681H27.4697V39.4681H28.9697V37.9681ZM28.2197 37.7181L28.2197 38.7181H29.7197L29.7197 37.7181H28.2197ZM36.4697 27.9681H28.9697V29.4681H36.4697V27.9681ZM28.9697 27.9681H21.4697V29.4681H28.9697V27.9681ZM38.2197 26.2181C38.2197 26.8101 37.9265 27.3337 37.474 27.6515L38.3362 28.879C39.1714 28.2923 39.7197 27.3193 39.7197 26.2181H38.2197ZM37.474 27.6515C37.1899 27.8511 36.8446 27.9681 36.4697 27.9681V29.4681C37.1631 29.4681 37.8079 29.2501 38.3362 28.879L37.474 27.6515ZM38.7197 30.861C38.7197 29.5161 38.7202 28.9855 38.6523 28.2006L37.1579 28.3299C37.2192 29.0388 37.2197 29.5032 37.2197 30.861H38.7197ZM28.9697 24.4681L35.3944 24.4681L35.3943 22.9681L28.9697 22.9681L28.9697 24.4681ZM35.3944 24.4681L35.6533 24.4681L35.6532 22.9681L35.3943 22.9681L35.3944 24.4681ZM35.3944 24.4681L36.4697 24.4681L36.4697 22.9681L35.3943 22.9681L35.3944 24.4681ZM22.4431 22.9681H21.4697V24.4681H22.4431V22.9681ZM21.4697 24.4681L25.2197 24.4681L25.2197 22.9681L21.4697 22.9681L21.4697 24.4681ZM25.2197 24.4681L28.9697 24.4681L28.9697 22.9681L25.2197 22.9681L25.2197 24.4681ZM22.4431 24.4681L25.2197 24.4681L25.2197 22.9681L22.4431 22.9681L22.4431 24.4681ZM28.9697 24.4681L35.6532 24.4681L35.6532 22.9681L28.9697 22.9681L28.9697 24.4681Z" fill="white"/>
</svg>
