<svg width="6" height="10" viewBox="0 0 6 10" fill="none" xmlns="http://www.w3.org/2000/svg">
<path d="M0.805478 3.38722L3.963 0.231768C4.09401 0.11331 4.26556 0.0497702 4.44213 0.0543041C4.61869 0.058838 4.78675 0.131098 4.91151 0.256124C5.03627 0.381149 5.10818 0.549363 5.11234 0.725939C5.1165 0.902515 5.05259 1.07393 4.93386 1.20469L1.7784 4.36015C1.64941 4.48918 1.57694 4.66416 1.57694 4.84661C1.57694 5.02906 1.64941 5.20404 1.7784 5.33307L4.93386 8.48852C5.06287 8.61763 5.13532 8.79271 5.13525 8.97523C5.13519 9.15775 5.06262 9.33277 4.93351 9.46179C4.8044 9.59081 4.62933 9.66325 4.44681 9.66319C4.26429 9.66312 4.08926 9.59056 3.96025 9.46145L0.805478 6.30599C0.418502 5.9189 0.201112 5.39396 0.201112 4.84661C0.201112 4.29926 0.418502 3.77432 0.805478 3.38722Z" fill="#333333"/>
</svg>
