<svg width="47" height="47" viewBox="0 0 47 47" fill="none" xmlns="http://www.w3.org/2000/svg">
<circle r="22.75" transform="matrix(-1 0 0 1 23.5 23.5)" stroke="#333333" stroke-width="1.5"/>
<path d="M19.8055 22.3872L22.963 19.2318C23.094 19.1133 23.2656 19.0498 23.4421 19.0543C23.6187 19.0588 23.7868 19.1311 23.9115 19.2561C24.0363 19.3811 24.1082 19.5494 24.1123 19.7259C24.1165 19.9025 24.0526 20.0739 23.9339 20.2047L20.7784 23.3601C20.6494 23.4892 20.5769 23.6642 20.5769 23.8466C20.5769 24.0291 20.6494 24.204 20.7784 24.3331L23.9339 27.4885C24.0629 27.6176 24.1353 27.7927 24.1353 27.9752C24.1352 28.1578 24.0626 28.3328 23.9335 28.4618C23.8044 28.5908 23.6293 28.6633 23.4468 28.6632C23.2643 28.6631 23.0893 28.5906 22.9602 28.4614L19.8055 25.306C19.4185 24.9189 19.2011 24.394 19.2011 23.8466C19.2011 23.2993 19.4185 22.7743 19.8055 22.3872Z" fill="#333333"/>
</svg>
