<svg width="37" height="37" viewBox="0 0 37 37" fill="none" xmlns="http://www.w3.org/2000/svg">
<circle cx="18.5" cy="18.5" r="17.8" stroke="#333333" stroke-width="1.4"/>
<path d="M18.1593 23.1736L18.1593 23.1736L18.1589 23.1732L13.4919 18.5063C13.2121 18.2264 13.2121 17.7726 13.4919 17.4927C13.7718 17.2128 14.2256 17.2128 14.5055 17.4927L17.949 20.9362V10.6657C17.949 10.2699 18.2699 9.94902 18.6657 9.94902C19.0615 9.94902 19.3824 10.2699 19.3824 10.6657V20.9362L22.8259 17.4927C23.1057 17.2128 23.5596 17.2128 23.8394 17.4927C24.1193 17.7726 24.1193 18.2264 23.8394 18.5063L19.1725 23.1732L19.1721 23.1736C19.1555 23.1903 19.138 23.2059 19.12 23.2207L19.0883 23.182L19.12 23.2207C19.1137 23.2259 19.1059 23.2316 19.1 23.2358C19.0978 23.2374 19.0959 23.2388 19.0945 23.2399C19.0945 23.2399 19.0944 23.2399 19.0944 23.2399L18.1593 23.1736ZM18.1593 23.1736C18.1759 23.1902 18.1933 23.2059 18.2113 23.2207L18.2431 23.182M18.1593 23.1736L18.2431 23.182M18.2431 23.182L18.2113 23.2207C18.2175 23.2257 18.2254 23.2315 18.2312 23.2357C18.2335 23.2373 18.2355 23.2388 18.2369 23.2398L18.2369 23.2399C18.2387 23.2412 18.2407 23.2428 18.2429 23.2444C18.2501 23.2499 18.2589 23.2566 18.2677 23.2624L18.2677 23.2625C18.2786 23.2698 18.2908 23.2766 18.2989 23.2815L18.2431 23.182ZM18.5257 23.3693L18.5257 23.3693C18.5157 23.3673 18.5054 23.3646 18.497 23.3624C18.4945 23.3618 18.4922 23.3611 18.4901 23.3606L18.5024 23.3122L18.4903 23.3607L18.5257 23.3693ZM18.5257 23.3693C18.5392 23.3719 18.5536 23.3736 18.5636 23.3751L18.5637 23.3751L18.5257 23.3693ZM18.8057 23.3693L18.8056 23.3693C18.7952 23.3713 18.7843 23.3728 18.7752 23.3741C18.7725 23.3744 18.7701 23.3748 18.7678 23.3751C18.7678 23.3751 18.7678 23.3751 18.7677 23.3751L18.8057 23.3693ZM18.8057 23.3693C18.8185 23.3667 18.8319 23.363 18.8411 23.3607M18.8057 23.3693L18.8411 23.3607M18.8411 23.3607C18.8431 23.3602 18.8454 23.3596 18.8479 23.359C18.8555 23.3572 18.865 23.3549 18.8737 23.3522L18.8411 23.3607ZM18.3279 23.2985C18.3393 23.3046 18.3517 23.3101 18.3603 23.3142C18.3622 23.315 18.3642 23.316 18.3664 23.3171C18.3737 23.3206 18.3827 23.3249 18.3914 23.3286L18.3915 23.3286C18.4003 23.3322 18.4097 23.3355 18.4175 23.3382C18.4197 23.339 18.4218 23.3397 18.4237 23.3404L18.4405 23.2933C18.4431 23.2943 18.4458 23.2952 18.4484 23.2962L18.3279 23.2985ZM18.9015 23.3427C18.9038 23.3418 18.9059 23.3411 18.9079 23.3403L18.9015 23.3427Z" fill="#333333" stroke="#333333" stroke-width="0.1"/>
<path d="M23.3326 24.6166H13.9987C13.6029 24.6166 13.282 24.9375 13.282 25.3333C13.282 25.7291 13.6029 26.0501 13.9987 26.0501H23.3326C23.7285 26.0501 24.0493 25.7292 24.0493 25.3334C24.0493 24.9375 23.7284 24.6166 23.3326 24.6166Z" fill="#333333" stroke="#333333" stroke-width="0.1"/>
</svg>
