<svg width="27" height="27" viewBox="0 0 27 27" fill="none" xmlns="http://www.w3.org/2000/svg">
<path d="M13.6504 14.475C13.5629 14.4625 13.4504 14.4625 13.3504 14.475C11.1504 14.4 9.40039 12.6 9.40039 10.3875C9.40039 8.12498 11.2254 6.28748 13.5004 6.28748C15.7629 6.28748 17.6004 8.12498 17.6004 10.3875C17.5879 12.6 15.8504 14.4 13.6504 14.475Z" stroke="#333333" stroke-width="1.5" stroke-linecap="round" stroke-linejoin="round"/>
<path d="M21.9247 22.725C19.6997 24.7625 16.7497 26 13.4997 26C10.2497 26 7.29971 24.7625 5.07471 22.725C5.19971 21.55 5.94971 20.4 7.28721 19.5C10.7122 17.225 16.3122 17.225 19.7122 19.5C21.0497 20.4 21.7997 21.55 21.9247 22.725Z" stroke="#333333" stroke-width="1.5" stroke-linecap="round" stroke-linejoin="round"/>
<path d="M13.5 26C20.4036 26 26 20.4036 26 13.5C26 6.59644 20.4036 1 13.5 1C6.59644 1 1 6.59644 1 13.5C1 20.4036 6.59644 26 13.5 26Z" stroke="#333333" stroke-width="1.5" stroke-linecap="round" stroke-linejoin="round"/>
</svg>
