<svg width="68" height="68" viewBox="0 0 68 68" fill="none" xmlns="http://www.w3.org/2000/svg">
<circle cx="34" cy="34" r="33" stroke="#333333" stroke-opacity="0.5" stroke-width="2"/>
<mask id="path-2-outside-1" maskUnits="userSpaceOnUse" x="17.1228" y="17.123" width="33" height="33" fill="black">
<rect fill="white" x="17.1228" y="17.123" width="33" height="33"/>
<path fill-rule="evenodd" clip-rule="evenodd" d="M34 18.123C25.2356 18.123 18.1228 25.2358 18.1228 34.0003C18.1228 42.7647 25.2356 49.8775 34 49.8775C34.4142 49.8775 34.75 49.5417 34.75 49.1275C34.75 48.7133 34.4142 48.3775 34 48.3775C32.674 48.3775 31.3897 48.1977 30.1702 47.8611C30.224 47.7063 30.2264 47.5362 30.1732 47.377C29.4927 45.3391 28.972 43.2618 28.6111 41.1636C30.4003 41.3859 32.2001 41.4975 34.0001 41.4975C34.4143 41.4975 34.7501 41.1617 34.7501 40.7475C34.7501 40.3333 34.4143 39.9975 34.0001 39.9975C32.1209 39.9975 30.2415 39.8715 28.3749 39.6206C27.8741 35.8892 27.8743 32.1065 28.3755 28.3751C32.1065 27.874 35.8889 27.8738 39.62 28.3745C39.8709 30.2412 39.997 32.1207 39.997 34C39.997 34.4143 40.3327 34.75 40.747 34.75C41.1612 34.75 41.497 34.4143 41.497 34C41.497 32.2 41.3853 30.4 41.163 28.6106C43.2614 28.9716 45.3389 29.4924 47.3771 30.1729C47.5406 30.2275 47.7096 30.2226 47.8607 30.17C48.1974 31.3896 48.3773 32.6741 48.3773 34.0003C48.3773 34.4145 48.713 34.7503 49.1273 34.7503C49.5415 34.7503 49.8773 34.4145 49.8773 34.0003C49.8773 25.2358 42.7645 18.123 34 18.123ZM39.3836 26.8316C35.807 26.3882 32.1884 26.3884 28.6118 26.8321C28.9727 24.7355 29.4932 22.6596 30.1732 20.6231C30.2263 20.4641 30.224 20.2941 30.1703 20.1394C31.3898 19.8029 32.674 19.623 34 19.623C35.3261 19.623 36.6104 19.8029 37.8298 20.1395C37.7774 20.2902 37.7724 20.4588 37.8266 20.622C38.5032 22.6588 39.0227 24.7349 39.3836 26.8316ZM47.3173 28.5754C45.2239 27.9062 43.0924 27.3988 40.9411 27.0531C40.5954 24.9035 40.089 22.7738 39.4236 20.6825C42.9995 22.1415 45.8579 24.9996 47.3173 28.5754ZM20.6828 28.5754C22.7746 27.9067 24.9046 27.3996 27.0543 27.0539C27.375 25.0592 27.8348 23.0815 28.4337 21.1355H27.9491C27.8538 21.1355 27.7626 21.1178 27.6787 21.0853C24.5237 22.6336 22.0179 25.3042 20.6828 28.5754ZM20.6231 30.1729C20.4596 30.2275 20.2905 30.2226 20.1394 30.17C19.8027 31.3896 19.6228 32.6741 19.6228 34.0003C19.6228 35.3264 19.8027 36.6109 20.1393 37.8305C20.2936 37.7769 20.4633 37.7744 20.622 37.8271C22.659 38.5038 24.7351 39.0233 26.832 39.3842C26.3885 35.8072 26.3887 32.1883 26.8325 28.6114C24.7357 28.9724 22.6598 29.4929 20.6231 30.1729ZM21.0853 40.3221C22.4896 43.1833 24.817 45.5107 27.6782 46.915C27.7622 46.8824 27.8536 46.8645 27.9491 46.8645H28.4337C27.8344 44.9171 27.3743 42.9379 27.0536 40.9417C25.0589 40.6209 23.0813 40.1618 21.1356 39.5656V40.0516C21.1356 40.147 21.1178 40.2382 21.0853 40.3221ZM43.379 39.2891C41.1198 39.2891 39.2883 41.1206 39.2883 43.3798C39.2883 45.639 41.1198 47.4705 43.379 47.4705C45.6383 47.4705 47.4697 45.639 47.4697 43.3798C47.4697 41.1206 45.6383 39.2891 43.379 39.2891ZM37.7883 43.3798C37.7883 40.2921 40.2914 37.7891 43.379 37.7891C46.4667 37.7891 48.9697 40.2921 48.9697 43.3798C48.9697 44.7028 48.5102 45.9186 47.7419 46.876C47.8895 46.9013 48.031 46.9709 48.1449 47.0848L49.6576 48.5976C49.9505 48.8905 49.9505 49.3653 49.6576 49.6582C49.3647 49.9511 48.8899 49.9511 48.597 49.6582L47.0843 48.1455C46.9703 48.0316 46.9007 47.8901 46.8754 47.7426C45.918 48.5109 44.7022 48.9705 43.379 48.9705C40.2914 48.9705 37.7883 46.4675 37.7883 43.3798Z"/>
</mask>
<path fill-rule="evenodd" clip-rule="evenodd" d="M34 18.123C25.2356 18.123 18.1228 25.2358 18.1228 34.0003C18.1228 42.7647 25.2356 49.8775 34 49.8775C34.4142 49.8775 34.75 49.5417 34.75 49.1275C34.75 48.7133 34.4142 48.3775 34 48.3775C32.674 48.3775 31.3897 48.1977 30.1702 47.8611C30.224 47.7063 30.2264 47.5362 30.1732 47.377C29.4927 45.3391 28.972 43.2618 28.6111 41.1636C30.4003 41.3859 32.2001 41.4975 34.0001 41.4975C34.4143 41.4975 34.7501 41.1617 34.7501 40.7475C34.7501 40.3333 34.4143 39.9975 34.0001 39.9975C32.1209 39.9975 30.2415 39.8715 28.3749 39.6206C27.8741 35.8892 27.8743 32.1065 28.3755 28.3751C32.1065 27.874 35.8889 27.8738 39.62 28.3745C39.8709 30.2412 39.997 32.1207 39.997 34C39.997 34.4143 40.3327 34.75 40.747 34.75C41.1612 34.75 41.497 34.4143 41.497 34C41.497 32.2 41.3853 30.4 41.163 28.6106C43.2614 28.9716 45.3389 29.4924 47.3771 30.1729C47.5406 30.2275 47.7096 30.2226 47.8607 30.17C48.1974 31.3896 48.3773 32.6741 48.3773 34.0003C48.3773 34.4145 48.713 34.7503 49.1273 34.7503C49.5415 34.7503 49.8773 34.4145 49.8773 34.0003C49.8773 25.2358 42.7645 18.123 34 18.123ZM39.3836 26.8316C35.807 26.3882 32.1884 26.3884 28.6118 26.8321C28.9727 24.7355 29.4932 22.6596 30.1732 20.6231C30.2263 20.4641 30.224 20.2941 30.1703 20.1394C31.3898 19.8029 32.674 19.623 34 19.623C35.3261 19.623 36.6104 19.8029 37.8298 20.1395C37.7774 20.2902 37.7724 20.4588 37.8266 20.622C38.5032 22.6588 39.0227 24.7349 39.3836 26.8316ZM47.3173 28.5754C45.2239 27.9062 43.0924 27.3988 40.9411 27.0531C40.5954 24.9035 40.089 22.7738 39.4236 20.6825C42.9995 22.1415 45.8579 24.9996 47.3173 28.5754ZM20.6828 28.5754C22.7746 27.9067 24.9046 27.3996 27.0543 27.0539C27.375 25.0592 27.8348 23.0815 28.4337 21.1355H27.9491C27.8538 21.1355 27.7626 21.1178 27.6787 21.0853C24.5237 22.6336 22.0179 25.3042 20.6828 28.5754ZM20.6231 30.1729C20.4596 30.2275 20.2905 30.2226 20.1394 30.17C19.8027 31.3896 19.6228 32.6741 19.6228 34.0003C19.6228 35.3264 19.8027 36.6109 20.1393 37.8305C20.2936 37.7769 20.4633 37.7744 20.622 37.8271C22.659 38.5038 24.7351 39.0233 26.832 39.3842C26.3885 35.8072 26.3887 32.1883 26.8325 28.6114C24.7357 28.9724 22.6598 29.4929 20.6231 30.1729ZM21.0853 40.3221C22.4896 43.1833 24.817 45.5107 27.6782 46.915C27.7622 46.8824 27.8536 46.8645 27.9491 46.8645H28.4337C27.8344 44.9171 27.3743 42.9379 27.0536 40.9417C25.0589 40.6209 23.0813 40.1618 21.1356 39.5656V40.0516C21.1356 40.147 21.1178 40.2382 21.0853 40.3221ZM43.379 39.2891C41.1198 39.2891 39.2883 41.1206 39.2883 43.3798C39.2883 45.639 41.1198 47.4705 43.379 47.4705C45.6383 47.4705 47.4697 45.639 47.4697 43.3798C47.4697 41.1206 45.6383 39.2891 43.379 39.2891ZM37.7883 43.3798C37.7883 40.2921 40.2914 37.7891 43.379 37.7891C46.4667 37.7891 48.9697 40.2921 48.9697 43.3798C48.9697 44.7028 48.5102 45.9186 47.7419 46.876C47.8895 46.9013 48.031 46.9709 48.1449 47.0848L49.6576 48.5976C49.9505 48.8905 49.9505 49.3653 49.6576 49.6582C49.3647 49.9511 48.8899 49.9511 48.597 49.6582L47.0843 48.1455C46.9703 48.0316 46.9007 47.8901 46.8754 47.7426C45.918 48.5109 44.7022 48.9705 43.379 48.9705C40.2914 48.9705 37.7883 46.4675 37.7883 43.3798Z" fill="#333333" fill-opacity="0.5"/>
<path d="M30.1702 47.8611L29.9813 47.7953C29.9631 47.8476 29.9674 47.905 29.9931 47.954C30.0188 48.003 30.0636 48.0391 30.117 48.0539L30.1702 47.8611ZM30.1732 47.377L30.3629 47.3137L30.1732 47.377ZM28.6111 41.1636L28.6357 40.9651C28.5729 40.9573 28.5101 40.9797 28.4664 41.0255C28.4227 41.0713 28.4032 41.1351 28.414 41.1975L28.6111 41.1636ZM28.3749 39.6206L28.1767 39.6472C28.1887 39.7365 28.2589 39.8068 28.3483 39.8188L28.3749 39.6206ZM28.3755 28.3751L28.3489 28.1769C28.2595 28.1889 28.1893 28.2592 28.1773 28.3485L28.3755 28.3751ZM39.62 28.3745L39.8182 28.3478C39.8062 28.2585 39.7359 28.1883 39.6466 28.1763L39.62 28.3745ZM41.163 28.6106L41.1969 28.4135C41.1345 28.4028 41.0707 28.4223 41.0249 28.466C40.9791 28.5097 40.9567 28.5725 40.9645 28.6353L41.163 28.6106ZM47.3771 30.1729L47.4404 29.9832L47.3771 30.1729ZM47.8607 30.17L48.0535 30.1168C48.0388 30.0635 48.0026 30.0186 47.9536 29.9929C47.9046 29.9672 47.8472 29.9629 47.7949 29.9811L47.8607 30.17ZM28.6118 26.8321L28.4147 26.7982C28.404 26.8606 28.4234 26.9244 28.4671 26.9702C28.5108 27.016 28.5736 27.0384 28.6365 27.0306L28.6118 26.8321ZM39.3836 26.8316L39.359 27.03C39.4218 27.0378 39.4846 27.0154 39.5283 26.9696C39.572 26.9238 39.5914 26.86 39.5807 26.7976L39.3836 26.8316ZM30.1732 20.6231L30.3629 20.6864V20.6864L30.1732 20.6231ZM30.1703 20.1394L30.1171 19.9467C30.0638 19.9614 30.019 19.9975 29.9933 20.0464C29.9675 20.0954 29.9632 20.1528 29.9814 20.2051L30.1703 20.1394ZM37.8298 20.1395L38.0187 20.2052C38.0369 20.153 38.0326 20.0955 38.0069 20.0465C37.9812 19.9976 37.9364 19.9614 37.8831 19.9467L37.8298 20.1395ZM37.8266 20.622L37.6368 20.685L37.8266 20.622ZM40.9411 27.0531L40.7436 27.0849C40.7573 27.1701 40.8241 27.2369 40.9093 27.2506L40.9411 27.0531ZM47.3173 28.5754L47.2564 28.7659C47.3304 28.7895 47.4114 28.7682 47.4641 28.7111C47.5169 28.6541 47.5318 28.5717 47.5025 28.4998L47.3173 28.5754ZM39.4236 20.6825L39.4991 20.4973C39.4272 20.4679 39.3449 20.4829 39.2879 20.5355C39.2308 20.5882 39.2094 20.6691 39.233 20.7431L39.4236 20.6825ZM27.0543 27.0539L27.086 27.2514C27.1712 27.2377 27.2381 27.1709 27.2518 27.0857L27.0543 27.0539ZM20.6828 28.5754L20.4976 28.4998C20.4682 28.5717 20.4832 28.6542 20.5359 28.7112C20.5887 28.7682 20.6697 28.7896 20.7437 28.7659L20.6828 28.5754ZM28.4337 21.1355L28.6248 21.1944C28.6435 21.1337 28.6323 21.0678 28.5946 21.0167C28.5568 20.9657 28.4971 20.9355 28.4337 20.9355V21.1355ZM27.6787 21.0853L27.7509 20.8988C27.6988 20.8787 27.6407 20.8812 27.5906 20.9058L27.6787 21.0853ZM20.1394 30.17L20.2052 29.9811C20.1529 29.9629 20.0954 29.9672 20.0464 29.9929C19.9975 30.0186 19.9613 30.0634 19.9466 30.1168L20.1394 30.17ZM20.6231 30.1729L20.5598 29.9832H20.5598L20.6231 30.1729ZM20.1393 37.8305L19.9465 37.8837C19.9613 37.937 19.9974 37.9818 20.0464 38.0075C20.0953 38.0333 20.1527 38.0375 20.205 38.0194L20.1393 37.8305ZM20.622 37.8271L20.6851 37.6373L20.622 37.8271ZM26.832 39.3842L26.798 39.5813C26.8604 39.592 26.9242 39.5726 26.97 39.5289C27.0158 39.4852 27.0382 39.4224 27.0304 39.3596L26.832 39.3842ZM26.8325 28.6114L27.031 28.6361C27.0388 28.5733 27.0164 28.5104 26.9706 28.4667C26.9248 28.423 26.861 28.4036 26.7986 28.4143L26.8325 28.6114ZM27.6782 46.915L27.5901 47.0945C27.6403 47.1191 27.6984 47.1216 27.7505 47.1015L27.6782 46.915ZM21.0853 40.3221L20.8988 40.2499C20.8787 40.302 20.8812 40.3601 20.9058 40.4102L21.0853 40.3221ZM28.4337 46.8645V47.0646C28.4971 47.0646 28.5568 47.0344 28.5946 46.9834C28.6323 46.9323 28.6435 46.8664 28.6248 46.8057L28.4337 46.8645ZM27.0536 40.9417L27.251 40.9099C27.2373 40.8247 27.1705 40.7579 27.0853 40.7442L27.0536 40.9417ZM21.1356 39.5656L21.1942 39.3744C21.1335 39.3558 21.0677 39.3671 21.0167 39.4048C20.9657 39.4425 20.9356 39.5021 20.9356 39.5656H21.1356ZM47.7419 46.876L47.5859 46.7508C47.5416 46.8061 47.5298 46.8807 47.5549 46.9469C47.58 47.0132 47.6383 47.0612 47.7081 47.0731L47.7419 46.876ZM48.1449 47.0848L48.0035 47.2263L48.0035 47.2263L48.1449 47.0848ZM49.6576 48.5976L49.7991 48.4561H49.7991L49.6576 48.5976ZM49.6576 49.6582L49.5162 49.5168H49.5162L49.6576 49.6582ZM48.597 49.6582L48.7384 49.5168V49.5168L48.597 49.6582ZM46.8754 47.7426L47.0725 47.7088C47.0606 47.6389 47.0126 47.5807 46.9463 47.5555C46.8801 47.5304 46.8055 47.5422 46.7502 47.5866L46.8754 47.7426ZM18.3228 34.0003C18.3228 25.3463 25.346 18.323 34 18.323V17.923C25.1251 17.923 17.9228 25.1254 17.9228 34.0003H18.3228ZM34 49.6775C25.346 49.6775 18.3228 42.6543 18.3228 34.0003H17.9228C17.9228 42.8752 25.1251 50.0775 34 50.0775V49.6775ZM34.55 49.1275C34.55 49.4313 34.3038 49.6775 34 49.6775V50.0775C34.5247 50.0775 34.95 49.6522 34.95 49.1275H34.55ZM34 48.5775C34.3038 48.5775 34.55 48.8237 34.55 49.1275H34.95C34.95 48.6028 34.5247 48.1775 34 48.1775V48.5775ZM30.117 48.0539C31.3536 48.3952 32.6558 48.5775 34 48.5775V48.1775C32.6921 48.1775 31.4257 48.0001 30.2234 47.6683L30.117 48.0539ZM29.9835 47.4404C30.0225 47.557 30.0208 47.6818 29.9813 47.7953L30.3591 47.9268C30.4272 47.7308 30.4303 47.5153 30.3629 47.3137L29.9835 47.4404ZM28.414 41.1975C28.7766 43.3056 29.2998 45.3927 29.9835 47.4404L30.3629 47.3137C29.6857 45.2854 29.1674 43.2179 28.8082 41.1297L28.414 41.1975ZM34.0001 41.2975C32.2084 41.2975 30.4168 41.1864 28.6357 40.9651L28.5864 41.3621C30.3838 41.5854 32.1919 41.6975 34.0001 41.6975V41.2975ZM34.5501 40.7475C34.5501 41.0513 34.3038 41.2975 34.0001 41.2975V41.6975C34.5248 41.6975 34.9501 41.2722 34.9501 40.7475H34.5501ZM34.0001 40.1975C34.3038 40.1975 34.5501 40.4437 34.5501 40.7475H34.9501C34.9501 40.2228 34.5248 39.7975 34.0001 39.7975V40.1975ZM28.3483 39.8188C30.2237 40.0709 32.1119 40.1975 34.0001 40.1975V39.7975C32.1298 39.7975 30.2594 39.6721 28.4015 39.4224L28.3483 39.8188ZM28.1773 28.3485C27.6737 32.0975 27.6736 35.8981 28.1767 39.6472L28.5731 39.594C28.0747 35.8802 28.0749 32.1155 28.5737 28.4017L28.1773 28.3485ZM39.6466 28.1763C35.8978 27.6732 32.0976 27.6735 28.3489 28.1769L28.4021 28.5733C32.1155 28.0746 35.8799 28.0744 39.5934 28.5727L39.6466 28.1763ZM40.197 34C40.197 32.1118 40.0703 30.2234 39.8182 28.3478L39.4218 28.4011C39.6715 30.2591 39.797 32.1296 39.797 34H40.197ZM40.747 34.55C40.4432 34.55 40.197 34.3038 40.197 34H39.797C39.797 34.5247 40.2223 34.95 40.747 34.95V34.55ZM41.297 34C41.297 34.3038 41.0507 34.55 40.747 34.55V34.95C41.2716 34.95 41.697 34.5247 41.697 34H41.297ZM40.9645 28.6353C41.1858 30.4165 41.297 32.2082 41.297 34H41.697C41.697 32.1917 41.5848 30.3835 41.3615 28.586L40.9645 28.6353ZM47.4404 29.9832C45.3926 29.2994 43.3052 28.7762 41.1969 28.4135L41.1291 28.8078C43.2175 29.167 45.2852 29.6853 47.3137 30.3626L47.4404 29.9832ZM47.7949 29.9811C47.6841 30.0197 47.5605 30.0233 47.4404 29.9832L47.3137 30.3626C47.5206 30.4317 47.7351 30.4255 47.9265 30.3589L47.7949 29.9811ZM48.5773 34.0003C48.5773 32.6559 48.3949 31.3536 48.0535 30.1168L47.6679 30.2232C47.9999 31.4257 48.1773 32.6922 48.1773 34.0003H48.5773ZM49.1273 34.5503C48.8235 34.5503 48.5773 34.304 48.5773 34.0003H48.1773C48.1773 34.5249 48.6026 34.9503 49.1273 34.9503V34.5503ZM49.6773 34.0003C49.6773 34.304 49.431 34.5503 49.1273 34.5503V34.9503C49.6519 34.9503 50.0773 34.5249 50.0773 34.0003H49.6773ZM34 18.323C42.654 18.323 49.6773 25.3463 49.6773 34.0003H50.0773C50.0773 25.1254 42.8749 17.923 34 17.923V18.323ZM28.6365 27.0306C32.1967 26.5889 35.7987 26.5887 39.359 27.03L39.4082 26.6331C35.8152 26.1877 32.1801 26.1879 28.5872 26.6337L28.6365 27.0306ZM29.9835 20.5597C29.3003 22.6059 28.7774 24.6916 28.4147 26.7982L28.8089 26.8661C29.1681 24.7793 29.6861 22.7133 30.3629 20.6864L29.9835 20.5597ZM29.9814 20.2051C30.0208 20.3185 30.0225 20.4431 29.9835 20.5597L30.3629 20.6864C30.4302 20.485 30.4272 20.2696 30.3592 20.0738L29.9814 20.2051ZM34 19.423C32.6559 19.423 31.3537 19.6053 30.1171 19.9467L30.2235 20.3322C31.4258 20.0004 32.6922 19.823 34 19.823V19.423ZM37.8831 19.9467C36.6464 19.6054 35.3442 19.423 34 19.423V19.823C35.3079 19.823 36.5743 20.0004 37.7766 20.3323L37.8831 19.9467ZM38.0164 20.5589C37.9766 20.4391 37.9802 20.3158 38.0187 20.2052L37.641 20.0737C37.5745 20.2646 37.5682 20.4785 37.6368 20.685L38.0164 20.5589ZM39.5807 26.7976C39.2181 24.6911 38.6962 22.6053 38.0164 20.5589L37.6368 20.685C38.3103 22.7124 38.8273 24.7786 39.1865 26.8655L39.5807 26.7976ZM40.9093 27.2506C43.0508 27.5947 45.1726 28.0998 47.2564 28.7659L47.3782 28.3849C45.2753 27.7126 43.1339 27.2029 40.9728 26.8557L40.9093 27.2506ZM39.233 20.7431C39.8954 22.825 40.3995 24.9451 40.7436 27.0849L41.1385 27.0214C40.7913 24.862 40.2826 22.7226 39.6141 20.6218L39.233 20.7431ZM47.5025 28.4998C46.0227 24.8742 43.1249 21.9766 39.4991 20.4973L39.348 20.8676C42.8742 22.3064 45.693 25.1249 47.1321 28.6509L47.5025 28.4998ZM27.0225 26.8565C24.863 27.2037 22.7232 27.7132 20.6219 28.3849L20.7437 28.7659C22.8259 28.1003 24.9461 27.5954 27.086 27.2514L27.0225 26.8565ZM28.2425 21.0767C27.6409 23.0316 27.179 25.0183 26.8568 27.0222L27.2518 27.0857C27.571 25.1001 28.0287 23.1314 28.6248 21.1944L28.2425 21.0767ZM27.9491 21.3355H28.4337V20.9355H27.9491V21.3355ZM27.6066 21.2719C27.7131 21.3131 27.8287 21.3355 27.9491 21.3355V20.9355C27.8788 20.9355 27.8121 20.9225 27.7509 20.8988L27.6066 21.2719ZM20.8679 28.651C22.1844 25.4254 24.6556 22.7917 27.7669 21.2649L27.5906 20.9058C24.3918 22.4756 21.8513 25.183 20.4976 28.4998L20.8679 28.651ZM20.0736 30.3588C20.265 30.4255 20.4795 30.4317 20.6865 30.3626L20.5598 29.9832C20.4396 30.0233 20.316 30.0197 20.2052 29.9811L20.0736 30.3588ZM19.8228 34.0003C19.8228 32.6922 20.0002 31.4257 20.3321 30.2232L19.9466 30.1168C19.6052 31.3536 19.4228 32.6559 19.4228 34.0003H19.8228ZM20.3321 37.7773C20.0002 36.5748 19.8228 35.3083 19.8228 34.0003H19.4228C19.4228 35.3446 19.6051 36.6469 19.9465 37.8837L20.3321 37.7773ZM20.6851 37.6373C20.484 37.5705 20.2691 37.5737 20.0737 37.6416L20.205 38.0194C20.3182 37.9801 20.4426 37.9783 20.559 38.0169L20.6851 37.6373ZM26.8659 39.1871C24.7789 38.8279 22.7125 38.3108 20.6851 37.6373L20.559 38.0169C22.6055 38.6968 24.6913 39.2187 26.798 39.5813L26.8659 39.1871ZM26.634 28.5868C26.1882 32.1801 26.188 35.8155 26.6335 39.4088L27.0304 39.3596C26.589 35.799 26.5892 32.1966 27.031 28.6361L26.634 28.5868ZM20.6865 30.3626C22.7135 29.6858 24.7796 29.1678 26.8664 28.8086L26.7986 28.4143C24.6919 28.777 22.6061 29.2999 20.5598 29.9832L20.6865 30.3626ZM27.7663 46.7354C24.9448 45.3507 22.6496 43.0555 21.2649 40.234L20.9058 40.4102C22.3296 43.3112 24.6891 45.6707 27.5901 47.0945L27.7663 46.7354ZM27.9491 46.6645C27.8285 46.6645 27.7127 46.6871 27.606 46.7285L27.7505 47.1015C27.8118 47.0777 27.8787 47.0646 27.9491 47.0646V46.6645ZM28.4337 46.6645H27.9491V47.0646H28.4337V46.6645ZM26.8561 40.9734C27.1783 42.9787 27.6405 44.967 28.2425 46.9234L28.6248 46.8057C28.0283 44.8672 27.5703 42.897 27.251 40.9099L26.8561 40.9734ZM21.077 39.7568C23.0315 40.3557 25.018 40.8169 27.0218 41.1391L27.0853 40.7442C25.0997 40.4249 23.1311 39.9679 21.1942 39.3744L21.077 39.7568ZM21.3356 40.0516V39.5656H20.9356V40.0516H21.3356ZM21.2719 40.3942C21.3131 40.2877 21.3356 40.172 21.3356 40.0516H20.9356C20.9356 40.1219 20.9225 40.1887 20.8988 40.2499L21.2719 40.3942ZM39.4883 43.3798C39.4883 41.231 41.2303 39.4891 43.379 39.4891V39.0891C41.0093 39.0891 39.0883 41.0101 39.0883 43.3798H39.4883ZM43.379 47.2705C41.2303 47.2705 39.4883 45.5286 39.4883 43.3798H39.0883C39.0883 45.7495 41.0093 47.6705 43.379 47.6705V47.2705ZM47.2697 43.3798C47.2697 45.5286 45.5278 47.2705 43.379 47.2705V47.6705C45.7487 47.6705 47.6697 45.7495 47.6697 43.3798H47.2697ZM43.379 39.4891C45.5278 39.4891 47.2697 41.231 47.2697 43.3798H47.6697C47.6697 41.0101 45.7487 39.0891 43.379 39.0891V39.4891ZM43.379 37.5891C40.1809 37.5891 37.5883 40.1817 37.5883 43.3798H37.9883C37.9883 40.4026 40.4018 37.9891 43.379 37.9891V37.5891ZM49.1697 43.3798C49.1697 40.1817 46.5772 37.5891 43.379 37.5891V37.9891C46.3562 37.9891 48.7697 40.4026 48.7697 43.3798H49.1697ZM47.8979 47.0012C48.6936 46.0095 49.1697 44.75 49.1697 43.3798H48.7697C48.7697 44.6557 48.3267 45.8276 47.5859 46.7508L47.8979 47.0012ZM48.2863 46.9434C48.1422 46.7993 47.9627 46.7109 47.7757 46.6789L47.7081 47.0731C47.8163 47.0917 47.9198 47.1425 48.0035 47.2263L48.2863 46.9434ZM49.7991 48.4561L48.2863 46.9434L48.0035 47.2263L49.5162 48.739L49.7991 48.4561ZM49.7991 49.7996C50.1701 49.4286 50.1701 48.8271 49.7991 48.4561L49.5162 48.739C49.731 48.9538 49.731 49.302 49.5162 49.5168L49.7991 49.7996ZM48.4556 49.7996C48.8265 50.1706 49.4281 50.1706 49.7991 49.7996L49.5162 49.5168C49.3014 49.7316 48.9532 49.7316 48.7384 49.5168L48.4556 49.7996ZM46.9428 48.2869L48.4556 49.7996L48.7384 49.5168L47.2257 48.0041L46.9428 48.2869ZM46.6783 47.7764C46.7104 47.9634 46.7987 48.1428 46.9428 48.2869L47.2257 48.0041C47.1419 47.9204 47.0911 47.8169 47.0725 47.7088L46.6783 47.7764ZM43.379 49.1705C44.7493 49.1705 46.0089 48.6943 47.0006 47.8985L46.7502 47.5866C45.827 48.3274 44.655 48.7705 43.379 48.7705V49.1705ZM37.5883 43.3798C37.5883 46.5779 40.1809 49.1705 43.379 49.1705V48.7705C40.4018 48.7705 37.9883 46.357 37.9883 43.3798H37.5883Z" fill="#333333" fill-opacity="0.5" mask="url(#path-2-outside-1)"/>
</svg>
