<svg width="68" height="68" viewBox="0 0 68 68" fill="none" xmlns="http://www.w3.org/2000/svg">
<circle cx="34" cy="34" r="33" stroke="#333333" stroke-opacity="0.5" stroke-width="2"/>
<path d="M43.5 21H25.5C24.3065 21 23.1619 21.4741 22.318 22.318C21.4741 23.1619 21 24.3065 21 25.5V39C21 40.1935 21.4741 41.3381 22.318 42.182C23.1619 43.0259 24.3065 43.5 25.5 43.5H28.7625L33.7699 47.7334C33.973 47.9053 34.2305 47.9996 34.4966 47.9996C34.7627 47.9996 35.0202 47.9053 35.2234 47.7334L40.2375 43.5H43.5C44.6935 43.5 45.8381 43.0259 46.682 42.182C47.5259 41.3381 48 40.1935 48 39V25.5C48 24.3065 47.5259 23.1619 46.682 22.318C45.8381 21.4741 44.6935 21 43.5 21V21ZM45.75 39C45.75 39.5967 45.5129 40.169 45.091 40.591C44.669 41.0129 44.0967 41.25 43.5 41.25H40.2375C39.7057 41.2502 39.1912 41.4387 38.7851 41.7821L34.5 45.4013L30.2171 41.7821C29.8105 41.4382 29.2951 41.2496 28.7625 41.25H25.5C24.9033 41.25 24.331 41.0129 23.909 40.591C23.4871 40.169 23.25 39.5967 23.25 39V25.5C23.25 24.9033 23.4871 24.331 23.909 23.909C24.331 23.4871 24.9033 23.25 25.5 23.25H43.5C44.0967 23.25 44.669 23.4871 45.091 23.909C45.5129 24.331 45.75 24.9033 45.75 25.5V39Z" fill="#333333" fill-opacity="0.5"/>
<path d="M28.875 28.875H34.5C34.7984 28.875 35.0845 28.7565 35.2955 28.5455C35.5065 28.3345 35.625 28.0484 35.625 27.75C35.625 27.4516 35.5065 27.1655 35.2955 26.9545C35.0845 26.7435 34.7984 26.625 34.5 26.625H28.875C28.5766 26.625 28.2905 26.7435 28.0795 26.9545C27.8685 27.1655 27.75 27.4516 27.75 27.75C27.75 28.0484 27.8685 28.3345 28.0795 28.5455C28.2905 28.7565 28.5766 28.875 28.875 28.875Z" fill="#333333" fill-opacity="0.5"/>
<path d="M40.125 31.125H28.875C28.5766 31.125 28.2905 31.2435 28.0795 31.4545C27.8685 31.6655 27.75 31.9516 27.75 32.25C27.75 32.5484 27.8685 32.8345 28.0795 33.0455C28.2905 33.2565 28.5766 33.375 28.875 33.375H40.125C40.4234 33.375 40.7095 33.2565 40.9205 33.0455C41.1315 32.8345 41.25 32.5484 41.25 32.25C41.25 31.9516 41.1315 31.6655 40.9205 31.4545C40.7095 31.2435 40.4234 31.125 40.125 31.125Z" fill="#333333" fill-opacity="0.5"/>
<path d="M40.125 35.625H28.875C28.5766 35.625 28.2905 35.7435 28.0795 35.9545C27.8685 36.1655 27.75 36.4516 27.75 36.75C27.75 37.0484 27.8685 37.3345 28.0795 37.5455C28.2905 37.7565 28.5766 37.875 28.875 37.875H40.125C40.4234 37.875 40.7095 37.7565 40.9205 37.5455C41.1315 37.3345 41.25 37.0484 41.25 36.75C41.25 36.4516 41.1315 36.1655 40.9205 35.9545C40.7095 35.7435 40.4234 35.625 40.125 35.625Z" fill="#333333" fill-opacity="0.5"/>
</svg>
