<svg width="68" height="68" viewBox="0 0 68 68" fill="none" xmlns="http://www.w3.org/2000/svg">
<circle cx="34" cy="34" r="33" stroke="#BFB9AD" stroke-width="2"/>
<path d="M44.0002 45.25V42.75C44.0002 41.4239 43.4735 40.1521 42.5358 39.2145C41.5981 38.2768 40.3263 37.75 39.0002 37.75H29.0002C27.6742 37.75 26.4024 38.2768 25.4647 39.2145C24.527 40.1521 24.0002 41.4239 24.0002 42.75V45.25" stroke="#BFB9AD" stroke-width="2" stroke-linecap="round" stroke-linejoin="round"/>
<path d="M33.9998 32.75C36.7612 32.75 38.9998 30.5114 38.9998 27.75C38.9998 24.9886 36.7612 22.75 33.9998 22.75C31.2383 22.75 28.9998 24.9886 28.9998 27.75C28.9998 30.5114 31.2383 32.75 33.9998 32.75Z" stroke="#BFB9AD" stroke-width="2" stroke-linecap="round" stroke-linejoin="round"/>
</svg>
