<svg width="68" height="68" viewBox="0 0 68 68" fill="none" xmlns="http://www.w3.org/2000/svg">
<circle cx="34" cy="34" r="33" stroke="#333333" stroke-opacity="0.5" stroke-width="2"/>
<path d="M42.375 22.25H41.25V21.125C41.25 20.8266 41.1315 20.5405 40.9205 20.3295C40.7095 20.1185 40.4234 20 40.125 20C39.8266 20 39.5405 20.1185 39.3295 20.3295C39.1185 20.5405 39 20.8266 39 21.125V22.25H30V21.125C30 20.8266 29.8815 20.5405 29.6705 20.3295C29.4595 20.1185 29.1734 20 28.875 20C28.5766 20 28.2905 20.1185 28.0795 20.3295C27.8685 20.5405 27.75 20.8266 27.75 21.125V22.25H26.625C25.1337 22.2518 23.704 22.845 22.6495 23.8995C21.595 24.954 21.0018 26.3837 21 27.875V41.375C21.0018 42.8663 21.595 44.296 22.6495 45.3505C23.704 46.405 25.1337 46.9982 26.625 47H42.375C43.8663 46.9982 45.296 46.405 46.3505 45.3505C47.405 44.296 47.9982 42.8663 48 41.375V27.875C47.9982 26.3837 47.405 24.954 46.3505 23.8995C45.296 22.845 43.8663 22.2518 42.375 22.25ZM23.25 27.875C23.25 26.9799 23.6056 26.1214 24.2385 25.4885C24.8714 24.8556 25.7299 24.5 26.625 24.5H42.375C43.2701 24.5 44.1286 24.8556 44.7615 25.4885C45.3944 26.1214 45.75 26.9799 45.75 27.875V29H23.25V27.875ZM42.375 44.75H26.625C25.7299 44.75 24.8714 44.3944 24.2385 43.7615C23.6056 43.1286 23.25 42.2701 23.25 41.375V31.25H45.75V41.375C45.75 42.2701 45.3944 43.1286 44.7615 43.7615C44.1286 44.3944 43.2701 44.75 42.375 44.75Z" fill="#333333" fill-opacity="0.5"/>
<path d="M34.5 38.5625C35.432 38.5625 36.1875 37.807 36.1875 36.875C36.1875 35.943 35.432 35.1875 34.5 35.1875C33.568 35.1875 32.8125 35.943 32.8125 36.875C32.8125 37.807 33.568 38.5625 34.5 38.5625Z" fill="#333333" fill-opacity="0.5"/>
<path d="M28.875 38.5625C29.807 38.5625 30.5625 37.807 30.5625 36.875C30.5625 35.943 29.807 35.1875 28.875 35.1875C27.943 35.1875 27.1875 35.943 27.1875 36.875C27.1875 37.807 27.943 38.5625 28.875 38.5625Z" fill="#333333" fill-opacity="0.5"/>
<path d="M40.125 38.5625C41.057 38.5625 41.8125 37.807 41.8125 36.875C41.8125 35.943 41.057 35.1875 40.125 35.1875C39.193 35.1875 38.4375 35.943 38.4375 36.875C38.4375 37.807 39.193 38.5625 40.125 38.5625Z" fill="#333333" fill-opacity="0.5"/>
</svg>
