<svg width="11" height="13" viewBox="0 0 11 13" fill="none" xmlns="http://www.w3.org/2000/svg">
<path d="M0.882 8.41V6.034H2.412V0.219999H6.264C7.536 0.219999 8.58 0.603999 9.396 1.372C10.212 2.128 10.62 3.112 10.62 4.324C10.62 5.56 10.212 6.55 9.396 7.294C8.58 8.038 7.536 8.41 6.264 8.41H4.878V9.652H7.794V10.696H4.878V13H2.412V10.696H0.882V9.652H2.412V8.41H0.882ZM4.878 6.034H6.228C6.804 6.034 7.254 5.89 7.578 5.602C7.914 5.302 8.082 4.876 8.082 4.324C8.082 3.76 7.914 3.334 7.578 3.046C7.254 2.758 6.804 2.614 6.228 2.614H4.878V6.034Z" fill="#333333"/>
</svg>
