<svg width="47" height="56" viewBox="0 0 47 56" fill="none" xmlns="http://www.w3.org/2000/svg">
<path fill-rule="evenodd" clip-rule="evenodd" d="M30.4695 9.46939V19.5306C30.4695 23.6558 27.1254 27 23.0001 27C18.8749 27 15.5308 23.6558 15.5308 19.5306V9.46939C15.5308 5.54336 18.5598 2.32478 22.4083 2.0231V13.0204H24.4083V2.13254C27.8603 2.79111 30.4695 5.82554 30.4695 9.46939ZM13.5308 9.46939C13.5308 4.23959 17.7704 0 23.0001 0C28.2299 0 32.4695 4.23959 32.4695 9.46939V19.5306C32.4695 24.7604 28.2299 29 23.0001 29C17.7704 29 13.5308 24.7604 13.5308 19.5306V9.46939Z" fill="#333333"/>
<path d="M3.684 53.144C2.716 53.144 1.936 52.868 1.344 52.316C0.752 51.756 0.44 51.104 0.408 50.36H2.148C2.212 50.736 2.384 51.028 2.664 51.236C2.944 51.436 3.284 51.536 3.684 51.536C4.044 51.536 4.336 51.46 4.56 51.308C4.784 51.148 4.896 50.936 4.896 50.672C4.896 50.2 4.516 49.856 3.756 49.64L2.856 49.376C2.16 49.176 1.616 48.864 1.224 48.44C0.832 48.016 0.632 47.488 0.624 46.856C0.624 46.08 0.884 45.468 1.404 45.02C1.924 44.564 2.616 44.336 3.48 44.336C4.352 44.336 5.06 44.6 5.604 45.128C6.148 45.648 6.436 46.248 6.468 46.928H4.74C4.652 46.592 4.492 46.344 4.26 46.184C4.028 46.024 3.768 45.944 3.48 45.944C3.16 45.944 2.896 46.016 2.688 46.16C2.488 46.296 2.384 46.488 2.376 46.736C2.368 46.992 2.452 47.2 2.628 47.36C2.804 47.52 3.076 47.652 3.444 47.756L4.44 48.032C5.912 48.44 6.648 49.3 6.648 50.612C6.648 51.348 6.372 51.956 5.82 52.436C5.276 52.908 4.564 53.144 3.684 53.144ZM12.0333 53.144C10.7533 53.144 9.68928 52.72 8.84128 51.872C7.99328 51.024 7.56928 49.98 7.56928 48.74C7.56928 47.5 7.99328 46.456 8.84128 45.608C9.68928 44.76 10.7533 44.336 12.0333 44.336C13.0013 44.336 13.8693 44.62 14.6373 45.188C15.4133 45.748 15.9213 46.48 16.1613 47.384H14.2773C14.1093 46.968 13.8133 46.636 13.3893 46.388C12.9733 46.14 12.5213 46.016 12.0333 46.016C11.2333 46.016 10.5813 46.276 10.0773 46.796C9.57328 47.316 9.32128 47.964 9.32128 48.74C9.32128 49.516 9.57328 50.164 10.0773 50.684C10.5813 51.204 11.2333 51.464 12.0333 51.464C12.5213 51.464 12.9733 51.34 13.3893 51.092C13.8133 50.844 14.1093 50.512 14.2773 50.096H16.1613C15.9213 51 15.4133 51.736 14.6373 52.304C13.8693 52.864 13.0013 53.144 12.0333 53.144ZM17.4246 53V44.48H20.6886C21.4646 44.48 22.0926 44.72 22.5726 45.2C23.0606 45.68 23.3046 46.28 23.3046 47C23.3046 48.12 22.7206 48.86 21.5526 49.22L24.6126 53H22.5126L19.5846 49.412H19.1646V53H17.4246ZM19.1646 47.924H20.4846C20.8206 47.924 21.0846 47.844 21.2766 47.684C21.4766 47.516 21.5766 47.288 21.5766 47C21.5766 46.712 21.4766 46.488 21.2766 46.328C21.0846 46.16 20.8206 46.076 20.4846 46.076H19.1646V47.924ZM27.0343 50.672C27.5543 51.2 28.1823 51.464 28.9183 51.464C29.6543 51.464 30.2783 51.2 30.7903 50.672C31.3103 50.136 31.5703 49.492 31.5703 48.74C31.5703 47.988 31.3103 47.348 30.7903 46.82C30.2783 46.284 29.6543 46.016 28.9183 46.016C28.1823 46.016 27.5543 46.284 27.0343 46.82C26.5223 47.348 26.2663 47.988 26.2663 48.74C26.2663 49.492 26.5223 50.136 27.0343 50.672ZM32.0263 51.86C31.1703 52.716 30.1343 53.144 28.9183 53.144C27.7023 53.144 26.6623 52.716 25.7983 51.86C24.9423 50.996 24.5143 49.956 24.5143 48.74C24.5143 47.524 24.9423 46.488 25.7983 45.632C26.6623 44.768 27.7023 44.336 28.9183 44.336C30.1343 44.336 31.1703 44.768 32.0263 45.632C32.8903 46.488 33.3223 47.524 33.3223 48.74C33.3223 49.956 32.8903 50.996 32.0263 51.86ZM34.7097 53V44.48H36.4497V51.344H40.0977V53H34.7097ZM41.3191 53V44.48H43.0591V51.344H46.7071V53H41.3191Z" fill="#333333"/>
</svg>
