<svg width="40" height="40" viewBox="0 0 40 40" fill="none" xmlns="http://www.w3.org/2000/svg">
<path fill-rule="evenodd" clip-rule="evenodd" d="M40 20C40 31.0457 31.0457 40 20 40C8.95431 40 0 31.0457 0 20C0 8.95431 8.95431 0 20 0C31.0457 0 40 8.95431 40 20ZM20.7167 14.7651C18.7714 15.5742 14.8836 17.2489 9.05315 19.7891C8.10639 20.1656 7.61043 20.5339 7.56528 20.894C7.48898 21.5027 8.25119 21.7424 9.28912 22.0687C9.43031 22.1131 9.57659 22.1591 9.72656 22.2079C10.7477 22.5398 12.1214 22.9282 12.8355 22.9436C13.4832 22.9576 14.2062 22.6905 15.0044 22.1424C20.4519 18.4652 23.264 16.6066 23.4405 16.5665C23.5651 16.5382 23.7377 16.5027 23.8546 16.6066C23.9716 16.7106 23.9601 16.9074 23.9477 16.9602C23.8722 17.2821 20.8802 20.0637 19.3319 21.5032C18.8492 21.9519 18.5068 22.2702 18.4368 22.3429C18.28 22.5058 18.1202 22.6598 17.9666 22.8079C17.0179 23.7224 16.3065 24.4082 18.006 25.5282C18.8227 26.0664 19.4762 26.5114 20.1282 26.9554C20.8403 27.4403 21.5505 27.924 22.4694 28.5263C22.7035 28.6798 22.927 28.8392 23.1448 28.9944C23.9734 29.5852 24.7179 30.1159 25.6376 30.0313C26.1721 29.9821 26.7241 29.4796 27.0045 27.9808C27.667 24.4388 28.9694 16.7643 29.2704 13.6018C29.2967 13.3248 29.2636 12.9702 29.2369 12.8145C29.2103 12.6588 29.1546 12.437 28.9523 12.2729C28.7127 12.0784 28.3427 12.0374 28.1773 12.0403C27.425 12.0536 26.2709 12.4549 20.7167 14.7651Z" fill="#BFB9AD"/>
</svg>
