<svg width="4" height="8" viewBox="0 0 4 8" fill="none" xmlns="http://www.w3.org/2000/svg">
<path d="M0.591453 2.62397L3.07716 0.139884C3.1803 0.0466302 3.31535 -0.00339056 3.45435 0.000178675C3.59335 0.00374791 3.72565 0.0606337 3.82386 0.159058C3.92208 0.257482 3.97868 0.389906 3.98196 0.528913C3.98523 0.667919 3.93493 0.802861 3.84145 0.9058L1.35737 3.38988C1.25582 3.49146 1.19878 3.62921 1.19878 3.77284C1.19878 3.91647 1.25582 4.05422 1.35737 4.1558L3.84145 6.63988C3.94302 6.74152 4.00005 6.87935 4 7.02303C3.99995 7.16672 3.94282 7.3045 3.84118 7.40607C3.73954 7.50764 3.60172 7.56467 3.45803 7.56462C3.31434 7.56457 3.17656 7.50744 3.07499 7.4058L0.591453 4.92172C0.286813 4.61698 0.115675 4.20373 0.115675 3.77284C0.115675 3.34195 0.286813 2.9287 0.591453 2.62397Z" fill="white"/>
</svg>
