<svg width="55" height="55" viewBox="0 0 55 55" fill="none" xmlns="http://www.w3.org/2000/svg">
<rect width="55" height="55" rx="10" fill="#5087E3"/>
<path d="M19.2887 30.0481L19.6133 30.7242H19.6133L19.2887 30.0481ZM19.2887 25.9519L19.6133 25.2758H19.6133L19.2887 25.9519ZM37.1986 30.282L37.5232 29.6059L37.1986 30.282ZM37.1986 25.718L36.8741 25.0418L37.1986 25.718ZM36.7113 25.9519L37.0358 26.6281L36.7113 25.9519ZM36.7113 30.0481L36.3867 30.7242L36.7113 30.0481ZM18.8014 25.718L18.4768 26.3941H18.4768L18.8014 25.718ZM18.8014 30.282L18.4768 29.6059H18.4768L18.8014 30.282ZM24.4697 30.4697C24.1768 30.7626 24.1768 31.2374 24.4697 31.5303C24.7626 31.8232 25.2374 31.8232 25.5303 31.5303L24.4697 30.4697ZM31.1872 25.8735C31.4801 25.5806 31.4801 25.1057 31.1872 24.8128C30.8943 24.5199 30.4194 24.5199 30.1265 24.8128L31.1872 25.8735ZM22.4444 20.75H33.5556V19.25H22.4444V20.75ZM33.5556 35.25H22.4444V36.75H33.5556V35.25ZM36.8741 25.0418L36.3867 25.2758L37.0358 26.6281L37.5232 26.3941L36.8741 25.0418ZM36.3867 30.7242L36.8741 30.9582L37.5232 29.6059L37.0358 29.3719L36.3867 30.7242ZM19.1259 30.9582L19.6133 30.7242L18.9642 29.3719L18.4768 29.6059L19.1259 30.9582ZM19.6133 25.2758L19.1259 25.0418L18.4768 26.3941L18.9642 26.6281L19.6133 25.2758ZM19.6133 30.7242C21.8988 29.6272 21.8988 26.3728 19.6133 25.2758L18.9642 26.6281C20.1152 27.1806 20.1152 28.8194 18.9642 29.3719L19.6133 30.7242ZM36.8741 30.9582C37.1038 31.0684 37.25 31.3007 37.25 31.5556H38.75C38.75 30.7238 38.273 29.9658 37.5232 29.6059L36.8741 30.9582ZM37.25 24.4444C37.25 24.6993 37.1038 24.9316 36.8741 25.0418L37.5232 26.3941C38.273 26.0342 38.75 25.2762 38.75 24.4444H37.25ZM36.3867 25.2758C34.1012 26.3728 34.1012 29.6272 36.3867 30.7242L37.0358 29.3719C35.8848 28.8194 35.8848 27.1806 37.0358 26.6281L36.3867 25.2758ZM22.4444 35.25C20.4041 35.25 18.75 33.5959 18.75 31.5556H17.25C17.25 34.4244 19.5756 36.75 22.4444 36.75V35.25ZM19.1259 25.0418C18.8962 24.9316 18.75 24.6993 18.75 24.4444H17.25C17.25 25.2762 17.727 26.0342 18.4768 26.3941L19.1259 25.0418ZM33.5556 36.75C36.4244 36.75 38.75 34.4244 38.75 31.5556H37.25C37.25 33.5959 35.5959 35.25 33.5556 35.25V36.75ZM18.75 31.5556C18.75 31.3007 18.8962 31.0684 19.1259 30.9582L18.4768 29.6059C17.727 29.9658 17.25 30.7238 17.25 31.5556H18.75ZM33.5556 20.75C35.5959 20.75 37.25 22.4041 37.25 24.4444H38.75C38.75 21.5756 36.4244 19.25 33.5556 19.25V20.75ZM22.4444 19.25C19.5756 19.25 17.25 21.5756 17.25 24.4444H18.75C18.75 22.4041 20.4041 20.75 22.4444 20.75V19.25ZM25.5303 31.5303L31.1872 25.8735L30.1265 24.8128L24.4697 30.4697L25.5303 31.5303Z" fill="white"/>
<path d="M24 25C24 25.5523 24.4477 26 25 26C25.5523 26 26 25.5523 26 25C26 24.4477 25.5523 24 25 24C24.4477 24 24 24.4477 24 25Z" fill="white"/>
<path d="M30 31C30 31.5523 30.4477 32 31 32C31.5523 32 32 31.5523 32 31C32 30.4477 31.5523 30 31 30C30.4477 30 30 30.4477 30 31Z" fill="white"/>
</svg>
