<svg width="61" height="62" viewBox="0 0 61 62" fill="none" xmlns="http://www.w3.org/2000/svg">
<rect x="0.246582" y="0.359863" width="60.6432" height="60.6432" rx="11.026" fill="#5087E3"/>
<path d="M21.5142 33.4909L21.8721 34.2364H21.8721L21.5142 33.4909ZM21.5142 28.9745L21.8721 28.229H21.8721L21.5142 28.9745ZM41.2618 33.7489L41.6196 33.0033L41.2618 33.7489ZM41.2618 28.7165L40.9039 27.971L41.2618 28.7165ZM40.7244 28.9745L41.0822 29.72H41.0822L40.7244 28.9745ZM40.7244 33.4909L40.3665 34.2364H40.3665L40.7244 33.4909ZM20.9768 28.7165L20.619 29.462H20.619L20.9768 28.7165ZM20.9768 33.7489L20.619 33.0033H20.619L20.9768 33.7489ZM27.2267 33.9558C26.9038 34.2787 26.9038 34.8023 27.2267 35.1252C27.5497 35.4482 28.0733 35.4482 28.3962 35.1252L27.2267 33.9558ZM34.6335 28.888C34.9564 28.565 34.9564 28.0414 34.6335 27.7185C34.3106 27.3955 33.787 27.3955 33.464 27.7185L34.6335 28.888ZM24.9937 23.2388H37.2449V21.5849H24.9937V23.2388ZM37.2449 39.2266H24.9937V40.8805H37.2449V39.2266ZM40.9039 27.971L40.3665 28.229L41.0822 29.72L41.6196 29.462L40.9039 27.971ZM40.3665 34.2364L40.9039 34.4944L41.6196 33.0033L41.0822 32.7454L40.3665 34.2364ZM21.3347 34.4944L21.8721 34.2364L21.1564 32.7454L20.619 33.0033L21.3347 34.4944ZM21.8721 28.229L21.3347 27.971L20.619 29.462L21.1564 29.72L21.8721 28.229ZM21.8721 34.2364C24.3921 33.0268 24.3921 29.4386 21.8721 28.229L21.1564 29.72C22.4255 30.3292 22.4255 32.1362 21.1564 32.7454L21.8721 34.2364ZM40.9039 34.4944C41.1572 34.616 41.3184 34.8721 41.3184 35.1531H42.9723C42.9723 34.236 42.4464 33.4002 41.6196 33.0033L40.9039 34.4944ZM41.3184 27.3123C41.3184 27.5933 41.1572 27.8494 40.9039 27.971L41.6196 29.462C42.4464 29.0652 42.9723 28.2294 42.9723 27.3123H41.3184ZM40.3665 28.229C37.8465 29.4386 37.8465 33.0268 40.3665 34.2364L41.0822 32.7454C39.8131 32.1362 39.8131 30.3292 41.0822 29.72L40.3665 28.229ZM24.9937 39.2266C22.744 39.2266 20.9202 37.4028 20.9202 35.1531H19.2663C19.2663 38.3162 21.8306 40.8805 24.9937 40.8805V39.2266ZM21.3347 27.971C21.0814 27.8494 20.9202 27.5933 20.9202 27.3123H19.2663C19.2663 28.2294 19.7922 29.0652 20.619 29.462L21.3347 27.971ZM37.2449 40.8805C40.408 40.8805 42.9723 38.3162 42.9723 35.1531H41.3184C41.3184 37.4028 39.4946 39.2266 37.2449 39.2266V40.8805ZM20.9202 35.1531C20.9202 34.8721 21.0814 34.616 21.3347 34.4944L20.619 33.0033C19.7922 33.4002 19.2663 34.236 19.2663 35.1531H20.9202ZM37.2449 23.2388C39.4946 23.2388 41.3184 25.0626 41.3184 27.3123H42.9723C42.9723 24.1492 40.408 21.5849 37.2449 21.5849V23.2388ZM24.9937 21.5849C21.8306 21.5849 19.2663 24.1492 19.2663 27.3123H20.9202C20.9202 25.0626 22.744 23.2388 24.9937 23.2388V21.5849ZM28.3962 35.1252L34.6335 28.888L33.464 27.7185L27.2267 33.9558L28.3962 35.1252Z" fill="white"/>
<path d="M26.709 27.9249C26.709 28.5338 27.2026 29.0275 27.8116 29.0275C28.4205 29.0275 28.9142 28.5338 28.9142 27.9249C28.9142 27.3159 28.4205 26.8223 27.8116 26.8223C27.2026 26.8223 26.709 27.3159 26.709 27.9249Z" fill="white"/>
<path d="M33.3246 34.5405C33.3246 35.1494 33.8183 35.6431 34.4272 35.6431C35.0362 35.6431 35.5298 35.1494 35.5298 34.5405C35.5298 33.9315 35.0362 33.4379 34.4272 33.4379C33.8183 33.4379 33.3246 33.9315 33.3246 34.5405Z" fill="white"/>
</svg>
