<svg width="97" height="62" viewBox="0 0 97 62" fill="none" xmlns="http://www.w3.org/2000/svg">
<rect width="97" height="62" rx="10" fill="url(#paint0_linear_2_1342)"/>
<circle cx="78.3107" cy="42.2132" r="9.55242" fill="#E53551"/>
<circle cx="67.5121" cy="42.2132" r="9.55242" fill="#E9B308"/>
<path d="M16.488 44.224H14.92V45.776H13.28V44.224H11.688V42.92H13.28V41.376H14.92V42.92H16.488V44.224ZM23.0357 41.2C23.5424 41.6907 23.7957 42.3973 23.7957 43.32C23.7957 44.2427 23.5184 44.9467 22.9637 45.432C22.409 45.9173 21.6224 46.16 20.6037 46.16C20.2677 46.16 19.9504 46.1333 19.6517 46.08C19.353 46.0267 19.0624 45.9333 18.7797 45.8C18.497 45.6613 18.2544 45.488 18.0517 45.28C17.8544 45.0667 17.6944 44.7947 17.5717 44.464C17.449 44.1333 17.3877 43.7573 17.3877 43.336C17.3877 42.4027 17.6544 41.6907 18.1877 41.2C18.7264 40.704 19.5824 40.456 20.7557 40.456C21.769 40.456 22.529 40.704 23.0357 41.2ZM21.8437 43.24C21.8437 43.112 21.8357 42.9867 21.8197 42.864C21.809 42.7413 21.777 42.6027 21.7237 42.448C21.6757 42.2933 21.609 42.16 21.5237 42.048C21.4437 41.936 21.3237 41.84 21.1637 41.76C21.009 41.68 20.8277 41.64 20.6197 41.64C20.3744 41.64 20.161 41.6907 19.9797 41.792C19.8037 41.8933 19.673 42.0293 19.5877 42.2C19.5024 42.3707 19.441 42.5413 19.4037 42.712C19.3664 42.8827 19.3477 43.0613 19.3477 43.248C19.3477 44.3627 19.761 44.92 20.5877 44.92C21.0357 44.92 21.3557 44.7627 21.5477 44.448C21.745 44.1333 21.8437 43.7307 21.8437 43.24ZM25.8117 43.152C25.689 43.1253 25.5717 43.0907 25.4597 43.048C25.353 43.0053 25.2357 42.944 25.1077 42.864C24.985 42.784 24.8837 42.6773 24.8037 42.544C24.729 42.4107 24.6917 42.2587 24.6917 42.088C24.6917 41.752 24.7984 41.4693 25.0117 41.24C25.225 41.0053 25.505 40.8373 25.8517 40.736C26.2037 40.6347 26.5264 40.5653 26.8197 40.528C27.1184 40.4907 27.4277 40.472 27.7477 40.472C27.9824 40.472 28.2144 40.4853 28.4437 40.512C28.673 40.5333 28.9184 40.5813 29.1797 40.656C29.441 40.7253 29.6677 40.816 29.8597 40.928C30.0517 41.0347 30.2117 41.1867 30.3397 41.384C30.4677 41.576 30.5317 41.7973 30.5317 42.048C30.5317 42.304 30.433 42.5333 30.2357 42.736C30.0384 42.9387 29.7584 43.0827 29.3957 43.168C30.2544 43.3387 30.6837 43.7573 30.6837 44.424C30.6837 45.5387 29.6357 46.096 27.5397 46.096C26.9744 46.096 26.4864 46.048 26.0757 45.952C25.665 45.856 25.3504 45.7253 25.1317 45.56C24.913 45.3947 24.7557 45.2187 24.6597 45.032C24.5637 44.8453 24.5157 44.6427 24.5157 44.424C24.5157 44.344 24.5184 44.272 24.5237 44.208C24.5344 44.144 24.5637 44.056 24.6117 43.944C24.6597 43.8267 24.7264 43.7253 24.8117 43.64C24.897 43.5547 25.025 43.4667 25.1957 43.376C25.3664 43.28 25.5717 43.2053 25.8117 43.152ZM28.5877 42.144C28.5877 41.9467 28.4997 41.8107 28.3237 41.736C28.1477 41.656 27.889 41.616 27.5477 41.616C27.297 41.616 27.0784 41.6587 26.8917 41.744C26.7104 41.824 26.6197 41.9627 26.6197 42.16C26.6197 42.3573 26.6997 42.496 26.8597 42.576C27.0197 42.6507 27.2704 42.688 27.6117 42.688C28.2624 42.688 28.5877 42.5067 28.5877 42.144ZM28.7077 44.296C28.7077 44.1093 28.633 43.9573 28.4837 43.84C28.3344 43.7227 28.0437 43.664 27.6117 43.664C26.865 43.664 26.4917 43.872 26.4917 44.288C26.4917 44.7093 26.8384 44.92 27.5317 44.92C28.3157 44.92 28.7077 44.712 28.7077 44.296ZM35.113 46H33.241V42.208C33.065 42.2667 32.937 42.3067 32.857 42.328C32.7823 42.3493 32.6703 42.3733 32.521 42.4C32.3717 42.4213 32.1743 42.44 31.929 42.456V41.304C32.2437 41.272 32.5263 41.2107 32.777 41.12C32.8517 41.088 32.9237 41.056 32.993 41.024C33.0677 40.992 33.129 40.9627 33.177 40.936C33.225 40.9093 33.2783 40.8773 33.337 40.84C33.401 40.8027 33.4463 40.776 33.473 40.76C33.4997 40.7387 33.5423 40.7067 33.601 40.664C33.6597 40.616 33.697 40.5867 33.713 40.576H35.113V46ZM42.0992 46H36.4432C36.4432 45.328 36.5632 44.8027 36.8032 44.424C37.0752 43.9813 37.7152 43.5333 38.7232 43.08L39.5792 42.688C39.9259 42.528 40.0992 42.3387 40.0992 42.12C40.0992 41.8 39.8059 41.64 39.2192 41.64C38.8565 41.64 38.6085 41.712 38.4752 41.856C38.3472 42 38.2779 42.2027 38.2672 42.464C37.2539 42.4373 36.6992 42.424 36.6032 42.424C36.6032 41.688 36.8325 41.1813 37.2912 40.904C37.7499 40.6267 38.4592 40.488 39.4192 40.488C41.1472 40.488 42.0112 41.0107 42.0112 42.056C42.0112 42.4827 41.8059 42.856 41.3952 43.176C41.1339 43.3733 40.7045 43.6 40.1072 43.856C39.6432 44.0533 39.2725 44.2213 38.9952 44.36C38.7125 44.4987 38.5499 44.6267 38.5072 44.744C38.6779 44.7333 39.0699 44.728 39.6832 44.728H42.0992V46ZM45.8473 41.728L45.0553 42L45.5433 42.624L44.8633 43.16L44.3353 42.48L43.8473 43.16L43.1513 42.648L43.6073 42.016L42.8233 41.784L43.0713 40.952L43.8793 41.192V40.352H44.7433V41.192L45.5673 40.912L45.8473 41.728ZM49.1364 41.728L48.3444 42L48.8324 42.624L48.1524 43.16L47.6244 42.48L47.1364 43.16L46.4404 42.648L46.8964 42.016L46.1124 41.784L46.3604 40.952L47.1684 41.192V40.352H48.0324V41.192L48.8564 40.912L49.1364 41.728Z" fill="white"/>
<path d="M11.488 12.352H15.36C15.5787 12.352 15.7547 12.3547 15.888 12.36C16.0267 12.3653 16.1867 12.384 16.368 12.416C16.5547 12.448 16.7093 12.4933 16.832 12.552C16.9547 12.6107 17.0747 12.696 17.192 12.808C17.3147 12.9147 17.416 13.048 17.496 13.208C17.6293 13.4853 17.696 13.8 17.696 14.152C17.696 14.8187 17.456 15.312 16.976 15.632C16.8053 15.744 16.5947 15.832 16.344 15.896C16.0933 15.9547 15.88 15.9893 15.704 16C15.5333 16.0053 15.3093 16.008 15.032 16.008H13.504V18H11.488V12.352ZM13.504 13.632V14.736H14.824C15.0533 14.736 15.2053 14.7253 15.28 14.704C15.5413 14.6347 15.672 14.4613 15.672 14.184C15.672 14.088 15.648 13.992 15.6 13.896C15.4987 13.72 15.2907 13.632 14.976 13.632H13.504ZM19.9441 18H18.0481V12.352H19.9441V18ZM26.4801 18H24.5201C24.4828 17.8453 24.4588 17.7093 24.4481 17.592C23.6855 17.944 22.9841 18.12 22.3441 18.12C21.7095 18.12 21.2401 17.9893 20.9361 17.728C20.6321 17.4667 20.4801 17.1493 20.4801 16.776C20.4801 16.2 20.7601 15.8107 21.3201 15.608C21.8855 15.4 22.9015 15.296 24.3681 15.296H24.4161V15.248C24.4161 14.88 24.1121 14.696 23.5041 14.696C22.8588 14.696 22.5148 14.824 22.4721 15.08H20.6561C20.7415 14.5467 20.9895 14.1707 21.4001 13.952C21.8161 13.728 22.4961 13.616 23.4401 13.616C24.1708 13.616 24.7388 13.672 25.1441 13.784C25.5548 13.8907 25.8401 14.0507 26.0001 14.264C26.1655 14.4773 26.2481 14.7707 26.2481 15.144V17.384C26.2481 17.56 26.2641 17.688 26.2961 17.768C26.3335 17.8427 26.3948 17.92 26.4801 18ZM24.4401 16.056L23.3441 16.112C23.0188 16.128 22.7788 16.1707 22.6241 16.24C22.4695 16.304 22.3921 16.416 22.3921 16.576C22.3921 16.6827 22.4455 16.7813 22.5521 16.872C22.6588 16.9573 22.8241 17 23.0481 17C23.2295 17 23.4375 16.96 23.6721 16.88C23.9121 16.8 24.1015 16.6827 24.2401 16.528C24.3308 16.4267 24.3975 16.2693 24.4401 16.056ZM29.7201 18H28.3601C27.5441 18 27.1361 17.728 27.1361 17.184C27.1361 16.9067 27.1414 16.5013 27.1521 15.968C27.1681 15.4293 27.1761 15.1173 27.1761 15.032H26.5761V13.936H27.1841C27.1947 13.1733 27.2027 12.696 27.2081 12.504H29.0241V13.936H29.7201V15.032H29.0321V16.432C29.0321 16.5653 29.0667 16.6613 29.1361 16.72C29.2054 16.7733 29.3254 16.8 29.4961 16.8H29.7201V18ZM32.0999 13.344H30.2199V12.352H32.0999V13.344ZM32.0999 18H30.2279V13.76H32.0999V18ZM34.796 13.76V14.296C35.068 14.0987 35.3427 13.9467 35.62 13.84C35.8973 13.7333 36.236 13.68 36.636 13.68C36.9827 13.68 37.2787 13.7173 37.524 13.792C37.7747 13.8613 37.9693 13.952 38.108 14.064C38.252 14.176 38.364 14.3227 38.444 14.504C38.524 14.68 38.5747 14.8507 38.596 15.016C38.6227 15.1813 38.636 15.376 38.636 15.6V18H36.74V15.96C36.74 15.2453 36.42 14.888 35.78 14.888C35.572 14.888 35.396 14.928 35.252 15.008C35.1133 15.0827 35.012 15.184 34.948 15.312C34.8893 15.4347 34.8493 15.5493 34.828 15.656C34.8067 15.7573 34.796 15.8667 34.796 15.984V18H32.892V13.76H34.796ZM45.1042 18H43.2642V17.424C42.7735 17.872 42.1469 18.096 41.3842 18.096C40.8189 18.096 40.3442 17.9547 39.9602 17.672C39.5815 17.3893 39.3922 16.9573 39.3922 16.376V13.76H41.2882V15.984C41.2882 16.144 41.3149 16.2827 41.3682 16.4C41.4269 16.5173 41.4909 16.6053 41.5602 16.664C41.6349 16.7173 41.7229 16.76 41.8242 16.792C41.9255 16.824 42.0029 16.8427 42.0562 16.848C42.1095 16.8533 42.1655 16.856 42.2242 16.856C42.5069 16.856 42.7415 16.776 42.9282 16.616C43.1202 16.4507 43.2162 16.1787 43.2162 15.8V13.76H45.1042V18ZM45.8924 18V13.76H47.6604V14.464C47.7937 14.2027 48.0124 14.0133 48.3164 13.896C48.6257 13.7733 48.951 13.712 49.2924 13.712C50.0124 13.712 50.503 13.9493 50.7644 14.424C50.9564 14.2053 51.2017 14.032 51.5004 13.904C51.8044 13.776 52.1297 13.712 52.4764 13.712C52.8764 13.712 53.2417 13.8 53.5724 13.976C53.7697 14.0773 53.919 14.208 54.0204 14.368C54.127 14.5227 54.1884 14.656 54.2044 14.768C54.2257 14.88 54.2364 15.016 54.2364 15.176V18H52.4124V15.704C52.4124 15.5227 52.3964 15.392 52.3644 15.312C52.2737 15.072 52.0684 14.952 51.7484 14.952C51.455 14.952 51.2417 15.0587 51.1084 15.272C51.023 15.4107 50.9804 15.6427 50.9804 15.968V18H49.1484V15.936C49.1484 15.5947 49.1164 15.3653 49.0524 15.248C48.9297 15.024 48.727 14.912 48.4444 14.912C48.2417 14.912 48.0764 14.9653 47.9484 15.072C47.8577 15.1467 47.7964 15.2453 47.7644 15.368C47.7324 15.4853 47.7164 15.6747 47.7164 15.936V18H45.8924ZM62.2163 16.352L64.0883 16.424C63.7629 17.5653 62.7123 18.136 60.9363 18.136C59.9763 18.136 59.2216 17.936 58.6723 17.536C58.1229 17.136 57.8483 16.5867 57.8483 15.888C57.8483 15.7227 57.8669 15.5547 57.9043 15.384C57.9416 15.2133 58.0296 15.0133 58.1683 14.784C58.3069 14.5547 58.4856 14.3547 58.7043 14.184C58.9283 14.0133 59.2456 13.8693 59.6562 13.752C60.0723 13.6293 60.5549 13.568 61.1043 13.568C61.9736 13.568 62.6749 13.752 63.2083 14.12C63.5763 14.376 63.8349 14.7173 63.9843 15.144L62.1203 15.312C62.0563 15.12 61.9203 14.9707 61.7123 14.864C61.5096 14.7573 61.2963 14.704 61.0723 14.704C60.7203 14.704 60.4296 14.808 60.2003 15.016C59.9709 15.224 59.8563 15.4987 59.8563 15.84C59.8563 16.1867 59.9656 16.472 60.1843 16.696C60.4083 16.9147 60.7149 17.024 61.1043 17.024C61.1736 17.024 61.2456 17.0187 61.3203 17.008C61.4003 16.9973 61.5043 16.9733 61.6323 16.936C61.7603 16.8933 61.8776 16.824 61.9843 16.728C62.0909 16.6267 62.1683 16.5013 62.2163 16.352ZM70.3004 18H68.3404C68.3031 17.8453 68.2791 17.7093 68.2684 17.592C67.5058 17.944 66.8044 18.12 66.1644 18.12C65.5298 18.12 65.0604 17.9893 64.7564 17.728C64.4524 17.4667 64.3004 17.1493 64.3004 16.776C64.3004 16.2 64.5804 15.8107 65.1404 15.608C65.7058 15.4 66.7218 15.296 68.1884 15.296H68.2364V15.248C68.2364 14.88 67.9324 14.696 67.3244 14.696C66.6791 14.696 66.3351 14.824 66.2924 15.08H64.4764C64.5618 14.5467 64.8098 14.1707 65.2204 13.952C65.6364 13.728 66.3164 13.616 67.2604 13.616C67.9911 13.616 68.5591 13.672 68.9644 13.784C69.3751 13.8907 69.6604 14.0507 69.8204 14.264C69.9858 14.4773 70.0684 14.7707 70.0684 15.144V17.384C70.0684 17.56 70.0844 17.688 70.1164 17.768C70.1538 17.8427 70.2151 17.92 70.3004 18ZM68.2604 16.056L67.1644 16.112C66.8391 16.128 66.5991 16.1707 66.4444 16.24C66.2898 16.304 66.2124 16.416 66.2124 16.576C66.2124 16.6827 66.2658 16.7813 66.3724 16.872C66.4791 16.9573 66.6444 17 66.8684 17C67.0498 17 67.2578 16.96 67.4924 16.88C67.7324 16.8 67.9218 16.6827 68.0604 16.528C68.1511 16.4267 68.2178 16.2693 68.2604 16.056ZM70.7404 13.76H72.6284V14.432C72.7404 14.24 72.9244 14.0667 73.1804 13.912C73.4417 13.7573 73.7457 13.68 74.0924 13.68V15.352C74.0497 15.3307 73.9004 15.32 73.6444 15.32C73.511 15.32 73.3937 15.328 73.2924 15.344C73.191 15.36 73.0844 15.392 72.9724 15.44C72.8604 15.4827 72.7724 15.56 72.7084 15.672C72.6497 15.7787 72.6204 15.9147 72.6204 16.08V18H70.7404V13.76ZM80.0924 18H78.2044V17.584C78.0498 17.7173 77.8258 17.8373 77.5324 17.944C77.2444 18.0453 76.9351 18.096 76.6044 18.096C75.9324 18.096 75.3884 17.8907 74.9724 17.48C74.5618 17.0693 74.3564 16.5413 74.3564 15.896C74.3564 15.6827 74.3831 15.472 74.4364 15.264C74.4898 15.0507 74.5751 14.8453 74.6924 14.648C74.8098 14.4507 74.9538 14.2773 75.1244 14.128C75.3004 13.9733 75.5138 13.8507 75.7644 13.76C76.0204 13.6693 76.3031 13.624 76.6124 13.624C76.8791 13.624 77.1244 13.6587 77.3484 13.728C77.5778 13.792 77.7458 13.8587 77.8524 13.928C77.9591 13.992 78.0764 14.0773 78.2044 14.184V12.352H80.0924V18ZM78.2044 15.856C78.2044 15.5947 78.1271 15.3707 77.9724 15.184C77.8231 14.9973 77.5778 14.904 77.2364 14.904C76.9378 14.904 76.6978 14.9893 76.5164 15.16C76.3351 15.3253 76.2444 15.5573 76.2444 15.856C76.2444 16.1387 76.3324 16.376 76.5084 16.568C76.6844 16.7547 76.9218 16.848 77.2204 16.848C77.5084 16.848 77.7431 16.7547 77.9244 16.568C78.1111 16.3813 78.2044 16.144 78.2044 15.856Z" fill="white"/>
<defs>
<linearGradient id="paint0_linear_2_1342" x1="32.4637" y1="8.7973" x2="92.5843" y2="53.7801" gradientUnits="userSpaceOnUse">
<stop stop-color="#262626"/>
<stop offset="1" stop-color="#383838"/>
</linearGradient>
</defs>
</svg>
