<svg width="20" height="21" viewBox="0 0 20 21" fill="none" xmlns="http://www.w3.org/2000/svg">
<path d="M10.75 7.18048C10.75 6.76626 10.4142 6.43048 10 6.43048C9.58579 6.43048 9.25 6.76627 9.25 7.18048L10.75 7.18048ZM11.9585 13.779C12.3156 13.9888 12.7752 13.8693 12.985 13.5121C13.1948 13.155 13.0753 12.6954 12.7182 12.4856L11.9585 13.779ZM1.42656 2.2494C1.1053 2.51088 1.05684 2.98327 1.31832 3.30452C1.57979 3.62578 2.05219 3.67424 2.37344 3.41276L1.42656 2.2494ZM4.62344 1.58144C4.9447 1.31996 4.99316 0.847566 4.73168 0.526313C4.47021 0.20506 3.99781 0.1566 3.67656 0.418076L4.62344 1.58144ZM17.6266 3.41276C17.9478 3.67424 18.4202 3.62578 18.6817 3.30452C18.9432 2.98327 18.8947 2.51088 18.5734 2.2494L17.6266 3.41276ZM16.3234 0.418076C16.0022 0.1566 15.5298 0.20506 15.2683 0.526313C15.0068 0.847566 15.0553 1.31996 15.3766 1.58144L16.3234 0.418076ZM10 9.64413H10.75H10ZM11.8 12.8161L11.4202 13.4628L11.8 12.8161ZM9.25 7.18048L9.25 9.64413L10.75 9.64413L10.75 7.18048L9.25 7.18048ZM12.7182 12.4856L12.1799 12.1694L11.4202 13.4628L11.9585 13.779L12.7182 12.4856ZM18.25 10.8431C18.25 15.4982 14.5442 19.2498 10 19.2498V20.7498C15.3969 20.7498 19.75 16.3022 19.75 10.8431H18.25ZM10 19.2498C5.4558 19.2498 1.75 15.4982 1.75 10.8431H0.25C0.25 16.3022 4.60308 20.7498 10 20.7498V19.2498ZM1.75 10.8431C1.75 6.18803 5.4558 2.4365 10 2.4365V0.936503C4.60308 0.936503 0.25 5.3841 0.25 10.8431H1.75ZM10 2.4365C14.5442 2.4365 18.25 6.18803 18.25 10.8431H19.75C19.75 5.3841 15.3969 0.936503 10 0.936503V2.4365ZM2.37344 3.41276L4.62344 1.58144L3.67656 0.418076L1.42656 2.2494L2.37344 3.41276ZM18.5734 2.2494L16.3234 0.418076L15.3766 1.58144L17.6266 3.41276L18.5734 2.2494ZM9.25 9.64413C9.25 10.1458 9.24919 10.575 9.28364 10.9306C9.31963 11.3021 9.39807 11.6511 9.58887 11.9873L10.8934 11.247C10.8431 11.1582 10.8009 11.0367 10.7766 10.786C10.7508 10.5193 10.75 10.1745 10.75 9.64413L9.25 9.64413ZM12.1799 12.1694C11.728 11.904 11.4363 11.7316 11.2235 11.5765C11.0244 11.4313 10.9434 11.335 10.8934 11.247L9.58887 11.9873C9.78006 12.3242 10.0393 12.5694 10.3397 12.7885C10.6264 12.9976 10.9936 13.2122 11.4202 13.4628L12.1799 12.1694Z" fill="#01348A"/>
</svg>
