<svg width="20" height="20" viewBox="0 0 20 20" fill="none" xmlns="http://www.w3.org/2000/svg">
<path d="M2.76085 1.66184C2.8315 1.5912 2.86682 1.55587 2.89794 1.52728C3.6631 0.8242 4.83921 0.8242 5.60436 1.52728C5.63548 1.55587 5.67081 1.5912 5.74145 1.66184L7.19965 3.12004C8.0017 3.92209 8.23109 5.13333 7.77785 6.17311C7.32461 7.2129 7.554 8.42413 8.35605 9.22619L10.7529 11.623C11.5549 12.425 12.7661 12.6544 13.8059 12.2012C14.8457 11.748 16.057 11.9773 16.859 12.7794L18.3172 14.2376C18.3878 14.3082 18.4232 14.3436 18.4518 14.3747C19.1548 15.1398 19.1548 16.3159 18.4518 17.0811C18.4232 17.1122 18.3878 17.1475 18.3172 17.2182L17.4309 18.1045C16.7091 18.8263 15.6685 19.1293 14.6721 18.9079C7.88248 17.3991 2.57995 12.0966 1.07115 5.30697C0.849715 4.31051 1.15272 3.26998 1.87451 2.54818L2.76085 1.66184Z" stroke="#01348A" stroke-width="1.5"/>
</svg>
