<svg width="12" height="31" viewBox="0 0 12 31" fill="none" xmlns="http://www.w3.org/2000/svg">
<path d="M5.20635 30C5.20635 30.4383 5.56168 30.7937 6 30.7937C6.43832 30.7937 6.79365 30.4383 6.79365 30L5.20635 30ZM6.5612 0.867378C6.25126 0.557438 5.74875 0.557438 5.43881 0.867378L0.388043 5.91814C0.0781027 6.22808 0.0781027 6.73059 0.388042 7.04053C0.697982 7.35047 1.20049 7.35047 1.51043 7.04053L6 2.55097L10.4896 7.04053C10.7995 7.35047 11.302 7.35047 11.612 7.04053C11.9219 6.73059 11.9219 6.22808 11.612 5.91814L6.5612 0.867378ZM6.79365 30L6.79365 1.42857L5.20635 1.42857L5.20635 30L6.79365 30Z" fill="#2B2F36"/>
</svg>
