<svg width="39" height="40" viewBox="0 0 39 40" fill="none" xmlns="http://www.w3.org/2000/svg">
<path d="M3.62389 13.8363C3.14948 11.1661 4.39622 6.97543 7.33223 1.37169C7.72763 0.617171 8.08767 0 8.13271 0C8.66607 0 12.9491 3.16745 14.4665 4.68409C18.3226 8.53809 19.235 14.294 16.9043 20.0633L16.4843 21.1029L17.9383 19.699C21.3519 16.4025 25.9381 14.6149 29.4657 15.2057C32.17 15.6585 39 18.9643 39 19.8203C39 20.2822 35.3891 24.6619 33.5177 26.4699C29.7691 30.0913 27.9896 30.5504 22.256 29.3752C20.0249 28.9178 20.0708 28.9044 20.7033 29.8288C23.2101 33.4934 22.433 36.5382 18.4558 38.6359C17.4855 39.1476 15.501 39.9996 15.2784 40C15.0628 40.0005 13.0612 35.3575 12.7594 34.1573C12.1073 31.5635 12.4902 28.2888 13.7267 25.8835C14.2185 24.927 14.0498 25.0175 12.8256 26.3665C10.7347 28.6707 8.46652 29.8731 5.44182 30.2807C3.86761 30.4927 0.404222 30.4437 0.169482 30.206C-0.141628 29.8908 0.00689404 25.2806 0.361292 24.2497C1.26066 21.6346 3.83823 20.4102 7.10594 21.0459C8.05757 21.2311 8.10402 21.3573 6.36916 19.0523C4.52344 16.5997 3.90667 15.428 3.62389 13.8363Z" fill="#FC5945"/>
</svg>
