<svg width="43" height="43" viewBox="0 0 43 43" fill="none" xmlns="http://www.w3.org/2000/svg">
<path d="M30.279 39.4163H12.7207C9.67485 39.4163 7.1665 36.9259 7.1665 33.8622V9.13719C7.1665 6.09135 9.65693 3.58301 12.7207 3.58301H30.279C33.3248 3.58301 35.8332 6.07344 35.8332 9.13719V33.8622C35.8332 36.9259 33.3427 39.4163 30.279 39.4163Z" stroke="#262626" stroke-width="2" stroke-linecap="round" stroke-linejoin="round"/>
<path d="M33.1457 23.2913H9.854C8.36692 23.2913 7.1665 22.0909 7.1665 20.6038V17.0205C7.1665 15.5334 8.36692 14.333 9.854 14.333H33.1457C34.6328 14.333 35.8332 15.5334 35.8332 17.0205V20.6038C35.8332 22.0909 34.6328 23.2913 33.1457 23.2913Z" stroke="#262626" stroke-width="2" stroke-linecap="round" stroke-linejoin="round"/>
<path d="M15.2195 31.7122H15.2356" stroke="#262626" stroke-width="2" stroke-linecap="round" stroke-linejoin="round"/>
<path d="M27.761 31.7122H27.7771" stroke="#262626" stroke-width="2" stroke-linecap="round" stroke-linejoin="round"/>
<path d="M17.021 8.95801H25.9793" stroke="#262626" stroke-width="2" stroke-linecap="round" stroke-linejoin="round"/>
</svg>
