<svg width="27" height="27" viewBox="0 0 27 27" fill="none" xmlns="http://www.w3.org/2000/svg">
<path d="M18.8435 4.005V2.25C18.8435 1.78875 18.461 1.40625 17.9998 1.40625C17.5385 1.40625 17.156 1.78875 17.156 2.25V3.9375H9.84352V2.25C9.84352 1.78875 9.46102 1.40625 8.99977 1.40625C8.53852 1.40625 8.15602 1.78875 8.15602 2.25V4.005C5.11852 4.28625 3.64477 6.0975 3.41977 8.78625C3.39727 9.1125 3.66727 9.3825 3.98227 9.3825H23.0173C23.3435 9.3825 23.6135 9.10125 23.5798 8.78625C23.3548 6.0975 21.881 4.28625 18.8435 4.005Z" fill="#ED2139"/>
<path d="M22.5 11.0703H4.5C3.88125 11.0703 3.375 11.5766 3.375 12.1953V19.1253C3.375 22.5003 5.0625 24.7503 9 24.7503H18C21.9375 24.7503 23.625 22.5003 23.625 19.1253V12.1953C23.625 11.5766 23.1187 11.0703 22.5 11.0703ZM10.3612 20.4866C10.305 20.5316 10.2488 20.5878 10.1925 20.6216C10.125 20.6666 10.0575 20.7003 9.99 20.7228C9.9225 20.7566 9.855 20.7791 9.7875 20.7903C9.70875 20.8016 9.64125 20.8128 9.5625 20.8128C9.41625 20.8128 9.27 20.7791 9.135 20.7228C8.98875 20.6666 8.87625 20.5878 8.76375 20.4866C8.56125 20.2728 8.4375 19.9803 8.4375 19.6878C8.4375 19.3953 8.56125 19.1028 8.76375 18.8891C8.87625 18.7878 8.98875 18.7091 9.135 18.6528C9.3375 18.5628 9.5625 18.5403 9.7875 18.5853C9.855 18.5966 9.9225 18.6191 9.99 18.6528C10.0575 18.6753 10.125 18.7091 10.1925 18.7541C10.2488 18.7991 10.305 18.8441 10.3612 18.8891C10.5638 19.1028 10.6875 19.3953 10.6875 19.6878C10.6875 19.9803 10.5638 20.2728 10.3612 20.4866ZM10.3612 16.5491C10.1475 16.7516 9.855 16.8753 9.5625 16.8753C9.27 16.8753 8.9775 16.7516 8.76375 16.5491C8.56125 16.3353 8.4375 16.0428 8.4375 15.7503C8.4375 15.4578 8.56125 15.1653 8.76375 14.9516C9.07875 14.6366 9.57375 14.5353 9.99 14.7153C10.1363 14.7716 10.26 14.8503 10.3612 14.9516C10.5638 15.1653 10.6875 15.4578 10.6875 15.7503C10.6875 16.0428 10.5638 16.3353 10.3612 16.5491ZM14.2987 20.4866C14.085 20.6891 13.7925 20.8128 13.5 20.8128C13.2075 20.8128 12.915 20.6891 12.7013 20.4866C12.4987 20.2728 12.375 19.9803 12.375 19.6878C12.375 19.3953 12.4987 19.1028 12.7013 18.8891C13.1175 18.4728 13.8825 18.4728 14.2987 18.8891C14.5013 19.1028 14.625 19.3953 14.625 19.6878C14.625 19.9803 14.5013 20.2728 14.2987 20.4866ZM14.2987 16.5491C14.2425 16.5941 14.1863 16.6391 14.13 16.6841C14.0625 16.7291 13.995 16.7628 13.9275 16.7853C13.86 16.8191 13.7925 16.8416 13.725 16.8528C13.6462 16.8641 13.5787 16.8753 13.5 16.8753C13.2075 16.8753 12.915 16.7516 12.7013 16.5491C12.4987 16.3353 12.375 16.0428 12.375 15.7503C12.375 15.4578 12.4987 15.1653 12.7013 14.9516C12.8025 14.8503 12.9262 14.7716 13.0725 14.7153C13.4887 14.5353 13.9838 14.6366 14.2987 14.9516C14.5013 15.1653 14.625 15.4578 14.625 15.7503C14.625 16.0428 14.5013 16.3353 14.2987 16.5491ZM18.2362 20.4866C18.0225 20.6891 17.73 20.8128 17.4375 20.8128C17.145 20.8128 16.8525 20.6891 16.6388 20.4866C16.4362 20.2728 16.3125 19.9803 16.3125 19.6878C16.3125 19.3953 16.4362 19.1028 16.6388 18.8891C17.055 18.4728 17.82 18.4728 18.2362 18.8891C18.4387 19.1028 18.5625 19.3953 18.5625 19.6878C18.5625 19.9803 18.4387 20.2728 18.2362 20.4866ZM18.2362 16.5491C18.18 16.5941 18.1237 16.6391 18.0675 16.6841C18 16.7291 17.9325 16.7628 17.865 16.7853C17.7975 16.8191 17.73 16.8416 17.6625 16.8528C17.5837 16.8641 17.505 16.8753 17.4375 16.8753C17.145 16.8753 16.8525 16.7516 16.6388 16.5491C16.4362 16.3353 16.3125 16.0428 16.3125 15.7503C16.3125 15.4578 16.4362 15.1653 16.6388 14.9516C16.7513 14.8503 16.8637 14.7716 17.01 14.7153C17.2125 14.6253 17.4375 14.6028 17.6625 14.6478C17.73 14.6591 17.7975 14.6816 17.865 14.7153C17.9325 14.7378 18 14.7716 18.0675 14.8166C18.1237 14.8616 18.18 14.9066 18.2362 14.9516C18.4387 15.1653 18.5625 15.4578 18.5625 15.7503C18.5625 16.0428 18.4387 16.3353 18.2362 16.5491Z" fill="#ED2139"/>
</svg>
