<svg width="44" height="44" viewBox="0 0 44 44" fill="none" xmlns="http://www.w3.org/2000/svg">
<rect x="0.408203" y="0.407227" width="42.6113" height="42.6113" rx="9.49227" fill="#3066C1"/>
<path d="M15.3692 32.315L15.133 32.8593L15.3692 32.315ZM12.4657 29.2733L11.914 29.4915L12.4657 29.2733ZM30.9625 29.2733L31.5142 29.4915L30.9625 29.2733ZM28.059 32.315L28.2952 32.8593L28.059 32.315ZM12.0573 21.4767L12.6483 21.5292L12.6773 21.2024L12.416 21.0041L12.0573 21.4767ZM29.7614 16.6483V16.055H29.7614L29.7614 16.6483ZM22.5379 15.4563L22.9574 15.8758L22.5379 15.4563ZM24.814 13.1802L25.2335 13.5997L24.814 13.1802ZM28.6075 13.1802L28.188 13.5997L28.6075 13.1802ZM28.8853 16.6483L28.8853 17.2415L29.1881 17.2415L29.3657 16.9963L28.8853 16.6483ZM21.0586 15.4563L20.6391 15.8758V15.8758L21.0586 15.4563ZM18.7825 13.1802L18.363 13.5997L18.7825 13.1802ZM14.989 13.1802L15.4085 13.5997L14.989 13.1802ZM21.7141 31.6699H22.3074H21.7141ZM12.0225 21.4502L11.6585 21.9187L12.0225 21.4502ZM31.3015 21.5272L30.9605 21.0418L31.3015 21.5272ZM20.1046 32.1496C18.8463 32.1496 17.9336 32.1492 17.2115 32.0976C16.4953 32.0464 16.0113 31.947 15.6053 31.7708L15.133 32.8593C15.7129 33.1109 16.3468 33.2254 17.1269 33.2811C17.9011 33.3365 18.8633 33.3361 20.1046 33.3361V32.1496ZM11.4641 24.3124C11.4641 25.614 11.4638 26.6186 11.5164 27.4261C11.5693 28.2385 11.6775 28.8934 11.914 29.4915L13.0174 29.0552C12.8455 28.6205 12.7496 28.1042 12.7004 27.349C12.6509 26.589 12.6506 25.6295 12.6506 24.3124H11.4641ZM15.6053 31.7708C14.4403 31.2653 13.5063 30.2916 13.0174 29.0552L11.914 29.4915C12.5142 31.0094 13.6689 32.224 15.133 32.8593L15.6053 31.7708ZM30.7776 24.3124C30.7776 25.6295 30.7773 26.589 30.7278 27.349C30.6786 28.1042 30.5827 28.6205 30.4108 29.0552L31.5142 29.4915C31.7507 28.8934 31.8589 28.2385 31.9118 27.4261C31.9644 26.6186 31.9641 25.614 31.9641 24.3124H30.7776ZM23.3236 33.3361C24.5649 33.3361 25.527 33.3365 26.3013 33.2811C27.0814 33.2254 27.7153 33.1109 28.2952 32.8593L27.8229 31.7708C27.4169 31.947 26.9329 32.0464 26.2167 32.0976C25.4946 32.1492 24.5819 32.1496 23.3236 32.1496V33.3361ZM30.4108 29.0552C29.9219 30.2916 28.9879 31.2653 27.8229 31.7708L28.2952 32.8593C29.7593 32.224 30.914 31.0094 31.5142 29.4915L30.4108 29.0552ZM12.6506 24.3124C12.6506 22.758 12.5773 22.3286 12.6483 21.5292L11.4664 21.4242C11.3899 22.2849 11.4641 22.9063 11.4641 24.3124H12.6506ZM29.7614 17.2416C30.9152 17.2416 31.8505 18.1769 31.8505 19.3307H33.0371C33.0371 17.5216 31.5705 16.055 29.7614 16.055V17.2416ZM13.6668 16.055C11.8577 16.055 10.3911 17.5216 10.3911 19.3307H11.5776C11.5776 18.1769 12.513 17.2416 13.6668 17.2416V16.055ZM22.9574 15.8758L25.2335 13.5997L24.3945 12.7607L22.1184 15.0368L22.9574 15.8758ZM25.2335 13.5997C26.0494 12.7838 27.3722 12.7838 28.188 13.5997L29.027 12.7607C27.7478 11.4815 25.6737 11.4815 24.3945 12.7607L25.2335 13.5997ZM22.1184 15.0368C21.7803 15.3749 21.3059 15.887 21.1415 16.493L22.2867 16.8036C22.3592 16.5364 22.6099 16.2233 22.9574 15.8758L22.1184 15.0368ZM28.188 13.5997C28.9236 14.3352 28.9963 15.4839 28.4049 16.3002L29.3657 16.9963C30.2938 15.7153 30.1813 13.915 29.027 12.7607L28.188 13.5997ZM21.4781 15.0368L19.202 12.7607L18.363 13.5997L20.6391 15.8758L21.4781 15.0368ZM19.202 12.7607C17.9228 11.4815 15.8487 11.4815 14.5695 12.7607L15.4085 13.5997C16.2243 12.7838 17.5471 12.7838 18.363 13.5997L19.202 12.7607ZM20.6391 15.8758C20.8883 16.125 21.0414 16.4347 21.1415 16.8036L22.2867 16.493C22.1499 15.9887 21.9146 15.4733 21.4781 15.0368L20.6391 15.8758ZM14.5695 12.7607C13.4152 13.915 13.3027 15.7153 14.2308 16.9963L15.1916 16.3002C14.6002 15.4839 14.6729 14.3352 15.4085 13.5997L14.5695 12.7607ZM21.1208 16.6483L21.1208 31.6699H22.3074L22.3074 16.6483H21.1208ZM14.7112 17.2416L21.7141 17.2416L21.7141 16.055L14.7112 16.055L14.7112 17.2416ZM13.6668 21.4199C13.1836 21.4199 12.7402 21.2566 12.3865 20.9817L11.6585 21.9187C12.2131 22.3496 12.9108 22.6064 13.6668 22.6064V21.4199ZM12.3865 20.9817C11.8932 20.5985 11.5776 20.0016 11.5776 19.3307H10.3911C10.3911 20.3835 10.8884 21.3204 11.6585 21.9187L12.3865 20.9817ZM12.416 21.0041L12.3811 20.9776L11.6639 21.9228L11.6987 21.9493L12.416 21.0041ZM23.3236 32.1496H21.7141V33.3361H23.3236V32.1496ZM21.7141 32.1496H20.1046V33.3361H21.7141V32.1496ZM21.1208 31.6699L21.1208 32.7429L22.3074 32.7429L22.3074 31.6699H21.1208ZM29.7614 21.4199H21.7141V22.6064H29.7614V21.4199ZM21.7141 21.4199H13.6668V22.6064H21.7141V21.4199ZM31.8505 19.3307C31.8505 20.0377 31.5 20.6628 30.9605 21.0418L31.6425 22.0127C32.4847 21.4211 33.0371 20.4404 33.0371 19.3307H31.8505ZM30.9605 21.0418C30.6213 21.2801 30.2085 21.4199 29.7614 21.4199V22.6064C30.4605 22.6064 31.1101 22.3867 31.6425 22.0127L30.9605 21.0418ZM31.9641 24.3124C31.9641 22.8675 31.9645 22.3075 31.8926 21.4761L30.7105 21.5783C30.7772 22.3497 30.7776 22.8573 30.7776 24.3124H31.9641ZM21.7141 17.2416L28.6075 17.2416L28.6075 16.055L21.7141 16.055L21.7141 17.2416ZM28.6076 17.2416L28.8853 17.2415L28.8853 16.055L28.6075 16.055L28.6076 17.2416ZM28.6075 17.2416L29.7614 17.2416L29.7614 16.055L28.6075 16.055L28.6075 17.2416ZM14.7112 16.055H13.6668V17.2416H14.7112V16.055ZM13.6668 17.2416L17.6904 17.2416L17.6905 16.055L13.6668 16.055L13.6668 17.2416ZM17.6904 17.2416L21.7141 17.2416L21.7141 16.055L17.6905 16.055L17.6904 17.2416ZM14.7112 17.2416L17.6904 17.2416L17.6905 16.055L14.7112 16.055L14.7112 17.2416ZM21.7141 17.2416L28.8853 17.2415L28.8853 16.055L21.7141 16.055L21.7141 17.2416Z" fill="white"/>
</svg>
