<svg width="47" height="47" viewBox="0 0 47 47" fill="none" xmlns="http://www.w3.org/2000/svg">
<rect x="0.740723" y="0.741211" width="45.5388" height="45.5388" rx="10.1444" fill="#ED2139"/>
<path d="M16.7295 34.8409L16.4771 35.4225L16.7295 34.8409ZM13.6266 31.5902L13.037 31.8233L13.6266 31.5902ZM33.3941 31.5902L33.9837 31.8233L33.3941 31.5902ZM30.2912 34.8409L30.5436 35.4225L30.2912 34.8409ZM13.1901 23.2579L13.8217 23.314L13.8527 22.9647L13.5734 22.7528L13.1901 23.2579ZM32.1105 18.0978V17.4637H32.1105L32.1105 18.0978ZM24.3907 16.8239L24.839 17.2722L24.3907 16.8239ZM26.8232 14.3914L27.2715 14.8397L26.8232 14.3914ZM30.8774 14.3914L30.429 14.8397L30.8774 14.3914ZM31.1742 18.0977L31.1742 18.7318L31.4978 18.7317L31.6877 18.4697L31.1742 18.0977ZM22.8098 16.8239L22.3615 17.2722L22.8098 16.8239ZM20.3773 14.3914L19.929 14.8397L20.3773 14.3914ZM16.3232 14.3914L16.7715 14.8397L16.7715 14.8397L16.3232 14.3914ZM23.5103 34.1514H24.1444H23.5103ZM13.1529 23.2296L12.7639 23.7303L13.1529 23.2296ZM33.7564 23.3119L33.392 22.7931L33.7564 23.3119ZM21.7903 34.664C20.4455 34.664 19.4701 34.6637 18.6984 34.6085C17.933 34.5538 17.4158 34.4475 16.9819 34.2592L16.4771 35.4225C17.0969 35.6914 17.7743 35.8137 18.608 35.8733C19.4354 35.9325 20.4637 35.9321 21.7903 35.9321V34.664ZM12.5562 26.2884C12.5562 27.6794 12.5558 28.753 12.612 29.6161C12.6686 30.4842 12.7842 31.1841 13.037 31.8233L14.2162 31.3571C14.0325 30.8925 13.93 30.3408 13.8774 29.5337C13.8245 28.7214 13.8242 27.696 13.8242 26.2884H12.5562ZM16.9819 34.2592C15.7368 33.719 14.7386 32.6784 14.2162 31.3571L13.037 31.8233C13.6784 33.4455 14.9124 34.7435 16.4771 35.4225L16.9819 34.2592ZM33.1965 26.2884C33.1965 27.696 33.1962 28.7214 33.1433 29.5336C33.0907 30.3407 32.9882 30.8924 32.8045 31.3571L33.9837 31.8233C34.2364 31.1841 34.3521 30.4842 34.4087 29.6161C34.4649 28.753 34.4646 27.6794 34.4646 26.2884H33.1965ZM25.2304 35.9321C26.557 35.9321 27.5852 35.9325 28.4127 35.8733C29.2464 35.8137 29.9238 35.6914 30.5436 35.4225L30.0388 34.2592C29.6049 34.4475 29.0877 34.5538 28.3222 34.6085C27.5505 34.6637 26.5752 34.664 25.2304 34.664V35.9321ZM32.8045 31.3571C32.282 32.6784 31.2838 33.719 30.0388 34.2592L30.5436 35.4225C32.1082 34.7435 33.3423 33.4455 33.9837 31.8233L32.8045 31.3571ZM13.8242 26.2884C13.8242 24.6273 13.7458 24.1683 13.8217 23.314L12.5586 23.2018C12.4769 24.1216 12.5562 24.7857 12.5562 26.2884H13.8242ZM32.1105 18.7318C33.3436 18.7318 34.3432 19.7314 34.3432 20.9645H35.6112C35.6112 19.0311 34.0439 17.4637 32.1105 17.4637V18.7318ZM14.9102 17.4637C12.9768 17.4637 11.4094 19.0311 11.4094 20.9645H12.6775C12.6775 19.7314 13.6771 18.7318 14.9102 18.7318V17.4637ZM24.839 17.2722L27.2715 14.8397L26.3749 13.9431L23.9424 16.3756L24.839 17.2722ZM27.2715 14.8397C28.1435 13.9678 29.5571 13.9678 30.429 14.8397L31.3257 13.9431C29.9586 12.576 27.742 12.576 26.3749 13.9431L27.2715 14.8397ZM23.9424 16.3756C23.5811 16.7369 23.0741 17.2841 22.8984 17.9318L24.1222 18.2638C24.1997 17.9782 24.4676 17.6436 24.839 17.2722L23.9424 16.3756ZM30.429 14.8397C31.2151 15.6258 31.2928 16.8533 30.6608 17.7258L31.6877 18.4697C32.6795 17.1007 32.5593 15.1767 31.3257 13.9431L30.429 14.8397ZM23.2581 16.3756L20.8257 13.9431L19.929 14.8397L22.3615 17.2722L23.2581 16.3756ZM20.8257 13.9431C19.4585 12.576 17.242 12.576 15.8749 13.9431L16.7715 14.8397C17.6434 13.9678 19.0571 13.9678 19.929 14.8397L20.8257 13.9431ZM22.3615 17.2722C22.6278 17.5385 22.7915 17.8694 22.8984 18.2638L24.1222 17.9318C23.9761 17.3929 23.7246 16.8421 23.2581 16.3756L22.3615 17.2722ZM15.8749 13.9431C14.6413 15.1767 14.5211 17.1007 15.5129 18.4697L16.5398 17.7258C15.9077 16.8533 15.9854 15.6258 16.7715 14.8397L15.8749 13.9431ZM22.8763 18.0978L22.8763 34.1514H24.1444L24.1444 18.0978H22.8763ZM16.0263 18.7318L23.5103 18.7318L23.5103 17.4637L16.0263 17.4637L16.0263 18.7318ZM14.9102 23.1972C14.3938 23.1972 13.9199 23.0226 13.5419 22.7289L12.7639 23.7303C13.3566 24.1907 14.1022 24.4652 14.9102 24.4652V23.1972ZM13.5419 22.7289C13.0148 22.3194 12.6775 21.6815 12.6775 20.9645H11.4094C11.4094 22.0896 11.9409 23.0909 12.7639 23.7303L13.5419 22.7289ZM13.5734 22.7528L13.5362 22.7245L12.7696 23.7347L12.8069 23.7629L13.5734 22.7528ZM25.2304 34.664H23.5103V35.9321H25.2304V34.664ZM23.5103 34.664H21.7903V35.9321H23.5103V34.664ZM22.8763 34.1514L22.8763 35.2981L24.1444 35.2981L24.1444 34.1514H22.8763ZM32.1105 23.1972H23.5103V24.4652H32.1105V23.1972ZM23.5103 23.1972H14.9102V24.4652H23.5103V23.1972ZM34.3432 20.9645C34.3432 21.72 33.9685 22.3881 33.392 22.7931L34.1209 23.8307C35.0209 23.1985 35.6112 22.1504 35.6112 20.9645H34.3432ZM33.392 22.7931C33.0294 23.0478 32.5884 23.1972 32.1105 23.1972V24.4652C32.8576 24.4652 33.5518 24.2305 34.1209 23.8307L33.392 22.7931ZM34.4646 26.2884C34.4646 24.7443 34.465 24.1458 34.3881 23.2572L33.1248 23.3665C33.1961 24.1909 33.1965 24.7334 33.1965 26.2884H34.4646ZM23.5103 18.7318L30.8774 18.7318L30.8774 17.4637L23.5103 17.4637L23.5103 18.7318ZM30.8774 18.7318L31.1742 18.7318L31.1742 17.4637L30.8773 17.4637L30.8774 18.7318ZM30.8774 18.7318L32.1105 18.7318L32.1105 17.4637L30.8774 17.4637L30.8774 18.7318ZM16.0263 17.4637H14.9102V18.7318H16.0263V17.4637ZM14.9102 18.7318L19.2103 18.7318L19.2103 17.4637L14.9102 17.4637L14.9102 18.7318ZM19.2103 18.7318L23.5103 18.7318L23.5103 17.4637L19.2103 17.4637L19.2103 18.7318ZM16.0263 18.7318L19.2103 18.7318L19.2103 17.4637L16.0263 17.4637L16.0263 18.7318ZM23.5103 18.7318L31.1742 18.7318L31.1742 17.4637L23.5103 17.4637L23.5103 18.7318Z" fill="white"/>
</svg>
