<svg width="90" height="99" viewBox="0 0 90 99" fill="none" xmlns="http://www.w3.org/2000/svg">
<path d="M89.0323 44.1376C89.0323 68.5141 69.1017 88.2752 44.5161 88.2752C19.9305 88.2752 0 68.5141 0 44.1376C0 19.7611 19.9305 0 44.5161 0C69.1017 0 89.0323 19.7611 89.0323 44.1376Z" fill="#0E0E0F"/>
<path d="M44.5161 98.3065C44.5161 94.2939 40.4692 90.2814 34.3988 87.1303H54.6334C48.563 90.2814 44.5161 94.2939 44.5161 98.3065Z" fill="#0E0E0F"/>
<path fill-rule="evenodd" clip-rule="evenodd" d="M59.8174 20.4674C57.6095 19.5967 53.8858 19.8916 49.3291 21.7833C45.2931 23.4587 40.4379 26.4501 35.0674 31.3143C35.8882 31.6529 36.5453 32.2615 36.9412 33.0565C36.9661 33.1067 36.9898 33.1572 37.0122 33.2081C42.1419 28.5838 46.6951 25.8098 50.3677 24.2853C54.6956 22.4887 57.5971 22.5038 58.8236 22.9875C61.3506 23.984 61.7706 26.5846 60.6953 28.3319C60.3032 28.969 60.5019 29.8033 61.139 30.1954C61.7761 30.5874 62.6104 30.3888 63.0025 29.7517C64.8168 26.8034 64.1592 22.1796 59.8174 20.4674ZM32.2397 38.0905C31.3697 37.7616 30.6731 37.1354 30.2604 36.3066C30.2525 36.2906 30.2447 36.2746 30.237 36.2586C28.495 38.406 26.9544 40.8737 26.3172 43.1411C25.8525 44.7945 25.7935 46.6274 26.8642 48.11C27.8595 49.4883 29.5801 50.2151 31.836 50.4189C31.3714 51.1988 30.9805 51.9479 30.6708 52.6621C29.8712 54.5059 29.4956 56.3807 30.1017 58.0143C30.7424 59.7412 32.3028 60.7631 34.3604 61.2436C34.8145 61.3497 35.2859 61.4326 35.7707 61.4937C34.7875 63.0311 34.0349 64.603 33.7898 66.0543C33.6108 67.1147 33.6824 68.2336 34.2663 69.2225C34.8566 70.2223 35.848 70.8826 37.0938 71.2575C38.3652 71.6401 40.0268 71.5323 41.7315 71.0204C43.4701 70.4984 45.3772 69.5212 47.1866 68.0067C47.7602 67.5266 47.836 66.6723 47.3559 66.0987C46.8757 65.525 46.0214 65.4492 45.4478 65.9294C43.9131 67.2139 42.3308 68.0119 40.9524 68.4258C39.5402 68.8499 38.4572 68.8388 37.8745 68.6634C37.0845 68.4257 36.7516 68.1036 36.5991 67.8452C36.4401 67.5759 36.3503 67.1609 36.461 66.5054C36.6791 65.2142 37.5902 63.4948 38.9843 61.6039C41.7787 61.4753 44.7324 60.8171 47.2857 59.8474C49.3237 59.0734 51.203 58.0657 52.5995 56.8811C53.9645 55.7234 55.0763 54.212 55.0763 52.4296C55.0763 51.2239 54.3989 49.8672 52.9364 49.2382C51.4992 48.6201 49.6277 48.8372 47.4199 49.9576C46.2296 50.5616 44.4402 51.9484 42.609 53.6298C40.9464 55.1566 39.162 57.0071 37.6361 58.9143C36.6836 58.8944 35.785 58.7944 34.9764 58.6056C33.4161 58.2412 32.8489 57.6309 32.6416 57.072C32.3996 56.4198 32.4556 55.3553 33.1562 53.7399C33.5844 52.7525 34.21 51.6574 35.0145 50.4688C40.3555 50.2449 45.8904 48.5854 50.3739 46.4303C52.9991 45.1684 55.3165 43.7118 57.0577 42.2223C58.7412 40.7821 60.1021 39.129 60.4167 37.4318C60.716 35.8171 60.462 34.2036 59.5148 32.9614C58.5514 31.6981 57.025 31.0209 55.2029 31.0078C51.667 30.9826 46.4167 33.1016 40.6283 38.9749C38.1125 41.5275 36.1739 44.2138 34.4726 46.5713C34.1727 46.9868 33.8803 47.3921 33.5933 47.7847C33.2251 47.7816 32.8592 47.7705 32.4962 47.7508C30.3415 47.634 29.433 47.04 29.0604 46.524C28.6888 46.0094 28.5607 45.1708 28.9252 43.874C29.4234 42.1014 30.701 40.0094 32.2397 38.0905ZM46.3239 57.3149C44.7772 57.9023 43.1048 58.3495 41.454 58.6204C42.4304 57.5506 43.4554 56.5305 44.4413 55.6252C46.2415 53.9722 47.8044 52.8003 48.6459 52.3733C50.5016 51.4316 51.4746 51.5585 51.866 51.7268C52.2321 51.8843 52.3673 52.1907 52.3673 52.4296C52.3673 53.04 51.9674 53.865 50.8472 54.8152C49.7587 55.7385 48.1794 56.6102 46.3239 57.3149ZM49.2003 43.9887C45.6062 45.7163 41.3517 47.075 37.172 47.5765C37.6655 46.9647 38.1614 46.3043 38.6782 45.6159C39.8192 44.0962 41.0625 42.4404 42.609 40.8712C48.2583 35.1391 52.781 33.6996 55.1836 33.7168C56.3308 33.725 56.997 34.1273 57.3606 34.6041C57.7403 35.102 57.9475 35.8891 57.7531 36.938C57.6158 37.6787 56.8753 38.8133 55.2967 40.1637C53.7758 41.4647 51.6702 42.8015 49.2003 43.9887Z" fill="white"/>
<path d="M49.3291 21.7833L49.1374 21.3215L49.3291 21.7833ZM59.8174 20.4674L59.6339 20.9325L59.8174 20.4674ZM35.0674 31.3143L34.7317 30.9437L34.1454 31.4748L34.8767 31.7765L35.0674 31.3143ZM36.9412 33.0565L37.3892 32.8344L37.3888 32.8336L36.9412 33.0565ZM37.0122 33.2081L36.5547 33.4098L36.8335 34.0423L37.347 33.5795L37.0122 33.2081ZM50.3677 24.2853L50.5594 24.747L50.3677 24.2853ZM58.8236 22.9875L59.007 22.5224L58.8236 22.9875ZM60.6953 28.3319L61.1211 28.594L61.1211 28.5939L60.6953 28.3319ZM61.139 30.1954L61.401 29.7695V29.7695L61.139 30.1954ZM63.0025 29.7517L62.5766 29.4896V29.4896L63.0025 29.7517ZM30.2604 36.3066L29.8124 36.5287L29.8128 36.5295L30.2604 36.3066ZM32.2397 38.0905L32.6298 38.4033L33.0605 37.8663L32.4166 37.6228L32.2397 38.0905ZM30.237 36.2586L30.6881 36.0429L30.347 35.3294L29.8487 35.9436L30.237 36.2586ZM26.3172 43.1411L25.8358 43.0058H25.8358L26.3172 43.1411ZM26.8642 48.11L27.2695 47.8172H27.2695L26.8642 48.11ZM31.836 50.4189L32.2656 50.6748L32.6721 49.9924L31.881 49.9209L31.836 50.4189ZM30.6708 52.6621L30.2121 52.4632H30.2121L30.6708 52.6621ZM30.1017 58.0143L29.6329 58.1882L30.1017 58.0143ZM34.3604 61.2436L34.4741 60.7567H34.4741L34.3604 61.2436ZM35.7707 61.4937L36.1919 61.7631L36.6181 61.0966L35.8332 60.9976L35.7707 61.4937ZM33.7898 66.0543L33.2968 65.9711V65.9711L33.7898 66.0543ZM34.2663 69.2225L33.8357 69.4767L34.2663 69.2225ZM37.0938 71.2575L37.2379 70.7787H37.2379L37.0938 71.2575ZM41.7315 71.0204L41.5877 70.5415H41.5877L41.7315 71.0204ZM47.1866 68.0067L46.8656 67.6233L47.1866 68.0067ZM47.3559 66.0987L46.9724 66.4196H46.9724L47.3559 66.0987ZM45.4478 65.9294L45.7687 66.3128L45.4478 65.9294ZM40.9524 68.4258L40.8086 67.947H40.8086L40.9524 68.4258ZM37.8745 68.6634L37.7304 69.1422H37.7304L37.8745 68.6634ZM36.5991 67.8452L37.0296 67.591L37.0296 67.591L36.5991 67.8452ZM36.461 66.5054L36.954 66.5887L36.461 66.5054ZM38.9843 61.6039L38.9613 61.1044L38.7232 61.1154L38.5818 61.3072L38.9843 61.6039ZM47.2857 59.8474L47.1082 59.38L47.2857 59.8474ZM52.5995 56.8811L52.2761 56.4998L52.5995 56.8811ZM52.9364 49.2382L52.7388 49.6975L52.9364 49.2382ZM47.4199 49.9576L47.1937 49.5117L47.4199 49.9576ZM42.609 53.6298L42.2708 53.2615H42.2708L42.609 53.6298ZM37.6361 58.9143L37.6257 59.4141L37.8724 59.4193L38.0265 59.2266L37.6361 58.9143ZM34.9764 58.6056L34.8627 59.0925L34.9764 58.6056ZM32.6416 57.072L32.1728 57.2459H32.1728L32.6416 57.072ZM33.1562 53.7399L33.6149 53.9389V53.9389L33.1562 53.7399ZM35.0145 50.4688L34.9936 49.9692L34.7418 49.9798L34.6005 50.1885L35.0145 50.4688ZM50.3739 46.4303L50.1573 45.9797L50.3739 46.4303ZM57.0577 42.2223L57.3827 42.6022L57.0577 42.2223ZM60.4167 37.4318L60.9083 37.5229V37.5229L60.4167 37.4318ZM59.5148 32.9614L59.9124 32.6582L59.5148 32.9614ZM55.2029 31.0078L55.2065 30.5079L55.2029 31.0078ZM40.6283 38.9749L40.2721 38.6239L40.6283 38.9749ZM34.4726 46.5713L34.878 46.8639L34.4726 46.5713ZM33.5933 47.7847L33.5892 48.2846L33.8456 48.2868L33.9969 48.0797L33.5933 47.7847ZM32.4962 47.7508L32.5233 47.2515H32.5233L32.4962 47.7508ZM29.0604 46.524L29.4657 46.2312L29.4657 46.2312L29.0604 46.524ZM28.9252 43.874L28.4438 43.7387L28.9252 43.874ZM41.454 58.6204L41.0847 58.2834L40.114 59.3471L41.535 59.1138L41.454 58.6204ZM46.3239 57.3149L46.1464 56.8474H46.1464L46.3239 57.3149ZM44.4413 55.6252L44.7795 55.9935L44.4413 55.6252ZM48.6459 52.3733L48.8721 52.8192L48.6459 52.3733ZM51.866 51.7268L51.6685 52.1861L51.866 51.7268ZM50.8472 54.8152L50.5238 54.4338H50.5238L50.8472 54.8152ZM37.172 47.5765L36.7828 47.2625L36.0109 48.2193L37.2315 48.0729L37.172 47.5765ZM49.2003 43.9887L48.9836 43.5381L49.2003 43.9887ZM38.6782 45.6159L39.0781 45.9162L38.6782 45.6159ZM42.609 40.8712L42.9651 41.2221L42.609 40.8712ZM55.1836 33.7168L55.1871 33.2168L55.1836 33.7168ZM57.3606 34.6041L57.7582 34.3009L57.7582 34.3009L57.3606 34.6041ZM57.7531 36.938L57.2614 36.8469L57.7531 36.938ZM55.2967 40.1637L55.6217 40.5436L55.2967 40.1637ZM49.5208 22.245C54.0354 20.3709 57.6073 20.1333 59.6339 20.9325L60.0008 20.0022C57.6117 19.0601 53.7362 19.4124 49.1374 21.3215L49.5208 22.245ZM35.403 31.6849C40.7391 26.8519 45.5467 23.8948 49.5208 22.245L49.1374 21.3215C45.0394 23.0226 40.1367 26.0483 34.7317 30.9437L35.403 31.6849ZM37.3888 32.8336C36.9385 31.9294 36.1897 31.2364 35.2581 30.8521L34.8767 31.7765C35.5868 32.0694 36.1521 32.5935 36.4937 33.2794L37.3888 32.8336ZM37.4697 33.0064C37.4442 32.9487 37.4174 32.8913 37.3892 32.8344L36.4933 33.2786C36.5148 33.3221 36.5353 33.3658 36.5547 33.4098L37.4697 33.0064ZM50.176 23.8235C46.442 25.3736 41.8415 28.1815 36.6774 32.8367L37.347 33.5795C42.4424 28.9861 46.9483 26.2461 50.5594 24.747L50.176 23.8235ZM59.007 22.5224C58.2884 22.239 57.1651 22.1193 55.7025 22.2844C54.2289 22.4509 52.3758 22.9103 50.176 23.8235L50.5594 24.747C52.6874 23.8636 54.4491 23.4323 55.8147 23.2781C57.1915 23.1227 58.1322 23.2523 58.6401 23.4527L59.007 22.5224ZM61.1211 28.5939C62.3369 26.6184 61.8623 23.6484 59.007 22.5224L58.6401 23.4527C60.8388 24.3197 61.2043 26.5507 60.2695 28.0699L61.1211 28.5939ZM61.401 29.7695C60.9991 29.5222 60.8738 28.9959 61.1211 28.594L60.2695 28.0699C59.7327 28.9421 60.0047 30.0844 60.8769 30.6212L61.401 29.7695ZM62.5766 29.4896C62.3293 29.8916 61.803 30.0169 61.401 29.7695L60.8769 30.6212C61.7492 31.158 62.8915 30.886 63.4283 30.0137L62.5766 29.4896ZM59.6339 20.9325C63.637 22.5111 64.2569 26.7592 62.5766 29.4896L63.4283 30.0137C65.3767 26.8476 64.6814 21.848 60.0008 20.0022L59.6339 20.9325ZM29.8128 36.5295C30.2823 37.4723 31.0763 38.1852 32.0629 38.5582L32.4166 37.6228C31.6631 37.338 31.0639 36.7985 30.7079 36.0837L29.8128 36.5295ZM29.7859 36.4743C29.7946 36.4924 29.8034 36.5105 29.8124 36.5287L30.7083 36.0845C30.7015 36.0707 30.6948 36.0569 30.6881 36.0429L29.7859 36.4743ZM26.7985 43.2763C27.4091 41.1038 28.9018 38.6982 30.6253 36.5736L29.8487 35.9436C28.0882 38.1138 26.4997 40.6436 25.8358 43.0058L26.7985 43.2763ZM27.2695 47.8172C26.3283 46.5139 26.3521 44.865 26.7985 43.2763L25.8358 43.0058C25.353 44.7239 25.2587 46.7409 26.4588 48.4027L27.2695 47.8172ZM31.881 49.9209C29.6955 49.7235 28.1447 49.0292 27.2695 47.8172L26.4588 48.4027C27.5743 49.9474 29.4646 50.7067 31.791 50.9169L31.881 49.9209ZM31.1295 52.861C31.4292 52.1701 31.8096 51.4401 32.2656 50.6748L31.4065 50.163C30.9332 50.9574 30.5319 51.7257 30.2121 52.4632L31.1295 52.861ZM30.5705 57.8404C30.0317 56.3881 30.3481 54.663 31.1295 52.861L30.2121 52.4632C29.3943 54.3488 28.9596 56.3733 29.6329 58.1882L30.5705 57.8404ZM34.4741 60.7567C32.5067 60.2973 31.1308 59.3507 30.5705 57.8404L29.6329 58.1882C30.354 60.1317 32.0988 61.2289 34.2467 61.7305L34.4741 60.7567ZM35.8332 60.9976C35.3641 60.9385 34.9099 60.8585 34.4741 60.7567L34.2467 61.7305C34.7192 61.8409 35.2077 61.9267 35.7081 61.9898L35.8332 60.9976ZM34.2828 66.1376C34.5117 64.7825 35.2238 63.2768 36.1919 61.7631L35.3494 61.2243C34.3511 62.7853 33.5582 64.4235 33.2968 65.9711L34.2828 66.1376ZM34.6969 68.9683C34.1916 68.1125 34.1163 67.1236 34.2828 66.1376L33.2968 65.9711C33.1052 67.1057 33.1733 68.3547 33.8357 69.4767L34.6969 68.9683ZM37.2379 70.7787C36.0757 70.429 35.2061 69.8309 34.6969 68.9683L33.8357 69.4767C34.507 70.6137 35.6202 71.3362 36.9498 71.7363L37.2379 70.7787ZM41.5877 70.5415C39.9369 71.0372 38.3821 71.1231 37.2379 70.7787L36.9498 71.7363C38.3483 72.1572 40.1167 72.0274 41.8753 71.4993L41.5877 70.5415ZM46.8656 67.6233C45.107 69.0953 43.2598 70.0395 41.5877 70.5415L41.8753 71.4993C43.6803 70.9573 45.6475 69.947 47.5075 68.3901L46.8656 67.6233ZM46.9724 66.4196C47.2754 66.7815 47.2275 67.3204 46.8656 67.6233L47.5075 68.3901C48.2929 67.7328 48.3967 66.5631 47.7393 65.7777L46.9724 66.4196ZM45.7687 66.3128C46.1306 66.0099 46.6695 66.0577 46.9724 66.4196L47.7393 65.7777C47.0819 64.9923 45.9123 64.8886 45.1269 65.546L45.7687 66.3128ZM41.0962 68.9047C42.5411 68.4709 44.1833 67.6398 45.7687 66.3128L45.1269 65.546C43.6429 66.7881 42.1206 67.553 40.8086 67.947L41.0962 68.9047ZM37.7304 69.1422C38.4402 69.3558 39.6298 69.345 41.0962 68.9047L40.8086 67.947C39.4505 68.3548 38.4743 68.3218 38.0186 68.1846L37.7304 69.1422ZM36.1685 68.0994C36.4014 68.4938 36.8551 68.8788 37.7304 69.1422L38.0186 68.1846C37.3139 67.9726 37.1019 67.7134 37.0296 67.591L36.1685 68.0994ZM35.968 66.4222C35.8445 67.1535 35.9315 67.698 36.1685 68.0994L37.0296 67.591C36.9486 67.4538 36.8562 67.1683 36.954 66.5887L35.968 66.4222ZM38.5818 61.3072C37.1777 63.2117 36.2065 65.01 35.968 66.4222L36.954 66.5887C37.1517 65.4184 38.0027 63.7779 39.3867 61.9006L38.5818 61.3072ZM47.1082 59.38C44.6 60.3326 41.6983 60.9784 38.9613 61.1044L39.0073 62.1034C41.8591 61.9721 44.8649 61.3017 47.4633 60.3148L47.1082 59.38ZM52.2761 56.4998C50.9364 57.6361 49.1125 58.6187 47.1082 59.38L47.4633 60.3148C49.5349 59.528 51.4695 58.4952 52.923 57.2624L52.2761 56.4998ZM54.5763 52.4296C54.5763 53.9952 53.5965 55.3798 52.2761 56.4998L52.923 57.2624C54.3324 56.067 55.5763 54.4289 55.5763 52.4296H54.5763ZM52.7388 49.6975C53.9979 50.2391 54.5763 51.4012 54.5763 52.4296H55.5763C55.5763 51.0467 54.7998 49.4954 53.1339 48.7789L52.7388 49.6975ZM47.6462 50.4034C49.7898 49.3156 51.4952 49.1626 52.7388 49.6975L53.1339 48.7789C51.5031 48.0775 49.4656 48.3587 47.1937 49.5117L47.6462 50.4034ZM42.9472 53.9981C44.7725 52.322 46.5202 50.9749 47.6462 50.4034L47.1937 49.5117C45.939 50.1484 44.1078 51.5747 42.2708 53.2615L42.9472 53.9981ZM38.0265 59.2266C39.5337 57.3429 41.2999 55.5108 42.9472 53.9981L42.2708 53.2615C40.5929 54.8023 38.7903 56.6714 37.2457 58.6019L38.0265 59.2266ZM34.8627 59.0925C35.7119 59.2908 36.646 59.3937 37.6257 59.4141L37.6465 58.4144C36.7212 58.395 35.8582 58.298 35.0901 58.1187L34.8627 59.0925ZM32.1728 57.2459C32.4593 58.0183 33.2076 58.706 34.8627 59.0925L35.0902 58.1187C33.6246 57.7764 33.2385 57.2435 33.1103 56.8981L32.1728 57.2459ZM32.6974 53.541C31.9784 55.199 31.8637 56.4129 32.1728 57.2459L33.1103 56.8981C32.9355 56.4268 32.9328 55.5117 33.6149 53.9389L32.6974 53.541ZM34.6005 50.1885C33.7847 51.3937 33.1417 52.5166 32.6974 53.541L33.6149 53.9389C34.0271 52.9884 34.6353 51.9211 35.4286 50.749L34.6005 50.1885ZM50.1573 45.9797C45.7213 48.1119 40.253 49.7488 34.9936 49.9692L35.0355 50.9683C40.458 50.741 46.0595 49.0589 50.5905 46.881L50.1573 45.9797ZM56.7327 41.8423C55.0321 43.297 52.7538 44.7316 50.1573 45.9797L50.5905 46.881C53.2444 45.6053 55.6008 44.1265 57.3827 42.6022L56.7327 41.8423ZM59.9251 37.3407C59.6432 38.8614 58.3967 40.4189 56.7327 41.8423L57.3827 42.6022C59.0857 41.1454 60.561 39.3966 60.9083 37.5229L59.9251 37.3407ZM59.1172 33.2646C59.9594 34.369 60.2051 35.8299 59.9251 37.3407L60.9083 37.5229C61.2269 35.8044 60.9646 34.0381 59.9124 32.6582L59.1172 33.2646ZM55.1994 31.5078C56.8975 31.52 58.2649 32.1469 59.1172 33.2646L59.9124 32.6582C58.838 31.2493 57.1525 30.5218 55.2065 30.5079L55.1994 31.5078ZM40.9844 39.3258C46.7211 33.505 51.8496 31.4839 55.1994 31.5078L55.2065 30.5079C51.4843 30.4812 46.1122 32.6982 40.2721 38.6239L40.9844 39.3258ZM34.878 46.8639C36.5811 44.504 38.4991 41.8475 40.9844 39.3258L40.2721 38.6239C37.7258 41.2075 35.7667 43.9237 34.0672 46.2787L34.878 46.8639ZM33.9969 48.0797C34.285 47.6857 34.5784 47.2792 34.878 46.8639L34.0672 46.2787C33.7671 46.6945 33.4756 47.0985 33.1897 47.4896L33.9969 48.0797ZM32.4691 48.2501C32.84 48.2702 33.2136 48.2816 33.5892 48.2846L33.5974 47.2847C33.2366 47.2817 32.8784 47.2708 32.5233 47.2515L32.4691 48.2501ZM28.655 46.8167C29.1557 47.51 30.2475 48.1296 32.4691 48.2501L32.5233 47.2515C30.4354 47.1383 29.7103 46.5699 29.4657 46.2312L28.655 46.8167ZM28.4438 43.7387C28.0603 45.1035 28.1552 46.1246 28.655 46.8167L29.4657 46.2312C29.2223 45.8942 29.0611 45.2382 29.4065 44.0093L28.4438 43.7387ZM31.8497 37.7777C30.2943 39.7172 28.9687 41.8712 28.4438 43.7387L29.4065 44.0093C29.878 42.3315 31.1076 40.3015 32.6298 38.4033L31.8497 37.7777ZM41.535 59.1138C43.2181 58.8376 44.9228 58.3818 46.5014 57.7823L46.1464 56.8474C44.6315 57.4228 42.9916 57.8614 41.3731 58.127L41.535 59.1138ZM44.1031 55.2569C43.107 56.1716 42.0715 57.2021 41.0847 58.2834L41.8233 58.9575C42.7893 57.8991 43.8039 56.8894 44.7795 55.9935L44.1031 55.2569ZM48.4196 51.9274C47.5137 52.3872 45.9089 53.5988 44.1031 55.2569L44.7795 55.9935C46.574 54.3456 48.0952 53.2135 48.8721 52.8192L48.4196 51.9274ZM52.0636 51.2675C51.4801 51.0165 50.3417 50.952 48.4196 51.9275L48.8721 52.8192C50.6615 51.9111 51.4691 52.1004 51.6685 52.1861L52.0636 51.2675ZM52.8673 52.4296C52.8673 52.0068 52.6273 51.51 52.0636 51.2675L51.6685 52.1861C51.7599 52.2255 51.8061 52.2749 51.831 52.3144C51.8585 52.358 51.8673 52.4013 51.8673 52.4296H52.8673ZM51.1706 55.1965C52.3373 54.2069 52.8673 53.2553 52.8673 52.4296H51.8673C51.8673 52.8247 51.5976 53.5231 50.5238 54.4338L51.1706 55.1965ZM46.5014 57.7823C48.3906 57.0648 50.0252 56.168 51.1706 55.1965L50.5238 54.4338C49.4921 55.3089 47.9682 56.1555 46.1464 56.8474L46.5014 57.7823ZM37.2315 48.0729C41.4731 47.5641 45.7803 46.1874 49.4169 44.4394L48.9836 43.5381C45.432 45.2453 41.2304 46.586 37.1124 47.08L37.2315 48.0729ZM38.2784 45.3157C37.7604 46.0056 37.2699 46.6587 36.7828 47.2625L37.5611 47.8904C38.0612 47.2706 38.5624 46.603 39.0781 45.9162L38.2784 45.3157ZM42.2529 40.5202C40.6794 42.1167 39.4174 43.7987 38.2784 45.3157L39.0781 45.9162C40.2211 44.3937 41.4456 42.764 42.9651 41.2221L42.2529 40.5202ZM55.1871 33.2168C52.6012 33.1983 47.9567 34.7328 42.2529 40.5202L42.9651 41.2221C48.5598 35.5455 52.9607 34.2009 55.18 34.2168L55.1871 33.2168ZM57.7582 34.3009C57.2846 33.6798 56.4602 33.2259 55.1871 33.2168L55.18 34.2168C56.2013 34.2241 56.7095 34.5748 56.963 34.9073L57.7582 34.3009ZM58.2447 37.0292C58.4587 35.8748 58.2421 34.9355 57.7582 34.3009L56.963 34.9073C57.2385 35.2685 57.4363 35.9035 57.2614 36.8469L58.2447 37.0292ZM55.6217 40.5436C56.4328 39.8498 57.0411 39.2009 57.4686 38.6179C57.8916 38.0409 58.1571 37.5019 58.2447 37.0292L57.2614 36.8469C57.2118 37.1148 57.0384 37.5134 56.6621 38.0266C56.2904 38.5336 55.7392 39.1272 54.9717 39.7837L55.6217 40.5436ZM49.4169 44.4394C51.9155 43.2383 54.0601 41.8795 55.6217 40.5436L54.9717 39.7837C53.4914 41.05 51.4249 42.3646 48.9836 43.5381L49.4169 44.4394Z" fill="white"/>
<circle cx="33.4231" cy="34.3157" r="3.45362" fill="url(#paint0_linear_942_628)" stroke="#0E0E0F" stroke-width="2.66544"/>
<defs>
<linearGradient id="paint0_linear_942_628" x1="31.3298" y1="30.9637" x2="36.4285" y2="35.347" gradientUnits="userSpaceOnUse">
<stop stop-color="#7B00F7"/>
<stop offset="1" stop-color="#3FFFD1"/>
</linearGradient>
</defs>
</svg>
