<svg width="20" height="20" viewBox="0 0 20 20" fill="none" xmlns="http://www.w3.org/2000/svg">
<g clip-path="url(#clip0_401:1524)">
<path d="M9.99984 5C9.34057 5 8.6961 5.1955 8.14794 5.56177C7.59977 5.92804 7.17253 6.44863 6.92024 7.05772C6.66795 7.66681 6.60194 8.33703 6.73055 8.98363C6.85917 9.63024 7.17664 10.2242 7.64282 10.6904C8.10899 11.1565 8.70293 11.474 9.34954 11.6026C9.99614 11.7312 10.6664 11.6652 11.2755 11.4129C11.8845 11.1606 12.4051 10.7334 12.7714 10.1852C13.1377 9.63707 13.3332 8.9926 13.3332 8.33333C13.3332 7.44928 12.982 6.60143 12.3569 5.97631C11.7317 5.35119 10.8839 5 9.99984 5ZM9.99984 10C9.6702 10 9.34797 9.90225 9.07389 9.71912C8.79981 9.53598 8.58619 9.27568 8.46004 8.97114C8.33389 8.6666 8.30089 8.33149 8.3652 8.00818C8.42951 7.68488 8.58824 7.38791 8.82133 7.15482C9.05442 6.92174 9.35139 6.763 9.67469 6.69869C9.99799 6.63438 10.3331 6.66739 10.6376 6.79353C10.9422 6.91968 11.2025 7.1333 11.3856 7.40738C11.5688 7.68147 11.6665 8.0037 11.6665 8.33333C11.6665 8.77536 11.4909 9.19928 11.1783 9.51184C10.8658 9.82441 10.4419 10 9.99984 10Z" fill="#E4E4E4"/>
<path d="M9.99984 5C9.34057 5 8.6961 5.1955 8.14794 5.56177C7.59977 5.92804 7.17253 6.44863 6.92024 7.05772C6.66795 7.66681 6.60194 8.33703 6.73055 8.98363C6.85917 9.63024 7.17664 10.2242 7.64282 10.6904C8.10899 11.1565 8.70293 11.474 9.34954 11.6026C9.99614 11.7312 10.6664 11.6652 11.2755 11.4129C11.8845 11.1606 12.4051 10.7334 12.7714 10.1852C13.1377 9.63707 13.3332 8.9926 13.3332 8.33333C13.3332 7.44928 12.982 6.60143 12.3569 5.97631C11.7317 5.35119 10.8839 5 9.99984 5ZM9.99984 10C9.6702 10 9.34797 9.90225 9.07389 9.71912C8.79981 9.53598 8.58619 9.27568 8.46004 8.97114C8.33389 8.6666 8.30089 8.33149 8.3652 8.00818C8.42951 7.68488 8.58824 7.38791 8.82133 7.15482C9.05442 6.92174 9.35139 6.763 9.67469 6.69869C9.99799 6.63438 10.3331 6.66739 10.6376 6.79353C10.9422 6.91968 11.2025 7.1333 11.3856 7.40738C11.5688 7.68147 11.6665 8.0037 11.6665 8.33333C11.6665 8.77536 11.4909 9.19928 11.1783 9.51184C10.8658 9.82441 10.4419 10 9.99984 10Z" stroke="white"/>
<path d="M10.0003 20C9.29855 20.0035 8.60619 19.839 7.98115 19.52C7.35611 19.201 6.81659 18.7369 6.40776 18.1666C3.23193 13.7858 1.62109 10.4925 1.62109 8.37746C1.62109 6.15516 2.5039 4.02389 4.07529 2.45249C5.64669 0.881094 7.77797 -0.00170898 10.0003 -0.00170898C12.2226 -0.00170898 14.3538 0.881094 15.9252 2.45249C17.4966 4.02389 18.3794 6.15516 18.3794 8.37746C18.3794 10.4925 16.7686 13.7858 13.5928 18.1666C13.1839 18.7369 12.6444 19.201 12.0194 19.52C11.3943 19.839 10.702 20.0035 10.0003 20ZM10.0003 1.81746C8.26061 1.81944 6.59277 2.5114 5.36265 3.74152C4.13253 4.97164 3.44058 6.63947 3.43859 8.37912C3.43859 10.0541 5.01609 13.1516 7.87943 17.1008C8.12251 17.4356 8.4414 17.7081 8.81002 17.896C9.17864 18.0839 9.58651 18.1819 10.0003 18.1819C10.414 18.1819 10.8219 18.0839 11.1905 17.896C11.5591 17.7081 11.878 17.4356 12.1211 17.1008C14.9844 13.1516 16.5619 10.0541 16.5619 8.37912C16.5599 6.63947 15.868 4.97164 14.6379 3.74152C13.4077 2.5114 11.7399 1.81944 10.0003 1.81746Z" fill="#E4E4E4"/>
<path d="M10.0003 20C9.29855 20.0035 8.60619 19.839 7.98115 19.52C7.35611 19.201 6.81659 18.7369 6.40776 18.1666C3.23193 13.7858 1.62109 10.4925 1.62109 8.37746C1.62109 6.15516 2.5039 4.02389 4.07529 2.45249C5.64669 0.881094 7.77797 -0.00170898 10.0003 -0.00170898C12.2226 -0.00170898 14.3538 0.881094 15.9252 2.45249C17.4966 4.02389 18.3794 6.15516 18.3794 8.37746C18.3794 10.4925 16.7686 13.7858 13.5928 18.1666C13.1839 18.7369 12.6444 19.201 12.0194 19.52C11.3943 19.839 10.702 20.0035 10.0003 20ZM10.0003 1.81746C8.26061 1.81944 6.59277 2.5114 5.36265 3.74152C4.13253 4.97164 3.44058 6.63947 3.43859 8.37912C3.43859 10.0541 5.01609 13.1516 7.87943 17.1008C8.12251 17.4356 8.4414 17.7081 8.81002 17.896C9.17864 18.0839 9.58651 18.1819 10.0003 18.1819C10.414 18.1819 10.8219 18.0839 11.1905 17.896C11.5591 17.7081 11.878 17.4356 12.1211 17.1008C14.9844 13.1516 16.5619 10.0541 16.5619 8.37912C16.5599 6.63947 15.868 4.97164 14.6379 3.74152C13.4077 2.5114 11.7399 1.81944 10.0003 1.81746Z" stroke="white"/>
</g>
<defs>
<clipPath id="clip0_401:1524">
<rect width="20" height="20" fill="white"/>
</clipPath>
</defs>
</svg>
