<svg width="55" height="55" viewBox="0 0 55 55" fill="none" xmlns="http://www.w3.org/2000/svg">
<rect width="55" height="55" rx="10" fill="#3066C1"/>
<path d="M22.0866 37.5657L21.788 38.2537L22.0866 37.5657ZM19.3806 34.7309L18.6831 35.0067L19.3806 34.7309ZM36.6194 34.7309L37.3169 35.0067L36.6194 34.7309ZM33.9134 37.5657L34.212 38.2537L33.9134 37.5657ZM19 27.4645L19.7471 27.5309L19.7838 27.1177L19.4534 26.867L19 27.4645ZM35.5 22.9645V22.2145H35.5L35.5 22.9645ZM28.7678 21.8536L29.2981 22.3839L28.7678 21.8536ZM30.8891 19.7322L31.4194 20.2626L30.8891 19.7322ZM34.4246 19.7322L33.8943 20.2626L34.4246 19.7322ZM34.6835 22.9644L34.6835 23.7144L35.0663 23.7144L35.2909 23.4045L34.6835 22.9644ZM27.3891 21.8536L26.8588 22.3839L27.3891 21.8536ZM25.2678 19.7322L24.7375 20.2626L25.2678 19.7322ZM21.7322 19.7322L22.2626 20.2626L21.7322 19.7322ZM28 36.9645H28.75H28ZM18.9675 27.4398L18.5074 28.0321L18.9675 27.4398ZM36.9354 27.5116L36.5043 26.8979L36.9354 27.5116ZM26.5 37.2145C25.3244 37.2145 24.482 37.214 23.8177 37.1665C23.1608 37.1196 22.7346 37.0294 22.3851 36.8777L21.788 38.2537C22.3574 38.5008 22.9731 38.61 23.7107 38.6627C24.441 38.7149 25.3459 38.7145 26.5 38.7145V37.2145ZM18.25 30.1073C18.25 31.3179 18.2497 32.2616 18.2992 33.0221C18.3491 33.7887 18.452 34.4221 18.6831 35.0067L20.0781 34.4551C19.9286 34.0771 19.8412 33.619 19.796 32.9246C19.7504 32.2242 19.75 31.3375 19.75 30.1073H18.25ZM22.3851 36.8777C21.349 36.4281 20.5152 35.5607 20.0781 34.4551L18.6831 35.0067C19.261 36.4681 20.3738 37.6401 21.788 38.2537L22.3851 36.8777ZM36.25 30.1073C36.25 31.3374 36.2496 32.2242 36.204 32.9246C36.1588 33.619 36.0714 34.0771 35.9219 34.4551L37.3169 35.0067C37.548 34.4221 37.6509 33.7887 37.7008 33.0221C37.7504 32.2616 37.75 31.3178 37.75 30.1073H36.25ZM29.5 38.7145C30.6541 38.7145 31.559 38.7149 32.2893 38.6627C33.0269 38.61 33.6426 38.5008 34.212 38.2537L33.6149 36.8777C33.2654 37.0294 32.8392 37.1196 32.1823 37.1665C31.518 37.214 30.6756 37.2145 29.5 37.2145V38.7145ZM35.9219 34.4551C35.4848 35.5607 34.651 36.4281 33.6149 36.8777L34.212 38.2537C35.6262 37.6401 36.739 36.4681 37.3169 35.0067L35.9219 34.4551ZM19.75 30.1073C19.75 28.6341 19.6818 28.2657 19.7471 27.5309L18.2529 27.3981C18.1808 28.2105 18.25 28.8214 18.25 30.1073H19.75ZM35.5 23.7145C36.4665 23.7145 37.25 24.498 37.25 25.4645H38.75C38.75 23.6695 37.2949 22.2145 35.5 22.2145V23.7145ZM20.5 22.2145C18.7051 22.2145 17.25 23.6695 17.25 25.4645H18.75C18.75 24.498 19.5335 23.7145 20.5 23.7145V22.2145ZM29.2981 22.3839L31.4194 20.2626L30.3588 19.2019L28.2374 21.3232L29.2981 22.3839ZM31.4194 20.2626C32.1028 19.5791 33.2109 19.5791 33.8943 20.2626L34.955 19.2019C33.6857 17.9327 31.628 17.9327 30.3588 19.2019L31.4194 20.2626ZM28.2374 21.3232C27.9239 21.6368 27.4446 22.1471 27.2762 22.7681L28.7238 23.1608C28.7761 22.9681 28.9726 22.7093 29.2981 22.3839L28.2374 21.3232ZM33.8943 20.2626C34.5102 20.8785 34.5714 21.8408 34.0761 22.5244L35.2909 23.4045C36.2117 22.1334 36.1003 20.3472 34.955 19.2019L33.8943 20.2626ZM27.9194 21.3232L25.7981 19.2019L24.7375 20.2626L26.8588 22.3839L27.9194 21.3232ZM25.7981 19.2019C24.5289 17.9327 22.4711 17.9327 21.2019 19.2019L22.2626 20.2626C22.946 19.5792 24.054 19.5792 24.7375 20.2626L25.7981 19.2019ZM26.8588 22.3839C27.0598 22.585 27.189 22.8394 27.2762 23.1608L28.7238 22.7681C28.5903 22.2757 28.3574 21.7612 27.9194 21.3232L26.8588 22.3839ZM21.2019 19.2019C20.0566 20.3473 19.9452 22.1334 20.866 23.4045L22.0807 22.5244C21.5855 21.8408 21.6466 20.8785 22.2626 20.2626L21.2019 19.2019ZM27.25 22.9645L27.25 36.9645H28.75L28.75 22.9645H27.25ZM21.4734 23.7145L28 23.7145L28 22.2145L21.4734 22.2145L21.4734 23.7145ZM20.5 27.2145C20.095 27.2145 19.724 27.0778 19.4277 26.8476L18.5074 28.0321C19.0576 28.4595 19.7501 28.7145 20.5 28.7145V27.2145ZM19.4277 26.8476C19.0139 26.5262 18.75 26.0263 18.75 25.4645H17.25C17.25 26.5091 17.7437 27.4388 18.5074 28.0321L19.4277 26.8476ZM19.4534 26.867L19.4209 26.8424L18.5142 28.0373L18.5466 28.0619L19.4534 26.867ZM29.5 37.2145H28V38.7145H29.5V37.2145ZM28 37.2145H26.5V38.7145H28V37.2145ZM27.25 36.9645L27.25 37.9645H28.75L28.75 36.9645H27.25ZM35.5 27.2145H28V28.7145H35.5V27.2145ZM28 27.2145H20.5V28.7145H28V27.2145ZM37.25 25.4645C37.25 26.0564 36.9568 26.58 36.5043 26.8979L37.3665 28.1253C38.2017 27.5386 38.75 26.5656 38.75 25.4645H37.25ZM36.5043 26.8979C36.2202 27.0974 35.8749 27.2145 35.5 27.2145V28.7145C36.1934 28.7145 36.8381 28.4965 37.3665 28.1253L36.5043 26.8979ZM37.75 30.1073C37.75 28.7624 37.7505 28.2318 37.6826 27.4469L36.1882 27.5762C36.2495 28.2851 36.25 28.7495 36.25 30.1073H37.75ZM28 23.7145L34.4246 23.7145L34.4246 22.2145L28 22.2145L28 23.7145ZM34.4247 23.7145L34.6835 23.7144L34.6834 22.2144L34.4246 22.2145L34.4247 23.7145ZM34.4246 23.7145L35.5 23.7145L35.5 22.2145L34.4246 22.2145L34.4246 23.7145ZM21.4734 22.2145H20.5V23.7145H21.4734V22.2145ZM20.5 23.7145L24.25 23.7145L24.25 22.2145L20.5 22.2145L20.5 23.7145ZM24.25 23.7145L28 23.7145L28 22.2145L24.25 22.2145L24.25 23.7145ZM21.4734 23.7145L24.25 23.7145L24.25 22.2145L21.4734 22.2145L21.4734 23.7145ZM28 23.7145L34.6835 23.7144L34.6835 22.2144L28 22.2145L28 23.7145Z" fill="white"/>
</svg>
