<svg width="15" height="15" viewBox="0 0 15 15" fill="none" xmlns="http://www.w3.org/2000/svg">
<path d="M6.50051 0.664021C7.04967 -0.137267 8.23221 -0.137269 8.78137 0.664019L10.4104 3.041C10.5902 3.30331 10.8549 3.49564 11.1599 3.58555L13.924 4.40034C14.8557 4.67501 15.2212 5.79967 14.6288 6.56956L12.8716 8.85341C12.6776 9.10545 12.5765 9.41663 12.5853 9.73451L12.6645 12.6151C12.6912 13.5861 11.7345 14.2812 10.8192 13.9557L8.10416 12.9902C7.80454 12.8837 7.47734 12.8837 7.17772 12.9902L4.46264 13.9557C3.54737 14.2812 2.59068 13.5861 2.61738 12.6151L2.69661 9.73451C2.70535 9.41663 2.60424 9.10545 2.41032 8.85341L0.653082 6.56956C0.0607108 5.79967 0.426136 4.67501 1.35791 4.40034L4.12195 3.58555C4.42698 3.49564 4.69169 3.30332 4.87146 3.041L6.50051 0.664021Z" fill="#FF7A00"/>
</svg>
