<svg width="35" height="35" viewBox="0 0 35 35" fill="none" xmlns="http://www.w3.org/2000/svg">
<circle cx="17.5" cy="17.5" r="16.5" stroke="#143383" stroke-width="2"/>
<path d="M17.836 9.64C17.5747 9.90133 17.2573 10.032 16.884 10.032C16.5107 10.032 16.1933 9.90133 15.932 9.64C15.6707 9.37867 15.54 9.06133 15.54 8.688C15.54 8.31467 15.6707 7.99733 15.932 7.736C16.1933 7.47467 16.5107 7.344 16.884 7.344C17.2573 7.344 17.5747 7.47467 17.836 7.736C18.0973 7.99733 18.228 8.31467 18.228 8.688C18.228 9.06133 18.0973 9.37867 17.836 9.64ZM15.96 27V13H17.808V27H15.96Z" fill="#143383"/>
</svg>
