<svg width="36" height="36" viewBox="0 0 36 36" fill="none" xmlns="http://www.w3.org/2000/svg">
<path d="M12.8555 22.9057L22.6654 13.0957" stroke="#143383" stroke-width="2" stroke-linecap="round" stroke-linejoin="round"/>
<path d="M13.47 15.5552C14.489 15.5552 15.315 14.7292 15.315 13.7103C15.315 12.6913 14.489 11.8652 13.47 11.8652C12.4511 11.8652 11.625 12.6913 11.625 13.7103C11.625 14.7292 12.4511 15.5552 13.47 15.5552Z" stroke="#143383" stroke-width="2" stroke-linecap="round" stroke-linejoin="round"/>
<path d="M23.2786 24.1353C24.2975 24.1353 25.1236 23.3092 25.1236 22.2903C25.1236 21.2713 24.2975 20.4453 23.2786 20.4453C22.2596 20.4453 21.4336 21.2713 21.4336 22.2903C21.4336 23.3092 22.2596 24.1353 23.2786 24.1353Z" stroke="#143383" stroke-width="2" stroke-linecap="round" stroke-linejoin="round"/>
<path d="M18 33C26.2843 33 33 26.2843 33 18C33 9.71573 26.2843 3 18 3C9.71573 3 3 9.71573 3 18C3 26.2843 9.71573 33 18 33Z" stroke="#143383" stroke-width="2" stroke-linecap="round" stroke-linejoin="round"/>
</svg>
