<svg width="1569" height="736" viewBox="0 0 1569 736" fill="none" xmlns="http://www.w3.org/2000/svg">
<path fill-rule="evenodd" clip-rule="evenodd" d="M1045.79 1.61107C1042.44 2.30296 1037.12 2.90971 1033.94 2.95685C1030.77 3.00551 1025.34 4.41363 1021.89 6.08635C1018.43 7.75907 1014.7 9.12766 1013.61 9.12766C1012.51 9.12766 1011.61 9.81195 1011.61 10.6483C1011.61 11.4847 1010.98 12.169 1010.2 12.169C1009.42 12.169 1003.95 14.3435 998.045 17.0001L987.314 21.8312V31.9162C987.314 43.394 985.669 46.3715 978.611 47.6717C972.556 48.7878 970.607 45.9016 970.607 35.8182C970.607 25.5827 967.003 19.9319 958.611 17.0092C951.361 14.4834 949.345 14.7541 949.345 18.2516C949.345 19.9243 948.661 21.2929 947.826 21.2929C946.99 21.2929 946.307 24.0301 946.307 27.3755C946.307 30.7209 946.99 33.4581 947.826 33.4581C948.661 33.4581 949.345 34.8982 949.345 36.6576C949.345 39.7095 948.804 39.8175 937.574 38.9811C893.351 35.6904 898.39 35.1673 876.62 45.2934C871.23 47.8009 867.331 45.5823 867.331 40.0106C867.331 34.147 859.185 38.9629 857.459 45.8438C856.437 49.9177 853.658 52.8586 845.075 58.9504C836.38 65.1212 808.1 63.2477 808.1 56.5006C808.1 53.9094 809.804 53.5079 824.943 52.5256C838.804 51.6254 842.32 50.897 844.807 48.4076C847.82 45.3907 847.791 45.3679 829.86 36.761L811.896 28.1358L783.799 28.1419L755.702 28.1495L742.793 34.813C728.203 42.3433 726.657 43.7864 721.598 54.6013C719.179 59.773 717.05 62.3505 715.195 62.3505C713.667 62.3505 712.417 63.0348 712.417 63.8712C712.417 64.7075 711.072 65.3918 709.425 65.3918C706.166 65.3918 696.642 70.3263 693.147 73.8239C689.751 77.224 691.162 85.6196 695.298 86.6217C700.46 87.8732 704.808 92.3074 705.815 97.3469C706.707 101.811 715.455 104.553 715.455 100.367C715.455 99.5305 717.164 98.8462 719.252 98.8462C721.34 98.8462 723.07 97.9916 723.094 96.9454C723.211 92.1432 725.77 100.416 726.676 108.521L727.672 117.435L721.943 116.369C708.651 113.896 693.079 115.727 691.519 119.945C691.016 121.305 689.362 123.523 687.842 124.875C686.323 126.229 685.078 127.939 685.078 128.677C685.074 131.961 677.657 138.383 673.868 138.383C664.807 138.383 657.742 141.876 657.742 146.356C657.742 148.663 657.058 150.548 656.223 150.548C655.388 150.548 654.704 152.601 654.704 155.11C654.704 159.166 655.21 159.672 659.261 159.672C663.311 159.672 663.817 160.179 663.817 164.234C663.817 166.743 663.133 168.796 662.298 168.796C661.463 168.796 660.779 169.868 660.779 171.179C660.779 172.755 659.877 173.279 658.122 172.726C643.198 168.025 626.088 169.309 620.945 175.515C615.459 182.135 618.659 205.123 625.502 208.245C632.582 211.475 663.817 210.307 663.817 206.813C663.817 205.14 664.5 203.771 665.336 203.771C666.171 203.771 666.854 202.696 666.854 201.382C666.854 200.067 667.71 198.092 668.753 196.989C672.759 192.762 675.967 188.483 675.967 187.362C675.967 186.72 677.334 185.209 679.005 184.003C680.675 182.797 682.042 181.229 682.042 180.517C682.042 176.939 686.917 174.744 694.128 175.072C699.985 175.34 702.336 174.748 704.412 172.485C710.844 165.469 711.852 165.305 715.059 170.744C716.702 173.535 721.393 177.984 725.483 180.63C729.575 183.277 733.647 186.053 734.535 186.798C735.424 187.543 737.8 189.038 739.819 190.12C749.665 195.396 748.133 200.73 736.772 200.73C731.159 200.73 730.687 201.013 732.05 203.563C737.339 213.458 753.424 209.688 753.424 198.555C753.424 194.772 754.202 191.6 755.212 191.262C758.239 190.253 755.506 187.777 743.753 180.878C734.245 175.297 732.189 173.363 730.788 168.684C727.707 158.386 728.137 157.692 737.14 158.441C745.198 159.11 746.738 160.001 758.327 170.697C760.819 172.996 763.469 174.879 764.216 174.879C764.964 174.879 765.574 178.985 765.574 184.003C765.574 189.071 766.248 193.127 767.093 193.127C767.928 193.127 768.612 193.864 768.612 194.766C768.612 196.728 780.411 208.333 782.405 208.333C783.172 208.333 783.799 205.938 783.799 203.011C783.799 200.084 784.483 197.689 785.318 197.689C786.153 197.689 786.837 195.929 786.837 193.779C786.837 189.591 788.738 187.053 793.983 184.243C798.498 181.824 798.545 181.851 799.508 187.424C803.258 209.141 805.872 211.375 827.518 211.375C849.288 211.375 853.597 213.925 853.64 226.837C853.659 233.042 852.912 234.718 847.706 240.142L841.751 246.35H824.924C814.72 246.35 808.1 245.75 808.1 244.829C808.1 243.993 807.008 243.308 805.671 243.308C804.336 243.308 801.327 241.255 798.987 238.746C796.647 236.237 793.638 234.184 792.303 234.184C790.966 234.184 789.874 233.5 789.874 232.664C789.874 231.827 786.799 231.143 783.04 231.143C779.281 231.143 776.205 231.827 776.205 232.664C776.205 233.5 774.497 234.184 772.409 234.184C768.991 234.184 768.612 234.793 768.612 240.267C768.612 247.361 762.215 249.19 757.98 243.308C756.694 241.523 754.048 240.267 751.57 240.267C749.249 240.267 747.349 239.583 747.349 238.746C747.349 237.91 744.273 237.226 740.515 237.226C736.756 237.226 733.68 236.541 733.68 235.705C733.68 234.869 731.239 234.184 728.257 234.184C720.321 234.184 718.492 231.499 718.492 219.846V209.854H704.025C689.274 209.854 669.892 212.641 669.892 214.763C669.892 215.409 668.525 215.937 666.854 215.937C665.184 215.937 663.817 216.621 663.817 217.457C663.817 218.373 657.59 218.978 648.172 218.978C633.656 218.978 624.372 220.903 624.341 223.92C624.335 224.548 622.962 225.06 621.292 225.06C619.621 225.06 618.254 225.745 618.254 226.581C618.254 227.417 617.18 228.102 615.868 228.102C610.928 228.102 609.141 232.141 609.141 243.308C609.141 253.925 607.34 258.515 603.174 258.515C602.28 258.515 601.548 259.199 601.548 260.035C601.548 260.872 600.522 261.556 599.269 261.556C598.016 261.556 596.991 262.079 596.991 262.718C596.991 263.357 594.258 265.571 590.916 267.639C587.575 269.707 584.841 271.921 584.841 272.56C584.841 273.198 583.816 273.721 582.563 273.721C581.31 273.721 580.285 274.406 580.285 275.242C580.285 276.078 579.26 276.763 578.007 276.763C576.754 276.763 575.729 277.331 575.729 278.026C575.729 278.721 573.967 280.234 571.815 281.387C563.34 285.929 564.66 299.572 573.573 299.572C579.231 299.572 578.128 310.786 572.032 315.231C566.649 319.157 566.018 347.528 571.188 353.23C575.449 357.931 584.61 368.321 590.916 375.605C593.84 378.982 598.799 384.53 601.938 387.933L607.642 394.122L617.126 393.164C622.34 392.636 633.404 391.843 641.71 391.402C654.103 390.742 657.268 390.071 659.353 387.662C663.928 382.383 682.662 383.443 688.117 389.291C692.06 393.517 693.155 393.853 702.969 393.853C717.432 393.853 717.77 394.385 715.692 414L714.042 429.588L721.583 443.162C725.731 450.627 729.124 457.298 729.124 457.988C729.124 458.677 729.64 459.241 730.272 459.241C730.904 459.241 732.377 461.466 733.548 464.183C734.719 466.902 736.935 470.941 738.475 473.161C741.441 477.44 742.314 486.613 739.755 486.613C738.92 486.613 738.236 487.981 738.236 489.654C738.236 491.327 737.553 492.695 736.718 492.695C735.882 492.695 735.199 494.064 735.199 495.737C735.199 497.409 734.515 498.778 733.68 498.778C732.845 498.778 732.161 500.09 732.161 501.693C732.161 503.296 731.525 504.835 730.749 505.115C729.21 505.667 728.518 510.484 728.887 518.042C729.052 521.398 730.968 524.781 735.199 529.191L741.274 535.522L741.275 552.506C741.277 567.898 741.597 569.869 744.693 573.542C755.88 586.821 756.462 588.273 756.462 602.922V615.868H778.528H800.595L818.865 597.487C828.911 587.377 837.764 577.625 838.537 575.817C843.051 565.249 847.191 560.357 852.329 559.521C860.161 558.246 861.256 557.021 861.256 549.53C861.256 541.965 862.877 538.075 868.285 532.66C870.267 530.675 871.898 528.571 871.912 527.982C871.926 527.392 873.976 524.594 876.468 521.761C878.961 518.93 881 516.053 881 515.368C881 514.683 882.789 512.33 884.978 510.14C888.836 506.278 888.927 505.759 888.002 492.965C886.026 465.634 884.875 460.257 879.861 454.951C876.133 451.005 878.225 447.972 898.466 427.986C909.743 416.85 918.969 407.01 918.969 406.119C918.969 405.227 919.653 404.498 920.488 404.498C921.323 404.498 922.007 403.622 922.007 402.553C922.007 401.482 923.374 399.621 925.044 398.415C926.715 397.209 928.082 395.156 928.082 393.853C928.082 392.55 929.449 390.497 931.119 389.291C932.79 388.085 934.157 386.032 934.157 384.729C934.157 383.426 935.524 381.373 937.194 380.167C938.865 378.961 940.232 377.068 940.232 375.961C940.232 374.852 941.941 372.235 944.029 370.144C946.117 368.054 947.826 365.721 947.826 364.961C947.826 364.2 949.534 361.868 951.623 359.777C956.211 355.183 956.56 351.275 952.382 351.275C950.711 351.275 949.345 350.507 949.345 349.568C949.345 348.398 948.748 348.343 947.446 349.397C945.681 350.825 942.276 351.498 925.424 353.756C921.875 354.232 918.969 355.238 918.969 355.99C918.969 356.741 914.869 357.357 909.857 357.357C904.795 357.357 900.744 356.682 900.744 355.837C900.744 355 899.67 354.316 898.358 354.316C895.34 354.316 891.632 350.672 891.632 347.709C891.632 346.463 891.12 345.218 890.492 344.938C889.865 344.66 887.227 340.326 884.63 335.308C882.031 330.29 877.878 322.42 875.397 317.82C872.917 313.22 867.946 303.982 864.352 297.291C860.757 290.601 855.856 281.571 853.46 277.225C846.011 263.706 849.225 259.611 858.401 270.931C861.224 274.413 864.221 278.007 865.059 278.914C866.592 280.57 878.254 294.737 882.519 300.12C883.772 301.701 886.336 304.589 888.214 306.537C890.093 308.485 891.632 310.48 891.632 310.971C891.632 311.462 892.998 313.334 894.669 315.129C896.921 317.55 897.707 320.495 897.707 326.521C897.707 337.961 904.605 345.197 915.502 345.183C923.512 345.174 934.157 342.681 934.157 340.816C934.157 340.16 936.036 338.652 938.333 337.466C940.631 336.28 943.989 333.939 945.798 332.267C947.606 330.594 952.586 326.83 956.862 323.903C961.141 320.976 966.494 317.001 968.762 315.069C971.029 313.14 974.936 310.491 977.442 309.185C985.011 305.238 987.314 302.433 987.314 297.158C987.314 291.875 986.794 291.522 976.423 289.775C973.356 289.258 965.573 286.119 959.127 282.798C952.68 279.479 946.476 276.763 945.338 276.763C944.201 276.763 943.269 276.078 943.269 275.242C943.269 274.406 941.903 273.721 940.232 273.721C938.561 273.721 937.194 273.037 937.194 272.201C937.194 271.364 935.828 270.68 934.157 270.68C932.486 270.68 931.119 269.996 931.119 269.159C931.119 268.323 930.046 267.639 928.733 267.639C923.913 267.639 922.007 263.576 922.007 253.301V243.308H928.082H934.157V250.912C934.157 257.501 934.562 258.515 937.194 258.515C938.865 258.515 940.232 259.199 940.232 260.035C940.232 260.872 941.286 261.556 942.574 261.556C943.862 261.556 946.383 262.925 948.175 264.597C949.969 266.27 952.332 267.639 953.429 267.639C954.524 267.639 955.42 268.245 955.42 268.988C955.42 269.728 962.424 270.739 970.987 271.232C979.55 271.726 990.997 272.865 996.426 273.762C1001.86 274.66 1010.06 275.762 1014.65 276.212C1019.25 276.662 1023.65 277.654 1024.45 278.417C1025.24 279.181 1029.15 279.804 1033.14 279.804C1040.17 279.804 1054.14 285.064 1054.14 287.71C1054.14 288.38 1055.51 288.928 1057.18 288.928C1060.89 288.928 1061.98 319.896 1058.32 321.376C1056.8 321.988 1056.8 322.166 1058.32 322.262C1059.36 322.328 1060.21 323.751 1060.21 325.424C1060.21 327.096 1060.9 328.465 1061.73 328.465C1062.57 328.465 1063.25 329.491 1063.25 330.746C1063.25 332 1063.94 333.027 1064.77 333.027C1065.61 333.027 1066.29 334.395 1066.29 336.068C1066.29 337.741 1066.97 339.109 1067.81 339.109C1068.64 339.109 1069.33 340.007 1069.33 341.103C1069.33 342.201 1070.69 344.567 1072.36 346.363C1074.04 348.157 1075.4 350.682 1075.4 351.971C1075.4 353.261 1076.09 354.316 1076.92 354.316C1077.76 354.316 1078.44 355.213 1078.44 356.31C1078.44 357.407 1079.81 359.774 1081.48 361.569C1083.15 363.364 1084.51 365.578 1084.51 366.487C1084.51 369.39 1091.85 375.605 1095.28 375.605C1098.78 375.605 1103.56 371.064 1105.08 366.3C1105.57 364.728 1106.53 363.44 1107.2 363.44C1108.4 363.44 1109.02 359.656 1111.7 336.068C1113.15 323.351 1113.4 322.502 1119.69 309.016C1123.31 301.248 1125.21 298.995 1129.77 297.021C1132.86 295.683 1136.82 293.945 1138.56 293.155C1140.59 292.238 1144.92 292.314 1150.61 293.367C1155.5 294.271 1161.79 295.01 1164.6 295.01C1167.8 295.01 1171.06 296.283 1173.34 298.432C1175.33 300.315 1179.1 303.564 1181.7 305.655C1184.3 307.746 1189.73 312.536 1193.75 316.3C1197.78 320.063 1202.52 324.149 1204.3 325.379C1207.36 327.496 1207.53 328.863 1207.53 350.863V374.11L1229.54 396.146C1252.41 419.038 1256.13 421.488 1256.13 413.621C1256.13 411.112 1255.61 409.06 1254.97 409.06C1254.34 409.06 1252.13 406.322 1250.06 402.977C1247.99 399.631 1245.87 396.894 1245.33 396.894C1244.79 396.894 1243.5 394.841 1242.47 392.332C1241.43 389.823 1240.02 387.77 1239.35 387.77C1238.67 387.77 1237.67 386.38 1237.14 384.68C1236.6 382.98 1234.5 379.933 1232.48 377.906C1230.45 375.88 1228.8 373.417 1228.8 372.432C1228.8 371.446 1227.6 369.526 1226.14 368.165C1219.55 362.027 1217.13 347.687 1222 343.641C1223.27 342.583 1224.51 341.987 1224.74 342.313C1235.91 357.824 1241.58 363.44 1246.07 363.44C1248.12 363.44 1250.21 364.296 1250.69 365.341C1251.4 366.861 1251.76 366.861 1252.46 365.341C1252.95 364.296 1254.66 363.44 1256.26 363.44C1257.86 363.44 1259.17 362.756 1259.17 361.919C1259.17 361.083 1260.2 360.399 1261.45 360.399C1262.7 360.399 1263.73 359.714 1263.73 358.878C1263.73 358.042 1264.84 357.357 1266.2 357.357C1268.25 357.357 1268.55 355.983 1267.97 349.015C1267.25 340.35 1266.68 339.505 1256.04 331.506C1241.49 320.567 1240.95 319.776 1240.95 309.679C1240.95 300.462 1245.11 291.969 1249.62 291.969C1254.92 291.969 1260.69 296.983 1260.7 301.584C1260.71 308.899 1266.6 315.606 1270.49 312.746C1273.09 310.839 1273.25 309.892 1271.8 305.153C1270.03 299.385 1272.53 295.01 1277.59 295.01C1278.82 295.01 1280.48 294.449 1281.27 293.764C1282.06 293.078 1287.84 290.864 1294.1 288.844C1300.37 286.823 1307.01 283.671 1308.87 281.837C1310.73 280.005 1314.32 277.28 1316.84 275.785C1321.45 273.063 1323.94 261.556 1319.92 261.556C1319.09 261.556 1318.4 258.452 1318.4 254.66C1318.4 247.946 1318 247.367 1303.22 232.664L1288.03 217.564V203.825V190.085H1295.55C1301.34 190.085 1303.88 190.882 1306.57 193.54C1308.48 195.44 1312.44 198.657 1315.37 200.69C1318.29 202.724 1321.79 205.617 1323.14 207.121C1324.49 208.624 1326.44 209.854 1327.47 209.854C1328.49 209.854 1331.15 211.736 1333.36 214.036C1341.5 222.489 1346.37 223.379 1354.68 217.933C1355.83 217.18 1340.67 203.771 1338.67 203.771C1337.55 203.771 1336.63 203.087 1336.63 202.251C1336.63 201.414 1335.57 200.73 1334.28 200.73C1329.02 200.73 1324.48 193.663 1324.48 185.484C1324.48 174.788 1326.32 173.358 1340.07 173.358C1350.66 173.358 1351.43 173.129 1353.09 169.485C1355.26 164.733 1355.45 145.986 1353.34 145.986C1352.5 145.986 1351.82 145.111 1351.82 144.042C1351.82 142.971 1350.45 141.11 1348.78 139.904C1345.2 137.32 1344.9 134.442 1347.91 131.432C1351.1 128.242 1353.14 128.733 1357.89 133.821C1362.46 138.716 1367 139.838 1367 136.069C1367 134.796 1363.35 130.1 1358.89 125.633C1349.97 116.697 1347.21 115.684 1328.66 114.544C1322.18 114.147 1316.89 113.189 1316.89 112.417C1316.89 111.644 1315.47 111.011 1313.74 111.011C1310.07 111.011 1306.25 107.646 1306.25 104.404C1306.25 103.159 1305.4 101.834 1304.36 101.459C1303.07 100.996 1303.56 99.7966 1305.87 97.7316C1307.75 96.0573 1309.29 93.8813 1309.29 92.8959C1309.29 90.066 1317.32 82.6589 1318.04 84.8227C1318.38 85.8446 1319.97 86.681 1321.57 86.681C1323.17 86.681 1324.48 87.2968 1324.48 88.048C1324.48 89.4197 1331.26 90.6301 1347.72 92.201C1355.38 92.9309 1356.9 92.6252 1359.29 89.8622C1360.8 88.1119 1363.01 86.681 1364.19 86.681C1365.37 86.681 1367.32 85.3124 1368.52 83.6397C1369.73 81.9669 1371.78 80.5984 1373.08 80.5984C1374.38 80.5984 1376.43 79.2298 1377.64 77.5571C1378.84 75.8843 1380.42 74.5157 1381.15 74.5157C1381.89 74.5157 1384.37 73.173 1386.67 71.5322C1390.83 68.5624 1390.87 68.5639 1394.12 71.59C1398.22 75.4205 1398.2 75.9239 1393.58 82.7349C1387.87 91.1669 1388.37 99.0515 1395.05 105.739C1397.95 108.639 1401.02 111.011 1401.89 111.011C1402.75 111.011 1403.45 111.696 1403.45 112.532C1403.45 113.368 1404.21 114.053 1405.12 114.053C1406.04 114.053 1408.71 116.106 1411.05 118.615C1413.39 121.124 1416 123.177 1416.85 123.177C1417.69 123.177 1418.65 123.946 1418.96 124.887C1420.64 129.948 1432.34 124.875 1432.29 119.103C1432.24 112.325 1425.73 98.8462 1422.51 98.8462C1421.28 98.8462 1407.58 85.0645 1408.25 84.4988C1411.32 81.8818 1417.21 80.5984 1426.14 80.5984H1436.87V76.2797C1436.87 72.5815 1437.75 71.6691 1443.02 69.9279C1449.59 67.7564 1452.31 65.3918 1448.24 65.3918C1444.63 65.3918 1441.42 61.5993 1441.42 57.3217C1441.42 53.184 1439.28 53.149 1463.87 57.6867C1478.07 60.3068 1483.71 54.1664 1470.28 50.6978C1468.19 50.1579 1466.14 49.3094 1465.72 48.8106C1465.31 48.3118 1462.57 46.9858 1459.65 45.8621C1456.73 44.7398 1450.92 42.43 1446.74 40.7314C1434.18 35.622 1432.65 35.4973 1317.64 30.3043C1284.33 28.8003 1280.54 28.3472 1273.6 25.0474C1262.88 19.9456 1256.08 18.4417 1238.63 17.3118L1223.34 16.3234L1215.34 24.1304C1207.13 32.1291 1201.79 33.9219 1197.74 30.0366C1196.65 28.992 1194.22 27.1094 1192.35 25.8548C1190.47 24.6003 1188.13 22.8075 1187.15 21.8707C1180.93 15.9387 1176.34 15.2103 1144.96 15.1768C1116.7 15.1449 1113.81 14.8955 1110.33 12.169C1108.25 10.5327 1105.68 9.17936 1104.64 9.16111C1103.59 9.14287 1102.74 8.44336 1102.74 7.607C1102.74 6.77064 1101.89 6.07114 1100.84 6.05289C1099.8 6.03464 1097.23 4.68127 1095.15 3.04504C1091.01 -0.19547 1059 -1.12611 1045.79 1.61107ZM260.761 11.3448C257.607 14.2371 253.714 17.0198 252.111 17.5293C250.507 18.0402 249.194 19.3799 249.194 20.5082C249.194 21.6365 248.341 22.9048 247.296 23.3275C246.253 23.7487 249.272 24.1487 254.006 24.2141C258.741 24.2795 263.696 24.7493 265.017 25.2572C267.628 26.2593 268.378 31.9375 265.901 31.9375C265.066 31.9375 264.382 32.9639 264.382 34.2184C264.382 36.0219 266.542 36.4994 274.71 36.4994C285.384 36.4994 288.682 38.0064 288.682 42.8862C288.682 45.9716 285.923 46.2422 270.68 44.6471C263.043 43.8472 261.345 43.169 261.345 40.9169C261.345 38.1569 253.701 35.0137 246.916 34.9818C245.246 34.9742 241.642 33.6011 238.906 31.9314C234.633 29.3235 231.249 28.8962 214.839 28.8962H195.745L188.843 34.9788C180.912 41.9692 175.329 42.7797 167.606 38.0642C155.429 30.6297 137.921 27.3755 110.111 27.3755H84.0441L69.7981 36.8796C56.5803 45.6978 45.955 50.1153 37.6854 50.234C29.1119 50.3556 26.366 57.1605 34.2894 58.6492C38.1364 59.3716 39.6051 60.4421 39.6051 62.5193C39.6051 65.1485 38.2868 65.3918 24.0378 65.3934C9.8601 65.3949 8.09681 65.7172 4.29383 68.9927C0.443763 72.3078 -1.4152 77.5525 1.2563 77.5601C1.88203 77.5631 4.78743 79.6145 7.71105 82.119L13.0267 86.6734L33.6743 86.6779C52.3961 86.681 54.5786 86.3966 57.0709 83.6397C59.5191 80.9314 61.7487 80.5984 77.4739 80.5984C93.386 80.5984 95.3452 80.8979 97.3181 83.6397C98.5225 85.3124 100.43 86.681 101.559 86.681C105.949 86.681 107.949 90.9768 107.949 100.408C107.949 108.933 108.379 110.193 112.639 114.177C117.562 118.78 116.436 123.177 110.335 123.177C108.521 123.177 107.949 124.813 107.949 130.02C107.949 133.783 108.633 136.863 109.468 136.863C110.304 136.863 110.987 139.6 110.987 142.945C110.987 146.291 110.304 149.028 109.468 149.028C108.633 149.028 107.949 149.779 107.949 150.699C107.949 151.617 105.899 154.288 103.393 156.631C100.887 158.974 98.8369 161.494 98.8369 162.227C98.8369 162.962 97.47 164.549 95.7993 165.755C94.1287 166.961 92.7618 168.672 92.7618 169.557C92.7618 170.442 91.3949 172.152 89.7243 173.358C88.0536 174.564 86.6868 176.174 86.6868 176.936C86.6868 177.7 85.1528 179.657 83.2771 181.285C80.191 183.965 79.8144 185.878 79.3223 201.417C78.6996 221.035 79.5288 223.517 87.6891 226.441C95.6125 229.28 95.7492 229.65 95.7766 248.25C95.7902 258.119 96.4008 264.597 97.3181 264.597C98.1534 264.597 98.8369 265.966 98.8369 267.639C98.8369 269.311 99.5203 270.68 100.356 270.68C101.191 270.68 101.874 271.706 101.874 272.961C101.874 274.216 102.558 275.242 103.393 275.242C104.228 275.242 104.912 276.268 104.912 277.523C104.912 278.778 105.595 279.804 106.431 279.804C107.266 279.804 107.949 280.879 107.949 282.193C107.949 286.705 115.666 291.969 122.277 291.969C125.812 291.969 126.175 291.402 126.175 285.887C126.175 282.541 125.491 279.804 124.656 279.804C123.821 279.804 123.137 278.778 123.137 277.523C123.137 276.268 122.454 275.242 121.618 275.242C120.783 275.242 120.1 274.216 120.1 272.961C120.1 271.706 119.416 270.68 118.581 270.68C117.745 270.68 117.062 269.654 117.062 268.399C117.062 267.145 116.379 266.118 115.543 266.118C114.708 266.118 114.025 265.092 114.025 263.837C114.025 262.583 113.341 261.556 112.506 261.556C111.67 261.556 110.987 258.135 110.987 253.953C110.987 249.771 110.304 246.35 109.468 246.35C108.633 246.35 107.949 243.612 107.949 240.267C107.949 234.522 108.203 234.184 112.506 234.184C116.556 234.184 117.062 234.691 117.062 238.746C117.062 241.255 117.745 243.308 118.581 243.308C119.416 243.308 120.1 246.73 120.1 250.912C120.1 255.093 120.783 258.515 121.618 258.515C122.454 258.515 123.137 259.733 123.137 261.22C123.137 262.709 124.504 264.912 126.175 266.118C127.845 267.324 129.212 269.377 129.212 270.68C129.212 271.983 130.579 274.036 132.25 275.242C133.92 276.448 135.287 278.4 135.287 279.58C135.287 280.762 136.791 283.034 138.628 284.629C142.31 287.827 143.384 298.137 140.147 299.218C137.954 299.95 137.684 305.655 139.843 305.655C140.679 305.655 141.362 306.681 141.362 307.936C141.362 309.191 142.046 310.217 142.881 310.217C143.716 310.217 144.4 311.243 144.4 312.498C144.4 313.753 145.083 314.779 145.919 314.779C146.754 314.779 147.459 315.635 147.486 316.68C147.609 321.519 152.516 324.542 166.006 328.092C187.36 333.711 186.787 333.637 187.829 330.919C189.951 325.383 202.634 328.711 201.37 334.473C200.346 339.138 204.803 342.151 212.726 342.151C215.144 342.151 217.543 342.835 218.06 343.671C218.576 344.508 220.678 345.192 222.73 345.192C226.541 345.192 249.194 366.09 249.194 369.606C249.194 374.121 253.705 375.605 267.42 375.605C283.386 375.605 285.625 376.85 285.681 385.762C285.701 388.956 286.28 393.99 286.965 396.943C288.177 402.156 286.469 406.018 282.958 406.018C282.244 406.018 280.337 407.216 278.718 408.679C277.097 410.144 273.975 412.268 271.775 413.402C267.415 415.652 266.631 418.702 264.493 441.754C263.32 454.399 264.346 458.222 270.404 463.803C271.765 465.058 274.541 468.479 276.572 471.406C278.602 474.334 281.644 478.236 283.333 480.077C291.018 488.456 294.757 495.3 294.757 500.983C294.757 503.416 295.606 504.861 297.036 504.861C298.289 504.861 299.314 505.545 299.314 506.381C299.314 507.218 301.364 507.902 303.87 507.902C306.376 507.902 308.426 508.586 308.426 509.423C308.426 510.259 309.451 510.943 310.704 510.943C311.957 510.943 312.983 511.628 312.983 512.464C312.983 513.3 314.008 513.985 315.261 513.985C316.514 513.985 317.539 514.669 317.539 515.505C317.539 516.342 318.564 517.026 319.817 517.026C321.07 517.026 322.095 517.71 322.095 518.547C322.095 519.383 322.809 520.067 323.682 520.067C324.556 520.067 326.948 521.748 328.998 523.8L332.726 527.532V561.668V595.802L337.457 597.453C341.79 598.966 342.105 599.523 341.197 604.065C340.651 606.793 339.692 612.108 339.064 615.875C338.437 619.643 337.372 623.616 336.701 624.705C334.797 627.79 336.818 633.297 341.824 638.661C344.337 641.356 346.395 644.125 346.395 644.812C346.395 645.501 347.495 647.165 348.839 648.511C350.902 650.576 351.02 652.004 349.598 657.657C345.969 672.09 349.764 694.942 355.79 694.942C356.469 694.942 357.027 696.311 357.027 697.984C357.027 699.656 357.71 701.025 358.545 701.025C359.381 701.025 360.064 702.394 360.064 704.066C360.064 705.739 360.748 707.108 361.583 707.108C362.418 707.108 363.102 708.134 363.102 709.389C363.102 710.643 363.785 711.67 364.621 711.67C365.456 711.67 366.139 712.545 366.139 713.614C366.139 714.685 367.608 716.566 369.403 717.796C371.198 719.026 375.551 722.869 379.075 726.335C388.003 735.117 390.212 736 403.249 736C414.586 736 414.74 735.948 414.74 732.08C414.74 728.29 404.245 716.232 400.946 716.232C400.179 716.232 399.552 713.152 399.552 709.389C399.552 705.625 400.236 702.546 401.071 702.546C401.906 702.546 402.59 699.521 402.59 695.823C402.59 689.491 402.307 689.039 397.704 688.026C386.463 685.555 384.495 680.633 391.958 673.653C394.76 671.033 396.515 667.87 396.515 665.44C396.515 662.063 395.852 661.488 391.958 661.488C387.908 661.488 387.402 660.982 387.402 656.926C387.402 652.618 387.739 652.364 393.477 652.364C396.818 652.364 399.552 651.68 399.552 650.843C399.552 650.007 401.602 649.323 404.108 649.323C406.614 649.323 408.665 648.638 408.665 647.802C408.665 646.966 410.032 646.281 411.702 646.281C413.373 646.281 414.74 645.597 414.74 644.761C414.74 643.924 416.107 643.24 417.777 643.24C419.448 643.24 420.815 642.556 420.815 641.719C420.815 640.883 422.056 640.199 423.571 640.199C425.269 640.199 427.353 638.009 428.998 634.496C431.713 628.697 437.779 619.174 442.296 613.618C460.942 590.677 460.787 591.103 456.326 575.04L453.871 566.193L457.865 559.858C462.297 552.827 461.624 553.065 475.87 553.49C481.508 553.657 486.122 553.164 486.122 552.395C486.122 551.624 488.002 550.023 490.298 548.836C498.89 544.398 501.309 540.617 501.309 531.63C501.309 527.042 501.993 522.865 502.828 522.348C503.663 521.831 504.347 515.768 504.347 508.875C504.347 497.318 506.525 488.175 509.283 488.146C509.91 488.14 510.422 487.382 510.422 486.462C510.422 485.544 512.472 482.874 514.978 480.53C517.484 478.187 519.534 475.517 519.534 474.598C519.534 473.678 520.218 472.927 521.053 472.927C521.888 472.927 522.572 471.558 522.572 469.886C522.572 468.213 523.255 466.844 524.091 466.844C524.926 466.844 525.609 464.133 525.609 460.821C525.609 455.12 525.295 454.711 519.773 453.222C513.549 451.545 507.384 447.073 507.384 444.237C507.384 443.289 506.868 442.514 506.236 442.514C505.604 442.514 504.181 440.461 503.071 437.952L501.054 433.39H483.667C468.018 433.39 465.032 432.926 453.799 428.747C436.115 422.168 437.069 423.133 434.995 409.71C433.976 403.112 432.42 397.472 431.536 397.177C430.65 396.882 429.927 395.33 429.927 393.727C429.927 392.124 429.323 390.812 428.586 390.812C427.848 390.812 426.887 389.443 426.449 387.77C425.737 385.044 424.378 384.729 413.294 384.729C400.586 384.729 393.477 381.329 393.477 375.249C393.477 374.142 392.11 372.249 390.439 371.043C388.769 369.837 387.402 367.927 387.402 366.798C387.402 364.013 383.604 360.399 380.675 360.399C379.363 360.399 378.289 359.714 378.289 358.878C378.289 356.189 372.957 357.257 370.696 360.399C368.053 364.069 344.878 365.093 344.875 361.539C344.871 357.876 337.758 351.275 333.815 351.275C331.685 351.275 329.715 350.685 329.435 349.962C329.157 349.242 325.271 348.309 320.798 347.89C313.212 347.18 312.349 347.453 307.889 351.976C301.373 358.583 294.757 366.805 294.757 368.295C294.757 368.97 291.34 369.522 287.164 369.522C282.987 369.522 279.57 368.838 279.57 368.002C279.57 367.165 275.762 366.481 271.109 366.481C258.96 366.481 258.307 365.406 258.307 345.403C258.307 330.749 257.978 328.582 255.649 327.965C254.188 327.575 248.721 326.409 243.499 325.372C237.418 324.164 234.007 322.743 234.007 321.414C234.007 320.275 234.69 319.341 235.526 319.341C236.361 319.341 237.044 317.972 237.044 316.3C237.044 314.627 237.728 313.258 238.563 313.258C239.398 313.258 240.082 312.232 240.082 310.977C240.082 309.723 240.765 308.696 241.601 308.696C242.436 308.696 243.119 306.937 243.119 304.787C243.119 300.377 238.876 295.132 237.286 297.577C236.736 298.424 234.619 299.997 232.584 301.072C230.549 302.145 228.157 303.646 227.268 304.405C214.914 314.966 207.281 317.055 192.241 313.994C186.857 312.899 181.878 299.44 183.974 291.645C186.316 282.938 197.848 261.577 200.214 261.565C201.259 261.561 202.113 260.872 202.113 260.035C202.113 259.199 203.48 258.515 205.15 258.515C206.821 258.515 208.188 257.831 208.188 256.994C208.188 256.158 209.555 255.473 211.225 255.473C212.896 255.473 214.263 254.789 214.263 253.953C214.263 253.116 215.589 252.432 217.211 252.432C218.833 252.432 220.581 251.748 221.097 250.912C221.659 250.001 231.744 249.391 246.247 249.391H270.457V256.737C270.457 263.264 270.923 264.302 274.634 266.039C276.93 267.114 279.997 268.598 281.447 269.337C287.027 272.178 288.451 271.066 287.041 264.978C284.159 252.56 285.113 248.322 292.44 240.988C296.176 237.245 299.935 234.184 300.793 234.184C301.65 234.184 302.351 233.5 302.351 232.664C302.351 231.827 303.376 231.143 304.629 231.143C305.882 231.143 306.908 230.459 306.908 229.622C306.908 228.786 307.933 228.102 309.186 228.102C310.439 228.102 311.464 227.417 311.464 226.581C311.464 225.745 312.489 225.06 313.742 225.06C314.995 225.06 316.02 224.376 316.02 223.54C316.02 222.703 316.752 222.019 317.647 222.019C320.595 222.019 323.509 217.854 324.9 211.656C326.721 203.54 349.684 180.402 361.276 174.999C365.621 172.975 369.177 170.75 369.177 170.057C369.177 169.363 370.544 168.796 372.214 168.796C373.921 168.796 375.252 167.782 375.252 166.482C375.252 162.501 391.427 147.507 395.722 147.507C397.828 147.507 399.552 148.191 399.552 149.028C399.552 151.286 404.007 150.868 406.494 148.375C409.438 145.43 409.225 144.466 405.627 144.466C403.956 144.466 402.59 143.782 402.59 142.945C402.59 142.109 401.223 141.424 399.552 141.424C397.303 141.424 396.515 140.41 396.515 137.515C396.515 127.275 411.42 125.842 415.157 135.722C417.004 140.606 435.131 137.322 436.561 131.844C437.172 129.509 437.829 129.317 440.446 130.719C444.491 132.886 444.485 137.588 440.434 140.428C434.42 144.647 437.146 149.11 448.152 153.071C460.412 157.484 464.352 157.584 465.641 153.517C467.101 148.915 458.538 141.424 451.819 141.424C449.563 141.424 447.513 136.087 448.903 133.835C449.424 132.991 450.699 132.301 451.737 132.301C452.774 132.301 455.461 131.446 457.71 130.4C464.883 127.065 462.717 111.011 455.095 111.011C453.783 111.011 452.709 110.327 452.709 109.491C452.709 108.654 451.757 107.97 450.593 107.97C447.571 107.97 446.634 104.52 446.634 93.3992C446.634 84.0031 446.492 83.6397 442.837 83.6397C440.749 83.6397 439.04 84.324 439.04 85.1603C439.04 85.9967 437.673 86.681 436.002 86.681C434.332 86.681 432.965 87.3653 432.965 88.2016C432.965 89.038 431.598 89.7223 429.927 89.7223C428.257 89.7223 426.89 90.4066 426.89 91.2429C426.89 92.0793 424.839 92.7636 422.334 92.7636C417.792 92.7636 417.777 92.7347 417.777 83.8967C417.777 76.2113 417.322 74.8062 414.36 73.3555C408.018 70.2488 387.402 67.3884 387.402 69.6162C387.402 70.4358 385.352 71.9565 382.846 72.9951L378.289 74.8853V89.9063V104.929H373.733C371.227 104.929 369.177 105.613 369.177 106.449C369.177 107.286 367.438 107.97 365.312 107.97C361.048 107.97 353.989 114.091 353.989 117.786C353.989 119.078 353.306 120.135 352.47 120.135C351.635 120.135 350.952 121.21 350.952 122.524C350.952 126.115 347.102 129.259 342.706 129.259C338.884 129.259 338.802 129.034 338.802 118.615C338.802 108.984 338.513 107.97 335.764 107.97C334.093 107.97 332.726 107.286 332.726 106.449C332.726 105.613 329.309 104.929 325.133 104.929C320.956 104.929 317.539 104.245 317.539 103.408C317.539 102.572 316.465 101.888 315.153 101.888C311.645 101.888 308.8 98.4554 306.311 91.2186C303.931 84.3027 304.461 80.5984 307.829 80.5984C308.993 80.5984 309.945 79.9931 309.945 79.2556C309.945 78.5166 311.142 77.5206 312.603 77.0415C314.064 76.5625 318.678 74.058 322.855 71.4744C327.031 68.8909 331.645 66.3863 333.106 65.9073C334.567 65.4283 335.764 64.4323 335.764 63.6933C335.764 62.9557 336.994 62.3505 338.498 62.3505C340.001 62.3505 341.882 61.7818 342.674 61.0869C344.969 59.075 356.94 56.0353 358.577 57.048C359.394 57.5544 360.064 60.322 360.064 63.2006C360.064 69.3212 367.21 71.2357 368.704 65.5165C369.124 63.9122 371.452 61.7757 373.877 60.7706C378.025 59.0492 380.092 54.7473 376.771 54.7473C372.161 54.7473 376.019 50.3222 381.427 49.4082C385.61 48.7011 389.36 46.6026 393.05 42.9075C397.992 37.9608 399.719 37.281 411.556 35.6205L424.612 33.7911L429.83 37.8954C436.156 42.871 437.161 45.2873 433.471 46.6528C431.94 47.2185 430.345 48.0883 429.927 48.5841C429.51 49.0798 424.554 51.7987 418.916 54.6256C407.355 60.4208 406.56 61.6541 413.601 62.8721C416.316 63.342 420.929 64.1479 423.852 64.6634C426.776 65.1774 430.535 66.1902 432.205 66.9125C441.279 70.8358 445.276 69.8276 448.256 62.8706L451.082 56.2679H459.454C472.034 56.2679 477.896 45.8773 466.593 43.613C462.329 42.7599 461.958 42.1593 461.527 35.4137C461.009 27.3086 461.739 27.8636 436.762 16.6017C423.494 10.6194 404.172 10.7426 391.531 16.8921L384.364 20.379V29.8329C384.364 40.2858 383.604 41.1207 375.266 39.8388C361.969 37.795 362.716 26.7444 376.727 18.2501C382.399 14.8119 359.501 11.3478 349.954 14.2006C343.654 16.0831 341.59 24.3342 347.417 24.3342C350.508 24.3342 350.952 25.0717 350.952 30.2206V36.1071L341.839 37.1381C335.427 37.865 332.726 38.8154 332.726 40.3482C332.726 43.3454 327.698 44.3384 315.229 43.8001L304.629 43.3424V37.2597V31.1771L314.05 30.4168C326.896 29.3797 341.475 16.2093 333.266 13.0555C330.997 12.1826 328.849 13.4372 322.414 19.3921C321.24 20.4778 316.41 21.2929 311.154 21.2929C301.344 21.2929 299.295 20.011 293.536 10.2681C289.395 3.25945 268.841 3.93462 260.761 11.3448ZM784.667 46.2757C788.596 50.2096 785.14 56.1919 777.543 58.6067C775.973 59.1054 774.687 60.1517 774.687 60.9318C774.687 61.7118 773.613 62.3505 772.301 62.3505C768.715 62.3505 765.574 66.2054 765.574 70.6062C765.574 73.5015 766.362 74.5157 768.612 74.5157C770.282 74.5157 771.649 75.2001 771.649 76.0364C771.649 76.8728 773.016 77.5571 774.687 77.5571C777.319 77.5571 777.724 78.5713 777.724 85.1603C777.724 89.3421 777.086 92.7636 776.307 92.7636C775.528 92.7636 774.451 94.1535 773.912 95.8536C773.373 97.5536 771.277 100.601 769.253 102.628C767.23 104.654 765.574 107.076 765.574 108.01C765.574 114.057 735.351 117.562 733.13 111.772C731.804 108.312 733.659 104.929 736.88 104.929C738.461 104.929 739.755 104.245 739.755 103.408C739.755 102.572 741.171 101.888 742.9 101.888C749.146 101.888 750.386 98.5497 750.386 81.7419C750.386 67.206 750.663 65.7005 753.837 62.936C760.334 57.2807 779.532 44.4905 782.009 44.1666C782.277 44.1316 783.474 45.0805 784.667 46.2757ZM237.679 46.5464C240.304 47.5546 241.014 51.706 238.563 51.706C237.728 51.706 237.044 52.7187 237.044 53.958C237.044 56.8549 231.941 58.1003 222.516 57.5027C215.78 57.0769 215.022 56.6648 215.022 53.4258C215.022 48.0837 229.912 43.5628 237.679 46.5464ZM237.044 72.9951V77.5571H226.413C216.795 77.5571 215.782 77.2681 215.782 74.5157C215.782 72.218 216.802 71.4684 219.958 71.4516C222.255 71.438 225.16 70.7643 226.413 69.9538C231.642 66.5703 237.044 68.1168 237.044 72.9951ZM651.667 88.2016C651.667 89.038 649.693 89.7223 647.279 89.7223C643.502 89.7223 642.759 90.4324 641.933 94.8408C640.753 101.139 642.062 104.929 645.419 104.929C646.816 104.929 648.944 106.297 650.148 107.97C651.352 109.643 653.553 111.011 655.04 111.011C660.129 111.011 658.504 118.539 653.186 119.603C650.068 120.228 648.629 121.416 648.629 123.367C648.629 124.935 647.946 126.218 647.111 126.218C644.793 126.218 645.302 130.707 647.917 133.326C649.63 135.039 651.928 135.398 656.65 134.688C660.173 134.159 665.879 133.342 669.33 132.874C680.352 131.379 681.037 126.674 671.582 117.406C667.312 113.218 663.817 108.699 663.817 107.36C663.817 106.024 663.133 104.929 662.298 104.929C661.463 104.929 660.779 102.876 660.779 100.367C660.779 97.8578 660.096 95.8049 659.261 95.8049C658.425 95.8049 657.742 93.752 657.742 91.2429C657.742 87.6953 657.068 86.681 654.704 86.681C653.034 86.681 651.667 87.3653 651.667 88.2016ZM633.442 106.449C633.442 107.286 632.386 107.97 631.095 107.97C628.056 107.97 621.292 114.743 621.292 117.786C621.292 119.078 620.608 120.135 619.773 120.135C618.937 120.135 618.254 122.188 618.254 124.697C618.254 130.482 628.068 131.574 631.923 126.218C633.127 124.545 635.018 123.177 636.124 123.177C639.535 123.177 645.592 115.925 645.592 111.84C645.592 108.984 644.796 107.97 642.554 107.97C640.884 107.97 639.517 107.286 639.517 106.449C639.517 105.613 638.15 104.929 636.479 104.929C634.809 104.929 633.442 105.613 633.442 106.449ZM270.457 118.615C270.457 125.204 270.052 126.218 267.42 126.218C265.749 126.218 264.382 126.902 264.382 127.739C264.382 129.997 259.928 129.579 257.44 127.086C256.246 125.893 255.27 123.84 255.27 122.524C255.27 121.21 254.586 120.135 253.751 120.135C252.915 120.135 252.232 118.767 252.232 117.094C252.232 115.067 253.245 114.053 255.27 114.053C256.94 114.053 258.307 113.368 258.307 112.532C258.307 111.696 261.041 111.011 264.382 111.011H270.457V118.615ZM306.068 145.316C311.591 153.757 302.635 157.265 282.987 154.358C275.963 153.319 273.331 146.882 279.19 145.068C280.651 144.616 282.873 143.652 284.126 142.925C289.651 139.72 303.384 141.216 306.068 145.316ZM318.298 150.548C320.982 153.517 320.952 153.59 317.015 153.59C313.996 153.59 312.983 152.826 312.983 150.548C312.983 148.876 313.56 147.507 314.266 147.507C314.972 147.507 316.787 148.876 318.298 150.548ZM931.827 153.111C940.258 157.136 939.477 162.714 930.484 162.714C926.794 162.714 922.693 163.129 921.372 163.637C918.904 164.584 917.947 170.317 920.256 170.317C920.963 170.317 922.991 171.514 924.762 172.978C926.533 174.442 930.738 177.316 934.107 179.366C939.404 182.59 940.233 183.823 940.246 188.49C940.256 192.66 941.294 194.704 944.802 197.48C953.55 204.398 947.668 214.287 936.623 211.232C933.596 210.395 931.119 209.059 931.119 208.262C931.119 207.465 927.702 206.813 923.526 206.813C914.392 206.813 913.523 204.203 920.488 197.689C925.767 192.751 926.627 186.232 922.188 184.821C920.616 184.321 917.946 182.735 916.254 181.296C914.562 179.857 911.748 177.674 909.998 176.444C906.256 173.811 905.534 161.529 908.718 154.665C911.041 149.654 922.915 148.856 931.827 153.111ZM419.676 156.117C418.632 156.54 417.777 157.854 417.777 159.038C417.777 160.538 415.93 161.193 411.702 161.193C406.658 161.193 405.627 161.705 405.627 164.205C405.627 170.566 417.425 170.273 420.506 163.836C421.603 161.546 423.488 159.672 424.695 159.672C425.903 159.672 426.89 158.646 426.89 157.391C426.89 155.17 423.503 154.571 419.676 156.117ZM295.321 157.832C296.405 159.59 292.382 167.244 287.159 173.358C284.659 176.285 282.613 179.537 282.61 180.581C282.606 183.156 278.34 182.989 275.665 180.309C272.989 177.63 272.836 170.788 275.393 168.112C276.438 167.019 279 164.018 281.089 161.442C284.788 156.88 293.386 154.7 295.321 157.832ZM335.764 161.156C335.764 163.214 332.866 164.613 330.494 163.702C329.249 163.223 328.732 161.649 329.215 159.802C330.038 156.648 335.764 157.832 335.764 161.156ZM319.873 161.372C321.211 165.592 316.543 170.32 310.607 170.752C306.016 171.086 303.786 166.045 305.987 160.305C307.401 156.613 318.638 157.478 319.873 161.372ZM849.407 172.136C849.859 179.915 849.961 180.064 857.459 183.91C862.669 186.582 865.205 188.88 865.539 191.226L866.024 194.647H840.1H814.175V184.561C814.175 171.092 816.58 168.751 832.655 166.569C836.555 166.039 840.557 164.627 841.547 163.431C845.068 159.184 848.9 163.428 849.407 172.136ZM390.989 164.995C389.66 168.46 391.525 171.908 394.179 170.889C397.269 169.701 397.278 162.714 394.189 162.714C392.909 162.714 391.469 163.74 390.989 164.995ZM335.384 170.502C341.382 172.713 340.047 179.441 333.61 179.441C325.42 179.441 323.614 178.17 323.614 172.406C323.614 166.856 324.925 166.645 335.384 170.502ZM317.203 178.022C318.116 182.843 311.69 188.565 305.367 188.565C298.967 188.565 297.121 187.003 298.474 182.735C300.359 176.79 316.216 172.799 317.203 178.022ZM1107.3 371.043C1106.26 373.552 1104.81 375.605 1104.07 375.605C1102.22 375.605 1102.41 379.297 1104.5 383.897C1106.27 387.787 1114.89 389.738 1114.89 386.25C1114.89 385.413 1116.2 384.729 1117.79 384.729C1121.05 384.729 1123.53 375.216 1121.74 369.586C1120.03 364.19 1109.7 365.231 1107.3 371.043ZM1312.33 377.815C1312.33 382.856 1308.52 387.685 1301.9 391.043C1298.03 393.008 1294.64 395.126 1294.36 395.754C1294.08 396.382 1292.54 396.894 1290.94 396.894C1289.34 396.894 1288.03 397.411 1288.03 398.044C1288.03 398.677 1285.81 400.152 1283.09 401.324C1267.83 407.914 1264.74 419.709 1274.69 433.471C1281.34 442.667 1280.83 442.464 1297.52 442.491C1311.32 442.512 1312.33 442.307 1312.33 439.473C1312.33 437.8 1313.01 436.431 1313.85 436.431C1314.68 436.431 1315.37 435.108 1315.37 433.492C1315.37 431.875 1316.73 430.119 1318.4 429.588C1320.35 428.971 1321.44 427.288 1321.44 424.924C1321.44 422.89 1322.13 421.225 1322.96 421.225C1323.89 421.225 1324.48 414.128 1324.48 402.977C1324.48 391.826 1323.89 384.729 1322.96 384.729C1322.13 384.729 1321.44 382.676 1321.44 380.167C1321.44 376.112 1320.94 375.605 1316.89 375.605C1313.91 375.605 1312.33 376.373 1312.33 377.815ZM1198.42 386.25C1198.42 387.086 1197.38 387.77 1196.1 387.77C1191.16 387.77 1192.11 392.343 1198.27 398.269C1201.69 401.563 1204.5 404.996 1204.5 405.9C1204.5 406.801 1205.18 407.539 1206.02 407.539C1206.85 407.539 1207.53 408.29 1207.53 409.21C1207.53 410.129 1209.58 412.799 1212.09 415.142C1214.6 417.485 1216.65 419.806 1216.65 420.297C1216.65 421.24 1219.48 424.836 1225.76 431.86C1227.85 434.197 1231.91 439.004 1234.79 442.544C1242.06 451.483 1243.88 453.158 1246.32 453.158C1249.44 453.158 1247.35 457.281 1243.75 458.224C1241.79 458.736 1240.87 460.026 1241.21 461.794C1241.69 464.288 1244.15 464.653 1266.02 465.47C1279.38 465.967 1291.84 466.867 1293.71 467.468C1298.34 468.955 1300.8 467.244 1298.02 464.466C1296.82 463.265 1295.38 462.282 1294.83 462.282C1294.27 462.282 1291.78 460.836 1289.3 459.068C1285.46 456.327 1282.81 455.883 1271.4 456.066L1258.01 456.28L1256.97 450.719C1255.73 444.108 1256.7 442.888 1263.73 442.242C1268.7 441.785 1269.04 441.407 1269.04 436.431V431.109L1255.22 430.674C1242.3 430.268 1241.27 429.997 1239.4 426.492C1238.3 424.432 1236.83 422.745 1236.13 422.745C1235.44 422.745 1234.87 420.693 1234.87 418.183C1234.87 415.674 1234.26 413.621 1233.52 413.621C1232.78 413.621 1226.3 407.838 1219.13 400.77C1204.47 386.323 1198.42 382.08 1198.42 386.25ZM1398.28 424.123C1392.27 430.233 1391.27 432.008 1392.54 434.353C1396.11 440.999 1401.52 444.205 1411.54 445.627C1430.27 448.282 1441.58 456.945 1431.38 460.827C1428.25 462.019 1427.61 463.05 1428.32 465.731C1428.82 467.599 1429.24 469.81 1429.25 470.646C1429.28 473 1455.11 471.605 1457.6 469.116C1458.73 467.986 1459.65 466.622 1459.65 466.084C1459.65 463.782 1464.17 460.906 1469.3 459.942L1474.84 458.902V468.034C1474.84 478.354 1475.52 479.01 1486.35 479.01C1492.5 479.01 1493.06 478.689 1493.06 475.208C1493.06 471.998 1492.35 471.406 1488.51 471.406H1483.95V461.414C1483.95 455.111 1483.2 450.671 1481.92 449.392C1479.18 446.642 1455.71 434.911 1452.96 434.911C1451.75 434.911 1449.81 433.968 1448.66 432.815C1444.59 428.738 1437.36 428.355 1431.09 431.883C1422.15 436.916 1416.56 435.65 1415.6 428.373C1415.03 424.027 1413.7 421.871 1410.2 419.663L1405.55 416.731L1398.28 424.123ZM1337.01 423.842C1333.46 425.07 1330.55 427.037 1330.55 428.212C1330.55 429.388 1329.87 430.349 1329.04 430.349C1328.14 430.349 1327.52 435.671 1327.52 443.274C1327.52 455.185 1327.76 456.2 1330.55 456.2C1333.19 456.2 1333.59 455.185 1333.59 448.596C1333.59 442.15 1334.03 440.993 1336.47 440.993C1339.46 440.993 1341.19 443.79 1341.19 448.632C1341.19 452.099 1343.16 453.473 1346.36 452.24C1348.35 451.478 1348.78 448.618 1348.78 436.269C1348.78 419.357 1349.07 419.668 1337.01 423.842ZM1345.74 463.64C1345.74 464.387 1346.82 465.413 1348.14 465.921C1351.54 467.226 1351.82 467.123 1351.82 464.563C1351.82 463.297 1350.47 462.282 1348.78 462.282C1347.11 462.282 1345.74 462.894 1345.74 463.64ZM1330.79 466.642C1326.64 470.243 1326.51 474.448 1330.55 474.448C1332.22 474.448 1333.59 473.847 1333.59 473.111C1333.59 472.376 1335.64 470.924 1338.15 469.886C1343.22 467.784 1343.91 466.113 1340.3 464.726C1336.37 463.216 1334.24 463.646 1330.79 466.642ZM1358.65 468.365C1357.94 470.603 1356.35 471.406 1352.64 471.406C1349.32 471.406 1347.25 472.278 1346.61 473.946C1345.73 476.253 1348.33 479.469 1350.38 478.605C1360.43 474.366 1366.96 470.193 1366.98 467.985C1367.02 464.092 1359.9 464.417 1358.65 468.365ZM1315.37 469.886C1315.37 470.722 1316.73 471.406 1318.4 471.406C1320.07 471.406 1321.44 470.722 1321.44 469.886C1321.44 469.049 1320.07 468.365 1318.4 468.365C1316.73 468.365 1315.37 469.049 1315.37 469.886ZM1392.83 489.285C1390.74 492.416 1388.35 495.747 1387.51 496.69C1386.67 497.635 1384.98 499.858 1383.76 501.632C1380.74 505.988 1373.08 506.121 1373.08 501.819C1373.08 499.146 1372.07 498.778 1364.7 498.778C1356.41 498.778 1356.21 498.888 1346.47 508.633C1341.06 514.055 1336.63 519.187 1336.63 520.038C1336.63 520.891 1335.95 521.588 1335.11 521.588C1334.28 521.588 1333.59 522.295 1333.59 523.159C1333.59 528.478 1322.97 535.274 1314.66 535.274C1310.04 535.274 1306.25 535.958 1306.25 536.794C1306.25 537.631 1304.89 538.315 1303.22 538.315C1301.55 538.315 1300.18 538.884 1300.18 539.579C1300.18 540.274 1298.3 541.814 1296 543C1288.08 547.092 1288.03 547.285 1288.03 572.051C1288.03 598.585 1287.02 603.623 1280.52 609.705C1275.9 614.03 1273.66 624.992 1277.4 624.992C1278.23 624.992 1278.92 624.308 1278.92 623.472C1278.92 622.635 1280.97 621.951 1283.47 621.951C1285.98 621.951 1288.03 621.267 1288.03 620.43C1288.03 619.594 1289.7 618.91 1291.74 618.91C1293.78 618.91 1295.87 618.225 1296.38 617.389C1296.9 616.553 1298.95 615.868 1300.94 615.868C1302.93 615.868 1304.98 615.184 1305.49 614.348C1306.01 613.511 1307.99 612.827 1309.89 612.827C1311.79 612.827 1313.81 612.359 1314.38 611.785C1317.01 609.149 1327.71 606.781 1337.39 606.69C1343.24 606.633 1352.8 606.042 1358.65 605.376C1364.5 604.708 1370.17 604.486 1371.25 604.882C1373.53 605.718 1379.15 616.186 1379.15 619.609C1379.15 620.897 1379.84 621.951 1380.67 621.951C1381.51 621.951 1382.19 622.758 1382.19 623.745C1382.19 624.732 1383.68 628.838 1385.5 632.869L1388.81 640.199H1409.04C1421.52 640.199 1429.27 640.781 1429.27 641.719C1429.27 644.674 1437.05 643.191 1440.7 639.542C1442.73 637.509 1446.95 633.915 1450.08 631.558C1462.13 622.483 1486.23 596.809 1489.81 589.239C1491.78 585.066 1494 580.466 1494.75 579.014C1495.49 577.562 1496.1 575.395 1496.1 574.198C1496.1 573.001 1496.95 571.713 1498 571.334C1499.52 570.784 1499.52 570.002 1498 567.426C1496.95 565.656 1496.1 562.186 1496.1 559.715C1496.1 557.244 1495.42 554.799 1494.58 554.282C1493.75 553.765 1493.06 552.185 1493.05 550.771C1493.05 549.357 1490.48 546.489 1487.36 544.398C1475.28 536.317 1474.84 535.44 1474.84 519.375C1474.84 510.712 1474.22 504.861 1473.32 504.861C1472.48 504.861 1471.8 503.492 1471.8 501.819C1471.8 500.147 1471.12 498.778 1470.28 498.778C1469.45 498.778 1468.76 497.409 1468.76 495.737C1468.76 494.064 1468.08 492.695 1467.24 492.695C1466.41 492.695 1465.72 491.62 1465.72 490.306C1465.72 486.37 1461.72 483.572 1456.08 483.572H1450.78L1449.98 494.596C1449.54 500.661 1448.73 508.871 1448.18 512.844L1447.19 520.067H1436.71C1430.74 520.067 1426.24 519.413 1426.24 518.547C1426.24 517.71 1424.87 517.026 1423.2 517.026C1420.57 517.026 1420.16 516.012 1420.16 509.423V501.819H1426.44C1431.94 501.819 1438.39 497.943 1438.39 494.636C1438.39 493.044 1433.81 489.654 1431.66 489.654C1430.35 489.654 1429.27 489.142 1429.26 488.514C1429.23 485.769 1420.14 483.573 1408.85 483.582L1396.62 483.593L1392.83 489.285ZM933.777 489.181C932.316 489.564 931.119 491.196 931.119 492.806C931.119 494.418 930.436 495.737 929.601 495.737C928.765 495.737 928.082 497.105 928.082 498.778C928.082 500.451 927.398 501.819 926.563 501.819C925.728 501.819 925.044 502.895 925.044 504.208C925.044 509.035 920.986 510.943 910.724 510.943H900.744V517.484C900.744 523.977 903.498 532.197 905.68 532.22C906.307 532.226 906.819 533.601 906.819 535.274C906.819 536.946 906.136 538.315 905.3 538.315C904.465 538.315 903.782 539.24 903.782 540.371C903.782 541.501 901.731 544.574 899.225 547.2C892.345 554.407 892.432 569.977 899.386 576.482C904.638 581.395 906.819 582.02 906.819 578.612C906.819 577.358 907.503 576.331 908.338 576.331C909.173 576.331 909.857 575.305 909.857 574.05C909.857 572.796 910.54 571.769 911.375 571.769C912.211 571.769 912.894 570.743 912.894 569.488C912.894 568.234 913.578 567.207 914.413 567.207C915.248 567.207 915.932 566.181 915.932 564.927C915.932 563.672 916.615 562.646 917.451 562.646C918.286 562.646 918.969 561.619 918.969 560.365C918.969 559.11 919.653 558.084 920.488 558.084C921.323 558.084 922.007 557.057 922.007 555.803C922.007 554.548 922.69 553.522 923.526 553.522C924.361 553.522 925.044 552.495 925.044 551.241C925.044 549.986 925.728 548.96 926.563 548.96C927.398 548.96 928.082 547.933 928.082 546.679C928.082 545.424 928.765 544.398 929.601 544.398C930.436 544.398 931.119 543.371 931.119 542.117C931.119 540.862 931.803 539.836 932.638 539.836C933.473 539.836 934.157 538.809 934.157 537.555C934.157 536.3 934.772 535.274 935.522 535.274C936.274 535.274 937.299 532.194 937.8 528.431C938.303 524.667 939.123 518.509 939.626 514.745C940.127 510.981 941.152 507.902 941.904 507.902C942.654 507.902 943.269 504.538 943.269 500.425C943.269 495.869 944.011 492.648 945.168 492.177C950.399 490.053 940.451 487.436 933.777 489.181ZM1547.74 605.666C1544.28 607.412 1543.9 608.58 1543.49 618.747C1543.06 629.493 1541.17 634.116 1537.21 634.116C1536.32 634.116 1535.59 634.8 1535.59 635.637C1535.59 636.473 1534.56 637.158 1533.31 637.158C1532.06 637.158 1531.03 637.842 1531.03 638.678C1531.03 639.521 1527.01 640.199 1522.01 640.199C1517.04 640.199 1512.56 640.883 1512.05 641.719C1511.53 642.556 1509.78 643.24 1508.16 643.24C1506.54 643.24 1505.21 643.924 1505.21 644.761C1505.21 645.597 1504.19 646.281 1502.93 646.281C1501.68 646.281 1500.66 646.966 1500.66 647.802C1500.66 648.638 1499.78 649.323 1498.71 649.323C1497.64 649.323 1495.79 650.691 1494.58 652.364C1493.38 654.037 1491.33 655.405 1490.02 655.405C1488.72 655.405 1486.67 656.774 1485.47 658.447C1484.26 660.119 1482.54 661.488 1481.63 661.488C1477.95 661.488 1468.76 671.798 1468.76 675.925C1468.76 679.762 1469.13 680.005 1473.7 679.214C1486.49 677 1489.44 676.053 1491.72 673.431C1493.07 671.88 1495.29 670.612 1496.66 670.612C1498.02 670.612 1499.14 669.928 1499.14 669.091C1499.14 668.255 1500.03 667.571 1501.13 667.571C1502.22 667.571 1504.59 666.202 1506.38 664.529C1508.17 662.857 1510.69 661.488 1511.98 661.488C1513.27 661.488 1514.32 660.804 1514.32 659.967C1514.32 659.131 1515.35 658.447 1516.6 658.447C1517.86 658.447 1518.88 657.762 1518.88 656.926C1518.88 656.09 1519.91 655.405 1521.16 655.405C1522.41 655.405 1523.44 654.721 1523.44 653.885C1523.44 653.048 1524.8 652.364 1526.47 652.364C1528.15 652.364 1529.51 651.68 1529.51 650.843C1529.51 650.007 1530.54 649.323 1531.79 649.323C1533.04 649.323 1534.07 648.638 1534.07 647.802C1534.07 646.966 1535.09 646.281 1536.35 646.281C1537.6 646.281 1538.62 645.597 1538.62 644.761C1538.62 643.924 1539.65 643.24 1540.9 643.24C1542.16 643.24 1543.18 642.556 1543.18 641.719C1543.18 640.883 1544.55 640.199 1546.22 640.199C1547.89 640.199 1549.26 639.515 1549.26 638.678C1549.26 637.842 1550.96 637.158 1553.05 637.158C1555.14 637.158 1556.85 636.473 1556.85 635.637C1556.85 634.8 1557.88 634.116 1559.13 634.116C1560.38 634.116 1561.41 633.432 1561.41 632.596C1561.41 631.759 1562.7 631.075 1564.28 631.075C1566.57 631.075 1569 628.392 1569 625.861C1569 623.873 1562.39 618.51 1561.83 620.05C1560.32 624.267 1558.37 621.549 1558.37 615.233C1558.37 603.609 1556.01 601.488 1547.74 605.666ZM1408.01 654.189C1405.92 656.85 1402.68 660.576 1400.8 662.469C1396.29 667.014 1396.46 667.571 1402.39 667.571C1405.15 667.571 1408.22 668.392 1409.23 669.395C1410.64 670.814 1411.45 670.814 1412.87 669.395C1413.87 668.392 1415.92 667.571 1417.43 667.571C1418.93 667.571 1420.16 666.886 1420.16 666.05C1420.16 665.214 1421.44 664.529 1423.01 664.529C1424.98 664.529 1426.15 663.072 1426.81 659.777C1428.19 652.841 1428.06 652.364 1424.72 652.364C1423.05 652.364 1421.68 651.68 1421.68 650.843C1421.68 646.989 1411.76 649.417 1408.01 654.189Z" fill="#F2F3F6"/>
</svg>
