<svg width="25" height="17" viewBox="0 0 25 17" fill="none" xmlns="http://www.w3.org/2000/svg">
<path d="M12.5 16.6875C7.01637 16.6875 2.32719 13.2984 0.394115 8.5C2.32719 3.70163 7.01637 0.3125 12.5 0.3125C17.9836 0.3125 22.6728 3.70163 24.6059 8.5C22.6728 13.2984 17.9836 16.6875 12.5 16.6875ZM6.625 8.5C6.625 11.7431 9.25693 14.375 12.5 14.375C15.7431 14.375 18.375 11.7431 18.375 8.5C18.375 5.25693 15.7431 2.625 12.5 2.625C9.25693 2.625 6.625 5.25693 6.625 8.5ZM9.375 8.5C9.375 6.77057 10.7706 5.375 12.5 5.375C14.2294 5.375 15.625 6.77057 15.625 8.5C15.625 10.2294 14.2294 11.625 12.5 11.625C10.7706 11.625 9.375 10.2294 9.375 8.5Z" stroke="black" stroke-width="0.5"/>
</svg>
