<svg width="58" height="58" viewBox="0 0 58 58" fill="none" xmlns="http://www.w3.org/2000/svg">
<circle cx="29" cy="29.001" r="29" fill="url(#paint0_linear)"/>
<circle cx="29" cy="29.001" r="29" fill="#E9EDFD"/>
<path d="M23.8169 17.2542L23.8366 18.254L23.8548 18.2536L23.873 18.2526L23.8169 17.2542ZM33.1098 17.2542L33.0536 18.2526L33.0718 18.2536L33.09 18.254L33.1098 17.2542ZM35.854 17.7805L35.5025 18.7167L35.5039 18.7172L35.854 17.7805ZM37.8464 19.0812L37.1298 19.7786L37.1393 19.7884L37.149 19.7979L37.8464 19.0812ZM39.1471 21.0736L38.2104 21.4237L38.211 21.4251L39.1471 21.0736ZM39.6734 23.8179L38.6736 23.8376L38.674 23.8558L38.675 23.874L39.6734 23.8179ZM39.6734 33.1107L38.675 33.0546L38.674 33.0728L38.6736 33.091L39.6734 33.1107ZM39.1471 35.855L40.079 36.218L40.0833 36.2066L39.1471 35.855ZM35.854 39.1481L36.2056 40.0844L36.217 40.0799L35.854 39.1481ZM33.1098 39.6744L33.09 38.6746L33.0718 38.675L33.0536 38.676L33.1098 39.6744ZM23.8169 39.6744L23.8606 38.6754L23.8486 38.6748L23.8366 38.6746L23.8169 39.6744ZM21.0726 39.1481L21.4242 38.2119L21.4228 38.2114L21.0726 39.1481ZM19.0802 37.8474L19.7969 37.15L19.7874 37.1402L19.7776 37.1307L19.0802 37.8474ZM17.7795 35.855L18.7162 35.5049L18.7157 35.5035L17.7795 35.855ZM17.2532 33.1107L18.253 33.091L18.2527 33.0728L18.2516 33.0546L17.2532 33.1107ZM17.2532 23.8179L18.2516 23.874L18.2527 23.8558L18.253 23.8376L17.2532 23.8179ZM17.7795 21.0736L18.7157 21.4251L18.7162 21.4237L17.7795 21.0736ZM19.0802 19.0812L19.7776 19.7979L19.7874 19.7884L19.7969 19.7786L19.0802 19.0812ZM21.0726 17.7805L21.4228 18.7172L21.4242 18.7167L21.0726 17.7805ZM25.7061 24.339L25.1505 23.5075L25.1505 23.5075L25.7061 24.339ZM30.3619 33.0494L30.7446 33.9733H30.7446L30.3619 33.0494ZM27.4949 33.3318L27.69 32.351H27.69L27.4949 33.3318ZM23.5961 29.433L22.6153 29.6281L23.5961 29.433ZM23.8785 26.566L24.8024 26.9486L23.8785 26.566ZM28.4633 16.1865C25.4092 16.1865 24.9968 16.1862 23.7607 16.2558L23.873 18.2526C25.0429 18.1868 25.3974 18.1865 28.4633 18.1865V16.1865ZM33.1659 16.2558C31.9298 16.1862 31.5175 16.1865 28.4633 16.1865V18.1865C31.5293 18.1865 31.8838 18.1868 33.0536 18.2526L33.1659 16.2558ZM36.2056 16.8443C35.2211 16.4746 34.1809 16.2751 33.1295 16.2544L33.09 18.254C33.9146 18.2703 34.7304 18.4267 35.5025 18.7167L36.2056 16.8443ZM38.5631 18.3838C37.9002 17.7025 37.0946 17.1766 36.2042 16.8438L35.5039 18.7172C36.1176 18.9466 36.6728 19.3091 37.1298 19.7786L38.5631 18.3838ZM40.0838 20.7235C39.751 19.8331 39.2251 19.0275 38.5439 18.3645L37.149 19.7979C37.6186 20.2548 37.981 20.81 38.2104 21.4237L40.0838 20.7235ZM40.6732 23.7981C40.6525 22.7467 40.453 21.7065 40.0833 20.722L38.211 21.4251C38.5009 22.1972 38.6574 23.013 38.6736 23.8376L40.6732 23.7981ZM40.7411 28.4643C40.7411 25.4102 40.7414 24.9978 40.6719 23.7617L38.675 23.874C38.7408 25.0439 38.7411 25.3984 38.7411 28.4643H40.7411ZM40.6719 33.1669C40.7414 31.9308 40.7411 31.5184 40.7411 28.4643H38.7411C38.7411 31.5302 38.7408 31.8847 38.675 33.0546L40.6719 33.1669ZM40.0833 36.2066C40.453 35.2221 40.6525 34.1819 40.6732 33.1305L38.6736 33.091C38.6574 33.9156 38.5009 34.7314 38.211 35.5035L40.0833 36.2066ZM38.5534 38.5544C39.2182 37.8896 39.7377 37.094 40.0789 36.218L38.2153 35.492C37.9746 36.11 37.6082 36.6712 37.1392 37.1402L38.5534 38.5544ZM36.217 40.0799C37.093 39.7387 37.8886 39.2192 38.5534 38.5544L37.1392 37.1402C36.6703 37.6091 36.109 37.9756 35.4911 38.2163L36.217 40.0799ZM33.1295 40.6742C34.1809 40.6535 35.2211 40.454 36.2056 40.0843L35.5025 38.2119C34.7304 38.5019 33.9146 38.6583 33.09 38.6746L33.1295 40.6742ZM28.4633 40.7421C31.5175 40.7421 31.9298 40.7424 33.1659 40.6728L33.0536 38.676C31.8838 38.7418 31.5293 38.7421 28.4633 38.7421V40.7421ZM23.7732 40.6735C24.997 40.727 25.3968 40.7421 28.4633 40.7421V38.7421C25.4097 38.7421 25.0427 38.7271 23.8606 38.6754L23.7732 40.6735ZM20.7211 40.0843C21.7055 40.454 22.7457 40.6535 23.7971 40.6742L23.8366 38.6746C23.012 38.6583 22.1963 38.5019 21.4242 38.2119L20.7211 40.0843ZM18.3635 38.5448C19.0265 39.2261 19.8321 39.752 20.7225 40.0848L21.4228 38.2114C20.8091 37.982 20.2538 37.6195 19.7969 37.15L18.3635 38.5448ZM16.8428 36.2051C17.1756 37.0955 17.7016 37.9011 18.3828 38.5641L19.7776 37.1307C19.3081 36.6738 18.9456 36.1186 18.7162 35.5049L16.8428 36.2051ZM16.2534 33.1305C16.2742 34.1819 16.4736 35.2221 16.8433 36.2066L18.7157 35.5035C18.4257 34.7314 18.2693 33.9156 18.253 33.091L16.2534 33.1305ZM16.1855 28.4643C16.1855 31.5184 16.1853 31.9308 16.2548 33.1669L18.2516 33.0546C18.1858 31.8847 18.1855 31.5302 18.1855 28.4643H16.1855ZM16.2548 23.7617C16.1853 24.9978 16.1855 25.4102 16.1855 28.4643H18.1855C18.1855 25.3984 18.1858 25.0439 18.2516 23.874L16.2548 23.7617ZM16.8433 20.722C16.4736 21.7065 16.2742 22.7467 16.2534 23.7981L18.253 23.8376C18.2693 23.013 18.4257 22.1972 18.7157 21.4251L16.8433 20.722ZM18.3828 18.3645C17.7016 19.0275 17.1756 19.8331 16.8428 20.7235L18.7162 21.4237C18.9456 20.81 19.3081 20.2548 19.7776 19.7979L18.3828 18.3645ZM20.7225 16.8438C19.8321 17.1766 19.0265 17.7025 18.3635 18.3838L19.7969 19.7786C20.2538 19.3091 20.8091 18.9466 21.4228 18.7172L20.7225 16.8438ZM23.7971 16.2544C22.7457 16.2751 21.7055 16.4746 20.7211 16.8443L21.4242 18.7167C22.1963 18.4267 23.012 18.2703 23.8366 18.254L23.7971 16.2544ZM28.463 22.5027C27.2838 22.5027 26.131 22.8524 25.1505 23.5075L26.2617 25.1705C26.9133 24.7351 27.6793 24.5027 28.463 24.5027V22.5027ZM32.6789 24.249C31.5608 23.1309 30.0442 22.5027 28.463 22.5027V24.5027C29.5138 24.5027 30.5216 24.9202 31.2647 25.6632L32.6789 24.249ZM34.4252 28.4649C34.4252 26.8836 33.797 25.3671 32.6789 24.249L31.2647 25.6632C32.0077 26.4063 32.4252 27.4141 32.4252 28.4649H34.4252ZM33.4204 31.7774C34.0755 30.7969 34.4252 29.6441 34.4252 28.4649H32.4252C32.4252 29.2486 32.1928 30.0146 31.7574 30.6662L33.4204 31.7774ZM30.7446 33.9733C31.8341 33.522 32.7652 32.7578 33.4204 31.7774L31.7574 30.6662C31.3221 31.3178 30.7032 31.8257 29.9792 32.1255L30.7446 33.9733ZM27.2998 34.3126C28.4564 34.5426 29.6552 34.4246 30.7446 33.9733L29.9792 32.1255C29.2552 32.4254 28.4586 32.5039 27.69 32.351L27.2998 34.3126ZM24.247 32.6809C25.0809 33.5147 26.1432 34.0825 27.2998 34.3126L27.69 32.351C26.9214 32.1981 26.2154 31.8208 25.6613 31.2666L24.247 32.6809ZM22.6153 29.6281C22.8454 30.7847 23.4132 31.847 24.247 32.6809L25.6613 31.2666C25.1071 30.7125 24.7298 30.0065 24.5769 29.2379L22.6153 29.6281ZM22.9546 26.1833C22.5033 27.2727 22.3853 28.4715 22.6153 29.6281L24.5769 29.2379C24.424 28.4693 24.5025 27.6727 24.8024 26.9486L22.9546 26.1833ZM25.1505 23.5075C24.1701 24.1627 23.4059 25.0938 22.9546 26.1833L24.8024 26.9486C25.1022 26.2246 25.6101 25.6058 26.2617 25.1705L25.1505 23.5075Z" fill="#97A2BB"/>
<path d="M36.358 22.3814C36.3565 22.6484 36.2761 22.909 36.1268 23.1304C35.9775 23.3518 35.7661 23.5241 35.5191 23.6256C35.2721 23.7271 35.0006 23.7533 34.7388 23.7008C34.477 23.6483 34.2366 23.5196 34.0478 23.3308C33.8589 23.142 33.7302 22.9015 33.6777 22.6397C33.6253 22.3779 33.6514 22.1064 33.7529 21.8594C33.8544 21.6124 34.0267 21.401 34.2481 21.2517C34.4695 21.1025 34.7301 21.022 34.9972 21.0205C35.1762 21.0195 35.3536 21.0541 35.5191 21.1221C35.6847 21.1901 35.8351 21.2903 35.9617 21.4169C36.0882 21.5435 36.1884 21.6939 36.2565 21.8594C36.3245 22.025 36.359 22.2024 36.358 22.3814Z" fill="#97A2BB"/>
<defs>
<linearGradient id="paint0_linear" x1="29" y1="0.000976562" x2="29" y2="58.001" gradientUnits="userSpaceOnUse">
<stop stop-color="#FCFEFF"/>
<stop offset="1" stop-color="#FAFCFF"/>
</linearGradient>
</defs>
</svg>
