<svg width="59" height="58" viewBox="0 0 59 58" fill="none" xmlns="http://www.w3.org/2000/svg">
<circle cx="29.3164" cy="29" r="29" fill="url(#paint0_linear)"/>
<circle cx="29.3164" cy="29" r="29" fill="#E9EDFD"/>
<path d="M19.8897 34.5396L20.0323 34.1054L19.7973 33.7135C18.8061 32.06 18.2366 30.1283 18.2366 28.0618C18.2366 21.9581 23.2157 17 29.3701 17C35.5246 17 40.5037 21.9581 40.5037 28.0618C40.5037 34.1655 35.5246 39.1236 29.3701 39.1236C27.3822 39.1236 25.519 38.6068 23.9059 37.7021L23.5265 37.4893L23.1122 37.6218L18.3813 39.1344L19.8897 34.5396Z" stroke="#97A2BB" stroke-width="2"/>
<path fill-rule="evenodd" clip-rule="evenodd" d="M27.5664 25.924C27.5303 25.6616 27.3184 25.2452 27.2064 24.9932C27.0944 24.7413 26.5345 23.4815 26.3586 23.3275C26.143 23.0503 25.3783 23.3209 25.1152 23.4697C24.5527 23.7879 24.38 24.2082 24.2852 24.7563C24.0885 25.8934 24.8238 27.9433 25.2979 28.5528C25.8525 29.2656 26.3445 29.932 26.9649 30.5515C27.4046 30.9366 27.7683 31.3322 28.196 31.6299C29.3596 32.3856 30.6445 33.4172 32.1163 33.1406C33.0668 32.962 34.0085 32.6387 34.2494 31.778C34.3651 31.4948 34.4328 30.8617 34.3847 30.5118C34.3189 30.0335 33.4853 29.7405 33.1393 29.5861C32.547 29.322 31.7997 29.1009 31.6113 29.4672C31.3783 29.9204 31.435 30.6335 30.9326 30.719C30.5447 30.785 30.0917 30.5011 29.7218 30.3508C28.8785 29.8429 28.0112 29.1601 27.3596 28.3585L26.8838 27.711C26.7837 26.9826 27.5139 26.6036 27.5664 25.924Z" fill="#97A2BB"/>
<defs>
<linearGradient id="paint0_linear" x1="29.3164" y1="0" x2="29.3164" y2="58" gradientUnits="userSpaceOnUse">
<stop stop-color="#FCFEFF"/>
<stop offset="1" stop-color="#FAFCFF"/>
</linearGradient>
</defs>
</svg>
