<svg width="59" height="58" viewBox="0 0 59 58" fill="none" xmlns="http://www.w3.org/2000/svg">
<circle cx="29.1582" cy="29" r="29" fill="url(#paint0_linear)"/>
<circle cx="29.1582" cy="29" r="29" fill="#E9EDFD"/>
<path d="M39.8413 23.4051L39.8412 23.4046C39.745 23.0451 39.5554 22.7163 39.2904 22.4513L39.9859 21.7558L39.2904 22.4513C39.0258 22.1868 38.6954 21.9952 38.3318 21.8964C37.945 21.7933 37.1782 21.6995 36.1624 21.6254C35.173 21.5533 34.0263 21.5047 32.9315 21.4722C31.8383 21.4397 30.8048 21.4235 30.044 21.4153C29.6639 21.4113 29.3523 21.4093 29.1361 21.4082C29.0279 21.4077 28.9437 21.4075 28.8866 21.4074L28.8218 21.4072L28.8056 21.4072L28.8016 21.4072L28.8006 21.4072H28.8004L28.8004 20.4072L28.8004 21.4072H28.8002L28.7992 21.4072L28.7952 21.4072L28.7789 21.4072L28.7142 21.4074C28.6571 21.4075 28.5729 21.4077 28.4647 21.4082C28.2485 21.4093 27.9369 21.4113 27.5568 21.4153C26.796 21.4235 25.7625 21.4397 24.6693 21.4722C23.5745 21.5047 22.4278 21.5533 21.4384 21.6254C20.4226 21.6995 19.6559 21.7933 19.269 21.8964C18.9054 21.9951 18.575 22.1867 18.3104 22.4513C18.0454 22.7163 17.8557 23.0451 17.7596 23.4046L17.7595 23.4051C17.5279 24.2691 17.3994 25.6804 17.3337 26.9475C17.3016 27.5661 17.2856 28.1259 17.2775 28.531C17.2735 28.7334 17.2715 28.8966 17.2705 29.0087C17.27 29.0647 17.2698 29.1079 17.2697 29.1368L17.2695 29.1691L17.2695 29.1769L17.2695 29.1786L17.2695 29.1788V29.1789L17.2695 29.1791L17.2695 29.1808L17.2695 29.1885L17.2697 29.2209C17.2698 29.2498 17.27 29.293 17.2705 29.349C17.2715 29.461 17.2735 29.6243 17.2775 29.8266C17.2856 30.2318 17.3016 30.7916 17.3337 31.4102C17.3994 32.6773 17.5279 34.0886 17.7595 34.9526L17.7596 34.953C17.8557 35.3125 18.0454 35.6414 18.3104 35.9063C18.575 36.1709 18.9054 36.3625 19.269 36.4613C19.6559 36.5643 20.4226 36.6582 21.4384 36.7322C22.4278 36.8044 23.5745 36.8529 24.6693 36.8854C25.7625 36.9179 26.796 36.9342 27.5568 36.9423C27.9369 36.9464 28.2485 36.9484 28.4647 36.9494C28.5729 36.9499 28.6571 36.9502 28.7142 36.9503L28.7789 36.9504L28.7952 36.9504L28.7992 36.9504H28.8002H28.8004L28.8004 37.9504L28.8004 36.9504H28.8006H28.8016L28.8056 36.9504L28.8218 36.9504L28.8866 36.9503C28.9437 36.9502 29.0279 36.9499 29.1361 36.9494C29.3523 36.9484 29.6639 36.9464 30.044 36.9423C30.8048 36.9342 31.8383 36.9179 32.9315 36.8854C34.0263 36.8529 35.173 36.8044 36.1624 36.7322C37.1782 36.6582 37.9449 36.5643 38.3318 36.4613C38.6954 36.3625 39.0258 36.1709 39.2904 35.9063C39.5554 35.6414 39.745 35.3125 39.8412 34.953L39.8413 34.9526C40.0729 34.0886 40.2014 32.6773 40.2671 31.4102C40.2992 30.7916 40.3152 30.2318 40.3233 29.8266C40.3273 29.6243 40.3293 29.461 40.3303 29.349C40.3308 29.293 40.331 29.2498 40.3311 29.2209L40.3312 29.1885L40.3313 29.1808L40.3313 29.1791L39.8413 23.4051ZM39.8413 23.4051C40.0729 24.2691 40.2014 25.6804 40.2671 26.9475C40.2992 27.5661 40.3152 28.1259 40.3233 28.531C40.3273 28.7334 40.3293 28.8966 40.3303 29.0087C40.3308 29.0647 40.331 29.1079 40.3311 29.1368L40.3312 29.1691L40.3313 29.1769L40.3313 29.1786V29.1788L39.8413 23.4051Z" stroke="#97A2BB" stroke-width="2"/>
<path d="M26.2939 32.9375V25.4189L32.5594 29.1782L26.2939 32.9375Z" fill="#97A2BB"/>
<defs>
<linearGradient id="paint0_linear" x1="29.1582" y1="0" x2="29.1582" y2="58" gradientUnits="userSpaceOnUse">
<stop stop-color="#FCFEFF"/>
<stop offset="1" stop-color="#FAFCFF"/>
</linearGradient>
</defs>
</svg>
