<svg width="207" height="86" viewBox="0 0 207 86" fill="none" xmlns="http://www.w3.org/2000/svg">
<g filter="url(#filter0_d_256_4983)">
<rect x="21" y="39" width="31.1127" height="31.1127" rx="3" transform="rotate(-45 21 39)" fill="#EEEEEE"/>
</g>
<circle cx="43.0487" cy="38.998" r="12.5995" fill="#1A1B20"/>
<rect x="35.1758" y="31.125" width="15.8614" height="15.8614" rx="3" fill="#EEEEEE"/>
<circle cx="43.0256" cy="38.9788" r="5.49048" fill="#1A1B20"/>
<rect width="3.55887" height="3.55887" rx="1" transform="matrix(0.707081 -0.707133 0.707081 0.707133 40.6875 39)" fill="#EEEEEE"/>
<path d="M77.35 43V30.22H82.39C83.566 30.22 84.52 30.592 85.252 31.336C85.984 32.08 86.35 32.992 86.35 34.072C86.35 35.68 85.516 36.778 83.848 37.366L88.366 43H84.928L80.662 37.726H80.212V43H77.35ZM80.212 35.296H82.048C82.48 35.296 82.828 35.182 83.092 34.954C83.368 34.726 83.506 34.432 83.506 34.072C83.506 33.688 83.368 33.388 83.092 33.172C82.828 32.956 82.48 32.848 82.048 32.848H80.212V35.296ZM92.7894 43.198C91.3974 43.198 90.2514 42.754 89.3514 41.866C88.4634 40.978 88.0194 39.85 88.0194 38.482C88.0194 37.138 88.4694 36.022 89.3694 35.134C90.2814 34.246 91.4214 33.802 92.7894 33.802C93.4494 33.802 94.0674 33.916 94.6434 34.144C95.2314 34.372 95.7474 34.702 96.1914 35.134C96.6474 35.566 97.0014 36.124 97.2534 36.808C97.5054 37.492 97.6194 38.266 97.5954 39.13H90.6654C90.7134 39.622 90.9294 40.036 91.3134 40.372C91.6974 40.696 92.2374 40.858 92.9334 40.858C93.3294 40.858 93.6894 40.78 94.0134 40.624C94.3374 40.456 94.5534 40.252 94.6614 40.012H97.5054C97.2174 40.96 96.6414 41.728 95.7774 42.316C94.9134 42.904 93.9174 43.198 92.7894 43.198ZM92.7174 35.962C92.2014 35.962 91.7694 36.094 91.4214 36.358C91.0854 36.622 90.8574 36.97 90.7374 37.402H94.5894C94.4574 36.91 94.2114 36.55 93.8514 36.322C93.5034 36.082 93.1254 35.962 92.7174 35.962ZM108.084 46.762H105.366V42.1C104.766 42.832 103.95 43.198 102.918 43.198C101.754 43.198 100.764 42.736 99.948 41.812C99.144 40.888 98.742 39.784 98.742 38.5C98.742 37.216 99.144 36.112 99.948 35.188C100.764 34.264 101.754 33.802 102.918 33.802C103.95 33.802 104.766 34.168 105.366 34.9V34H108.084V46.762ZM102.036 40.102C102.42 40.522 102.918 40.732 103.53 40.732C104.142 40.732 104.634 40.522 105.006 40.102C105.39 39.682 105.582 39.148 105.582 38.5C105.582 37.852 105.39 37.318 105.006 36.898C104.634 36.478 104.142 36.268 103.53 36.268C102.918 36.268 102.42 36.478 102.036 36.898C101.664 37.318 101.478 37.852 101.478 38.5C101.478 39.148 101.664 39.682 102.036 40.102ZM113.615 43.198C112.523 43.198 111.683 42.832 111.095 42.1C110.507 41.368 110.213 40.378 110.213 39.13V34H112.931V38.662C112.931 40.042 113.393 40.732 114.317 40.732C115.445 40.732 116.009 39.946 116.009 38.374V34H118.727V43H116.009V42.082C115.493 42.826 114.695 43.198 113.615 43.198ZM125.186 43.198C123.794 43.198 122.648 42.754 121.748 41.866C120.86 40.978 120.416 39.85 120.416 38.482C120.416 37.138 120.866 36.022 121.766 35.134C122.678 34.246 123.818 33.802 125.186 33.802C125.846 33.802 126.464 33.916 127.04 34.144C127.628 34.372 128.144 34.702 128.588 35.134C129.044 35.566 129.398 36.124 129.65 36.808C129.902 37.492 130.016 38.266 129.992 39.13H123.062C123.11 39.622 123.326 40.036 123.71 40.372C124.094 40.696 124.634 40.858 125.33 40.858C125.726 40.858 126.086 40.78 126.41 40.624C126.734 40.456 126.95 40.252 127.058 40.012H129.902C129.614 40.96 129.038 41.728 128.174 42.316C127.31 42.904 126.314 43.198 125.186 43.198ZM125.114 35.962C124.598 35.962 124.166 36.094 123.818 36.358C123.482 36.622 123.254 36.97 123.134 37.402H126.986C126.854 36.91 126.608 36.55 126.248 36.322C125.9 36.082 125.522 35.962 125.114 35.962ZM135.314 43.198C134.115 43.198 133.125 42.904 132.345 42.316C131.577 41.716 131.169 40.966 131.121 40.066H133.983C134.007 40.414 134.151 40.684 134.415 40.876C134.679 41.056 135.009 41.146 135.405 41.146C136.077 41.146 136.413 40.954 136.413 40.57C136.413 40.378 136.335 40.234 136.179 40.138C136.035 40.03 135.771 39.922 135.387 39.814L133.569 39.346C132.057 38.95 131.301 38.008 131.301 36.52C131.301 35.716 131.637 35.062 132.309 34.558C132.981 34.054 133.899 33.802 135.062 33.802C136.095 33.802 136.953 34.06 137.637 34.576C138.333 35.08 138.717 35.794 138.789 36.718H136.053C135.945 36.166 135.597 35.89 135.009 35.89C134.397 35.89 134.091 36.082 134.091 36.466C134.091 36.802 134.397 37.036 135.009 37.168L136.647 37.6C137.547 37.84 138.195 38.188 138.591 38.644C138.987 39.1 139.185 39.694 139.185 40.426C139.185 41.254 138.825 41.926 138.105 42.442C137.385 42.946 136.455 43.198 135.314 43.198ZM145.216 43.108C144.16 43.108 143.29 42.82 142.606 42.244C141.934 41.656 141.598 40.81 141.598 39.706V36.358H139.798V34H141.598V31.498H144.316V34H146.836V36.358H144.316V39.148C144.316 39.688 144.436 40.078 144.676 40.318C144.916 40.558 145.306 40.678 145.846 40.678C146.254 40.678 146.584 40.624 146.836 40.516V42.928C146.44 43.048 145.9 43.108 145.216 43.108ZM153.221 43V30.93H156.519C158.412 30.93 159.964 31.5023 161.177 32.647C162.401 33.7803 163.013 35.2197 163.013 36.965C163.013 38.7103 162.401 40.1553 161.177 41.3C159.964 42.4333 158.412 43 156.519 43H153.221ZM154.513 41.776H156.519C158.072 41.776 159.324 41.3283 160.276 40.433C161.228 39.5263 161.704 38.3703 161.704 36.965C161.704 35.5597 161.228 34.4093 160.276 33.514C159.324 32.6073 158.072 32.154 156.519 32.154H154.513V41.776ZM168.804 43.17C167.58 43.17 166.572 42.7507 165.778 41.912C164.985 41.0733 164.588 40.0193 164.588 38.75C164.588 37.4807 164.974 36.4267 165.744 35.588C166.515 34.7493 167.552 34.33 168.855 34.33C170.159 34.33 171.173 34.806 171.898 35.758C172.624 36.6987 172.93 37.8093 172.816 39.09H165.812C165.812 39.94 166.113 40.6483 166.713 41.215C167.314 41.7817 168.011 42.065 168.804 42.065C170.028 42.065 170.912 41.5323 171.456 40.467H172.68C172.465 41.249 172.023 41.895 171.354 42.405C170.686 42.915 169.836 43.17 168.804 43.17ZM168.804 35.435C168.09 35.435 167.461 35.6503 166.917 36.081C166.373 36.5003 166.028 37.1577 165.88 38.053H171.592C171.456 37.2143 171.139 36.5683 170.64 36.115C170.142 35.6617 169.53 35.435 168.804 35.435ZM177.631 43.17C176.724 43.17 175.959 42.949 175.336 42.507C174.712 42.065 174.367 41.4303 174.299 40.603H175.489C175.727 41.6003 176.441 42.099 177.631 42.099C178.152 42.099 178.583 41.9913 178.923 41.776C179.263 41.5493 179.433 41.232 179.433 40.824C179.433 40.45 179.308 40.144 179.059 39.906C178.821 39.6567 178.435 39.4583 177.903 39.311L176.798 39.022C175.336 38.6253 174.605 37.8037 174.605 36.557C174.605 35.877 174.865 35.3387 175.387 34.942C175.908 34.534 176.577 34.33 177.393 34.33C178.254 34.33 178.945 34.5567 179.467 35.01C179.999 35.4633 180.3 36.0243 180.368 36.693H179.195C179.07 36.285 178.849 35.9677 178.532 35.741C178.214 35.503 177.835 35.384 177.393 35.384C176.939 35.384 176.56 35.4917 176.254 35.707C175.948 35.9223 175.795 36.2057 175.795 36.557C175.795 36.897 175.902 37.1747 176.118 37.39C176.333 37.6053 176.69 37.781 177.189 37.917L178.498 38.257C179.178 38.427 179.699 38.7273 180.062 39.158C180.436 39.5773 180.623 40.1043 180.623 40.739C180.623 41.555 180.345 42.167 179.79 42.575C179.246 42.9717 178.526 43.17 177.631 43.17ZM183.445 31.95C183.184 31.95 182.963 31.865 182.782 31.695C182.612 31.5137 182.527 31.2983 182.527 31.049C182.527 30.7997 182.612 30.59 182.782 30.42C182.963 30.2387 183.184 30.148 183.445 30.148C183.694 30.148 183.904 30.2387 184.074 30.42C184.244 30.59 184.329 30.7997 184.329 31.049C184.329 31.2983 184.244 31.5137 184.074 31.695C183.904 31.865 183.694 31.95 183.445 31.95ZM182.833 43V34.5H184.023V43H182.833ZM190.622 46.723C189.512 46.723 188.582 46.4567 187.834 45.924C187.086 45.4027 186.644 44.717 186.508 43.867H187.681C188.078 45.0457 189.064 45.635 190.639 45.635C191.512 45.635 192.215 45.3517 192.747 44.785C193.291 44.2183 193.563 43.425 193.563 42.405V41.402C193.246 41.878 192.81 42.2633 192.254 42.558C191.699 42.8527 191.098 43 190.452 43C189.251 43 188.248 42.5863 187.443 41.759C186.65 40.9203 186.253 39.889 186.253 38.665C186.253 37.441 186.65 36.4153 187.443 35.588C188.248 34.7493 189.251 34.33 190.452 34.33C191.098 34.33 191.699 34.4773 192.254 34.772C192.81 35.0667 193.246 35.452 193.563 35.928V34.5H194.753V42.473C194.753 43.8217 194.368 44.8643 193.597 45.601C192.838 46.349 191.846 46.723 190.622 46.723ZM188.327 40.977C188.905 41.589 189.653 41.895 190.571 41.895C191.489 41.895 192.232 41.589 192.798 40.977C193.376 40.365 193.665 39.5943 193.665 38.665C193.665 37.7357 193.376 36.965 192.798 36.353C192.232 35.741 191.489 35.435 190.571 35.435C189.653 35.435 188.905 35.741 188.327 36.353C187.761 36.965 187.477 37.7357 187.477 38.665C187.477 39.5943 187.761 40.365 188.327 40.977ZM197.675 43V34.5H198.865V35.928C199.443 34.8627 200.372 34.33 201.653 34.33C202.594 34.33 203.359 34.6303 203.948 35.231C204.549 35.8317 204.849 36.6477 204.849 37.679V43H203.659V37.849C203.659 37.1123 203.461 36.5287 203.064 36.098C202.679 35.656 202.163 35.435 201.517 35.435C200.746 35.435 200.112 35.7353 199.613 36.336C199.114 36.9253 198.865 37.7357 198.865 38.767V43H197.675Z" fill="white"/>
<defs>
<filter id="filter0_d_256_4983" x="0.242188" y="0.242676" width="85.5156" height="85.5146" filterUnits="userSpaceOnUse" color-interpolation-filters="sRGB">
<feFlood flood-opacity="0" result="BackgroundImageFix"/>
<feColorMatrix in="SourceAlpha" type="matrix" values="0 0 0 0 0 0 0 0 0 0 0 0 0 0 0 0 0 0 127 0" result="hardAlpha"/>
<feMorphology radius="2" operator="dilate" in="SourceAlpha" result="effect1_dropShadow_256_4983"/>
<feOffset dy="4"/>
<feGaussianBlur stdDeviation="10"/>
<feColorMatrix type="matrix" values="0 0 0 0 0.279167 0 0 0 0 0.279167 0 0 0 0 0.279167 0 0 0 0.25 0"/>
<feBlend mode="normal" in2="BackgroundImageFix" result="effect1_dropShadow_256_4983"/>
<feBlend mode="normal" in="SourceGraphic" in2="effect1_dropShadow_256_4983" result="shape"/>
</filter>
</defs>
</svg>
