<svg width="54" height="55" viewBox="0 0 54 55" fill="none" xmlns="http://www.w3.org/2000/svg">
<path d="M43.303 3.9816L43.303 3.9815C43.0522 3.50518 42.8085 3.06425 42.6154 2.73493C42.5208 2.57351 42.4279 2.42108 42.3471 2.29989C42.3098 2.24407 42.2545 2.16369 42.1902 2.08499C42.1617 2.05013 42.098 1.97392 42.0082 1.89326C41.9644 1.85383 41.8785 1.78055 41.7575 1.70936C41.6632 1.65393 41.3845 1.5 40.9905 1.5C40.6578 1.5 40.3816 1.60373 40.2772 1.64388C40.1289 1.70086 39.9824 1.7714 39.8506 1.84007C39.5842 1.97885 39.2755 2.16396 38.9514 2.37073C38.2976 2.78786 37.4896 3.352 36.6578 3.96427C35.0118 5.17586 33.1531 6.66399 32.1372 7.67461C27.8465 11.9428 26.3013 17.8855 27.5529 24.0273C23.4812 21.0466 18.5913 19.4635 14.4879 20.1474C12.5965 20.4626 9.49737 21.6984 6.96812 22.9168C5.68021 23.5373 4.46765 24.188 3.5589 24.7675C3.11063 25.0534 2.6908 25.3506 2.36571 25.6424C2.20525 25.7864 2.02528 25.9667 1.87434 26.1782C1.7473 26.3562 1.5 26.7477 1.5 27.2798C1.5 27.667 1.64755 27.9815 1.68797 28.0677L1.69131 28.0748C1.75847 28.2186 1.83996 28.3606 1.91727 28.4865C2.07457 28.7426 2.28468 29.045 2.52081 29.367C2.9975 30.0169 3.64535 30.8348 4.3548 31.6912C5.76678 33.3958 7.49559 35.3413 8.70772 36.5068L9.7474 35.4256L8.70773 36.5068C11.0493 38.7583 12.9859 40.2445 15.3885 40.8614C17.5889 41.4264 19.9995 41.2134 23.1695 40.6011C22.3019 42.4244 22.0025 44.2564 22.4565 46.027C23.0677 48.4109 24.9386 50.2663 27.5879 51.6571L27.588 51.6572C28.2351 51.9968 29.1849 52.4321 29.9962 52.7788C30.4044 52.9532 30.7946 53.1125 31.1088 53.2307C31.264 53.2892 31.4164 53.3435 31.5505 53.3855C31.6168 53.4062 31.695 53.429 31.7762 53.4482L31.7769 53.4483C31.8296 53.4607 31.9952 53.4997 32.1935 53.5M43.303 3.9816L32.1958 52M43.303 3.9816C45.1367 7.46496 46.4695 10.5581 47.269 13.2329C48.0621 15.8864 48.3673 18.2477 48.0165 20.2131C47.6116 22.4814 46.6988 24.1315 44.4805 27.0807M43.303 3.9816L42.4961 27.2175C43.0539 27.1327 43.6032 27.0865 44.1404 27.0797C44.1404 27.0797 44.1405 27.0797 44.1405 27.0797C44.2544 27.0782 44.3677 27.0786 44.4805 27.0807M32.1935 53.5L32.1958 52M32.1935 53.5C32.193 53.5 32.1926 53.5 32.1922 53.5L32.1958 52M32.1935 53.5C32.7714 53.5009 33.1419 53.1764 33.2045 53.1216C33.2063 53.12 33.2078 53.1186 33.2091 53.1175C33.3276 53.0148 33.4109 52.9126 33.4536 52.8578C33.5455 52.7398 33.6241 52.6131 33.6817 52.5155C33.8041 52.3082 33.9432 52.0405 34.0854 51.7518C34.3745 51.1652 34.7297 50.3838 35.0826 49.5691C35.7676 47.9877 36.5296 46.0842 36.7504 45.2101L36.7504 45.2101C37.2458 43.2489 37.3073 41.0265 36.9761 38.8785M32.1958 52C32.4611 52.0007 34.9247 46.3129 35.2961 44.8427C35.8776 42.5408 35.7905 39.8012 35.1197 37.3458C35.7199 37.9159 36.3367 38.4258 36.9761 38.8785M36.9761 38.8785C36.8529 38.0797 36.6754 37.2911 36.4457 36.5302M36.9761 38.8785C39.0479 40.3455 41.3561 41.2121 44.103 41.5805L44.1031 41.5805C45.1802 41.7249 46.8158 41.7738 48.1862 41.7545C48.8787 41.7448 49.5405 41.7171 50.0631 41.6699C50.3201 41.6467 50.5761 41.6159 50.7976 41.5725C50.9061 41.5512 51.0419 41.5202 51.1804 41.4725L51.1831 41.4716C51.2697 41.4418 51.5832 41.334 51.8562 41.0588L51.8565 41.0585C52.1499 40.7627 52.2571 40.4183 52.2886 40.3171L52.2888 40.3167C52.3383 40.1576 52.3694 39.9982 52.3905 39.8651C52.4336 39.5941 52.4595 39.2758 52.4756 38.9512C52.5082 38.2928 52.5067 37.4674 52.4797 36.6344C52.4527 35.7985 52.3991 34.9269 52.3224 34.1727C52.2511 33.4714 52.1464 32.7179 51.9732 32.2162L51.9731 32.216C51.29 30.239 49.944 28.7475 48.139 27.8941C47.0358 27.3726 45.7977 27.1053 44.4805 27.0807M36.4457 36.5302L50.5553 32.7058C49.5476 29.7895 46.828 28.285 43.3141 28.6264C43.4982 28.3785 43.7266 28.0769 44.0084 27.7049C44.1167 27.5619 44.2329 27.4085 44.3575 27.2438L44.3575 27.2437C44.399 27.1889 44.4399 27.1346 44.4805 27.0807M36.4457 36.5302C36.0281 36.1521 35.6187 35.7421 35.2147 35.299C35.1023 35.1757 34.9971 35.061 34.899 34.9548C34.8194 35.0408 34.7246 35.1225 34.6128 35.1943C34.5402 35.2408 34.4673 35.2788 34.3955 35.3094C34.4737 35.4838 34.5485 35.6612 34.6198 35.8412L35.2085 35.3046L34.6198 35.8413L36.4457 36.5302Z" stroke="#F6BDB7" stroke-width="3"/>
</svg>
