<svg width="147" height="80" viewBox="0 0 147 80" fill="none" xmlns="http://www.w3.org/2000/svg">
<path d="M80.1675 59.0483L74.808 43.5093L74.808 43.5093C74.6394 43.0204 74.357 42.6132 73.9557 42.2968C73.5503 41.9772 73.0708 41.8183 72.5339 41.8183C71.8825 41.8183 71.3237 42.0519 70.8701 42.5053C70.4109 42.9643 70.1829 43.5231 70.1829 44.1686C70.1829 44.4516 70.252 44.7835 70.3945 45.1674C70.3946 45.1677 70.3947 45.1679 70.3948 45.1682L77.1707 64.1019L77.1709 64.1024C77.4044 64.747 77.7893 65.2718 78.3141 65.6681C78.842 66.0667 79.4598 66.268 80.1568 66.268C80.8379 66.268 81.4434 66.0758 81.9633 65.695H81.9799L82.0156 65.6681C82.5401 65.2721 82.9253 64.7526 83.1589 64.102L83.1589 64.1019L89.9408 45.1667L89.9408 45.1666C90.0771 44.785 90.1521 44.4527 90.1521 44.1686C90.1521 43.5169 89.9181 42.964 89.4655 42.5059L89.4649 42.5053C89.0057 42.0463 88.4467 41.8183 87.8011 41.8183C87.2587 41.8183 86.7846 41.9773 86.3794 42.2968L86.3785 42.2975C85.9784 42.6185 85.6959 43.0197 85.527 43.5093L85.653 43.5527L85.527 43.5093L80.1675 59.0483Z" fill="white" stroke="white" stroke-width="0.266544"/>
<path d="M127.623 46.8819L127.623 46.8817C127.323 46.033 126.914 45.3055 126.398 44.7127C125.885 44.1182 125.285 43.6168 124.604 43.203C123.923 42.7837 123.198 42.4788 122.447 42.2828C121.696 42.0871 120.924 41.9893 120.142 41.9893H113.724L113.708 41.9839H113.687C112.995 41.9839 112.414 42.2161 111.943 42.6867C111.471 43.1526 111.239 43.7391 111.239 44.4306V63.912C111.239 64.5578 111.468 65.1111 111.927 65.5699C112.386 66.0288 112.939 66.2569 113.59 66.2569C114.242 66.2569 114.795 66.023 115.254 65.5705C115.713 65.1165 115.941 64.5573 115.941 63.912V57.373H120.136C121.126 57.373 122.083 57.2153 123.008 56.8999C123.933 56.5844 124.777 56.1219 125.544 55.5184L125.544 55.518C126.318 54.9035 126.93 54.0933 127.388 53.0914C127.847 52.0862 128.075 50.9477 128.075 49.6838C128.075 48.6743 127.923 47.7382 127.623 46.8819ZM119.628 53.1598H115.947V46.2078H119.628C120.771 46.2078 121.675 46.5114 122.359 47.0968C123.034 47.6753 123.378 48.5438 123.378 49.6838C123.378 50.8221 123.029 51.676 122.358 52.2663C121.68 52.8561 120.771 53.1598 119.628 53.1598Z" fill="white" stroke="white" stroke-width="0.266544"/>
<path d="M144.023 61.8886H135.296V55.8201H142.625C143.207 55.8201 143.706 55.6135 144.117 55.2088C144.529 54.8026 144.735 54.2914 144.735 53.7109C144.735 53.1294 144.528 52.6296 144.117 52.219C143.707 51.8084 143.207 51.6016 142.625 51.6016H135.296V46.2133H144.023C144.605 46.2133 145.104 46.0066 145.515 45.6019C145.927 45.1958 146.133 44.6846 146.133 44.104C146.133 43.5225 145.926 43.0227 145.516 42.6121C145.105 42.2015 144.605 41.9948 144.023 41.9948H133.052C132.366 41.9948 131.779 42.2268 131.308 42.6975C130.837 43.1635 130.605 43.75 130.605 44.4414V63.6497C130.605 64.3417 130.837 64.9223 131.308 65.393C131.774 65.8645 132.361 66.0964 133.052 66.0964H143.89V66.1071H144.023C144.605 66.1071 145.104 65.9004 145.515 65.4957C145.927 65.0896 146.133 64.5784 146.133 63.9978C146.133 63.4163 145.926 62.9165 145.516 62.5059C145.105 62.0953 144.605 61.8886 144.023 61.8886Z" fill="white" stroke="white" stroke-width="0.266544"/>
<mask id="path-4-outside-1_501_32" maskUnits="userSpaceOnUse" x="87.4607" y="41.0097" width="21" height="26" fill="black">
<rect fill="white" x="87.4607" y="41.0097" width="21" height="26"/>
<path fill-rule="evenodd" clip-rule="evenodd" d="M96.5496 42.5826C97.0532 42.2024 97.6424 42.0097 98.312 42.0097C98.9817 42.0097 99.5709 42.2024 100.074 42.5826C100.578 42.9628 100.942 43.4662 101.173 44.0874L107.949 63.0226C108.083 63.3975 108.153 63.7134 108.153 63.9758C108.153 64.5863 107.938 65.1111 107.504 65.5395C107.071 65.9679 106.551 66.1874 105.935 66.1874C105.426 66.1874 104.976 66.0375 104.59 65.7376C104.205 65.4377 103.937 65.0522 103.792 64.5863L102.635 61.1109H93.9837L92.8266 64.5863C92.6659 65.0522 92.398 65.4324 92.007 65.7376C91.6159 66.0428 91.1766 66.1874 90.6785 66.1874C90.0678 66.1874 89.5428 65.9732 89.1089 65.5395C88.675 65.1057 88.4607 64.5863 88.4607 63.9758C88.4607 63.7134 88.5303 63.3975 88.6643 63.0226L91.4311 55.2974C92.026 55.9668 92.7957 56.4677 93.6836 56.7516C94.1979 56.9176 94.7282 56.9979 95.2693 56.9979C97.471 56.9979 99.4369 55.6163 100.155 53.5654C100.599 52.2855 100.514 50.92 99.9137 49.7098C99.303 48.4835 98.2423 47.5785 96.9192 47.1554C96.4049 46.9894 95.8746 46.9091 95.3336 46.9091C95.0185 46.9091 94.7083 46.9374 94.4058 46.9919L95.4461 44.0874C95.6711 43.4609 96.0407 42.9628 96.5443 42.5826H96.5496Z"/>
</mask>
<path fill-rule="evenodd" clip-rule="evenodd" d="M96.5496 42.5826C97.0532 42.2024 97.6424 42.0097 98.312 42.0097C98.9817 42.0097 99.5709 42.2024 100.074 42.5826C100.578 42.9628 100.942 43.4662 101.173 44.0874L107.949 63.0226C108.083 63.3975 108.153 63.7134 108.153 63.9758C108.153 64.5863 107.938 65.1111 107.504 65.5395C107.071 65.9679 106.551 66.1874 105.935 66.1874C105.426 66.1874 104.976 66.0375 104.59 65.7376C104.205 65.4377 103.937 65.0522 103.792 64.5863L102.635 61.1109H93.9837L92.8266 64.5863C92.6659 65.0522 92.398 65.4324 92.007 65.7376C91.6159 66.0428 91.1766 66.1874 90.6785 66.1874C90.0678 66.1874 89.5428 65.9732 89.1089 65.5395C88.675 65.1057 88.4607 64.5863 88.4607 63.9758C88.4607 63.7134 88.5303 63.3975 88.6643 63.0226L91.4311 55.2974C92.026 55.9668 92.7957 56.4677 93.6836 56.7516C94.1979 56.9176 94.7282 56.9979 95.2693 56.9979C97.471 56.9979 99.4369 55.6163 100.155 53.5654C100.599 52.2855 100.514 50.92 99.9137 49.7098C99.303 48.4835 98.2423 47.5785 96.9192 47.1554C96.4049 46.9894 95.8746 46.9091 95.3336 46.9091C95.0185 46.9091 94.7083 46.9374 94.4058 46.9919L95.4461 44.0874C95.6711 43.4609 96.0407 42.9628 96.5443 42.5826H96.5496Z" fill="white"/>
<path d="M96.5496 42.5826V42.8492H96.639L96.7102 42.7954L96.5496 42.5826ZM100.074 42.5826L100.235 42.3699V42.3699L100.074 42.5826ZM101.173 44.0874L101.424 43.9976L101.423 43.9947L101.173 44.0874ZM107.949 63.0226L108.2 62.933L108.2 62.9328L107.949 63.0226ZM107.504 65.5395L107.692 65.7292V65.7292L107.504 65.5395ZM104.59 65.7376L104.427 65.948L104.59 65.7376ZM103.792 64.5863L104.047 64.5072L104.045 64.5021L103.792 64.5863ZM102.635 61.1109L102.888 61.0267L102.827 60.8444H102.635V61.1109ZM93.9837 61.1109V60.8444H93.7915L93.7308 61.0267L93.9837 61.1109ZM92.8266 64.5863L93.0786 64.6732L93.0795 64.6705L92.8266 64.5863ZM92.007 65.7376L92.171 65.9477H92.171L92.007 65.7376ZM89.1089 65.5395L88.9204 65.728H88.9204L89.1089 65.5395ZM88.6643 63.0226L88.4133 62.9328L88.4133 62.933L88.6643 63.0226ZM91.4311 55.2974L91.6304 55.1203L91.3318 54.7843L91.1802 55.2075L91.4311 55.2974ZM93.6836 56.7516L93.7655 56.4979L93.7648 56.4977L93.6836 56.7516ZM100.155 53.5654L100.406 53.6534L100.407 53.6528L100.155 53.5654ZM99.9137 49.7098L100.153 49.5914L100.152 49.591L99.9137 49.7098ZM96.9192 47.1554L96.8373 47.4091L96.838 47.4093L96.9192 47.1554ZM94.4058 46.9919L94.1549 46.902L93.9995 47.336L94.4531 47.2542L94.4058 46.9919ZM95.4461 44.0874L95.1952 43.9973L95.1952 43.9975L95.4461 44.0874ZM96.5443 42.5826V42.3161H96.4549L96.3836 42.3699L96.5443 42.5826ZM98.312 41.7431C97.5877 41.7431 96.9413 41.9529 96.389 42.3699L96.7102 42.7954C97.165 42.452 97.6971 42.2762 98.312 42.2762V41.7431ZM100.235 42.3699C99.6827 41.9529 99.0364 41.7431 98.312 41.7431V42.2762C98.9269 42.2762 99.4591 42.452 99.9139 42.7954L100.235 42.3699ZM101.423 43.9947C101.176 43.3294 100.782 42.783 100.235 42.3699L99.9139 42.7954C100.374 43.1427 100.709 43.603 100.923 44.1801L101.423 43.9947ZM108.2 62.9328L101.424 43.9976L100.922 44.1772L107.698 63.1124L108.2 62.9328ZM108.419 63.9758C108.419 63.67 108.339 63.3212 108.2 62.933L107.698 63.1123C107.827 63.4737 107.886 63.7569 107.886 63.9758H108.419ZM107.692 65.7292C108.178 65.2495 108.419 64.6559 108.419 63.9758H107.886C107.886 64.5167 107.699 64.9726 107.317 65.3498L107.692 65.7292ZM105.935 66.454C106.623 66.454 107.209 66.2057 107.692 65.7292L107.317 65.3498C106.932 65.7301 106.479 65.9209 105.935 65.9209V66.454ZM104.427 65.948C104.862 66.2861 105.37 66.454 105.935 66.454V65.9209C105.482 65.9209 105.091 65.7889 104.754 65.5272L104.427 65.948ZM103.538 64.6653C103.699 65.1836 103.998 65.6149 104.427 65.948L104.754 65.5272C104.411 65.2606 104.175 64.9207 104.047 64.5073L103.538 64.6653ZM102.382 61.1951L103.539 64.6705L104.045 64.5021L102.888 61.0267L102.382 61.1951ZM93.9837 61.3774H102.635V60.8444H93.9837V61.3774ZM93.0795 64.6705L94.2366 61.1951L93.7308 61.0267L92.5737 64.5021L93.0795 64.6705ZM92.171 65.9477C92.6034 65.6102 92.9014 65.1869 93.0785 64.6732L92.5746 64.4994C92.4304 64.9175 92.1926 65.2546 91.843 65.5275L92.171 65.9477ZM90.6785 66.454C91.2334 66.454 91.731 66.2911 92.171 65.9477L91.843 65.5275C91.5008 65.7946 91.1199 65.9209 90.6785 65.9209V66.454ZM88.9204 65.728C89.4049 66.2123 89.9979 66.454 90.6785 66.454V65.9209C90.1376 65.9209 89.6807 65.7342 89.2973 65.351L88.9204 65.728ZM88.1941 63.9758C88.1941 64.6569 88.4365 65.2442 88.9204 65.728L89.2973 65.351C88.9135 64.9673 88.7272 64.5157 88.7272 63.9758H88.1941ZM88.4133 62.933C88.2745 63.3212 88.1941 63.67 88.1941 63.9758H88.7272C88.7272 63.7569 88.7861 63.4737 88.9153 63.1123L88.4133 62.933ZM91.1802 55.2075L88.4133 62.9328L88.9152 63.1125L91.6821 55.3872L91.1802 55.2075ZM91.2319 55.4744C91.8591 56.1803 92.6699 56.7073 93.6025 57.0055L93.7648 56.4977C92.9215 56.2281 92.1928 55.7533 91.6304 55.1203L91.2319 55.4744ZM93.6017 57.0052C94.1435 57.1801 94.7015 57.2645 95.2693 57.2645V56.7314C94.7549 56.7314 94.2523 56.6551 93.7655 56.4979L93.6017 57.0052ZM95.2693 57.2645C97.5822 57.2645 99.6504 55.8132 100.406 53.6534L99.9032 53.4773C99.2234 55.4195 97.3597 56.7314 95.2693 56.7314V57.2645ZM100.407 53.6528C100.875 52.3056 100.784 50.8659 100.153 49.5914L99.6749 49.8282C100.243 50.9741 100.324 52.2655 99.903 53.4779L100.407 53.6528ZM100.152 49.591C99.509 48.2993 98.391 47.3462 97.0004 46.9016L96.838 47.4093C98.0937 47.8108 99.097 48.6677 99.6751 49.8286L100.152 49.591ZM97.0011 46.9018C96.4594 46.7269 95.9013 46.6426 95.3336 46.6426V47.1757C95.8479 47.1757 96.3505 47.252 96.8373 47.4091L97.0011 46.9018ZM95.3336 46.6426C95.0025 46.6426 94.6765 46.6723 94.3586 46.7296L94.4531 47.2542C94.74 47.2025 95.0345 47.1757 95.3336 47.1757V46.6426ZM95.1952 43.9975L94.1549 46.902L94.6568 47.0818L95.697 44.1773L95.1952 43.9975ZM96.3836 42.3699C95.8382 42.7818 95.4375 43.3227 95.1952 43.9973L95.697 44.1775C95.9047 43.599 96.2433 43.1439 96.7049 42.7954L96.3836 42.3699ZM96.5496 42.3161H96.5443V42.8492H96.5496V42.3161Z" fill="white" mask="url(#path-4-outside-1_501_32)"/>
<path d="M78.2569 37.2472H78.3901V37.2412C81.0408 37.2146 83.1652 36.3907 84.759 34.7599C86.3796 33.1017 87.1808 30.8591 87.1808 28.0533V22.3342C87.1808 19.5285 86.3796 17.2858 84.759 15.6276C83.1385 13.9695 80.9643 13.1456 78.2569 13.1456H72.841C72.1489 13.1456 71.5681 13.3778 71.0972 13.8484C70.6255 14.3144 70.3936 14.9008 70.3936 15.5923V34.8006C70.3936 35.4925 70.6258 36.0732 71.0966 36.5439C71.5627 37.0154 72.1494 37.2472 72.841 37.2472H78.2569ZM78.1551 33.0287H75.0849V17.3588H78.1551C79.6116 17.3588 80.6838 17.8189 81.3965 18.7218C82.114 19.6307 82.4841 21.0094 82.4841 22.8804V27.5071C82.4841 29.3781 82.114 30.7568 81.3965 31.6657C80.6838 32.5686 79.6116 33.0287 78.1551 33.0287Z" fill="white" stroke="white" stroke-width="0.266544"/>
<path d="M104.56 33.0395H95.8378V26.9711H103.167C103.748 26.9711 104.248 26.7644 104.658 26.3597C105.07 25.9536 105.277 25.4424 105.277 24.8618C105.277 24.2803 105.07 23.7805 104.659 23.3699C104.248 22.9593 103.748 22.7526 103.167 22.7526H95.8378V17.3642H104.56C105.141 17.3642 105.641 17.1576 106.051 16.7529C106.463 16.3467 106.67 15.8355 106.67 15.255C106.67 14.6735 106.463 14.1737 106.052 13.7631C105.641 13.3525 105.141 13.1457 104.56 13.1457H93.5886C92.8965 13.1457 92.3157 13.3778 91.8447 13.8485C91.3731 14.3144 91.1411 14.9009 91.1411 15.5923V34.8007C91.1411 35.4926 91.3734 36.0732 91.8442 36.544C92.3103 37.0155 92.897 37.2473 93.5886 37.2473H104.426V37.258H104.56C105.141 37.258 105.641 37.0514 106.051 36.6467C106.463 36.2405 106.67 35.7293 106.67 35.1488C106.67 34.5673 106.463 34.0674 106.052 33.6568C105.641 33.2463 105.141 33.0395 104.56 33.0395Z" fill="white" stroke="white" stroke-width="0.266544"/>
<path d="M123.606 33.0395H114.884V26.9711H122.213C122.795 26.9711 123.294 26.7645 123.705 26.3598C124.117 25.9536 124.323 25.4424 124.323 24.8618C124.323 24.2803 124.116 23.7805 123.706 23.3699C123.295 22.9593 122.795 22.7526 122.213 22.7526H114.884V17.3643H123.606C124.187 17.3643 124.687 17.1576 125.098 16.7529C125.51 16.3467 125.716 15.8356 125.716 15.255C125.716 14.6735 125.509 14.1737 125.098 13.7631C124.688 13.3525 124.188 13.1457 123.606 13.1457H112.635C111.943 13.1457 111.362 13.3779 110.891 13.8485C110.419 14.3144 110.188 14.9009 110.188 15.5924V34.8007C110.188 35.4926 110.42 36.0733 110.891 36.544C111.357 37.0155 111.943 37.2473 112.635 37.2473H123.473V37.258H123.606C124.187 37.258 124.687 37.0514 125.098 36.6467C125.51 36.2405 125.716 35.7293 125.716 35.1488C125.716 34.5673 125.509 34.0675 125.098 33.6569C124.688 33.2463 124.188 33.0395 123.606 33.0395Z" fill="white" stroke="white" stroke-width="0.266544"/>
<path d="M131.679 13.1408H131.657L131.641 13.1462C130.958 13.1511 130.385 13.3832 129.919 13.8489C129.447 14.3149 129.215 14.9013 129.215 15.5928V35.0635C129.215 35.7093 129.443 36.2626 129.902 36.7214C130.361 37.1803 130.915 37.4084 131.566 37.4084C132.218 37.4084 132.771 37.1745 133.229 36.722C133.689 36.268 133.917 35.7088 133.917 35.0635V28.5245H138.112C139.102 28.5245 140.059 28.3668 140.984 28.0515C141.909 27.7359 142.753 27.2734 143.519 26.6699L143.52 26.6695C144.294 26.055 144.906 25.2448 145.364 24.2429C145.823 23.2377 146.051 22.0992 146.051 20.8353C146.051 19.8258 145.899 18.8897 145.598 18.0334L145.598 18.0332C145.299 17.1845 144.89 16.4571 144.373 15.8643C143.861 15.2698 143.261 14.7683 142.58 14.3546C141.899 13.9352 141.174 13.6303 140.423 13.4343C139.672 13.2386 138.9 13.1408 138.118 13.1408H131.679ZM137.603 24.3113H133.923V17.3593H137.603C138.747 17.3593 139.651 17.6629 140.334 18.2483C141.01 18.8268 141.354 19.6953 141.354 20.8353C141.354 21.9737 141.005 22.8276 140.333 23.4179C139.656 24.0077 138.747 24.3113 137.603 24.3113Z" fill="white" stroke="white" stroke-width="0.266544"/>
<path fill-rule="evenodd" clip-rule="evenodd" d="M51.9999 1.70485C48.6702 0.391761 43.0546 0.836562 36.1825 3.68932C30.0958 6.21608 22.7736 10.7275 14.6743 18.0633C15.9123 18.5739 16.9034 19.4918 17.5006 20.6909C17.538 20.7664 17.5736 20.8425 17.6074 20.9192C25.3436 13.9452 32.2103 9.76181 37.7489 7.46258C44.2757 4.75314 48.6515 4.77605 50.5012 5.50547C54.3121 7.00832 54.9456 10.9302 53.3239 13.5653C52.7327 14.5261 53.0322 15.7844 53.9931 16.3756C54.9539 16.9669 56.2121 16.6673 56.8034 15.7065C59.5396 11.2602 58.5479 4.28702 51.9999 1.70485ZM10.4099 28.2825C9.09797 27.7864 8.04757 26.8421 7.42515 25.5923C7.41317 25.5681 7.40139 25.5439 7.38979 25.5197C4.7627 28.7581 2.43935 32.4796 1.47836 35.899C0.77758 38.3925 0.688575 41.1567 2.30323 43.3926C3.80434 45.4712 6.39908 46.5673 9.80129 46.8747C9.10065 48.0508 8.51112 49.1806 8.04402 50.2577C6.83812 53.0383 6.27178 55.8657 7.18579 58.3293C8.152 60.9336 10.5052 62.4748 13.6083 63.1994C14.2932 63.3594 15.004 63.4844 15.7351 63.5766C14.2523 65.8951 13.1174 68.2657 12.7478 70.4545C12.4778 72.0536 12.5859 73.741 13.4664 75.2324C14.3566 76.7402 15.8517 77.736 17.7306 78.3014C19.648 78.8784 22.1537 78.7158 24.7246 77.9438C27.3466 77.1565 30.2228 75.6828 32.9514 73.3989C33.8165 72.6748 33.9309 71.3864 33.2067 70.5213C32.4826 69.6562 31.1943 69.5419 30.3292 70.266C28.0147 72.2033 25.6285 73.4067 23.5497 74.0309C21.4199 74.6704 19.7868 74.6537 18.9079 74.3892C17.7165 74.0307 17.2145 73.5449 16.9844 73.1553C16.7447 72.7492 16.6093 72.1233 16.7763 71.1348C17.1051 69.1874 18.4792 66.5944 20.5815 63.7428C24.7959 63.5488 29.2504 62.5562 33.101 61.0938C36.1745 59.9265 39.0085 58.4068 41.1147 56.6203C43.1732 54.8744 44.85 52.5951 44.85 49.9071C44.85 48.0888 43.8283 46.0427 41.6227 45.0941C39.4552 44.1619 36.6329 44.4893 33.3034 46.179C31.5082 47.0899 28.8096 49.1813 26.048 51.7171C23.5407 54.0195 20.8496 56.8104 18.5484 59.6865C17.1119 59.6565 15.7568 59.5058 14.5374 59.221C12.1842 58.6715 11.3288 57.7511 11.0161 56.9082C10.6512 55.9247 10.7357 54.3193 11.7922 51.8832C12.438 50.394 13.3815 48.7425 14.5948 46.9499C22.6495 46.6123 30.9967 44.1096 37.7582 40.8595C41.7173 38.9565 45.2121 36.7597 47.838 34.5134C50.377 32.3415 52.4293 29.8484 52.9038 27.2889C53.3552 24.8538 52.9721 22.4204 51.5436 20.5471C50.0907 18.6419 47.7887 17.6206 45.0409 17.6009C39.7083 17.5628 31.7904 20.7585 23.0609 29.6159C19.2668 33.4656 16.3432 37.5168 13.7775 41.0721C13.3253 41.6988 12.8842 42.31 12.4514 42.902C11.8961 42.8974 11.3443 42.8806 10.7969 42.8509C7.54737 42.6748 6.17731 41.7789 5.61533 41.0007C5.05495 40.2248 4.8618 38.9601 5.41145 37.0044C6.16273 34.3312 8.08942 31.1763 10.4099 28.2825ZM31.6505 57.2745C29.3178 58.1604 26.7958 58.8349 24.3062 59.2434C25.7787 57.63 27.3245 56.0916 28.8113 54.7263C31.5261 52.2334 33.8832 50.4661 35.1522 49.8222C37.9508 48.4019 39.4182 48.5933 40.0085 48.8471C40.5606 49.0846 40.7645 49.5467 40.7645 49.9071C40.7645 50.8275 40.1614 52.0718 38.472 53.5047C36.8304 54.8971 34.4487 56.2117 31.6505 57.2745ZM35.9883 37.1773C30.568 39.7828 24.1519 41.8318 17.8485 42.588C18.5928 41.6654 19.3406 40.6695 20.12 39.6314C21.8408 37.3395 23.7157 34.8423 26.048 32.4758C34.5676 23.8313 41.3884 21.6604 45.0117 21.6863C46.7418 21.6986 47.7466 22.3054 48.2949 23.0244C48.8675 23.7753 49.18 24.9624 48.8867 26.5442C48.6797 27.6612 47.563 29.3723 45.1823 31.4088C42.8886 33.3709 39.7132 35.3868 35.9883 37.1773Z" fill="white"/>
<path d="M36.1825 3.68932L35.9908 3.22753L36.1825 3.68932ZM51.9999 1.70485L52.1834 1.23971V1.23971L51.9999 1.70485ZM14.6743 18.0633L14.3386 17.6927L13.7522 18.2238L14.4836 18.5255L14.6743 18.0633ZM17.5006 20.6909L17.9485 20.4688L17.9481 20.468L17.5006 20.6909ZM17.6074 20.9192L17.1499 21.1209L17.4288 21.7533L17.9422 21.2905L17.6074 20.9192ZM37.7489 7.46258L37.5572 7.00079L37.7489 7.46258ZM50.5012 5.50547L50.6846 5.04033L50.5012 5.50547ZM53.3239 13.5653L52.8981 13.3033V13.3033L53.3239 13.5653ZM53.9931 16.3756L54.2551 15.9498L53.9931 16.3756ZM56.8034 15.7065L56.3775 15.4445L56.8034 15.7065ZM7.42515 25.5923L6.97717 25.8144L6.97758 25.8152L7.42515 25.5923ZM10.4099 28.2825L10.8 28.5954L11.2307 28.0583L10.5868 27.8149L10.4099 28.2825ZM7.38979 25.5197L7.8409 25.304L7.49978 24.5904L7.00149 25.2047L7.38979 25.5197ZM1.47836 35.899L1.95971 36.0343H1.95971L1.47836 35.899ZM2.30323 43.3926L2.70858 43.0999H2.70858L2.30323 43.3926ZM9.80129 46.8747L10.2308 47.1306L10.6373 46.4482L9.84628 46.3767L9.80129 46.8747ZM8.04402 50.2577L7.5853 50.0587L8.04402 50.2577ZM7.18579 58.3293L6.71701 58.5032H6.71702L7.18579 58.3293ZM13.6083 63.1994L13.722 62.7125L13.6083 63.1994ZM15.7351 63.5766L16.1563 63.846L16.5826 63.1795L15.7977 63.0805L15.7351 63.5766ZM12.7478 70.4545L12.2548 70.3712L12.7478 70.4545ZM13.4664 75.2324L13.8969 74.9782L13.4664 75.2324ZM17.7306 78.3014L17.8747 77.8226H17.8747L17.7306 78.3014ZM24.7246 77.9438L24.5809 77.4649L24.7246 77.9438ZM32.9514 73.3989L32.6305 73.0155L32.9514 73.3989ZM33.2067 70.5213L32.8233 70.8422H32.8233L33.2067 70.5213ZM30.3292 70.266L30.0083 69.8826L30.3292 70.266ZM23.5497 74.0309L23.4059 73.5521L23.5497 74.0309ZM18.9079 74.3892L19.052 73.9104H19.052L18.9079 74.3892ZM16.9844 73.1553L17.415 72.9011L17.415 72.9011L16.9844 73.1553ZM16.7763 71.1348L16.2832 71.0515L16.7763 71.1348ZM20.5815 63.7428L20.5585 63.2433L20.3205 63.2543L20.1791 63.4461L20.5815 63.7428ZM33.101 61.0938L32.9235 60.6263L33.101 61.0938ZM41.1147 56.6203L41.4381 57.0016L41.1147 56.6203ZM41.6227 45.0941L41.8202 44.6348L41.6227 45.0941ZM33.3034 46.179L33.0771 45.7331L33.3034 46.179ZM26.048 51.7171L25.7099 51.3488L26.048 51.7171ZM18.5484 59.6865L18.5379 60.1864L18.7846 60.1916L18.9388 59.9989L18.5484 59.6865ZM14.5374 59.221L14.4236 59.7079L14.5374 59.221ZM11.0161 56.9082L10.5474 57.0822L11.0161 56.9082ZM11.7922 51.8832L11.3335 51.6842L11.7922 51.8832ZM14.5948 46.9499L14.5739 46.4503L14.322 46.4609L14.1808 46.6696L14.5948 46.9499ZM37.7582 40.8595L37.5416 40.4089L37.7582 40.8595ZM47.838 34.5134L48.1631 34.8933L47.838 34.5134ZM52.9038 27.2889L52.4122 27.1977V27.1977L52.9038 27.2889ZM51.5436 20.5471L51.9412 20.2439L51.9412 20.2439L51.5436 20.5471ZM45.0409 17.6009L45.0373 18.1009L45.0409 17.6009ZM23.0609 29.6159L23.417 29.9669L23.0609 29.6159ZM13.7775 41.0722L14.183 41.3647L13.7775 41.0722ZM12.4514 42.902L12.4473 43.402L12.7037 43.4041L12.8551 43.1971L12.4514 42.902ZM10.7969 42.8509L10.824 42.3517H10.824L10.7969 42.8509ZM5.61533 41.0007L6.02068 40.708H6.02068L5.61533 41.0007ZM5.41145 37.0044L5.8928 37.1396L5.41145 37.0044ZM24.3062 59.2434L23.9369 58.9064L22.9662 59.97L24.3872 59.7368L24.3062 59.2434ZM31.6505 57.2745L31.4729 56.8071L31.6505 57.2745ZM28.8113 54.7263L29.1495 55.0946L28.8113 54.7263ZM35.1522 49.8222L35.3784 50.268L35.1522 49.8222ZM40.0085 48.8471L39.8109 49.3065L40.0085 48.8471ZM38.472 53.5047L38.7955 53.886H38.7955L38.472 53.5047ZM17.8485 42.588L17.4593 42.2741L16.6874 43.2309L17.908 43.0845L17.8485 42.588ZM35.9883 37.1773L35.7717 36.7267L35.9883 37.1773ZM20.12 39.6314L20.5198 39.9316H20.5198L20.12 39.6314ZM26.048 32.4758L26.4042 32.8267L26.048 32.4758ZM45.0117 21.6863L45.0081 22.1863L45.0117 21.6863ZM48.2949 23.0244L48.6925 22.7212L48.6925 22.7212L48.2949 23.0244ZM48.8867 26.5442L48.3951 26.4531V26.4531L48.8867 26.5442ZM45.1823 31.4088L45.5073 31.7888L45.1823 31.4088ZM36.3742 4.15111C43.2042 1.31583 48.668 0.928369 51.8165 2.16999L52.1834 1.23971C48.6724 -0.144845 42.905 0.357296 35.9908 3.22753L36.3742 4.15111ZM15.0099 18.4339C23.0748 11.1293 30.3494 6.65216 36.3742 4.15111L35.9908 3.22753C29.8422 5.78 22.4725 10.3257 14.3386 17.6927L15.0099 18.4339ZM17.9481 20.468C17.2966 19.1597 16.2138 18.1574 14.8649 17.6011L14.4836 18.5255C15.6109 18.9905 16.5102 19.8238 17.053 20.9138L17.9481 20.468ZM18.0649 20.7174C18.0281 20.634 17.9893 20.5511 17.9485 20.4688L17.0526 20.913C17.0867 20.9818 17.1192 21.0511 17.1499 21.1209L18.0649 20.7174ZM37.5572 7.00079C31.9571 9.32553 25.0431 13.5429 17.2726 20.5478L17.9422 21.2905C25.6441 14.3476 32.4634 10.1981 37.9406 7.92437L37.5572 7.00079ZM50.6846 5.04033C49.6545 4.6341 48.0067 4.45099 45.8228 4.69761C43.6278 4.94548 40.8565 5.63117 37.5572 7.00079L37.9406 7.92437C41.1681 6.58455 43.8481 5.92697 45.9351 5.69129C48.0332 5.45436 49.4982 5.64742 50.3177 5.97061L50.6846 5.04033ZM53.7498 13.8274C55.5118 10.964 54.8239 6.67265 50.6846 5.04033L50.3177 5.97061C53.8004 7.34399 54.3793 10.8964 52.8981 13.3033L53.7498 13.8274ZM54.2551 15.9498C53.5295 15.5033 53.3032 14.553 53.7498 13.8274L52.8981 13.3033C52.1621 14.4993 52.535 16.0655 53.731 16.8015L54.2551 15.9498ZM56.3775 15.4445C55.931 16.1701 54.9807 16.3963 54.2551 15.9498L53.731 16.8015C54.927 17.5375 56.4932 17.1646 57.2292 15.9686L56.3775 15.4445ZM51.8165 2.16999C58.0257 4.61857 58.9796 11.216 56.3775 15.4445L57.2292 15.9686C60.0995 11.3043 59.0701 3.95547 52.1834 1.23971L51.8165 2.16999ZM6.97758 25.8152C7.65679 27.1791 8.80456 28.21 10.2331 28.7502L10.5868 27.8149C9.39139 27.3628 8.43836 26.5052 7.87272 25.3694L6.97758 25.8152ZM6.93868 25.7353C6.9513 25.7617 6.96413 25.7881 6.97717 25.8144L7.87312 25.3702C7.86221 25.3482 7.85147 25.3261 7.8409 25.304L6.93868 25.7353ZM1.95971 36.0343C2.89405 32.7097 5.16948 29.0503 7.77809 25.8346L7.00149 25.2047C4.35591 28.4659 1.98464 32.2495 0.997005 35.7637L1.95971 36.0343ZM2.70858 43.0999C1.22338 41.0433 1.27712 38.4631 1.95971 36.0343L0.997005 35.7637C0.278036 38.322 0.15377 41.2702 1.89788 43.6853L2.70858 43.0999ZM9.84628 46.3767C6.51454 46.0757 4.08956 45.0122 2.70858 43.0999L1.89788 43.6853C3.51912 45.9303 6.28363 47.0589 9.75629 47.3727L9.84628 46.3767ZM8.50274 50.4566C8.95975 49.4028 9.53887 48.2922 10.2308 47.1306L9.37173 46.6188C8.66243 47.8095 8.06249 48.9584 7.5853 50.0587L8.50274 50.4566ZM7.65457 58.1554C6.80783 55.8731 7.31499 53.1953 8.50274 50.4566L7.5853 50.0587C6.36124 52.8812 5.73573 55.8583 6.71701 58.5032L7.65457 58.1554ZM13.722 62.7125C10.7091 62.0089 8.54041 60.5431 7.65457 58.1554L6.71702 58.5032C7.76359 61.3242 10.3012 62.9406 13.4945 63.6863L13.722 62.7125ZM15.7977 63.0805C15.0822 62.9903 14.3886 62.8682 13.722 62.7125L13.4945 63.6863C14.1978 63.8506 14.9258 63.9785 15.6726 64.0727L15.7977 63.0805ZM13.2408 70.5377C13.5942 68.4452 14.6887 66.1409 16.1563 63.846L15.3139 63.3072C13.816 65.6493 12.6407 68.0863 12.2548 70.3712L13.2408 70.5377ZM13.8969 74.9782C13.095 73.6199 12.9833 72.0625 13.2408 70.5377L12.2548 70.3712C11.9722 72.0446 12.0767 73.8621 13.0358 75.4866L13.8969 74.9782ZM17.8747 77.8226C16.0794 77.2823 14.7062 76.3488 13.8969 74.9782L13.0358 75.4866C14.007 77.1316 15.624 78.1896 17.5865 78.7802L17.8747 77.8226ZM24.5809 77.4649C22.0638 78.2207 19.6649 78.3613 17.8747 77.8226L17.5865 78.7802C19.6311 79.3954 22.2436 79.2108 24.8684 78.4227L24.5809 77.4649ZM32.6305 73.0155C29.9525 75.257 27.1363 76.6976 24.5809 77.4649L24.8684 78.4227C27.5568 77.6154 30.493 76.1087 33.2724 73.7823L32.6305 73.0155ZM32.8233 70.8422C33.3702 71.4956 33.2839 72.4686 32.6305 73.0155L33.2724 73.7823C34.3492 72.8809 34.4915 71.2773 33.5902 70.2004L32.8233 70.8422ZM30.6501 70.6494C31.3035 70.1025 32.2764 70.1889 32.8233 70.8422L33.5902 70.2004C32.6888 69.1235 31.0851 68.9812 30.0083 69.8826L30.6501 70.6494ZM23.6935 74.5098C25.8387 73.8656 28.2849 72.6291 30.6501 70.6494L30.0083 69.8826C27.7445 71.7774 25.4182 72.9478 23.4059 73.5521L23.6935 74.5098ZM18.7638 74.868C19.7697 75.1707 21.5096 75.1656 23.6935 74.5098L23.4059 73.5521C21.3303 74.1753 19.8038 74.1367 19.052 73.9104L18.7638 74.868ZM16.5539 73.4095C16.8642 73.9352 17.4871 74.4838 18.7638 74.868L19.052 73.9104C17.9459 73.5776 17.5647 73.1547 17.415 72.9011L16.5539 73.4095ZM16.2832 71.0515C16.1035 72.1158 16.2361 72.8713 16.5539 73.4095L17.415 72.9011C17.2532 72.6271 17.1151 72.1307 17.2693 71.218L16.2832 71.0515ZM20.1791 63.4461C18.0667 66.3113 16.6325 68.9832 16.2832 71.0515L17.2693 71.218C17.5777 69.3916 18.8916 66.8775 20.984 64.0395L20.1791 63.4461ZM32.9235 60.6263C29.1179 62.0717 24.7155 63.0519 20.5585 63.2433L20.6045 64.2423C24.8763 64.0456 29.3828 63.0408 33.2785 61.5612L32.9235 60.6263ZM40.7913 56.239C38.742 57.9773 35.9633 59.4718 32.9235 60.6263L33.2785 61.5612C36.3857 60.3811 39.2751 58.8363 41.4381 57.0016L40.7913 56.239ZM44.35 49.9071C44.35 52.3782 42.8052 54.5308 40.7913 56.239L41.4381 57.0016C43.5411 55.2179 45.35 52.812 45.35 49.9071H44.35ZM41.4251 45.5534C43.4273 46.4146 44.35 48.266 44.35 49.9071H45.35C45.35 47.9116 44.2292 45.6709 41.8202 44.6348L41.4251 45.5534ZM33.5296 46.6248C36.795 44.9677 39.4512 44.7044 41.4251 45.5534L41.8202 44.6348C39.4592 43.6193 36.4709 44.0108 33.0771 45.7331L33.5296 46.6248ZM26.3862 52.0854C29.1419 49.5549 31.7988 47.5032 33.5296 46.6248L33.0771 45.7331C31.2176 46.6767 28.4772 48.8076 25.7099 51.3488L26.3862 52.0854ZM18.9388 59.9989C21.2213 57.1461 23.8942 54.3738 26.3862 52.0854L25.7099 51.3488C23.1872 53.6653 20.4778 56.4747 18.158 59.3741L18.9388 59.9989ZM14.4236 59.7079C15.6837 60.0022 17.0743 60.1559 18.5379 60.1864L18.5588 59.1866C17.1495 59.1572 15.8299 59.0094 14.6511 58.7341L14.4236 59.7079ZM10.5474 57.0822C10.9393 58.1385 11.9757 59.1362 14.4236 59.7079L14.6511 58.7341C12.3928 58.2067 11.7184 57.3637 11.4849 56.7343L10.5474 57.0822ZM11.3335 51.6842C10.2585 54.163 10.1154 55.9178 10.5474 57.0822L11.4849 56.7343C11.1871 55.9316 11.2129 54.4757 12.2509 52.0821L11.3335 51.6842ZM14.1808 46.6696C12.9562 48.4788 11.9953 50.1581 11.3335 51.6842L12.2509 52.0821C12.8807 50.6299 13.8068 49.0062 15.0089 47.2302L14.1808 46.6696ZM37.5416 40.4089C30.8276 43.6361 22.547 46.1161 14.5739 46.4503L14.6158 47.4495C22.752 47.1084 31.1658 44.5831 37.9748 41.3102L37.5416 40.4089ZM47.513 34.1334C44.9277 36.345 41.472 38.5196 37.5416 40.4089L37.9748 41.3102C41.9625 39.3933 45.4965 37.1744 48.1631 34.8933L47.513 34.1334ZM52.4122 27.1977C51.9704 29.5808 50.0325 31.9782 47.513 34.1334L48.1631 34.8933C50.7215 32.7048 52.8882 30.116 53.3954 27.38L52.4122 27.1977ZM51.146 20.8503C52.4695 22.5859 52.8443 24.8665 52.4122 27.1977L53.3954 27.38C53.866 24.8411 53.4747 22.2549 51.9412 20.2439L51.146 20.8503ZM45.0373 18.1009C47.6612 18.1197 49.8042 19.0906 51.146 20.8503L51.9412 20.2439C50.3773 18.1931 47.9162 17.1215 45.0445 17.1009L45.0373 18.1009ZM23.417 29.9669C32.0948 21.1619 39.891 18.0641 45.0373 18.1009L45.0445 17.1009C39.5257 17.0615 31.4859 20.3551 22.7047 29.265L23.417 29.9669ZM14.183 41.3647C16.7504 37.807 19.6535 33.7856 23.417 29.9669L22.7047 29.265C18.8802 33.1456 15.936 37.2267 13.3721 40.7796L14.183 41.3647ZM12.8551 43.1971C13.2889 42.6036 13.7309 41.9911 14.183 41.3647L13.3721 40.7796C12.9197 41.4064 12.4795 42.0164 12.0478 42.6069L12.8551 43.1971ZM10.7698 43.3502C11.3252 43.3803 11.8846 43.3974 12.4473 43.402L12.4555 42.402C11.9076 42.3975 11.3635 42.3809 10.824 42.3517L10.7698 43.3502ZM5.20998 41.2935C5.90002 42.249 7.4534 43.1704 10.7698 43.3502L10.824 42.3517C7.64134 42.1791 6.45461 41.3089 6.02068 40.708L5.20998 41.2935ZM4.9301 36.8691C4.36136 38.8928 4.5214 40.34 5.20998 41.2935L6.02068 40.708C5.58849 40.1095 5.36224 39.0275 5.8928 37.1396L4.9301 36.8691ZM10.0199 27.9697C7.68276 30.8842 5.70804 34.101 4.9301 36.8691L5.8928 37.1396C6.61742 34.5613 8.49609 31.4684 10.8 28.5954L10.0199 27.9697ZM24.3872 59.7368C26.909 59.323 29.4634 58.6399 31.828 57.7419L31.4729 56.8071C29.1722 57.6809 26.6825 58.3468 24.2252 58.75L24.3872 59.7368ZM28.4731 54.358C26.9761 55.7327 25.4198 57.2815 23.9369 58.9064L24.6755 59.5805C26.1376 57.9785 27.673 56.4504 29.1495 55.0946L28.4731 54.358ZM34.9259 49.3763C33.5925 50.053 31.1935 51.86 28.4731 54.358L29.1495 55.0946C31.8587 52.6068 34.174 50.8793 35.3784 50.268L34.9259 49.3763ZM40.206 48.3878C39.4237 48.0514 37.7909 47.9224 34.9259 49.3763L35.3784 50.268C38.1107 48.8815 39.4128 49.1352 39.8109 49.3065L40.206 48.3878ZM41.2645 49.9071C41.2645 49.3629 40.9558 48.7103 40.206 48.3878L39.8109 49.3065C40.1653 49.4589 40.2645 49.7306 40.2645 49.9071H41.2645ZM38.7955 53.886C40.5313 52.4137 41.2645 51.0428 41.2645 49.9071H40.2645C40.2645 50.6123 39.7916 51.7298 38.1486 53.1234L38.7955 53.886ZM31.828 57.7419C34.6599 56.6664 37.097 55.3267 38.7955 53.886L38.1486 53.1234C36.5638 54.4676 34.2375 55.7571 31.4729 56.8071L31.828 57.7419ZM17.908 43.0845C24.2733 42.3209 30.7422 40.2538 36.2049 37.628L35.7717 36.7267C30.3939 39.3117 24.0306 41.3428 17.7889 42.0916L17.908 43.0845ZM19.7201 39.3312C18.9396 40.3707 18.1972 41.3595 17.4593 42.2741L18.2376 42.902C18.9884 41.9714 19.7415 40.9682 20.5198 39.9316L19.7201 39.3312ZM25.6919 32.1248C23.3327 34.5186 21.4389 37.042 19.7201 39.3312L20.5198 39.9316C22.2426 37.637 24.0988 35.1659 26.4042 32.8267L25.6919 32.1248ZM45.0153 21.1863C41.2086 21.1591 34.2661 23.4249 25.6919 32.1248L26.4042 32.8267C34.8692 24.2377 41.5681 22.1617 45.0081 22.1863L45.0153 21.1863ZM48.6925 22.7212C48.0342 21.8579 46.8712 21.1996 45.0153 21.1863L45.0081 22.1863C46.6123 22.1977 47.459 22.7528 47.8973 23.3276L48.6925 22.7212ZM49.3784 26.6354C49.6912 24.948 49.3693 23.6088 48.6925 22.7212L47.8973 23.3276C48.3657 23.9418 48.6688 24.9767 48.3951 26.4531L49.3784 26.6354ZM45.5073 31.7888C46.7195 30.7519 47.6224 29.7873 48.2529 28.9273C48.8789 28.0735 49.2559 27.2963 49.3784 26.6354L48.3951 26.4531C48.3106 26.9092 48.0257 27.546 47.4464 28.3361C46.8717 29.12 46.0259 30.0293 44.8573 31.0289L45.5073 31.7888ZM36.2049 37.628C39.9585 35.8237 43.173 33.7857 45.5073 31.7888L44.8573 31.0289C42.6043 32.9562 39.4679 34.95 35.7717 36.7267L36.2049 37.628Z" fill="white"/>
<circle cx="95.8541" cy="52.1582" r="4.13143" fill="url(#paint0_linear_501_32)" stroke="#0E0E0F" stroke-width="2.3989"/>
<circle cx="12.1951" cy="22.5901" r="4.53125" fill="url(#paint1_linear_501_32)" stroke="#0E0E0F" stroke-width="2.66544"/>
<defs>
<linearGradient id="paint0_linear_501_32" x1="92.9602" y1="47.5243" x2="100.009" y2="53.5838" gradientUnits="userSpaceOnUse">
<stop stop-color="#7B00F7"/>
<stop offset="1" stop-color="#3FFFD1"/>
</linearGradient>
<linearGradient id="paint1_linear_501_32" x1="9.03815" y1="17.535" x2="16.7275" y2="24.1454" gradientUnits="userSpaceOnUse">
<stop stop-color="#7B00F7"/>
<stop offset="1" stop-color="#3FFFD1"/>
</linearGradient>
</defs>
</svg>
