<svg width="91" height="96" viewBox="0 0 91 96" fill="none" xmlns="http://www.w3.org/2000/svg">
<rect y="5.64746" width="90.3529" height="90.3529" rx="17.4545" fill="#B91B2E"/>
<rect width="90.3529" height="90.3529" rx="17.4545" fill="#ED2139"/>
<path d="M45 50C47.7614 50 50 47.7614 50 45C50 42.2386 47.7614 40 45 40C42.2386 40 40 42.2386 40 45C40 47.7614 42.2386 50 45 50Z" stroke="white" stroke-width="2.6" stroke-miterlimit="10" stroke-linecap="round" stroke-linejoin="round"/>
<path d="M58 40V50" stroke="white" stroke-width="2.6" stroke-miterlimit="10" stroke-linecap="round" stroke-linejoin="round"/>
<path d="M38.9999 57C38.9999 58.5 38.6062 59.92 37.9124 61.12C36.6187 63.44 34.2374 65 31.4999 65C28.7624 65 26.3811 63.44 25.0874 61.12C24.3936 59.92 23.9999 58.5 23.9999 57C23.9999 52.58 27.3561 49 31.4999 49C35.6436 49 38.9999 52.58 38.9999 57Z" stroke="white" stroke-width="2.6" stroke-miterlimit="10" stroke-linecap="round" stroke-linejoin="round"/>
<path d="M27.9999 56.9898L30.221 59L34.9999 55" stroke="white" stroke-width="2.6" stroke-linecap="round" stroke-linejoin="round"/>
<path d="M26 51.6V39C26 32 29.9 29 35.75 29H55.25C61.1 29 65 32 65 39V51C65 58 61.1 61 55.25 61H38.675" stroke="white" stroke-width="2.6" stroke-miterlimit="10" stroke-linecap="round" stroke-linejoin="round"/>
</svg>
