<svg width="29" height="23" viewBox="0 0 29 23" fill="none" xmlns="http://www.w3.org/2000/svg">
<path d="M9.59639 23C20.2755 23 26.1182 14.1503 26.1182 6.4782C26.1182 6.22942 26.1127 5.9751 26.1016 5.72631C27.2382 4.90436 28.219 3.88625 28.9981 2.71983C27.9395 3.19079 26.8157 3.49837 25.6648 3.63206C26.8766 2.90573 27.7839 1.76469 28.2185 0.420471C27.0786 1.09605 25.8319 1.5726 24.532 1.82972C23.6562 0.899082 22.4981 0.282888 21.2369 0.0764084C19.9758 -0.130071 18.6817 0.0846638 17.5548 0.687414C16.4279 1.29016 15.5309 2.24736 15.0026 3.411C14.4743 4.57465 14.344 5.87994 14.6319 7.12506C12.3237 7.00923 10.0655 6.40961 8.00394 5.36509C5.94232 4.32057 4.12323 2.85445 2.66458 1.06179C1.92322 2.33999 1.69636 3.85251 2.03011 5.29196C2.36386 6.7314 3.23318 7.98976 4.46139 8.81129C3.53932 8.78202 2.63746 8.53376 1.83031 8.08704V8.15891C1.82948 9.50028 2.29321 10.8005 3.14266 11.8387C3.99211 12.8768 5.17485 13.5887 6.48985 13.8534C5.6357 14.0871 4.73924 14.1212 3.86982 13.9529C4.24089 15.1065 4.96285 16.1155 5.93494 16.839C6.90704 17.5625 8.08076 17.9645 9.29232 17.9888C7.23546 19.6045 4.69464 20.4809 2.0791 20.4767C1.61525 20.476 1.15186 20.4476 0.691406 20.3916C3.34852 22.0963 6.43946 23.0016 9.59639 23Z" fill="white"/>
</svg>
