<svg width="21" height="20" viewBox="0 0 21 20" fill="none" xmlns="http://www.w3.org/2000/svg">
<path fill-rule="evenodd" clip-rule="evenodd" d="M14.8045 11.985C14.5562 11.8609 13.3387 11.2625 13.112 11.1792C12.8853 11.0967 12.7203 11.0559 12.5545 11.3042C12.3895 11.5509 11.9153 12.1092 11.7712 12.2742C11.6262 12.44 11.482 12.46 11.2345 12.3367C10.987 12.2117 10.1887 11.9509 9.24283 11.1075C8.50699 10.4509 8.00949 9.64003 7.86533 9.3917C7.72116 9.1442 7.84949 9.01003 7.97366 8.8867C8.08533 8.77587 8.22116 8.59753 8.34533 8.45337C8.46949 8.30837 8.51033 8.20504 8.59283 8.0392C8.67616 7.8742 8.63449 7.73003 8.57199 7.60587C8.51033 7.4817 8.01533 6.26253 7.80866 5.7667C7.60783 5.2842 7.40366 5.35003 7.25199 5.3417C7.10699 5.33503 6.94199 5.33337 6.77699 5.33337C6.61199 5.33337 6.34366 5.39503 6.11699 5.64337C5.88949 5.89087 5.25033 6.49003 5.25033 7.7092C5.25033 8.92754 6.13699 10.105 6.26116 10.2709C6.38533 10.4359 8.00699 12.9375 10.4912 14.01C11.0828 14.265 11.5437 14.4175 11.9028 14.5309C12.4962 14.72 13.0362 14.6934 13.4628 14.6292C13.9378 14.5584 14.9278 14.03 15.1345 13.4517C15.3403 12.8734 15.3403 12.3775 15.2787 12.2742C15.217 12.1709 15.052 12.1092 14.8037 11.985H14.8045ZM10.2862 18.1542H10.2828C8.80735 18.1545 7.35897 17.7578 6.08949 17.0059L5.78949 16.8275L2.67116 17.6459L3.50366 14.6059L3.30783 14.2942C2.48294 12.9812 2.0464 11.4615 2.04866 9.91087C2.05033 5.3692 5.74533 1.6742 10.2895 1.6742C12.4895 1.6742 14.5578 2.53253 16.1128 4.0892C16.8798 4.85302 17.4877 5.76134 17.9014 6.76162C18.3151 7.76189 18.5263 8.83427 18.5228 9.9167C18.5212 14.4584 14.8262 18.1542 10.2862 18.1542ZM17.2962 2.9067C16.378 1.98247 15.2855 1.24965 14.0821 0.750701C12.8786 0.251754 11.5881 -0.00339687 10.2853 3.4148e-05C4.82366 3.4148e-05 0.376992 4.44587 0.375326 9.91004C0.372795 11.649 0.828971 13.3579 1.69783 14.8642L0.291992 20L5.54533 18.6217C6.99855 19.4135 8.62707 19.8283 10.282 19.8284H10.2862C15.7478 19.8284 20.1945 15.3825 20.1962 9.91753C20.2002 8.61526 19.946 7.32512 19.4482 6.12173C18.9504 4.91834 18.219 3.82559 17.2962 2.9067Z" fill="#A7A7AE"/>
</svg>
