<svg width="54" height="54" viewBox="0 0 54 54" fill="none" xmlns="http://www.w3.org/2000/svg">
<circle cx="27" cy="27" r="27" fill="#F2F5FF"/>
<circle cx="27" cy="27" r="27" fill="url(#paint0_linear)"/>
<path d="M22.174 16.063L22.1878 16.7629L22.2006 16.7626L22.2133 16.7619L22.174 16.063ZM30.826 16.063L30.7867 16.7619L30.7994 16.7626L30.8122 16.7629L30.826 16.063ZM33.381 16.553L33.1349 17.2083L33.1359 17.2087L33.381 16.553ZM35.236 17.764L34.7343 18.2522L34.741 18.259L34.7478 18.2657L35.236 17.764ZM36.447 19.619L35.7913 19.8641L35.7917 19.8651L36.447 19.619ZM36.937 22.174L36.2371 22.1878L36.2374 22.2006L36.2381 22.2133L36.937 22.174ZM36.937 30.826L36.2381 30.7867L36.2374 30.7994L36.2371 30.8122L36.937 30.826ZM36.447 33.381L37.0993 33.6351L37.1023 33.6271L36.447 33.381ZM35.2359 35.2359L35.7309 35.7309L35.7309 35.7309L35.2359 35.2359ZM33.381 36.447L33.6271 37.1024L33.6351 37.0993L33.381 36.447ZM30.826 36.937L30.8122 36.2371L30.7994 36.2374L30.7867 36.2381L30.826 36.937ZM22.174 36.937L22.2046 36.2377L22.1962 36.2373L22.1878 36.2371L22.174 36.937ZM19.619 36.447L19.8651 35.7917L19.8641 35.7913L19.619 36.447ZM17.764 35.236L18.2657 34.7478L18.259 34.741L18.2522 34.7343L17.764 35.236ZM16.553 33.381L17.2087 33.1359L17.2083 33.1349L16.553 33.381ZM16.063 30.826L16.7629 30.8122L16.7626 30.7994L16.7619 30.7867L16.063 30.826ZM16.063 22.174L16.7619 22.2133L16.7626 22.2006L16.7629 22.1878L16.063 22.174ZM16.553 19.619L17.2083 19.8651L17.2087 19.8641L16.553 19.619ZM17.764 17.764L18.2522 18.2657L18.259 18.259L18.2657 18.2522L17.764 17.764ZM19.619 16.553L19.8641 17.2087L19.8651 17.2083L19.619 16.553ZM23.9332 22.6591L24.3221 23.2411V23.2411L23.9332 22.6591ZM29.7668 23.2336L29.2718 23.7286L29.2718 23.7286L29.7668 23.2336ZM30.3413 29.0672L30.9234 29.4561L30.3413 29.0672ZM28.2679 30.7688L28.5358 31.4155V31.4155L28.2679 30.7688ZM25.5986 31.0317L25.7352 30.3451L25.5986 31.0317ZM23.2331 29.7673L23.7281 29.2723L23.2331 29.7673ZM22.2316 24.7324L21.5849 24.4646L22.2316 24.7324ZM26.5 15.3C23.6551 15.3 23.2779 15.2998 22.1347 15.3641L22.2133 16.7619C23.3101 16.7002 23.6469 16.7 26.5 16.7V15.3ZM30.8653 15.3641C29.7221 15.2998 29.3449 15.3 26.5 15.3V16.7C29.3531 16.7 29.6899 16.7002 30.7867 16.7619L30.8653 15.3641ZM33.6271 15.8977C32.735 15.5627 31.7925 15.3819 30.8398 15.3631L30.8122 16.7629C31.6061 16.7785 32.3915 16.9292 33.1349 17.2083L33.6271 15.8977ZM35.7377 17.2758C35.1442 16.666 34.4231 16.1952 33.6261 15.8973L33.1359 17.2087C33.7392 17.4342 34.2851 17.7906 34.7343 18.2522L35.7377 17.2758ZM37.1027 19.3739C36.8048 18.5769 36.334 17.8558 35.7242 17.2623L34.7478 18.2657C35.2094 18.7149 35.5658 19.2608 35.7913 19.8641L37.1027 19.3739ZM37.6369 22.1602C37.6181 21.2075 37.4373 20.265 37.1023 19.3729L35.7917 19.8651C36.0708 20.6085 36.2215 21.3939 36.2371 22.1878L37.6369 22.1602ZM37.7 26.5C37.7 23.6551 37.7002 23.2779 37.6359 22.1347L36.2381 22.2133C36.2998 23.3101 36.3 23.6469 36.3 26.5H37.7ZM37.6359 30.8653C37.7002 29.7221 37.7 29.3449 37.7 26.5H36.3C36.3 29.3531 36.2998 29.6899 36.2381 30.7867L37.6359 30.8653ZM37.1023 33.6271C37.4373 32.735 37.6181 31.7925 37.6369 30.8398L36.2371 30.8122C36.2215 31.6061 36.0708 32.3915 35.7917 33.1349L37.1023 33.6271ZM35.7309 35.7309C36.3272 35.1346 36.7932 34.4209 37.0993 33.6351L35.7947 33.1269C35.559 33.7321 35.2002 34.2817 34.7409 34.7409L35.7309 35.7309ZM33.6351 37.0993C34.4209 36.7932 35.1346 36.3272 35.7309 35.7309L34.7409 34.7409C34.2817 35.2002 33.7321 35.559 33.1269 35.7947L33.6351 37.0993ZM30.8398 37.6369C31.7925 37.6181 32.735 37.4373 33.6271 37.1023L33.1349 35.7917C32.3915 36.0708 31.6061 36.2215 30.8122 36.2371L30.8398 37.6369ZM26.5 37.7C29.3449 37.7 29.7221 37.7002 30.8653 37.6359L30.7867 36.2381C29.6899 36.2998 29.3531 36.3 26.5 36.3V37.7ZM22.1434 37.6363C23.278 37.686 23.6465 37.7 26.5 37.7V36.3C23.6555 36.3 23.31 36.286 22.2046 36.2377L22.1434 37.6363ZM19.3729 37.1023C20.265 37.4373 21.2075 37.6181 22.1602 37.6369L22.1878 36.2371C21.3939 36.2215 20.6085 36.0708 19.8651 35.7917L19.3729 37.1023ZM17.2623 35.7242C17.8558 36.334 18.5769 36.8048 19.3739 37.1027L19.8641 35.7913C19.2608 35.5658 18.7149 35.2094 18.2657 34.7478L17.2623 35.7242ZM15.8973 33.6261C16.1952 34.4231 16.666 35.1442 17.2758 35.7377L18.2522 34.7343C17.7906 34.2851 17.4342 33.7392 17.2087 33.1359L15.8973 33.6261ZM15.3631 30.8398C15.3819 31.7925 15.5627 32.735 15.8977 33.6271L17.2083 33.1349C16.9292 32.3915 16.7785 31.6061 16.7629 30.8122L15.3631 30.8398ZM15.3 26.5C15.3 29.3449 15.2998 29.7221 15.3641 30.8653L16.7619 30.7867C16.7002 29.6899 16.7 29.3531 16.7 26.5H15.3ZM15.3641 22.1347C15.2998 23.2779 15.3 23.6551 15.3 26.5H16.7C16.7 23.6469 16.7002 23.3101 16.7619 22.2133L15.3641 22.1347ZM15.8977 19.3729C15.5627 20.265 15.3819 21.2075 15.3631 22.1602L16.7629 22.1878C16.7785 21.3939 16.9292 20.6085 17.2083 19.8651L15.8977 19.3729ZM17.2758 17.2623C16.666 17.8558 16.1952 18.5769 15.8973 19.3739L17.2087 19.8641C17.4342 19.2608 17.7906 18.7149 18.2522 18.2657L17.2758 17.2623ZM19.3739 15.8973C18.5769 16.1952 17.8558 16.666 17.2623 17.2758L18.2657 18.2522C18.7149 17.7906 19.2608 17.4342 19.8641 17.2087L19.3739 15.8973ZM22.1602 15.3631C21.2075 15.3819 20.265 15.5627 19.3729 15.8977L19.8651 17.2083C20.6085 16.9292 21.3939 16.7785 22.1878 16.7629L22.1602 15.3631ZM26.5 21.1804C25.4478 21.1804 24.4192 21.4925 23.5443 22.077L24.3221 23.2411C24.9668 22.8103 25.7246 22.5804 26.5 22.5804V21.1804ZM30.2618 22.7386C29.2641 21.7409 27.9109 21.1804 26.5 21.1804V22.5804C27.5396 22.5804 28.5367 22.9934 29.2718 23.7286L30.2618 22.7386ZM31.8199 26.5004C31.8199 25.0895 31.2595 23.7363 30.2618 22.7386L29.2718 23.7286C30.007 24.4637 30.4199 25.4608 30.4199 26.5004H31.8199ZM30.9234 29.4561C31.5079 28.5812 31.8199 27.5526 31.8199 26.5004H30.4199C30.4199 27.2757 30.19 28.0336 29.7593 28.6783L30.9234 29.4561ZM28.5358 31.4155C29.5079 31.0128 30.3388 30.3309 30.9234 29.4561L29.7593 28.6783C29.3286 29.3229 28.7164 29.8254 28.0001 30.122L28.5358 31.4155ZM25.4621 31.7182C26.494 31.9235 27.5637 31.8181 28.5358 31.4155L28.0001 30.122C27.2838 30.4187 26.4956 30.4964 25.7352 30.3451L25.4621 31.7182ZM22.7381 30.2622C23.4822 31.0063 24.4301 31.5129 25.4621 31.7182L25.7352 30.3451C24.9748 30.1939 24.2763 29.8205 23.7281 29.2723L22.7381 30.2622ZM21.2822 27.5383C21.4874 28.5703 21.9941 29.5182 22.7381 30.2622L23.7281 29.2723C23.1799 28.7241 22.8065 28.0256 22.6553 27.2652L21.2822 27.5383ZM21.5849 24.4646C21.1823 25.4367 21.0769 26.5063 21.2822 27.5383L22.6553 27.2652C22.504 26.5048 22.5816 25.7166 22.8783 25.0003L21.5849 24.4646ZM23.5443 22.077C22.6694 22.6616 21.9876 23.4925 21.5849 24.4646L22.8783 25.0003C23.175 24.284 23.6775 23.6718 24.3221 23.2411L23.5443 22.077Z" fill="#B3BDCC"/>
<path d="M33.8501 20.8373C33.8487 21.0859 33.7738 21.3286 33.6348 21.5347C33.4958 21.7408 33.299 21.9012 33.069 21.9957C32.8391 22.0902 32.5863 22.1146 32.3425 22.0658C32.0988 22.0169 31.8749 21.8971 31.6991 21.7213C31.5233 21.5455 31.4035 21.3216 31.3546 21.0778C31.3058 20.8341 31.3302 20.5813 31.4247 20.3514C31.5191 20.1214 31.6796 19.9246 31.8857 19.7856C32.0918 19.6466 32.3345 19.5717 32.5831 19.5703C32.7497 19.5694 32.9149 19.6015 33.069 19.6649C33.2232 19.7282 33.3632 19.8215 33.481 19.9394C33.5989 20.0572 33.6922 20.1972 33.7555 20.3514C33.8189 20.5055 33.851 20.6707 33.8501 20.8373Z" fill="#B3BDCC"/>
<defs>
<linearGradient id="paint0_linear" x1="27" y1="0" x2="27" y2="54" gradientUnits="userSpaceOnUse">
<stop stop-color="#F2F5FF"/>
<stop offset="1" stop-color="#ECF4FF"/>
</linearGradient>
</defs>
</svg>
