<svg width="23" height="25" viewBox="0 0 23 25" fill="none" xmlns="http://www.w3.org/2000/svg">
<path d="M5.30769 3.53846C5.30769 2.6 5.68049 1.69998 6.34408 1.03639C7.00767 0.372801 7.90769 0 8.84615 0H15.1835C15.8871 0.000619415 16.5617 0.280627 17.0589 0.778462L22.2215 5.93754C22.7194 6.43475 22.9994 7.10932 23 7.81292V21.2237C23 22.1621 22.6272 23.0622 21.9636 23.7258C21.3 24.3894 20.4 24.7622 19.4615 24.7622H14C14 23.9883 14 23.7712 14 22.9929H19.4615C19.9308 22.9929 20.3808 22.8065 20.7126 22.4747C21.0444 22.1429 21.2308 21.6929 21.2308 21.2237V8.84792H16.8077C16.1038 8.84792 15.4288 8.56832 14.9311 8.07063C14.4334 7.57294 14.1538 6.89792 14.1538 6.19408V1.76923H8.84615C8.37692 1.76923 7.92691 1.95563 7.59512 2.28743C7.26332 2.61922 7.07692 3.06923 7.07692 3.53846V12C6.46996 12 6.2354 12 5.30769 12V3.53846ZM15.9231 2.14077V6.19231C15.9231 6.42692 16.0163 6.65193 16.1822 6.81783C16.3481 6.98372 16.5731 7.07692 16.8077 7.07692H20.861L15.9231 2.14254V2.14077Z" fill="#ADB2C4"/>
<path d="M2 18.6624L5.66235 22.3247L13 15" stroke="#ADB2C4" stroke-width="1.94118" stroke-linecap="round" stroke-linejoin="round"/>
</svg>
