<svg width="54" height="54" viewBox="0 0 54 54" fill="none" xmlns="http://www.w3.org/2000/svg">
<circle cx="27" cy="27" r="27" fill="#F2F5FF"/>
<circle cx="27" cy="27" r="27" fill="url(#paint0_linear)"/>
<path d="M37.1692 21.731L37.1693 21.7313C37.3919 22.562 37.5122 23.8983 37.5733 25.0773C37.6033 25.6563 37.6183 26.18 37.6258 26.559C37.6296 26.7483 37.6315 26.9011 37.6324 27.0062C37.6329 27.0587 37.6331 27.0993 37.6332 27.1265L37.6333 27.1572L37.6333 27.1646V27.1663V27.1666V27.1667V27.1667V27.167V27.1687L37.6333 27.1762L37.6332 27.2068C37.6331 27.234 37.6329 27.2746 37.6324 27.3271C37.6315 27.4322 37.6296 27.585 37.6258 27.7744C37.6183 28.1534 37.6033 28.6771 37.5733 29.2561C37.5122 30.435 37.3919 31.7714 37.1693 32.602L37.1692 32.6024C37.0692 32.9764 36.8719 33.3183 36.5966 33.5936C36.3215 33.8687 35.9781 34.0676 35.6005 34.1701C35.2166 34.2724 34.482 34.3607 33.5377 34.4296C32.6119 34.4971 31.5406 34.5424 30.5197 34.5727C29.5 34.603 28.5362 34.6182 27.827 34.6258C27.4725 34.6295 27.182 34.6314 26.9803 34.6324C26.8794 34.6329 26.8008 34.6331 26.7475 34.6332L26.6869 34.6333L26.6716 34.6333L26.6678 34.6333H26.6669H26.6667L26.6667 35.3333L26.6666 34.6333H26.6664H26.6655L26.6617 34.6333L26.6464 34.6333L26.5859 34.6332C26.5326 34.6331 26.4539 34.6329 26.3531 34.6324C26.1513 34.6314 25.8608 34.6295 25.5063 34.6258C24.7971 34.6182 23.8333 34.603 22.8136 34.5727C21.7927 34.5424 20.7215 34.4971 19.7956 34.4296C18.8513 34.3607 18.1167 34.2724 17.7327 34.17C17.3552 34.0676 17.0119 33.8686 16.7368 33.5936C16.4615 33.3183 16.2642 32.9764 16.1641 32.6024L16.164 32.602C15.9414 31.7714 15.8212 30.435 15.76 29.2561C15.73 28.6771 15.715 28.1534 15.7075 27.7744C15.7037 27.585 15.7019 27.4322 15.7009 27.3271C15.7005 27.2746 15.7002 27.234 15.7001 27.2068L15.7 27.1762L15.7 27.1687L15.7 27.167L15.7 27.1667V27.1667V27.1666L15.7 27.1663L15.7 27.1646L15.7 27.1572L15.7001 27.1265C15.7002 27.0993 15.7005 27.0587 15.7009 27.0062C15.7019 26.9011 15.7037 26.7483 15.7075 26.559C15.715 26.18 15.73 25.6563 15.76 25.0773C15.8212 23.8983 15.9414 22.562 16.164 21.7313L16.1641 21.731C16.2642 21.3569 16.4615 21.0151 16.7368 20.7398C17.0118 20.4647 17.3551 20.2658 17.7326 20.1633C18.1165 20.061 18.8512 19.9726 19.7956 19.9038C20.7215 19.8363 21.7927 19.7909 22.8136 19.7606C23.8333 19.7303 24.7971 19.7152 25.5063 19.7076C25.8608 19.7038 26.1513 19.7019 26.3531 19.7009C26.4539 19.7005 26.5326 19.7002 26.5859 19.7001L26.6464 19.7L26.6617 19.7L26.6655 19.7L26.6664 19.7H26.6666L26.6667 19L26.6667 19.7H26.6669L26.6678 19.7L26.6716 19.7L26.6869 19.7L26.7475 19.7001C26.8008 19.7002 26.8794 19.7005 26.9803 19.7009C27.182 19.7019 27.4725 19.7038 27.827 19.7076C28.5362 19.7152 29.5 19.7303 30.5197 19.7606C31.5406 19.7909 32.6119 19.8363 33.5377 19.9038C34.4821 19.9726 35.2167 20.061 35.6007 20.1633C35.9782 20.2658 36.3215 20.4647 36.5966 20.7398C36.8719 21.0151 37.0692 21.3569 37.1692 21.731Z" stroke="#B3BDCC" stroke-width="1.4"/>
<path d="M24.3335 30.666V23.666L30.1668 27.166L24.3335 30.666Z" fill="#B3BDCC"/>
<defs>
<linearGradient id="paint0_linear" x1="27" y1="0" x2="27" y2="54" gradientUnits="userSpaceOnUse">
<stop stop-color="#F2F5FF"/>
<stop offset="1" stop-color="#ECF4FF"/>
</linearGradient>
</defs>
</svg>
