<svg width="24" height="24" viewBox="0 0 24 24" fill="none" xmlns="http://www.w3.org/2000/svg">
<g clip-path="url(#clip0_401:3497)">
<path d="M1.71978 6.92129L3.61278 5.02729L7.30578 8.71929C7.49438 8.90145 7.74698 9.00224 8.00918 8.99996C8.27137 8.99768 8.52219 8.89251 8.7076 8.70711C8.893 8.5217 8.99817 8.27089 9.00045 8.00869C9.00273 7.74649 8.90193 7.49389 8.71978 7.30529L5.02778 3.61229L6.92178 1.71929C7.06171 1.57932 7.15696 1.40097 7.19546 1.20683C7.23396 1.01269 7.21399 0.81149 7.13807 0.628709C7.06216 0.445927 6.93371 0.289783 6.76899 0.180052C6.60427 0.0703199 6.4107 0.0119341 6.21278 0.0122878L1.44878 0.0122874C1.06793 0.0122874 0.702674 0.163579 0.433371 0.432882C0.164069 0.702184 0.0127771 1.06744 0.012777 1.44829L0.0127766 6.21229C0.0124228 6.41021 0.0708086 6.60378 0.18054 6.7685C0.290272 6.93322 0.446416 7.06167 0.629197 7.13758C0.811978 7.2135 1.01318 7.23347 1.20732 7.19497C1.40146 7.15647 1.5798 7.06122 1.71978 6.92129Z" fill="#3066C1"/>
<path d="M18.9718 20.3878L17.0778 22.2818C16.9382 22.4218 16.8433 22.6001 16.805 22.794C16.7667 22.988 16.7867 23.189 16.8626 23.3716C16.9385 23.5541 17.0668 23.7101 17.2313 23.8198C17.3958 23.9295 17.5891 23.9879 17.7868 23.9878L22.5508 23.9878C22.9317 23.9878 23.2969 23.8365 23.5662 23.5672C23.8355 23.2979 23.9868 22.9326 23.9868 22.5518L23.9868 17.7878C23.987 17.59 23.9284 17.3965 23.8186 17.232C23.7088 17.0674 23.5527 16.9391 23.3699 16.8633C23.1872 16.7875 22.9861 16.7676 22.792 16.8062C22.598 16.8447 22.4197 16.9399 22.2798 17.0798L20.3868 18.9728L16.6948 15.2808C16.5062 15.0986 16.2536 14.9978 15.9914 15.0001C15.7292 15.0024 15.4784 15.1076 15.293 15.293C15.1076 15.4784 15.0024 15.7292 15.0001 15.9914C14.9979 16.2536 15.0987 16.5062 15.2808 16.6948L18.9718 20.3878Z" fill="#3066C1"/>
<path d="M22.564 0.000297421L17.8 0.000297004C17.6022 0.000141538 17.4087 0.0586704 17.2442 0.168478C17.0796 0.278286 16.9513 0.43444 16.8755 0.61718C16.7997 0.79992 16.7798 1.00104 16.8184 1.19508C16.8569 1.38913 16.9521 1.56739 17.092 1.7073L18.985 3.6003L15.293 7.2923C15.1054 7.4798 14.9999 7.73417 14.9998 7.99944C14.9997 8.26471 15.105 8.51916 15.2925 8.7068C15.48 8.89444 15.7344 8.99991 15.9996 9C16.2649 9.00009 16.5194 8.8948 16.707 8.7073L20.4 5.0153L22.293 6.9093C22.433 7.04923 22.6113 7.14448 22.8055 7.18298C22.9996 7.22148 23.2008 7.20151 23.3836 7.12559C23.5664 7.04968 23.7225 6.92123 23.8322 6.75651C23.942 6.59179 24.0004 6.39822 24 6.2003L24 1.4363C24 1.05545 23.8487 0.690194 23.5794 0.420892C23.3101 0.151589 22.9448 0.000297454 22.564 0.000297421Z" fill="#3066C1"/>
<path d="M1.42322 24.0122L6.18722 24.0122C6.38506 24.0124 6.5785 23.9538 6.74306 23.844C6.90762 23.7342 7.03592 23.5781 7.11171 23.3953C7.1875 23.2126 7.20739 23.0115 7.16886 22.8174C7.13032 22.6234 7.03509 22.4451 6.89522 22.3052L5.00222 20.4122L8.69422 16.7192C8.78973 16.627 8.86592 16.5166 8.91833 16.3946C8.97073 16.2726 8.99832 16.1414 8.99947 16.0086C9.00063 15.8758 8.97533 15.7442 8.92505 15.6213C8.87477 15.4984 8.80051 15.3867 8.70662 15.2928C8.61273 15.1989 8.50107 15.1247 8.37818 15.0744C8.25528 15.0241 8.1236 14.9988 7.99082 15C7.85804 15.0011 7.72682 15.0287 7.60482 15.0811C7.48282 15.1335 7.37247 15.2097 7.28022 15.3052L3.58722 18.9972L1.69322 17.1032C1.5532 16.9636 1.37494 16.8687 1.18097 16.8304C0.987002 16.7921 0.78603 16.8121 0.603454 16.888C0.420878 16.9639 0.264892 17.0922 0.155209 17.2567C0.0455261 17.4212 -0.0129313 17.6145 -0.0127758 17.8122L-0.0127762 22.5762C-0.0127763 22.9571 0.138516 23.3223 0.407818 23.5916C0.67712 23.8609 1.04237 24.0122 1.42322 24.0122Z" fill="#3066C1"/>
</g>
<defs>
<clipPath id="clip0_401:3497">
<rect width="24" height="24" fill="white"/>
</clipPath>
</defs>
</svg>
