<svg width="81" height="82" viewBox="0 0 81 82" fill="none" xmlns="http://www.w3.org/2000/svg">
<path d="M15.7753 4.90345L15.7753 4.90334C16.163 4.17234 16.5376 3.49989 16.8312 3.00272C16.9761 2.75738 17.1118 2.53692 17.2249 2.36869C17.2782 2.28933 17.3471 2.19072 17.422 2.09969C17.4559 2.05863 17.5243 1.97791 17.6178 1.8944C17.6637 1.8535 17.7512 1.77954 17.8735 1.70813C17.9693 1.65216 18.2477 1.5 18.6398 1.5C18.9935 1.5 19.3015 1.61082 19.4483 1.66682C19.6385 1.73938 19.8361 1.83308 20.0271 1.93185C20.4118 2.13081 20.8706 2.40319 21.3679 2.7181C22.368 3.35147 23.6141 4.2147 24.9053 5.15813C27.47 7.03208 30.3328 9.31035 31.8741 10.8325C38.8824 17.7528 41.0791 27.6422 38.253 37.7453C44.8193 32.2743 53.1515 29.2927 59.9097 30.411C62.7358 30.8785 67.4842 32.7475 71.4297 34.6342C73.4256 35.5886 75.2876 36.5817 76.6688 37.4561C77.3532 37.8894 77.9652 38.3219 78.4234 38.7302C78.6503 38.9324 78.8824 39.1662 79.0691 39.4258C79.2312 39.6513 79.5 40.0869 79.5 40.6585C79.5 41.075 79.3352 41.4251 79.2802 41.5421L79.2785 41.5457C79.1924 41.7289 79.0831 41.9193 78.9702 42.1017C78.7417 42.4709 78.4287 42.9192 78.0652 43.4112C77.3338 44.4012 76.3328 45.6559 75.2299 46.9776C73.0309 49.6128 70.353 52.6022 68.4929 54.3778L67.513 53.3512L68.4929 54.3778C64.853 57.852 61.9599 60.0243 58.4305 60.9239C54.9363 61.8146 51.0267 61.4017 45.5023 60.283C45.3834 60.2589 45.2684 60.2356 45.1572 60.213C45.0731 60.196 44.9911 60.1794 44.9113 60.1632C46.8247 63.3824 47.5515 66.5513 46.7813 69.533C45.9066 72.9196 43.2092 75.6415 39.1852 77.7385L39.1851 77.7385C38.2023 78.2506 36.7411 78.9158 35.4833 79.4494C34.8517 79.7172 34.2544 79.9591 33.7794 80.1366C33.5438 80.2247 33.3226 80.3027 33.135 80.3609C33.042 80.3898 32.941 80.4189 32.8414 80.4421C32.7708 80.4586 32.5913 80.4997 32.3839 80.5M15.7753 4.90345L32.3815 79M15.7753 4.90345C12.925 10.2782 10.8678 15.0245 9.639 19.1052C8.41667 23.1645 7.97678 26.6855 8.4927 29.5545C9.10161 32.9408 10.4697 35.4012 14.0551 40.1083L14.0552 40.1084M15.7753 4.90345L14.0552 40.1084M32.3839 80.5L32.3815 79M32.3839 80.5C32.3843 80.5 32.3847 80.5 32.3851 80.5L32.3815 79M32.3839 80.5C31.8037 80.5009 31.4285 80.1759 31.3596 80.1162L31.3548 80.1121C31.229 80.0039 31.1373 79.8931 31.0852 79.8267C30.9745 79.6856 30.8729 79.5248 30.7889 79.3836C30.6137 79.0889 30.4072 78.6955 30.1878 78.2536C29.7444 77.3605 29.1953 76.1619 28.6468 74.9049C27.5707 72.4388 26.4094 69.5488 26.0837 68.2689L27.5373 67.8989C28.1177 70.1793 31.967 79.001 32.3815 79M27.6646 53.0963L28.5903 53.9466C28.5115 54.1446 28.4353 54.3447 28.3618 54.5466C27.6469 55.2969 26.9192 55.9869 26.1737 56.6193C26.4142 55.6287 26.7119 54.6607 27.0648 53.7312C27.2657 53.5247 27.4655 53.3131 27.6646 53.0963ZM27.6646 53.0963L28.5904 53.9466C28.8074 53.4019 29.045 52.8729 29.3026 52.3635C29.2244 52.3319 29.1445 52.2917 29.0648 52.241C28.9311 52.1558 28.8219 52.0563 28.7337 51.952C28.4388 52.2591 28.0839 52.6398 27.6646 53.0963ZM14.0552 40.1084C14.2476 40.361 14.4277 40.597 14.5962 40.8177C14.7066 40.9625 14.812 41.1006 14.9126 41.2325L14.0552 40.1084Z" stroke="#F7E0C2" stroke-width="3"/>
</svg>
