<svg width="64" height="64" viewBox="0 0 64 64" fill="none" xmlns="http://www.w3.org/2000/svg">
<circle cx="32" cy="32" r="31.6032" stroke="#2B2F36" stroke-width="0.793651"/>
<path d="M24.5417 24.2217C27.7521 24.0673 30.2483 23.9934 32.0315 24.0001C33.8147 24.0067 36.3114 24.0992 39.5217 24.2782C40.3617 24.325 41.1569 24.6876 41.7594 25.2987C42.3619 25.9098 42.7309 26.7279 42.7978 27.601C42.938 29.4304 43.005 31.0414 42.9998 32.4345C42.9945 33.8444 42.9131 35.4771 42.7563 37.3331C42.6831 38.1957 42.3152 39.0025 41.7194 39.6067C41.1236 40.211 40.3394 40.5728 39.5093 40.6262C36.7632 40.8028 34.2495 40.8869 31.9685 40.8784C29.6874 40.8698 27.175 40.767 24.4326 40.5699C23.6032 40.5103 22.8219 40.143 22.2307 39.5347C21.6394 38.9263 21.2774 38.1173 21.2103 37.2545C21.0644 35.3835 20.9947 33.749 20.9999 32.3523C21.0051 30.9719 21.0852 29.3609 21.2409 27.5187C21.3146 26.6463 21.6898 25.8313 22.2968 25.225C22.9038 24.6186 23.7015 24.2621 24.5417 24.2217V24.2217Z" stroke="#2B2F36" stroke-opacity="0.5" stroke-width="1.8" stroke-linejoin="round"/>
<path d="M30.3168 30.3146L30.301 34.5519C30.3007 34.6265 30.3218 34.6998 30.362 34.764C30.4021 34.8282 30.46 34.8809 30.5293 34.9165C30.5986 34.9521 30.6768 34.9693 30.7556 34.9661C30.8343 34.963 30.9107 34.9398 30.9766 34.8988L34.3422 32.811C34.4023 32.7738 34.4518 32.7231 34.4863 32.6634C34.5207 32.6037 34.539 32.5369 34.5396 32.4688C34.5401 32.4008 34.5229 32.3337 34.4895 32.2735C34.456 32.2132 34.4074 32.1618 34.3478 32.1236L30.9976 29.9741C30.9321 29.9322 30.8558 29.9078 30.7769 29.9037C30.6979 29.8996 30.6193 29.9158 30.5493 29.9507C30.4794 29.9857 30.4208 30.0379 30.3799 30.1019C30.3389 30.1659 30.3171 30.2393 30.3168 30.3141L30.3168 30.3146Z" stroke="#2B2F36" stroke-opacity="0.5" stroke-width="1.8" stroke-linejoin="round"/>
</svg>
