<svg width="28" height="28" viewBox="0 0 28 28" fill="none" xmlns="http://www.w3.org/2000/svg">
<path d="M14.0003 9.51393C11.5302 9.51393 9.51429 11.5298 9.51429 14C9.51429 16.4702 11.5302 18.486 14.0003 18.486C16.4705 18.486 18.4864 16.4702 18.4864 14C18.4864 11.5298 16.4705 9.51393 14.0003 9.51393ZM27.4552 14C27.4552 12.1423 27.472 10.3014 27.3677 8.44711C27.2633 6.29326 26.772 4.38172 25.197 2.80672C23.6186 1.22835 21.7104 0.740374 19.5566 0.636047C17.6989 0.53172 15.858 0.548547 14.0037 0.548547C12.146 0.548547 10.3052 0.53172 8.45083 0.636047C6.29698 0.740374 4.38544 1.23172 2.81044 2.80672C1.23208 4.38509 0.744097 6.29326 0.63977 8.44711C0.535444 10.3048 0.552271 12.1457 0.552271 14C0.552271 15.8543 0.535444 17.6985 0.63977 19.5529C0.744097 21.7067 1.23544 23.6183 2.81044 25.1933C4.38881 26.7716 6.29698 27.2596 8.45083 27.3639C10.3085 27.4683 12.1494 27.4514 14.0037 27.4514C15.8614 27.4514 17.7023 27.4683 19.5566 27.3639C21.7104 27.2596 23.622 26.7683 25.197 25.1933C26.7753 23.6149 27.2633 21.7067 27.3677 19.5529C27.4753 17.6985 27.4552 15.8577 27.4552 14V14ZM14.0003 20.9024C10.1806 20.9024 7.09794 17.8197 7.09794 14C7.09794 10.1803 10.1806 7.09759 14.0003 7.09759C17.8201 7.09759 20.9028 10.1803 20.9028 14C20.9028 17.8197 17.8201 20.9024 14.0003 20.9024ZM21.1854 8.42691C20.2936 8.42691 19.5734 7.70672 19.5734 6.81489C19.5734 5.92307 20.2936 5.20287 21.1854 5.20287C22.0773 5.20287 22.7975 5.92307 22.7975 6.81489C22.7977 7.02666 22.7562 7.2364 22.6753 7.4321C22.5944 7.6278 22.4756 7.80561 22.3259 7.95536C22.1762 8.1051 21.9984 8.22383 21.8027 8.30475C21.607 8.38566 21.3972 8.42718 21.1854 8.42691V8.42691Z" fill="white"/>
</svg>
