<svg width="30" height="22" viewBox="0 0 30 22" fill="none" xmlns="http://www.w3.org/2000/svg">
<path d="M9.4377 22C20.7557 22 26.9479 13.5351 26.9479 6.19654C26.9479 5.95857 26.942 5.71531 26.9303 5.47734C28.1348 4.69112 29.1744 3.71728 30 2.60158C28.8782 3.05206 27.6871 3.34626 26.4674 3.47414C27.7516 2.77939 28.7132 1.68796 29.1738 0.402189C27.9657 1.04839 26.6445 1.50423 25.2668 1.75017C24.3385 0.859992 23.1112 0.270589 21.7746 0.0730863C20.438 -0.124416 19.0665 0.0809828 17.8722 0.657526C16.6779 1.23407 15.7272 2.14965 15.1673 3.2627C14.6074 4.37575 14.4693 5.62429 14.7744 6.81527C12.3281 6.70448 9.93492 6.13093 7.74998 5.13183C5.56503 4.13272 3.63712 2.73035 2.09121 1.01563C1.3055 2.23825 1.06507 3.68501 1.41879 5.06187C1.77251 6.43873 2.69383 7.64238 3.99551 8.42819C3.01829 8.40019 2.06247 8.16273 1.20703 7.73543V7.80418C1.20616 9.08722 1.69762 10.331 2.59789 11.3239C3.49815 12.3169 4.75165 12.9979 6.14531 13.2511C5.24007 13.4746 4.28998 13.5072 3.36855 13.3463C3.76182 14.4497 4.52697 15.4148 5.55721 16.1069C6.58746 16.7989 7.8314 17.1834 9.11543 17.2067C6.93553 18.7522 4.24272 19.5904 1.4707 19.5864C0.979109 19.5858 0.487999 19.5586 0 19.505C2.81607 21.1356 6.09191 22.0016 9.4377 22Z" fill="white"/>
</svg>
