<svg width="29" height="29" viewBox="0 0 29 29" fill="none" xmlns="http://www.w3.org/2000/svg">
<path d="M9.66797 2.41602V6.04102" stroke="white" stroke-width="1.5" stroke-miterlimit="10" stroke-linecap="round" stroke-linejoin="round"/>
<path d="M19.332 2.41602V6.04102" stroke="white" stroke-width="1.5" stroke-miterlimit="10" stroke-linecap="round" stroke-linejoin="round"/>
<path d="M4.23047 10.9844H24.7721" stroke="white" stroke-width="2" stroke-miterlimit="10" stroke-linecap="round" stroke-linejoin="round"/>
<path d="M26.5846 22.9583C26.5846 23.8646 26.3309 24.7225 25.8838 25.4475C25.0501 26.8492 23.5155 27.7917 21.7513 27.7917C20.5309 27.7917 19.4192 27.3446 18.5734 26.5833C18.1988 26.2692 17.8726 25.8825 17.6188 25.4475C17.1717 24.7225 16.918 23.8646 16.918 22.9583C16.918 20.2879 19.0809 18.125 21.7513 18.125C23.2013 18.125 24.4942 18.7654 25.3763 19.7683C26.1255 20.6262 26.5846 21.7379 26.5846 22.9583Z" stroke="white" stroke-width="2" stroke-miterlimit="10" stroke-linecap="round" stroke-linejoin="round"/>
<path d="M19.8672 22.9586L21.0634 24.1548L23.6372 21.7744" stroke="white" stroke-width="2" stroke-linecap="round" stroke-linejoin="round"/>
<path d="M25.375 10.2712V19.7686C24.4929 18.7657 23.2 18.1253 21.75 18.1253C19.0796 18.1253 16.9167 20.2882 16.9167 22.9587C16.9167 23.8649 17.1704 24.7228 17.6175 25.4478C17.8713 25.8828 18.1975 26.2695 18.5721 26.5837H9.66667C5.4375 26.5837 3.625 24.167 3.625 20.542V10.2712C3.625 6.64616 5.4375 4.22949 9.66667 4.22949H19.3333C23.5625 4.22949 25.375 6.64616 25.375 10.2712Z" stroke="white" stroke-width="2" stroke-miterlimit="10" stroke-linecap="round" stroke-linejoin="round"/>
<path d="M14.496 16.5544H14.5068" stroke="white" stroke-width="2" stroke-linecap="round" stroke-linejoin="round"/>
<path d="M10.0233 16.5544H10.0342" stroke="white" stroke-width="2" stroke-linecap="round" stroke-linejoin="round"/>
<path d="M10.0233 20.1794H10.0342" stroke="white" stroke-width="2" stroke-linecap="round" stroke-linejoin="round"/>
</svg>
