<svg width="68" height="68" viewBox="0 0 68 68" fill="none" xmlns="http://www.w3.org/2000/svg">
<rect width="68" height="68" rx="34" fill="#133752"/>
<path fill-rule="evenodd" clip-rule="evenodd" d="M32.8784 21.0507C25.1934 21.7712 19.8328 28.812 21.2185 36.3651C22.4162 42.8935 28.4884 47.5359 35.0634 46.9502C43.2087 46.2246 48.6846 38.3899 46.5279 30.5472C46.0565 28.8328 45.7019 28.2617 45.1091 28.2617C44.3976 28.2617 44.0419 28.881 44.343 29.5959C45.6514 32.7029 45.5696 35.9913 44.1099 38.9648C41.3692 44.548 34.6202 46.8551 29.0418 44.1155C23.7699 41.5265 21.3726 35.3921 23.4908 29.9114C25.5329 24.6277 31.3188 21.6645 36.8239 23.0832C37.8608 23.3504 39.0538 23.861 39.9206 24.4084L40.272 24.6303L39.459 24.6557C38.6067 24.6824 38.536 24.7 38.3073 24.9434C37.8892 25.3884 38.1084 26.1623 38.6991 26.3262C38.9638 26.3997 42.5862 26.4026 42.8493 26.3295C43.2368 26.222 43.4988 25.8896 43.4988 25.5057C43.4988 25.2156 42.614 21.4852 42.5038 21.311C42.3354 21.0445 42.2346 21.0013 41.7787 21.0001C41.3658 20.999 41.3498 21.0035 41.1867 21.1666C40.8899 21.4632 40.8705 21.645 41.0535 22.4192C41.1407 22.7883 41.2121 23.11 41.2121 23.1341C41.2121 23.1582 41.0235 23.0607 40.7929 22.9175C38.5383 21.5171 35.5132 20.8036 32.8784 21.0507ZM28.9123 29.6968C28.2074 29.9436 28.0782 30.7844 28.677 31.2282C28.8129 31.3289 28.8991 31.3357 30.3285 31.3598L31.8367 31.3852V32.2486V33.112L30.3884 33.1374C28.2417 33.175 28.3875 33.0012 28.3654 35.5498C28.3471 37.6601 28.3545 37.747 28.5744 37.9974C28.8547 38.3164 28.8647 38.3178 30.9483 38.3178C33.0262 38.3178 32.9827 38.3239 33.2739 37.9924C33.643 37.5723 33.486 36.9304 32.9546 36.6865C32.774 36.6036 32.6027 36.5931 31.4174 36.5921L30.0835 36.591V35.7305V34.87L31.5229 34.8544L32.9623 34.8388L33.1664 34.7036C33.5401 34.4564 33.539 34.4639 33.539 32.2357C33.539 29.5106 33.6766 29.6839 31.5115 29.6835C30.7122 29.6834 29.8409 29.6721 29.5754 29.6585C29.26 29.6423 29.0301 29.6556 28.9123 29.6968ZM38.5759 29.6882C38.3622 29.7333 38.1719 29.8715 38.0234 30.0896C37.9115 30.254 37.9091 30.2876 37.9091 31.7018V33.1461L37.3335 33.1291C36.275 33.0977 36.171 32.9445 36.132 31.3598C36.1062 30.3098 36.1005 30.2613 35.9831 30.0968C35.6558 29.6382 34.9284 29.6382 34.6011 30.0968C34.4373 30.3263 34.3861 32.4219 34.5319 32.9234C34.8915 34.1596 35.7755 34.7902 37.2335 34.8506L37.9046 34.8784L37.9196 36.2847L37.9345 37.6911L38.0809 37.8828C38.4676 38.3892 39.2552 38.3116 39.5321 37.74C39.684 37.4266 39.6757 30.3854 39.5232 30.1068C39.354 29.7975 38.9348 29.6123 38.5759 29.6882Z" fill="#6D9ABC"/>
</svg>
