<svg width="90" height="99" viewBox="0 0 90 99" fill="none" xmlns="http://www.w3.org/2000/svg">
<path d="M89.032 44.1376C89.032 68.5141 69.1015 88.2752 44.5159 88.2752C19.9303 88.2752 -0.000244141 68.5141 -0.000244141 44.1376C-0.000244141 19.7611 19.9303 0 44.5159 0C69.1015 0 89.032 19.7611 89.032 44.1376Z" fill="#0E0E0F"/>
<path d="M44.5159 98.3065C44.5159 94.2939 40.469 90.2814 34.3986 87.1303H54.6332C48.5628 90.2814 44.5159 94.2939 44.5159 98.3065Z" fill="#0E0E0F"/>
<path fill-rule="evenodd" clip-rule="evenodd" d="M59.6936 19.4504C57.5219 18.594 53.8594 18.8841 49.3773 20.7447C45.4074 22.3927 40.6318 25.3352 35.3492 30.1198C36.1569 30.4528 36.8035 31.0515 37.193 31.8337C37.2174 31.8829 37.2405 31.9324 37.2625 31.9822C42.3081 27.4337 46.7866 24.7053 50.399 23.2057C54.6558 21.4386 57.5097 21.4535 58.7161 21.9292C61.2017 22.9094 61.6148 25.4673 60.5572 27.186C60.1715 27.8126 60.3669 28.6332 60.9936 29.0189C61.6202 29.4045 62.4408 29.2091 62.8265 28.5825C64.6111 25.6825 63.9643 21.1346 59.6936 19.4504ZM32.568 36.7849C31.7125 36.4613 31.0276 35.8455 30.6217 35.0305C30.6138 35.0146 30.6061 34.9986 30.5984 34.9827C28.885 37.0948 27.3697 39.5221 26.7429 41.7522C26.2858 43.3785 26.2278 45.1814 27.2809 46.6396C28.2599 47.9954 29.9523 48.7102 32.1712 48.9107C31.7142 49.6778 31.3297 50.4146 31.0251 51.1171C30.2386 52.9307 29.8692 54.7747 30.4654 56.3815C31.0955 58.0801 32.6303 59.0852 34.6542 59.5579C35.1009 59.6622 35.5645 59.7437 36.0413 59.8039C35.0742 61.316 34.334 62.8622 34.093 64.2897C33.9168 65.3326 33.9874 66.4332 34.5616 67.4059C35.1422 68.3893 36.1173 69.0388 37.3428 69.4075C38.5933 69.7839 40.2276 69.6778 41.9044 69.1743C43.6144 68.6608 45.4903 67.6997 47.27 66.2101C47.8342 65.7378 47.9088 64.8975 47.4365 64.3333C46.9642 63.7691 46.124 63.6945 45.5597 64.1668C44.0502 65.4303 42.4939 66.2152 41.1381 66.6223C39.749 67.0394 38.6838 67.0285 38.1106 66.856C37.3336 66.6222 37.0062 66.3053 36.8561 66.0512C36.6998 65.7863 36.6115 65.3781 36.7204 64.7334C36.9348 63.4633 37.831 61.7721 39.2022 59.9123C41.9509 59.7857 44.8561 59.1384 47.3675 58.1845C49.3721 57.4232 51.2205 56.4321 52.5942 55.2669C53.9367 54.1282 55.0304 52.6416 55.0304 50.8885C55.0304 49.7026 54.364 48.3681 52.9255 47.7494C51.5118 47.1414 49.6711 47.3549 47.4995 48.4569C46.3287 49.0511 44.5686 50.4151 42.7675 52.069C41.1322 53.5707 39.377 55.3909 37.8762 57.2667C36.9392 57.2472 36.0555 57.1489 35.2601 56.9631C33.7254 56.6047 33.1675 56.0044 32.9635 55.4547C32.7256 54.8132 32.7806 53.7662 33.4697 52.1773C33.8909 51.2061 34.5063 50.1289 35.2976 48.9598C40.551 48.7396 45.9951 47.1073 50.405 44.9875C52.9872 43.7464 55.2665 42.3136 56.9792 40.8485C58.6351 39.432 59.9737 37.806 60.2831 36.1366C60.5775 34.5484 60.3277 32.9613 59.396 31.7395C58.4484 30.4969 56.947 29.8308 55.1549 29.818C51.6769 29.7932 46.5127 31.8774 40.8192 37.6544C38.3447 40.1651 36.4379 42.8074 34.7646 45.1262C34.4696 45.5349 34.1819 45.9336 33.8997 46.3197C33.5375 46.3167 33.1776 46.3057 32.8206 46.2864C30.7012 46.1715 29.8076 45.5872 29.4411 45.0796C29.0756 44.5735 28.9496 43.7487 29.3081 42.4732C29.7981 40.7297 31.0546 38.6722 32.568 36.7849ZM46.4215 55.6936C44.9001 56.2714 43.2552 56.7113 41.6315 56.9777C42.5918 55.9254 43.6001 54.9221 44.5698 54.0316C46.3404 52.4057 47.8777 51.2531 48.7053 50.8331C50.5306 49.9068 51.4877 50.0316 51.8727 50.1972C52.2327 50.352 52.3658 50.6535 52.3658 50.8885C52.3658 51.4888 51.9724 52.3003 50.8706 53.2349C49.7999 54.143 48.2465 55.0004 46.4215 55.6936ZM49.2507 42.586C45.7155 44.2853 41.5309 45.6217 37.4197 46.1149C37.9051 45.5132 38.3928 44.8636 38.9012 44.1865C40.0235 42.6917 41.2464 41.063 42.7675 39.5196C48.3241 33.8815 52.7726 32.4656 55.1358 32.4825C56.2642 32.4906 56.9196 32.8863 57.2772 33.3553C57.6506 33.845 57.8544 34.6192 57.6632 35.651C57.5281 36.3795 56.7998 37.4954 55.2471 38.8237C53.7511 40.1034 51.6801 41.4182 49.2507 42.586Z" fill="white"/>
<path d="M49.3773 20.7447L49.2588 20.4593L49.3773 20.7447ZM59.6936 19.4504L59.5802 19.738L59.6936 19.4504ZM35.3492 30.1198L35.1417 29.8907L34.7792 30.2191L35.2314 30.4055L35.3492 30.1198ZM37.193 31.8337L37.4699 31.6964L37.4697 31.6959L37.193 31.8337ZM37.2625 31.9822L36.9797 32.1069L37.1521 32.4978L37.4695 32.2118L37.2625 31.9822ZM50.399 23.2057L50.2804 22.9202L50.399 23.2057ZM58.7161 21.9292L58.8295 21.6417V21.6417L58.7161 21.9292ZM60.5572 27.186L60.2939 27.024V27.024L60.5572 27.186ZM60.9936 29.0189L61.1556 28.7556H61.1556L60.9936 29.0189ZM62.8265 28.5825L63.0897 28.7445V28.7445L62.8265 28.5825ZM30.6217 35.0305L30.3448 35.1678L30.345 35.1683L30.6217 35.0305ZM32.568 36.7849L32.8091 36.9783L33.0753 36.6464L32.6774 36.4958L32.568 36.7849ZM30.5984 34.9827L30.8773 34.8494L30.6665 34.4082L30.3584 34.7879L30.5984 34.9827ZM26.7429 41.7522L27.0405 41.8359L26.7429 41.7522ZM27.2809 46.6396L27.5315 46.4587H27.5315L27.2809 46.6396ZM32.1712 48.9107L32.4368 49.0689L32.688 48.6471L32.199 48.6029L32.1712 48.9107ZM31.0251 51.1171L30.7415 50.9941L31.0251 51.1171ZM30.4654 56.3815L30.1756 56.4891L30.4654 56.3815ZM34.6542 59.5579L34.5839 59.8589H34.5839L34.6542 59.5579ZM36.0413 59.8039L36.3017 59.9704L36.5652 59.5584L36.08 59.4972L36.0413 59.8039ZM34.093 64.2897L33.7882 64.2382L34.093 64.2897ZM34.5616 67.4059L34.8278 67.2488L34.5616 67.4059ZM37.3428 69.4075L37.4319 69.1116H37.4319L37.3428 69.4075ZM41.9044 69.1743L41.9933 69.4704L41.9044 69.1743ZM47.27 66.2101L47.0716 65.9731L47.27 66.2101ZM45.5597 64.1668L45.3613 63.9298L45.3613 63.9298L45.5597 64.1668ZM41.1381 66.6223L41.0492 66.3263L41.1381 66.6223ZM38.1106 66.856L38.0216 67.152L38.0216 67.152L38.1106 66.856ZM36.8561 66.0512L37.1223 65.8941L37.1223 65.8941L36.8561 66.0512ZM36.7204 64.7334L37.0251 64.7849L36.7204 64.7334ZM39.2022 59.9123L39.188 59.6035L39.0408 59.6103L38.9534 59.7289L39.2022 59.9123ZM47.3675 58.1845L47.4773 58.4735L47.3675 58.1845ZM52.5942 55.2669L52.3942 55.0312L52.5942 55.2669ZM52.9255 47.7494L52.8033 48.0333L52.9255 47.7494ZM47.4995 48.4569L47.6394 48.7326L47.4995 48.4569ZM42.7675 52.069L42.5585 51.8413L42.7675 52.069ZM37.8762 57.2667L37.8697 57.5758L38.0222 57.5789L38.1175 57.4598L37.8762 57.2667ZM35.2601 56.9631L35.1898 57.2641L35.2601 56.9631ZM32.9635 55.4547L32.6738 55.5622L32.9635 55.4547ZM33.4697 52.1773L33.7533 52.3003V52.3003L33.4697 52.1773ZM35.2976 48.9598L35.2847 48.6509L35.129 48.6575L35.0416 48.7865L35.2976 48.9598ZM50.405 44.9875L50.2711 44.709L50.405 44.9875ZM56.9792 40.8485L56.7783 40.6136H56.7783L56.9792 40.8485ZM60.2831 36.1366L60.587 36.193L60.2831 36.1366ZM59.396 31.7395L59.1502 31.927L59.1502 31.927L59.396 31.7395ZM55.1549 29.818L55.1571 29.5089L55.1549 29.818ZM40.8192 37.6544L41.0394 37.8713L40.8192 37.6544ZM34.7646 45.1262L34.5139 44.9453L34.7646 45.1262ZM33.8997 46.3197L33.8971 46.6288L34.0556 46.6301L34.1492 46.5021L33.8997 46.3197ZM32.8206 46.2864L32.8373 45.9777H32.8373L32.8206 46.2864ZM29.4411 45.0796L29.6917 44.8987H29.6917L29.4411 45.0796ZM29.3081 42.4732L29.0105 42.3895L29.3081 42.4732ZM41.6315 56.9777L41.4032 56.7694L40.8031 57.4269L41.6815 57.2828L41.6315 56.9777ZM46.4215 55.6936L46.3117 55.4046L46.4215 55.6936ZM44.5698 54.0316L44.7788 54.2593L44.5698 54.0316ZM48.7053 50.8331L48.5655 50.5574L48.7053 50.8331ZM51.8727 50.1972L51.7506 50.4811L51.7506 50.4811L51.8727 50.1972ZM50.8706 53.2349L51.0705 53.4706L50.8706 53.2349ZM37.4197 46.1149L37.1791 45.9208L36.7019 46.5123L37.4565 46.4218L37.4197 46.1149ZM49.2507 42.586L49.1167 42.3074L49.2507 42.586ZM38.9012 44.1865L38.654 44.001V44.001L38.9012 44.1865ZM42.7675 39.5196L42.9877 39.7365L42.7675 39.5196ZM55.1358 32.4825L55.138 32.1735H55.138L55.1358 32.4825ZM57.2772 33.3553L57.523 33.1679H57.523L57.2772 33.3553ZM57.6632 35.651L57.3593 35.5946V35.5946L57.6632 35.651ZM55.2471 38.8237L55.0462 38.5888L55.2471 38.8237ZM49.4958 21.0302C53.9519 19.1804 57.5206 18.9257 59.5802 19.738L59.807 19.1629C57.5233 18.2623 53.7669 18.5879 49.2588 20.4593L49.4958 21.0302ZM35.5567 30.3489C40.818 25.5836 45.5642 22.6623 49.4958 21.0302L49.2588 20.4593C45.2507 22.1232 40.4456 25.0868 35.1417 29.8907L35.5567 30.3489ZM37.4697 31.6959C37.0465 30.8462 36.3432 30.1953 35.467 29.834L35.2314 30.4055C35.9706 30.7103 36.5604 31.2568 36.9163 31.9715L37.4697 31.6959ZM37.5453 31.8574C37.5215 31.8034 37.4963 31.7497 37.4699 31.6964L36.9161 31.971C36.9384 32.016 36.9596 32.0613 36.9797 32.1069L37.5453 31.8574ZM50.2804 22.9202C46.6301 24.4356 42.1224 27.185 37.0555 31.7526L37.4695 32.2118C42.4938 27.6824 46.9431 24.975 50.5175 23.4912L50.2804 22.9202ZM58.8295 21.6417C58.1612 21.3782 57.0897 21.2586 55.6668 21.4193C54.237 21.5807 52.4311 22.0274 50.2804 22.9202L50.5175 23.4912C52.6237 22.6168 54.3731 22.1874 55.7361 22.0335C57.106 21.8788 58.0646 22.0046 58.6027 22.2168L58.8295 21.6417ZM60.8204 27.348C61.9649 25.4882 61.518 22.7019 58.8295 21.6417L58.6027 22.2168C60.8853 23.1169 61.2647 25.4464 60.2939 27.024L60.8204 27.348ZM61.1556 28.7556C60.6743 28.4595 60.5242 27.8292 60.8204 27.348L60.2939 27.024C59.8188 27.796 60.0595 28.807 60.8316 29.2821L61.1556 28.7556ZM62.5632 28.4205C62.2671 28.9017 61.6368 29.0518 61.1556 28.7556L60.8316 29.2821C61.6036 29.7572 62.6146 29.5165 63.0897 28.7445L62.5632 28.4205ZM59.5802 19.738C63.6415 21.3395 64.2649 25.6552 62.5632 28.4205L63.0897 28.7445C64.9572 25.7098 64.2871 20.9296 59.807 19.1629L59.5802 19.738ZM30.345 35.1683C30.786 36.0538 31.5311 36.7232 32.4586 37.074L32.6774 36.4958C31.8939 36.1995 31.2692 35.6372 30.8984 34.8927L30.345 35.1683ZM30.3195 35.1159C30.3278 35.1332 30.3362 35.1505 30.3448 35.1678L30.8986 34.8932C30.8914 34.8787 30.8843 34.8641 30.8773 34.8494L30.3195 35.1159ZM27.0405 41.8359C27.6508 39.6643 29.1365 37.2755 30.8385 35.1774L30.3584 34.7879C28.6335 36.9142 27.0886 39.3798 26.4453 41.6686L27.0405 41.8359ZM27.5315 46.4587C26.5584 45.1112 26.5947 43.4221 27.0405 41.8359L26.4453 41.6686C25.977 43.3349 25.8972 45.2515 27.0303 46.8206L27.5315 46.4587ZM32.199 48.6029C30.0236 48.4063 28.4362 47.7116 27.5315 46.4587L27.0303 46.8206C28.0836 48.2792 29.8809 49.0141 32.1434 49.2185L32.199 48.6029ZM31.3087 51.2401C31.6071 50.552 31.9851 49.827 32.4368 49.0689L31.9057 48.7525C31.4433 49.5286 31.0524 50.2773 30.7415 50.9941L31.3087 51.2401ZM30.7551 56.274C30.2006 54.7793 30.5334 53.0278 31.3087 51.2401L30.7415 50.9941C29.9438 52.8336 29.5378 54.7702 30.1756 56.4891L30.7551 56.274ZM34.7244 59.2569C32.7564 58.7973 31.3356 57.8387 30.7551 56.274L30.1756 56.4891C30.8554 58.3215 32.5042 59.3732 34.5839 59.8589L34.7244 59.2569ZM36.08 59.4972C35.6128 59.4383 35.1598 59.3586 34.7244 59.2569L34.5839 59.8589C35.0419 59.9659 35.5161 60.0492 36.0026 60.1105L36.08 59.4972ZM34.3978 64.3412C34.6288 62.9731 35.344 61.468 36.3017 59.9704L35.7809 59.6373C34.8045 61.1641 34.0393 62.7512 33.7882 64.2382L34.3978 64.3412ZM34.8278 67.2488C34.3021 66.3584 34.2294 65.3382 34.3978 64.3412L33.7882 64.2382C33.6043 65.3271 33.6726 66.5081 34.2955 67.563L34.8278 67.2488ZM37.4319 69.1116C36.2581 68.7584 35.3583 68.1474 34.8278 67.2488L34.2955 67.563C34.9261 68.6313 35.9766 69.3192 37.2537 69.7035L37.4319 69.1116ZM41.8155 68.8783C40.172 69.3718 38.6038 69.4642 37.4319 69.1116L37.2537 69.7035C38.5829 70.1035 40.2832 69.9839 41.9933 69.4704L41.8155 68.8783ZM47.0716 65.9731C45.3233 67.4364 43.4844 68.3771 41.8155 68.8783L41.9933 69.4704C43.7444 68.9445 45.6574 67.9629 47.4684 66.4471L47.0716 65.9731ZM47.1995 64.5317C47.5622 64.965 47.5049 65.6103 47.0716 65.9731L47.4684 66.4471C48.1635 65.8652 48.2554 64.8301 47.6735 64.1349L47.1995 64.5317ZM45.7581 64.4038C46.1915 64.0411 46.8368 64.0984 47.1995 64.5317L47.6735 64.1349C47.0917 63.4398 46.0565 63.3479 45.3613 63.9298L45.7581 64.4038ZM41.227 66.9183C42.6239 66.4989 44.2173 65.6935 45.7581 64.4038L45.3613 63.9298C43.8831 65.167 42.3639 65.9315 41.0492 66.3263L41.227 66.9183ZM38.0216 67.152C38.6733 67.3481 39.8044 67.3455 41.227 66.9183L41.0492 66.3263C39.6936 66.7333 38.6944 66.7089 38.1997 66.56L38.0216 67.152ZM36.59 66.2083C36.7897 66.5466 37.1918 66.9023 38.0216 67.152L38.1997 66.56C37.4754 66.342 37.2227 66.0641 37.1223 65.8941L36.59 66.2083ZM36.4156 64.6819C36.2988 65.3735 36.3854 65.8618 36.59 66.2083L37.1223 65.8941C37.0141 65.7109 36.9242 65.3827 37.0251 64.7849L36.4156 64.6819ZM38.9534 59.7289C37.576 61.5971 36.6427 63.3371 36.4156 64.6819L37.0251 64.7849C37.227 63.5896 38.086 61.9471 39.451 60.0957L38.9534 59.7289ZM47.2578 57.8956C44.7742 58.8388 41.9012 59.4786 39.188 59.6035L39.2164 60.221C42.0006 60.0929 44.938 59.4379 47.4773 58.4735L47.2578 57.8956ZM52.3942 55.0312C51.0557 56.1665 49.2415 57.1422 47.2578 57.8956L47.4773 58.4735C49.5027 57.7043 51.3853 56.6976 52.7941 55.5026L52.3942 55.0312ZM54.7213 50.8885C54.7213 52.5076 53.7093 53.9158 52.3942 55.0312L52.7941 55.5026C54.1642 54.3406 55.3394 52.7757 55.3394 50.8885H54.7213ZM52.8033 48.0333C54.1161 48.5979 54.7213 49.8121 54.7213 50.8885H55.3394C55.3394 49.593 54.6119 48.1382 53.0476 47.4654L52.8033 48.0333ZM47.6394 48.7326C49.7713 47.6507 51.5094 47.4768 52.8033 48.0333L53.0476 47.4654C51.5143 46.806 49.5709 47.0592 47.3596 48.1813L47.6394 48.7326ZM42.9766 52.2966C44.7741 50.6461 46.5084 49.3065 47.6394 48.7326L47.3596 48.1813C46.1491 48.7957 44.3632 50.1841 42.5585 51.8413L42.9766 52.2966ZM38.1175 57.4598C39.6068 55.5984 41.3507 53.7896 42.9766 52.2966L42.5585 51.8413C40.9137 53.3517 39.1472 55.1833 37.6348 57.0736L38.1175 57.4598ZM35.1898 57.2641C36.0102 57.4557 36.916 57.5558 37.8697 57.5758L37.8826 56.9577C36.9625 56.9385 36.1007 56.842 35.3304 56.6621L35.1898 57.2641ZM32.6738 55.5622C32.9267 56.2439 33.5965 56.892 35.1898 57.2641L35.3304 56.6621C33.8543 56.3174 33.4083 55.7649 33.2533 55.3472L32.6738 55.5622ZM33.1861 52.0543C32.4856 53.6696 32.3943 54.8089 32.6738 55.5622L33.2533 55.3472C33.0568 54.8175 33.0756 53.8628 33.7533 52.3003L33.1861 52.0543ZM35.0416 48.7865C34.2434 49.9659 33.6172 51.0602 33.1861 52.0543L33.7533 52.3003C34.1646 51.3519 34.7692 50.2919 35.5536 49.133L35.0416 48.7865ZM50.2711 44.709C45.8906 46.8146 40.4876 48.4329 35.2847 48.6509L35.3106 49.2686C40.6143 49.0463 46.0996 47.4 50.5389 45.2661L50.2711 44.709ZM56.7783 40.6136C55.0908 42.0572 52.8355 43.4763 50.2711 44.709L50.5389 45.2661C53.1388 44.0164 55.4423 42.57 57.1801 41.0834L56.7783 40.6136ZM59.9792 36.0803C59.69 37.6405 58.4221 39.2074 56.7783 40.6136L57.1801 41.0834C58.8481 39.6566 60.2574 37.9714 60.587 36.193L59.9792 36.0803ZM59.1502 31.927C60.017 33.0636 60.2617 34.5563 59.9792 36.0803L60.587 36.193C60.8933 34.5406 60.6384 32.8591 59.6418 31.5521L59.1502 31.927ZM55.1527 30.1271C56.8682 30.1394 58.2713 30.7744 59.1502 31.927L59.6418 31.5521C58.6256 30.2195 57.0259 29.5223 55.1571 29.5089L55.1527 30.1271ZM41.0394 37.8713C46.7009 32.1268 51.7898 30.1031 55.1527 30.1271L55.1571 29.5089C51.564 29.4832 46.3245 31.628 40.5991 37.4374L41.0394 37.8713ZM35.0152 45.3071C36.6897 42.9868 38.5837 40.363 41.0394 37.8713L40.5991 37.4374C38.1057 39.9673 36.1862 42.628 34.5139 44.9453L35.0152 45.3071ZM34.1492 46.5021C34.4321 46.1151 34.7204 45.7156 35.0152 45.3071L34.5139 44.9453C34.2189 45.3542 33.9317 45.7521 33.6501 46.1373L34.1492 46.5021ZM32.8038 46.595C33.1658 46.6146 33.5304 46.6257 33.8971 46.6288L33.9022 46.0106C33.5446 46.0077 33.1894 45.9968 32.8373 45.9777L32.8038 46.595ZM29.1905 45.2606C29.6362 45.8778 30.6431 46.4779 32.8038 46.595L32.8373 45.9777C30.7593 45.8651 29.979 45.2966 29.6917 44.8987L29.1905 45.2606ZM29.0105 42.3895C28.6403 43.7071 28.7458 44.6448 29.1905 45.2606L29.6917 44.8987C29.4054 44.5023 29.259 43.7904 29.6057 42.5568L29.0105 42.3895ZM32.3269 36.5916C30.8032 38.4916 29.517 40.5875 29.0105 42.3895L29.6057 42.5568C30.0792 40.872 31.306 38.8528 32.8091 36.9783L32.3269 36.5916ZM41.6815 57.2828C43.3252 57.013 44.9901 56.5678 46.5312 55.9825L46.3117 55.4046C44.8101 55.9749 43.1852 56.4095 41.5814 56.6727L41.6815 57.2828ZM44.3607 53.8039C43.3847 54.7002 42.37 55.71 41.4032 56.7694L41.8598 57.1861C42.8137 56.1409 43.8155 55.1439 44.7788 54.2593L44.3607 53.8039ZM48.5655 50.5574C47.698 50.9977 46.1348 52.1749 44.3607 53.8039L44.7788 54.2593C46.546 52.6366 48.0574 51.5085 48.8452 51.1087L48.5655 50.5574ZM51.9948 49.9132C51.4911 49.6966 50.4318 49.6103 48.5655 50.5574L48.8452 51.1087C50.6295 50.2032 51.4843 50.3666 51.7506 50.4811L51.9948 49.9132ZM52.6749 50.8885C52.6749 50.5398 52.4771 50.1207 51.9948 49.9132L51.7506 50.4811C51.9884 50.5834 52.0567 50.7671 52.0567 50.8885H52.6749ZM51.0705 53.4706C52.2011 52.5117 52.6749 51.6219 52.6749 50.8885H52.0567C52.0567 51.3557 51.7438 52.0889 50.6707 52.9991L51.0705 53.4706ZM46.5312 55.9825C48.3771 55.2815 49.9647 54.4086 51.0705 53.4706L50.6707 52.9991C49.6351 53.8775 48.116 54.7194 46.3117 55.4046L46.5312 55.9825ZM37.4565 46.4218C41.6059 45.924 45.8232 44.5765 49.3846 42.8646L49.1167 42.3074C45.6078 43.9941 41.4559 45.3194 37.3828 45.808L37.4565 46.4218ZM38.654 44.001C38.145 44.6789 37.6606 45.324 37.1791 45.9208L37.6602 46.309C38.1497 45.7023 38.6407 45.0482 39.1483 44.3721L38.654 44.001ZM42.5474 39.3026C41.0096 40.863 39.7751 42.5078 38.654 44.001L39.1483 44.3721C40.2719 42.8757 41.4832 41.2631 42.9877 39.7365L42.5474 39.3026ZM55.138 32.1735C52.6615 32.1557 48.1377 33.6303 42.5474 39.3026L42.9877 39.7365C48.5105 34.1327 52.8838 32.7755 55.1336 32.7916L55.138 32.1735ZM57.523 33.1679C57.0973 32.6097 56.3442 32.1821 55.138 32.1735L55.1336 32.7916C56.1842 32.7991 56.7418 33.1629 57.0314 33.5427L57.523 33.1679ZM57.9671 35.7073C58.1704 34.6104 57.9608 33.7421 57.523 33.1679L57.0314 33.5427C57.3404 33.948 57.5384 34.6281 57.3593 35.5946L57.9671 35.7073ZM55.448 39.0586C56.2379 38.3829 56.8258 37.7548 57.236 37.1952C57.6435 36.6394 57.8878 36.1349 57.9671 35.7073L57.3593 35.5946C57.3035 35.8956 57.1161 36.3133 56.7375 36.8297C56.3617 37.3423 55.8091 37.9362 55.0462 38.5888L55.448 39.0586ZM49.3846 42.8646C51.8317 41.6883 53.9269 40.3598 55.448 39.0586L55.0462 38.5888C53.5753 39.847 51.5285 41.1481 49.1167 42.3074L49.3846 42.8646Z" fill="white"/>
<circle cx="33.7326" cy="33.072" r="2.90998" fill="url(#paint0_linear_501_476)" stroke="white" stroke-width="1.64773"/>
<defs>
<linearGradient id="paint0_linear_501_476" x1="31.6736" y1="29.7749" x2="36.6887" y2="34.0863" gradientUnits="userSpaceOnUse">
<stop stop-color="#7B00F7"/>
<stop offset="1" stop-color="#3FFFD1"/>
</linearGradient>
</defs>
</svg>
