<svg width="219" height="86" viewBox="0 0 219 86" fill="none" xmlns="http://www.w3.org/2000/svg">
<g filter="url(#filter0_d_501_487)">
<rect x="154" y="39" width="31.1127" height="31.1127" rx="3" transform="rotate(-45 154 39)" fill="white"/>
</g>
<circle cx="176.049" cy="38.9999" r="12.5995" fill="#1E2125"/>
<rect x="168.174" y="31.1255" width="15.8614" height="15.8614" rx="3" fill="white"/>
<circle cx="176.027" cy="38.9783" r="5.49048" fill="#1E2125"/>
<rect width="3.55887" height="3.55887" rx="1" transform="matrix(0.707081 -0.707133 0.707081 0.707133 173.687 39)" fill="white"/>
<path d="M4.4 49.76V55H1.94V41C2.63333 41 3.38667 40.9933 4.2 40.98C5.01333 40.9667 5.68 40.96 6.2 40.96C9.58667 40.96 11.28 42.4 11.28 45.28C11.28 46.3467 11.0067 47.2267 10.46 47.92C9.91333 48.5867 9.28667 49.04 8.58 49.28L12.96 55H9.98L6.12 49.76H4.4ZM6.08 43.26C6.01333 43.26 5.90667 43.2667 5.76 43.28C5.61333 43.28 5.40667 43.2867 5.14 43.3C4.87333 43.3 4.62667 43.3 4.4 43.3V47.46H6C6.78667 47.46 7.42667 47.2667 7.92 46.88C8.42667 46.4933 8.68 45.9667 8.68 45.3C8.68 43.94 7.81333 43.26 6.08 43.26ZM20.6838 52.48L21.3438 54.1C20.4504 54.8467 19.3038 55.22 17.9038 55.22C16.4638 55.22 15.2904 54.7867 14.3838 53.92C13.5038 53.0667 13.0638 51.9267 13.0638 50.5C13.0638 49.1667 13.4971 48.0467 14.3638 47.14C15.2304 46.2333 16.3838 45.78 17.8238 45.78C19.0104 45.78 20.0171 46.1733 20.8438 46.96C21.6704 47.7467 22.0838 48.7467 22.0838 49.96C22.0838 50.4933 22.0371 50.9067 21.9438 51.2H15.4438C15.5371 51.8533 15.8238 52.3667 16.3038 52.74C16.7971 53.1133 17.4104 53.3 18.1438 53.3C19.1438 53.3 19.9904 53.0267 20.6838 52.48ZM17.7238 47.7C16.4171 47.7 15.6304 48.3533 15.3638 49.66H19.7838C19.7971 49.0867 19.6104 48.62 19.2238 48.26C18.8504 47.8867 18.3504 47.7 17.7238 47.7ZM32.5177 59H30.2177V54.54C29.5243 54.9933 28.7843 55.22 27.9977 55.22C26.571 55.22 25.431 54.7933 24.5777 53.94C23.7377 53.0733 23.3177 51.9267 23.3177 50.5C23.3177 49.1533 23.8043 48.0333 24.7777 47.14C25.7643 46.2333 26.9977 45.78 28.4777 45.78C30.0243 45.78 31.371 46.14 32.5177 46.86V59ZM28.2977 53.08C29.071 53.08 29.711 52.8067 30.2177 52.26V48.38C29.6177 48.0867 29.031 47.94 28.4577 47.94C27.631 47.94 26.9777 48.1933 26.4977 48.7C26.0177 49.1933 25.7777 49.8267 25.7777 50.6C25.7777 51.32 26.0043 51.9133 26.4577 52.38C26.9243 52.8467 27.5377 53.08 28.2977 53.08ZM40.8895 46H43.1895V55H40.8895V53.9C40.1695 54.78 39.2095 55.22 38.0095 55.22C37.0495 55.22 36.2829 54.9 35.7095 54.26C35.1362 53.62 34.8495 52.7 34.8495 51.5V46H37.1495V51.02C37.1495 52.3933 37.7229 53.08 38.8695 53.08C39.6562 53.08 40.3295 52.7133 40.8895 51.98V46ZM52.8127 52.48L53.4727 54.1C52.5793 54.8467 51.4327 55.22 50.0327 55.22C48.5927 55.22 47.4193 54.7867 46.5127 53.92C45.6327 53.0667 45.1927 51.9267 45.1927 50.5C45.1927 49.1667 45.626 48.0467 46.4927 47.14C47.3593 46.2333 48.5127 45.78 49.9527 45.78C51.1393 45.78 52.146 46.1733 52.9727 46.96C53.7993 47.7467 54.2127 48.7467 54.2127 49.96C54.2127 50.4933 54.166 50.9067 54.0727 51.2H47.5727C47.666 51.8533 47.9527 52.3667 48.4327 52.74C48.926 53.1133 49.5393 53.3 50.2727 53.3C51.2727 53.3 52.1193 53.0267 52.8127 52.48ZM49.8527 47.7C48.546 47.7 47.7593 48.3533 47.4927 49.66H51.9127C51.926 49.0867 51.7393 48.62 51.3527 48.26C50.9793 47.8867 50.4793 47.7 49.8527 47.7ZM55.7652 48.52C55.7652 47.68 56.0718 47.0133 56.6852 46.52C57.2985 46.0267 58.0918 45.78 59.0652 45.78C60.5318 45.78 61.6718 46.16 62.4852 46.92L61.6252 48.56C60.8918 47.9867 60.0785 47.7 59.1852 47.7C58.8652 47.7 58.5985 47.78 58.3852 47.94C58.1718 48.0867 58.0652 48.2667 58.0652 48.48C58.0652 48.92 58.6318 49.2867 59.7652 49.58C60.1785 49.6733 60.5452 49.78 60.8652 49.9C61.1852 50.0067 61.5118 50.1667 61.8452 50.38C62.1918 50.58 62.4585 50.8467 62.6452 51.18C62.8318 51.5133 62.9252 51.9 62.9252 52.34C62.9252 53.22 62.5918 53.92 61.9252 54.44C61.2718 54.96 60.3918 55.22 59.2852 55.22C58.4985 55.22 57.7318 55.0533 56.9852 54.72C56.2252 54.3733 55.7385 54.0267 55.5252 53.68L56.6452 52.18C56.8985 52.4867 57.3185 52.7467 57.9052 52.96C58.5052 53.1867 59.0185 53.3 59.4452 53.3C59.9652 53.3533 60.3318 53.1867 60.5452 52.8C60.7585 52.4 60.6185 52.0733 60.1252 51.82C59.9252 51.7133 59.6118 51.6 59.1852 51.48C58.7718 51.36 58.3852 51.24 58.0252 51.12C57.6785 50.9867 57.3185 50.82 56.9452 50.62C56.5852 50.42 56.2985 50.1467 56.0852 49.8C55.8718 49.44 55.7652 49.0133 55.7652 48.52ZM64.7519 51.58V43.5H67.0519V46H69.9519V48.16H67.0519V51.44C67.0519 52.52 67.4119 53.06 68.1319 53.06C68.5852 53.06 69.0452 52.8867 69.5119 52.54L70.2119 54.32C69.4785 54.9067 68.5919 55.2 67.5519 55.2C66.5785 55.2 65.8652 54.9067 65.4119 54.32C64.9719 53.72 64.7519 52.8067 64.7519 51.58ZM77.7711 55H77.5911V41H77.8111C78.3844 41 78.9178 40.9933 79.4111 40.98C80.3978 40.9533 80.9844 40.94 81.1711 40.94C82.5178 40.94 83.7044 41.1267 84.7311 41.5C85.7711 41.86 86.5978 42.3667 87.2111 43.02C87.8244 43.66 88.2778 44.3867 88.5711 45.2C88.8778 46 89.0311 46.8667 89.0311 47.8C89.0311 49.9067 88.3311 51.64 86.9311 53C85.5444 54.36 83.5711 55.04 81.0111 55.04C80.4378 55.04 79.9111 55.0333 79.4311 55.02C78.9511 55.0067 78.3978 55 77.7711 55ZM81.1311 41.98C80.8378 41.98 80.4044 41.9933 79.8311 42.02C79.2711 42.0333 78.8911 42.04 78.6911 42.04V53.96C79.1311 53.96 79.5444 53.9667 79.9311 53.98C80.3178 53.98 80.5978 53.9867 80.7711 54C80.9444 54 81.0378 54 81.0511 54C83.2244 54 84.9044 53.4267 86.0911 52.28C87.2778 51.12 87.8711 49.6267 87.8711 47.8C87.8711 46.08 87.3044 44.68 86.1711 43.6C85.0244 42.52 83.3444 41.98 81.1311 41.98ZM98.7195 53.1L99.0595 53.9C98.2462 54.7533 97.1395 55.18 95.7395 55.18C94.2995 55.18 93.1462 54.7533 92.2795 53.9C91.3995 53.0467 90.9595 51.9133 90.9595 50.5C90.9595 49.14 91.3595 48.02 92.1595 47.14C92.9729 46.26 94.0929 45.82 95.5195 45.82C96.6795 45.82 97.6529 46.1933 98.4395 46.94C99.2129 47.6733 99.5995 48.6533 99.5995 49.88C99.5995 50.2 99.5795 50.48 99.5395 50.72H92.1195C92.1595 51.8 92.5129 52.6533 93.1795 53.28C93.8462 53.8933 94.7195 54.2 95.7995 54.2C97.0529 54.2 98.0262 53.8333 98.7195 53.1ZM95.4195 46.8C94.4595 46.8 93.6795 47.08 93.0795 47.64C92.4929 48.2 92.1529 48.94 92.0595 49.86H98.5395C98.5262 48.9133 98.2395 48.1667 97.6795 47.62C97.1195 47.0733 96.3662 46.8 95.4195 46.8ZM106.748 52.64C106.748 52.2267 106.574 51.8933 106.228 51.64C105.894 51.3867 105.481 51.1867 104.988 51.04C104.508 50.8933 104.021 50.7333 103.528 50.56C103.034 50.3733 102.614 50.0867 102.268 49.7C101.934 49.3 101.768 48.8 101.768 48.2C101.768 47.48 102.034 46.9067 102.568 46.48C103.101 46.04 103.801 45.82 104.668 45.82C105.908 45.82 106.848 46.1533 107.488 46.82L107.048 47.6C106.434 47.0267 105.648 46.74 104.688 46.74C104.154 46.74 103.714 46.88 103.368 47.16C103.034 47.4267 102.868 47.7667 102.868 48.18C102.868 48.6067 103.034 48.96 103.368 49.24C103.714 49.5067 104.128 49.72 104.608 49.88C105.101 50.0267 105.594 50.1867 106.088 50.36C106.581 50.5333 106.994 50.8067 107.328 51.18C107.674 51.5533 107.848 52.0267 107.848 52.6C107.848 53.4133 107.541 54.0467 106.928 54.5C106.328 54.9533 105.554 55.18 104.608 55.18C104.021 55.18 103.408 55.0467 102.768 54.78C102.168 54.5267 101.754 54.2267 101.528 53.88L102.108 53.2C102.361 53.5067 102.741 53.76 103.248 53.96C103.768 54.16 104.261 54.26 104.728 54.26C105.314 54.26 105.794 54.12 106.168 53.84C106.554 53.5467 106.748 53.1467 106.748 52.64ZM111.987 55H110.947V46H111.987V55ZM110.767 42.5C110.767 42.3 110.841 42.14 110.987 42.02C111.134 41.9 111.307 41.84 111.507 41.84C111.681 41.84 111.834 41.9067 111.967 42.04C112.114 42.16 112.187 42.3133 112.187 42.5C112.187 42.7267 112.121 42.9067 111.987 43.04C111.867 43.1733 111.707 43.24 111.507 43.24C111.294 43.24 111.114 43.1733 110.967 43.04C110.834 42.9067 110.767 42.7267 110.767 42.5ZM114.362 56.32C114.362 55.64 114.602 55.0667 115.082 54.6C115.562 54.1333 116.242 53.8067 117.122 53.62C116.922 53.38 116.822 53.0933 116.822 52.76C116.822 52.4267 116.935 52.1267 117.162 51.86C116.575 51.6067 116.115 51.2267 115.782 50.72C115.449 50.2133 115.282 49.64 115.282 49C115.282 48.08 115.609 47.32 116.262 46.72C116.915 46.12 117.775 45.82 118.842 45.82C119.695 45.82 120.449 46.0467 121.102 46.5H121.122L123.682 45.82V46.8L121.862 47.26C122.222 47.8067 122.402 48.3867 122.402 49C122.402 49.8933 122.069 50.6533 121.402 51.28C120.735 51.88 119.882 52.18 118.842 52.18C118.469 52.18 118.169 52.1533 117.942 52.1C117.822 52.2733 117.762 52.4933 117.762 52.76C117.762 53.0667 117.849 53.3067 118.022 53.48C118.529 53.4533 118.809 53.44 118.862 53.44C120.235 53.44 121.329 53.6933 122.142 54.2C122.955 54.7067 123.362 55.4133 123.362 56.32C123.362 57.2133 122.955 57.9067 122.142 58.4C121.329 58.9067 120.235 59.16 118.862 59.16C117.475 59.16 116.375 58.9133 115.562 58.42C114.762 57.9267 114.362 57.2267 114.362 56.32ZM115.422 56.32C115.422 56.9067 115.729 57.3667 116.342 57.7C116.969 58.0467 117.809 58.22 118.862 58.22C119.902 58.22 120.735 58.0467 121.362 57.7C121.989 57.3533 122.302 56.8933 122.302 56.32C122.302 55.7333 121.989 55.2667 121.362 54.92C120.749 54.56 119.915 54.38 118.862 54.38C117.822 54.38 116.989 54.5533 116.362 54.9C115.735 55.2467 115.422 55.72 115.422 56.32ZM117.042 47.4C116.575 47.8267 116.342 48.36 116.342 49C116.342 49.64 116.575 50.1733 117.042 50.6C117.509 51.0267 118.109 51.24 118.842 51.24C119.575 51.24 120.175 51.0267 120.642 50.6C121.109 50.1733 121.342 49.64 121.342 49C121.342 48.36 121.102 47.8267 120.622 47.4C120.155 46.9733 119.562 46.76 118.842 46.76C118.135 46.76 117.535 46.9733 117.042 47.4ZM126.507 55H125.467V46H126.507V47.26C126.88 46.8467 127.36 46.5067 127.947 46.24C128.547 45.9733 129.147 45.84 129.747 45.84C131 45.84 131.94 46.1667 132.567 46.82C133.193 47.4733 133.507 48.4867 133.507 49.86V55H132.467V50.06C132.467 47.9 131.48 46.82 129.507 46.82C128.933 46.82 128.373 46.9533 127.827 47.22C127.28 47.4733 126.84 47.8 126.507 48.2V55Z" fill="white"/>
<path d="M58.66 25.234V29H57.47V19.2C57.862 19.2 58.2773 19.1953 58.716 19.186C59.1547 19.1767 59.5933 19.172 60.032 19.172C61.32 19.172 62.244 19.4613 62.804 20.04C63.3733 20.6093 63.658 21.3327 63.658 22.21C63.658 23.0593 63.35 23.7873 62.734 24.394C62.1367 24.9913 61.2687 25.29 60.13 25.29C59.5327 25.29 59.0427 25.2713 58.66 25.234ZM60.144 20.292C59.976 20.292 59.4813 20.3013 58.66 20.32V24.1C59.248 24.1467 59.724 24.17 60.088 24.17C60.8067 24.17 61.3713 23.9973 61.782 23.652C62.1927 23.2973 62.398 22.812 62.398 22.196C62.398 21.5893 62.2067 21.1227 61.824 20.796C61.4507 20.46 60.8907 20.292 60.144 20.292ZM65.1096 24.03L64.8156 23.134C65.441 22.7513 66.141 22.56 66.9156 22.56C67.765 22.56 68.381 22.77 68.7636 23.19C69.1463 23.61 69.3376 24.2587 69.3376 25.136V29H68.2736V28.188C67.779 28.7947 67.107 29.098 66.2576 29.098C65.679 29.098 65.2123 28.9253 64.8576 28.58C64.503 28.2253 64.3256 27.7493 64.3256 27.152C64.3256 26.536 64.545 26.0507 64.9836 25.696C65.4223 25.332 65.9963 25.15 66.7056 25.15C67.3683 25.15 67.891 25.2853 68.2736 25.556C68.2736 24.8467 68.1756 24.338 67.9796 24.03C67.7836 23.722 67.4056 23.568 66.8456 23.568C66.2763 23.568 65.6976 23.722 65.1096 24.03ZM66.6496 28.09C67.275 28.09 67.8163 27.8193 68.2736 27.278V26.48C67.8816 26.2 67.4103 26.06 66.8596 26.06C66.477 26.06 66.155 26.1533 65.8936 26.34C65.6416 26.5173 65.5156 26.7693 65.5156 27.096C65.5156 27.404 65.6136 27.6467 65.8096 27.824C66.015 28.0013 66.295 28.09 66.6496 28.09ZM73.2991 29.14C72.8231 29.14 72.3191 29.0607 71.7871 28.902C71.2737 28.734 70.9097 28.5287 70.6951 28.286L71.2691 27.446C71.5211 27.6513 71.8197 27.8193 72.1651 27.95C72.5197 28.0713 72.8417 28.132 73.1311 28.132C73.6164 28.132 74.0131 28.0387 74.3211 27.852C74.6291 27.656 74.7831 27.404 74.7831 27.096C74.7831 26.8347 74.6711 26.634 74.4471 26.494C74.2324 26.354 73.9337 26.284 73.5511 26.284H72.4871V25.374H73.4811C73.7984 25.374 74.0597 25.29 74.2651 25.122C74.4704 24.9447 74.5731 24.73 74.5731 24.478C74.5731 24.198 74.4517 23.9787 74.2091 23.82C73.9664 23.652 73.6397 23.568 73.2291 23.568C72.5664 23.568 71.9364 23.8013 71.3391 24.268L70.9051 23.4C71.1571 23.1387 71.5071 22.9333 71.9551 22.784C72.4124 22.6347 72.8931 22.56 73.3971 22.56C74.1437 22.56 74.7224 22.7093 75.1331 23.008C75.5531 23.3067 75.7631 23.722 75.7631 24.254C75.7631 24.982 75.3944 25.4767 74.6571 25.738V25.766C75.0677 25.8127 75.3897 25.976 75.6231 26.256C75.8564 26.5267 75.9731 26.858 75.9731 27.25C75.9731 27.8287 75.7257 28.2907 75.2311 28.636C74.7457 28.972 74.1017 29.14 73.2991 29.14ZM78.7999 31.8H77.6799V22.7H78.7999V23.442C79.0239 23.1807 79.3319 22.9707 79.7239 22.812C80.1159 22.644 80.5219 22.56 80.9419 22.56C81.8379 22.56 82.5425 22.8587 83.0559 23.456C83.5879 24.044 83.8539 24.8093 83.8539 25.752C83.8539 26.7133 83.5505 27.5207 82.9439 28.174C82.3465 28.818 81.5579 29.14 80.5779 29.14C79.8219 29.14 79.2292 28.9953 78.7999 28.706V31.8ZM80.6199 23.61C79.8732 23.61 79.2665 23.8993 78.7999 24.478V27.6C79.2945 27.9267 79.8545 28.09 80.4799 28.09C81.1425 28.09 81.6699 27.88 82.0619 27.46C82.4632 27.0307 82.6639 26.4753 82.6639 25.794C82.6639 25.1313 82.4819 24.604 82.1179 24.212C81.7539 23.8107 81.2545 23.61 80.6199 23.61ZM85.7952 24.03L85.5012 23.134C86.1265 22.7513 86.8265 22.56 87.6012 22.56C88.4505 22.56 89.0665 22.77 89.4492 23.19C89.8318 23.61 90.0232 24.2587 90.0232 25.136V29H88.9592V28.188C88.4645 28.7947 87.7925 29.098 86.9432 29.098C86.3645 29.098 85.8978 28.9253 85.5432 28.58C85.1885 28.2253 85.0112 27.7493 85.0112 27.152C85.0112 26.536 85.2305 26.0507 85.6692 25.696C86.1078 25.332 86.6818 25.15 87.3912 25.15C88.0538 25.15 88.5765 25.2853 88.9592 25.556C88.9592 24.8467 88.8612 24.338 88.6652 24.03C88.4692 23.722 88.0912 23.568 87.5312 23.568C86.9618 23.568 86.3832 23.722 85.7952 24.03ZM87.3352 28.09C87.9605 28.09 88.5018 27.8193 88.9592 27.278V26.48C88.5672 26.2 88.0958 26.06 87.5452 26.06C87.1625 26.06 86.8405 26.1533 86.5792 26.34C86.3272 26.5173 86.2012 26.7693 86.2012 27.096C86.2012 27.404 86.2992 27.6467 86.4952 27.824C86.7005 28.0013 86.9805 28.09 87.3352 28.09ZM96.7706 19.06L97.3726 19.942C97.1486 20.25 96.878 20.46 96.5606 20.572C96.2153 20.6933 95.8233 20.7867 95.3846 20.852C94.9553 20.9173 94.5493 21.034 94.1666 21.202C93.2146 21.6407 92.6826 22.6533 92.5706 24.24H92.5986C92.804 23.8013 93.1353 23.4467 93.5926 23.176C94.0593 22.9053 94.5586 22.77 95.0906 22.77C95.9866 22.77 96.696 23.0547 97.2186 23.624C97.7506 24.1933 98.0166 24.954 98.0166 25.906C98.0166 26.802 97.7133 27.5673 97.1066 28.202C96.5093 28.8273 95.7346 29.14 94.7826 29.14C93.756 29.14 92.944 28.79 92.3466 28.09C91.7493 27.3993 91.4506 26.4427 91.4506 25.22C91.4506 22.4947 92.23 20.8007 93.7886 20.138C94.1433 19.9793 94.554 19.8627 95.0206 19.788C95.3846 19.7227 95.646 19.6713 95.8046 19.634C95.9633 19.5967 96.1313 19.5313 96.3086 19.438C96.4953 19.3447 96.6493 19.2187 96.7706 19.06ZM92.6406 25.43C92.6406 26.2327 92.8366 26.8767 93.2286 27.362C93.6206 27.8473 94.1293 28.09 94.7546 28.09C95.3613 28.09 95.856 27.8847 96.2386 27.474C96.6306 27.0727 96.8266 26.5687 96.8266 25.962C96.8266 25.318 96.6446 24.8 96.2806 24.408C95.926 24.016 95.436 23.82 94.8106 23.82C94.2413 23.82 93.7653 23.9787 93.3826 24.296C92.9813 24.6227 92.734 25.0007 92.6406 25.43ZM100.127 28.216C99.5112 27.5813 99.2032 26.7927 99.2032 25.85C99.2032 24.898 99.5112 24.114 100.127 23.498C100.753 22.8727 101.565 22.56 102.563 22.56C103.562 22.56 104.369 22.8727 104.985 23.498C105.611 24.114 105.923 24.898 105.923 25.85C105.923 26.802 105.611 27.5907 104.985 28.216C104.369 28.832 103.562 29.14 102.563 29.14C101.574 29.14 100.762 28.832 100.127 28.216ZM101.009 24.24C100.599 24.6507 100.393 25.1873 100.393 25.85C100.393 26.5127 100.594 27.0493 100.995 27.46C101.406 27.88 101.929 28.09 102.563 28.09C103.198 28.09 103.716 27.8847 104.117 27.474C104.528 27.054 104.733 26.5127 104.733 25.85C104.733 25.206 104.528 24.6693 104.117 24.24C103.716 23.82 103.198 23.61 102.563 23.61C101.929 23.61 101.411 23.82 101.009 24.24ZM108.805 23.82H106.495V22.7H112.235V23.82H109.925V29H108.805V23.82ZM113.795 24.03L113.501 23.134C114.127 22.7513 114.827 22.56 115.601 22.56C116.451 22.56 117.067 22.77 117.449 23.19C117.832 23.61 118.023 24.2587 118.023 25.136V29H116.959V28.188C116.465 28.7947 115.793 29.098 114.943 29.098C114.365 29.098 113.898 28.9253 113.543 28.58C113.189 28.2253 113.011 27.7493 113.011 27.152C113.011 26.536 113.231 26.0507 113.669 25.696C114.108 25.332 114.682 25.15 115.391 25.15C116.054 25.15 116.577 25.2853 116.959 25.556C116.959 24.8467 116.861 24.338 116.665 24.03C116.469 23.722 116.091 23.568 115.531 23.568C114.962 23.568 114.383 23.722 113.795 24.03ZM115.335 28.09C115.961 28.09 116.502 27.8193 116.959 27.278V26.48C116.567 26.2 116.096 26.06 115.545 26.06C115.163 26.06 114.841 26.1533 114.579 26.34C114.327 26.5173 114.201 26.7693 114.201 27.096C114.201 27.404 114.299 27.6467 114.495 27.824C114.701 28.0013 114.981 28.09 115.335 28.09ZM125.639 29H124.519V26.34H121.019V29H119.899V22.7H121.019V25.29H124.519V22.7H125.639V29ZM128.168 28.216C127.552 27.5813 127.244 26.7927 127.244 25.85C127.244 24.898 127.552 24.114 128.168 23.498C128.794 22.8727 129.606 22.56 130.604 22.56C131.603 22.56 132.41 22.8727 133.026 23.498C133.652 24.114 133.964 24.898 133.964 25.85C133.964 26.802 133.652 27.5907 133.026 28.216C132.41 28.832 131.603 29.14 130.604 29.14C129.615 29.14 128.803 28.832 128.168 28.216ZM129.05 24.24C128.64 24.6507 128.434 25.1873 128.434 25.85C128.434 26.5127 128.635 27.0493 129.036 27.46C129.447 27.88 129.97 28.09 130.604 28.09C131.239 28.09 131.757 27.8847 132.158 27.474C132.569 27.054 132.774 26.5127 132.774 25.85C132.774 25.206 132.569 24.6693 132.158 24.24C131.757 23.82 131.239 23.61 130.604 23.61C129.97 23.61 129.452 23.82 129.05 24.24Z" fill="#929292"/>
<defs>
<filter id="filter0_d_501_487" x="133.243" y="0.242676" width="85.5146" height="85.5151" filterUnits="userSpaceOnUse" color-interpolation-filters="sRGB">
<feFlood flood-opacity="0" result="BackgroundImageFix"/>
<feColorMatrix in="SourceAlpha" type="matrix" values="0 0 0 0 0 0 0 0 0 0 0 0 0 0 0 0 0 0 127 0" result="hardAlpha"/>
<feMorphology radius="2" operator="dilate" in="SourceAlpha" result="effect1_dropShadow_501_487"/>
<feOffset dy="4"/>
<feGaussianBlur stdDeviation="10"/>
<feColorMatrix type="matrix" values="0 0 0 0 0.279167 0 0 0 0 0.279167 0 0 0 0 0.279167 0 0 0 0.25 0"/>
<feBlend mode="normal" in2="BackgroundImageFix" result="effect1_dropShadow_501_487"/>
<feBlend mode="normal" in="SourceGraphic" in2="effect1_dropShadow_501_487" result="shape"/>
</filter>
</defs>
</svg>
