<svg width="30" height="25" viewBox="0 0 30 25" fill="none" xmlns="http://www.w3.org/2000/svg">
<path fill-rule="evenodd" clip-rule="evenodd" d="M2.06234 10.7C10.1154 7.19238 15.4854 4.87992 18.1722 3.76266C25.8438 0.572634 27.4379 0.0184932 28.4769 0.000195098C28.7054 -0.00382936 29.2163 0.0527893 29.5473 0.32128C29.8268 0.547988 29.9037 0.854238 29.9405 1.06918C29.9773 1.28413 30.0231 1.77377 29.9867 2.15637C29.5709 6.52327 27.7721 17.1206 26.857 22.0116C26.4697 24.0811 25.7073 24.7751 24.9691 24.843C23.3649 24.9905 22.1467 23.7831 20.593 22.7649C18.1617 21.1715 16.7882 20.1797 14.4282 18.6249C11.7008 16.8281 13.4688 15.8405 15.0232 14.2265C15.4299 13.8042 22.4981 7.37685 22.6349 6.7938C22.652 6.72088 22.6679 6.44906 22.5063 6.30553C22.3448 6.16201 22.1064 6.21109 21.9344 6.25012C21.6905 6.30545 17.8065 8.87197 10.2823 13.9497C9.17983 14.7065 8.18124 15.0753 7.28655 15.056C6.30022 15.0346 4.40291 14.4984 2.99246 14.0401C1.26249 13.4779 -0.112459 13.1806 0.00726778 12.2258C0.0696291 11.7285 0.754654 11.2199 2.06234 10.7Z" fill="#A8A8A8"/>
</svg>
