<svg width="41" height="24" viewBox="0 0 41 24" fill="none" xmlns="http://www.w3.org/2000/svg">
<path fill-rule="evenodd" clip-rule="evenodd" d="M40.0596 1.62514C40.3432 0.689143 40.0596 0 38.7015 0H34.2172C33.0761 0 32.5499 0.594857 32.2646 1.25143C32.2646 1.25143 29.984 6.73029 26.7536 10.2891C25.7082 11.3211 25.2333 11.6486 24.6627 11.6486C24.3774 11.6486 23.9486 11.3211 23.9486 10.3834V1.62514C23.9486 0.500571 23.6343 0 22.6845 0H15.6326C14.9203 0 14.4915 0.521143 14.4915 1.01657C14.4915 2.08114 16.1075 2.328 16.2732 5.32457V11.8354C16.2732 13.2634 16.0119 13.5223 15.4413 13.5223C13.9209 13.5223 10.2225 8.01771 8.02729 1.71943C7.60192 0.493714 7.17143 0 6.02517 0H1.53747C0.256245 0 0 0.594857 0 1.25143C0 2.42057 1.52038 8.22857 7.08089 15.9103C10.7879 21.156 16.0067 24 20.7609 24C23.6121 24 23.964 23.3691 23.964 22.2806V18.3154C23.964 17.052 24.2339 16.8 25.1376 16.8C25.8038 16.8 26.9433 17.1291 29.6048 19.6577C32.6456 22.656 33.1461 24 34.8578 24H39.3421C40.6233 24 41.2656 23.3691 40.8966 22.1211C40.4901 20.88 39.038 19.0783 37.1128 16.9406C36.0673 15.7234 34.4991 14.412 34.0225 13.7554C33.3579 12.9137 33.5475 12.5383 34.0225 11.7891C34.0225 11.7891 39.489 4.20171 40.0579 1.62514H40.0596Z" fill="#A8A8A8"/>
</svg>
