<svg width="41" height="41" viewBox="0 0 41 41" fill="none" xmlns="http://www.w3.org/2000/svg">
<circle cx="20.5" cy="20.5" r="20" stroke="#98999C"/>
<path d="M27.79 18.4698V25.7898C27.79 28.1198 25.9 29.9998 23.58 29.9998H16.21C13.89 29.9998 12 28.1098 12 25.7898V18.4698C12 16.1398 13.89 14.2598 16.21 14.2598H23.58C25.9 14.2598 27.79 16.1498 27.79 18.4698Z" stroke="#262626" stroke-width="1.5" stroke-linecap="round" stroke-linejoin="round"/>
<path d="M15.5 12V10.25" stroke="#262626" stroke-width="1.5" stroke-linecap="round" stroke-linejoin="round"/>
<path d="M19.5 12V10.25" stroke="#262626" stroke-width="1.5" stroke-linecap="round" stroke-linejoin="round"/>
<path d="M23.5 12V10.25" stroke="#262626" stroke-width="1.5" stroke-linecap="round" stroke-linejoin="round"/>
<path d="M32 21.1602C32 23.4802 30.11 25.3702 27.79 25.3702V16.9502C30.11 16.9502 32 18.8302 32 21.1602Z" stroke="#262626" stroke-width="1.5" stroke-linecap="round" stroke-linejoin="round"/>
<path d="M12 20H27.51" stroke="#262626" stroke-width="1.5" stroke-linecap="round" stroke-linejoin="round"/>
</svg>
