<svg width="41" height="41" viewBox="0 0 41 41" fill="none" xmlns="http://www.w3.org/2000/svg">
<path d="M12.4097 25.75C12.1697 28.64 14.3497 31 17.2497 31H22.0397C25.2997 31 27.5397 28.37 26.9997 25.15C26.4297 21.77 23.1697 19 19.7397 19C16.0197 19 12.7197 22.04 12.4097 25.75Z" stroke="#262626" stroke-width="1.5" stroke-linecap="round" stroke-linejoin="round"/>
<path d="M18.5 16C19.8807 16 21 14.8807 21 13.5C21 12.1193 19.8807 11 18.5 11C17.1193 11 16 12.1193 16 13.5C16 14.8807 17.1193 16 18.5 16Z" stroke="#262626" stroke-width="1.5" stroke-linecap="round" stroke-linejoin="round"/>
<path d="M25.2998 17.7002C26.4044 17.7002 27.2998 16.8048 27.2998 15.7002C27.2998 14.5956 26.4044 13.7002 25.2998 13.7002C24.1952 13.7002 23.2998 14.5956 23.2998 15.7002C23.2998 16.8048 24.1952 17.7002 25.2998 17.7002Z" stroke="#262626" stroke-width="1.5" stroke-linecap="round" stroke-linejoin="round"/>
<path d="M29 21.7002C29.8284 21.7002 30.5 21.0286 30.5 20.2002C30.5 19.3718 29.8284 18.7002 29 18.7002C28.1716 18.7002 27.5 19.3718 27.5 20.2002C27.5 21.0286 28.1716 21.7002 29 21.7002Z" stroke="#262626" stroke-width="1.5" stroke-linecap="round" stroke-linejoin="round"/>
<path d="M11.9697 19.7002C13.0743 19.7002 13.9697 18.8048 13.9697 17.7002C13.9697 16.5956 13.0743 15.7002 11.9697 15.7002C10.8652 15.7002 9.96973 16.5956 9.96973 17.7002C9.96973 18.8048 10.8652 19.7002 11.9697 19.7002Z" stroke="#262626" stroke-width="1.5" stroke-linecap="round" stroke-linejoin="round"/>
<circle cx="20.5" cy="20.5" r="20" stroke="#98999C"/>
<path d="M35 6L6 35" stroke="#98999C"/>
</svg>
