<svg width="148" height="148" viewBox="0 0 148 148" fill="none" xmlns="http://www.w3.org/2000/svg">
<path d="M70.1001 14.0005L67.2393 4.0377L68.6341 4.0377L70.9113 12.2357L73.3308 4.0377H74.6687L77.0882 12.2357L79.3655 4.0377H80.7602L77.8995 14.0005L76.3624 14.0005L73.9998 6.04449L71.6372 14.0005H70.1001Z" fill="white"/>
<path d="M91.6126 15.3189L96.0118 16.7483L95.6248 17.9395L89.9667 16.1011L93.0454 6.62587L98.6357 8.44229L98.2487 9.63346L93.9172 8.22606L92.9716 11.1363L96.9647 12.4337L96.5821 13.6114L92.589 12.3139L91.6126 15.3189Z" fill="white"/>
<path d="M122.678 39.238C121.792 38.0175 121.461 36.7153 121.687 35.3313C121.919 33.9551 122.622 32.8403 123.796 31.987C124.971 31.1337 126.248 30.8096 127.629 31.0146C129.015 31.2274 130.151 31.944 131.038 33.1645C131.573 33.9014 131.887 34.7052 131.981 35.5759C132.079 36.4542 131.955 37.2836 131.607 38.064L130.388 37.5245C130.666 36.9708 130.768 36.3688 130.694 35.7186C130.634 35.0705 130.403 34.4701 130.002 33.9174C129.327 32.9886 128.475 32.4462 127.447 32.2901C126.424 32.1417 125.464 32.3938 124.566 33.0463C123.675 33.6933 123.143 34.5259 122.968 35.5444C122.799 36.5704 123.051 37.5479 123.726 38.4767C124.128 39.0294 124.624 39.4374 125.214 39.7007C125.817 39.9661 126.421 40.0549 127.026 39.9673L127.174 41.2848C126.33 41.3821 125.501 41.2509 124.689 40.8912C123.884 40.526 123.214 39.9749 122.678 39.238Z" fill="white"/>
<path d="M131.873 57.9545L134.81 54.6507L134.085 52.4172L130.457 53.5959L130.048 52.3371L139.523 49.2584L140.755 53.0485C141.019 53.8606 140.956 54.6493 140.566 55.4145C140.185 56.1768 139.588 56.6898 138.776 56.9537C138.163 57.1531 137.543 57.1499 136.917 56.9441C136.295 56.7473 135.786 56.3939 135.391 55.8838L132.326 59.3487L131.873 57.9545ZM138.755 50.8999L135.222 52.0478L136.044 54.579C136.197 55.0483 136.497 55.3896 136.946 55.6031C137.406 55.8226 137.88 55.8532 138.367 55.6949C138.854 55.5365 139.215 55.2347 139.45 54.7894C139.687 54.3531 139.73 53.9004 139.577 53.4311L138.755 50.8999Z" fill="white"/>
<path d="M135.252 72.6176V77.2432H134V71.294H143.962V77.172H142.71V72.6176H139.65V76.8162H138.412V72.6176H135.252Z" fill="white"/>
<path d="M130.118 95.4476L132.494 95.3665L133.88 91.1027L132.005 89.6406L132.441 88.3006L140.768 94.9121L140.306 96.3334L129.683 96.7876L130.118 95.4476ZM134.917 91.9185L133.813 95.316L139.037 95.1278L134.917 91.9185Z" fill="white"/>
<path d="M128.485 118.036L127.472 117.3L129.203 114.917L122.157 109.797L122.926 108.737L129.973 113.857L131.696 111.485L132.71 112.221L128.485 118.036Z" fill="white"/>
<path d="M111.121 122.742L107.379 125.461L106.643 124.447L111.456 120.95L117.312 129.01L112.556 132.465L111.82 131.452L115.505 128.775L113.706 126.3L110.309 128.767L109.582 127.766L112.978 125.298L111.121 122.742Z" fill="white"/>
<path d="M77.8995 134L80.7602 143.963H79.3654L77.0882 135.765L74.6687 143.963H73.3308L70.9113 135.765L68.6341 143.963H67.2393L70.1 134H71.6371L73.9997 141.956L76.3623 134H77.8995Z" fill="white"/>
<path d="M56.3869 132.682L51.9877 131.252L52.3748 130.061L58.0328 131.899L54.9541 141.375L49.3638 139.558L49.7508 138.367L54.0823 139.774L55.0279 136.864L51.0348 135.567L51.4174 134.389L55.4105 135.687L56.3869 132.682Z" fill="white"/>
<path d="M25.3211 108.762C26.2079 109.983 26.5383 111.285 26.3123 112.669C26.0807 114.045 25.3777 115.16 24.2032 116.013C23.0288 116.867 21.7513 117.191 20.3709 116.986C18.9848 116.773 17.8484 116.057 16.9617 114.836C16.4263 114.099 16.112 113.295 16.019 112.425C15.9203 111.546 16.0449 110.717 16.3927 109.936L17.6115 110.476C17.3336 111.03 17.2314 111.632 17.3051 112.282C17.3654 112.93 17.5964 113.53 17.998 114.083C18.6728 115.012 19.5243 115.554 20.5525 115.71C21.5751 115.859 22.5355 115.607 23.4336 114.954C24.324 114.307 24.8567 113.475 25.0316 112.456C25.2009 111.43 24.9481 110.453 24.2733 109.524C23.8718 108.971 23.376 108.563 22.7859 108.3C22.1826 108.034 21.5785 107.946 20.9737 108.033L20.8257 106.716C21.6699 106.618 22.4982 106.75 23.3107 107.109C24.1156 107.474 24.7857 108.026 25.3211 108.762Z" fill="white"/>
<path d="M16.1262 90.046L13.1891 93.3498L13.9148 95.5832L17.5424 94.4046L17.9514 95.6634L8.47624 98.7421L7.24477 94.952C6.98089 94.1398 7.04389 93.3512 7.43377 92.586C7.81463 91.8237 8.41113 91.3107 9.22329 91.0468C9.83692 90.8474 10.4565 90.8506 11.0821 91.0564C11.7047 91.2531 12.2136 91.6066 12.6088 92.1167L15.6732 88.6518L16.1262 90.046ZM9.24485 97.1006L12.7777 95.9527L11.9553 93.4215C11.8028 92.9522 11.5024 92.6109 11.0539 92.3974C10.5935 92.1779 10.1196 92.1473 9.63232 92.3056C9.14502 92.4639 8.78416 92.7658 8.54974 93.2111C8.31238 93.6474 8.26994 94.1001 8.4224 94.5694L9.24485 97.1006Z" fill="white"/>
<path d="M12.7475 75.3829V70.7573H14V76.7065H4.03721L4.03721 70.8285H5.28967L5.28967 75.3829H8.34967V71.1843H9.58791V75.3829H12.7475Z" fill="white"/>
<path d="M17.8811 52.5529L15.5053 52.634L14.1199 56.8978L15.9943 58.3598L15.5589 59.6999L7.23164 53.0884L7.69344 51.6671L18.3165 51.2129L17.8811 52.5529ZM13.083 56.082L14.1869 52.6845L8.96283 52.8727L13.083 56.082Z" fill="white"/>
<path d="M19.5146 29.9643L20.5279 30.7005L18.7962 33.084L25.843 38.2038L25.0734 39.2631L18.0266 34.1433L16.3032 36.5153L15.29 35.7791L19.5146 29.9643Z" fill="white"/>
<path d="M36.8784 25.2588L40.6206 22.54L41.3568 23.5532L36.5438 27.0501L30.6878 18.99L35.4432 15.535L36.1794 16.5483L32.4948 19.2253L34.2934 21.7009L37.6902 19.233L38.418 20.2348L35.0212 22.7026L36.8784 25.2588Z" fill="white"/>
<circle cx="73.4561" cy="76.7208" r="7.07351" fill="white"/>
</svg>
