<svg width="70" height="54" viewBox="0 0 70 54" fill="none" xmlns="http://www.w3.org/2000/svg">
<path d="M24.9266 6.00861L27.8515 15.0106C28.1862 16.0407 29.1461 16.7381 30.2292 16.7381H39.6945C41.1475 16.7381 41.7517 18.5975 40.5761 19.4516L32.9186 25.0152C32.0423 25.6518 31.6757 26.7802 32.0104 27.8103L34.9353 36.8123C35.3843 38.1943 33.8026 39.3435 32.627 38.4894L24.9695 32.9258C24.0932 32.2892 22.9068 32.2892 22.0305 32.9258L14.3729 38.4894C13.1974 39.3435 11.6157 38.1943 12.0647 36.8123L14.9896 27.8103C15.3243 26.7802 14.9577 25.6518 14.0814 25.0152L6.42386 19.4516C5.24829 18.5975 5.85245 16.7381 7.30554 16.7381H16.7708C17.8539 16.7381 18.8138 16.0407 19.1485 15.0106L22.0734 6.00861C22.5224 4.62664 24.4776 4.62664 24.9266 6.00861Z" fill="#0E0E0F" stroke="url(#paint0_linear_505_11)"/>
<path d="M55.6418 27.9439L55.5734 30.8695C55.548 31.9523 56.2228 32.9282 57.2448 33.2869L60.0061 34.256C61.3771 34.7373 61.3314 36.6918 59.9393 37.1084L57.1358 37.9474C56.0982 38.2579 55.3785 39.2013 55.3532 40.284L55.2848 43.2097C55.2508 44.6623 53.3778 45.2229 52.5514 44.0276L50.8871 41.6206C50.2712 40.7297 49.1516 40.3368 48.114 40.6473L45.3105 41.4863C43.9184 41.9029 42.8065 40.2947 43.6878 39.1394L45.4628 36.8128C46.1197 35.9517 46.1475 34.7655 45.5315 33.8747L43.8672 31.4676C43.0409 30.2724 44.2267 28.7179 45.5978 29.1992L48.3591 30.1683C49.381 30.527 50.5177 30.1868 51.1746 29.3257L52.9496 26.999C53.831 25.8438 55.6758 26.4912 55.6418 27.9439Z" fill="#0E0E0F" stroke="url(#paint1_linear_505_11)"/>
<defs>
<linearGradient id="paint0_linear_505_11" x1="-8" y1="-13" x2="106.601" y2="13.8451" gradientUnits="userSpaceOnUse">
<stop stop-color="white"/>
<stop offset="1" stop-opacity="0"/>
</linearGradient>
<linearGradient id="paint1_linear_505_11" x1="40.6025" y1="7.79665" x2="101.838" y2="46.8432" gradientUnits="userSpaceOnUse">
<stop stop-color="white"/>
<stop offset="1" stop-opacity="0"/>
</linearGradient>
</defs>
</svg>
