<svg width="22" height="22" viewBox="0 0 22 22" fill="none" xmlns="http://www.w3.org/2000/svg">
<path d="M17.5058 19.171L17.512 18.421L17.5058 19.171ZM5.42478 19.0722L5.41865 19.8222L5.42478 19.0722ZM2.46857 16.4117L1.72339 16.4966L2.46857 16.4117ZM1.0156 3.65283L1.76078 3.56797L1.0156 3.65283ZM17.5282 13.6935V14.4435V13.6935ZM5.75092 3.10978L5.00588 3.19582L5.75092 3.10978ZM20.267 16.4323H19.517H20.267ZM3.38332 1L3.38327 0.25L3.38332 1ZM6.61398 20.0627L6.85115 19.3512L5.42813 18.8769L5.19096 19.5884L6.61398 20.0627ZM4.87473 20.5371C4.74374 20.93 4.95611 21.3548 5.34907 21.4858C5.74203 21.6167 6.16677 21.4044 6.29775 21.0114L4.87473 20.5371ZM16.9815 19.5884L16.7444 18.8769L15.3213 19.3512L15.5585 20.0627L16.9815 19.5884ZM15.8747 21.0114C16.0057 21.4044 16.4305 21.6167 16.8234 21.4858C17.2164 21.3548 17.4287 20.93 17.2978 20.5371L15.8747 21.0114ZM17.512 18.421L5.43091 18.3222L5.41865 19.8222L17.4997 19.9209L17.512 18.421ZM3.21375 16.3269L1.76078 3.56797L0.270416 3.73769L1.72339 16.4966L3.21375 16.3269ZM7.95342 14.4435H17.5282V12.9435H7.95342V14.4435ZM5.00588 3.19582L5.70837 9.27874L7.19846 9.10666L6.49597 3.02373L5.00588 3.19582ZM5.43091 18.3222C4.29383 18.3129 3.34242 17.4567 3.21375 16.3269L1.72339 16.4966C1.93782 18.3796 3.52351 19.8067 5.41865 19.8222L5.43091 18.3222ZM17.4997 19.9209C19.4376 19.9368 21.017 18.3702 21.017 16.4323H19.517C19.517 17.537 18.6167 18.43 17.512 18.421L17.4997 19.9209ZM3.38337 1.75C4.2129 1.74995 4.91071 2.37176 5.00588 3.19582L6.49597 3.02373C6.3134 1.44282 4.97469 0.249895 3.38327 0.25L3.38337 1.75ZM17.5282 14.4435C18.6266 14.4435 19.517 15.3339 19.517 16.4323H21.017C21.017 14.5055 19.455 12.9435 17.5282 12.9435V14.4435ZM3.38327 0.25C1.51252 0.250124 0.058745 1.87895 0.270416 3.73769L1.76078 3.56797C1.65045 2.5991 2.40823 1.75006 3.38337 1.75L3.38327 0.25ZM7.45343 9.44311H17.4534V7.94311H7.45343V9.44311ZM17.4534 12.9431H7.45343V14.4431H17.4534V12.9431ZM7.45343 12.9431C6.48693 12.9431 5.70343 12.1596 5.70343 11.1931H4.20343C4.20343 12.988 5.65851 14.4431 7.45343 14.4431V12.9431ZM19.2034 11.1931C19.2034 12.1596 18.4199 12.9431 17.4534 12.9431V14.4431C19.2484 14.4431 20.7034 12.988 20.7034 11.1931H19.2034ZM17.4534 9.44311C18.4199 9.44311 19.2034 10.2266 19.2034 11.1931H20.7034C20.7034 9.39818 19.2484 7.94311 17.4534 7.94311V9.44311ZM7.45343 7.94311C5.65851 7.94311 4.20343 9.39818 4.20343 11.1931H5.70343C5.70343 10.2266 6.48693 9.44311 7.45343 9.44311V7.94311ZM5.19096 19.5884L4.87473 20.5371L6.29775 21.0114L6.61398 20.0627L5.19096 19.5884ZM15.5585 20.0627L15.8747 21.0114L17.2978 20.5371L16.9815 19.5884L15.5585 20.0627Z" fill="#262626"/>
</svg>
