<svg width="44" height="44" viewBox="0 0 44 44" fill="none" xmlns="http://www.w3.org/2000/svg">
<rect x="0.40625" y="0.407471" width="42.6113" height="42.6113" rx="9.49227" fill="#3066C1"/>
<path d="M15.3672 32.3153L15.131 32.8596L15.3672 32.3153ZM12.4638 29.2736L11.9121 29.4918L12.4638 29.2736ZM30.9605 29.2736L31.5122 29.4918L30.9605 29.2736ZM28.0571 32.3153L28.2932 32.8596L28.0571 32.3153ZM12.0554 21.477L12.6463 21.5295L12.6754 21.2027L12.414 21.0044L12.0554 21.477ZM29.7594 16.6486V16.0553H29.7594L29.7594 16.6486ZM22.5359 15.4566L22.9554 15.8761L22.5359 15.4566ZM24.8121 13.1805L25.2316 13.6L24.8121 13.1805ZM28.6056 13.1805L28.1861 13.6L28.6056 13.1805ZM28.8833 16.6486L28.8834 17.2418L29.1861 17.2418L29.3638 16.9966L28.8833 16.6486ZM21.0567 15.4566L20.6372 15.8761V15.8761L21.0567 15.4566ZM18.7805 13.1805L18.361 13.6L18.7805 13.1805ZM14.987 13.1805L15.4065 13.6L14.987 13.1805ZM21.7121 31.6702H22.3054H21.7121ZM12.0205 21.4505L11.6566 21.919L12.0205 21.4505ZM31.2996 21.5275L30.9585 21.0421L31.2996 21.5275ZM20.1027 32.1499C18.8443 32.1499 17.9317 32.1496 17.2096 32.0979C16.4934 32.0467 16.0094 31.9473 15.6034 31.7711L15.131 32.8596C15.711 33.1112 16.3449 33.2257 17.125 33.2815C17.8992 33.3368 18.8613 33.3364 20.1027 33.3364V32.1499ZM11.4622 24.3127C11.4622 25.6143 11.4619 26.6189 11.5144 27.4264C11.5673 28.2388 11.6756 28.8937 11.9121 29.4918L13.0155 29.0555C12.8436 28.6208 12.7476 28.1045 12.6985 27.3493C12.649 26.5893 12.6487 25.6298 12.6487 24.3127H11.4622ZM15.6034 31.7711C14.4384 31.2656 13.5043 30.2919 13.0155 29.0555L11.9121 29.4918C12.5122 31.0097 13.667 32.2243 15.131 32.8596L15.6034 31.7711ZM30.7756 24.3127C30.7756 25.6298 30.7753 26.5893 30.7258 27.3493C30.6766 28.1045 30.5807 28.6208 30.4088 29.0555L31.5122 29.4918C31.7487 28.8937 31.8569 28.2388 31.9099 27.4264C31.9625 26.6189 31.9622 25.6143 31.9622 24.3127H30.7756ZM23.3216 33.3364C24.563 33.3364 25.5251 33.3368 26.2993 33.2815C27.0794 33.2257 27.7133 33.1112 28.2932 32.8596L27.8209 31.7711C27.4149 31.9473 26.9309 32.0467 26.2147 32.0979C25.4926 32.1496 24.58 32.1499 23.3216 32.1499V33.3364ZM30.4088 29.0555C29.92 30.2919 28.9859 31.2656 27.8209 31.7711L28.2932 32.8596C29.7573 32.2243 30.9121 31.0097 31.5122 29.4918L30.4088 29.0555ZM12.6487 24.3127C12.6487 22.7584 12.5753 22.3289 12.6463 21.5295L11.4645 21.4245C11.388 22.2852 11.4622 22.9066 11.4622 24.3127H12.6487ZM29.7594 17.2419C30.9132 17.2419 31.8486 18.1772 31.8486 19.331H33.0351C33.0351 17.5219 31.5686 16.0553 29.7594 16.0553V17.2419ZM13.6649 16.0553C11.8557 16.0553 10.3892 17.5219 10.3892 19.331H11.5757C11.5757 18.1772 12.511 17.2419 13.6649 17.2419V16.0553ZM22.9554 15.8761L25.2316 13.6L24.3925 12.761L22.1164 15.0371L22.9554 15.8761ZM25.2316 13.6C26.0474 12.7841 27.3702 12.7841 28.1861 13.6L29.0251 12.761C27.7458 11.4818 25.6718 11.4818 24.3925 12.761L25.2316 13.6ZM22.1164 15.0371C21.7783 15.3752 21.304 15.8873 21.1396 16.4933L22.2847 16.8039C22.3572 16.5367 22.6079 16.2237 22.9554 15.8761L22.1164 15.0371ZM28.1861 13.6C28.9216 14.3355 28.9943 15.4842 28.4029 16.3005L29.3638 16.9966C30.2918 15.7156 30.1794 13.9153 29.0251 12.761L28.1861 13.6ZM21.4762 15.0371L19.2001 12.761L18.361 13.6L20.6372 15.8761L21.4762 15.0371ZM19.2001 12.761C17.9208 11.4818 15.8468 11.4818 14.5675 12.761L15.4065 13.6C16.2224 12.7842 17.5452 12.7842 18.361 13.6L19.2001 12.761ZM20.6372 15.8761C20.8863 16.1253 21.0395 16.435 21.1396 16.8039L22.2847 16.4933C22.1479 15.989 21.9127 15.4736 21.4762 15.0371L20.6372 15.8761ZM14.5675 12.761C13.4132 13.9153 13.3008 15.7156 14.2288 16.9967L15.1897 16.3005C14.5983 15.4842 14.671 14.3355 15.4065 13.6L14.5675 12.761ZM21.1189 16.6486L21.1189 31.6702H22.3054L22.3054 16.6486H21.1189ZM14.7093 17.2419L21.7121 17.2419L21.7121 16.0553L14.7093 16.0553L14.7093 17.2419ZM13.6649 21.4202C13.1816 21.4202 12.7383 21.2569 12.3845 20.982L11.6566 21.919C12.2111 22.3499 12.9088 22.6067 13.6649 22.6067V21.4202ZM12.3845 20.982C11.8913 20.5988 11.5757 20.0019 11.5757 19.331H10.3892C10.3892 20.3838 10.8865 21.3207 11.6566 21.919L12.3845 20.982ZM12.414 21.0044L12.3792 20.9779L11.6619 21.9231L11.6968 21.9496L12.414 21.0044ZM23.3216 32.1499H21.7121V33.3364H23.3216V32.1499ZM21.7121 32.1499H20.1027V33.3364H21.7121V32.1499ZM21.1189 31.6702L21.1189 32.7432L22.3054 32.7432L22.3054 31.6702H21.1189ZM29.7594 21.4202H21.7121V22.6067H29.7594V21.4202ZM21.7121 21.4202H13.6649V22.6067H21.7121V21.4202ZM31.8486 19.331C31.8486 20.038 31.498 20.6631 30.9585 21.0421L31.6406 22.013C32.4827 21.4214 33.0351 20.4408 33.0351 19.331H31.8486ZM30.9585 21.0421C30.6193 21.2804 30.2066 21.4202 29.7594 21.4202V22.6067C30.4585 22.6067 31.1081 22.387 31.6406 22.013L30.9585 21.0421ZM31.9622 24.3127C31.9622 22.8678 31.9625 22.3078 31.8906 21.4764L30.7085 21.5786C30.7752 22.35 30.7756 22.8576 30.7756 24.3127H31.9622ZM21.7121 17.2419L28.6056 17.2419L28.6056 16.0553L21.7121 16.0553L21.7121 17.2419ZM28.6056 17.2419L28.8834 17.2418L28.8833 16.0553L28.6055 16.0553L28.6056 17.2419ZM28.6056 17.2419L29.7594 17.2419L29.7594 16.0553L28.6056 16.0553L28.6056 17.2419ZM14.7093 16.0553H13.6649V17.2419H14.7093V16.0553ZM13.6649 17.2419L17.6885 17.2419L17.6885 16.0553L13.6649 16.0553L13.6649 17.2419ZM17.6885 17.2419L21.7121 17.2419L21.7121 16.0553L17.6885 16.0553L17.6885 17.2419ZM14.7093 17.2419L17.6885 17.2419L17.6885 16.0553L14.7093 16.0553L14.7093 17.2419ZM21.7121 17.2419L28.8833 17.2418L28.8833 16.0553L21.7121 16.0553L21.7121 17.2419Z" fill="white"/>
</svg>
