<svg width="36" height="34" viewBox="0 0 36 34" fill="none" xmlns="http://www.w3.org/2000/svg">
<path d="M8.14496 31.9429L7.74688 32.8602L8.14496 31.9429ZM3.63499 27.2182L2.70504 27.5858L3.63499 27.2182ZM32.3663 27.2182L33.2963 27.5858L32.3663 27.2182ZM27.8563 31.9429L28.2544 32.8602V32.8602L27.8563 31.9429ZM3.00065 15.1075L3.99673 15.196L4.04567 14.6451L3.60514 14.3109L3.00065 15.1075ZM30.5007 7.60743V6.60743H30.5006L30.5007 7.60743ZM19.2803 5.75592L19.9874 6.46303L19.2803 5.75592ZM22.8158 2.22039L23.5229 2.9275V2.9275L22.8158 2.22039ZM28.7084 2.22039L28.0012 2.9275V2.9275L28.7084 2.22039ZM29.1398 7.60741L29.1399 8.60741L29.6502 8.60738L29.9496 8.19409L29.1398 7.60741ZM16.9825 5.75594L16.2754 6.46305L16.9825 5.75594ZM13.447 2.22041L12.7398 2.92752L13.447 2.22041ZM7.55439 2.22041L8.2615 2.92752L7.55439 2.22041ZM18.0007 30.9408H19.0007H18.0007ZM2.94652 15.0664L2.33301 15.8561L2.94652 15.0664ZM32.893 15.186L32.3182 14.3677L32.893 15.186ZM15.5007 31.6074C13.5449 31.6074 12.1305 31.6068 11.0123 31.5269C9.90403 31.4477 9.16216 31.2942 8.54303 31.0255L7.74688 32.8602C8.65918 33.2561 9.65374 33.4349 10.8697 33.5218C12.0758 33.608 13.5736 33.6074 15.5007 33.6074V31.6074ZM2.0007 19.5122C2.0007 21.533 2.0002 23.0964 2.08208 24.3539C2.1645 25.6196 2.33343 26.646 2.70504 27.5858L4.56494 26.8505C4.30221 26.186 4.154 25.3933 4.07786 24.224C4.00118 23.0465 4.0007 21.5592 4.0007 19.5122H2.0007ZM8.54303 31.0255C6.75319 30.2489 5.31691 28.7523 4.56494 26.8505L2.70504 27.5858C3.64463 29.9622 5.45292 31.8648 7.74688 32.8602L8.54303 31.0255ZM32.0007 19.5122C32.0007 21.5591 32.0002 23.0465 31.9235 24.224C31.8473 25.3933 31.6991 26.186 31.4364 26.8505L33.2963 27.5858C33.6679 26.646 33.8368 25.6196 33.9192 24.3539C34.0011 23.0964 34.0006 21.533 34.0006 19.5122H32.0007ZM20.5007 33.6074C22.4277 33.6074 23.9255 33.608 25.1316 33.5218C26.3476 33.4349 27.3421 33.2561 28.2544 32.8602L27.4583 31.0255C26.8391 31.2942 26.0973 31.4477 24.989 31.5269C23.8708 31.6068 22.4564 31.6074 20.5007 31.6074V33.6074ZM31.4364 26.8505C30.6844 28.7523 29.2481 30.2489 27.4583 31.0255L28.2544 32.8602C30.5484 31.8648 32.3567 29.9622 33.2963 27.5858L31.4364 26.8505ZM4.0007 19.5122C4.0007 17.088 3.88676 16.4337 3.99673 15.196L2.00458 15.019C1.88543 16.36 2.0007 17.3379 2.0007 19.5122H4.0007ZM30.5007 8.60743C32.2496 8.60743 33.6673 10.0252 33.6673 11.7741H35.6673C35.6673 8.92063 33.3541 6.60743 30.5007 6.60743V8.60743ZM5.50065 6.60743C2.64718 6.60743 0.333984 8.92063 0.333984 11.7741H2.33398C2.33398 10.0252 3.75175 8.60743 5.50065 8.60743V6.60743ZM19.9874 6.46303L23.5229 2.9275L22.1087 1.51328L18.5732 5.04882L19.9874 6.46303ZM23.5229 2.9275C24.7596 1.69083 26.7646 1.69083 28.0012 2.9275L29.4155 1.51328C27.3978 -0.504427 24.1264 -0.504427 22.1087 1.51328L23.5229 2.9275ZM18.5732 5.04882C18.0486 5.57339 17.297 6.38194 17.0355 7.34565L18.9658 7.86927C19.0723 7.4766 19.4469 7.00348 19.9874 6.46303L18.5732 5.04882ZM28.0012 2.9275C29.1161 4.04231 29.2264 5.7834 28.33 7.02073L29.9496 8.19409C31.4134 6.17353 31.2361 3.33396 29.4155 1.51328L28.0012 2.9275ZM17.6896 5.04884L14.1541 1.5133L12.7398 2.92752L16.2754 6.46305L17.6896 5.04884ZM14.1541 1.5133C12.1363 -0.504405 8.865 -0.504405 6.84729 1.5133L8.2615 2.92752C9.49816 1.69086 11.5032 1.69086 12.7398 2.92752L14.1541 1.5133ZM16.2754 6.46305C16.65 6.83765 16.8825 7.30508 17.0355 7.86927L18.9658 7.34565C18.7509 6.55346 18.38 5.73926 17.6896 5.04884L16.2754 6.46305ZM6.84729 1.5133C5.02661 3.33398 4.8493 6.17355 6.31313 8.19412L7.93276 7.02075C7.03637 5.78343 7.14669 4.04233 8.2615 2.92752L6.84729 1.5133ZM17.0007 7.60746L17.0007 30.9408H19.0007L19.0007 7.60746H17.0007ZM7.12294 8.60743L18.0006 8.60746L18.0007 6.60746L7.12295 6.60743L7.12294 8.60743ZM5.50065 14.9408C4.76812 14.9408 4.09621 14.6933 3.56004 14.2767L2.33301 15.8561C3.20768 16.5356 4.30826 16.9408 5.50065 16.9408V14.9408ZM3.56004 14.2767C2.81218 13.6957 2.33398 12.791 2.33398 11.7741H0.333984C0.333984 13.4347 1.11848 14.9125 2.33301 15.8561L3.56004 14.2767ZM3.60514 14.3109L3.55102 14.2698L2.34203 15.863L2.39616 15.9041L3.60514 14.3109ZM20.5007 31.6074H18.0007V33.6074H20.5007V31.6074ZM18.0007 31.6074H15.5007V33.6074H18.0007V31.6074ZM17.0007 30.9408L17.0007 32.6074L19.0007 32.6074L19.0007 30.9408L17.0007 30.9408ZM30.5007 14.9408H18.0007V16.9408H30.5007V14.9408ZM18.0007 14.9408H5.50065V16.9408H18.0007V14.9408ZM33.6673 11.7741C33.6673 12.8456 33.1361 13.7931 32.3182 14.3677L33.4678 16.0042C34.7959 15.0713 35.6673 13.5245 35.6673 11.7741H33.6673ZM32.3182 14.3677C31.804 14.7289 31.1785 14.9408 30.5007 14.9408V16.9408C31.6032 16.9408 32.6279 16.5943 33.4678 16.0042L32.3182 14.3677ZM34.0006 19.5122C34.0006 17.2685 34.0013 16.3952 33.8893 15.0998L31.8967 15.2721C32 16.4664 32.0007 17.2513 32.0007 19.5122H34.0006ZM18.0007 8.60746L28.7084 8.60744L28.7084 6.60744L18.0006 6.60746L18.0007 8.60746ZM28.7084 8.60744L29.1399 8.60741L29.1397 6.60741L28.7083 6.60744L28.7084 8.60744ZM28.7084 8.60744L30.5007 8.60743L30.5006 6.60743L28.7084 6.60744L28.7084 8.60744ZM7.12295 6.60743H5.50065V8.60743H7.12295V6.60743ZM5.50065 8.60743L11.7506 8.60745L11.7507 6.60745L5.50065 6.60743L5.50065 8.60743ZM11.7506 8.60745L18.0006 8.60746L18.0007 6.60746L11.7507 6.60745L11.7506 8.60745ZM7.12294 8.60743L11.7506 8.60745L11.7507 6.60745L7.12295 6.60743L7.12294 8.60743ZM18.0007 8.60746L29.1398 8.60741L29.1398 6.60741L18.0006 6.60746L18.0007 8.60746Z" fill="#262626"/>
</svg>
