<svg width="47" height="47" viewBox="0 0 47 47" fill="none" xmlns="http://www.w3.org/2000/svg">
<rect x="0.742188" y="0.740845" width="45.5388" height="45.5388" rx="10.1444" fill="#ED2139"/>
<path d="M16.731 34.8409L16.4786 35.4225L16.731 34.8409ZM13.628 31.5902L13.0384 31.8234L13.628 31.5902ZM33.3956 31.5902L33.9852 31.8234L33.3956 31.5902ZM30.2926 34.8409L30.545 35.4225L30.2926 34.8409ZM13.1916 23.2579L13.8231 23.314L13.8542 22.9648L13.5749 22.7529L13.1916 23.2579ZM32.112 18.0978V17.4638H32.112L32.112 18.0978ZM24.3922 16.824L24.8405 17.2723L24.3922 16.824ZM26.8247 14.3915L27.273 14.8398L26.8247 14.3915ZM30.8788 14.3915L30.4305 14.8398L30.8788 14.3915ZM31.1757 18.0978L31.1757 18.7318L31.4993 18.7318L31.6891 18.4698L31.1757 18.0978ZM22.8113 16.824L22.363 17.2723L22.8113 16.824ZM20.3788 14.3915L19.9305 14.8398L20.3788 14.3915ZM16.3246 14.3915L16.773 14.8398L16.773 14.8398L16.3246 14.3915ZM23.5118 34.1514H24.1458H23.5118ZM13.1544 23.2297L12.7654 23.7304L13.1544 23.2297ZM33.7579 23.3119L33.3935 22.7931L33.7579 23.3119ZM21.7918 34.6641C20.447 34.6641 19.4716 34.6637 18.6999 34.6086C17.9345 34.5539 17.4172 34.4476 16.9833 34.2593L16.4786 35.4225C17.0983 35.6915 17.7758 35.8138 18.6095 35.8734C19.4369 35.9325 20.4651 35.9322 21.7918 35.9322V34.6641ZM12.5576 26.2885C12.5576 27.6795 12.5573 28.7531 12.6135 29.6161C12.67 30.4843 12.7857 31.1842 13.0384 31.8234L14.2177 31.3571C14.034 30.8925 13.9314 30.3408 13.8789 29.5337C13.826 28.7215 13.8257 27.6961 13.8257 26.2885H12.5576ZM16.9833 34.2593C15.7383 33.719 14.7401 32.6784 14.2177 31.3571L13.0384 31.8234C13.6798 33.4455 14.9139 34.7436 16.4786 35.4225L16.9833 34.2593ZM33.198 26.2884C33.198 27.6961 33.1977 28.7215 33.1447 29.5337C33.0922 30.3408 32.9896 30.8925 32.8059 31.3571L33.9852 31.8234C34.2379 31.1842 34.3536 30.4843 34.4101 29.6161C34.4663 28.7531 34.466 27.6795 34.466 26.2884H33.198ZM25.2318 35.9322C26.5585 35.9322 27.5867 35.9325 28.4141 35.8734C29.2478 35.8138 29.9253 35.6915 30.545 35.4225L30.0403 34.2593C29.6064 34.4476 29.0891 34.5539 28.3237 34.6086C27.552 34.6637 26.5766 34.6641 25.2318 34.6641V35.9322ZM32.8059 31.3571C32.2835 32.6784 31.2853 33.719 30.0403 34.2593L30.545 35.4225C32.1097 34.7436 33.3438 33.4455 33.9852 31.8234L32.8059 31.3571ZM13.8257 26.2885C13.8257 24.6273 13.7472 24.1684 13.8231 23.314L12.5601 23.2018C12.4783 24.1217 12.5576 24.7857 12.5576 26.2885H13.8257ZM32.112 18.7318C33.345 18.7318 34.3447 19.7315 34.3447 20.9645H35.6127C35.6127 19.0311 34.0454 17.4638 32.112 17.4638V18.7318ZM14.9116 17.4638C12.9782 17.4638 11.4109 19.0311 11.4109 20.9645H12.6789C12.6789 19.7315 13.6786 18.7318 14.9116 18.7318V17.4638ZM24.8405 17.2723L27.273 14.8398L26.3764 13.9431L23.9439 16.3756L24.8405 17.2723ZM27.273 14.8398C28.1449 13.9679 29.5586 13.9679 30.4305 14.8398L31.3272 13.9431C29.96 12.576 27.7435 12.576 26.3764 13.9431L27.273 14.8398ZM23.9439 16.3756C23.5825 16.737 23.0756 17.2842 22.8999 17.9318L24.1237 18.2638C24.2012 17.9783 24.4691 17.6437 24.8405 17.2723L23.9439 16.3756ZM30.4305 14.8398C31.2166 15.6258 31.2943 16.8534 30.6622 17.7258L31.6891 18.4698C32.6809 17.1007 32.5608 15.1767 31.3272 13.9431L30.4305 14.8398ZM23.2596 16.3756L20.8271 13.9432L19.9305 14.8398L22.363 17.2723L23.2596 16.3756ZM20.8271 13.9432C19.46 12.576 17.2434 12.576 15.8763 13.9432L16.773 14.8398C17.6449 13.9679 19.0586 13.9679 19.9305 14.8398L20.8271 13.9432ZM22.363 17.2723C22.6292 17.5385 22.7929 17.8695 22.8999 18.2638L24.1237 17.9318C23.9775 17.393 23.7261 16.8421 23.2596 16.3756L22.363 17.2723ZM15.8763 13.9432C14.6427 15.1767 14.5225 17.1008 15.5144 18.4698L16.5412 17.7258C15.9092 16.8534 15.9869 15.6259 16.773 14.8398L15.8763 13.9432ZM22.8778 18.0978L22.8778 34.1514H24.1458L24.1458 18.0978H22.8778ZM16.0278 18.7318L23.5118 18.7319L23.5118 17.4638L16.0278 17.4638L16.0278 18.7318ZM14.9116 23.1972C14.3952 23.1972 13.9214 23.0227 13.5434 22.729L12.7654 23.7304C13.358 24.1908 14.1037 24.4653 14.9116 24.4653V23.1972ZM13.5434 22.729C13.0162 22.3195 12.6789 21.6815 12.6789 20.9645H11.4109C11.4109 22.0896 11.9424 23.0909 12.7654 23.7304L13.5434 22.729ZM13.5749 22.7529L13.5376 22.7246L12.7711 23.7347L12.8083 23.763L13.5749 22.7529ZM25.2318 34.6641H23.5118V35.9322H25.2318V34.6641ZM23.5118 34.6641H21.7918V35.9322H23.5118V34.6641ZM22.8778 34.1514L22.8778 35.2981L24.1458 35.2981L24.1458 34.1514H22.8778ZM32.112 23.1972H23.5118V24.4653H32.112V23.1972ZM23.5118 23.1972H14.9116V24.4653H23.5118V23.1972ZM34.3447 20.9645C34.3447 21.7201 33.97 22.3881 33.3935 22.7931L34.1224 23.8308C35.0224 23.1985 35.6127 22.1505 35.6127 20.9645H34.3447ZM33.3935 22.7931C33.0309 23.0478 32.5898 23.1972 32.112 23.1972V24.4653C32.8591 24.4653 33.5533 24.2305 34.1224 23.8308L33.3935 22.7931ZM34.466 26.2884C34.466 24.7443 34.4664 24.1459 34.3896 23.2573L33.1262 23.3666C33.1975 24.1909 33.198 24.7334 33.198 26.2884H34.466ZM23.5118 18.7319L30.8788 18.7318L30.8788 17.4638L23.5118 17.4638L23.5118 18.7319ZM30.8789 18.7318L31.1757 18.7318L31.1756 17.4638L30.8788 17.4638L30.8789 18.7318ZM30.8788 18.7318L32.112 18.7318L32.112 17.4638L30.8788 17.4638L30.8788 18.7318ZM16.0278 17.4638H14.9116V18.7318H16.0278V17.4638ZM14.9116 18.7318L19.2117 18.7319L19.2117 17.4638L14.9116 17.4638L14.9116 18.7318ZM19.2117 18.7319L23.5118 18.7319L23.5118 17.4638L19.2117 17.4638L19.2117 18.7319ZM16.0278 18.7318L19.2117 18.7319L19.2117 17.4638L16.0278 17.4638L16.0278 18.7318ZM23.5118 18.7319L31.1757 18.7318L31.1757 17.4638L23.5118 17.4638L23.5118 18.7319Z" fill="white"/>
</svg>
