<svg width="59" height="58" viewBox="0 0 59 58" fill="none" xmlns="http://www.w3.org/2000/svg">
<circle cx="29.4746" cy="29" r="29" fill="url(#paint0_linear)"/>
<circle cx="29.4746" cy="29" r="29" fill="#E9EDFD"/>
<path d="M27.0799 30.2297H24.4004V27.2204H27.0799H27.3758V26.9245V24.1799C27.3758 22.6729 27.7973 21.5411 28.5048 20.7883C29.2105 20.0374 30.2329 19.6289 31.5061 19.6289C32.1304 19.6289 32.773 19.6883 33.2624 19.7484C33.4949 19.7769 33.6915 19.8055 33.8333 19.8275V22.3462H32.6516C31.8532 22.3462 31.2836 22.6135 30.9212 23.0593C30.5677 23.4942 30.4459 24.0568 30.4459 24.5887V26.9245V27.2204H30.7418H33.6502L33.216 30.2297H30.7418H30.4459V30.5256V38.9774C29.4271 39.1229 28.3946 39.1229 27.3758 38.9774V30.5256V30.2297H27.0799Z" fill="#97A2BB" stroke="#DDE5F6" stroke-width="0.591829"/>
<defs>
<linearGradient id="paint0_linear" x1="29.4746" y1="0" x2="29.4746" y2="58" gradientUnits="userSpaceOnUse">
<stop stop-color="#FCFEFF"/>
<stop offset="1" stop-color="#FAFCFF"/>
</linearGradient>
</defs>
</svg>
