<svg width="31" height="30" viewBox="0 0 31 30" fill="none" xmlns="http://www.w3.org/2000/svg">
<path d="M28 11.2504V18.7504C28 21.8754 27.375 24.0629 25.975 25.4754L18 17.5004L27.6625 7.83789C27.8875 8.82539 28 9.95039 28 11.2504Z" stroke="#80A6D1" stroke-width="1.875" stroke-linecap="round" stroke-linejoin="round"/>
<path d="M27.6625 7.83751L8.33749 27.1625C4.57499 26.3 3 23.7 3 18.75V11.25C3 5 5.5 2.5 11.75 2.5H19.25C24.2 2.5 26.8 4.07501 27.6625 7.83751Z" stroke="#80A6D1" stroke-width="1.875" stroke-linecap="round" stroke-linejoin="round"/>
<path d="M25.9735 25.475C24.561 26.875 22.3735 27.5 19.2485 27.5H11.7485C10.4485 27.5 9.32344 27.3875 8.33594 27.1625L17.9985 17.5L25.9735 25.475Z" stroke="#80A6D1" stroke-width="1.875" stroke-linecap="round" stroke-linejoin="round"/>
<path d="M8.30155 9.97539C9.15155 6.31289 14.6516 6.31289 15.5016 9.97539C15.9891 12.1254 14.639 13.9504 13.4515 15.0754C12.589 15.9004 11.2266 15.9004 10.3516 15.0754C9.16407 13.9504 7.80155 12.1254 8.30155 9.97539Z" stroke="#80A6D1" stroke-width="1.875"/>
<path d="M11.8681 10.875H11.8794" stroke="#80A6D1" stroke-width="2.5" stroke-linecap="round" stroke-linejoin="round"/>
</svg>
