<svg width="33" height="33" viewBox="0 0 33 33" fill="none" xmlns="http://www.w3.org/2000/svg">
<path d="M10.8898 6.46219L17.9711 6.46219C22.2061 6.46219 24.021 8.88218 24.021 12.5122L24.021 24.5984C24.021 25.2172 23.9661 25.8084 23.8424 26.3584C23.7874 26.7022 23.6911 27.0322 23.5811 27.3347C22.8111 29.3972 21.0236 30.6484 17.9711 30.6484L10.8898 30.6484C6.65479 30.6484 4.83984 28.2284 4.83984 24.5984L4.83984 12.5122C4.83984 9.43218 6.14609 7.21844 9.12984 6.62719C9.67984 6.53094 10.2435 6.46219 10.8898 6.46219Z" stroke="#6ACDC8" stroke-width="1.76786" stroke-miterlimit="10" stroke-linecap="round" stroke-linejoin="round"/>
<path d="M15.0139 2.33519L22.0951 2.33519C26.3301 2.33519 28.1451 4.75518 28.1451 8.38518L28.1451 20.4714C28.1451 21.4889 28.0077 22.4102 27.7052 23.2077C27.1002 24.8439 25.8489 25.9577 23.8414 26.3564C23.9652 25.8064 24.0201 25.2152 24.0201 24.5964L24.0201 12.5102C24.0201 8.88018 22.2051 6.46019 17.9701 6.46019L10.8889 6.46019C10.2426 6.46019 9.66516 6.51519 9.12891 6.62519C9.67891 4.01269 11.5214 2.33519 15.0139 2.33519Z" stroke="#6ACDC8" stroke-width="1.76786" stroke-miterlimit="10" stroke-linecap="round" stroke-linejoin="round"/>
<path d="M18.0686 18.5643C18.0686 16.5595 16.4434 14.9343 14.4386 14.9343C12.4338 14.9343 10.8086 16.5595 10.8086 18.5643C10.8086 20.5691 12.4338 22.1943 14.4386 22.1943C16.4434 22.1943 18.0686 20.5691 18.0686 18.5643Z" stroke="#6ACDC8" stroke-width="1.76786" stroke-miterlimit="10" stroke-linecap="round" stroke-linejoin="round"/>
<path d="M11.4141 26.4268L17.4641 26.4268" stroke="#6ACDC8" stroke-width="1.76786" stroke-miterlimit="10" stroke-linecap="round" stroke-linejoin="round"/>
<path d="M11.4141 10.6943L17.4641 10.6943" stroke="#6ACDC8" stroke-width="1.76786" stroke-miterlimit="10" stroke-linecap="round" stroke-linejoin="round"/>
</svg>
