<svg width="26" height="48" viewBox="0 0 26 48" fill="none" xmlns="http://www.w3.org/2000/svg">
<path fill-rule="evenodd" clip-rule="evenodd" d="M1.99861 35.0164L1.99861 12.9836C1.99861 6.91753 6.91614 2 12.9822 2C19.0483 2 23.9658 6.91753 23.9658 12.9836L23.9658 35.0164C23.9658 41.0825 19.0483 46 12.9822 46C6.91613 46 1.99861 41.0825 1.99861 35.0164ZM25.9658 35.0164C25.9658 42.187 20.1529 48 12.9822 48C5.81156 48 -0.00139376 42.187 -0.00139314 35.0164L-0.00139121 12.9836C-0.00139058 5.81296 5.81157 -1.76194e-06 12.9822 -1.13506e-06C20.1529 -5.08185e-07 25.9658 5.81296 25.9658 12.9836L25.9658 35.0164ZM13.3757 36.9836C13.8102 36.9836 14.1625 36.6313 14.1625 36.1967L14.1625 26.7541C14.1625 26.3195 13.8102 25.9672 13.3757 25.9672C12.9411 25.9672 12.5888 26.3195 12.5888 26.7541L12.5888 36.1967C12.5888 36.6313 12.9411 36.9836 13.3757 36.9836Z" fill="#AEB9CE"/>
</svg>
