<svg width="31" height="31" viewBox="0 0 31 31" fill="none" xmlns="http://www.w3.org/2000/svg">
<path d="M13.8304 21.9609V24.6732C13.8304 26.9713 11.6927 28.8285 9.06058 28.8285C6.42848 28.8285 4.27734 26.9713 4.27734 24.6732V21.9609C4.27734 24.259 6.41511 25.8891 9.06058 25.8891C11.6927 25.8891 13.8304 24.2457 13.8304 21.9609Z" stroke="#6ACDC8" stroke-width="1.77" stroke-linecap="round" stroke-linejoin="round"/>
<path d="M13.832 18.2854C13.832 18.9535 13.645 19.568 13.3243 20.1025C12.536 21.3985 10.9193 22.2135 9.04878 22.2135C7.17825 22.2135 5.56156 21.3851 4.77327 20.1025C4.4526 19.568 4.26562 18.9535 4.26562 18.2854C4.26562 17.1364 4.80003 16.1076 5.65513 15.3594C6.52359 14.5978 7.71267 14.1436 9.0354 14.1436C10.3581 14.1436 11.5473 14.6112 12.4158 15.3594C13.2976 16.0942 13.832 17.1364 13.832 18.2854Z" stroke="#6ACDC8" stroke-width="1.77" stroke-linecap="round" stroke-linejoin="round"/>
<path d="M13.8304 18.2861V21.9603C13.8304 24.2584 11.6927 25.8885 9.06058 25.8885C6.42848 25.8885 4.27734 24.2451 4.27734 21.9603V18.2861C4.27734 15.988 6.41511 14.1309 9.06058 14.1309C10.3833 14.1309 11.5725 14.5985 12.4409 15.3467C13.296 16.0949 13.8304 17.137 13.8304 18.2861Z" stroke="#6ACDC8" stroke-width="1.77" stroke-linecap="round" stroke-linejoin="round"/>
<path d="M28.8608 14.0913V16.8437C28.8608 17.5786 28.2729 18.1797 27.5247 18.2065H24.9059C23.4629 18.2065 22.1403 17.151 22.02 15.708C21.9398 14.8662 22.2605 14.0779 22.8216 13.5301C23.316 13.0224 23.9974 12.7285 24.7456 12.7285H27.5247C28.2729 12.7552 28.8608 13.3564 28.8608 14.0913Z" stroke="#6ACDC8" stroke-width="1.77" stroke-linecap="round" stroke-linejoin="round"/>
<path d="M2.14062 13.463V10.7908C2.14062 7.15664 4.33182 4.61806 7.73886 4.19051C8.08624 4.13707 8.44698 4.11035 8.82109 4.11035H20.8459C21.1933 4.11035 21.5273 4.1237 21.848 4.17714C25.2951 4.57797 27.5264 7.12992 27.5264 10.7908V12.7282H24.7473C23.9991 12.7282 23.3177 13.0221 22.8233 13.5298C22.2622 14.0776 21.9415 14.8659 22.0217 15.7076C22.1419 17.1506 23.4646 18.2061 24.9076 18.2061H27.5264V20.1435C27.5264 24.1517 24.8542 26.8239 20.8459 26.8239H17.5057" stroke="#6ACDC8" stroke-width="1.77" stroke-linecap="round" stroke-linejoin="round"/>
</svg>
