<svg width="31" height="12" viewBox="0 0 31 12" fill="none" xmlns="http://www.w3.org/2000/svg">
<path d="M0.985352 6.79402C0.54703 6.79402 0.191701 6.43869 0.191701 6.00037C0.191701 5.56204 0.54703 5.20672 0.985352 5.20672V6.79402ZM30.118 5.43917C30.4279 5.74911 30.4279 6.25162 30.118 6.56156L25.0672 11.6123C24.7573 11.9223 24.2548 11.9223 23.9448 11.6123C23.6349 11.3024 23.6349 10.7999 23.9448 10.4899L28.4344 6.00037L23.9448 1.5108C23.6349 1.20086 23.6349 0.698348 23.9448 0.388408C24.2548 0.0784678 24.7573 0.0784678 25.0672 0.388408L30.118 5.43917ZM0.985352 5.20672H29.5568V6.79402H0.985352V5.20672Z" fill="white"/>
</svg>
