<svg width="31" height="12" viewBox="0 0 31 12" fill="none" xmlns="http://www.w3.org/2000/svg">
<path d="M0.989014 6.79414C0.550692 6.79414 0.195363 6.43881 0.195363 6.00049C0.195363 5.56217 0.550692 5.20684 0.989014 5.20684V6.79414ZM30.1216 5.43929C30.4316 5.74923 30.4316 6.25174 30.1216 6.56168L25.0709 11.6124C24.7609 11.9224 24.2584 11.9224 23.9485 11.6124C23.6385 11.3025 23.6385 10.8 23.9485 10.4901L28.438 6.00049L23.9485 1.51092C23.6385 1.20098 23.6385 0.69847 23.9485 0.38853C24.2584 0.0785899 24.7609 0.0785899 25.0709 0.38853L30.1216 5.43929ZM0.989014 5.20684H29.5604V6.79414H0.989014V5.20684Z" fill="white"/>
</svg>
