<?xml version="1.0" standalone="no"?>
<!DOCTYPE svg PUBLIC "-//W3C//DTD SVG 20010904//EN"
 "http://www.w3.org/TR/2001/REC-SVG-20010904/DTD/svg10.dtd">
<svg version="1.0" xmlns="http://www.w3.org/2000/svg"
 width="82.000000pt" height="94.000000pt" viewBox="0 0 82.000000 94.000000"
 preserveAspectRatio="xMidYMid meet">

<g transform="translate(0.000000,94.000000) scale(0.100000,-0.100000)"
fill="#000000" stroke="none">
<path d="M310 901 c-81 -26 -167 -97 -203 -168 -42 -80 -37 -206 10 -290 45
-81 76 -104 230 -169 23 -9 35 -23 41 -46 l8 -32 13 33 c14 33 37 48 108 71
56 17 142 95 173 156 21 42 25 63 25 139 0 102 -18 150 -83 218 -60 62 -124
90 -217 93 -44 2 -91 0 -105 -5z m130 -160 c5 -11 10 -39 11 -63 1 -34 2 -38
8 -18 5 17 14 25 29 25 12 0 22 -4 21 -10 0 -5 9 -12 20 -17 19 -7 21 -15 21
-113 l0 -105 -95 0 -95 0 0 30 c0 17 -4 30 -10 30 -5 0 -10 -13 -10 -30 0 -29
-2 -30 -45 -30 l-45 0 0 148 c0 102 4 152 12 160 7 7 43 12 90 12 66 0 79 -3
88 -19z"/>
<path d="M310 685 c0 -8 5 -15 10 -15 6 0 10 7 10 15 0 8 -4 15 -10 15 -5 0
-10 -7 -10 -15z"/>
<path d="M370 685 c0 -8 5 -15 10 -15 6 0 10 7 10 15 0 8 -4 15 -10 15 -5 0
-10 -7 -10 -15z"/>
<path d="M310 595 c0 -19 5 -35 10 -35 6 0 10 16 10 35 0 19 -4 35 -10 35 -5
0 -10 -16 -10 -35z"/>
<path d="M370 595 c0 -19 5 -35 10 -35 6 0 10 16 10 35 0 19 -4 35 -10 35 -5
0 -10 -16 -10 -35z"/>
<path d="M380 85 c0 -8 9 -15 20 -15 11 0 20 7 20 15 0 8 -9 15 -20 15 -11 0
-20 -7 -20 -15z"/>
</g>
</svg>
