<svg width="50" height="50" viewBox="0 0 50 50" fill="none" xmlns="http://www.w3.org/2000/svg">
<path d="M4.1665 45.834H45.8332" stroke="white" stroke-width="2.4" stroke-linecap="round" stroke-linejoin="round"/>
<path d="M6.47998 45.834V27.084C6.47998 23.6257 9.58415 20.834 13.4175 20.834H36.5633C40.3966 20.834 43.5008 23.6257 43.5008 27.084V45.834" stroke="white" stroke-width="2.4" stroke-linecap="round" stroke-linejoin="round"/>
<path d="M11.5825 20.8327V14.9368C11.5825 12.4368 13.8325 10.416 16.6242 10.416H33.395C36.1659 10.416 38.4159 12.4368 38.4159 14.9368V20.8327" stroke="white" stroke-width="2.4" stroke-linecap="round" stroke-linejoin="round"/>
<path d="M7.35449 29.125L8.12533 29.1458C9.66699 29.1667 10.8962 30.4167 10.8962 31.9583V32.6458C10.8962 34.1875 12.1462 35.4583 13.7087 35.4583C15.2503 35.4583 16.5212 34.2083 16.5212 32.6458V32C16.5212 30.4583 17.7712 29.1875 19.3337 29.1875C20.8753 29.1875 22.1462 30.4375 22.1462 32V32.6458C22.1462 34.1875 23.3962 35.4583 24.9587 35.4583C26.5003 35.4583 27.7712 34.2083 27.7712 32.6458V32C27.7712 30.4583 29.0212 29.1875 30.5837 29.1875C32.1253 29.1875 33.3962 30.4375 33.3962 32V32.6458C33.3962 34.1875 34.6462 35.4583 36.2087 35.4583C37.7503 35.4583 39.0212 34.2083 39.0212 32.6458V32C39.0212 30.4583 40.2712 29.1875 41.8337 29.1875H42.7712" stroke="white" stroke-width="2.4" stroke-linecap="round" stroke-linejoin="round"/>
<path d="M16.6665 10.4167V6.25" stroke="white" stroke-width="2.4" stroke-linecap="round" stroke-linejoin="round"/>
<path d="M33.3335 10.4167V6.25" stroke="white" stroke-width="2.4" stroke-linecap="round" stroke-linejoin="round"/>
<path d="M25 10.416V4.16602" stroke="white" stroke-width="2.4" stroke-linecap="round" stroke-linejoin="round"/>
</svg>
