<svg width="50" height="50" viewBox="0 0 50 50" fill="none" xmlns="http://www.w3.org/2000/svg">
<path d="M37.5 31.25V39.5833C37.5 43.0208 34.6875 45.8333 31.25 45.8333H18.75C15.3125 45.8333 12.5 43.0208 12.5 39.5833V29.125L20.6042 29.1667C22.125 29.1667 23.625 29.5208 25 30.2083C26.375 30.8958 27.875 31.25 29.4167 31.25H37.5Z" stroke="white" stroke-width="2.5" stroke-linecap="round" stroke-linejoin="round"/>
<path d="M37.5 22.5619V31.2494H29.4167C27.875 31.2494 26.375 30.8952 25 30.2077C23.625 29.5202 22.125 29.166 20.6042 29.166L12.5 29.1243V22.5619C12.5 21.6035 13.0417 20.291 13.7292 19.6035L18.1459 15.1868C18.5209 14.8118 18.75 14.2702 18.75 13.7285V10.416H31.25V13.7285C31.25 14.2702 31.4791 14.8118 31.8541 15.1868L36.2708 19.6035C36.9583 20.291 37.5 21.6035 37.5 22.5619Z" stroke="white" stroke-width="2.5" stroke-linecap="round" stroke-linejoin="round"/>
<path d="M30.2082 10.416H19.7915C18.0623 10.416 16.6665 8.99935 16.6665 7.29102C16.6665 5.58268 18.0623 4.16602 19.7915 4.16602H30.2082C31.9373 4.16602 33.3332 5.58268 33.3332 7.29102C33.3332 8.99935 31.9373 10.416 30.2082 10.416Z" stroke="white" stroke-width="2.5" stroke-linecap="round" stroke-linejoin="round"/>
</svg>
