<svg width="40" height="40" viewBox="0 0 40 40" fill="none" xmlns="http://www.w3.org/2000/svg">
<path d="M3.3335 5H36.6668" stroke="white" stroke-width="2.4" stroke-miterlimit="10" stroke-linecap="round" stroke-linejoin="round"/>
<path d="M3.3335 15H18.3335" stroke="white" stroke-width="2.4" stroke-miterlimit="10" stroke-linecap="round" stroke-linejoin="round"/>
<path d="M3.3335 25H13.3335" stroke="white" stroke-width="2.4" stroke-miterlimit="10" stroke-linecap="round" stroke-linejoin="round"/>
<path d="M3.3335 35H10.0002" stroke="white" stroke-width="2.4" stroke-miterlimit="10" stroke-linecap="round" stroke-linejoin="round"/>
<path d="M19.7334 36.667C21.7401 36.667 23.3668 35.0403 23.3668 33.0337C23.3668 31.0271 21.7401 29.4004 19.7334 29.4004C17.7268 29.4004 16.1001 31.0271 16.1001 33.0337C16.1001 35.0403 17.7268 36.667 19.7334 36.667Z" stroke="white" stroke-width="2.4" stroke-linecap="round" stroke-linejoin="round"/>
<path d="M36.6672 30.6182V16.4348C36.6672 13.4182 34.7672 13.0015 32.8505 13.5182L25.6005 15.5015C24.2839 15.8682 23.3672 16.9015 23.3672 18.4182V20.9515V22.6516V33.0349" stroke="white" stroke-width="2.4" stroke-linecap="round" stroke-linejoin="round"/>
<path d="M33.0342 34.253C35.0408 34.253 36.6675 32.6263 36.6675 30.6196C36.6675 28.613 35.0408 26.9863 33.0342 26.9863C31.0276 26.9863 29.4009 28.613 29.4009 30.6196C29.4009 32.6263 31.0276 34.253 33.0342 34.253Z" stroke="white" stroke-width="2.4" stroke-linecap="round" stroke-linejoin="round"/>
<path d="M23.3672 22.6704L36.6672 19.0371" stroke="white" stroke-width="2.4" stroke-linecap="round" stroke-linejoin="round"/>
</svg>
