<svg width="27" height="27" viewBox="0 0 27 27" fill="none" xmlns="http://www.w3.org/2000/svg">
<path d="M2.25 16.875H20.8125C22.9837 16.875 24.75 18.6413 24.75 20.8125C24.75 22.9837 22.9837 24.75 20.8125 24.75C18.6413 24.75 16.875 22.9837 16.875 20.8125V20.25" stroke="#292D32" stroke-width="1.5" stroke-miterlimit="10" stroke-linecap="round" stroke-linejoin="round"/>
<path d="M2.25 13.5H20.8125C22.9725 13.5 24.75 11.7337 24.75 9.5625C24.75 7.4025 22.9725 5.625 20.8125 5.625C18.6525 5.625 16.875 7.39125 16.875 9.5625V10.125" stroke="#292D32" stroke-width="1.5" stroke-miterlimit="10" stroke-linecap="round" stroke-linejoin="round"/>
<path d="M2.25 10.1248H10.4737C12.15 10.1248 13.5 8.76352 13.5 7.09852C13.5 5.42227 12.1387 4.07227 10.4737 4.07227C8.7975 4.07227 7.44749 5.43352 7.44749 7.09852V7.52602" stroke="#292D32" stroke-width="1.5" stroke-miterlimit="10" stroke-linecap="round" stroke-linejoin="round"/>
</svg>
